<svg width="100" height="100" viewBox="0 0 100 100" fill="none" xmlns="http://www.w3.org/2000/svg">
<circle cx="50" cy="50" r="40" fill="#FFBA34"/>
<g opacity="0.5">
<path d="M68 62L74 56" stroke="#F20D61" stroke-width="4" stroke-linecap="round" stroke-linejoin="round"/>
<path d="M16 62L22 56" stroke="#F20D61" stroke-width="4" stroke-linecap="round" stroke-linejoin="round"/>
<path d="M78 62L84 56" stroke="#F20D61" stroke-width="4" stroke-linecap="round" stroke-linejoin="round"/>
<path d="M26 62L32 56" stroke="#F20D61" stroke-width="4" stroke-linecap="round" stroke-linejoin="round"/>
</g>
<circle cx="33" cy="44" r="15" fill="white"/>
<circle cx="15" cy="15" r="15" transform="matrix(-1 0 0 1 82 29)" fill="white"/>
<circle cx="31" cy="40" r="9" fill="#572217"/>
<circle cx="27" cy="36" r="4" fill="white"/>
<circle cx="36" cy="45" r="3" fill="white"/>
<circle cx="65" cy="40" r="9" fill="#572217"/>
<circle cx="61" cy="36" r="4" fill="white"/>
<circle cx="70" cy="45" r="3" fill="white"/>
<path d="M39.2805 68.6491C39.2805 68.6491 44.3035 76 58.5 73.5C72.6965 71 72.6965 62.0315 72.6965 62.0315" stroke="#572217" stroke-width="4" stroke-linecap="round" stroke-linejoin="round"/>
<mask id="mask0_34_460" style="mask-type:alpha" maskUnits="userSpaceOnUse" x="8" y="4" width="84" height="24">
<path d="M50 28C73.196 28 92 22.6274 92 16C92 9.37258 73.196 4 50 4C26.804 4 8 9.37258 8 16C8 22.6274 26.804 28 50 28ZM50 20C32.3269 20 18 16.866 18 13C18 9.13401 32.3269 6 50 6C67.6731 6 82 9.13401 82 13C82 16.866 67.6731 20 50 20Z" fill="#00A3FF"/>
</mask>
<g mask="url(#mask0_34_460)">
<ellipse cx="50" cy="16.5" rx="48" ry="16.5" fill="#00A3FF"/>
<ellipse cx="50" cy="15" rx="36" ry="9" fill="#3DCEFF"/>
</g>
</svg>
