<svg width="100" height="100" viewBox="0 0 100 100" fill="none" xmlns="http://www.w3.org/2000/svg">
<g filter="url(#filter0_i_225_1257)">
<path d="M83 66.4186C83 83.8605 68.2254 98 50 98C31.7746 98 17 83.8605 17 66.4186C17 46.8642 36.53 18.6802 45.5412 6.71668C47.5163 4.09452 48.5039 2.78344 50 2.78344C51.4961 2.78344 52.4837 4.09452 54.4588 6.71668C63.47 18.6802 83 46.8642 83 66.4186Z" fill="#F20D44"/>
</g>
<path d="M29 72C32.547 63.5738 44.7338 38.4185 50.0982 32.0327M50.0982 32.0327H56.3054C66.3095 31.078 68.5289 51.3038 57.1926 52.7695M50.0982 32.0327C50.5114 48 50.9425 60.1427 51.873 74H58.967C71.2092 73.4729 68.5289 51.3038 57.1926 52.7695M35.4242 60.1427C41.1881 62.1177 45.6219 62.6114 50.9425 62.6114M57.1926 52.7695C57.1926 52.7695 54.0603 53.5 51.3986 53" stroke="white" stroke-width="8" stroke-linecap="round" stroke-linejoin="round"/>
<defs>
<filter id="filter0_i_225_1257" x="17" y="2.78345" width="66" height="95.2166" filterUnits="userSpaceOnUse" color-interpolation-filters="sRGB">
<feFlood flood-opacity="0" result="BackgroundImageFix"/>
<feBlend mode="normal" in="SourceGraphic" in2="BackgroundImageFix" result="shape"/>
<feColorMatrix in="SourceAlpha" type="matrix" values="0 0 0 0 0 0 0 0 0 0 0 0 0 0 0 0 0 0 127 0" result="hardAlpha"/>
<feOffset dy="-6"/>
<feComposite in2="hardAlpha" operator="arithmetic" k2="-1" k3="1"/>
<feColorMatrix type="matrix" values="0 0 0 0 0.533333 0 0 0 0 0.0117647 0 0 0 0 0.188235 0 0 0 1 0"/>
<feBlend mode="normal" in2="shape" result="effect1_innerShadow_225_1257"/>
</filter>
</defs>
</svg>
