<svg width="100" height="100" viewBox="0 0 100 100" fill="none" xmlns="http://www.w3.org/2000/svg">
<circle opacity="0.5" cx="50" cy="50" r="39" fill="#5731FF"/>
<path d="M50 9.5L57.7318 33.9447L81.6642 24.7487L67.3732 46.0347L89.4846 59.0121L63.9322 61.1106L67.5723 86.4892L50 67.82L32.4277 86.4892L36.0678 61.1106L10.5154 59.0121L32.6268 46.0347L18.3358 24.7487L42.2682 33.9447L50 9.5Z" fill="#A4A5FF"/>
<path d="M50 9.5L57.7318 33.9447L81.6642 24.7487L67.3732 46.0347L89.4846 59.0121L63.9322 61.1106L67.5723 86.4892L50 67.82L32.4277 86.4892L36.0678 61.1106L10.5154 59.0121L32.6268 46.0347L18.3358 24.7487L42.2682 33.9447L50 9.5Z" fill="#38001E" fill-opacity="0.5"/>
<path d="M50 9.5L57.7318 33.9447L81.6642 24.7487L67.3732 46.0347L89.4846 59.0121L63.9322 61.1106L67.5723 86.4892L50 67.82L32.4277 86.4892L36.0678 61.1106L10.5154 59.0121L32.6268 46.0347L18.3358 24.7487L42.2682 33.9447L50 9.5Z" stroke="white" stroke-width="4" stroke-linejoin="round"/>
<path d="M49.2662 36.6965C47.4016 37.1961 45.6949 38.17 44.2973 39.5318C42.8997 40.8936 41.8543 42.6014 41.2538 44.5038C40.6532 46.4062 40.516 48.4446 40.8544 50.4383C41.1927 52.4321 41.9961 54.3196 43.1934 55.9339C44.3907 57.5481 45.945 58.8391 47.7186 59.6926C49.4921 60.5462 51.4302 60.9358 53.3611 60.827C55.2921 60.7182 57.1563 60.1144 58.7886 59.069C60.4209 58.0236 61.771 56.569 62.7192 54.8339C62.7192 54.8339 56.6575 53.7241 52.4503 48.5796C48.243 43.4351 49.2662 36.6965 49.2662 36.6965Z" fill="#FFE100"/>
</svg>
