<svg width="100" height="100" viewBox="0 0 100 100" fill="none" xmlns="http://www.w3.org/2000/svg">
<circle opacity="0.5" cx="50" cy="50" r="39" fill="#F20D44"/>
<path d="M50 9.5L57.7318 33.9447L81.6642 24.7487L67.3732 46.0347L89.4846 59.0121L63.9322 61.1106L67.5723 86.4892L50 67.82L32.4277 86.4892L36.0678 61.1106L10.5154 59.0121L32.6268 46.0347L18.3358 24.7487L42.2682 33.9447L50 9.5Z" fill="#880330" stroke="white" stroke-width="4" stroke-linejoin="round"/>
<path d="M50 30.5L53.8919 41.9183L65.2457 37.8419L58.7451 48.004L69.0111 54.3392L57.013 55.5927L58.4607 67.5689L50 58.97L41.5393 67.5689L42.987 55.5927L30.9889 54.3392L41.2549 48.004L34.7543 37.8419L46.1081 41.9183L50 30.5Z" fill="#F20D44"/>
</svg>
