<svg width="100" height="100" viewBox="0 0 100 100" fill="none" xmlns="http://www.w3.org/2000/svg">
<circle cx="50" cy="50" r="42" fill="#FFBA34"/>
<path d="M76.6472 60.3684C60.2127 63.2736 35.9626 59.2645 21.9436 51.8056C20.3872 50.9775 19.609 50.5635 18.9869 50.6374C18.4534 50.7007 17.9444 50.9942 17.6222 51.4241C17.2465 51.9255 17.22 52.6625 17.167 54.1366C16.4678 73.587 36.1225 84.5 49.9999 84.5C63.3687 84.5 74.9502 78.5426 80.4968 64.504C81.1457 62.8617 81.4702 62.0405 81.3006 61.4037C81.1521 60.8464 80.7751 60.3847 80.2588 60.1278C79.6688 59.8343 78.6616 60.0123 76.6472 60.3684Z" fill="#E60045"/>
<path d="M32.0003 26.0002C40.2844 26.0004 47.0003 31.3729 47.0003 38.0002C47.0002 39.8877 46.4547 41.6727 45.4837 43.2612C45.0536 43.9649 44.8385 44.3168 44.4358 44.414C44.0331 44.5111 43.589 44.2396 42.7008 43.6967C39.9797 42.0333 36.1915 41.0003 32.0003 41.0002C27.8089 41.0002 24.0197 42.0324 21.2982 43.6956C20.4097 44.2386 19.9655 44.5101 19.5628 44.4128C19.16 44.3156 18.9451 43.9636 18.5151 43.2597C17.545 41.6716 17.0004 39.887 17.0003 38.0002C17.0003 31.3728 23.716 26.0002 32.0003 26.0002Z" fill="white"/>
<path d="M68.0003 26.0002C76.2844 26.0004 83.0003 31.3729 83.0003 38.0002C83.0002 39.8877 82.4547 41.6727 81.4837 43.2612C81.0536 43.9649 80.8385 44.3168 80.4358 44.414C80.0331 44.5111 79.589 44.2396 78.7008 43.6967C75.9797 42.0333 72.1915 41.0003 68.0003 41.0002C63.8089 41.0002 60.0197 42.0324 57.2982 43.6956C56.4097 44.2386 55.9655 44.5101 55.5628 44.4128C55.16 44.3156 54.9451 43.9636 54.5151 43.2597C53.545 41.6716 53.0004 39.887 53.0003 38.0002C53.0003 31.3728 59.716 26.0002 68.0003 26.0002Z" fill="white"/>
<path d="M33.5001 34.25C33.5001 37.9779 30.478 41 26.7501 41C23.0222 41 20.0001 37.9779 20.0001 34.25C20.0001 30.522 23.0222 27.5 26.7501 27.5C30.478 27.5 33.5001 30.522 33.5001 34.25Z" fill="#471C13"/>
<path d="M69.5001 34.25C69.5001 37.9779 66.478 41 62.7501 41C59.0222 41 56.0001 37.9779 56.0001 34.25C56.0001 30.522 59.0222 27.5 62.7501 27.5C66.478 27.5 69.5001 30.522 69.5001 34.25Z" fill="#471C13"/>
</svg>
