<svg width="100" height="100" viewBox="0 0 100 100" fill="none" xmlns="http://www.w3.org/2000/svg">
<circle cx="50" cy="50" r="42" fill="#FFBA34"/>
<path d="M76.6472 60.3684C60.2128 63.2736 35.9627 59.2645 21.9436 51.8056C20.3879 50.9779 19.6101 50.564 18.988 50.6378C18.4545 50.7011 17.9456 50.9944 17.6234 51.4243C17.2477 51.9255 17.221 52.6624 17.1676 54.1362C16.4588 73.6971 36.1192 85.2711 50 84.5C63.3614 83.7577 74.9372 78.3871 80.4875 64.5012L80.4876 64.5011C81.1412 62.8657 81.4681 62.048 81.2999 61.4094C81.153 60.8518 80.7748 60.3868 80.2588 60.1293C79.668 59.8345 78.6611 60.0124 76.6472 60.3684Z" fill="#E40037"/>
<path d="M32.0002 26.0003C40.2844 26.0004 47.0002 31.373 47.0002 38.0003C47.0002 39.8877 46.4546 41.6728 45.4837 43.2612C45.0535 43.965 44.8384 44.3169 44.4357 44.414C44.0331 44.5112 43.589 44.2397 42.7007 43.6967C39.9796 42.0333 36.1914 41.0004 32.0002 41.0003C27.8089 41.0003 24.0196 42.0325 21.2981 43.6957C20.4096 44.2386 19.9654 44.5101 19.5627 44.4129C19.16 44.3156 18.945 43.9637 18.515 43.2597C17.545 41.6716 17.0003 39.887 17.0002 38.0003C17.0002 31.3729 23.716 26.0003 32.0002 26.0003Z" fill="white"/>
<path d="M68.0002 26.0003C76.2844 26.0004 83.0002 31.373 83.0002 38.0003C83.0002 39.8877 82.4546 41.6728 81.4837 43.2612C81.0535 43.965 80.8384 44.3169 80.4357 44.414C80.0331 44.5112 79.589 44.2397 78.7007 43.6967C75.9796 42.0333 72.1914 41.0004 68.0002 41.0003C63.8089 41.0003 60.0196 42.0325 57.2981 43.6957C56.4096 44.2386 55.9654 44.5101 55.5627 44.4129C55.16 44.3156 54.945 43.9637 54.515 43.2597C53.545 41.6716 53.0003 39.887 53.0002 38.0003C53.0002 31.3729 59.716 26.0003 68.0002 26.0003Z" fill="white"/>
<path d="M33.5001 34.25C33.5001 37.9779 30.478 41 26.7501 41C23.0222 41 20.0001 37.9779 20.0001 34.25C20.0001 30.522 23.0222 27.5 26.7501 27.5C30.478 27.5 33.5001 30.522 33.5001 34.25Z" fill="#572217"/>
<path d="M69.5001 34.25C69.5001 37.9779 66.478 41 62.7501 41C59.0222 41 56.0001 37.9779 56.0001 34.25C56.0001 30.522 59.0222 27.5 62.7501 27.5C66.478 27.5 69.5001 30.522 69.5001 34.25Z" fill="#572217"/>
</svg>
