<svg width="100" height="100" viewBox="0 0 100 100" fill="none" xmlns="http://www.w3.org/2000/svg">
<rect x="8" y="8" width="84" height="84" rx="12" fill="#C100F1"/>
<path d="M92 68C92 79.3137 92.0001 84.9706 88.4854 88.4854C84.9706 92.0001 79.3137 92 68 92H32C20.6863 92 15.0294 92.0001 11.5146 88.4854C7.99993 84.9706 8 79.3137 8 68V62C8 73.3137 7.99993 78.9706 11.5146 82.4854C15.0294 86.0001 20.6863 86 32 86H68C79.3137 86 84.9706 86.0001 88.4854 82.4854C92.0001 78.9706 92 73.3137 92 62V68Z" fill="#780A9B"/>
<path d="M29.6022 29.2576C36.1153 23.7889 44.8017 25.6345 50 31.6067C55.1983 25.6345 63.737 23.8464 70.3621 29.2576C76.9872 34.6688 77.7923 43.8696 72.6775 50.3376C68.4248 55.715 54.2181 68.329 50 72C45.7819 68.329 31.5395 55.715 27.2869 50.3376C22.1721 43.8696 23.0891 34.7263 29.6022 29.2576Z" stroke="white" stroke-width="8" stroke-linecap="round" stroke-linejoin="round"/>
</svg>
