<svg width="100" height="100" viewBox="0 0 100 100" fill="none" xmlns="http://www.w3.org/2000/svg">
<rect x="8" y="8" width="84" height="84" rx="12" fill="#FF468B"/>
<path d="M92 68C92 79.3137 92.0001 84.9706 88.4854 88.4854C84.9706 92.0001 79.3137 92 68 92H32C20.6863 92 15.0294 92.0001 11.5146 88.4854C7.99993 84.9706 8 79.3137 8 68V62C8 73.3137 7.99993 78.9706 11.5146 82.4854C15.0294 86.0001 20.6863 86 32 86H68C79.3137 86 84.9706 86.0001 88.4854 82.4854C92.0001 78.9706 92 73.3137 92 62V68Z" fill="#94205E"/>
<path d="M29.6022 66.7424C36.1153 72.2111 44.8017 70.3655 50 64.3933C55.1983 70.3655 63.737 72.1536 70.3621 66.7424C76.9872 61.3312 77.7923 52.1304 72.6775 45.6624C68.4248 40.285 54.2181 27.671 50 24C45.7819 27.671 31.5395 40.285 27.2869 45.6624C22.1721 52.1304 23.0891 61.2737 29.6022 66.7424Z" stroke="white" stroke-width="8" stroke-linecap="round" stroke-linejoin="round"/>
</svg>
