<svg width="100" height="100" viewBox="0 0 100 100" fill="none" xmlns="http://www.w3.org/2000/svg">
<g clip-path="url(#clip0_21_485)">
<path d="M42.0742 12.0041C42.8521 13.0587 43.6996 14.1396 44.6435 15.3178C45.3015 16.139 45.6305 16.5496 46.0988 16.7465C46.5672 16.9433 47.0943 16.8906 48.1485 16.7851L53.5132 16.2487C54.7226 16.1277 55.3273 16.0673 55.7816 15.7151C56.2359 15.3629 56.4449 14.7933 56.8629 13.654C57.1861 12.773 57.4793 11.975 57.7661 11.2118C59.5481 6.4684 60.4391 4.09669 59.1773 3.20564L59.1668 3.19822C57.8992 2.31533 56.2662 3.71022 53 6.5C52.1315 4.24833 51.6973 3.1225 51.0038 2.77617C50.5162 2.5327 49.9356 2.49994 49.4237 2.68701C48.6956 2.95311 48.3909 3.53718 47.7815 4.70533C47.4883 5.26728 47.2313 5.86103 47 6.5C42.5034 5.38185 40.2552 4.82278 39.453 5.66401C39.29 5.83498 39.1679 6.01755 39.0722 6.23351C38.601 7.29609 39.7587 8.86543 42.0742 12.0041Z" fill="#FFBA34"/>
<path d="M88.9971 5.56244C90.8671 5.50342 91.802 5.47383 92.4141 6.08588C93.0261 6.69795 92.9965 7.63289 92.9375 9.50287C91.8705 43.311 77.406 54.7028 73.8066 57.0224C73.481 57.2322 73.3183 57.3375 73.042 57.4189C72.7655 57.5003 72.5286 57.4999 72.0557 57.4999H27.9443C27.4714 57.4999 27.2345 57.5003 26.958 57.4189C26.6817 57.3375 26.5189 57.2322 26.1934 57.0224C22.5939 54.7028 8.1295 43.311 7.0625 9.50287C7.00348 7.6329 6.97386 6.69795 7.58594 6.08588C8.19801 5.4738 9.13296 5.50342 11.0029 5.56244C30.7871 6.18684 42.8946 11.3997 50 16.3378C57.1054 11.3996 69.2128 6.18684 88.9971 5.56244Z" fill="#E27C23"/>
<path d="M83.0273 11.0342C84.906 10.9705 85.8457 10.9384 86.4609 11.5596C87.0761 12.1811 87.0356 13.1149 86.9531 14.9814C85.8099 40.8352 73.7515 49.7208 70.5752 51.6221C70.2709 51.8042 70.1187 51.8955 69.8574 51.9678C69.5959 52.0401 69.3763 52.04 68.9384 52.04H31.0615C30.6236 52.04 30.4041 52.0401 30.1425 51.9678C29.8811 51.8955 29.7291 51.8042 29.4248 51.6221C26.2486 49.7209 14.19 40.8354 13.0468 14.9814C12.9643 13.1149 12.9228 12.1811 13.538 11.5596C14.1533 10.938 15.0935 10.9704 16.9726 11.0342C33.6802 11.6009 43.9462 15.6702 49.999 19.5273C56.0516 15.67 66.3185 11.6009 83.0273 11.0342Z" fill="#B72343"/>
<circle cx="50" cy="50" r="42" fill="#FFBA34"/>
<mask id="mask0_21_485" style="mask-type:alpha" maskUnits="userSpaceOnUse" x="8" y="8" width="84" height="84">
<circle cx="50" cy="50" r="42" fill="#FFBA34"/>
</mask>
<g mask="url(#mask0_21_485)">
<path d="M79.8995 60.4034C78.0516 59.8072 78.0516 57.1928 79.8995 56.5966L96.8859 51.1162C98.1773 50.6995 99.5 51.6626 99.5 53.0196L99.5 63.9804C99.5 65.3374 98.1773 66.3005 96.8859 65.8838L79.8995 60.4034Z" fill="#E27C23"/>
<path d="M20.1005 60.4034C21.9484 59.8072 21.9484 57.1928 20.1005 56.5966L3.1141 51.1162C1.82265 50.6995 0.500001 51.6626 0.500001 53.0196L0.5 63.9804C0.5 65.3374 1.82265 66.3005 3.1141 65.8838L20.1005 60.4034Z" fill="#E27C23"/>
<path d="M75.8995 77.4034C74.0516 76.8072 74.0516 74.1928 75.8995 73.5966L92.8859 68.1162C94.1773 67.6995 95.5 68.6626 95.5 70.0196L95.5 80.9804C95.5 82.3374 94.1773 83.3005 92.8859 82.8838L75.8995 77.4034Z" fill="#E27C23"/>
<path d="M24.1005 77.4034C25.9484 76.8072 25.9484 74.1928 24.1005 73.5966L7.1141 68.1162C5.82265 67.6995 4.5 68.6626 4.5 70.0196L4.5 80.9804C4.5 82.3374 5.82265 83.3005 7.1141 82.8838L24.1005 77.4034Z" fill="#E27C23"/>
</g>
<circle cx="35" cy="38" r="12" fill="white"/>
<circle cx="12" cy="12" r="12" transform="matrix(-1 0 0 1 77 26)" fill="white"/>
<circle cx="38" cy="38" r="7.5" fill="#572217"/>
<circle cx="7.5" cy="7.5" r="7.5" transform="matrix(-1 0 0 1 69.5 30.5)" fill="#572217"/>
<path d="M23.7199 62.9494C25.3233 67.3428 28.4114 72.5056 33.8197 76.0894C35.1535 74.6779 42.5115 73.8223 50 73.7189C57.4885 73.8223 64.8465 74.6779 66.1803 76.0894C71.5886 72.5056 74.6767 67.3428 76.2801 62.9494C76.8506 61.3863 77.1358 60.6048 76.9368 59.8269C76.7498 59.096 76.1668 58.4141 75.4864 58.1303C74.7622 57.8284 73.7264 58.0805 71.6547 58.5848C69.0859 63.5913 59.4686 66.4744 50 66.6417C40.5314 66.4744 30.9141 63.5913 28.3453 58.5848C26.2736 58.0805 25.2378 57.8284 24.5136 58.1303C23.8332 58.4141 23.2502 59.096 23.0632 59.8269C22.8642 60.6048 23.1494 61.3863 23.7199 62.9494Z" fill="#E40037"/>
<path d="M50 60.7963C42.1854 60.7959 34.3602 60.0491 28.3453 58.5848C30.9141 63.5913 40.5314 66.4744 50 66.6417C59.4686 66.4744 69.0859 63.5913 71.6547 58.5848C65.6398 60.0491 57.8146 60.7959 50 60.7963Z" fill="white"/>
<path d="M33.8197 76.0894C37.8264 78.7444 43.1066 80.5327 50 80.4995C56.8934 80.5327 62.1736 78.7444 66.1803 76.0894C64.8465 74.6779 57.4885 73.8223 50 73.7189C42.5115 73.8223 35.1535 74.6779 33.8197 76.0894Z" fill="#E40037"/>
<path d="M57 49.6C57 52.0853 53 55 50 55C47 55 43 52.0853 43 49.6C43 47.1147 46.134 46 50 46C53.866 46 57 47.1147 57 49.6Z" fill="#F20D61"/>
</g>
<defs>
<clipPath id="clip0_21_485">
<rect width="100" height="100" fill="white"/>
</clipPath>
</defs>
</svg>
