<svg width="100" height="100" viewBox="0 0 100 100" fill="none" xmlns="http://www.w3.org/2000/svg">
<g clip-path="url(#clip0_142_87)">
<path d="M42.0742 12.0041C42.8521 13.0587 43.6996 14.1396 44.6435 15.3178C45.3015 16.139 45.6305 16.5496 46.0988 16.7465C46.5672 16.9433 47.0943 16.8906 48.1485 16.7851L53.5132 16.2487C54.7226 16.1277 55.3273 16.0673 55.7816 15.7151C56.2359 15.3629 56.4449 14.7933 56.8629 13.654C57.1861 12.773 57.4793 11.975 57.7661 11.2118C59.5481 6.4684 60.4391 4.09669 59.1773 3.20564L59.1668 3.19822C57.8992 2.31533 56.2662 3.71022 53 6.5C52.1315 4.24833 51.6973 3.1225 51.0038 2.77617C50.5162 2.5327 49.9356 2.49994 49.4237 2.68701C48.6956 2.95311 48.3909 3.53718 47.7815 4.70533C47.4883 5.26728 47.2313 5.86103 47 6.5C42.5034 5.38185 40.2552 4.82278 39.453 5.66401C39.29 5.83498 39.1679 6.01755 39.0722 6.23351C38.601 7.29609 39.7587 8.86543 42.0742 12.0041Z" fill="#C100F1"/>
<path d="M87.5645 8.08836C90.0506 7.13215 91.2939 6.65409 92.1719 7.28757C93.0498 7.92142 92.9891 9.22875 92.8662 11.8423C91.3435 44.2248 77.3399 55.243 73.8066 57.52C73.481 57.7298 73.3184 57.8351 73.042 57.9165C72.7655 57.9978 72.5286 57.9975 72.0557 57.9975H45C43.1146 57.9975 42.1717 57.9974 41.5859 57.4116C41.0004 56.8258 41 55.8828 41 53.9975V28.7446C41 27.4154 41.0002 26.7503 41.3516 26.2387C41.703 25.7273 42.3238 25.4884 43.5645 25.0112L87.5645 8.08836Z" fill="#780A9B"/>
<path d="M82.4629 14.9619C84.916 14.0968 86.1424 13.6638 87 14.3125C87.8577 14.9614 87.7777 16.2197 87.6172 18.7363C86.0492 43.3277 74.4363 51.8759 71.3281 53.7363C71.0238 53.9185 70.8717 54.0098 70.6104 54.082C70.3488 54.1543 70.1293 54.1543 69.6914 54.1543H47C45.1146 54.1543 44.1717 54.1541 43.5859 53.5684C43.0004 52.9826 43 52.0397 43 50.1543V31.71C43 30.3423 43.0007 29.6579 43.3682 29.1387C43.7357 28.6197 44.3804 28.3923 45.6699 27.9375L82.4629 14.9619Z" fill="#301446" fill-opacity="0.67"/>
<path d="M12.3721 8.08887C9.88561 7.13254 8.64261 6.65433 7.76465 7.28809C6.88671 7.92191 6.94743 9.22843 7.07031 11.8418C8.59298 44.2245 22.5966 55.2435 26.1299 57.5205C26.4553 57.7302 26.6183 57.8347 26.8945 57.916C27.171 57.9974 27.4079 57.998 27.8809 57.998H54.9365C56.822 57.998 57.7648 57.9979 58.3506 57.4121C58.9363 56.8263 58.9365 55.8835 58.9365 53.998V28.7451C58.9365 27.4157 58.9363 26.7509 58.585 26.2393C58.2336 25.7276 57.613 25.489 56.3721 25.0117L12.3721 8.08887Z" fill="#780A9B"/>
<path d="M17.4736 14.9613C15.0205 14.0961 13.7941 13.664 12.9365 14.3128C12.0789 14.9617 12.1589 16.22 12.3193 18.7367C13.8874 43.328 25.5003 51.8763 28.6084 53.7367C28.9127 53.9188 29.0648 54.0101 29.3262 54.0824C29.5877 54.1546 29.8072 54.1546 30.2451 54.1546H52.9365C54.8219 54.1546 55.7648 54.1544 56.3506 53.5687C56.9363 52.9829 56.9365 52.0401 56.9365 50.1546V31.7093C56.9365 30.3419 56.9358 29.6582 56.5684 29.139C56.2009 28.6199 55.5562 28.3926 54.2666 27.9378L17.4736 14.9613Z" fill="#301446" fill-opacity="0.67"/>
<circle cx="50" cy="50" r="42" fill="#C100F1"/>
<mask id="mask0_142_87" style="mask-type:alpha" maskUnits="userSpaceOnUse" x="8" y="8" width="84" height="84">
<circle cx="50" cy="50" r="42" fill="#FFBA34"/>
</mask>
<g mask="url(#mask0_142_87)">
<path d="M79.8995 60.4034C78.0516 59.8072 78.0516 57.1928 79.8995 56.5966L96.8859 51.1162C98.1773 50.6995 99.5 51.6626 99.5 53.0196L99.5 63.9804C99.5 65.3374 98.1773 66.3005 96.8859 65.8838L79.8995 60.4034Z" fill="#780A9B"/>
<path d="M20.1005 60.4034C21.9484 59.8072 21.9484 57.1928 20.1005 56.5966L3.1141 51.1162C1.82265 50.6995 0.500001 51.6626 0.500001 53.0196L0.5 63.9804C0.5 65.3374 1.82265 66.3005 3.1141 65.8838L20.1005 60.4034Z" fill="#780A9B"/>
<path d="M75.8995 77.4034C74.0516 76.8072 74.0516 74.1928 75.8995 73.5966L92.8859 68.1162C94.1773 67.6995 95.5 68.6626 95.5 70.0196L95.5 80.9804C95.5 82.3374 94.1773 83.3005 92.8859 82.8838L75.8995 77.4034Z" fill="#780A9B"/>
<path d="M24.1005 77.4034C25.9484 76.8072 25.9484 74.1928 24.1005 73.5966L7.1141 68.1162C5.82265 67.6995 4.5 68.6626 4.5 70.0196L4.5 80.9804C4.5 82.3374 5.82265 83.3005 7.1141 82.8838L24.1005 77.4034Z" fill="#780A9B"/>
</g>
<circle cx="35" cy="43" r="12" fill="white"/>
<circle cx="12" cy="12" r="12" transform="matrix(-1 0 0 1 77 31)" fill="white"/>
<circle cx="38" cy="43" r="7.5" fill="#301446"/>
<circle cx="7.5" cy="7.5" r="7.5" transform="matrix(-1 0 0 1 69.5 35.5)" fill="#301446"/>
<path d="M35 60V60C36.9431 67.7724 48.023 67.9082 49.9661 60.1357V60.1357C49.9749 60.1004 50.0251 60.1004 50.0339 60.1357V60.1357C51.977 67.9082 63.0569 67.7724 65 60V60" stroke="#301446" stroke-width="4" stroke-linecap="round" stroke-linejoin="round"/>
<path d="M57 54.6C57 57.0853 53 60 50 60C47 60 43 57.0853 43 54.6C43 52.1147 46.134 51 50 51C53.866 51 57 52.1147 57 54.6Z" fill="#780A9B"/>
</g>
<defs>
<clipPath id="clip0_142_87">
<rect width="100" height="100" fill="white"/>
</clipPath>
</defs>
</svg>
