<svg width="100" height="100" viewBox="0 0 100 100" fill="none" xmlns="http://www.w3.org/2000/svg">
<g clip-path="url(#clip0_251_1542)">
<path d="M42.0742 12.0041C42.8521 13.0587 43.6996 14.1396 44.6435 15.3178C45.3015 16.139 45.6305 16.5496 46.0988 16.7465C46.5672 16.9433 47.0943 16.8906 48.1485 16.7851L53.5132 16.2487C54.7226 16.1277 55.3273 16.0673 55.7816 15.7151C56.2359 15.3629 56.4449 14.7933 56.8629 13.654C57.1861 12.773 57.4793 11.975 57.7661 11.2118C59.5481 6.4684 60.4391 4.09669 59.1773 3.20564L59.1668 3.19822C57.8992 2.31533 56.2662 3.71022 53 6.5C52.1315 4.24833 51.6973 3.1225 51.0038 2.77617C50.5162 2.5327 49.9356 2.49994 49.4237 2.68701C48.6956 2.95311 48.3909 3.53718 47.7815 4.70533C47.4883 5.26728 47.2313 5.86103 47 6.5C42.5034 5.38185 40.2552 4.82278 39.453 5.66401C39.29 5.83498 39.1679 6.01755 39.0722 6.23351C38.601 7.29609 39.7587 8.86543 42.0742 12.0041Z" fill="#FFBA34"/>
<path d="M88.997 5.56253C90.867 5.50352 91.8019 5.47393 92.414 6.08597C93.0261 6.69805 92.9965 7.63299 92.9375 9.50296C91.8705 43.3111 77.406 54.7029 73.8066 57.0225C73.481 57.2323 73.3183 57.3376 73.042 57.419C72.7655 57.5003 72.5286 57.5 72.0556 57.5H27.9443C27.4714 57.5 27.2345 57.5003 26.958 57.419C26.6817 57.3376 26.5189 57.2323 26.1933 57.0225C22.5939 54.7029 8.12947 43.3111 7.06247 9.50296C7.00346 7.63299 6.97384 6.69805 7.58591 6.08597C8.19799 5.4739 9.13293 5.50352 11.0029 5.56253C30.7871 6.18693 42.8946 11.3997 50 16.3379C57.1054 11.3997 69.2128 6.18693 88.997 5.56253Z" fill="#E27C23"/>
<path d="M83.0276 11.0345C84.9065 10.9707 85.846 10.9384 86.4612 11.5599C87.0764 12.1814 87.035 13.1152 86.9524 14.9817C85.8092 40.8352 73.7518 49.721 70.5755 51.6224C70.271 51.8046 70.1182 51.8958 69.8567 51.9681C69.5954 52.0403 69.3764 52.0403 68.9387 52.0403H31.0608C30.6232 52.0403 30.4042 52.0403 30.1428 51.9681C29.8814 51.8958 29.7292 51.8044 29.4251 51.6224C26.2489 49.7212 14.1904 40.8355 13.0471 14.9817C12.9646 13.1152 12.9231 12.1814 13.5384 11.5599C14.1535 10.9384 15.0931 10.9707 16.9719 11.0345C33.68 11.6011 43.9465 15.6705 49.9993 19.5276C56.052 15.6703 66.3188 11.6012 83.0276 11.0345Z" fill="#B72343"/>
<circle cx="50" cy="50" r="42" fill="#FFBA34"/>
<mask id="mask0_251_1542" style="mask-type:alpha" maskUnits="userSpaceOnUse" x="8" y="8" width="84" height="84">
<circle cx="50" cy="50" r="42" fill="#FFBA34"/>
</mask>
<g mask="url(#mask0_251_1542)">
<path d="M79.8995 60.4034C78.0516 59.8072 78.0516 57.1928 79.8995 56.5966L96.8859 51.1162C98.1773 50.6995 99.5 51.6626 99.5 53.0196L99.5 63.9804C99.5 65.3374 98.1773 66.3005 96.8859 65.8838L79.8995 60.4034Z" fill="#E27C23"/>
<path d="M20.1005 60.4034C21.9484 59.8072 21.9484 57.1928 20.1005 56.5966L3.1141 51.1162C1.82265 50.6995 0.500001 51.6626 0.500001 53.0196L0.5 63.9804C0.5 65.3374 1.82265 66.3005 3.1141 65.8838L20.1005 60.4034Z" fill="#E27C23"/>
<path d="M75.8995 77.4034C74.0516 76.8072 74.0516 74.1928 75.8995 73.5966L92.8859 68.1162C94.1773 67.6995 95.5 68.6626 95.5 70.0196L95.5 80.9804C95.5 82.3374 94.1773 83.3005 92.8859 82.8838L75.8995 77.4034Z" fill="#E27C23"/>
<path d="M24.1005 77.4034C25.9484 76.8072 25.9484 74.1928 24.1005 73.5966L7.1141 68.1162C5.82265 67.6995 4.5 68.6626 4.5 70.0196L4.5 80.9804C4.5 82.3374 5.82265 83.3005 7.1141 82.8838L24.1005 77.4034Z" fill="#E27C23"/>
</g>
<circle cx="37" cy="38" r="12" fill="white"/>
<circle cx="12" cy="12" r="12" transform="matrix(-1 0 0 1 79 26)" fill="white"/>
<circle cx="40" cy="35" r="7.5" fill="#471C13"/>
<circle cx="7.5" cy="7.5" r="7.5" transform="matrix(-1 0 0 1 77.5 27.5)" fill="#471C13"/>
<path d="M37 55C37 55 37 61 44.5 61C52 61 52 55 52 55C52 55 52 61 59.5 61C67 61 67 55 67 55" stroke="#471C13" stroke-width="4" stroke-linecap="round" stroke-linejoin="round"/>
<path d="M59 49.6C59 52.0853 55 55 52 55C49 55 45 52.0853 45 49.6C45 47.1147 48.134 46 52 46C55.866 46 59 47.1147 59 49.6Z" fill="#E00043"/>
<mask id="path-16-outside-1_251_1542" maskUnits="userSpaceOnUse" x="-9.30342" y="31.7942" width="72.0881" height="72.1569" fill="black">
<rect fill="white" x="-9.30342" y="31.7942" width="72.0881" height="72.1569"/>
<path d="M47.2042 55.7458C46.1172 54.5653 44.3027 54.4544 43.0821 55.4685L42.9655 55.5703L41.5872 56.8473C37.8375 60.3489 34.1958 63.9673 30.7224 67.7101C30.0288 68.4575 28.8265 68.5074 27.9843 67.9327C26.9547 67.2301 26.751 65.8046 27.5964 64.8886C30.2575 62.0056 32.8063 59.6818 37.0231 55.8927L35.0176 53.6605L33.0127 51.429C26.5006 57.2806 23.7203 59.8677 18.6118 66.1389C18.4861 66.2932 18.3579 66.413 18.1938 66.5256C16.804 67.4797 14.6346 66.8284 14.5952 65.1431C14.5566 63.4854 14.6041 61.8423 14.7458 60.2424C14.8917 58.5922 13.6723 57.1361 12.0221 56.9899C10.3721 56.8439 8.9154 58.0629 8.76891 59.7129C8.23338 65.7585 8.86605 72.2472 10.3658 78.0982C10.453 78.4383 10.4966 78.6084 10.5121 78.7486C10.5276 78.8887 10.52 79.1363 10.5048 79.6313C10.4893 80.1366 10.5241 80.6144 10.616 81.0554C11.7346 86.4217 18.0907 92.2484 22.9707 93.2112C27.0217 94.0101 35.1809 89.7382 37.4783 84.4955C37.6313 84.1463 37.7078 83.9718 37.7639 83.8749C37.82 83.778 37.8944 83.6774 38.0433 83.476C41.6154 78.6445 44.385 75.566 49.266 71.21C50.502 70.1068 50.6096 68.2097 49.5065 66.9736C48.4032 65.7379 46.5067 65.6307 45.2707 66.7338C42.136 69.5313 39.7885 71.8707 37.5893 74.4067C36.8523 75.2566 35.5062 75.2028 34.8136 74.3163C34.2995 73.6584 34.2833 72.697 34.8499 72.0838C38.2908 68.3599 41.9205 64.7463 45.6812 61.2343L47.0286 59.9845L47.1396 59.8773C48.2514 58.7448 48.291 56.9268 47.2042 55.7458ZM37.2491 51.6557C36.1417 50.4238 34.245 50.322 33.0127 51.429L37.0231 55.8927C38.2555 54.7853 38.3565 52.8881 37.2491 51.6557Z"/>
</mask>
<path d="M47.2042 55.7458C46.1172 54.5653 44.3027 54.4544 43.0821 55.4685L42.9655 55.5703L41.5872 56.8473C37.8375 60.3489 34.1958 63.9673 30.7224 67.7101C30.0288 68.4575 28.8265 68.5074 27.9843 67.9327C26.9547 67.2301 26.751 65.8046 27.5964 64.8886C30.2575 62.0056 32.8063 59.6818 37.0231 55.8927L35.0176 53.6605L33.0127 51.429C26.5006 57.2806 23.7203 59.8677 18.6118 66.1389C18.4861 66.2932 18.3579 66.413 18.1938 66.5256C16.804 67.4797 14.6346 66.8284 14.5952 65.1431C14.5566 63.4854 14.6041 61.8423 14.7458 60.2424C14.8917 58.5922 13.6723 57.1361 12.0221 56.9899C10.3721 56.8439 8.9154 58.0629 8.76891 59.7129C8.23338 65.7585 8.86605 72.2472 10.3658 78.0982C10.453 78.4383 10.4966 78.6084 10.5121 78.7486C10.5276 78.8887 10.52 79.1363 10.5048 79.6313C10.4893 80.1366 10.5241 80.6144 10.616 81.0554C11.7346 86.4217 18.0907 92.2484 22.9707 93.2112C27.0217 94.0101 35.1809 89.7382 37.4783 84.4955C37.6313 84.1463 37.7078 83.9718 37.7639 83.8749C37.82 83.778 37.8944 83.6774 38.0433 83.476C41.6154 78.6445 44.385 75.566 49.266 71.21C50.502 70.1068 50.6096 68.2097 49.5065 66.9736C48.4032 65.7379 46.5067 65.6307 45.2707 66.7338C42.136 69.5313 39.7885 71.8707 37.5893 74.4067C36.8523 75.2566 35.5062 75.2028 34.8136 74.3163C34.2995 73.6584 34.2833 72.697 34.8499 72.0838C38.2908 68.3599 41.9205 64.7463 45.6812 61.2343L47.0286 59.9845L47.1396 59.8773C48.2514 58.7448 48.291 56.9268 47.2042 55.7458ZM37.2491 51.6557C36.1417 50.4238 34.245 50.322 33.0127 51.429L37.0231 55.8927C38.2555 54.7853 38.3565 52.8881 37.2491 51.6557Z" fill="#FFBA34"/>
<path d="M47.2042 55.7458L50.1468 53.0365L50.1476 53.0373L47.2042 55.7458ZM43.0821 55.4685L40.4514 52.4553L40.4883 52.4231L40.5259 52.3918L43.0821 55.4685ZM42.9655 55.5703L40.247 52.636L40.2904 52.5959L40.3349 52.557L42.9655 55.5703ZM41.5872 56.8473L38.8571 53.9238L38.8629 53.9184L38.8687 53.913L41.5872 56.8473ZM35.0176 53.6605L32.0421 56.3338L32.0421 56.3338L35.0176 53.6605ZM33.0127 51.429L30.3392 48.4537L30.3395 48.4535L33.0127 51.429ZM14.7458 60.2424L18.7303 60.5946L18.7302 60.5953L14.7458 60.2424ZM12.0221 56.9899L12.3745 53.0054L12.3752 53.0055L12.0221 56.9899ZM8.76891 59.7129L4.78452 59.3599L4.78459 59.3591L8.76891 59.7129ZM10.616 81.0554L6.7002 81.8717L6.7002 81.8717L10.616 81.0554ZM22.9707 93.2112L22.1967 97.1356L22.1965 97.1355L22.9707 93.2112ZM49.266 71.21L51.9296 74.1942L51.9294 74.1944L49.266 71.21ZM49.5065 66.9736L52.4902 64.3094L52.4908 64.3102L49.5065 66.9736ZM45.2707 66.7338L42.6073 63.7494L42.6073 63.7494L45.2707 66.7338ZM45.6812 61.2343L42.951 58.3109L42.961 58.3016L45.6812 61.2343ZM47.0286 59.9845L49.808 62.8612L49.7787 62.8895L49.7488 62.9173L47.0286 59.9845ZM47.1396 59.8773L49.9941 62.6795L49.957 62.7172L49.919 62.7539L47.1396 59.8773ZM37.2491 51.6557L40.2238 48.9816L40.2244 48.9822L37.2491 51.6557ZM34.8499 72.0838L31.9121 69.3692L34.8499 72.0838ZM37.4783 84.4955L41.142 86.101L37.4783 84.4955ZM37.7639 83.8749L34.3023 81.8706L37.7639 83.8749ZM14.5952 65.1431L10.5963 65.2364L14.5952 65.1431ZM10.3658 78.0982L6.49104 79.0914L10.3658 78.0982ZM10.5048 79.6313L14.5029 79.7539L10.5048 79.6313ZM10.5121 78.7486L6.53629 79.1882L10.5121 78.7486ZM18.6118 66.1389L15.5105 63.6127L18.6118 66.1389ZM47.2042 55.7458L44.2615 58.4552C44.6244 58.8493 45.2284 58.8857 45.6382 58.5452L43.0821 55.4685L40.5259 52.3918C43.3769 50.0232 47.6101 50.2813 50.1468 53.0365L47.2042 55.7458ZM43.0821 55.4685L45.7127 58.4818L45.5961 58.5836L42.9655 55.5703L40.3349 52.557L40.4514 52.4553L43.0821 55.4685ZM42.9655 55.5703L45.684 58.5046L44.3056 59.7815L41.5872 56.8473L38.8687 53.913L40.247 52.636L42.9655 55.5703ZM41.5872 56.8473L44.3172 59.7707C40.6275 63.2165 37.0544 66.7673 33.6544 70.4311L30.7224 67.7101L27.7904 64.9892C31.3372 61.1673 35.0475 57.4814 38.8571 53.9238L41.5872 56.8473ZM27.5964 64.8886L24.6572 62.1756C27.4626 59.1362 30.1449 56.6956 34.3496 52.9174L37.0231 55.8927L39.6966 58.868C35.4677 62.668 33.0525 64.875 30.5357 67.6017L27.5964 64.8886ZM37.0231 55.8927L34.0477 58.566L32.0421 56.3338L35.0176 53.6605L37.993 50.9872L39.9986 53.2193L37.0231 55.8927ZM35.0176 53.6605L32.0421 56.3338L30.0372 54.1023L33.0127 51.429L35.9882 48.7557L37.9931 50.9872L35.0176 53.6605ZM33.0127 51.429L35.6862 54.4043C29.2339 60.2022 26.6298 62.6294 21.7131 68.6652L18.6118 66.1389L15.5105 63.6127C20.8108 57.106 23.7672 54.3591 30.3392 48.4537L33.0127 51.429ZM14.5952 65.1431L10.5963 65.2364C10.5544 63.442 10.6055 61.6493 10.7614 59.8894L14.7458 60.2424L18.7302 60.5953C18.6027 62.0352 18.5587 63.5288 18.5942 65.0498L14.5952 65.1431ZM14.7458 60.2424L10.7614 59.8902C10.7127 60.4404 11.1192 60.9255 11.6691 60.9742L12.0221 56.9899L12.3752 53.0055C16.2254 53.3466 19.0707 56.7441 18.7303 60.5946L14.7458 60.2424ZM12.0221 56.9899L11.6698 60.9743C12.2187 61.0228 12.7043 60.6177 12.7532 60.0666L8.76891 59.7129L4.78459 59.3591C5.12648 55.5082 8.52557 52.665 12.3745 53.0054L12.0221 56.9899ZM8.76891 59.7129L12.7533 60.0658C12.2616 65.6171 12.8422 71.6497 14.2405 77.105L10.3658 78.0982L6.49104 79.0914C4.88988 72.8446 4.20519 65.8999 4.78452 59.3599L8.76891 59.7129ZM10.5048 79.6313L14.5029 79.7539C14.4952 80.0046 14.5155 80.1608 14.5319 80.2392L10.616 81.0554L6.7002 81.8717C6.53267 81.0679 6.48336 80.2687 6.50666 79.5087L10.5048 79.6313ZM10.616 81.0554L14.5319 80.2392C14.8678 81.8508 16.1461 83.9703 18.1546 85.9006C20.1684 87.836 22.3156 89.0048 23.7449 89.2868L22.9707 93.2112L22.1965 97.1355C18.7458 96.4548 15.275 94.2288 12.6111 91.6686C9.94192 89.1033 7.48286 85.6263 6.7002 81.8717L10.616 81.0554ZM22.9707 93.2112L23.7447 89.2868C23.9258 89.3225 24.5261 89.3467 25.5807 89.0619C26.5768 88.793 27.732 88.3138 28.8935 87.6483C31.3312 86.2515 33.1421 84.4247 33.8147 82.89L37.4783 84.4955L41.142 86.101C39.517 89.8091 36.0996 92.7395 32.8707 94.5896C31.1988 95.5476 29.4111 96.3142 27.6662 96.7854C25.9797 97.2407 24.0411 97.4993 22.1967 97.1356L22.9707 93.2112ZM38.0433 83.476L34.8269 81.098C38.5619 76.0462 41.5167 72.7645 46.6026 68.2256L49.266 71.21L51.9294 74.1944C47.2533 78.3675 44.669 81.2427 41.2597 85.854L38.0433 83.476ZM49.266 71.21L46.6024 68.2258C46.1901 68.5938 46.1547 69.2252 46.5221 69.6369L49.5065 66.9736L52.4908 64.3102C55.0646 67.1941 54.814 71.6197 51.9296 74.1942L49.266 71.21ZM49.5065 66.9736L46.5228 69.6377C46.8912 70.0503 47.5229 70.0851 47.9341 69.7181L45.2707 66.7338L42.6073 63.7494C45.4905 61.1764 49.9151 61.4255 52.4902 64.3094L49.5065 66.9736ZM45.2707 66.7338L47.9341 69.7181C44.8929 72.4323 42.6727 74.6501 40.6113 77.0273L37.5893 74.4067L34.5673 71.7861C36.9043 69.0912 39.3791 66.6304 42.6073 63.7494L45.2707 66.7338ZM34.8499 72.0838L31.9121 69.3692C35.4286 65.5634 39.129 61.8802 42.951 58.3109L45.6812 61.2343L48.4113 64.1577C44.712 67.6124 41.153 71.1564 37.7878 74.7984L34.8499 72.0838ZM45.6812 61.2343L42.961 58.3016L44.3085 57.0518L47.0286 59.9845L49.7488 62.9173L48.4013 64.167L45.6812 61.2343ZM47.0286 59.9845L44.2493 57.1079L44.3603 57.0006L47.1396 59.8773L49.919 62.7539L49.808 62.8612L47.0286 59.9845ZM47.1396 59.8773L44.2852 57.0751C43.9116 57.4557 43.8984 58.0606 44.2608 58.4544L47.2042 55.7458L50.1476 53.0373C52.6836 55.7931 52.5912 60.0339 49.9941 62.6795L47.1396 59.8773ZM37.2491 51.6557L34.2743 54.3298C34.6425 54.7394 35.2742 54.7745 35.686 54.4046L33.0127 51.429L30.3395 48.4535C33.2158 45.8694 37.6408 46.1081 40.2238 48.9816L37.2491 51.6557ZM33.0127 51.429L35.9882 48.7557L39.9986 53.2194L37.0231 55.8927L34.0476 58.566L30.0373 54.1023L33.0127 51.429ZM37.0231 55.8927L34.3496 52.9174C33.938 53.2872 33.9053 53.9191 34.2738 54.3292L37.2491 51.6557L40.2244 48.9822C42.8076 51.857 42.573 56.2834 39.6966 58.868L37.0231 55.8927ZM34.8136 74.3163L31.6615 76.779C30.0944 74.7732 29.8519 71.5988 31.9121 69.3692L34.8499 72.0838L37.7878 74.7984C38.7147 73.7953 38.5046 72.5436 37.9656 71.8536L34.8136 74.3163ZM37.4783 84.4955L33.8147 82.89C33.9052 82.6835 34.1015 82.2174 34.3023 81.8706L37.7639 83.8749L41.2256 85.8792C41.2717 85.7994 41.2998 85.7427 41.3058 85.7304C41.3129 85.716 41.3116 85.7179 41.2978 85.7483C41.2846 85.7773 41.2661 85.8187 41.239 85.8801C41.212 85.9412 41.1809 86.0123 41.142 86.101L37.4783 84.4955ZM38.0433 83.476L41.2597 85.854C41.2408 85.8795 41.2245 85.9016 41.2093 85.9221C41.1943 85.9425 41.1816 85.9597 41.1706 85.9747C41.1596 85.9897 41.1512 86.0012 41.1448 86.0102C41.1383 86.0192 41.1346 86.0243 41.1331 86.0265C41.1294 86.0317 41.1386 86.0188 41.1549 85.994C41.1723 85.9674 41.1971 85.9283 41.2256 85.8792L37.7639 83.8749L34.3023 81.8706C34.498 81.5327 34.7379 81.2184 34.8269 81.098L38.0433 83.476ZM37.5893 74.4067L40.6113 77.0273C38.1736 79.8384 33.8552 79.5867 31.6615 76.779L34.8136 74.3163L37.9656 71.8536C37.1571 70.8189 35.531 70.6749 34.5673 71.7861L37.5893 74.4067ZM18.1938 66.5256L20.4576 69.8234C18.6377 71.0727 16.3997 71.2459 14.558 70.5965C12.6251 69.915 10.6629 68.0885 10.5963 65.2364L14.5952 65.1431L18.5942 65.0498C18.583 64.5715 18.4031 64.0748 18.08 63.6781C17.782 63.3122 17.4491 63.1332 17.2182 63.0518C16.8185 62.9108 16.3601 62.9326 15.93 63.2279L18.1938 66.5256ZM27.9843 67.9327L25.7297 71.2367C22.8073 69.2426 22.0552 64.9946 24.6572 62.1756L27.5964 64.8886L30.5357 67.6017C31.4468 66.6146 31.102 65.2176 30.2389 64.6287L27.9843 67.9327ZM10.3658 78.0982L14.2405 77.105C14.2914 77.3035 14.4333 77.8158 14.4878 78.3089L10.5121 78.7486L6.53629 79.1882C6.5453 79.2697 6.55585 79.3321 6.56251 79.3679C6.56874 79.4013 6.57243 79.4159 6.56879 79.4002C6.56513 79.3844 6.55794 79.3545 6.54402 79.2991C6.5301 79.2438 6.51349 79.1789 6.49104 79.0914L10.3658 78.0982ZM10.5048 79.6313L6.50666 79.5087C6.51052 79.383 6.51361 79.2818 6.51601 79.1947C6.51841 79.107 6.51971 79.047 6.52027 79.0043C6.52086 78.9595 6.52032 78.9546 6.52077 78.9732C6.52113 78.988 6.52315 79.0694 6.53629 79.1882L10.5121 78.7486L14.4878 78.3089C14.5434 78.8113 14.5119 79.4596 14.5029 79.7539L10.5048 79.6313ZM18.6118 66.1389L21.7131 68.6652C21.3576 69.1017 20.9504 69.4851 20.4576 69.8234L18.1938 66.5256L15.93 63.2279C15.8635 63.2736 15.7825 63.336 15.6976 63.4147C15.6134 63.4928 15.5507 63.5634 15.5105 63.6127L18.6118 66.1389ZM30.7224 67.7101L33.6544 70.4311C31.4141 72.8451 27.9513 72.7528 25.7297 71.2367L27.9843 67.9327L30.2389 64.6287C29.8966 64.395 29.5115 64.3006 29.1331 64.3267C28.7408 64.3539 28.219 64.5274 27.7904 64.9892L30.7224 67.7101Z" fill="#471C13" mask="url(#path-16-outside-1_251_1542)"/>
</g>
<defs>
<clipPath id="clip0_251_1542">
<rect width="100" height="100" fill="white"/>
</clipPath>
</defs>
</svg>
