<svg width="100" height="100" viewBox="0 0 100 100" fill="none" xmlns="http://www.w3.org/2000/svg">
<g clip-path="url(#clip0_34_412)">
<path d="M42.0742 12.0041C42.8521 13.0587 43.6996 14.1396 44.6435 15.3178C45.3015 16.139 45.6305 16.5496 46.0988 16.7465C46.5672 16.9433 47.0943 16.8906 48.1485 16.7851L53.5132 16.2487C54.7226 16.1277 55.3273 16.0673 55.7816 15.7151C56.2359 15.3629 56.4449 14.7933 56.8629 13.654C57.1861 12.773 57.4793 11.975 57.7661 11.2118C59.5481 6.4684 60.4391 4.09669 59.1773 3.20564L59.1668 3.19822C57.8992 2.31533 56.2662 3.71022 53 6.5C52.1315 4.24833 51.6973 3.1225 51.0038 2.77617C50.5162 2.5327 49.9356 2.49994 49.4237 2.68701C48.6956 2.95311 48.3909 3.53718 47.7815 4.70533C47.4883 5.26728 47.2313 5.86103 47 6.5C42.5034 5.38185 40.2552 4.82278 39.453 5.66401C39.29 5.83498 39.1679 6.01755 39.0722 6.23351C38.601 7.29609 39.7587 8.86543 42.0742 12.0041Z" fill="#FFBA34"/>
<path d="M88.9971 5.56247C90.8671 5.50346 91.802 5.47387 92.4141 6.08591C93.0262 6.69799 92.9966 7.63293 92.9375 9.5029C91.8705 43.3111 77.4061 54.7028 73.8067 57.0224C73.4811 57.2323 73.3183 57.3376 73.042 57.4189C72.7656 57.5003 72.5286 57.5 72.0557 57.5H27.9444C27.4714 57.5 27.2345 57.5003 26.958 57.4189C26.6818 57.3376 26.519 57.2323 26.1934 57.0224C22.594 54.7028 8.12953 43.311 7.06253 9.5029C7.00352 7.63293 6.9739 6.69799 7.58597 6.08591C8.19805 5.47384 9.13299 5.50346 11.003 5.56247C30.7872 6.18687 42.8946 11.3997 50 16.3379C57.1054 11.3997 69.2129 6.18687 88.9971 5.56247Z" fill="#E27C23"/>
<path d="M83.0277 11.0339C84.9067 10.9701 85.8462 10.9387 86.4613 11.5602C87.0764 12.1818 87.0351 13.1149 86.9526 14.9811C85.8094 40.834 73.7524 49.7201 70.5756 51.6218C70.2712 51.804 70.1184 51.8952 69.8568 51.9675C69.5954 52.0397 69.3766 52.0397 68.9389 52.0397H31.0609C30.6233 52.0397 30.4044 52.0397 30.143 51.9675C29.8815 51.8952 29.7295 51.8039 29.4252 51.6218C26.249 49.7206 14.1905 40.8351 13.0473 14.9811C12.9648 13.1149 12.9235 12.1818 13.5385 11.5602C14.1537 10.9387 15.0932 10.9701 16.9721 11.0339C33.6799 11.6005 43.9466 15.6699 49.9994 19.527C56.0521 15.6698 66.3192 11.6006 83.0277 11.0339Z" fill="#B72343"/>
<circle cx="50" cy="50" r="42" fill="#FFBA34"/>
<mask id="mask0_34_412" style="mask-type:alpha" maskUnits="userSpaceOnUse" x="8" y="8" width="84" height="84">
<circle cx="50" cy="50" r="42" fill="#FFBA34"/>
</mask>
<g mask="url(#mask0_34_412)">
<path d="M79.8995 60.4034C78.0516 59.8072 78.0516 57.1928 79.8995 56.5966L96.8859 51.1162C98.1773 50.6995 99.5 51.6626 99.5 53.0196L99.5 63.9804C99.5 65.3374 98.1773 66.3005 96.8859 65.8838L79.8995 60.4034Z" fill="#E27C23"/>
<path d="M20.1005 60.4034C21.9484 59.8072 21.9484 57.1928 20.1005 56.5966L3.1141 51.1162C1.82265 50.6995 0.500001 51.6626 0.500001 53.0196L0.5 63.9804C0.5 65.3374 1.82265 66.3005 3.1141 65.8838L20.1005 60.4034Z" fill="#E27C23"/>
<path d="M75.8995 77.4034C74.0516 76.8072 74.0516 74.1928 75.8995 73.5966L92.8859 68.1162C94.1773 67.6995 95.5 68.6626 95.5 70.0196L95.5 80.9804C95.5 82.3374 94.1773 83.3005 92.8859 82.8838L75.8995 77.4034Z" fill="#E27C23"/>
<path d="M24.1005 77.4034C25.9484 76.8072 25.9484 74.1928 24.1005 73.5966L7.1141 68.1162C5.82265 67.6995 4.5 68.6626 4.5 70.0196L4.5 80.9804C4.5 82.3374 5.82265 83.3005 7.1141 82.8838L24.1005 77.4034Z" fill="#E27C23"/>
</g>
<path d="M23.7199 62.9494C25.3233 67.3428 28.4114 72.5056 33.8197 76.0894C35.1535 74.6779 42.5115 73.8223 50 73.7189C57.4885 73.8223 64.8465 74.6779 66.1803 76.0894C71.5886 72.5056 74.6767 67.3428 76.2801 62.9494C76.8506 61.3863 77.1358 60.6048 76.9368 59.8269C76.7498 59.096 76.1668 58.4141 75.4864 58.1303C74.7622 57.8284 73.7264 58.0805 71.6547 58.5848C69.0859 63.5913 59.4686 66.4744 50 66.6417C40.5314 66.4744 30.9141 63.5913 28.3453 58.5848C26.2736 58.0805 25.2378 57.8284 24.5136 58.1303C23.8332 58.4141 23.2502 59.096 23.0632 59.8269C22.8642 60.6048 23.1494 61.3863 23.7199 62.9494Z" fill="#E40037"/>
<path d="M50 60.7963C42.1854 60.7959 34.3602 60.0491 28.3453 58.5848C30.9141 63.5913 40.5314 66.4744 50 66.6417C59.4686 66.4744 69.0859 63.5913 71.6547 58.5848C65.6398 60.0491 57.8146 60.7959 50 60.7963Z" fill="white"/>
<path d="M33.8197 76.0894C37.8264 78.7444 43.1066 80.5327 50 80.4995C56.8934 80.5327 62.1736 78.7444 66.1803 76.0894C64.8465 74.6779 57.4885 73.8223 50 73.7189C42.5115 73.8223 35.1535 74.6779 33.8197 76.0894Z" fill="#E40037"/>
<path d="M57 49.6C57 52.0853 53 55 50 55C47 55 43 52.0853 43 49.6C43 47.1147 46.134 46 50 46C53.866 46 57 47.1147 57 49.6Z" fill="#F20D61"/>
<path d="M79.6249 45.3062C79.6249 45.3062 89.9142 51.1278 91.571 53.9976C93.2279 56.8673 92.2446 60.5369 89.3749 62.1937C86.5051 63.8506 82.8356 62.8673 81.1787 59.9976C79.5219 57.1278 79.6249 45.3062 79.6249 45.3062Z" fill="#00A3FF"/>
<path d="M20.3749 45.3062C20.3749 45.3062 20.4779 57.1278 18.821 59.9976C17.1642 62.8673 13.4946 63.8506 10.6249 62.1937C7.75511 60.5369 6.77186 56.8673 8.42871 53.9976C10.0856 51.1278 20.3749 45.3062 20.3749 45.3062Z" fill="#00A3FF"/>
<path d="M54.5 42.5C58.3889 32.5272 72 32.5272 75.5 42.3376" stroke="#572217" stroke-width="4" stroke-linecap="round" stroke-linejoin="round"/>
<path d="M23 42.5C26.8889 32.5272 40.5 32.5272 44 42.3376" stroke="#572217" stroke-width="4" stroke-linecap="round" stroke-linejoin="round"/>
</g>
<defs>
<clipPath id="clip0_34_412">
<rect width="100" height="100" fill="white"/>
</clipPath>
</defs>
</svg>
