<svg width="100" height="100" viewBox="0 0 100 100" fill="none" xmlns="http://www.w3.org/2000/svg">
<g clip-path="url(#clip0_23_22)">
<path d="M42.0742 12.0041C42.8521 13.0587 43.6996 14.1396 44.6435 15.3178C45.3015 16.139 45.6305 16.5496 46.0988 16.7465C46.5672 16.9433 47.0943 16.8906 48.1485 16.7851L53.5132 16.2487C54.7226 16.1277 55.3273 16.0673 55.7816 15.7151C56.2359 15.3629 56.4449 14.7933 56.8629 13.654C57.1861 12.773 57.4793 11.975 57.7661 11.2118C59.5481 6.4684 60.4391 4.09669 59.1773 3.20564L59.1668 3.19822C57.8992 2.31533 56.2662 3.71022 53 6.5C52.1315 4.24833 51.6973 3.1225 51.0038 2.77617C50.5162 2.5327 49.9356 2.49994 49.4237 2.68701C48.6956 2.95311 48.3909 3.53718 47.7815 4.70533C47.4883 5.26728 47.2313 5.86103 47 6.5C42.5034 5.38185 40.2552 4.82278 39.453 5.66401C39.29 5.83498 39.1679 6.01755 39.0722 6.23351C38.601 7.29609 39.7587 8.86543 42.0742 12.0041Z" fill="#00A3FF"/>
<path d="M88.997 5.56253C90.867 5.50352 91.8019 5.47393 92.414 6.08597C93.0261 6.69805 92.9965 7.63299 92.9375 9.50296C91.8705 43.3111 77.406 54.7029 73.8066 57.0225C73.481 57.2323 73.3183 57.3376 73.042 57.419C72.7655 57.5003 72.5286 57.5 72.0556 57.5H27.9443C27.4714 57.5 27.2345 57.5003 26.958 57.419C26.6817 57.3376 26.5189 57.2323 26.1933 57.0225C22.5939 54.7029 8.12947 43.3111 7.06247 9.50296C7.00346 7.63299 6.97384 6.69805 7.58591 6.08597C8.19799 5.4739 9.13293 5.50352 11.0029 5.56253C30.7871 6.18693 42.8946 11.3997 50 16.3379C57.1054 11.3997 69.2128 6.18693 88.997 5.56253Z" fill="#0069C4"/>
<path d="M83.0269 11.0338C84.906 10.9701 85.8463 10.9386 86.4615 11.5602C87.0765 12.1817 87.0352 13.115 86.9527 14.9811C85.8095 40.8351 73.751 49.7215 70.5748 51.6227C70.2707 51.8047 70.1183 51.8952 69.857 51.9674C69.5956 52.0397 69.3766 52.0397 68.939 52.0397H31.0611C30.6234 52.0397 30.4045 52.0396 30.1431 51.9674C29.8816 51.8951 29.7288 51.8049 29.4244 51.6227C26.2482 49.7215 14.1906 40.8351 13.0474 14.9811C12.9649 13.1148 12.9235 12.1817 13.5386 11.5602C14.1538 10.9387 15.0933 10.9701 16.9722 11.0338C33.6802 11.6005 43.9468 15.6698 49.9996 19.527C56.0523 15.6698 66.3189 11.6006 83.0269 11.0338Z" fill="#780A9B"/>
<circle cx="50" cy="50" r="42" fill="#00A3FF"/>
<path d="M43 80L50 71L57 80" stroke="#151442" stroke-width="4" stroke-linecap="round" stroke-linejoin="round"/>
<path d="M56 58C59.3333 65.9782 71 65.9782 74 58.1299" stroke="#151442" stroke-width="4" stroke-linecap="round" stroke-linejoin="round"/>
<path d="M26 58C29.3333 65.9782 41 65.9782 44 58.1299" stroke="#151442" stroke-width="4" stroke-linecap="round" stroke-linejoin="round"/>
<path d="M17 45.3774C22.3212 47.0454 27.0856 45.287 31 41" stroke="#151442" stroke-width="4" stroke-linecap="round"/>
<path d="M83 45.3774C77.6788 47.0454 72.9144 45.287 69 41" stroke="#151442" stroke-width="4" stroke-linecap="round"/>
<path d="M57 68.6C57 71.0853 53 74 50 74C47 74 43 71.0853 43 68.6C43 66.1147 46.134 65 50 65C53.866 65 57 66.1147 57 68.6Z" fill="#151442"/>
<mask id="mask0_23_22" style="mask-type:alpha" maskUnits="userSpaceOnUse" x="8" y="8" width="84" height="84">
<circle cx="50" cy="50" r="42" fill="#FFBA34"/>
</mask>
<g mask="url(#mask0_23_22)">
<path d="M79.8995 60.4034C78.0516 59.8072 78.0516 57.1928 79.8995 56.5966L96.8859 51.1162C98.1773 50.6995 99.5 51.6626 99.5 53.0196L99.5 63.9804C99.5 65.3374 98.1773 66.3005 96.8859 65.8838L79.8995 60.4034Z" fill="#0069C4"/>
<path d="M20.1005 60.4034C21.9484 59.8072 21.9484 57.1928 20.1005 56.5966L3.1141 51.1162C1.82265 50.6995 0.500001 51.6626 0.500001 53.0196L0.5 63.9804C0.5 65.3374 1.82265 66.3005 3.1141 65.8838L20.1005 60.4034Z" fill="#0069C4"/>
<path d="M75.8995 77.4034C74.0516 76.8072 74.0516 74.1928 75.8995 73.5966L92.8859 68.1162C94.1773 67.6995 95.5 68.6626 95.5 70.0196L95.5 80.9804C95.5 82.3374 94.1773 83.3005 92.8859 82.8838L75.8995 77.4034Z" fill="#0069C4"/>
<path d="M24.1005 77.4034C25.9484 76.8072 25.9484 74.1928 24.1005 73.5966L7.1141 68.1162C5.82265 67.6995 4.5 68.6626 4.5 70.0196L4.5 80.9804C4.5 82.3374 5.82265 83.3005 7.1141 82.8838L24.1005 77.4034Z" fill="#0069C4"/>
</g>
</g>
<defs>
<clipPath id="clip0_23_22">
<rect width="100" height="100" fill="white"/>
</clipPath>
</defs>
</svg>
