<svg width="100" height="100" viewBox="0 0 100 100" fill="none" xmlns="http://www.w3.org/2000/svg">
<g clip-path="url(#clip0_23_22)">
<path d="M42.0742 12.0041C42.8521 13.0587 43.6996 14.1396 44.6435 15.3178C45.3015 16.139 45.6305 16.5496 46.0988 16.7465C46.5672 16.9433 47.0943 16.8906 48.1485 16.7851L53.5132 16.2487C54.7226 16.1277 55.3273 16.0673 55.7816 15.7151C56.2359 15.3629 56.4449 14.7933 56.8629 13.654C57.1861 12.773 57.4793 11.975 57.7661 11.2118C59.5481 6.4684 60.4391 4.09669 59.1773 3.20564L59.1668 3.19822C57.8992 2.31533 56.2662 3.71022 53 6.5C52.1315 4.24833 51.6973 3.1225 51.0038 2.77617C50.5162 2.5327 49.9356 2.49994 49.4237 2.68701C48.6956 2.95311 48.3909 3.53718 47.7815 4.70533C47.4883 5.26728 47.2313 5.86103 47 6.5C42.5034 5.38185 40.2552 4.82278 39.453 5.66401C39.29 5.83498 39.1679 6.01755 39.0722 6.23351C38.601 7.29609 39.7587 8.86543 42.0742 12.0041Z" fill="#00A3FF"/>
<path d="M88.9971 5.56247C90.8671 5.50346 91.802 5.47387 92.4141 6.08591C93.0262 6.69799 92.9966 7.63293 92.9375 9.5029C91.8705 43.3111 77.4061 54.7028 73.8067 57.0224C73.4811 57.2323 73.3183 57.3376 73.042 57.4189C72.7656 57.5003 72.5286 57.5 72.0557 57.5H27.9444C27.4714 57.5 27.2345 57.5003 26.958 57.4189C26.6818 57.3376 26.519 57.2323 26.1934 57.0224C22.594 54.7028 8.12953 43.311 7.06253 9.5029C7.00352 7.63293 6.9739 6.69799 7.58597 6.08591C8.19805 5.47384 9.13299 5.50346 11.003 5.56247C30.7872 6.18687 42.8946 11.3997 50 16.3379C57.1054 11.3997 69.2129 6.18687 88.9971 5.56247Z" fill="#0063E4"/>
<path d="M83.0275 11.0339C84.9065 10.9701 85.8459 10.9387 86.4611 11.5602C87.0762 12.1818 87.0348 13.1149 86.9523 14.9811C85.8092 40.834 73.7522 49.7201 70.5754 51.6218C70.2709 51.804 70.1181 51.8952 69.8566 51.9675C69.5952 52.0397 69.3764 52.0397 68.9386 52.0397H31.0607C30.623 52.0397 30.4042 52.0397 30.1427 51.9675C29.8813 51.8952 29.7293 51.8039 29.425 51.6218C26.2488 49.7206 14.1902 40.8351 13.047 14.9811C12.9645 13.1149 12.9232 12.1818 13.5382 11.5602C14.1534 10.9387 15.093 10.9701 16.9718 11.0339C33.6797 11.6005 43.9464 15.6699 49.9992 19.527C56.0519 15.6698 66.3189 11.6006 83.0275 11.0339Z" fill="#872B7B"/>
<circle cx="50" cy="50" r="42" fill="#00A3FF"/>
<path d="M43 80L50 71L57 80" stroke="#331B5B" stroke-width="4" stroke-linecap="round" stroke-linejoin="round"/>
<path d="M56 58C59.3333 65.9782 71 65.9782 74 58.1299" stroke="#331B5B" stroke-width="4" stroke-linecap="round" stroke-linejoin="round"/>
<path d="M26 58C29.3333 65.9782 41 65.9782 44 58.1299" stroke="#331B5B" stroke-width="4" stroke-linecap="round" stroke-linejoin="round"/>
<path d="M17 45.3774C22.3212 47.0454 27.0856 45.287 31 41" stroke="#331B5B" stroke-width="4" stroke-linecap="round"/>
<path d="M83 45.3774C77.6788 47.0454 72.9144 45.287 69 41" stroke="#331B5B" stroke-width="4" stroke-linecap="round"/>
<path d="M57 68.6C57 71.0853 53 74 50 74C47 74 43 71.0853 43 68.6C43 66.1147 46.134 65 50 65C53.866 65 57 66.1147 57 68.6Z" fill="#331B5B"/>
<mask id="mask0_23_22" style="mask-type:alpha" maskUnits="userSpaceOnUse" x="8" y="8" width="84" height="84">
<circle cx="50" cy="50" r="42" fill="#FFBA34"/>
</mask>
<g mask="url(#mask0_23_22)">
<path d="M79.8995 60.4034C78.0516 59.8072 78.0516 57.1928 79.8995 56.5966L96.8859 51.1162C98.1773 50.6995 99.5 51.6626 99.5 53.0196L99.5 63.9804C99.5 65.3374 98.1773 66.3005 96.8859 65.8838L79.8995 60.4034Z" fill="#0063E4"/>
<path d="M20.1005 60.4034C21.9484 59.8072 21.9484 57.1928 20.1005 56.5966L3.1141 51.1162C1.82265 50.6995 0.500001 51.6626 0.500001 53.0196L0.5 63.9804C0.5 65.3374 1.82265 66.3005 3.1141 65.8838L20.1005 60.4034Z" fill="#0063E4"/>
<path d="M75.8995 77.4034C74.0516 76.8072 74.0516 74.1928 75.8995 73.5966L92.8859 68.1162C94.1773 67.6995 95.5 68.6626 95.5 70.0196L95.5 80.9804C95.5 82.3374 94.1773 83.3005 92.8859 82.8838L75.8995 77.4034Z" fill="#0063E4"/>
<path d="M24.1005 77.4034C25.9484 76.8072 25.9484 74.1928 24.1005 73.5966L7.1141 68.1162C5.82265 67.6995 4.5 68.6626 4.5 70.0196L4.5 80.9804C4.5 82.3374 5.82265 83.3005 7.1141 82.8838L24.1005 77.4034Z" fill="#0063E4"/>
</g>
</g>
<defs>
<clipPath id="clip0_23_22">
<rect width="100" height="100" fill="white"/>
</clipPath>
</defs>
</svg>
