<svg width="100" height="100" viewBox="0 0 100 100" fill="none" xmlns="http://www.w3.org/2000/svg">
<g clip-path="url(#clip0_34_375)">
<path d="M42.0742 12.0041C42.8521 13.0587 43.6996 14.1396 44.6435 15.3178C45.3015 16.139 45.6305 16.5496 46.0988 16.7465C46.5672 16.9433 47.0943 16.8906 48.1485 16.7851L53.5132 16.2487C54.7226 16.1277 55.3273 16.0673 55.7816 15.7151C56.2359 15.3629 56.4449 14.7933 56.8629 13.654C57.1861 12.773 57.4793 11.975 57.7661 11.2118C59.5481 6.4684 60.4391 4.09669 59.1773 3.20564L59.1668 3.19822C57.8992 2.31533 56.2662 3.71022 53 6.5C52.1315 4.24833 51.6973 3.1225 51.0038 2.77617C50.5162 2.5327 49.9356 2.49994 49.4237 2.68701C48.6956 2.95311 48.3909 3.53718 47.7815 4.70533C47.4883 5.26728 47.2313 5.86103 47 6.5C42.5034 5.38185 40.2552 4.82278 39.453 5.66401C39.29 5.83498 39.1679 6.01755 39.0722 6.23351C38.601 7.29609 39.7587 8.86543 42.0742 12.0041Z" fill="#F20D44"/>
<path d="M88.9971 5.56253C90.8671 5.50352 91.802 5.47393 92.4141 6.08597C93.0262 6.69805 92.9966 7.63299 92.9375 9.50296C91.8705 43.3111 77.4061 54.7029 73.8067 57.0225C73.4811 57.2323 73.3183 57.3376 73.042 57.419C72.7656 57.5003 72.5286 57.5 72.0557 57.5H27.9444C27.4714 57.5 27.2345 57.5003 26.958 57.419C26.6818 57.3376 26.519 57.2323 26.1934 57.0225C22.594 54.7029 8.12953 43.3111 7.06253 9.50296C7.00352 7.63299 6.9739 6.69805 7.58597 6.08597C8.19805 5.4739 9.13299 5.50352 11.003 5.56253C30.7872 6.18693 42.8946 11.3997 50 16.3379C57.1054 11.3997 69.2129 6.18693 88.9971 5.56253Z" fill="#B40039"/>
<path opacity="0.6" d="M83.0273 11.0336C84.9062 10.9698 85.8457 10.9386 86.4609 11.5599C87.0761 12.1815 87.0356 13.1152 86.9531 14.9818C85.8098 40.8355 73.7514 49.7213 70.5752 51.6224C70.2709 51.8045 70.1187 51.8959 69.8574 51.9681C69.5959 52.0404 69.3763 52.0404 68.9385 52.0404H31.0615C30.6236 52.0404 30.4041 52.0404 30.1426 51.9681C29.8812 51.8959 29.729 51.8045 29.4248 51.6224C26.2486 49.7213 14.1902 40.8355 13.0469 14.9818C12.9643 13.1154 12.9231 12.1815 13.5381 11.5599C14.1533 10.9384 15.0935 10.9698 16.9726 11.0336C33.6806 11.6003 43.9472 15.6696 50 19.5267C56.0527 15.6696 66.3193 11.6003 83.0273 11.0336Z" fill="#38001E"/>
<circle cx="50" cy="50" r="42" fill="#F20D44"/>
<circle cx="34.7" cy="55.7" r="11.7" fill="white"/>
<circle cx="11.7" cy="11.7" r="11.7" transform="matrix(-1 0 0 1 75.2002 44)" fill="white"/>
<circle cx="37.4002" cy="56.5999" r="7.2" fill="#38001E"/>
<path d="M57 65.6C57 68.0853 53 71 50 71C47 71 43 68.0853 43 65.6C43 63.1147 46.134 62 50 62C53.866 62 57 63.1147 57 65.6Z" fill="#38001E"/>
<circle cx="7.2" cy="7.2" r="7.2" transform="matrix(-1 0 0 1 68 49.3999)" fill="#38001E"/>
<path d="M42.6572 47.828C37.2849 44.8439 34.8584 42.2871 32.8075 36.3807" stroke="#38001E" stroke-width="4" stroke-linecap="round"/>
<path d="M55.543 47.828C60.9153 44.8439 63.3418 42.2871 65.3927 36.3807" stroke="#38001E" stroke-width="4" stroke-linecap="round"/>
<path d="M65 78.5C60 70.5 40 70.5 35 78.5" stroke="#38001E" stroke-width="4" stroke-linecap="round"/>
<mask id="mask0_34_375" style="mask-type:alpha" maskUnits="userSpaceOnUse" x="8" y="8" width="84" height="84">
<circle cx="50" cy="50" r="42" fill="#F20D44"/>
</mask>
<g mask="url(#mask0_34_375)">
<path d="M79.8995 60.4034C78.0516 59.8072 78.0516 57.1928 79.8995 56.5966L96.8859 51.1162C98.1773 50.6995 99.5 51.6626 99.5 53.0196L99.5 63.9804C99.5 65.3374 98.1773 66.3005 96.8859 65.8838L79.8995 60.4034Z" fill="#B40039"/>
<path d="M20.1005 60.4034C21.9484 59.8072 21.9484 57.1928 20.1005 56.5966L3.1141 51.1162C1.82265 50.6995 0.500001 51.6626 0.500001 53.0196L0.5 63.9804C0.5 65.3374 1.82265 66.3005 3.1141 65.8838L20.1005 60.4034Z" fill="#B40039"/>
<path d="M75.8995 77.4034C74.0516 76.8072 74.0516 74.1928 75.8995 73.5966L92.8859 68.1162C94.1773 67.6995 95.5 68.6626 95.5 70.0196L95.5 80.9804C95.5 82.3374 94.1773 83.3005 92.8859 82.8838L75.8995 77.4034Z" fill="#B40039"/>
<path d="M24.1005 77.4034C25.9484 76.8072 25.9484 74.1928 24.1005 73.5966L7.1141 68.1162C5.82265 67.6995 4.5 68.6626 4.5 70.0196L4.5 80.9804C4.5 82.3374 5.82265 83.3005 7.1141 82.8838L24.1005 77.4034Z" fill="#B40039"/>
</g>
<path d="M76.3378 10.2187L75.1191 20.1442L65.1937 18.9255M64.2187 26.8658L74.1442 28.0845L72.9255 38.01M84.2782 11.1936L83.0595 21.1191L92.985 22.3378M92.01 30.2782L82.0845 29.0595L80.8658 38.9849" stroke="#38001E" stroke-width="4" stroke-linecap="round" stroke-linejoin="round"/>
</g>
<defs>
<clipPath id="clip0_34_375">
<rect width="100" height="100" fill="white"/>
</clipPath>
</defs>
</svg>
