<svg width="100" height="100" viewBox="0 0 100 100" fill="none" xmlns="http://www.w3.org/2000/svg">
<g clip-path="url(#clip0_142_2)">
<path d="M42.0742 12.0041C42.8521 13.0587 43.6996 14.1396 44.6435 15.3178C45.3015 16.139 45.6305 16.5496 46.0988 16.7465C46.5672 16.9433 47.0943 16.8906 48.1485 16.7851L53.5132 16.2487C54.7226 16.1277 55.3273 16.0673 55.7816 15.7151C56.2359 15.3629 56.4449 14.7933 56.8629 13.654C57.1861 12.773 57.4793 11.975 57.7661 11.2118C59.5481 6.4684 60.4391 4.09669 59.1773 3.20564L59.1668 3.19822C57.8992 2.31533 56.2662 3.71022 53 6.5C52.1315 4.24833 51.6973 3.1225 51.0038 2.77617C50.5162 2.5327 49.9356 2.49994 49.4237 2.68701C48.6956 2.95311 48.3909 3.53718 47.7815 4.70533C47.4883 5.26728 47.2313 5.86103 47 6.5C42.5034 5.38185 40.2552 4.82278 39.453 5.66401C39.29 5.83498 39.1679 6.01755 39.0722 6.23351C38.601 7.29609 39.7587 8.86543 42.0742 12.0041Z" fill="#FFBA34"/>
<path d="M88.9971 5.56253C90.8671 5.50352 91.802 5.47393 92.4141 6.08597C93.0262 6.69805 92.9966 7.63299 92.9375 9.50296C91.8705 43.3111 77.4061 54.7029 73.8067 57.0225C73.4811 57.2323 73.3183 57.3376 73.042 57.419C72.7656 57.5003 72.5286 57.5 72.0557 57.5H27.9444C27.4714 57.5 27.2345 57.5003 26.958 57.419C26.6818 57.3376 26.519 57.2323 26.1934 57.0225C22.594 54.7029 8.12953 43.3111 7.06253 9.50296C7.00352 7.63299 6.9739 6.69805 7.58597 6.08597C8.19805 5.4739 9.13299 5.50352 11.003 5.56253C30.7872 6.18693 42.8946 11.3997 50 16.3379C57.1054 11.3997 69.2129 6.18693 88.9971 5.56253Z" fill="#E27C23"/>
<path d="M83.027 11.0338C84.9062 10.9701 85.8464 10.9386 86.4616 11.5602C87.0766 12.1817 87.0353 13.115 86.9528 14.9811C85.8096 40.8351 73.7511 49.7215 70.5749 51.6227C70.2708 51.8047 70.1184 51.8952 69.8571 51.9674C69.5957 52.0397 69.3768 52.0397 68.9392 52.0397H31.0612C30.6235 52.0397 30.4046 52.0396 30.1433 51.9674C29.8818 51.8951 29.7289 51.8049 29.4245 51.6227C26.2483 49.7215 14.1908 40.8351 13.0476 14.9811C12.965 13.1148 12.9236 12.1817 13.5388 11.5602C14.154 10.9387 15.0934 10.9701 16.9724 11.0338C33.6803 11.6005 43.9469 15.6698 49.9997 19.527C56.0524 15.6698 66.319 11.6006 83.027 11.0338Z" fill="#B72343"/>
<circle cx="50" cy="50" r="42" fill="#FFBA34"/>
<mask id="mask0_142_2" style="mask-type:alpha" maskUnits="userSpaceOnUse" x="8" y="8" width="84" height="84">
<circle cx="50" cy="50" r="42" fill="#FFBA34"/>
</mask>
<g mask="url(#mask0_142_2)">
<path d="M79.8995 60.4034C78.0516 59.8072 78.0516 57.1928 79.8995 56.5966L96.8859 51.1162C98.1773 50.6995 99.5 51.6626 99.5 53.0196L99.5 63.9804C99.5 65.3374 98.1773 66.3005 96.8859 65.8838L79.8995 60.4034Z" fill="#E27C23"/>
<path d="M20.1005 60.4034C21.9484 59.8072 21.9484 57.1928 20.1005 56.5966L3.1141 51.1162C1.82265 50.6995 0.500001 51.6626 0.500001 53.0196L0.5 63.9804C0.5 65.3374 1.82266 66.3005 3.1141 65.8838L20.1005 60.4034Z" fill="#E27C23"/>
<path d="M75.8995 77.4034C74.0516 76.8072 74.0516 74.1928 75.8995 73.5966L92.8859 68.1162C94.1773 67.6995 95.5 68.6626 95.5 70.0196L95.5 80.9804C95.5 82.3374 94.1773 83.3005 92.8859 82.8838L75.8995 77.4034Z" fill="#E27C23"/>
<path d="M24.1005 77.4034C25.9484 76.8072 25.9484 74.1928 24.1005 73.5966L7.1141 68.1162C5.82265 67.6995 4.5 68.6626 4.5 70.0196L4.5 80.9804C4.5 82.3374 5.82266 83.3005 7.1141 82.8838L24.1005 77.4034Z" fill="#E27C23"/>
</g>
<circle cx="35" cy="43" r="12" fill="white"/>
<circle cx="12" cy="12" r="12" transform="matrix(-1 0 0 1 77 31)" fill="white"/>
<circle cx="38" cy="43" r="7.5" fill="#572217"/>
<circle cx="7.5" cy="7.5" r="7.5" transform="matrix(-1 0 0 1 69.5 35.5)" fill="#572217"/>
<path d="M35 60V60C36.9431 67.7724 48.023 67.9082 49.9661 60.1357V60.1357C49.9749 60.1004 50.0251 60.1004 50.0339 60.1357V60.1357C51.977 67.9082 63.0569 67.7724 65 60V60" stroke="#572217" stroke-width="4" stroke-linecap="round" stroke-linejoin="round"/>
<path d="M57 54.6C57 57.0853 53 60 50 60C47 60 43 57.0853 43 54.6C43 52.1147 46.134 51 50 51C53.866 51 57 52.1147 57 54.6Z" fill="#F20D61"/>
</g>
<defs>
<clipPath id="clip0_142_2">
<rect width="100" height="100" fill="white"/>
</clipPath>
</defs>
</svg>
