<svg width="100" height="100" viewBox="0 0 100 100" fill="none" xmlns="http://www.w3.org/2000/svg">
<g clip-path="url(#clip0_251_1514)">
<path d="M42.0742 12.0041C42.8521 13.0587 43.6996 14.1396 44.6435 15.3178C45.3015 16.139 45.6305 16.5496 46.0988 16.7465C46.5672 16.9433 47.0943 16.8906 48.1485 16.7851L53.5132 16.2487C54.7226 16.1277 55.3273 16.0673 55.7816 15.7151C56.2359 15.3629 56.4449 14.7933 56.8629 13.654C57.1861 12.773 57.4793 11.975 57.7661 11.2118C59.5481 6.4684 60.4391 4.09669 59.1773 3.20564L59.1668 3.19822C57.8992 2.31533 56.2662 3.71022 53 6.5C52.1315 4.24833 51.6973 3.1225 51.0038 2.77617C50.5162 2.5327 49.9356 2.49994 49.4237 2.68701C48.6956 2.95311 48.3909 3.53718 47.7815 4.70533C47.4883 5.26728 47.2313 5.86103 47 6.5C42.5034 5.38185 40.2552 4.82278 39.453 5.66401C39.29 5.83498 39.1679 6.01755 39.0722 6.23351C38.601 7.29609 39.7587 8.86543 42.0742 12.0041Z" fill="#FFBA34"/>
<path d="M88.9971 5.56253C90.8671 5.50352 91.802 5.47393 92.4141 6.08597C93.0262 6.69805 92.9966 7.63299 92.9375 9.50296C91.8705 43.3111 77.4061 54.7029 73.8067 57.0225C73.4811 57.2323 73.3183 57.3376 73.042 57.419C72.7656 57.5003 72.5286 57.5 72.0557 57.5H27.9444C27.4714 57.5 27.2345 57.5003 26.958 57.419C26.6818 57.3376 26.519 57.2323 26.1934 57.0225C22.594 54.7029 8.12953 43.3111 7.06253 9.50296C7.00352 7.63299 6.9739 6.69805 7.58597 6.08597C8.19805 5.4739 9.13299 5.50352 11.003 5.56253C30.7872 6.18693 42.8946 11.3997 50 16.3379C57.1054 11.3997 69.2129 6.18693 88.9971 5.56253Z" fill="#E27C23"/>
<path d="M83.0273 11.0336C84.9061 10.9698 85.8456 10.9386 86.4609 11.5599C87.0761 12.1815 87.0356 13.1152 86.953 14.9818C85.8097 40.8355 73.7513 49.7213 70.5751 51.6224C70.2709 51.8045 70.1187 51.8959 69.8573 51.9681C69.5958 52.0404 69.3763 52.0404 68.9384 52.0404H31.0614C30.6236 52.0404 30.404 52.0404 30.1425 51.9681C29.8811 51.8959 29.7289 51.8045 29.4247 51.6224C26.2485 49.7213 14.1901 40.8355 13.0468 14.9818C12.9643 13.1154 12.923 12.1815 13.538 11.5599C14.1532 10.9384 15.0935 10.9698 16.9726 11.0336C33.6806 11.6003 43.9472 15.6696 49.9999 19.5267C56.0527 15.6696 66.3193 11.6003 83.0273 11.0336Z" fill="#B72343"/>
<circle cx="50" cy="50" r="42" fill="#FFBA34"/>
<mask id="mask0_251_1514" style="mask-type:alpha" maskUnits="userSpaceOnUse" x="8" y="8" width="84" height="84">
<circle cx="50" cy="50" r="42" fill="#FFBA34"/>
</mask>
<g mask="url(#mask0_251_1514)">
<path d="M79.8995 60.4034C78.0516 59.8072 78.0516 57.1928 79.8995 56.5966L96.8859 51.1162C98.1773 50.6995 99.5 51.6626 99.5 53.0196L99.5 63.9804C99.5 65.3374 98.1773 66.3005 96.8859 65.8838L79.8995 60.4034Z" fill="#E27C23"/>
<path d="M20.1005 60.4034C21.9484 59.8072 21.9484 57.1928 20.1005 56.5966L3.1141 51.1162C1.82265 50.6995 0.500001 51.6626 0.500001 53.0196L0.5 63.9804C0.5 65.3374 1.82265 66.3005 3.1141 65.8838L20.1005 60.4034Z" fill="#E27C23"/>
<path d="M75.8995 77.4034C74.0516 76.8072 74.0516 74.1928 75.8995 73.5966L92.8859 68.1162C94.1773 67.6995 95.5 68.6626 95.5 70.0196L95.5 80.9804C95.5 82.3374 94.1773 83.3005 92.8859 82.8838L75.8995 77.4034Z" fill="#E27C23"/>
<path d="M24.1005 77.4034C25.9484 76.8072 25.9484 74.1928 24.1005 73.5966L7.1141 68.1162C5.82265 67.6995 4.5 68.6626 4.5 70.0196L4.5 80.9804C4.5 82.3374 5.82265 83.3005 7.1141 82.8838L24.1005 77.4034Z" fill="#E27C23"/>
</g>
<path d="M72.5 62.3214C72.5 77.4106 64.0625 80 50 80C35.9375 80 27.5 77.4106 27.5 62.3214C27.5 47.2322 38.75 35 50 35C61.25 35 72.5 47.2322 72.5 62.3214Z" fill="#E60045"/>
<path d="M44 25.5827C36.5 20.8935 26 24.4202 21.5 30.5001" stroke="#471C13" stroke-width="4" stroke-linecap="round"/>
<path d="M56 25.5827C63.5 20.8935 74 24.4202 78.5 30.5001" stroke="#471C13" stroke-width="4" stroke-linecap="round"/>
<path d="M57 31.6C57 34.0853 53 37 50 37C47 37 43 34.0853 43 31.6C43 29.1147 46.134 28 50 28C53.866 28 57 29.1147 57 31.6Z" fill="#E00043"/>
<mask id="path-14-outside-1_251_1514" maskUnits="userSpaceOnUse" x="-9.30348" y="31.7939" width="72.0881" height="72.1569" fill="black">
<rect fill="white" x="-9.30348" y="31.7939" width="72.0881" height="72.1569"/>
<path d="M47.2046 55.746C46.1176 54.5652 44.3031 54.4546 43.0824 55.4687L42.9659 55.5705L41.5875 56.8475C37.8376 60.3494 34.1951 63.9675 30.7213 67.7105C30.0278 68.4578 28.8256 68.5077 27.9836 67.9327C26.9542 67.2297 26.7506 65.8041 27.5961 64.8883C30.2574 62.0054 32.8066 59.682 37.0235 55.8929L35.0179 53.6607L33.0131 51.4292C26.5012 57.2806 23.721 59.8678 18.613 66.1383C18.4872 66.2927 18.3589 66.4125 18.1947 66.5252C16.8043 67.4795 14.6343 66.8282 14.5952 65.1422C14.5567 63.4849 14.6045 61.8421 14.7462 60.2426C14.8921 58.5924 13.6727 57.1363 12.0225 56.9901C10.3723 56.8439 8.91572 58.063 8.76929 59.7131C8.23377 65.7585 8.86588 72.2468 10.3654 78.0976C10.4526 78.4375 10.4961 78.6075 10.5116 78.7474C10.5271 78.8874 10.5196 79.1352 10.5046 79.631C10.4893 80.1365 10.5245 80.6145 10.6164 81.0556C11.7352 86.422 18.0911 92.2489 22.9711 93.2114C27.0218 94.0103 35.1793 89.7388 37.4774 84.4966C37.6303 84.1478 37.7068 83.9734 37.7628 83.8766C37.8189 83.7798 37.8933 83.6792 38.042 83.478C41.6148 78.6454 44.3847 75.5668 49.2664 71.2102C50.5024 70.107 50.61 68.2099 49.5068 66.9738C48.4036 65.7379 46.5072 65.6309 45.2711 66.734C42.1364 69.5315 39.7884 71.8705 37.589 74.4063C36.852 75.2562 35.5059 75.2024 34.8133 74.3159C34.2992 73.6579 34.283 72.6965 34.8497 72.0833C38.2906 68.3595 41.9209 64.7465 45.6815 61.2345L47.029 59.9847L47.14 59.8775C48.2518 58.745 48.2913 56.927 47.2046 55.746ZM37.2494 51.6559C36.1421 50.4237 34.2455 50.3221 33.0131 51.4292L37.0235 55.8929C38.2559 54.7855 38.3568 52.8883 37.2494 51.6559Z"/>
</mask>
<path d="M47.2046 55.746C46.1176 54.5652 44.3031 54.4546 43.0824 55.4687L42.9659 55.5705L41.5875 56.8475C37.8376 60.3494 34.1951 63.9675 30.7213 67.7105C30.0278 68.4578 28.8256 68.5077 27.9836 67.9327C26.9542 67.2297 26.7506 65.8041 27.5961 64.8883C30.2574 62.0054 32.8066 59.682 37.0235 55.8929L35.0179 53.6607L33.0131 51.4292C26.5012 57.2806 23.721 59.8678 18.613 66.1383C18.4872 66.2927 18.3589 66.4125 18.1947 66.5252C16.8043 67.4795 14.6343 66.8282 14.5952 65.1422C14.5567 63.4849 14.6045 61.8421 14.7462 60.2426C14.8921 58.5924 13.6727 57.1363 12.0225 56.9901C10.3723 56.8439 8.91572 58.063 8.76929 59.7131C8.23377 65.7585 8.86588 72.2468 10.3654 78.0976C10.4526 78.4375 10.4961 78.6075 10.5116 78.7474C10.5271 78.8874 10.5196 79.1352 10.5046 79.631C10.4893 80.1365 10.5245 80.6145 10.6164 81.0556C11.7352 86.422 18.0911 92.2489 22.9711 93.2114C27.0218 94.0103 35.1793 89.7388 37.4774 84.4966C37.6303 84.1478 37.7068 83.9734 37.7628 83.8766C37.8189 83.7798 37.8933 83.6792 38.042 83.478C41.6148 78.6454 44.3847 75.5668 49.2664 71.2102C50.5024 70.107 50.61 68.2099 49.5068 66.9738C48.4036 65.7379 46.5072 65.6309 45.2711 66.734C42.1364 69.5315 39.7884 71.8705 37.589 74.4063C36.852 75.2562 35.5059 75.2024 34.8133 74.3159C34.2992 73.6579 34.283 72.6965 34.8497 72.0833C38.2906 68.3595 41.9209 64.7465 45.6815 61.2345L47.029 59.9847L47.14 59.8775C48.2518 58.745 48.2913 56.927 47.2046 55.746ZM37.2494 51.6559C36.1421 50.4237 34.2455 50.3221 33.0131 51.4292L37.0235 55.8929C38.2559 54.7855 38.3568 52.8883 37.2494 51.6559Z" fill="#FFBA34"/>
<path d="M47.2046 55.746L50.1476 53.037L50.148 53.0375L47.2046 55.746ZM43.0824 55.4687L40.4518 52.4555L40.4887 52.4233L40.5263 52.392L43.0824 55.4687ZM42.9659 55.5705L40.2474 52.6362L40.2907 52.5961L40.3352 52.5573L42.9659 55.5705ZM41.5875 56.8475L38.8574 53.924L38.8632 53.9186L38.8691 53.9132L41.5875 56.8475ZM37.0235 55.8929L39.697 58.8682L39.697 58.8682L37.0235 55.8929ZM35.0179 53.6607L32.0425 56.3341L32.0425 56.334L35.0179 53.6607ZM33.0131 51.4292L30.3396 48.4539L30.3399 48.4537L33.0131 51.4292ZM14.7462 60.2426L18.7307 60.595L18.7306 60.5955L14.7462 60.2426ZM12.0225 56.9901L12.3754 53.0057L12.3755 53.0057L12.0225 56.9901ZM8.76929 59.7131L4.78489 59.3601L4.78495 59.3595L8.76929 59.7131ZM10.6164 81.0556L6.7006 81.872L6.70058 81.8719L10.6164 81.0556ZM22.9711 93.2114L22.1971 97.1358L22.1971 97.1358L22.9711 93.2114ZM49.2664 71.2102L51.93 74.1944L51.9297 74.1946L49.2664 71.2102ZM49.5068 66.9738L52.4909 64.31L52.4912 64.3104L49.5068 66.9738ZM45.2711 66.734L42.6077 63.7496L42.6077 63.7496L45.2711 66.734ZM45.6815 61.2345L42.9514 58.3111L42.9614 58.3018L45.6815 61.2345ZM47.029 59.9847L49.8084 62.8614L49.7791 62.8897L49.7491 62.9175L47.029 59.9847ZM47.14 59.8775L49.9945 62.6796L49.9574 62.7174L49.9194 62.7541L47.14 59.8775ZM37.2494 51.6559L40.2245 48.9821L40.2247 48.9824L37.2494 51.6559ZM37.4774 84.4966L41.1408 86.1026L37.4774 84.4966ZM38.042 83.478L41.2584 85.8559L38.042 83.478ZM37.7628 83.8766L34.3013 81.8721L37.7628 83.8766ZM10.3654 78.0976L6.49069 79.0907L10.3654 78.0976ZM10.5046 79.631L6.50645 79.5099L10.5046 79.631ZM10.5116 78.7474L14.4873 78.307L10.5116 78.7474ZM47.2046 55.746L44.2615 58.455C44.6248 58.8497 45.2293 58.8855 45.6386 58.5455L43.0824 55.4687L40.5263 52.392C43.377 50.0237 47.6104 50.2807 50.1476 53.037L47.2046 55.746ZM43.0824 55.4687L45.7131 58.482L45.5965 58.5838L42.9659 55.5705L40.3352 52.5573L40.4518 52.4555L43.0824 55.4687ZM42.9659 55.5705L45.6843 58.5048L44.306 59.7818L41.5875 56.8475L38.8691 53.9132L40.2474 52.6362L42.9659 55.5705ZM41.5875 56.8475L44.3176 59.7709C40.6272 63.2172 37.0534 66.7678 33.6533 70.4315L30.7213 67.7105L27.7894 64.9895C31.3368 61.1671 35.048 57.4815 38.8574 53.924L41.5875 56.8475ZM27.5961 64.8883L24.657 62.175C27.4626 59.1358 30.1457 56.6954 34.35 52.9176L37.0235 55.8929L39.697 58.8682C35.4676 62.6686 33.0521 64.875 30.5353 67.6015L27.5961 64.8883ZM37.0235 55.8929L34.048 58.5662L32.0425 56.3341L35.0179 53.6607L37.9934 50.9874L39.9989 53.2196L37.0235 55.8929ZM35.0179 53.6607L32.0425 56.334L30.0376 54.1025L33.0131 51.4292L35.9886 48.7559L37.9934 50.9874L35.0179 53.6607ZM33.0131 51.4292L35.6866 54.4045C29.2346 60.2021 26.6305 62.6295 21.7143 68.6646L18.613 66.1383L15.5117 63.612C20.8115 57.106 23.7678 54.3591 30.3396 48.4539L33.0131 51.4292ZM14.5952 65.1422L10.5962 65.235C10.5546 63.4409 10.606 61.6488 10.7618 59.8896L14.7462 60.2426L18.7306 60.5955C18.6031 62.0354 18.5588 63.5289 18.5941 65.0495L14.5952 65.1422ZM14.7462 60.2426L10.7618 59.8902C10.7131 60.4407 11.1198 60.9257 11.6695 60.9745L12.0225 56.9901L12.3755 53.0057C16.2257 53.3468 19.0712 56.7441 18.7307 60.595L14.7462 60.2426ZM12.0225 56.9901L11.6696 60.9745C12.2191 61.0231 12.7048 60.6173 12.7536 60.0667L8.76929 59.7131L4.78495 59.3595C5.12668 55.5086 8.52551 52.6647 12.3754 53.0057L12.0225 56.9901ZM8.76929 59.7131L12.7537 60.066C12.2619 65.6173 12.8421 71.6496 14.2402 77.1045L10.3654 78.0976L6.49069 79.0907C4.88965 72.844 4.2056 65.8997 4.78489 59.3601L8.76929 59.7131ZM10.5046 79.631L14.5028 79.752C14.4952 80.0021 14.5155 80.1593 14.5322 80.2394L10.6164 81.0556L6.70058 81.8719C6.53335 81.0696 6.48341 80.2709 6.50645 79.5099L10.5046 79.631ZM10.6164 81.0556L14.5322 80.2393C14.8682 81.8511 16.1466 83.9707 18.155 85.901C20.1688 87.8364 22.3159 89.0051 23.7451 89.287L22.9711 93.2114L22.1971 97.1358C18.7462 96.4552 15.2754 94.2292 12.6115 91.6689C9.94233 89.1036 7.48334 85.6266 6.7006 81.872L10.6164 81.0556ZM22.9711 93.2114L23.745 89.287C23.9261 89.3227 24.5263 89.3469 25.5806 89.0622C26.5765 88.7933 27.7315 88.3142 28.8928 87.6488C31.3301 86.2522 33.1411 84.4255 33.814 82.8906L37.4774 84.4966L41.1408 86.1026C39.5156 89.81 36.0987 92.7401 32.8701 94.59C31.1984 95.5479 29.4109 96.3145 27.6661 96.7856C25.9799 97.2409 24.0414 97.4995 22.1971 97.1358L22.9711 93.2114ZM38.042 83.478L34.8256 81.1001C38.5613 76.0471 41.5165 72.7653 46.603 68.2258L49.2664 71.2102L51.9297 74.1946C47.2529 78.3683 44.6684 81.2437 41.2584 85.8559L38.042 83.478ZM49.2664 71.2102L46.6028 68.226C46.1905 68.5941 46.155 69.2254 46.5225 69.6371L49.5068 66.9738L52.4912 64.3104C55.065 67.1944 54.8143 71.6199 51.93 74.1944L49.2664 71.2102ZM49.5068 66.9738L46.5228 69.6375C46.8917 70.0508 47.5237 70.0849 47.9344 69.7184L45.2711 66.734L42.6077 63.7496C45.4906 61.1769 49.9155 61.425 52.4909 64.31L49.5068 66.9738ZM45.2711 66.734L47.9345 69.7184C44.8928 72.4328 42.6723 74.6503 40.6109 77.0271L37.589 74.4063L34.5672 71.7855C36.9045 69.0906 39.3799 66.6303 42.6077 63.7496L45.2711 66.734ZM34.8497 72.0833L31.9119 69.3686C35.4287 65.5627 39.1297 61.8801 42.9514 58.3111L45.6815 61.2345L48.4117 64.1579C44.7121 67.6129 41.1525 71.1563 37.7875 74.798L34.8497 72.0833ZM45.6815 61.2345L42.9614 58.3018L44.3089 57.052L47.029 59.9847L49.7491 62.9175L48.4016 64.1673L45.6815 61.2345ZM47.029 59.9847L44.2496 57.1081L44.3606 57.0008L47.14 59.8775L49.9194 62.7541L49.8084 62.8614L47.029 59.9847ZM47.14 59.8775L44.2856 57.0753C43.912 57.4559 43.8987 58.0607 44.2612 58.4546L47.2046 55.746L50.148 53.0375C52.684 55.7933 52.5915 60.0341 49.9945 62.6796L47.14 59.8775ZM37.2494 51.6559L34.2743 54.3296C34.643 54.7399 35.275 54.7743 35.6863 54.4048L33.0131 51.4292L30.3399 48.4537C33.2159 45.8699 37.6411 46.1076 40.2245 48.9821L37.2494 51.6559ZM33.0131 51.4292L35.9886 48.7559L39.999 53.2196L37.0235 55.8929L34.048 58.5662L30.0376 54.1025L33.0131 51.4292ZM37.0235 55.8929L34.35 52.9176C33.9384 53.2874 33.9057 53.9193 34.2741 54.3294L37.2494 51.6559L40.2247 48.9824C42.808 51.8573 42.5733 56.2836 39.697 58.8682L37.0235 55.8929ZM34.8133 74.3159L31.6612 76.7785C30.0941 74.7727 29.8516 71.5983 31.9119 69.3686L34.8497 72.0833L37.7875 74.798C38.7144 73.7948 38.5043 72.5431 37.9653 71.8532L34.8133 74.3159ZM37.4774 84.4966L33.814 82.8906C33.9044 82.6843 34.1007 82.2186 34.3013 81.8721L37.7628 83.8766L41.2243 85.8811C41.2705 85.8014 41.2985 85.7448 41.3046 85.7325C41.3116 85.7181 41.3104 85.72 41.2966 85.7503C41.2834 85.7793 41.2649 85.8206 41.2378 85.882C41.2108 85.943 41.1797 86.014 41.1408 86.1026L37.4774 84.4966ZM38.042 83.478L41.2584 85.8559C41.2396 85.8814 41.2233 85.9035 41.2081 85.924C41.1931 85.9444 41.1804 85.9616 41.1694 85.9766C41.1584 85.9916 41.1501 86.0031 41.1436 86.012C41.1371 86.021 41.1335 86.0261 41.1319 86.0283C41.1282 86.0335 41.1375 86.0207 41.1537 85.9959C41.1712 85.9693 41.1959 85.9301 41.2243 85.8811L37.7628 83.8766L34.3013 81.8721C34.4969 81.5344 34.7366 81.2204 34.8256 81.1001L38.042 83.478ZM37.589 74.4063L40.6109 77.0271C38.1731 79.8379 33.855 79.5864 31.6612 76.7785L34.8133 74.3159L37.9653 71.8532C37.1568 70.8184 35.5308 70.6746 34.5672 71.7855L37.589 74.4063ZM18.1947 66.5252L20.4582 69.8232C18.6383 71.0723 16.4001 71.2457 14.5581 70.5962C12.6247 69.9145 10.6624 68.0875 10.5962 65.235L14.5952 65.1422L18.5941 65.0495C18.583 64.5714 18.4033 64.0747 18.0802 63.6779C17.7821 63.3119 17.4491 63.1328 17.2183 63.0515C16.8186 62.9105 16.3607 62.9325 15.9312 63.2273L18.1947 66.5252ZM27.9836 67.9327L25.7278 71.236C22.8071 69.2414 22.0548 64.994 24.657 62.175L27.5961 64.8883L30.5353 67.6015C31.4465 66.6143 31.1014 65.2181 30.2393 64.6294L27.9836 67.9327ZM10.3654 78.0976L14.2402 77.1045C14.291 77.3029 14.4328 77.8147 14.4873 78.307L10.5116 78.7474L6.53594 79.1878C6.54496 79.2692 6.55551 79.3316 6.56216 79.3673C6.56838 79.4007 6.57205 79.4152 6.56841 79.3995C6.56474 79.3836 6.55755 79.3537 6.54364 79.2984C6.52972 79.2431 6.51312 79.1783 6.49069 79.0907L10.3654 78.0976ZM10.5046 79.631L6.50645 79.5099C6.51026 79.3841 6.51332 79.2827 6.51568 79.1954C6.51806 79.1075 6.51934 79.0474 6.51989 79.0045C6.52046 78.9595 6.51993 78.9544 6.52038 78.9728C6.52074 78.9874 6.52276 79.0689 6.53594 79.1878L10.5116 78.7474L14.4873 78.307C14.5429 78.8087 14.5117 79.4571 14.5028 79.752L10.5046 79.631ZM18.613 66.1383L21.7143 68.6646C21.3586 69.1012 20.9512 69.4848 20.4582 69.8232L18.1947 66.5252L15.9312 63.2273C15.8647 63.2729 15.7837 63.3354 15.6988 63.4141C15.6146 63.4921 15.5519 63.5627 15.5117 63.612L18.613 66.1383ZM30.7213 67.7105L33.6533 70.4315C31.413 72.8453 27.9498 72.7533 25.7278 71.236L27.9836 67.9327L30.2393 64.6294C29.8967 64.3954 29.5112 64.3008 29.1325 64.3269C28.7398 64.3541 28.218 64.5277 27.7894 64.9895L30.7213 67.7105Z" fill="#471C13" mask="url(#path-14-outside-1_251_1514)"/>
</g>
<defs>
<clipPath id="clip0_251_1514">
<rect width="100" height="100" fill="white"/>
</clipPath>
</defs>
</svg>
