<svg width="100" height="100" viewBox="0 0 100 100" fill="none" xmlns="http://www.w3.org/2000/svg">
<circle cx="18" cy="18" r="13" fill="#E40037"/>
<circle cx="9.5" cy="31.5" r="7.5" fill="#E40037"/>
<circle cx="32.5" cy="10.5" r="7.5" fill="#E40037"/>
<circle cx="13" cy="13" r="13" transform="matrix(-1 0 0 1 95 5)" fill="#E40037"/>
<circle cx="7.5" cy="7.5" r="7.5" transform="matrix(-1 0 0 1 98 24)" fill="#E40037"/>
<circle cx="7.5" cy="7.5" r="7.5" transform="matrix(-1 0 0 1 75 3)" fill="#E40037"/>
<circle cx="50" cy="50" r="42" fill="#FFEFCD"/>
<path d="M70.2539 59.0576C70.7939 58.9881 71.4476 58.9492 72.1172 59.1309L72.4043 59.2227L72.6133 59.3066C73.5801 59.7302 74.4202 60.5662 74.7949 61.6016L74.8682 61.8262L74.9365 62.1094C75.0654 62.7628 74.9796 63.3556 74.8418 63.8623C74.7714 64.1211 74.6762 64.3949 74.5703 64.6719L74.2363 65.501C72.7877 69.0214 70.0344 73.1517 65.2646 76.1094L64.7969 76.3916C61.0477 78.5951 56.1953 80.0229 50.0078 79.999L50.0088 80C50.0059 80 50.0028 79.999 50 79.999C49.9972 79.999 49.9941 80 49.9912 80V79.999C44.1912 80.0213 39.5646 78.7681 35.9199 76.7959L35.2031 76.3916C30.4607 73.6043 27.6282 69.6652 26.0605 66.1895L25.7637 65.501C25.5399 64.9572 25.299 64.3798 25.1582 63.8623C25.0007 63.2833 24.911 62.5918 25.1318 61.8262L25.2051 61.6016C25.6065 60.4923 26.5425 59.6122 27.5957 59.2227L27.8828 59.1309C28.5524 58.9492 29.2061 58.9881 29.7461 59.0576C30.3684 59.1378 31.1284 59.3044 31.9756 59.4873L33.9678 59.915C38.7463 60.9302 44.3924 62.0076 50 62.0078L50.6006 62.0029C56.8109 61.9191 63.0288 60.566 68.0244 59.4873L69.2236 59.2344C69.5972 59.1601 69.9428 59.0977 70.2539 59.0576Z" fill="white" stroke="#E40037" stroke-width="4"/>
<path d="M36 23C43.4799 23 49 30.0419 49 38C49 45.9581 43.4799 53 36 53C28.5201 53 23 45.9581 23 38C23 30.0419 28.5201 23 36 23Z" fill="white" stroke="#00A3FF" stroke-width="4"/>
<path d="M64 23C56.5201 23 51 30.0419 51 38C51 45.9581 56.5201 53 64 53C71.4799 53 77 45.9581 77 38C77 30.0419 71.4799 23 64 23Z" fill="white" stroke="#00A3FF" stroke-width="4"/>
<circle cx="38" cy="38" r="7.5" fill="#38001E"/>
<circle cx="7.5" cy="7.5" r="7.5" transform="matrix(-1 0 0 1 69.5 30.5)" fill="#38001E"/>
<ellipse cx="50" cy="49" rx="9" ry="7" fill="#E40037"/>
<ellipse opacity="0.5" cx="82" cy="53" rx="8" ry="4" fill="#E40037"/>
<ellipse opacity="0.5" cx="18" cy="53" rx="8" ry="4" fill="#E40037"/>
</svg>
