<svg width="100" height="100" viewBox="0 0 100 100" fill="none" xmlns="http://www.w3.org/2000/svg">
<circle cx="42" cy="42" r="42" transform="matrix(-1 0 0 1 92 8)" fill="#00A3FF"/>
<ellipse cx="50" cy="36" rx="30" ry="20" fill="#3DCEFF"/>
<circle cx="35" cy="45" r="12" fill="white"/>
<circle cx="12" cy="12" r="12" transform="matrix(-1 0 0 1 77 33)" fill="white"/>
<circle cx="39" cy="45" r="6" fill="#331B5B"/>
<circle cx="6" cy="6" r="6" transform="matrix(-1 0 0 1 67 39)" fill="#331B5B"/>
<path d="M64 22C70 22.5 76 26.5 79 30" stroke="#331B5B" stroke-width="4" stroke-linecap="round"/>
<path d="M36 22C30 22.5 24 26.5 21 30" stroke="#331B5B" stroke-width="4" stroke-linecap="round"/>
<mask id="mask0_9_182" style="mask-type:alpha" maskUnits="userSpaceOnUse" x="29" y="60" width="42" height="14">
<path d="M71 68C71 71.866 61.598 74 50 74C38.402 74 29 71.866 29 68C29 64.134 38.402 60 50 60C61.598 60 71 64.134 71 68Z" fill="white"/>
</mask>
<g mask="url(#mask0_9_182)">
<path d="M71 68C71 71.866 61.598 74 50 74C38.402 74 29 71.866 29 68C29 64.134 38.402 60 50 60C61.598 60 71 64.134 71 68Z" fill="#331B5B"/>
<rect x="41" y="56" width="9" height="11" rx="3" fill="white"/>
<rect x="41" y="67" width="9" height="11" rx="3" fill="white"/>
<rect x="32" y="56" width="9" height="11" rx="3" fill="white"/>
<rect x="32" y="67" width="9" height="11" rx="3" fill="white"/>
<rect x="50" y="56" width="9" height="11" rx="3" fill="white"/>
<rect x="50" y="67" width="9" height="11" rx="3" fill="white"/>
<rect x="59" y="56" width="9" height="11" rx="3" fill="white"/>
<rect x="59" y="67" width="9" height="11" rx="3" fill="white"/>
</g>
<path d="M13.5 83.5C12 83 10.5 63 10.5 63L24 65V74C24 74 21.3279 95 20.1639 95C19 95 16 76 16 76C16 76 15 84 13.5 83.5Z" fill="#00A3FF"/>
<path d="M74.5 92C73.5 92.5 69 76.5 69 76.5L90.5 60C90.5 60 83 96.5 82 96.5C81 96.5 78 81 78 81C78 81 75.5 91.5 74.5 92Z" fill="#00A3FF"/>
</svg>
