<svg width="100" height="100" viewBox="0 0 100 100" fill="none" xmlns="http://www.w3.org/2000/svg">
<circle cx="50" cy="56" r="40" fill="#FFBA34"/>
<circle cx="35" cy="56" r="12" fill="white"/>
<circle cx="12" cy="12" r="12" transform="matrix(-1 0 0 1 77 44)" fill="white"/>
<circle cx="38" cy="56" r="7.5" fill="#572217"/>
<circle cx="7.5" cy="7.5" r="7.5" transform="matrix(-1 0 0 1 69.5 48.5)" fill="#572217"/>
<path d="M45 75H55" stroke="#572217" stroke-width="4" stroke-linecap="round" stroke-linejoin="round"/>
<path d="M50 15C61.7066 15 72.3698 16.1281 80.1621 17.9834C84.0423 18.9073 87.3223 20.0367 89.6807 21.3643C91.876 22.6 94 24.4274 94 27C94 29.5726 91.876 31.4 89.6807 32.6357C87.3223 33.9633 84.0423 35.0927 80.1621 36.0166C72.3698 37.8719 61.7066 39 50 39C38.2934 39 27.6302 37.8719 19.8379 36.0166C15.9577 35.0927 12.6777 33.9633 10.3193 32.6357C8.12403 31.4 6 29.5726 6 27C6 24.4274 8.12403 22.6 10.3193 21.3643C12.6777 20.0367 15.9577 18.9073 19.8379 17.9834C27.6302 16.1281 38.2934 15 50 15Z" fill="#873600" stroke="#3D120E" stroke-width="4"/>
<mask id="path-8-outside-1_8_608" maskUnits="userSpaceOnUse" x="21" y="0.296631" width="58" height="33" fill="black">
<rect fill="white" x="21" y="0.296631" width="58" height="33"/>
<path d="M50 10.149C62.3302 -5.23766 73.2336 20.5344 74.8047 24.4996C74.9328 24.6636 74.9999 24.8299 75 24.9996C75 27.2087 63.8071 28.9996 50 28.9996C36.1929 28.9996 25 27.2087 25 24.9996C25.0001 24.8301 25.0664 24.6635 25.1943 24.4996C26.765 20.5356 37.6695 -5.23811 50 10.149Z"/>
</mask>
<path d="M50 10.149C62.3302 -5.23766 73.2336 20.5344 74.8047 24.4996C74.9328 24.6636 74.9999 24.8299 75 24.9996C75 27.2087 63.8071 28.9996 50 28.9996C36.1929 28.9996 25 27.2087 25 24.9996C25.0001 24.8301 25.0664 24.6635 25.1943 24.4996C26.765 20.5356 37.6695 -5.23811 50 10.149Z" fill="#873600"/>
<path d="M50 10.149L46.8786 12.6503C47.6377 13.5977 48.786 14.149 50 14.149C51.214 14.149 52.3623 13.5977 53.1214 12.6503L50 10.149ZM74.8047 24.4996L71.086 25.973C71.2266 26.328 71.4173 26.6609 71.6524 26.9618L74.8047 24.4996ZM75 24.9996L79 24.9996L79 24.998L75 24.9996ZM25 24.9996L21 24.998V24.9996H25ZM25.1943 24.4996L28.3478 26.9603C28.5823 26.6598 28.7727 26.3274 28.9131 25.973L25.1943 24.4996ZM50 10.149L53.1214 12.6503C55.684 9.45254 57.4536 9.2093 58.4073 9.31711C59.7141 9.46484 61.4416 10.4711 63.449 12.7266C67.4026 17.169 70.3095 24.0135 71.086 25.973L74.8047 24.4996L78.5234 23.0261C77.7287 21.0205 74.3984 12.9964 69.425 7.4081C66.9689 4.64833 63.5604 1.8487 59.3059 1.36774C54.6982 0.846858 50.4811 3.1521 46.8786 7.64761L50 10.149ZM74.8047 24.4996L71.6524 26.9618C71.3917 26.6282 71.0004 25.9527 71 25.0012L75 24.9996L79 24.998C78.9995 23.7072 78.4739 22.6991 77.957 22.0373L74.8047 24.4996ZM75 24.9996H71C71 23.4582 71.974 22.697 72.0282 22.6546C72.1527 22.5573 72.0879 22.6383 71.6201 22.8153C70.7281 23.1527 69.2062 23.5325 67.0457 23.8782C62.7881 24.5594 56.7595 24.9996 50 24.9996V28.9996V32.9996C57.0477 32.9996 63.519 32.5442 68.3096 31.7778C70.6733 31.3996 72.8126 30.9175 74.4506 30.2978C75.2479 29.9962 76.1654 29.5749 76.9559 28.9568C77.6762 28.3936 79 27.0932 79 24.9996H75ZM50 28.9996V24.9996C43.2405 24.9996 37.2119 24.5594 32.9543 23.8782C30.7938 23.5325 29.2719 23.1527 28.3799 22.8153C27.9121 22.6383 27.8473 22.5573 27.9718 22.6546C28.026 22.697 29 23.4582 29 24.9996H25H21C21 27.0932 22.3238 28.3936 23.0441 28.9568C23.8346 29.5749 24.7521 29.9962 25.5494 30.2978C27.1874 30.9175 29.3267 31.3996 31.6904 31.7778C36.481 32.5442 42.9523 32.9996 50 32.9996V28.9996ZM25 24.9996L29 25.0012C28.9996 25.9415 28.6164 26.6161 28.3478 26.9603L25.1943 24.4996L22.0408 22.0388C21.5164 22.7108 21.0005 23.7187 21 24.998L25 24.9996ZM25.1943 24.4996L28.9131 25.973C29.6892 24.0141 32.5963 17.1695 36.5502 12.7269C38.5577 10.4712 40.2854 9.46484 41.5924 9.31706C42.5462 9.20922 44.316 9.45248 46.8786 12.6503L50 10.149L53.1214 7.64762C49.5188 3.15193 45.3015 0.846734 40.6937 1.36771C36.439 1.84875 33.0304 4.64847 30.5742 7.40831C25.6005 12.9968 22.2701 21.021 21.4756 23.0261L25.1943 24.4996Z" fill="#3D120E" mask="url(#path-8-outside-1_8_608)"/>
<path d="M72 26C69 26.9375 65 29.125 64 31" stroke="#376F41" stroke-width="4" stroke-linecap="round" stroke-linejoin="round"/>
<circle cx="72.0001" cy="25.9998" r="3" transform="rotate(-8.93143 72.0001 25.9998)" fill="#54C055"/>
<circle cx="68.5706" cy="23.502" r="3" transform="rotate(-8.93143 68.5706 23.502)" fill="#54C055"/>
<circle cx="74.4979" cy="22.5704" r="3" transform="rotate(-8.93143 74.4979 22.5704)" fill="#54C055"/>
<circle cx="75.4294" cy="28.4976" r="3" transform="rotate(-8.93143 75.4294 28.4976)" fill="#54C055"/>
<circle cx="69.5021" cy="29.4293" r="3" transform="rotate(-8.93143 69.5021 29.4293)" fill="#54C055"/>
</svg>
