<svg width="100" height="100" viewBox="0 0 100 100" fill="none" xmlns="http://www.w3.org/2000/svg">
<circle cx="50" cy="56" r="40" fill="#FFBA34"/>
<circle cx="35" cy="56" r="12" fill="white"/>
<circle cx="12" cy="12" r="12" transform="matrix(-1 0 0 1 77 44)" fill="white"/>
<circle cx="38" cy="56" r="7.5" fill="#572217"/>
<circle cx="7.5" cy="7.5" r="7.5" transform="matrix(-1 0 0 1 69.5 48.5)" fill="#572217"/>
<path d="M45 75H55" stroke="#572217" stroke-width="4" stroke-linecap="round" stroke-linejoin="round"/>
<path d="M50 15C61.7066 15 72.3698 16.1281 80.1621 17.9834C84.0423 18.9073 87.3223 20.0367 89.6807 21.3643C91.876 22.6 94 24.4274 94 27C94 29.5726 91.876 31.4 89.6807 32.6357C87.3223 33.9633 84.0423 35.0927 80.1621 36.0166C72.3698 37.8719 61.7066 39 50 39C38.2934 39 27.6302 37.8719 19.8379 36.0166C15.9577 35.0927 12.6777 33.9633 10.3193 32.6357C8.12403 31.4 6 29.5726 6 27C6 24.4274 8.12403 22.6 10.3193 21.3643C12.6777 20.0367 15.9577 18.9073 19.8379 17.9834C27.6302 16.1281 38.2934 15 50 15Z" fill="#873600" stroke="#3D120E" stroke-width="4"/>
<mask id="path-8-outside-1_8_608" maskUnits="userSpaceOnUse" x="21" y="0.29657" width="58" height="33" fill="black">
<rect fill="white" x="21" y="0.29657" width="58" height="33"/>
<path d="M50 10.1489C62.3287 -5.23597 73.2306 20.5287 74.8037 24.4985C74.9326 24.663 75 24.8303 75 25.0004C74.9984 27.2093 63.8062 29.0004 50 29.0004C36.1938 29.0004 25.0016 27.2093 25 25.0004C25 24.8305 25.0667 24.6629 25.1953 24.4985C26.7679 20.5298 37.6709 -5.23642 50 10.1489Z"/>
</mask>
<path d="M50 10.1489C62.3287 -5.23597 73.2306 20.5287 74.8037 24.4985C74.9326 24.663 75 24.8303 75 25.0004C74.9984 27.2093 63.8062 29.0004 50 29.0004C36.1938 29.0004 25.0016 27.2093 25 25.0004C25 24.8305 25.0667 24.6629 25.1953 24.4985C26.7679 20.5298 37.6709 -5.23642 50 10.1489Z" fill="#873600"/>
<path d="M50 10.1489L46.8786 12.6502C47.6377 13.5975 48.786 14.1489 50 14.1489C51.214 14.1489 52.3623 13.5976 53.1214 12.6502L50 10.1489ZM74.8037 24.4985L71.085 25.9721C71.2263 26.3285 71.418 26.6628 71.6544 26.9646L74.8037 24.4985ZM75 25.0004L79 25.0033V25.0004H75ZM25 25.0004H21L21 25.0033L25 25.0004ZM25.1953 24.4985L28.3458 26.9631C28.5816 26.6616 28.773 26.3279 28.914 25.972L25.1953 24.4985ZM50 10.1489L53.1214 12.6502C55.6837 9.45275 57.4532 9.20933 58.4067 9.317C59.7131 9.46453 61.4402 10.4702 63.4474 12.7252C67.4006 17.1665 70.3076 24.0101 71.085 25.9721L74.8037 24.4985L78.5224 23.0249C77.7267 21.017 74.3963 12.9935 69.4231 7.40622C66.967 4.64691 63.5587 1.84794 59.3044 1.36753C54.6972 0.847252 50.4806 3.15256 46.8786 7.6475L50 10.1489ZM74.8037 24.4985L71.6544 26.9646C71.3918 26.6292 71 25.9528 71 25.0004H75H79C79 23.7078 78.4733 22.6968 77.953 22.0323L74.8037 24.4985ZM75 25.0004L71 24.9976C71.0011 23.457 71.9748 22.6968 72.0284 22.6549C72.1526 22.5578 72.0874 22.639 71.6195 22.816C70.7272 23.1535 69.2051 23.5333 67.0447 23.879C62.7872 24.5603 56.7589 25.0004 50 25.0004V29.0004V33.0004C57.0472 33.0004 63.5182 32.5451 68.3087 31.7785C70.6723 31.4003 72.8116 30.9182 74.4497 30.2986C75.247 29.9971 76.1643 29.5759 76.9548 28.9581C77.6747 28.3954 78.9985 27.0961 79 25.0033L75 25.0004ZM50 29.0004V25.0004C43.2411 25.0004 37.2128 24.5603 32.9553 23.879C30.7949 23.5333 29.2728 23.1535 28.3805 22.816C27.9126 22.639 27.8474 22.5578 27.9716 22.6549C28.0252 22.6968 28.9989 23.457 29 24.9976L25 25.0004L21 25.0033C21.0015 27.0961 22.3253 28.3954 23.0452 28.9581C23.8357 29.5759 24.753 29.9971 25.5503 30.2986C27.1884 30.9182 29.3277 31.4003 31.6913 31.7785C36.4818 32.5451 42.9528 33.0004 50 33.0004V29.0004ZM25 25.0004H29C29 25.9417 28.6164 26.6173 28.3458 26.9631L25.1953 24.4985L22.0448 22.0338C21.5171 22.7085 21 23.7192 21 25.0004H25ZM25.1953 24.4985L28.914 25.972C29.6912 24.0108 32.5983 17.167 36.5518 12.7254C38.5591 10.4704 40.2864 9.46453 41.593 9.31696C42.5467 9.20925 44.3162 9.45269 46.8786 12.6502L50 10.1489L53.1214 7.6475C49.5192 3.15239 45.3025 0.847127 40.6952 1.3675C36.4408 1.848 33.0323 4.64704 30.5762 7.40644C25.6027 12.9939 22.2721 21.0175 21.4766 23.0249L25.1953 24.4985Z" fill="#3D120E" mask="url(#path-8-outside-1_8_608)"/>
<path d="M72 26C69 26.9375 65 29.125 64 31" stroke="#376F41" stroke-width="4" stroke-linecap="round" stroke-linejoin="round"/>
<circle cx="71.9999" cy="26" r="3" transform="rotate(-8.93143 71.9999 26)" fill="#54C055"/>
<circle cx="68.5707" cy="23.5021" r="3" transform="rotate(-8.93143 68.5707 23.5021)" fill="#54C055"/>
<circle cx="74.498" cy="22.5706" r="3" transform="rotate(-8.93143 74.498 22.5706)" fill="#54C055"/>
<circle cx="75.4294" cy="28.4979" r="3" transform="rotate(-8.93143 75.4294 28.4979)" fill="#54C055"/>
<circle cx="69.5021" cy="29.4294" r="3" transform="rotate(-8.93143 69.5021 29.4294)" fill="#54C055"/>
</svg>
