<svg width="100" height="100" viewBox="0 0 100 100" fill="none" xmlns="http://www.w3.org/2000/svg">
<circle cx="50" cy="50" r="42" fill="#FFBA34"/>
<path d="M60 70C56.6667 58 43.3333 58 40 70" stroke="#572217" stroke-width="4" stroke-linecap="round"/>
<path d="M47 42C47 49.1797 41.1797 55 34 55C26.8203 55 21 49.1797 21 42C21 34.8203 26.8203 29 34 29C41.1797 29 47 34.8203 47 42Z" fill="white"/>
<path d="M79 42C79 49.1797 73.1797 55 66 55C58.8203 55 53 49.1797 53 42C53 34.8203 58.8203 29 66 29C73.1797 29 79 34.8203 79 42Z" fill="white"/>
<circle cx="37" cy="42" r="8" fill="#572217"/>
<circle cx="63" cy="42" r="8" fill="#572217"/>
<path d="M71 54C71 54 78 66.537 78 70.6154C78 74.6938 74.866 78 71 78C67.134 78 64 74.6938 64 70.6154C64 66.537 71 54 71 54Z" fill="#00A3FF"/>
</svg>
