<svg width="100" height="100" viewBox="0 0 100 100" fill="none" xmlns="http://www.w3.org/2000/svg">
<circle cx="50" cy="50" r="42" fill="#FFBA34"/>
<path d="M38 32C44.0751 32 49 36.9249 49 43C49 49.0751 44.0751 54 38 54C31.9249 54 27 49.0751 27 43C27 36.9249 31.9249 32 38 32Z" fill="#00A3FF" stroke="#331B5B" stroke-width="4"/>
<path d="M62 32C55.9249 32 51 36.9249 51 43C51 49.0751 55.9249 54 62 54C68.0751 54 73 49.0751 73 43C73 36.9249 68.0751 32 62 32Z" fill="#00A3FF" stroke="#331B5B" stroke-width="4"/>
<path d="M24 27C24 27 27 25 33 25C39 25 42 27 42 27" stroke="#572217" stroke-width="4" stroke-linecap="round" stroke-linejoin="round"/>
<path d="M76 27C76 27 73 25 67 25C61 25 58 27 58 27" stroke="#572217" stroke-width="4" stroke-linecap="round" stroke-linejoin="round"/>
<path d="M18.7377 73C30.8885 71.6331 38.5835 68.4893 50 62C36.3033 60.2896 28.7874 57.9424 18.7377 52C19.5128 54.9226 21.5 57.5 24.0785 59C20.6126 60.9875 18.6173 61.542 15 62C17.5 65 20.244 66.3874 24.0785 67C23 69.5 21.6721 71.0644 18.7377 73Z" fill="#572217" stroke="#572217" stroke-width="4" stroke-linecap="round" stroke-linejoin="round"/>
<path d="M81.2623 73C69.1115 71.6331 61.4165 68.4893 50 62C63.6967 60.2896 71.2126 57.9424 81.2623 52C80.4872 54.9226 78.5 57.5 75.9215 59C79.3874 60.9875 81.3827 61.542 85 62C82.5 65 79.756 66.3874 75.9215 67C77 69.5 78.3279 71.0644 81.2623 73Z" fill="#572217" stroke="#572217" stroke-width="4" stroke-linecap="round" stroke-linejoin="round"/>
<rect x="39.2932" y="32.2393" width="8" height="20" transform="rotate(30 39.2932 32.2393)" fill="white"/>
<rect x="63.4353" y="32.2393" width="8" height="20" transform="rotate(30 63.4353 32.2393)" fill="white"/>
<path d="M38 32C44.0751 32 49 36.9249 49 43C49 49.0751 44.0751 54 38 54C31.9249 54 27 49.0751 27 43C27 36.9249 31.9249 32 38 32Z" stroke="#331B5B" stroke-width="4"/>
<path d="M62 32C55.9249 32 51 36.9249 51 43C51 49.0751 55.9249 54 62 54C68.0751 54 73 49.0751 73 43C73 36.9249 68.0751 32 62 32Z" stroke="#331B5B" stroke-width="4"/>
<ellipse cx="50" cy="58" rx="9" ry="7" fill="#E40037"/>
</svg>
