<svg width="100" height="100" viewBox="0 0 100 100" fill="none" xmlns="http://www.w3.org/2000/svg">
<circle cx="50" cy="50" r="42" fill="#FFBA34"/>
<path d="M38 32C44.0751 32 49 36.9249 49 43C49 49.0751 44.0751 54 38 54C31.9249 54 27 49.0751 27 43C27 36.9249 31.9249 32 38 32Z" fill="#00A3FF" stroke="#331B5B" stroke-width="4"/>
<path d="M62 32C55.9249 32 51 36.9249 51 43C51 49.0751 55.9249 54 62 54C68.0751 54 73 49.0751 73 43C73 36.9249 68.0751 32 62 32Z" fill="#00A3FF" stroke="#331B5B" stroke-width="4"/>
<path d="M24 27C24 27 27 25 33 25C39 25 42 27 42 27" stroke="#471C13" stroke-width="4" stroke-linecap="round" stroke-linejoin="round"/>
<path d="M76 27C76 27 73 25 67 25C61 25 58 27 58 27" stroke="#471C13" stroke-width="4" stroke-linecap="round" stroke-linejoin="round"/>
<rect x="39.2932" y="32.2393" width="8" height="20" transform="rotate(30 39.2932 32.2393)" fill="white"/>
<rect x="63.4353" y="32.2393" width="8" height="20" transform="rotate(30 63.4353 32.2393)" fill="white"/>
<path d="M38 32C44.0751 32 49 36.9249 49 43C49 49.0751 44.0751 54 38 54C31.9249 54 27 49.0751 27 43C27 36.9249 31.9249 32 38 32Z" stroke="#331B5B" stroke-width="4"/>
<path d="M62 32C55.9249 32 51 36.9249 51 43C51 49.0751 55.9249 54 62 54C68.0751 54 73 49.0751 73 43C73 36.9249 68.0751 32 62 32Z" stroke="#331B5B" stroke-width="4"/>
<path d="M18.7377 51C30.8885 52.3669 38.5835 55.5107 50 62C36.3033 63.7104 28.7874 66.0576 18.7377 72C19.5128 69.0774 21.5 66.5 24.0785 65C20.6126 63.0125 18.6173 62.458 15 62C17.5 59 20.244 57.6126 24.0785 57C23 54.5 21.6721 52.9356 18.7377 51Z" fill="#471C13" stroke="#471C13" stroke-width="4" stroke-linecap="round" stroke-linejoin="round"/>
<path d="M81.2623 51C69.1115 52.3669 61.4165 55.5107 50 62C63.6967 63.7104 71.2126 66.0576 81.2623 72C80.4872 69.0774 78.5 66.5 75.9215 65C79.3874 63.0125 81.3827 62.458 85 62C82.5 59 79.756 57.6126 75.9215 57C77 54.5 78.3279 52.9356 81.2623 51Z" fill="#471C13" stroke="#471C13" stroke-width="4" stroke-linecap="round" stroke-linejoin="round"/>
<ellipse cx="50" cy="55" rx="9" ry="7" fill="#E00043"/>
</svg>
