<svg width="100" height="100" viewBox="0 0 100 100" fill="none" xmlns="http://www.w3.org/2000/svg">
<circle cx="50" cy="50" r="42" fill="#FFBA34"/>
<path d="M62 61.3571C62 52.9564 59.5 50 50 50C40.5 50 38 52.9564 38 61.3571C38 69.7579 44 85 50 85C56 85 62 69.7579 62 61.3571Z" fill="#E60045"/>
<ellipse cx="33" cy="34" rx="15" ry="17" fill="white"/>
<ellipse cx="15" cy="17" rx="15" ry="17" transform="matrix(-1 0 0 1 82 17)" fill="white"/>
<circle cx="37" cy="34" r="9" fill="#471C13"/>
<circle cx="33" cy="30" r="4" fill="white"/>
<circle cx="42" cy="39" r="3" fill="white"/>
<circle cx="63" cy="34" r="9" fill="#471C13"/>
<circle cx="59" cy="30" r="4" fill="white"/>
<circle cx="68" cy="39" r="3" fill="white"/>
</svg>
