<svg width="100" height="100" viewBox="0 0 100 100" fill="none" xmlns="http://www.w3.org/2000/svg">
<circle cx="50" cy="50" r="42" fill="url(#paint0_linear_8_622)"/>
<path d="M66.5 69.7679C66.5 82.3422 60.3125 84.5 50 84.5C39.6875 84.5 33.5 82.3422 33.5 69.7679C33.5 57.1935 41.75 47 50 47C58.25 47 66.5 57.1935 66.5 69.7679Z" fill="#E60045"/>
<ellipse cx="35" cy="33.5" rx="13.5" ry="16.5" fill="white"/>
<ellipse cx="13.5" cy="16.5" rx="13.5" ry="16.5" transform="matrix(-1 0 0 1 78.5 17)" fill="white"/>
<ellipse cx="41.75" cy="33.5" rx="3.75" ry="4.5" fill="#471C13"/>
<ellipse cx="3.75" cy="4.5" rx="3.75" ry="4.5" transform="matrix(-1 0 0 1 62 29)" fill="#471C13"/>
<defs>
<linearGradient id="paint0_linear_8_622" x1="50" y1="8" x2="50" y2="92" gradientUnits="userSpaceOnUse">
<stop stop-color="#348CFF"/>
<stop offset="0.25449" stop-color="#93ADB2"/>
<stop offset="0.654245" stop-color="#FFBA34"/>
</linearGradient>
</defs>
</svg>
