<svg width="100" height="100" viewBox="0 0 100 100" fill="none" xmlns="http://www.w3.org/2000/svg">
<path d="M67.7225 51.8667C72.5076 35.0667 60.0662 13.6 41.8827 8C48.5819 34.1333 33.7835 36 33.7835 59.3333C26.1273 55.6 23.8086 47.0541 26.1273 36C9.70302 45.8697 13.5751 92 53.1869 92C87.967 92 86.4206 46.2667 77.8074 39.7333C76.8504 46.2667 75.3787 51.8667 67.7225 51.8667Z" fill="#FD7914"/>
<path d="M42.0502 67.2807C38.8094 59.2166 37.7292 43.0882 56.0934 32C52.3696 44.1045 59.3345 54.1765 66.1483 64.2567C72.9621 74.3369 70.1369 89.4572 50.6924 90.4652C31.2479 91.4733 25.8466 70.3048 34.4886 60.2246C34.8486 62.2406 36.865 66.4743 42.0502 67.2807Z" fill="#FFD437"/>
<path d="M50.9951 87.4904C64.0092 87.022 59.092 70.1114 50.8072 65C52.05 69.5857 48.2747 72.7884 44.5711 76.0033C40.8676 79.2181 41.6285 87.8275 50.9951 87.4904Z" fill="white"/>
</svg>
