<svg width="100" height="100" viewBox="0 0 100 100" fill="none" xmlns="http://www.w3.org/2000/svg">
<g clip-path="url(#clip0_251_1651)">
<mask id="mask0_251_1651" style="mask-type:alpha" maskUnits="userSpaceOnUse" x="18" y="12" width="70" height="47">
<path d="M18 12H81.6C83.8402 12 84.9603 12 85.816 12.436C86.5686 12.8195 87.1805 13.4314 87.564 14.184C88 15.0397 88 16.1598 88 18.4V52.6C88 54.8402 88 55.9603 87.564 56.816C87.1805 57.5686 86.5686 58.1805 85.816 58.564C84.9603 59 83.8402 59 81.6 59H18V12Z" fill="#D9D9D9"/>
</mask>
<g mask="url(#mask0_251_1651)">
<path d="M18 12H88V59H18V12Z" fill="#4C2B8C"/>
<path d="M88 12H18L53 47.25L88 12Z" fill="#FFCD00"/>
<path d="M88 59H18L53 23.75L88 59Z" fill="#FFCD00"/>
<path d="M29.6666 35.5L53 12L76.3333 35.5L53 59L29.6666 35.5Z" fill="#FFCD00"/>
<ellipse cx="53" cy="35.5" rx="5.83333" ry="5.875" fill="#4C2B8C"/>
<path d="M57.667 24.2188L62.0996 19.7549L68.6992 26.4014L64.332 30.7998H70.5V40.2002H64.2002L68.6338 44.665L62.0332 51.3115L57.667 46.9141V53.125H48.333V46.9131L43.9512 51.3271L37.3516 44.6807L41.7998 40.2002H35.5V30.7998H41.667L37.2852 26.3867L43.8848 19.7393L48.333 24.2188V17.875H57.667V24.2188ZM53 29.625C49.7783 29.625 47.167 32.2553 47.167 35.5C47.167 38.7447 49.7783 41.375 53 41.375C56.2217 41.375 58.833 38.7447 58.833 35.5C58.833 32.2553 56.2216 29.625 53 29.625Z" fill="#D424C5"/>
</g>
</g>
<rect x="12" y="8" width="6" height="84" rx="3" fill="#8C5440"/>
<defs>
<clipPath id="clip0_251_1651">
<rect width="70" height="47" fill="white" transform="translate(18 12)"/>
</clipPath>
</defs>
</svg>
