<svg width="100" height="100" viewBox="0 0 100 100" fill="none" xmlns="http://www.w3.org/2000/svg">
<g clip-path="url(#clip0_180_1214)">
<g clip-path="url(#clip1_180_1214)">
<rect width="84" height="56" transform="translate(8 22)" fill="#229E46"/>
<path d="M92 13.6001H8L50 55.6001L92 13.6001Z" fill="#CC0033"/>
<path d="M92 86.3999H8L50 44.3999L92 86.3999Z" fill="#CC0033"/>
<path d="M20.3201 49.9999L50.0001 20.3199L79.6801 49.9999L50.0001 79.6799L20.3201 49.9999Z" fill="#FFCD00"/>
<path d="M49.999 42.1594L79.3047 12.8557L87.2236 20.7756L57.9189 50.0793L97.6592 89.8196L89.7393 97.7385L50 57.9993L20.7568 87.2424L12.8369 79.3225L42.0801 50.0793L2.24316 10.2424L10.1621 2.32251L49.999 42.1594Z" fill="#FFCD00"/>
<path d="M55.5996 36.5605L60.9199 31.2402L68.8398 39.1592L63.5986 44.4004H71V55.5996H63.4395L68.7598 60.9199L60.8408 68.8398L55.5996 63.5986V71H44.4004V63.5986L39.1406 68.8584L31.2217 60.9385L36.5605 55.5996H29V44.4004H36.4014L31.1416 39.1406L39.0615 31.2217L44.4004 36.5605V29H55.5996V36.5605Z" fill="#013797"/>
<path d="M50.0001 37.1201L52.8919 46.02H62.2497L54.6791 51.5204L57.5708 60.4203L50.0001 54.9198L42.4294 60.4203L45.3212 51.5204L37.7505 46.02H47.1084L50.0001 37.1201Z" fill="white"/>
</g>
</g>
<defs>
<clipPath id="clip0_180_1214">
<rect x="8" y="22" width="84" height="56" rx="4" fill="white"/>
</clipPath>
<clipPath id="clip1_180_1214">
<rect width="84" height="56" fill="white" transform="translate(8 22)"/>
</clipPath>
</defs>
</svg>
