<svg width="100" height="100" viewBox="0 0 100 100" fill="none" xmlns="http://www.w3.org/2000/svg">
<path d="M18 12C18 12 27 9 35.5 9C44 9 53 12 53 12C53 12 62 15 70.5 15C73.5432 15 76.6505 14.6155 79.3859 14.1217C82.6932 13.5248 84.3468 13.2263 85.3574 13.5909C86.3184 13.9376 86.9498 14.4652 87.4617 15.3493C88 16.2791 88 17.8126 88 20.8795V49.3871C88 51.0117 88 51.824 87.6846 52.5705C87.4239 53.1874 86.9202 53.8281 86.3822 54.2269C85.7312 54.7095 85.007 54.8853 83.5586 55.237C80.1543 56.0635 75.2491 57 70.5 57C62 57 53 54 53 54C53 54 44 51 35.5 51C27 51 18 54 18 54V12Z" fill="#190E30"/>
<rect x="12" y="8" width="6" height="84" rx="3" fill="#8C5440"/>
</svg>
