<svg width="100" height="100" viewBox="0 0 100 100" fill="none" xmlns="http://www.w3.org/2000/svg">
<g clip-path="url(#clip0_180_1214)">
<g clip-path="url(#clip1_180_1214)">
<rect width="84" height="56" transform="translate(8 22)" fill="#229E46"/>
<path d="M92 13.6H8L50 55.6L92 13.6Z" fill="#CC0033"/>
<path d="M92 86.4H8L50 44.4L92 86.4Z" fill="#CC0033"/>
<path d="M20.3201 50.0001L50.0001 20.32L79.6801 50.0001L50.0001 79.6801L20.3201 50.0001Z" fill="#FFCD00"/>
<path d="M49.999 42.1593L79.3047 12.8556L87.2236 20.7755L57.9189 50.0792L97.6592 89.8195L89.7393 97.7384L50 57.9991L20.7568 87.2423L12.8369 79.3224L42.0801 50.0792L2.24316 10.2423L10.1621 2.32239L49.999 42.1593Z" fill="#FFCD00"/>
<path d="M55.5996 36.5605L60.9199 31.2402L68.8398 39.1592L63.5986 44.4004H71V55.5996H63.4395L68.7598 60.9199L60.8408 68.8398L55.5996 63.5986V71H44.4004V63.5986L39.1406 68.8584L31.2217 60.9385L36.5605 55.5996H29V44.4004H36.4014L31.1416 39.1406L39.0615 31.2217L44.4004 36.5605V29H55.5996V36.5605Z" fill="#013797"/>
<path d="M50.0001 37.12L52.8919 46.0199H62.2497L54.6791 51.5203L57.5708 60.4201L50.0001 54.9197L42.4294 60.4201L45.3212 51.5203L37.7505 46.0199H47.1084L50.0001 37.12Z" fill="white"/>
</g>
</g>
<defs>
<clipPath id="clip0_180_1214">
<rect x="8" y="22" width="84" height="56" rx="4" fill="white"/>
</clipPath>
<clipPath id="clip1_180_1214">
<rect width="84" height="56" fill="white" transform="translate(8 22)"/>
</clipPath>
</defs>
</svg>
