<svg width="100" height="100" viewBox="0 0 100 100" fill="none" xmlns="http://www.w3.org/2000/svg">
<path d="M18 12C18 12 28.6213 9 35.5 9C42.3787 9 53 12 53 12C53 12 63.6213 15 70.5 15C74.2888 15 79.2131 14.0898 82.8725 13.2722C85.4612 12.6937 88 14.6338 88 17.2863V50.9733C88 52.7637 86.8137 54.3335 85.0743 54.7576C81.4299 55.6464 75.1206 57 70.5 57C63.6213 57 53 54 53 54C53 54 42.3787 51 35.5 51C28.6213 51 18 54 18 54V12Z" fill="#121124"/>
<path d="M41 37L65 47" stroke="white" stroke-width="4" stroke-linejoin="round"/>
<path d="M65 37L41 47" stroke="white" stroke-width="4" stroke-linejoin="round"/>
<circle cx="53" cy="26" r="11" fill="white"/>
<circle cx="48" cy="27" r="3" fill="#121124"/>
<circle cx="58" cy="27" r="3" fill="#121124"/>
<path d="M51.5689 28.8622L51.1578 29.6845C50.7744 30.4512 50.5827 30.8345 50.6288 31.1462C50.669 31.4183 50.8195 31.6618 51.0449 31.8195C51.303 32 51.7316 32 52.5889 32H53.4111C54.2684 32 54.697 32 54.9551 31.8195C55.1805 31.6618 55.331 31.4183 55.3712 31.1462C55.4173 30.8345 55.2256 30.4512 54.8422 29.6845L54.4311 28.8622L54.4311 28.8622C53.9705 27.941 53.7402 27.4803 53.4285 27.3325C53.1573 27.2039 52.8427 27.2039 52.5715 27.3325C52.2598 27.4803 52.0295 27.941 51.5689 28.8622Z" fill="#121124"/>
<rect x="12" y="8" width="6" height="84" rx="3" fill="#8C5440"/>
<circle cx="42.5" cy="35.5" r="2.5" fill="white"/>
<circle cx="2.5" cy="2.5" r="2.5" transform="matrix(1 0 0 -1 40 51)" fill="white"/>
<circle cx="2.5" cy="2.5" r="2.5" transform="matrix(-1 0 0 1 66 33)" fill="white"/>
<circle cx="63.5" cy="48.5" r="2.5" transform="rotate(180 63.5 48.5)" fill="white"/>
<circle cx="41.5" cy="38.5" r="2.5" fill="white"/>
<circle cx="2.5" cy="2.5" r="2.5" transform="matrix(1 0 0 -1 39 48)" fill="white"/>
<circle cx="2.5" cy="2.5" r="2.5" transform="matrix(-1 0 0 1 67 36)" fill="white"/>
<circle cx="64.5" cy="45.5" r="2.5" transform="rotate(180 64.5 45.5)" fill="white"/>
</svg>
