<svg width="100" height="100" viewBox="0 0 100 100" fill="none" xmlns="http://www.w3.org/2000/svg">
<rect x="12" y="8" width="6" height="84" rx="3" fill="#8C5440"/>
<mask id="mask0_251_1606" style="mask-type:alpha" maskUnits="userSpaceOnUse" x="18" y="9" width="70" height="48">
<path d="M18 12C18 12 27 9 35.5 9C44 9 53 12 53 12C53 12 62 15 70.5 15C73.5432 15 76.6505 14.6155 79.3859 14.1217C82.6932 13.5248 84.3468 13.2263 85.3574 13.5909C86.3184 13.9376 86.9498 14.4652 87.4617 15.3493C88 16.2791 88 17.8126 88 20.8795V49.3871C88 51.0117 88 51.824 87.6846 52.5705C87.4239 53.1874 86.9202 53.8281 86.3822 54.2269C85.7312 54.7095 85.007 54.8853 83.5586 55.237C80.1543 56.0635 75.2491 57 70.5 57C62 57 53 54 53 54C53 54 44 51 35.5 51C27 51 18 54 18 54V12Z" fill="#DFE9ED"/>
</mask>
<g mask="url(#mask0_251_1606)">
<rect width="100" height="100" fill="#7CC0EA"/>
<path d="M18 20C18 20 27 17 35.5 17C44 17 53 20 53 20C53 20 62 23 70.5 23C79 23 88 20 88 20V29C88 29 79 32 70.5 32C62 32 53 29 53 29C53 29 44 26 35.5 26C27 26 18 29 18 29V20Z" fill="#F498C0"/>
<path d="M18 36C18 36 27 33 35.5 33C44 33 53 36 53 36C53 36 62 39 70.5 39C79 39 88 36 88 36V45C88 45 79 48 70.5 48C62 48 53 45 53 45C53 45 44 42 35.5 42C27 42 18 45 18 45V36Z" fill="#F498C0"/>
<path d="M18 28C18 28 27 25 35.5 25C44 25 53 28 53 28C53 28 62 31 70.5 31C79 31 88 28 88 28V37C88 37 79 40 70.5 40C62 40 53 37 53 37C53 37 44 34 35.5 34C27 34 18 37 18 37V28Z" fill="white"/>
</g>
</svg>
