<svg width="100" height="100" viewBox="0 0 100 100" fill="none" xmlns="http://www.w3.org/2000/svg">
<g clip-path="url(#clip0_251_1634)">
<mask id="mask0_251_1634" style="mask-type:alpha" maskUnits="userSpaceOnUse" x="18" y="12" width="70" height="47">
<path d="M18 12H81.6C83.8402 12 84.9603 12 85.816 12.436C86.5686 12.8195 87.1805 13.4314 87.564 14.184C88 15.0397 88 16.1598 88 18.4V52.6C88 54.8402 88 55.9603 87.564 56.816C87.1805 57.5686 86.5686 58.1805 85.816 58.564C84.9603 59 83.8402 59 81.6 59H18V12Z" fill="#D9D9D9"/>
</mask>
<g mask="url(#mask0_251_1634)">
<path d="M18 12H88V59H18V12Z" fill="#229E46"/>
<path d="M88 4.94995H18L53 40.2L88 4.94995Z" fill="#CC0033"/>
<path d="M88 66.05H18L53 30.8L88 66.05Z" fill="#CC0033"/>
<path d="M28.2667 35.4999L53.0001 10.5899L77.7334 35.4999L53.0001 60.4099L28.2667 35.4999Z" fill="#FFCD00"/>
<path d="M52.999 28.9202L77.4199 4.32544L84.0195 10.9719L59.5986 35.5667L92.7158 68.9202L86.1162 75.5667L52.999 42.2131L28.6309 66.7571L22.0312 60.1106L46.3994 35.5667L13.2021 2.13208L19.8018 -4.51538L52.999 28.9202Z" fill="#FFCD00"/>
<path d="M57.667 24.2188L62.0996 19.7549L68.6992 26.4014L64.332 30.7998H70.5V40.2002H64.2002L68.6338 44.665L62.0332 51.3115L57.667 46.9141V53.125H48.333V46.9131L43.9512 51.3271L37.3516 44.6807L41.7998 40.2002H35.5V30.7998H41.667L37.2852 26.3867L43.8848 19.7393L48.333 24.2188V17.875H57.667V24.2188Z" fill="#013797"/>
<path d="M53.0001 24.6899L55.4098 32.1595H63.2081L56.8992 36.7759L59.309 44.2454L53.0001 39.629L46.6912 44.2454L49.1009 36.7759L42.7921 32.1595H50.5903L53.0001 24.6899Z" fill="white"/>
</g>
</g>
<rect x="12" y="8" width="6" height="84" rx="3" fill="#8C5440"/>
<defs>
<clipPath id="clip0_251_1634">
<rect width="70" height="47" fill="white" transform="translate(18 12)"/>
</clipPath>
</defs>
</svg>
