<svg width="100" height="100" viewBox="0 0 100 100" fill="none" xmlns="http://www.w3.org/2000/svg">
<rect x="12" y="8" width="6" height="84" rx="3" fill="#8C5440"/>
<mask id="mask0_251_1593" style="mask-type:alpha" maskUnits="userSpaceOnUse" x="18" y="9" width="70" height="48">
<path d="M18 12C18 12 27 9 35.5 9C44 9 53 12 53 12C53 12 62 15 70.5 15C73.5432 15 76.6505 14.6155 79.3859 14.1217C82.6932 13.5248 84.3468 13.2263 85.3574 13.5909C86.3184 13.9376 86.9498 14.4652 87.4617 15.3493C88 16.2791 88 17.8126 88 20.8795V49.3871C88 51.0117 88 51.824 87.6846 52.5705C87.4239 53.1874 86.9202 53.8281 86.3822 54.2269C85.7312 54.7095 85.007 54.8853 83.5586 55.237C80.1543 56.0635 75.2491 57 70.5 57C62 57 53 54 53 54C53 54 44 51 35.5 51C27 51 18 54 18 54V12Z" fill="#DFE9ED"/>
</mask>
<g mask="url(#mask0_251_1593)">
<rect width="100" height="100" fill="#F20D44"/>
<path d="M18 19C18 19 27 16 35.5 16C44 16 53 19 53 19C53 19 62 22 70.5 22C79 22 88 19 88 19V26C88 26 79 29 70.5 29C62 29 53 26 53 26C53 26 44 23 35.5 23C27 23 18 26 18 26V19Z" fill="#FD7914"/>
<path d="M18 26C18 26 27 23 35.5 23C44 23 53 26 53 26C53 26 62 29 70.5 29C79 29 88 26 88 26V33C88 33 79 36 70.5 36C62 36 53 33 53 33C53 33 44 30 35.5 30C27 30 18 33 18 33V26Z" fill="#FFD119"/>
<path d="M18 33C18 33 27 30 35.5 30C44 30 53 33 53 33C53 33 62 36 70.5 36C79 36 88 33 88 33V40C88 40 79 43 70.5 43C62 43 53 40 53 40C53 40 44 37 35.5 37C27 37 18 40 18 40V33Z" fill="#54C055"/>
<path d="M18 40C18 40 27 37 35.5 37C44 37 53 40 53 40C53 40 62 43 70.5 43C79 43 88 40 88 40V47C88 47 79 50 70.5 50C62 50 53 47 53 47C53 47 44 44 35.5 44C27 44 18 47 18 47V40Z" fill="#0D5DFD"/>
<path d="M18 47C18 47 27 44 35.5 44C44 44 53 47 53 47C53 47 62 50 70.5 50C79 50 88 47 88 47V54C88 54 79 57 70.5 57C62 57 53 54 53 54C53 54 44 51 35.5 51C27 51 18 54 18 54V47Z" fill="#C100F1"/>
</g>
</svg>
