<svg width="100" height="100" viewBox="0 0 100 100" fill="none" xmlns="http://www.w3.org/2000/svg">
<path d="M18 12C18 12 27 9 35.5 9C44 9 53 12 53 12C53 12 62 15 70.5 15C73.5432 15 76.6505 14.6155 79.3859 14.1217C82.6932 13.5248 84.3468 13.2263 85.3574 13.5909C86.3184 13.9376 86.9498 14.4652 87.4617 15.3493C88 16.2791 88 17.8126 88 20.8795V49.3871C88 51.0117 88 51.824 87.6846 52.5705C87.4239 53.1874 86.9202 53.8281 86.3822 54.2269C85.7312 54.7095 85.007 54.8853 83.5586 55.237C80.1543 56.0635 75.2491 57 70.5 57C62 57 53 54 53 54C53 54 44 51 35.5 51C27 51 18 54 18 54V12Z" fill="#190E30"/>
<rect x="12" y="8" width="6" height="84" rx="3" fill="#8C5440"/>
<path d="M41 37L65 47" stroke="white" stroke-width="4" stroke-linejoin="round"/>
<path d="M65 37L41 47" stroke="white" stroke-width="4" stroke-linejoin="round"/>
<circle cx="53" cy="26" r="11" fill="white"/>
<circle cx="48" cy="27" r="3" fill="#190E30"/>
<circle cx="58" cy="27" r="3" fill="#190E30"/>
<path d="M51.5689 28.8622L51.1578 29.6845C50.7744 30.4512 50.5827 30.8345 50.6288 31.1462C50.669 31.4183 50.8195 31.6618 51.0449 31.8195C51.303 32 51.7316 32 52.5889 32H53.4111C54.2684 32 54.697 32 54.9551 31.8195C55.1805 31.6618 55.331 31.4183 55.3712 31.1462C55.4173 30.8345 55.2256 30.4512 54.8422 29.6845L54.4311 28.8622L54.4311 28.8622C53.9705 27.941 53.7402 27.4803 53.4285 27.3325C53.1573 27.2039 52.8427 27.2039 52.5715 27.3325C52.2598 27.4803 52.0295 27.941 51.5689 28.8622Z" fill="#190E30"/>
<circle cx="42.5" cy="35.5" r="2.5" fill="white"/>
<circle cx="2.5" cy="2.5" r="2.5" transform="matrix(1 0 0 -1 40 51)" fill="white"/>
<circle cx="2.5" cy="2.5" r="2.5" transform="matrix(-1 0 0 1 66 33)" fill="white"/>
<circle cx="63.5" cy="48.5" r="2.5" transform="rotate(180 63.5 48.5)" fill="white"/>
<circle cx="41.5" cy="38.5" r="2.5" fill="white"/>
<circle cx="2.5" cy="2.5" r="2.5" transform="matrix(1 0 0 -1 39 48)" fill="white"/>
<circle cx="2.5" cy="2.5" r="2.5" transform="matrix(-1 0 0 1 67 36)" fill="white"/>
<circle cx="64.5" cy="45.5" r="2.5" transform="rotate(180 64.5 45.5)" fill="white"/>
</svg>
