<svg width="100" height="100" viewBox="0 0 100 100" fill="none" xmlns="http://www.w3.org/2000/svg">
<path d="M18 12C18 12 28.6213 9 35.5 9C42.3787 9 53 12 53 12C53 12 63.6213 15 70.5 15C74.2888 15 79.2131 14.0898 82.8725 13.2722C85.4612 12.6937 88 14.6338 88 17.2863V50.9733C88 52.7637 86.8137 54.3335 85.0743 54.7576C81.4299 55.6464 75.1206 57 70.5 57C63.6213 57 53 54 53 54C53 54 42.3787 51 35.5 51C28.6213 51 18 54 18 54V12Z" fill="#DFE9ED"/>
<rect x="12" y="8" width="6" height="84" rx="3" fill="#8C5440"/>
</svg>
