<svg width="100" height="100" viewBox="0 0 100 100" fill="none" xmlns="http://www.w3.org/2000/svg">
<circle cx="50" cy="50" r="42" fill="#FFBA34"/>
<path d="M21.7732 63.2794C23.4954 67.9657 26.8122 73.4726 32.6211 77.2953C34.0538 75.7897 41.9568 74.8771 50 74.7668C58.0432 74.8771 65.9462 75.7897 67.3789 77.2953C73.1878 73.4726 76.5046 67.9657 78.2268 63.2794C78.8395 61.6121 79.1459 60.7784 78.9321 59.9487C78.7312 59.1691 78.1051 58.4417 77.3742 58.139C76.5964 57.8169 75.4839 58.0859 73.2588 58.6238C70.4996 63.964 60.17 67.0394 50 67.2178C39.83 67.0394 29.5004 63.964 26.7412 58.6238C24.5161 58.0859 23.4036 57.8169 22.6258 58.139C21.8949 58.4417 21.2688 59.1691 21.0679 59.9487C20.8541 60.7784 21.1605 61.6121 21.7732 63.2794Z" fill="#E40037"/>
<path d="M50 60.9827C41.6066 60.9823 33.2017 60.1857 26.7412 58.6238C29.5004 63.964 39.83 67.0394 50 67.2178C60.17 67.0394 70.4996 63.964 73.2588 58.6238C66.7983 60.1857 58.3934 60.9823 50 60.9827Z" fill="white"/>
<path d="M32.6211 77.2953C36.9246 80.1273 42.596 82.0349 50 81.9995C57.404 82.0349 63.0754 80.1273 67.3789 77.2953C65.9462 75.7897 58.0432 74.8771 50 74.7668C41.9568 74.8771 34.0538 75.7897 32.6211 77.2953Z" fill="#E40037"/>
<ellipse cx="34" cy="38" rx="13" ry="16" fill="white"/>
<ellipse cx="13" cy="16" rx="13" ry="16" transform="matrix(-1 0 0 1 79 22)" fill="white"/>
<circle cx="37.5" cy="37.5" r="8.5" fill="#572217"/>
<circle cx="8.5" cy="8.5" r="8.5" transform="matrix(-1 0 0 1 71 29)" fill="#572217"/>
<circle cx="33.5" cy="33.5" r="3.5" fill="white"/>
<circle cx="58.5" cy="33.5" r="3.5" fill="white"/>
</svg>
