<svg width="100" height="100" viewBox="0 0 100 100" fill="none" xmlns="http://www.w3.org/2000/svg">
<circle cx="50" cy="50" r="42" fill="#FFBA34"/>
<path d="M23.7199 60.9494C25.3233 65.3428 28.4114 70.5056 33.8197 74.0894C35.1535 72.6779 42.5115 71.8223 50 71.7189C57.4885 71.8223 64.8465 72.6779 66.1803 74.0894C71.5886 70.5056 74.6767 65.3428 76.2801 60.9494C76.8506 59.3863 77.1358 58.6048 76.9368 57.8269C76.7498 57.096 76.1668 56.4141 75.4864 56.1303C74.7622 55.8284 73.7264 56.0805 71.6547 56.5848C69.0859 61.5913 59.4686 64.4744 50 64.6417C40.5314 64.4744 30.9141 61.5913 28.3453 56.5848C26.2736 56.0805 25.2378 55.8284 24.5136 56.1303C23.8332 56.4141 23.2502 57.096 23.0632 57.8269C22.8642 58.6048 23.1494 59.3863 23.7199 60.9494Z" fill="#E60045"/>
<path d="M50 58.7963C42.1854 58.7959 34.3602 58.0491 28.3453 56.5848C30.9141 61.5913 40.5314 64.4744 50 64.6417C59.4686 64.4744 69.0859 61.5913 71.6547 56.5848C65.6398 58.0491 57.8146 58.7959 50 58.7963Z" fill="white"/>
<path d="M33.8197 74.0894C37.8264 76.7444 43.1066 78.5327 50 78.4995C56.8934 78.5327 62.1736 76.7444 66.1803 74.0894C64.8465 72.6779 57.4885 71.8223 50 71.7189C42.5115 71.8223 35.1535 72.6779 33.8197 74.0894Z" fill="#E60045"/>
<path d="M54.25 42.5C58.1389 38.5109 71.75 38.5109 75.25 42.435" stroke="#471C13" stroke-width="4" stroke-linecap="round" stroke-linejoin="round"/>
<path d="M23.25 42.5C27.1389 38.5109 40.75 38.5109 44.25 42.435" stroke="#471C13" stroke-width="4" stroke-linecap="round" stroke-linejoin="round"/>
<path d="M82.5 9C82.5 9 90 22.0593 90 26.3077C90 30.556 86.6421 34 82.5 34C78.3579 34 75 30.556 75 26.3077C75 22.0593 82.5 9 82.5 9Z" fill="#00A3FF"/>
</svg>
