<svg width="100" height="100" viewBox="0 0 100 100" fill="none" xmlns="http://www.w3.org/2000/svg">
<circle cx="50" cy="50" r="42" fill="#FFBA34"/>
<path d="M41.7077 24.9855C36.6957 22.6542 31.5464 25.274 29.2825 29.8932C25.0123 27.0248 19.3455 27.3418 16.0906 31.8496C12.8358 36.3574 13.8753 42.2609 18.1763 45.4541C21.7523 48.109 32.7998 53.624 36.0675 55.2149C38.1018 52.2033 44.9342 41.8974 46.7036 37.8102C48.8318 32.8943 46.7197 27.3169 41.7077 24.9855Z" fill="#F20D61"/>
<path d="M58.2923 24.9855C63.3043 22.6542 68.4536 25.274 70.7175 29.8932C74.9877 27.0248 80.6545 27.3418 83.9094 31.8496C87.1642 36.3574 86.1247 42.2609 81.8237 45.4541C78.2477 48.109 67.2002 53.624 63.9325 55.2149C61.8982 52.2033 55.0658 41.8974 53.2964 37.8102C51.1682 32.8943 53.2803 27.3169 58.2923 24.9855Z" fill="#F20D61"/>
<path d="M68 64.2491C63.3043 79.9582 36.6957 79.9582 32 64C32 64 42.6523 65.9574 50 66C57.3154 66.0424 68 64.2491 68 64.2491Z" fill="#E40037" stroke="#E40037" stroke-width="4" stroke-linecap="round" stroke-linejoin="round"/>
</svg>
