<svg width="100" height="100" viewBox="0 0 100 100" fill="none" xmlns="http://www.w3.org/2000/svg">
<path d="M17.0497 17.6654C27.5709 8.15458 41.6028 11.3644 50 21.7508C58.3972 11.3644 72.1905 8.25463 82.8926 17.6654C93.5947 27.0761 94.8953 43.0776 86.6329 54.3262C79.7631 63.6783 56.8138 85.6157 50 92C43.1862 85.6157 20.1793 63.6783 13.3096 54.3262C5.04726 43.0776 6.5285 27.1762 17.0497 17.6654Z" fill="#F20D61"/>
<path d="M25.4223 55.4804C26.6008 52.1543 27.1901 50.4912 28.25 50.4912C29.3099 50.4912 29.8992 52.1543 31.0777 55.4804L32.6779 59.9964C32.9126 60.6589 33.03 60.9902 33.2699 61.2301C33.5098 61.47 33.8411 61.5874 34.5036 61.8221L39.0196 63.4223C42.3457 64.6008 44.0088 65.1901 44.0088 66.25C44.0088 67.3099 42.3457 67.8992 39.0196 69.0777L34.5036 70.6779C33.8411 70.9126 33.5098 71.03 33.2699 71.2699C33.03 71.5098 32.9126 71.8411 32.6779 72.5036L31.0777 77.0196C29.8992 80.3457 29.3099 82.0088 28.25 82.0088C27.1901 82.0088 26.6008 80.3457 25.4223 77.0196L23.8221 72.5036C23.5874 71.8411 23.47 71.5098 23.2301 71.2699C22.9902 71.03 22.6589 70.9126 21.9964 70.6779L17.4804 69.0777C14.1543 67.8992 12.4912 67.3099 12.4912 66.25C12.4912 65.1901 14.1543 64.6008 17.4804 63.4223L21.9964 61.8221C22.6589 61.5874 22.9902 61.47 23.2301 61.2301C23.47 60.9902 23.5874 60.6589 23.8221 59.9964L25.4223 55.4804Z" fill="#FFBA34"/>
<path d="M77.3648 14.3203C78.1506 12.1028 78.5434 10.9941 79.25 10.9941C79.9566 10.9941 80.3494 12.1028 81.1352 14.3203L81.8749 16.4079C82.0314 16.8496 82.1096 17.0705 82.2696 17.2304C82.4295 17.3904 82.6504 17.4686 83.0921 17.6251L85.1797 18.3648C87.3972 19.1506 88.5059 19.5434 88.5059 20.25C88.5059 20.9566 87.3972 21.3494 85.1797 22.1352L83.0921 22.8749C82.6504 23.0314 82.4295 23.1096 82.2696 23.2696C82.1096 23.4295 82.0314 23.6504 81.8749 24.0921L81.1352 26.1797C80.3494 28.3972 79.9566 29.5059 79.25 29.5059C78.5434 29.5059 78.1506 28.3972 77.3648 26.1797L76.6251 24.0921C76.4686 23.6504 76.3904 23.4295 76.2304 23.2696C76.0705 23.1096 75.8496 23.0314 75.4079 22.8749L73.3203 22.1352C71.1028 21.3494 69.9941 20.9566 69.9941 20.25C69.9941 19.5434 71.1028 19.1506 73.3203 18.3648L75.4079 17.6251C75.8496 17.4686 76.0705 17.3904 76.2304 17.2304C76.3904 17.0705 76.4686 16.8496 76.6251 16.4079L77.3648 14.3203Z" fill="#FFBA34"/>
<ellipse cx="23.4999" cy="27.9999" rx="4.5" ry="6" transform="rotate(30 23.4999 27.9999)" fill="white"/>
</svg>
