<svg width="100" height="100" viewBox="0 0 100 100" fill="none" xmlns="http://www.w3.org/2000/svg">
<g clip-path="url(#clip0_142_87)">
<path d="M42.0742 12.0041C42.8521 13.0587 43.6996 14.1396 44.6435 15.3178C45.3015 16.139 45.6305 16.5496 46.0988 16.7465C46.5672 16.9433 47.0943 16.8906 48.1485 16.7851L53.5132 16.2487C54.7226 16.1277 55.3273 16.0673 55.7816 15.7151C56.2359 15.3629 56.4449 14.7933 56.8629 13.654C57.1861 12.773 57.4793 11.975 57.7661 11.2118C59.5481 6.4684 60.4391 4.09669 59.1773 3.20564L59.1668 3.19822C57.8992 2.31533 56.2662 3.71022 53 6.5C52.1315 4.24833 51.6973 3.1225 51.0038 2.77617C50.5162 2.5327 49.9356 2.49994 49.4237 2.68701C48.6956 2.95311 48.3909 3.53718 47.7815 4.70533C47.4883 5.26728 47.2313 5.86103 47 6.5C42.5034 5.38185 40.2552 4.82278 39.453 5.66401C39.29 5.83498 39.1679 6.01755 39.0722 6.23351C38.601 7.29609 39.7587 8.86543 42.0742 12.0041Z" fill="#C100F1"/>
<path d="M87.5645 5.08875C90.0509 4.13242 91.2939 3.65421 92.1719 4.28797C93.0498 4.92179 92.9891 6.22831 92.8662 8.84168C91.3435 41.2244 77.3399 52.2434 73.8066 54.5204C73.4812 54.7301 73.3182 54.8346 73.042 54.9159C72.7655 54.9973 72.5286 54.9979 72.0557 54.9979H45C43.1146 54.9979 42.1717 54.9977 41.5859 54.412C41.0002 53.8262 41 52.8834 41 50.9979V25.745C41 24.4156 41.0003 23.7507 41.3516 23.2391C41.7029 22.7275 42.3236 22.4889 43.5645 22.0116L87.5645 5.08875Z" fill="#780A9B"/>
<path d="M82.4629 11.9612C84.916 11.096 86.1424 10.6639 87 11.3128C87.8577 11.9617 87.7777 13.2199 87.6172 15.7366C86.0491 40.3279 74.4362 48.8762 71.3281 50.7366C71.0238 50.9187 70.8717 51.01 70.6104 51.0823C70.3488 51.1546 70.1293 51.1546 69.6914 51.1546H47C45.1146 51.1546 44.1717 51.1544 43.5859 50.5686C43.0003 49.9828 43 49.04 43 47.1546V28.7093C43 27.3418 43.0007 26.6581 43.3682 26.1389C43.7356 25.6198 44.3803 25.3926 45.6699 24.9378L82.4629 11.9612Z" fill="#301446" fill-opacity="0.66"/>
<path d="M12.3721 5.08833C9.886 4.13215 8.64257 3.65412 7.76465 4.28754C6.88668 4.92139 6.94742 6.22872 7.07031 8.84223C8.59302 41.2248 22.5966 52.243 26.1299 54.52C26.4555 54.7298 26.6181 54.8351 26.8945 54.9165C27.171 54.9978 27.4079 54.9975 27.8809 54.9975H54.9365C56.8218 54.9975 57.7648 54.9982 58.3506 54.4125C58.9364 53.8268 58.9365 52.8831 58.9365 50.9975V25.7456C58.9365 24.4164 58.9361 23.7513 58.585 23.2397C58.2336 22.7281 57.6129 22.4894 56.3721 22.0122L12.3721 5.08833Z" fill="#780A9B"/>
<path d="M17.4736 11.9612C15.0205 11.096 13.7941 10.6639 12.9365 11.3128C12.0789 11.9617 12.1589 13.2199 12.3193 15.7366C13.8874 40.3279 25.5003 48.8762 28.6084 50.7366C28.9127 50.9187 29.0648 51.01 29.3262 51.0823C29.5877 51.1546 29.8072 51.1546 30.2451 51.1546H52.9365C54.8219 51.1546 55.7648 51.1544 56.3506 50.5686C56.9363 49.9828 56.9365 49.04 56.9365 47.1546V28.7093C56.9365 27.3418 56.9358 26.6581 56.5684 26.1389C56.2009 25.6198 55.5562 25.3926 54.2666 24.9378L17.4736 11.9612Z" fill="#301446" fill-opacity="0.66"/>
<circle cx="50" cy="50" r="42" fill="#C100F1"/>
<mask id="mask0_142_87" style="mask-type:alpha" maskUnits="userSpaceOnUse" x="8" y="8" width="84" height="84">
<circle cx="50" cy="50" r="42" fill="#FFBA34"/>
</mask>
<g mask="url(#mask0_142_87)">
<path d="M79.8995 60.4034C78.0516 59.8072 78.0516 57.1928 79.8995 56.5966L96.8859 51.1162C98.1773 50.6995 99.5 51.6626 99.5 53.0196L99.5 63.9804C99.5 65.3374 98.1773 66.3005 96.8859 65.8838L79.8995 60.4034Z" fill="#780A9B"/>
<path d="M20.1005 60.4034C21.9484 59.8072 21.9484 57.1928 20.1005 56.5966L3.1141 51.1162C1.82265 50.6995 0.500001 51.6626 0.500001 53.0196L0.5 63.9804C0.5 65.3374 1.82266 66.3005 3.1141 65.8838L20.1005 60.4034Z" fill="#780A9B"/>
<path d="M75.8995 77.4034C74.0516 76.8072 74.0516 74.1928 75.8995 73.5966L92.8859 68.1162C94.1773 67.6995 95.5 68.6626 95.5 70.0196L95.5 80.9804C95.5 82.3374 94.1773 83.3005 92.8859 82.8838L75.8995 77.4034Z" fill="#780A9B"/>
<path d="M24.1005 77.4034C25.9484 76.8072 25.9484 74.1928 24.1005 73.5966L7.1141 68.1162C5.82265 67.6995 4.5 68.6626 4.5 70.0196L4.5 80.9804C4.5 82.3374 5.82266 83.3005 7.1141 82.8838L24.1005 77.4034Z" fill="#780A9B"/>
</g>
<circle cx="35" cy="43" r="12" fill="white"/>
<circle cx="12" cy="12" r="12" transform="matrix(-1 0 0 1 77 31)" fill="white"/>
<circle cx="38" cy="43" r="7.5" fill="#301446"/>
<circle cx="7.5" cy="7.5" r="7.5" transform="matrix(-1 0 0 1 69.5 35.5)" fill="#301446"/>
<path d="M35 60V60C36.9431 67.7724 48.023 67.9082 49.9661 60.1357V60.1357C49.9749 60.1004 50.0251 60.1004 50.0339 60.1357V60.1357C51.977 67.9082 63.0569 67.7724 65 60V60" stroke="#301446" stroke-width="4" stroke-linecap="round" stroke-linejoin="round"/>
<path d="M57 54.6C57 57.0853 53 60 50 60C47 60 43 57.0853 43 54.6C43 52.1147 46.134 51 50 51C53.866 51 57 52.1147 57 54.6Z" fill="#780A9B"/>
</g>
<defs>
<clipPath id="clip0_142_87">
<rect width="100" height="100" fill="white"/>
</clipPath>
</defs>
</svg>
