<svg width="100" height="100" viewBox="0 0 100 100" fill="none" xmlns="http://www.w3.org/2000/svg">
<path d="M8.8131 14.7171C10.8254 31.3426 14.4305 38.9617 21.8247 47.2158C22.3839 47.84 22.6635 48.1521 23.0529 48.3261C23.4422 48.5 23.8741 48.5 24.7379 48.5H46C47.8856 48.5 48.8284 48.5 49.4142 47.9142C50 47.3284 50 46.3856 50 44.5V19.5C50 17.6182 50 16.6773 49.445 16.0974C48.8899 15.5174 47.9313 15.4752 46.0141 15.3908C39.4099 15.1003 25.8863 14.0366 15.3893 10.1418C11.7608 8.79546 9.94659 8.12231 9.06494 8.8179C8.18329 9.51349 8.39322 11.248 8.8131 14.7171Z" fill="#301446"/>
<path d="M8.8131 14.7171C10.8254 31.3426 14.4305 38.9617 21.8247 47.2158C22.3839 47.84 22.6635 48.1521 23.0529 48.3261C23.4422 48.5 23.8741 48.5 24.7379 48.5H46C47.8856 48.5 48.8284 48.5 49.4142 47.9142C50 47.3284 50 46.3856 50 44.5V19.5C50 17.6182 50 16.6773 49.445 16.0974C48.8899 15.5174 47.9313 15.4752 46.0141 15.3908C39.4099 15.1003 25.8863 14.0366 15.3893 10.1418C11.7608 8.79546 9.94659 8.12231 9.06494 8.8179C8.18329 9.51349 8.39322 11.248 8.8131 14.7171Z" fill="#C100F1" fill-opacity="0.5"/>
<path d="M91.1869 14.7171C89.1746 31.3426 85.5695 38.9617 78.1753 47.2158C77.6161 47.84 77.3365 48.1521 76.9471 48.3261C76.5578 48.5 76.1259 48.5 75.2621 48.5H54C52.1144 48.5 51.1716 48.5 50.5858 47.9142C50 47.3284 50 46.3856 50 44.5V19.5C50 17.6182 50 16.6773 50.555 16.0974C51.1101 15.5174 52.0687 15.4752 53.9859 15.3908C60.5901 15.1003 74.1137 14.0366 84.6107 10.1418C88.2392 8.79546 90.0534 8.12231 90.9351 8.8179C91.8167 9.51349 91.6068 11.248 91.1869 14.7171Z" fill="#301446"/>
<path d="M91.1869 14.7171C89.1746 31.3426 85.5695 38.9617 78.1753 47.2158C77.6161 47.84 77.3365 48.1521 76.9471 48.3261C76.5578 48.5 76.1259 48.5 75.2621 48.5H54C52.1144 48.5 51.1716 48.5 50.5858 47.9142C50 47.3284 50 46.3856 50 44.5V19.5C50 17.6182 50 16.6773 50.555 16.0974C51.1101 15.5174 52.0687 15.4752 53.9859 15.3908C60.5901 15.1003 74.1137 14.0366 84.6107 10.1418C88.2392 8.79546 90.0534 8.12231 90.9351 8.8179C91.8167 9.51349 91.6068 11.248 91.1869 14.7171Z" fill="#C100F1" fill-opacity="0.5"/>
<circle cx="50" cy="50" r="40.5" fill="#C100F1"/>
<path d="M50 71.4347C61.2 73.2934 72.4 70.5054 74 64" stroke="#301446" stroke-width="4" stroke-linecap="round" stroke-linejoin="round"/>
<circle cx="35" cy="44" r="12" fill="white"/>
<circle cx="12" cy="12" r="12" transform="matrix(-1 0 0 1 77 32)" fill="white"/>
<circle cx="38" cy="44" r="7.5" fill="#301446"/>
<circle cx="7.5" cy="7.5" r="7.5" transform="matrix(-1 0 0 1 75.5 36.5)" fill="#301446"/>
<rect x="20" y="27" width="60" height="16" fill="#C100F1"/>
<path d="M35 20C28 21 23 25 20 31" stroke="#301446" stroke-width="4" stroke-linecap="round"/>
<path d="M65 20C72 21 77 25 80 31" stroke="#301446" stroke-width="4" stroke-linecap="round"/>
</svg>
