<svg width="100" height="100" viewBox="0 0 100 100" fill="none" xmlns="http://www.w3.org/2000/svg">
<circle cx="50" cy="50" r="42" fill="#F20D44"/>
<path d="M67 69.5C67 72.5376 59.3888 73 50 73C40.6112 73 33 72.5376 33 69.5C33 66.4624 40.6112 63 50 63C59.3888 63 67 66.4624 67 69.5Z" fill="#38001E"/>
<path d="M85.5 8C85.5 8 93 21.0593 93 25.3077C93 29.556 89.6421 33 85.5 33C81.3579 33 78 29.556 78 25.3077C78 21.0593 85.5 8 85.5 8Z" fill="#00A3FF"/>
<circle cx="35" cy="50" r="12" fill="white"/>
<circle cx="12" cy="12" r="12" transform="matrix(-1 0 0 1 77 38)" fill="white"/>
<circle cx="38" cy="50" r="7.5" fill="#38001E"/>
<circle cx="7.5" cy="7.5" r="7.5" transform="matrix(-1 0 0 1 69.5 42.5)" fill="#38001E"/>
<path d="M14 40C21 39 26 35 29 29" stroke="#38001E" stroke-width="4" stroke-linecap="round"/>
<path d="M86 40C79 39 74 35 71 29" stroke="#38001E" stroke-width="4" stroke-linecap="round"/>
<path d="M41.5648 72.0365C42.2646 70.076 42.6145 69.0958 43.3919 68.5479C44.1692 68 45.2071 68 47.283 68H51.718C54.6633 68 56.1359 68 57.0108 68.8575C57.2328 69.0751 57.4239 69.3323 57.5682 69.6076C58.1368 70.6927 57.7083 72.1144 56.8514 74.9577C56.5985 75.7967 56.3625 76.631 56.1474 77.498C55.544 79.9291 55.2424 81.1446 54.9081 81.783C54.0006 83.5163 52.9142 84.3661 51.0133 84.8294C50.3132 85 49.3426 85 47.4014 85C45.5946 85 44.6911 85 43.7504 84.6796C41.769 84.0047 39.8612 81.5427 39.7023 79.4555C39.6268 78.4646 39.7796 77.872 40.0851 76.6868C40.4906 75.114 40.9921 73.6408 41.5648 72.0365Z" fill="#FF74A7"/>
<path opacity="0.5" d="M50 67C48.9855 70.2586 48.5747 71.251 48 75" stroke="#38001E" stroke-width="4" stroke-linecap="round"/>
</svg>
