<svg width="100" height="100" viewBox="0 0 100 100" fill="none" xmlns="http://www.w3.org/2000/svg">
<path d="M88 50C88 41.1634 80.8366 34 72 34C63.1634 34 50 50 50 50C50 50 36.8366 66 28 66C19.1634 66 12 58.8366 12 50" stroke="#17CF48" stroke-width="10"/>
<path d="M88 50C88 41.1634 80.8366 34 72 34C63.1634 34 50 50 50 50C50 50 36.8366 66 28 66C19.1634 66 12 58.8366 12 50" stroke="url(#paint0_linear_214_169)" stroke-width="10"/>
<path d="M88 50C88 41.1634 80.8366 34 72 34C63.1634 34 50 50 50 50C50 50 36.8366 66 28 66C19.1634 66 12 58.8366 12 50" stroke="url(#paint1_linear_214_169)" stroke-width="10"/>
<path d="M88 50C88 58.8366 80.8366 66 72 66C63.1634 66 50 50 50 50C50 50 36.8366 34 28 34C19.1634 34 12 41.1634 12 50" stroke="#FA273C" stroke-width="10"/>
<path d="M88 50C88 58.8366 80.8366 66 72 66C63.1634 66 50 50 50 50C50 50 36.8366 34 28 34C19.1634 34 12 41.1634 12 50" stroke="url(#paint2_linear_214_169)" stroke-width="10"/>
<path d="M88 50C88 58.8366 80.8366 66 72 66C63.1634 66 50 50 50 50C50 50 36.8366 34 28 34C19.1634 34 12 41.1634 12 50" stroke="url(#paint3_linear_214_169)" stroke-width="10"/>
<defs>
<linearGradient id="paint0_linear_214_169" x1="18" y1="50" x2="50" y2="50" gradientUnits="userSpaceOnUse">
<stop stop-color="#FFC320"/>
<stop offset="1" stop-color="#FFC320" stop-opacity="0"/>
</linearGradient>
<linearGradient id="paint1_linear_214_169" x1="82" y1="50" x2="50" y2="50" gradientUnits="userSpaceOnUse">
<stop stop-color="#4951FF"/>
<stop offset="1" stop-color="#4951FF" stop-opacity="0"/>
</linearGradient>
<linearGradient id="paint2_linear_214_169" x1="18" y1="50" x2="50" y2="50" gradientUnits="userSpaceOnUse">
<stop stop-color="#FFC320"/>
<stop offset="1" stop-color="#FF7A1C" stop-opacity="0"/>
</linearGradient>
<linearGradient id="paint3_linear_214_169" x1="82" y1="50" x2="50" y2="50" gradientUnits="userSpaceOnUse">
<stop stop-color="#4951FF"/>
<stop offset="1" stop-color="#C112ED" stop-opacity="0"/>
</linearGradient>
</defs>
</svg>
