<svg width="100" height="100" viewBox="0 0 100 100" fill="none" xmlns="http://www.w3.org/2000/svg">
<mask id="path-1-outside-1_21_227" maskUnits="userSpaceOnUse" x="5.98926" y="12.9998" width="88" height="70" fill="black">
<rect fill="white" x="5.98926" y="12.9998" width="88" height="70"/>
<path d="M69.1321 18.2417C71.2081 17.4869 73.503 18.5574 74.2581 20.6333C75.0128 22.7092 73.9422 25.0041 71.8665 25.7592C68.357 27.0354 66.4993 30.2001 66.4993 34.5004C66.4993 34.6163 66.4923 34.7308 66.4827 34.8442C67.3215 35.3596 68.1103 35.9137 68.844 36.5024C69.3983 36.4821 69.9657 36.577 70.512 36.8022C76.7304 39.3661 82.7498 42.6671 86.4211 47.7075C90.2158 52.9174 91.0777 59.3526 88.5393 67.0805L88.2834 67.8325L88.2102 68.0249C87.4054 69.9817 85.1977 70.9842 83.1799 70.2719C81.1621 69.5595 80.0738 67.3931 80.676 65.3647L80.7395 65.1684L80.9329 64.602C82.843 58.8133 81.9462 55.1522 79.9543 52.4174C78.7896 50.8184 77.1265 49.361 74.9983 47.9936C74.9983 47.9959 74.9993 47.9982 74.9993 48.0004C74.9993 49.4741 74.7373 50.9047 74.2473 52.2719C74.5924 52.6418 74.8738 53.0829 75.0637 53.5854C77.2374 59.3388 77.9413 66.3253 75.2756 71.7016C73.8779 74.5204 71.5654 76.8315 68.2795 78.0571C65.2736 79.1781 61.7643 79.2773 57.8684 78.4692L57.0842 78.2963L56.885 78.2436C54.8522 77.6553 53.6166 75.569 54.1067 73.4858C54.5972 71.403 56.6334 70.0864 58.7151 70.4663L58.9163 70.5083L59.5012 70.6381C62.3639 71.2314 64.2687 71.0141 65.4836 70.561C66.6995 70.1074 67.5329 69.3088 68.1086 68.1479C69.0829 66.1827 69.2942 63.1344 68.5598 59.7221C63.9846 63.2695 57.3644 65.5004 49.9993 65.5005C42.6351 65.5005 36.0149 63.2707 31.4397 59.7241C30.7058 63.1357 30.9177 66.1831 31.8918 68.1479C32.4676 69.3089 33.3008 70.1075 34.5168 70.561C35.7318 71.0141 37.6366 71.2315 40.4993 70.6381L41.0842 70.5083L41.2854 70.4663C43.367 70.0866 45.4034 71.403 45.8938 73.4858C46.3839 75.5689 45.148 77.6552 43.1155 78.2436L42.9163 78.2963L42.1321 78.4692C38.2362 79.2773 34.7269 79.1781 31.7209 78.0571C28.4349 76.8315 26.1227 74.5205 24.7249 71.7016C22.059 66.3253 22.763 59.3389 24.9368 53.5854C25.1264 53.0838 25.4059 52.6424 25.7502 52.2729C25.2749 50.9468 25.0165 49.561 25.0012 48.1342C22.8864 49.5496 21.229 51.0629 20.0618 52.727C18.025 55.6311 17.1223 59.5316 19.0549 65.6167L19.2512 66.2124L19.3118 66.4096C19.8903 68.4449 18.7772 70.5987 16.7512 71.2876C14.7252 71.9763 12.5301 70.9472 11.7483 68.9809L11.677 68.7885L11.4231 68.0141C8.90765 60.0633 9.76243 53.4793 13.512 48.1333C17.1668 42.9226 23.1786 39.4932 29.4133 36.8237C29.9809 36.5807 30.5734 36.4783 31.1516 36.5024C31.878 35.9194 32.659 35.3709 33.4885 34.8598C33.478 34.7414 33.4719 34.6216 33.4719 34.5004C33.4719 30.2001 31.6141 27.0354 28.1047 25.7592C26.0289 25.0041 24.9582 22.7092 25.7131 20.6333C26.4682 18.5574 28.7631 17.4868 30.8391 18.2417C37.2457 20.5715 40.4694 25.9094 41.2688 31.5971C43.9866 30.8881 46.9284 30.5004 49.9993 30.5004C53.0599 30.5005 55.9921 30.8857 58.7024 31.5903C59.5033 25.905 62.7279 20.5706 69.1321 18.2417Z"/>
</mask>
<path d="M69.1321 18.2417C71.2081 17.4869 73.503 18.5574 74.2581 20.6333C75.0128 22.7092 73.9422 25.0041 71.8665 25.7592C68.357 27.0354 66.4993 30.2001 66.4993 34.5004C66.4993 34.6163 66.4923 34.7308 66.4827 34.8442C67.3215 35.3596 68.1103 35.9137 68.844 36.5024C69.3983 36.4821 69.9657 36.577 70.512 36.8022C76.7304 39.3661 82.7498 42.6671 86.4211 47.7075C90.2158 52.9174 91.0777 59.3526 88.5393 67.0805L88.2834 67.8325L88.2102 68.0249C87.4054 69.9817 85.1977 70.9842 83.1799 70.2719C81.1621 69.5595 80.0738 67.3931 80.676 65.3647L80.7395 65.1684L80.9329 64.602C82.843 58.8133 81.9462 55.1522 79.9543 52.4174C78.7896 50.8184 77.1265 49.361 74.9983 47.9936C74.9983 47.9959 74.9993 47.9982 74.9993 48.0004C74.9993 49.4741 74.7373 50.9047 74.2473 52.2719C74.5924 52.6418 74.8738 53.0829 75.0637 53.5854C77.2374 59.3388 77.9413 66.3253 75.2756 71.7016C73.8779 74.5204 71.5654 76.8315 68.2795 78.0571C65.2736 79.1781 61.7643 79.2773 57.8684 78.4692L57.0842 78.2963L56.885 78.2436C54.8522 77.6553 53.6166 75.569 54.1067 73.4858C54.5972 71.403 56.6334 70.0864 58.7151 70.4663L58.9163 70.5083L59.5012 70.6381C62.3639 71.2314 64.2687 71.0141 65.4836 70.561C66.6995 70.1074 67.5329 69.3088 68.1086 68.1479C69.0829 66.1827 69.2942 63.1344 68.5598 59.7221C63.9846 63.2695 57.3644 65.5004 49.9993 65.5005C42.6351 65.5005 36.0149 63.2707 31.4397 59.7241C30.7058 63.1357 30.9177 66.1831 31.8918 68.1479C32.4676 69.3089 33.3008 70.1075 34.5168 70.561C35.7318 71.0141 37.6366 71.2315 40.4993 70.6381L41.0842 70.5083L41.2854 70.4663C43.367 70.0866 45.4034 71.403 45.8938 73.4858C46.3839 75.5689 45.148 77.6552 43.1155 78.2436L42.9163 78.2963L42.1321 78.4692C38.2362 79.2773 34.7269 79.1781 31.7209 78.0571C28.4349 76.8315 26.1227 74.5205 24.7249 71.7016C22.059 66.3253 22.763 59.3389 24.9368 53.5854C25.1264 53.0838 25.4059 52.6424 25.7502 52.2729C25.2749 50.9468 25.0165 49.561 25.0012 48.1342C22.8864 49.5496 21.229 51.0629 20.0618 52.727C18.025 55.6311 17.1223 59.5316 19.0549 65.6167L19.2512 66.2124L19.3118 66.4096C19.8903 68.4449 18.7772 70.5987 16.7512 71.2876C14.7252 71.9763 12.5301 70.9472 11.7483 68.9809L11.677 68.7885L11.4231 68.0141C8.90765 60.0633 9.76243 53.4793 13.512 48.1333C17.1668 42.9226 23.1786 39.4932 29.4133 36.8237C29.9809 36.5807 30.5734 36.4783 31.1516 36.5024C31.878 35.9194 32.659 35.3709 33.4885 34.8598C33.478 34.7414 33.4719 34.6216 33.4719 34.5004C33.4719 30.2001 31.6141 27.0354 28.1047 25.7592C26.0289 25.0041 24.9582 22.7092 25.7131 20.6333C26.4682 18.5574 28.7631 17.4868 30.8391 18.2417C37.2457 20.5715 40.4694 25.9094 41.2688 31.5971C43.9866 30.8881 46.9284 30.5004 49.9993 30.5004C53.0599 30.5005 55.9921 30.8857 58.7024 31.5903C59.5033 25.905 62.7279 20.5706 69.1321 18.2417Z" fill="#C100F1"/>
<path d="M69.1321 18.2417L67.7653 14.4824L67.765 14.4825L69.1321 18.2417ZM74.2581 20.6333L78.0173 19.2665L78.0171 19.266L74.2581 20.6333ZM71.8665 25.7592L73.2334 29.5184L73.2339 29.5182L71.8665 25.7592ZM66.4993 34.5004L70.4993 34.5007V34.5004H66.4993ZM66.4827 34.8442L62.4971 34.5046C62.3688 36.0109 63.1006 37.4609 64.3887 38.2523L66.4827 34.8442ZM68.844 36.5024L66.3407 39.6222C67.0898 40.2234 68.0303 40.5348 68.9902 40.4997L68.844 36.5024ZM70.512 36.8022L72.0367 33.1042L72.0363 33.1041L70.512 36.8022ZM86.4211 47.7075L89.6544 45.3525L89.6544 45.3524L86.4211 47.7075ZM88.5393 67.0805L92.3261 68.369C92.3307 68.3556 92.3351 68.3422 92.3395 68.3288L88.5393 67.0805ZM88.2834 67.8325L92.0217 69.2557C92.0387 69.2111 92.0549 69.1662 92.0702 69.121L88.2834 67.8325ZM88.2102 68.0249L91.9096 69.5463C91.923 69.5137 91.9359 69.481 91.9485 69.4481L88.2102 68.0249ZM83.1799 70.2719L81.8481 74.0437L81.8485 74.0438L83.1799 70.2719ZM80.676 65.3647L76.8701 64.1339C76.8602 64.1646 76.8506 64.1953 76.8415 64.2262L80.676 65.3647ZM80.7395 65.1684L76.954 63.8761C76.947 63.8966 76.9402 63.9171 76.9336 63.9376L80.7395 65.1684ZM80.9329 64.602L84.7184 65.8943C84.7228 65.8814 84.7271 65.8684 84.7314 65.8554L80.9329 64.602ZM79.9543 52.4174L83.1877 50.0625L83.1875 50.0623L79.9543 52.4174ZM74.9983 47.9936L77.1605 44.6284C75.9293 43.8373 74.3644 43.7817 73.0802 44.4835C71.796 45.1853 70.9975 46.5323 70.9983 47.9958L74.9983 47.9936ZM74.9993 48.0004L78.9993 48.0005V48.0004H74.9993ZM74.2473 52.2719L70.4818 50.9224C69.9766 52.3321 70.3011 53.906 71.3228 55.0009L74.2473 52.2719ZM75.0637 53.5854L78.8056 52.1717L78.8053 52.171L75.0637 53.5854ZM75.2756 71.7016L78.8592 73.4786L78.8593 73.4785L75.2756 71.7016ZM68.2795 78.0571L69.6773 81.8049L69.6774 81.8049L68.2795 78.0571ZM57.8684 78.4692L57.0074 82.3754C57.0236 82.379 57.0398 82.3825 57.056 82.3858L57.8684 78.4692ZM57.0842 78.2963L56.0607 82.1632C56.1146 82.1774 56.1688 82.1906 56.2232 82.2026L57.0842 78.2963ZM56.885 78.2436L55.773 82.0859C55.8024 82.0944 55.8319 82.1026 55.8614 82.1104L56.885 78.2436ZM54.1067 73.4858L50.2132 72.5689L50.213 72.5697L54.1067 73.4858ZM58.7151 70.4663L59.5324 66.5507C59.4994 66.5438 59.4663 66.5373 59.4332 66.5312L58.7151 70.4663ZM58.9163 70.5083L59.7833 66.6034C59.7667 66.5997 59.7502 66.5961 59.7336 66.5927L58.9163 70.5083ZM59.5012 70.6381L58.6342 74.543C58.6526 74.5471 58.671 74.5511 58.6895 74.5549L59.5012 70.6381ZM65.4836 70.561L66.8813 74.3089L66.8816 74.3087L65.4836 70.561ZM68.1086 68.1479L71.6922 69.925L71.6924 69.9246L68.1086 68.1479ZM68.5598 59.7221L72.4703 58.8805C72.181 57.5364 71.2217 56.4351 69.93 55.9641C68.6384 55.4932 67.1953 55.7186 66.1088 56.561L68.5598 59.7221ZM49.9993 65.5005V69.5005H49.9993L49.9993 65.5005ZM31.4397 59.7241L33.8903 56.5627C32.8037 55.7204 31.3607 55.4951 30.0691 55.9662C28.7775 56.4373 27.8183 57.5387 27.5292 58.8828L31.4397 59.7241ZM31.8918 68.1479L28.3081 69.9247L28.3083 69.925L31.8918 68.1479ZM34.5168 70.561L33.1191 74.3088L33.1192 74.3089L34.5168 70.561ZM40.4993 70.6381L41.311 74.5549C41.3295 74.5511 41.3479 74.5471 41.3663 74.543L40.4993 70.6381ZM41.0842 70.5083L40.2669 66.5927C40.2503 66.5961 40.2337 66.5997 40.2172 66.6034L41.0842 70.5083ZM41.2854 70.4663L40.5677 66.5312C40.5344 66.5373 40.5012 66.5438 40.4681 66.5507L41.2854 70.4663ZM45.8938 73.4858L49.7875 72.5697L49.7873 72.569L45.8938 73.4858ZM43.1155 78.2436L44.139 82.1104C44.1687 82.1026 44.1984 82.0944 44.2279 82.0858L43.1155 78.2436ZM42.9163 78.2963L43.7773 82.2026C43.8317 82.1906 43.8859 82.1774 43.9398 82.1632L42.9163 78.2963ZM42.1321 78.4692L42.9445 82.3858C42.9607 82.3825 42.9769 82.379 42.9931 82.3754L42.1321 78.4692ZM31.7209 78.0571L30.3232 81.8049L30.3232 81.8049L31.7209 78.0571ZM24.7249 71.7016L21.1412 73.4786L21.1412 73.4786L24.7249 71.7016ZM24.9368 53.5854L21.1952 52.1708L21.1949 52.1717L24.9368 53.5854ZM25.7502 52.2729L28.6764 55.0001C29.6969 53.9052 30.0207 52.3321 29.5156 50.9232L25.7502 52.2729ZM25.0012 48.1342L29.001 48.0914C28.9853 46.6227 28.1659 45.2808 26.8666 44.5958C25.5673 43.9109 23.9971 43.9931 22.7765 44.81L25.0012 48.1342ZM20.0618 52.727L16.787 50.43L16.7869 50.4302L20.0618 52.727ZM19.0549 65.6167L15.2426 66.8275C15.2469 66.8412 15.2514 66.8548 15.2559 66.8685L19.0549 65.6167ZM19.2512 66.2124L23.0752 65.0387C23.0671 65.0126 23.0588 64.9865 23.0503 64.9605L19.2512 66.2124ZM19.3118 66.4096L23.1593 65.3159C23.1517 65.2892 23.1439 65.2625 23.1357 65.2359L19.3118 66.4096ZM16.7512 71.2876L18.0386 75.0747L18.0389 75.0746L16.7512 71.2876ZM11.7483 68.9809L7.99752 70.3708C8.00845 70.4003 8.01972 70.4296 8.03133 70.4588L11.7483 68.9809ZM11.677 68.7885L7.87608 70.0347C7.89189 70.0829 7.90861 70.1308 7.92624 70.1784L11.677 68.7885ZM11.4231 68.0141L7.60941 69.2207C7.61359 69.2339 7.61785 69.2471 7.62218 69.2603L11.4231 68.0141ZM13.512 48.1333L10.2372 45.8363L10.2371 45.8364L13.512 48.1333ZM29.4133 36.8237L27.8389 33.1466L27.8389 33.1466L29.4133 36.8237ZM31.1516 36.5024L30.985 40.4989C31.9518 40.5392 32.9005 40.2277 33.6552 39.622L31.1516 36.5024ZM33.4885 34.8598L35.5868 38.2653C36.877 37.4703 37.6072 36.0145 37.4728 34.505L33.4885 34.8598ZM33.4719 34.5004L29.4719 34.5005V34.5006L33.4719 34.5004ZM28.1047 25.7592L26.7373 29.5183L26.7378 29.5184L28.1047 25.7592ZM25.7131 20.6333L21.9541 19.266L21.954 19.2663L25.7131 20.6333ZM30.8391 18.2417L32.2062 14.4825L32.2059 14.4824L30.8391 18.2417ZM41.2688 31.5971L37.3077 32.1538C37.4666 33.2839 38.1005 34.2924 39.0501 34.9254C39.9996 35.5584 41.1743 35.7557 42.2786 35.4676L41.2688 31.5971ZM49.9993 30.5004L49.9993 26.5004H49.9993V30.5004ZM58.7024 31.5903L57.6959 35.4616C58.7996 35.7485 59.9733 35.5508 60.922 34.918C61.8707 34.2852 62.5042 33.2775 62.6633 32.1483L58.7024 31.5903ZM69.1321 18.2417L70.4989 22.0009L70.499 22.0005L74.2581 20.6333L78.0171 19.266C76.5068 15.1136 71.9166 12.9731 67.7653 14.4824L69.1321 18.2417ZM74.2581 20.6333L70.4988 22.0001L70.499 22.0002L71.8665 25.7592L73.2339 29.5182C77.3858 28.0078 79.5267 23.4179 78.0173 19.2665L74.2581 20.6333ZM71.8665 25.7592L70.4995 22.0001C65.0271 23.99 62.4993 28.9648 62.4993 34.5004H66.4993H70.4993C70.4993 31.4354 71.687 30.0807 73.2334 29.5184L71.8665 25.7592ZM66.4993 34.5004L62.4993 34.5002C62.4993 34.4788 62.4999 34.4671 62.4999 34.4681C62.4998 34.4694 62.4992 34.48 62.4971 34.5046L66.4827 34.8442L70.4682 35.1838C70.4831 35.0091 70.4992 34.7718 70.4993 34.5007L66.4993 34.5004ZM66.4827 34.8442L64.3887 38.2523C65.0912 38.6839 65.7426 39.1424 66.3407 39.6222L68.844 36.5024L71.3473 33.3826C70.4779 32.685 69.5517 32.0352 68.5766 31.4361L66.4827 34.8442ZM68.844 36.5024L68.9902 40.4997C68.9895 40.4998 68.9876 40.4997 68.9854 40.4993C68.9829 40.4989 68.9833 40.4986 68.9876 40.5003L70.512 36.8022L72.0363 33.1041C70.9489 32.6558 69.8106 32.4644 68.6977 32.5051L68.844 36.5024ZM70.512 36.8022L68.9872 40.5002C75.066 43.0065 80.2006 45.9612 83.1879 50.0625L86.4211 47.7075L89.6544 45.3524C85.299 39.3729 78.3948 35.7257 72.0367 33.1042L70.512 36.8022ZM86.4211 47.7075L83.1879 50.0625C86.0859 54.0413 86.9559 59.0834 84.7391 65.8323L88.5393 67.0805L92.3395 68.3288C95.1995 59.6219 94.3458 51.7935 89.6544 45.3525L86.4211 47.7075ZM88.5393 67.0805L84.7525 65.792L84.4967 66.544L88.2834 67.8325L92.0702 69.121L92.3261 68.369L88.5393 67.0805ZM88.2834 67.8325L84.5452 66.4093L84.472 66.6017L88.2102 68.0249L91.9485 69.4481L92.0217 69.2557L88.2834 67.8325ZM88.2102 68.0249L84.5109 66.5034C84.51 66.5056 84.51 66.505 84.5113 66.5031C84.5125 66.5012 84.5138 66.4997 84.5148 66.4987C84.5163 66.4971 84.5154 66.4985 84.5116 66.5002C84.508 66.5018 84.5071 66.5013 84.5103 66.5012C84.5121 66.5011 84.5141 66.5012 84.5156 66.5014C84.5174 66.5017 84.5162 66.5017 84.5114 66.5L83.1799 70.2719L81.8485 74.0438C85.8843 75.4685 90.2983 73.4639 91.9096 69.5463L88.2102 68.0249ZM83.1799 70.2719L84.5117 66.5002C84.5069 66.4985 84.5061 66.4977 84.5076 66.4986C84.509 66.4994 84.5107 66.5006 84.5121 66.5019C84.5146 66.5041 84.5136 66.504 84.5119 66.5006C84.5101 66.497 84.5102 66.4954 84.5104 66.4975C84.5105 66.4989 84.5106 66.5008 84.5104 66.5029C84.5102 66.5052 84.5099 66.5056 84.5106 66.5033L80.676 65.3647L76.8415 64.2262C75.6359 68.2863 77.8115 72.6184 81.8481 74.0437L83.1799 70.2719ZM80.676 65.3647L84.482 66.5955L84.5454 66.3992L80.7395 65.1684L76.9336 63.9376L76.8701 64.1339L80.676 65.3647ZM80.7395 65.1684L84.525 66.4607L84.7184 65.8943L80.9329 64.602L77.1474 63.3097L76.954 63.8761L80.7395 65.1684ZM80.9329 64.602L84.7314 65.8554C86.9721 59.0649 86.0658 54.0142 83.1877 50.0625L79.9543 52.4174L76.721 54.7724C77.8265 56.2902 78.7138 58.5618 77.1343 63.3486L80.9329 64.602ZM79.9543 52.4174L83.1875 50.0623C81.6439 47.9432 79.5586 46.1692 77.1605 44.6284L74.9983 47.9936L72.8361 51.3589C74.6944 52.5528 75.9352 53.6936 76.7212 54.7726L79.9543 52.4174ZM74.9983 47.9936L70.9983 47.9958C70.9984 48.1396 71.0062 48.266 71.016 48.3705C71.021 48.4231 71.0266 48.4711 71.0322 48.5141C71.0378 48.557 71.0436 48.5958 71.049 48.6295C71.0544 48.6632 71.0597 48.693 71.0642 48.7178C71.0688 48.7427 71.0729 48.7638 71.0762 48.7802C71.0794 48.7963 71.0821 48.8094 71.0838 48.8173C71.0846 48.8214 71.0853 48.8246 71.0858 48.8266C71.086 48.8277 71.0861 48.8285 71.0863 48.829C71.0863 48.8293 71.0864 48.8295 71.0864 48.8296C71.0864 48.8297 71.0864 48.8297 71.0864 48.8298C71.0864 48.8298 71.0864 48.8298 71.0864 48.8298C71.0865 48.8301 71.0862 48.8287 71.0858 48.8269C71.0854 48.825 71.0847 48.8219 71.0839 48.8179C71.0823 48.8102 71.0796 48.7973 71.0764 48.7814C71.0732 48.7652 71.0691 48.7443 71.0646 48.7196C71.0601 48.6949 71.0549 48.6654 71.0495 48.6319C71.0442 48.5983 71.0384 48.5598 71.0328 48.5171C71.0273 48.4743 71.0217 48.4264 71.0168 48.3741C71.007 48.27 70.9993 48.1439 70.9993 48.0004H74.9993H78.9993C78.9993 47.8565 78.9915 47.7298 78.9817 47.6251C78.9767 47.5725 78.9711 47.5244 78.9655 47.4813C78.9599 47.4383 78.9541 47.3995 78.9487 47.3656C78.9433 47.3318 78.938 47.302 78.9335 47.277C78.9289 47.2521 78.9248 47.2308 78.9215 47.2144C78.9182 47.1982 78.9155 47.185 78.9138 47.177C78.913 47.1729 78.9123 47.1696 78.9118 47.1676C78.9116 47.1665 78.9114 47.1657 78.9113 47.1651C78.9113 47.1649 78.9112 47.1646 78.9112 47.1645C78.9111 47.1643 78.9111 47.1642 78.9111 47.1642C78.911 47.1639 78.9114 47.1653 78.9117 47.167C78.9121 47.1689 78.9128 47.172 78.9136 47.1759C78.9152 47.1835 78.9178 47.1963 78.921 47.2122C78.9242 47.2282 78.9283 47.2491 78.9328 47.2737C78.9373 47.2982 78.9425 47.3277 78.9479 47.3611C78.9532 47.3946 78.959 47.433 78.9645 47.4757C78.9701 47.5184 78.9757 47.5661 78.9806 47.6184C78.9904 47.7223 78.9982 47.8482 78.9983 47.9915L74.9983 47.9936ZM74.9993 48.0004L70.9993 48.0004C70.9993 48.9932 70.8239 49.968 70.4818 50.9224L74.2473 52.2719L78.0128 53.6215C78.6508 51.8413 78.9993 49.955 78.9993 48.0005L74.9993 48.0004ZM74.2473 52.2719L71.3228 55.0009C71.3239 55.0021 71.3236 55.0019 71.3227 55.0005C71.3216 54.9988 71.3215 54.9981 71.3221 54.9998L75.0637 53.5854L78.8053 52.171C78.4256 51.1665 77.8614 50.2819 77.1719 49.543L74.2473 52.2719ZM75.0637 53.5854L71.3219 54.9991C73.2969 60.2268 73.6641 65.9473 71.692 69.9247L75.2756 71.7016L78.8593 73.4785C82.2186 66.7033 81.1779 58.4508 78.8056 52.1717L75.0637 53.5854ZM75.2756 71.7016L71.692 69.9246C70.7044 71.9162 69.1309 73.4704 66.8816 74.3093L68.2795 78.0571L69.6774 81.8049C73.9999 80.1926 77.0513 77.1245 78.8592 73.4786L75.2756 71.7016ZM68.2795 78.0571L66.8818 74.3092C64.7733 75.0956 62.0682 75.2552 58.6808 74.5526L57.8684 78.4692L57.056 82.3858C61.4604 83.2994 65.7738 83.2607 69.6773 81.8049L68.2795 78.0571ZM57.8684 78.4692L58.7294 74.563L57.9453 74.3901L57.0842 78.2963L56.2232 82.2026L57.0074 82.3754L57.8684 78.4692ZM57.0842 78.2963L58.1078 74.4295L57.9086 74.3768L56.885 78.2436L55.8614 82.1104L56.0607 82.1632L57.0842 78.2963ZM56.885 78.2436L57.997 74.4013C57.9947 74.4006 57.9952 74.4006 57.9973 74.4016C57.9992 74.4026 58.0008 74.4037 58.0019 74.4046C58.0036 74.4059 58.0022 74.4052 58.0001 74.4017C57.9982 74.3984 57.9986 74.3975 57.9991 74.4008C57.9994 74.4026 57.9995 74.4046 57.9995 74.4062C57.9994 74.408 57.9992 74.4069 58.0004 74.4019L54.1067 73.4858L50.213 72.5697C49.2326 76.7369 51.7038 80.9083 55.773 82.0859L56.885 78.2436ZM54.1067 73.4858L58.0002 74.4027C58.0014 74.3977 58.002 74.3968 58.0013 74.3984C58.0006 74.3998 57.9997 74.4015 57.9986 74.403C57.9968 74.4055 57.9969 74.4045 58.0002 74.4024C58.0037 74.4001 58.0053 74.4001 58.0032 74.4005C58.0018 74.4008 57.9998 74.4011 57.9976 74.4011C57.9952 74.4011 57.9947 74.4009 57.997 74.4013L58.7151 70.4663L59.4332 66.5312C55.2655 65.7707 51.1942 68.4031 50.2132 72.5689L54.1067 73.4858ZM58.7151 70.4663L57.8978 74.3819L58.0989 74.4239L58.9163 70.5083L59.7336 66.5927L59.5324 66.5507L58.7151 70.4663ZM58.9163 70.5083L58.0492 74.4132L58.6342 74.543L59.5012 70.6381L60.3683 66.7332L59.7833 66.6034L58.9163 70.5083ZM59.5012 70.6381L58.6895 74.5549C62.0637 75.2542 64.7715 75.0957 66.8813 74.3089L65.4836 70.561L64.086 66.8131C63.7658 66.9325 62.6641 67.2086 60.313 66.7214L59.5012 70.6381ZM65.4836 70.561L66.8816 74.3087C69.1275 73.471 70.703 71.9197 71.6922 69.925L68.1086 68.1479L64.5251 66.3708C64.4193 66.5842 64.3413 66.6636 64.3142 66.6887C64.2924 66.709 64.2385 66.7562 64.0856 66.8133L65.4836 70.561ZM68.1086 68.1479L71.6924 69.9246C73.2194 66.8446 73.3086 62.7757 72.4703 58.8805L68.5598 59.7221L64.6494 60.5638C65.2798 63.4931 64.9464 65.5209 64.5249 66.3712L68.1086 68.1479ZM68.5598 59.7221L66.1088 56.561C62.329 59.4917 56.6038 61.5004 49.9992 61.5005L49.9993 65.5005L49.9993 69.5005C58.1249 69.5004 65.6402 67.0474 71.0108 62.8832L68.5598 59.7221ZM49.9993 65.5005V61.5005C43.3952 61.5005 37.67 59.4926 33.8903 56.5627L31.4397 59.7241L28.9891 62.8855C34.3598 67.0488 41.8749 69.5005 49.9993 69.5005V65.5005ZM31.4397 59.7241L27.5292 58.8828C26.6912 62.7778 26.7815 66.8456 28.3081 69.9247L31.8918 68.1479L35.4755 66.3711C35.0539 65.5207 34.7203 63.4935 35.3502 60.5654L31.4397 59.7241ZM31.8918 68.1479L28.3083 69.925C29.2974 71.9196 30.8726 73.471 33.1191 74.3088L34.5168 70.561L35.9146 66.8131C35.7616 66.7561 35.708 66.709 35.6863 66.6888C35.6594 66.6638 35.5814 66.5845 35.4754 66.3708L31.8918 68.1479ZM34.5168 70.561L33.1192 74.3089C35.229 75.0956 37.9367 75.2543 41.311 74.5549L40.4993 70.6381L39.6875 66.7214C37.3364 67.2086 36.2347 66.9325 35.9145 66.8131L34.5168 70.561ZM40.4993 70.6381L41.3663 74.543L41.9513 74.4132L41.0842 70.5083L40.2172 66.6034L39.6322 66.7332L40.4993 70.6381ZM41.0842 70.5083L41.9016 74.4239L42.1027 74.3819L41.2854 70.4663L40.4681 66.5507L40.2669 66.5927L41.0842 70.5083ZM41.2854 70.4663L42.0031 74.4013C42.0055 74.4009 42.005 74.4012 42.0027 74.4012C42.0005 74.4011 41.9986 74.4009 41.9972 74.4006C41.9951 74.4002 41.9969 74.4002 42.0004 74.4025C42.0037 74.4047 42.0038 74.4057 42.0019 74.4031C42.0009 74.4016 41.9999 74.3999 41.9992 74.3984C41.9985 74.3968 41.9991 74.3977 42.0003 74.4026L45.8938 73.4858L49.7873 72.569C48.8063 68.4027 44.7346 65.7712 40.5677 66.5312L41.2854 70.4663ZM45.8938 73.4858L42.0001 74.4019C42.0013 74.4068 42.0011 74.4079 42.001 74.4061C42.001 74.4044 42.0011 74.4024 42.0014 74.4005C42.0019 74.3973 42.0023 74.3981 42.0003 74.4015C41.9982 74.405 41.9967 74.4059 41.9984 74.4046C41.9994 74.4038 42.001 74.4027 42.0029 74.4017C42.0049 74.4007 42.0054 74.4007 42.0031 74.4014L43.1155 78.2436L44.2279 82.0858C48.2961 80.908 50.768 76.7372 49.7875 72.5697L45.8938 73.4858ZM43.1155 78.2436L42.0919 74.3768L41.8927 74.4295L42.9163 78.2963L43.9398 82.1632L44.139 82.1104L43.1155 78.2436ZM42.9163 78.2963L42.0552 74.3901L41.2711 74.563L42.1321 78.4692L42.9931 82.3754L43.7773 82.2026L42.9163 78.2963ZM42.1321 78.4692L41.3197 74.5526C37.9323 75.2552 35.2272 75.0956 33.1187 74.3092L31.7209 78.0571L30.3232 81.8049C34.2267 83.2607 38.54 83.2994 42.9445 82.3858L42.1321 78.4692ZM31.7209 78.0571L33.1187 74.3093C30.8695 73.4704 29.2962 71.9165 28.3085 69.9246L24.7249 71.7016L21.1412 73.4786C22.9492 77.1246 26.0003 80.1927 30.3232 81.8049L31.7209 78.0571ZM24.7249 71.7016L28.3085 69.9247C26.3363 65.9473 26.7035 60.2269 28.6786 54.9991L24.9368 53.5854L21.1949 52.1717C18.8226 58.4509 17.7817 66.7033 21.1412 73.4786L24.7249 71.7016ZM24.9368 53.5854L28.6783 55C28.6803 54.9947 28.6813 54.9936 28.6803 54.9951C28.6795 54.9965 28.6781 54.9983 28.6764 55.0001L25.7502 52.2729L22.8241 49.5457C22.1305 50.2899 21.5715 51.1756 21.1952 52.1708L24.9368 53.5854ZM25.7502 52.2729L29.5156 50.9232C29.1853 50.0016 29.0113 49.0568 29.001 48.0914L25.0012 48.1342L21.0014 48.1771C21.0217 50.0651 21.3645 51.8921 21.9848 53.6226L25.7502 52.2729ZM25.0012 48.1342L22.7765 44.81C20.3852 46.4103 18.3176 48.2479 16.787 50.43L20.0618 52.727L23.3365 55.024C24.1403 53.878 25.3876 52.6888 27.226 51.4585L25.0012 48.1342ZM20.0618 52.727L16.7869 50.4302C13.9063 54.5373 13.005 59.7821 15.2426 66.8275L19.0549 65.6167L22.8673 64.4059C21.2397 59.2811 22.1436 56.7249 23.3366 55.0238L20.0618 52.727ZM19.0549 65.6167L15.2559 66.8685L15.4521 67.4642L19.2512 66.2124L23.0503 64.9605L22.854 64.3648L19.0549 65.6167ZM19.2512 66.2124L15.4273 67.386L15.4878 67.5833L19.3118 66.4096L23.1357 65.2359L23.0752 65.0387L19.2512 66.2124ZM19.3118 66.4096L15.4642 67.5034C15.4649 67.5058 15.4646 67.5055 15.4644 67.5032C15.4642 67.5012 15.4643 67.4993 15.4645 67.498C15.4647 67.496 15.4647 67.4977 15.4629 67.5013C15.4611 67.5047 15.4602 67.5047 15.4628 67.5024C15.4643 67.5011 15.466 67.4999 15.4675 67.4991C15.4691 67.4981 15.4683 67.4989 15.4635 67.5005L16.7512 71.2876L18.0389 75.0746C22.0928 73.6962 24.3171 69.3889 23.1593 65.3159L19.3118 66.4096ZM16.7512 71.2876L15.4638 67.5004C15.459 67.502 15.458 67.5019 15.4599 67.5017C15.4616 67.5014 15.4637 67.5014 15.4657 67.5015C15.4692 67.5017 15.4685 67.5022 15.465 67.5006C15.4614 67.499 15.4605 67.4976 15.4618 67.499C15.4628 67.5 15.4639 67.5014 15.465 67.5031C15.4662 67.505 15.4662 67.5054 15.4652 67.503L11.7483 68.9809L8.03133 70.4588C9.5958 74.3935 13.9843 76.4529 18.0386 75.0747L16.7512 71.2876ZM11.7483 68.9809L15.4991 67.591L15.4278 67.3987L11.677 68.7885L7.92624 70.1784L7.99752 70.3708L11.7483 68.9809ZM11.677 68.7885L15.4779 67.5423L15.224 66.7679L11.4231 68.0141L7.62218 69.2603L7.87608 70.0347L11.677 68.7885ZM11.4231 68.0141L15.2368 66.8076C13.0189 59.7974 13.8896 54.5609 16.7868 50.4301L13.512 48.1333L10.2371 45.8364C5.63528 52.3977 4.79635 60.3292 7.60941 69.2207L11.4231 68.0141ZM13.512 48.1333L16.7867 50.4302C19.7738 46.1714 24.9083 43.1038 30.9877 40.5008L29.4133 36.8237L27.8389 33.1466C21.449 35.8825 14.5597 39.6737 10.2372 45.8363L13.512 48.1333ZM29.4133 36.8237L30.9877 40.5008C30.9946 40.4979 30.9964 40.4979 30.9939 40.4984C30.9917 40.4988 30.9885 40.4991 30.985 40.4989L31.1516 36.5024L31.3182 32.5059C30.152 32.4573 28.9638 32.6649 27.8389 33.1466L29.4133 36.8237ZM31.1516 36.5024L33.6552 39.622C34.2457 39.1482 34.8904 38.6943 35.5868 38.2653L33.4885 34.8598L31.3903 31.4543C30.4276 32.0475 29.5104 32.6907 28.648 33.3828L31.1516 36.5024ZM33.4885 34.8598L37.4728 34.505C37.4713 34.4891 37.4719 34.4885 37.4719 34.5003L33.4719 34.5004L29.4719 34.5006C29.4719 34.7546 29.4846 34.9937 29.5043 35.2147L33.4885 34.8598ZM33.4719 34.5004L37.4719 34.5004C37.4719 28.9648 34.9441 23.99 29.4717 22.0001L28.1047 25.7592L26.7378 29.5184C28.2841 30.0807 29.4719 31.4354 29.4719 34.5005L33.4719 34.5004ZM28.1047 25.7592L29.4722 22.0002L29.4723 22.0002L25.7131 20.6333L21.954 19.2663C20.4442 23.418 22.5854 28.0079 26.7373 29.5183L28.1047 25.7592ZM25.7131 20.6333L29.4722 22.0005L29.4723 22.0009L30.8391 18.2417L32.2059 14.4824C28.0545 12.973 23.4644 15.1136 21.9541 19.266L25.7131 20.6333ZM30.8391 18.2417L29.4721 22.0008C34.2083 23.7232 36.6692 27.6104 37.3077 32.1538L41.2688 31.5971L45.2299 31.0404C44.2697 24.2083 40.2832 17.4198 32.2062 14.4825L30.8391 18.2417ZM41.2688 31.5971L42.2786 35.4676C44.6609 34.846 47.2631 34.5004 49.9993 34.5004V30.5004V26.5004C46.5937 26.5004 43.3124 26.9301 40.259 27.7267L41.2688 31.5971ZM49.9993 30.5004L49.9992 34.5004C52.7262 34.5005 55.3199 34.8439 57.6959 35.4616L58.7024 31.5903L59.7089 27.719C56.6643 26.9275 53.3937 26.5005 49.9993 26.5004L49.9993 30.5004ZM58.7024 31.5903L62.6633 32.1483C63.3029 27.6077 65.7642 23.7227 70.4991 22.0008L69.1321 18.2417L67.765 14.4825C59.6917 17.4185 55.7037 24.2022 54.7415 31.0323L58.7024 31.5903Z" fill="#301446" mask="url(#path-1-outside-1_21_227)"/>
<mask id="mask0_21_227" style="mask-type:alpha" maskUnits="userSpaceOnUse" x="10" y="17" width="80" height="63">
<path d="M69.1316 18.2416C71.2076 17.4867 73.5025 18.5574 74.2576 20.6332C75.0125 22.7093 73.9419 25.0041 71.866 25.7592C68.3568 27.0354 66.4988 30.2002 66.4988 34.5004C66.4988 34.6163 66.4928 34.7308 66.4832 34.8442C67.1105 35.2296 67.7097 35.6369 68.2791 36.0639C69.0365 35.9241 69.8424 36.0031 70.6013 36.3344C76.8353 39.0572 82.8343 42.5526 86.4753 47.8481C90.1972 53.2612 91.0484 59.9188 88.5476 67.9809L88.2957 68.7651L88.2253 68.9594C87.4551 70.9298 85.2659 71.9717 83.2361 71.2953C81.206 70.6185 80.0787 68.4708 80.6453 66.4321L80.7058 66.2358L80.9021 65.6254C82.8429 59.3911 81.9384 55.3702 79.8826 52.3803C78.7225 50.6932 77.082 49.161 74.9939 47.7289C74.9959 47.8193 74.9988 47.9097 74.9988 48.0004C74.9988 49.4738 74.7367 50.9039 74.2468 52.2709C74.548 52.5935 74.8005 52.9703 74.9861 53.395L75.0632 53.5864L75.2634 54.1293C77.2783 59.775 77.8578 66.4944 75.2752 71.7026C73.8773 74.5212 71.5649 76.8325 68.2791 78.058C65.2731 79.1789 61.7637 79.2782 57.8679 78.4701L57.0837 78.2973L56.8845 78.2446C54.852 77.6562 53.6164 75.5697 54.1062 73.4867C54.5965 71.4037 56.6329 70.0875 58.7146 70.4672L58.9158 70.5092L59.5007 70.6391C62.3631 71.2323 64.2682 71.0149 65.4832 70.5619C66.6991 70.1085 67.5324 69.3096 68.1082 68.1489C69.0826 66.1838 69.2936 63.1353 68.5593 59.7231C63.9841 63.2702 57.3636 65.5004 49.9988 65.5004C42.6345 65.5003 36.0144 63.2708 31.4392 59.7241C30.7052 63.1358 30.9171 66.1841 31.8914 68.1489C32.4671 69.3097 33.3005 70.1084 34.5164 70.5619C35.7313 71.015 37.6363 71.2323 40.4988 70.6391L41.0837 70.5092L41.2849 70.4672C43.3667 70.0873 45.403 71.4036 45.8933 73.4867C46.3833 75.5699 45.1477 77.6563 43.115 78.2446L42.9158 78.2973L42.1316 78.4701C38.2358 79.2781 34.7264 79.1791 31.7205 78.058C28.4346 76.8325 26.1222 74.5213 24.7244 71.7026C22.0584 66.3263 22.7627 59.3399 24.9363 53.5864C25.126 53.0844 25.4062 52.6425 25.7507 52.2729C25.2605 50.9054 24.9988 49.4743 24.9988 48.0004C24.9988 47.9045 25.0015 47.8088 25.0037 47.7133C22.9047 49.1498 21.2559 50.6871 20.0916 52.3803C18.0359 55.3702 17.1313 59.3913 19.072 65.6254L19.2683 66.2358L19.3289 66.4321C19.8956 68.471 18.7684 70.6186 16.738 71.2953C14.7082 71.9714 12.5188 70.9299 11.7488 68.9594L11.6785 68.7651L11.4265 67.9809C8.92575 59.9189 9.77709 53.2612 13.4988 47.8481C17.1398 42.5527 23.139 39.0572 29.3728 36.3344C30.1372 36.0006 30.9495 35.9249 31.7117 36.0688C32.2753 35.6457 32.8685 35.2421 33.489 34.8598C33.4785 34.7414 33.4724 34.6215 33.4724 34.5004C33.4724 30.2002 31.6145 27.0354 28.1052 25.7592C26.0293 25.0041 24.9587 22.7093 25.7136 20.6332C26.4688 18.5575 28.7637 17.4867 30.8396 18.2416C37.246 20.5714 40.4689 25.9095 41.2683 31.5971C43.9862 30.888 46.9279 30.5004 49.9988 30.5004C53.0597 30.5004 55.9924 30.8856 58.7029 31.5903C59.5038 25.9051 62.7277 20.5706 69.1316 18.2416Z" fill="#C100F1"/>
</mask>
<g mask="url(#mask0_21_227)">
<rect x="5" y="3.00006" width="90" height="90" fill="#C100F1"/>
<rect x="67.991" y="-14.9999" width="19.8289" height="131.402" transform="rotate(31.6706 67.991 -14.9999)" fill="#F532FF"/>
<rect x="94.991" y="1.50006" width="7.81298" height="131.402" transform="rotate(31.6706 94.991 1.50006)" fill="#F532FF"/>
</g>
<circle cx="36.999" cy="45.5004" r="5" fill="#301446"/>
<circle cx="62.999" cy="45.5004" r="5" fill="#301446"/>
</svg>
