<svg width="100" height="100" viewBox="0 0 100 100" fill="none" xmlns="http://www.w3.org/2000/svg">
<mask id="path-1-outside-1_21_227" maskUnits="userSpaceOnUse" x="5.98901" y="12.999" width="88" height="71" fill="black">
<rect fill="white" x="5.98901" y="12.999" width="88" height="71"/>
<path d="M69.3271 18.1755C71.3498 17.5539 73.5262 18.6217 74.2578 20.6326C74.9892 22.6438 74.0072 24.8604 72.0576 25.6834L71.8662 25.7585C68.357 27.0347 66.4991 30.1996 66.499 34.4998C66.499 34.6158 66.4931 34.731 66.4834 34.8445C67.322 35.3597 68.1112 35.9131 68.8447 36.5017C69.3989 36.4815 69.9666 36.5764 70.5127 36.8015C76.731 39.3654 82.7506 42.6665 86.4219 47.7068C90.2166 52.9167 91.0783 59.352 88.54 67.0798L88.2842 67.8318L88.2109 68.0242C87.4063 69.9812 85.1985 70.9834 83.1807 70.2712C81.1627 69.5587 80.0742 67.3925 80.6768 65.364L80.7402 65.1677L80.9336 64.6013C82.8436 58.8127 81.9469 55.1515 79.9551 52.4168C78.7902 50.8176 77.1265 49.3604 74.998 47.9929C74.998 47.9954 74.999 47.9983 74.999 48.0007C74.999 49.4738 74.7367 50.9035 74.2471 52.2703C74.5927 52.6404 74.8734 53.0826 75.0635 53.5857L73.3682 54.2253V54.2263L75.0635 53.5857C77.2372 59.3393 77.9414 66.3255 75.2754 71.7019C73.8776 74.5207 71.5653 76.8318 68.2793 78.0574C65.2733 79.1784 61.764 79.2776 57.8682 78.4695L57.084 78.2966L56.8848 78.2439C54.8521 77.6555 53.6164 75.5692 54.1064 73.4861C54.5967 71.403 56.6331 70.0868 58.7148 70.4666L58.916 70.5085L59.501 70.6384C62.3636 71.2317 64.2684 71.0143 65.4834 70.5613C66.6994 70.1078 67.5326 69.3092 68.1084 68.1482C69.0827 66.1833 69.2937 63.1354 68.5596 59.7234C63.9843 63.2705 57.3638 65.5007 49.999 65.5007C42.6348 65.5007 36.0147 63.271 31.4395 59.7244C30.7056 63.1358 30.9174 66.1835 31.8916 68.1482C32.4673 69.3091 33.3006 70.1077 34.5166 70.5613C35.7315 71.0144 37.6364 71.2317 40.499 70.6384L41.084 70.5085L41.2852 70.4666C43.367 70.0867 45.4032 71.403 45.8936 73.4861C46.3837 75.5693 45.148 77.6556 43.1152 78.2439L42.916 78.2966L42.1318 78.4695C38.236 79.2775 34.7267 79.1784 31.7207 78.0574C28.4348 76.8318 26.1224 74.5207 24.7246 71.7019C22.0587 66.3256 22.7628 59.3392 24.9365 53.5857L26.6289 54.2253V54.2244L24.9365 53.5857C25.1262 53.0839 25.4065 52.6428 25.751 52.2732C25.2757 50.9474 25.0164 49.562 25.001 48.1355C22.8865 49.5507 21.2286 51.0625 20.0615 52.7263C18.0246 55.6304 17.1221 59.5309 19.0547 65.616L19.251 66.2117L19.3115 66.4089C19.8903 68.4443 18.7771 70.5979 16.751 71.2869C14.7248 71.9756 12.5297 70.9467 11.748 68.9802L11.6768 68.7878L11.4229 68.0134C8.90748 60.0626 9.76207 53.4786 13.5117 48.1326C17.1665 42.9219 23.1784 39.4925 29.4131 36.823C29.9806 36.58 30.5732 36.4786 31.1514 36.5027C31.878 35.9195 32.6595 35.3713 33.4893 34.8601C33.4787 34.7417 33.4717 34.6219 33.4717 34.5007C33.4717 30.2004 31.6139 27.0357 28.1045 25.7595C26.0288 25.0044 24.9582 22.7094 25.7129 20.6335C26.4679 18.5577 28.7629 17.4872 30.8389 18.2419C37.2456 20.5718 40.4692 25.9096 41.2686 31.5974C43.9865 30.8883 46.9281 30.5007 49.999 30.5007C53.0601 30.5007 55.9925 30.8858 58.7031 31.5906C59.5039 25.9052 62.7276 20.57 69.1318 18.241L69.3271 18.1755Z"/>
</mask>
<path d="M69.3271 18.1755C71.3498 17.5539 73.5262 18.6217 74.2578 20.6326C74.9892 22.6438 74.0072 24.8604 72.0576 25.6834L71.8662 25.7585C68.357 27.0347 66.4991 30.1996 66.499 34.4998C66.499 34.6158 66.4931 34.731 66.4834 34.8445C67.322 35.3597 68.1112 35.9131 68.8447 36.5017C69.3989 36.4815 69.9666 36.5764 70.5127 36.8015C76.731 39.3654 82.7506 42.6665 86.4219 47.7068C90.2166 52.9167 91.0783 59.352 88.54 67.0798L88.2842 67.8318L88.2109 68.0242C87.4063 69.9812 85.1985 70.9834 83.1807 70.2712C81.1627 69.5587 80.0742 67.3925 80.6768 65.364L80.7402 65.1677L80.9336 64.6013C82.8436 58.8127 81.9469 55.1515 79.9551 52.4168C78.7902 50.8176 77.1265 49.3604 74.998 47.9929C74.998 47.9954 74.999 47.9983 74.999 48.0007C74.999 49.4738 74.7367 50.9035 74.2471 52.2703C74.5927 52.6404 74.8734 53.0826 75.0635 53.5857L73.3682 54.2253V54.2263L75.0635 53.5857C77.2372 59.3393 77.9414 66.3255 75.2754 71.7019C73.8776 74.5207 71.5653 76.8318 68.2793 78.0574C65.2733 79.1784 61.764 79.2776 57.8682 78.4695L57.084 78.2966L56.8848 78.2439C54.8521 77.6555 53.6164 75.5692 54.1064 73.4861C54.5967 71.403 56.6331 70.0868 58.7148 70.4666L58.916 70.5085L59.501 70.6384C62.3636 71.2317 64.2684 71.0143 65.4834 70.5613C66.6994 70.1078 67.5326 69.3092 68.1084 68.1482C69.0827 66.1833 69.2937 63.1354 68.5596 59.7234C63.9843 63.2705 57.3638 65.5007 49.999 65.5007C42.6348 65.5007 36.0147 63.271 31.4395 59.7244C30.7056 63.1358 30.9174 66.1835 31.8916 68.1482C32.4673 69.3091 33.3006 70.1077 34.5166 70.5613C35.7315 71.0144 37.6364 71.2317 40.499 70.6384L41.084 70.5085L41.2852 70.4666C43.367 70.0867 45.4032 71.403 45.8936 73.4861C46.3837 75.5693 45.148 77.6556 43.1152 78.2439L42.916 78.2966L42.1318 78.4695C38.236 79.2775 34.7267 79.1784 31.7207 78.0574C28.4348 76.8318 26.1224 74.5207 24.7246 71.7019C22.0587 66.3256 22.7628 59.3392 24.9365 53.5857L26.6289 54.2253V54.2244L24.9365 53.5857C25.1262 53.0839 25.4065 52.6428 25.751 52.2732C25.2757 50.9474 25.0164 49.562 25.001 48.1355C22.8865 49.5507 21.2286 51.0625 20.0615 52.7263C18.0246 55.6304 17.1221 59.5309 19.0547 65.616L19.251 66.2117L19.3115 66.4089C19.8903 68.4443 18.7771 70.5979 16.751 71.2869C14.7248 71.9756 12.5297 70.9467 11.748 68.9802L11.6768 68.7878L11.4229 68.0134C8.90748 60.0626 9.76207 53.4786 13.5117 48.1326C17.1665 42.9219 23.1784 39.4925 29.4131 36.823C29.9806 36.58 30.5732 36.4786 31.1514 36.5027C31.878 35.9195 32.6595 35.3713 33.4893 34.8601C33.4787 34.7417 33.4717 34.6219 33.4717 34.5007C33.4717 30.2004 31.6139 27.0357 28.1045 25.7595C26.0288 25.0044 24.9582 22.7094 25.7129 20.6335C26.4679 18.5577 28.7629 17.4872 30.8389 18.2419C37.2456 20.5718 40.4692 25.9096 41.2686 31.5974C43.9865 30.8883 46.9281 30.5007 49.999 30.5007C53.0601 30.5007 55.9925 30.8858 58.7031 31.5906C59.5039 25.9052 62.7276 20.57 69.1318 18.241L69.3271 18.1755Z" fill="#C100F1"/>
<path d="M69.3271 18.1755L68.152 14.3521C68.1201 14.3619 68.0882 14.3721 68.0565 14.3827L69.3271 18.1755ZM74.2578 20.6326L78.017 19.2656L78.0167 19.2649L74.2578 20.6326ZM72.0576 25.6834L73.5202 29.4064C73.5514 29.3941 73.5824 29.3815 73.6132 29.3685L72.0576 25.6834ZM71.8662 25.7585L73.2332 29.5177C73.2652 29.5061 73.2971 29.494 73.3288 29.4816L71.8662 25.7585ZM66.499 34.4998L70.499 34.4999V34.4999L66.499 34.4998ZM66.4834 34.8445L62.4979 34.5044C62.3693 36.0109 63.1012 37.461 64.3893 38.2526L66.4834 34.8445ZM68.8447 36.5017L66.3414 39.6215C67.0904 40.2226 68.0307 40.534 68.9905 40.4991L68.8447 36.5017ZM70.5127 36.8015L72.0374 33.1035L72.0371 33.1034L70.5127 36.8015ZM86.4219 47.7068L89.6551 45.3518L89.6551 45.3517L86.4219 47.7068ZM88.54 67.0798L92.3268 68.3683C92.3314 68.3549 92.3359 68.3415 92.3403 68.3281L88.54 67.0798ZM88.2842 67.8318L92.0224 69.255C92.0394 69.2104 92.0556 69.1655 92.071 69.1203L88.2842 67.8318ZM88.2109 68.0242L91.9104 69.5453C91.9238 69.5128 91.9367 69.4802 91.9492 69.4474L88.2109 68.0242ZM83.1807 70.2712L81.8489 74.043L81.8495 74.0432L83.1807 70.2712ZM80.6768 65.364L76.8708 64.1332C76.861 64.1637 76.8515 64.1943 76.8423 64.2251L80.6768 65.364ZM80.7402 65.1677L76.9547 63.8754C76.9478 63.8959 76.9409 63.9164 76.9343 63.937L80.7402 65.1677ZM80.9336 64.6013L84.7191 65.8936C84.7235 65.8807 84.7279 65.8677 84.7321 65.8547L80.9336 64.6013ZM79.9551 52.4168L83.1884 50.0618L83.1882 50.0616L79.9551 52.4168ZM74.998 47.9929L77.1602 44.6276C75.9289 43.8366 74.364 43.7811 73.0798 44.4829C71.7956 45.1847 70.9972 46.5318 70.998 47.9953L74.998 47.9929ZM74.999 48.0007L78.999 48.0009V48.0007H74.999ZM74.2471 52.2703L70.4814 50.9212C69.9763 52.3313 70.3012 53.9054 71.3235 55.0002L74.2471 52.2703ZM75.0635 53.5857L78.8053 52.172L78.8052 52.1715L75.0635 53.5857ZM73.3682 54.2253L71.9561 50.4829C70.3988 51.0704 69.3682 52.5609 69.3682 54.2253H73.3682ZM73.3682 54.2263H69.3682C69.3682 55.54 70.0132 56.77 71.0939 57.5169C72.1746 58.2638 73.5532 58.4325 74.7821 57.9681L73.3682 54.2263ZM75.2754 71.7019L78.859 73.479L78.859 73.4789L75.2754 71.7019ZM68.2793 78.0574L69.677 81.8052L69.6771 81.8052L68.2793 78.0574ZM57.8682 78.4695L57.0071 82.3757C57.0233 82.3793 57.0395 82.3828 57.0558 82.3861L57.8682 78.4695ZM57.084 78.2966L56.0604 82.1635C56.1143 82.1777 56.1685 82.1909 56.223 82.2029L57.084 78.2966ZM56.8848 78.2439L55.7725 82.0862C55.802 82.0947 55.8315 82.1029 55.8612 82.1107L56.8848 78.2439ZM54.1064 73.4861L50.2128 72.5697L50.2127 72.5701L54.1064 73.4861ZM58.7148 70.4666L59.5322 66.5509C59.4991 66.544 59.4659 66.5376 59.4327 66.5315L58.7148 70.4666ZM58.916 70.5085L59.783 66.6036C59.7665 66.6 59.7499 66.5964 59.7333 66.5929L58.916 70.5085ZM59.501 70.6384L58.6339 74.5433C58.6523 74.5474 58.6708 74.5514 58.6892 74.5552L59.501 70.6384ZM65.4834 70.5613L66.8809 74.3092L66.8811 74.3091L65.4834 70.5613ZM68.1084 68.1482L71.6919 69.9254L71.692 69.9252L68.1084 68.1482ZM68.5596 59.7234L72.4701 58.882C72.1809 57.5379 71.2216 56.4365 69.93 55.9655C68.6383 55.4944 67.1953 55.7198 66.1087 56.5622L68.5596 59.7234ZM49.999 65.5007V69.5007V65.5007ZM31.4395 59.7244L33.8901 56.563C32.8035 55.7207 31.3604 55.4954 30.0688 55.9665C28.7772 56.4376 27.818 57.5391 27.5289 58.8832L31.4395 59.7244ZM31.8916 68.1482L28.308 69.9252L28.3081 69.9253L31.8916 68.1482ZM34.5166 70.5613L33.1187 74.3091L33.1189 74.3092L34.5166 70.5613ZM40.499 70.6384L41.3107 74.5552C41.3292 74.5514 41.3476 74.5474 41.3661 74.5433L40.499 70.6384ZM41.084 70.5085L40.2666 66.5929C40.2501 66.5964 40.2335 66.6 40.217 66.6036L41.084 70.5085ZM41.2852 70.4666L40.5671 66.5315C40.5339 66.5376 40.5008 66.5441 40.4678 66.5509L41.2852 70.4666ZM45.8936 73.4861L49.7872 72.57L49.7872 72.5696L45.8936 73.4861ZM43.1152 78.2439L44.1388 82.1107C44.1684 82.1029 44.1979 82.0947 44.2273 82.0862L43.1152 78.2439ZM42.916 78.2966L43.777 82.2029C43.8315 82.1909 43.8857 82.1777 43.9396 82.1635L42.916 78.2966ZM42.1318 78.4695L42.9442 82.3861C42.9604 82.3828 42.9767 82.3793 42.9929 82.3757L42.1318 78.4695ZM31.7207 78.0574L30.3229 81.8052L30.323 81.8052L31.7207 78.0574ZM24.7246 71.7019L21.141 73.4789L21.141 73.4789L24.7246 71.7019ZM24.9365 53.5857L21.1948 52.1716L21.1947 52.172L24.9365 53.5857ZM26.6289 54.2253L25.2147 57.967C26.4436 58.4315 27.8223 58.2629 28.903 57.516C29.9838 56.7691 30.6289 55.5391 30.6289 54.2253H26.6289ZM26.6289 54.2244H30.6289C30.6289 52.56 29.5983 51.0696 28.0412 50.482L26.6289 54.2244ZM25.751 52.2732L28.6772 55.0004C29.6977 53.9054 30.0214 52.3323 29.5163 50.9233L25.751 52.2732ZM25.001 48.1355L29.0007 48.0923C28.9849 46.6236 28.1654 45.2818 26.8661 44.597C25.5668 43.9121 23.9967 43.9944 22.7761 44.8113L25.001 48.1355ZM20.0615 52.7263L16.7868 50.4293L16.7868 50.4294L20.0615 52.7263ZM19.0547 65.616L15.2423 66.8267C15.2467 66.8404 15.2511 66.8541 15.2556 66.8678L19.0547 65.616ZM19.251 66.2117L23.0749 65.038C23.0669 65.0119 23.0586 64.9858 23.05 64.9599L19.251 66.2117ZM19.3115 66.4089L23.159 65.3148C23.1514 65.2882 23.1436 65.2617 23.1355 65.2353L19.3115 66.4089ZM16.751 71.2869L18.0384 75.074L18.0386 75.0739L16.751 71.2869ZM11.748 68.9802L7.99728 70.3701C8.00816 70.3995 8.01938 70.4287 8.03094 70.4578L11.748 68.9802ZM11.6768 68.7878L7.87584 70.034C7.89164 70.0823 7.90836 70.1302 7.92599 70.1777L11.6768 68.7878ZM11.4229 68.0134L7.60915 69.22C7.61334 69.2332 7.6176 69.2464 7.62193 69.2596L11.4229 68.0134ZM13.5117 48.1326L10.237 45.8356L10.2369 45.8357L13.5117 48.1326ZM29.4131 36.823L27.8387 33.1459L27.8387 33.1459L29.4131 36.823ZM31.1514 36.5027L30.985 40.4992C31.9518 40.5395 32.9004 40.2279 33.655 39.6223L31.1514 36.5027ZM33.4893 34.8601L35.5874 38.2656C36.8778 37.4706 37.608 36.0146 37.4735 34.5049L33.4893 34.8601ZM33.4717 34.5007H29.4717V34.5011L33.4717 34.5007ZM28.1045 25.7595L26.737 29.5185L26.7375 29.5187L28.1045 25.7595ZM25.7129 20.6335L21.9538 19.2663L21.9536 19.2669L25.7129 20.6335ZM30.8389 18.2419L32.2059 14.4828L32.2056 14.4827L30.8389 18.2419ZM41.2686 31.5974L37.3075 32.1541C37.4663 33.2842 38.1003 34.2926 39.0498 34.9257C39.9994 35.5587 41.1741 35.756 42.2784 35.4678L41.2686 31.5974ZM49.999 30.5007V26.5007V30.5007ZM58.7031 31.5906L57.6966 35.4619C58.8003 35.7488 59.974 35.5511 60.9227 34.9182C61.8715 34.2854 62.505 33.2778 62.664 32.1485L58.7031 31.5906ZM69.1318 18.241L67.8612 14.4481C67.8289 14.459 67.7968 14.4702 67.7648 14.4818L69.1318 18.241ZM69.3271 18.1755L70.5023 21.999C70.5046 21.9983 70.5043 21.9986 70.5019 21.9989C70.4998 21.9991 70.4978 21.9991 70.4964 21.9989C70.4942 21.9987 70.4958 21.9986 70.4993 22.0003C70.5027 22.002 70.5028 22.0029 70.5005 22.0004C70.4993 21.9991 70.4981 21.9975 70.4973 21.9961C70.4963 21.9945 70.4971 21.9954 70.4989 22.0002L74.2578 20.6326L78.0167 19.2649C76.5532 15.2424 72.201 13.1076 68.152 14.3521L69.3271 18.1755ZM74.2578 20.6326L70.4986 21.9995C70.5004 22.0044 70.5004 22.0056 70.5001 22.0038C70.4998 22.0022 70.4997 22.0002 70.4998 21.9983C70.4999 21.995 70.5004 21.9957 70.4989 21.9991C70.4974 22.0027 70.496 22.0036 70.4976 22.0021C70.4986 22.0011 70.5001 21.9998 70.5019 21.9986C70.5038 21.9973 70.5043 21.9973 70.502 21.9982L72.0576 25.6834L73.6132 29.3685C77.5158 27.7211 79.48 23.2888 78.017 19.2656L74.2578 20.6326ZM72.0576 25.6834L70.595 21.9603L70.4036 22.0355L71.8662 25.7585L73.3288 29.4816L73.5202 29.4064L72.0576 25.6834ZM71.8662 25.7585L70.4992 21.9994C65.027 23.9894 62.4992 28.9643 62.499 34.4997L66.499 34.4998L70.499 34.4999C70.4991 31.4349 71.687 30.08 73.2332 29.5177L71.8662 25.7585ZM66.499 34.4998L62.499 34.4996C62.499 34.4896 62.4993 34.4848 62.4992 34.4857C62.4992 34.4867 62.4989 34.4927 62.4979 34.5044L66.4834 34.8445L70.4689 35.1845C70.4862 34.9818 70.499 34.7511 70.499 34.4999L66.499 34.4998ZM66.4834 34.8445L64.3893 38.2526C65.0937 38.6853 65.7453 39.1432 66.3414 39.6215L68.8447 36.5017L71.3481 33.3819C70.4771 32.683 69.5503 32.0342 68.5775 31.4364L66.4834 34.8445ZM68.8447 36.5017L68.9905 40.4991C68.9898 40.4991 68.9882 40.499 68.9863 40.4987C68.9841 40.4983 68.9844 40.4981 68.9883 40.4997L70.5127 36.8015L72.0371 33.1034C70.9495 32.6551 69.811 32.4638 68.699 32.5044L68.8447 36.5017ZM70.5127 36.8015L68.988 40.4995C75.0666 43.0058 80.2014 45.9606 83.1886 50.0618L86.4219 47.7068L89.6551 45.3517C85.2998 39.3723 78.3954 35.725 72.0374 33.1035L70.5127 36.8015ZM86.4219 47.7068L83.1886 50.0618C86.0866 54.0406 86.9566 59.0827 84.7398 65.8316L88.54 67.0798L92.3403 68.3281C95.2001 59.6213 94.3465 51.7928 89.6551 45.3518L86.4219 47.7068ZM88.54 67.0798L84.7533 65.7913L84.4974 66.5433L88.2842 67.8318L92.071 69.1203L92.3268 68.3683L88.54 67.0798ZM88.2842 67.8318L84.5459 66.4086L84.4727 66.601L88.2109 68.0242L91.9492 69.4474L92.0224 69.255L88.2842 67.8318ZM88.2109 68.0242L84.5114 66.5031C84.5106 66.5052 84.5106 66.5046 84.512 66.5026C84.5132 66.5007 84.5145 66.4991 84.5156 66.4981C84.5172 66.4964 84.5163 66.4978 84.5126 66.4995C84.509 66.5011 84.5081 66.5006 84.5111 66.5005C84.5129 66.5004 84.5148 66.5005 84.5163 66.5007C84.518 66.5009 84.5167 66.501 84.5119 66.4993L83.1807 70.2712L81.8495 74.0432C85.8846 75.4673 90.2992 73.464 91.9104 69.5453L88.2109 68.0242ZM83.1807 70.2712L84.5125 66.4995C84.5076 66.4977 84.5067 66.4969 84.5082 66.4979C84.5096 66.4987 84.5112 66.4998 84.5126 66.5011C84.515 66.5033 84.5142 66.5032 84.5124 66.4998C84.5107 66.4963 84.5108 66.4948 84.511 66.497C84.5112 66.4984 84.5112 66.5004 84.511 66.5026C84.5108 66.5049 84.5105 66.5053 84.5112 66.503L80.6768 65.364L76.8423 64.2251C75.6361 68.2859 77.8125 72.6178 81.8489 74.043L83.1807 70.2712ZM80.6768 65.364L84.4827 66.5948L84.5462 66.3985L80.7402 65.1677L76.9343 63.937L76.8708 64.1332L80.6768 65.364ZM80.7402 65.1677L84.5257 66.46L84.7191 65.8936L80.9336 64.6013L77.1481 63.309L76.9547 63.8754L80.7402 65.1677ZM80.9336 64.6013L84.7321 65.8547C86.9727 59.0643 86.0666 54.0135 83.1884 50.0618L79.9551 52.4168L76.7218 54.7717C77.8272 56.2894 78.7145 58.5611 77.135 63.3479L80.9336 64.6013ZM79.9551 52.4168L83.1882 50.0616C81.6442 47.9419 79.5579 46.1681 77.1602 44.6276L74.998 47.9929L72.8359 51.3582C74.6951 52.5527 75.9362 53.6933 76.7219 54.7719L79.9551 52.4168ZM74.998 47.9929L70.998 47.9953C70.9981 48.0606 70.9997 48.1212 71.0022 48.1763C71.0048 48.2313 71.0082 48.282 71.012 48.3275C71.0158 48.373 71.0201 48.4144 71.0243 48.451C71.0285 48.4877 71.0328 48.5206 71.0368 48.5491C71.0408 48.5776 71.0446 48.6026 71.0479 48.6235C71.0512 48.6443 71.0542 48.662 71.0565 48.6756C71.0589 48.6891 71.0608 48.7001 71.062 48.7066C71.0626 48.71 71.0631 48.7128 71.0634 48.7144C71.0636 48.7153 71.0637 48.716 71.0638 48.7164C71.0638 48.7167 71.0639 48.7168 71.0639 48.717C71.0639 48.7171 71.0639 48.7172 71.0639 48.7172C71.064 48.7174 71.0638 48.7162 71.0635 48.7148C71.0632 48.7132 71.0627 48.7106 71.0621 48.7074C71.061 48.701 71.0591 48.6904 71.0568 48.6771C71.0545 48.6637 71.0516 48.6462 71.0483 48.6256C71.045 48.605 71.0412 48.5802 71.0373 48.552C71.0334 48.5237 71.0291 48.491 71.0249 48.4546C71.0208 48.4181 71.0165 48.3769 71.0128 48.3317C71.009 48.2864 71.0056 48.236 71.0031 48.1811C71.0006 48.1262 70.999 48.0659 70.999 48.0007H74.999H78.999C78.999 47.9353 78.9974 47.8746 78.9949 47.8194C78.9924 47.7643 78.989 47.7135 78.9852 47.6679C78.9814 47.6223 78.9771 47.5808 78.9729 47.544C78.9687 47.5073 78.9644 47.4742 78.9604 47.4457C78.9565 47.4171 78.9526 47.3919 78.9493 47.371C78.946 47.3501 78.943 47.3323 78.9406 47.3186C78.9383 47.305 78.9363 47.294 78.9351 47.2873C78.9345 47.2839 78.934 47.2811 78.9337 47.2794C78.9335 47.2785 78.9334 47.2778 78.9333 47.2773C78.9332 47.2769 78.9331 47.2765 78.9331 47.2765C78.9331 47.2762 78.9333 47.2774 78.9335 47.2787C78.9338 47.2802 78.9343 47.2828 78.9349 47.286C78.936 47.2923 78.9379 47.3029 78.9402 47.316C78.9425 47.3293 78.9454 47.3467 78.9486 47.3672C78.9519 47.3877 78.9557 47.4124 78.9596 47.4406C78.9635 47.4687 78.9678 47.5013 78.972 47.5377C78.9762 47.574 78.9804 47.6151 78.9842 47.6603C78.9879 47.7055 78.9914 47.7558 78.9939 47.8105C78.9964 47.8653 78.998 47.9255 78.998 47.9905L74.998 47.9929ZM74.999 48.0007L70.999 48.0006C70.999 48.992 70.8236 49.9662 70.4814 50.9212L74.2471 52.2703L78.0127 53.6194C78.6499 51.8408 78.999 49.9555 78.999 48.0009L74.999 48.0007ZM74.2471 52.2703L71.3235 55.0002C71.3224 54.9991 71.3212 54.9975 71.3203 54.9961C71.3193 54.9945 71.32 54.9952 71.3218 54.9999L75.0635 53.5857L78.8052 52.1715C78.4274 51.172 77.8657 50.2846 77.1706 49.5403L74.2471 52.2703ZM75.0635 53.5857L73.6514 49.8432L71.9561 50.4829L73.3682 54.2253L74.7802 57.9678L76.4755 57.3282L75.0635 53.5857ZM73.3682 54.2253H69.3682V54.2263H73.3682H77.3682V54.2253H73.3682ZM73.3682 54.2263L74.7821 57.9681L76.4774 57.3275L75.0635 53.5857L73.6495 49.8439L71.9542 50.4846L73.3682 54.2263ZM75.0635 53.5857L71.3216 54.9994C73.2968 60.2274 73.6641 65.9475 71.6918 69.9249L75.2754 71.7019L78.859 73.4789C82.2187 66.7036 81.1777 58.4512 78.8053 52.172L75.0635 53.5857ZM75.2754 71.7019L71.6918 69.9249C70.7041 71.9167 69.1307 73.4707 66.8815 74.3096L68.2793 78.0574L69.6771 81.8052C73.9999 80.193 77.0511 77.1248 78.859 73.479L75.2754 71.7019ZM68.2793 78.0574L66.8816 74.3095C64.773 75.0958 62.0679 75.2555 58.6806 74.5529L57.8682 78.4695L57.0558 82.3861C61.4602 83.2997 65.7736 83.2609 69.677 81.8052L68.2793 78.0574ZM57.8682 78.4695L58.7292 74.5633L57.945 74.3904L57.084 78.2966L56.223 82.2029L57.0071 82.3757L57.8682 78.4695ZM57.084 78.2966L58.1076 74.4298L57.9083 74.3771L56.8848 78.2439L55.8612 82.1107L56.0604 82.1635L57.084 78.2966ZM56.8848 78.2439L57.997 74.4016C57.9947 74.401 57.9952 74.4009 57.9972 74.402C57.9991 74.403 58.0007 74.4041 58.0018 74.4049C58.0035 74.4062 58.002 74.4054 57.9999 74.4019C57.998 74.3985 57.9984 74.3976 57.9989 74.4009C57.9992 74.4027 57.9993 74.4047 57.9992 74.4064C57.9992 74.4082 57.999 74.4071 58.0001 74.4021L54.1064 73.4861L50.2127 72.5701C49.2324 76.7373 51.7039 80.9084 55.7725 82.0862L56.8848 78.2439ZM54.1064 73.4861L58.0001 74.4025C58.0012 74.3975 58.0019 74.3966 58.0011 74.3983C58.0004 74.3998 57.9994 74.4016 57.9984 74.4031C57.9964 74.4058 57.9964 74.4048 57.9997 74.4027C58.0031 74.4005 58.0048 74.4004 58.0027 74.4008C58.0014 74.4011 57.9994 74.4014 57.9973 74.4014C57.995 74.4014 57.9946 74.4012 57.997 74.4016L58.7148 70.4666L59.4327 66.5315C55.2658 65.7714 51.1936 68.4025 50.2128 72.5697L54.1064 73.4861ZM58.7148 70.4666L57.8975 74.3822L58.0987 74.4242L58.916 70.5085L59.7333 66.5929L59.5322 66.5509L58.7148 70.4666ZM58.916 70.5085L58.049 74.4134L58.6339 74.5433L59.501 70.6384L60.368 66.7335L59.783 66.6036L58.916 70.5085ZM59.501 70.6384L58.6892 74.5552C62.0635 75.2545 64.7713 75.0959 66.8809 74.3092L65.4834 70.5613L64.0859 66.8134C63.7656 66.9328 62.6636 67.2089 60.3127 66.7217L59.501 70.6384ZM65.4834 70.5613L66.8811 74.3091C69.1276 73.4713 70.7028 71.9198 71.6919 69.9254L68.1084 68.1482L64.5249 66.371C64.4189 66.5847 64.3409 66.6641 64.314 66.6891C64.2922 66.7093 64.2385 66.7564 64.0857 66.8134L65.4834 70.5613ZM68.1084 68.1482L71.692 69.9252C73.2194 66.8451 73.308 62.7763 72.4701 58.882L68.5596 59.7234L64.6491 60.5648C65.2794 63.4945 64.9461 65.5215 64.5248 66.3712L68.1084 68.1482ZM68.5596 59.7234L66.1087 56.5622C62.329 59.4925 56.6036 61.5007 49.999 61.5007L49.999 65.5007V69.5007C58.1241 69.5007 65.6396 67.0485 71.0104 62.8846L68.5596 59.7234ZM49.999 65.5007V61.5007C43.3949 61.5007 37.6698 59.4929 33.8901 56.563L31.4395 59.7244L28.9888 62.8857C34.3595 67.0491 41.8747 69.5007 49.999 69.5007V65.5007ZM31.4395 59.7244L27.5289 58.8832C26.6912 62.7778 26.7811 66.8459 28.308 69.9252L31.8916 68.1482L35.4752 66.3712C35.0537 65.5211 34.7201 63.4938 35.35 60.5655L31.4395 59.7244ZM31.8916 68.1482L28.3081 69.9253C29.2972 71.92 30.8726 73.4713 33.1187 74.3091L34.5166 70.5613L35.9145 66.8135C35.7616 66.7565 35.7078 66.7093 35.686 66.689C35.659 66.664 35.5811 66.5846 35.4751 66.3711L31.8916 68.1482ZM34.5166 70.5613L33.1189 74.3092C35.2287 75.0959 37.9366 75.2545 41.3107 74.5552L40.499 70.6384L39.6873 66.7217C37.3362 67.2089 36.2344 66.9328 35.9143 66.8134L34.5166 70.5613ZM40.499 70.6384L41.3661 74.5433L41.951 74.4134L41.084 70.5085L40.217 66.6036L39.632 66.7335L40.499 70.6384ZM41.084 70.5085L41.9013 74.4242L42.1025 74.3822L41.2852 70.4666L40.4678 66.5509L40.2666 66.5929L41.084 70.5085ZM41.2852 70.4666L42.0032 74.4016C42.0056 74.4011 42.0052 74.4014 42.0029 74.4014C42.0007 74.4013 41.9988 74.4011 41.9974 74.4008C41.9952 74.4004 41.9969 74.4004 42.0003 74.4026C42.0035 74.4047 42.0035 74.4057 42.0016 74.403C42.0005 74.4015 41.9995 74.3997 41.9989 74.3983C41.9981 74.3966 41.9988 74.3976 42 74.4025L45.8936 73.4861L49.7872 72.5696C48.8064 68.4027 44.7344 65.7711 40.5671 66.5315L41.2852 70.4666ZM45.8936 73.4861L41.9999 74.4022C42.001 74.4072 42.0009 74.4083 42.0008 74.4065C42.0007 74.4049 42.0008 74.4029 42.0011 74.4011C42.0016 74.3978 42.0021 74.3986 42.0001 74.402C41.9981 74.4054 41.9966 74.4062 41.9983 74.4049C41.9994 74.404 42.0011 74.4029 42.003 74.4019C42.0051 74.4009 42.0055 74.4009 42.0032 74.4016L43.1152 78.2439L44.2273 82.0862C48.2964 80.9085 50.7677 76.7372 49.7872 72.57L45.8936 73.4861ZM43.1152 78.2439L42.0917 74.3771L41.8924 74.4298L42.916 78.2966L43.9396 82.1635L44.1388 82.1107L43.1152 78.2439ZM42.916 78.2966L42.055 74.3904L41.2708 74.5633L42.1318 78.4695L42.9929 82.3757L43.777 82.2029L42.916 78.2966ZM42.1318 78.4695L41.3195 74.5528C37.9321 75.2554 35.2269 75.0959 33.1184 74.3095L31.7207 78.0574L30.323 81.8052C34.2264 83.261 38.5399 83.2996 42.9442 82.3861L42.1318 78.4695ZM31.7207 78.0574L33.1185 74.3096C30.8693 73.4707 29.2959 71.9166 28.3082 69.9249L24.7246 71.7019L21.141 73.4789C22.9489 77.1248 26.0002 80.1929 30.3229 81.8052L31.7207 78.0574ZM24.7246 71.7019L28.3082 69.9249C26.336 65.9476 26.7032 60.2273 28.6784 54.9994L24.9365 53.5857L21.1947 52.172C18.8224 58.4511 17.7814 66.7036 21.141 73.4789L24.7246 71.7019ZM24.9365 53.5857L23.5223 57.3274L25.2147 57.967L26.6289 54.2253L28.0431 50.4837L26.3507 49.844L24.9365 53.5857ZM26.6289 54.2253H30.6289V54.2244H26.6289H22.6289V54.2253H26.6289ZM26.6289 54.2244L28.0412 50.482L26.3488 49.8433L24.9365 53.5857L23.5242 57.3281L25.2166 57.9667L26.6289 54.2244ZM24.9365 53.5857L28.6782 54.9998C28.6794 54.9966 28.6797 54.9966 28.6787 54.9982C28.6779 54.9996 28.6771 55.0004 28.6772 55.0004L25.751 52.2732L22.8248 49.546C22.1344 50.2868 21.5728 51.1714 21.1948 52.1716L24.9365 53.5857ZM25.751 52.2732L29.5163 50.9233C29.1854 50.0004 29.0112 49.0559 29.0007 48.0923L25.001 48.1355L21.0012 48.1787C21.0216 50.068 21.3659 51.8944 21.9856 53.6231L25.751 52.2732ZM25.001 48.1355L22.7761 44.8113C20.3871 46.4103 18.3181 48.2462 16.7868 50.4293L20.0615 52.7263L23.3363 55.0233C24.1391 53.8788 25.386 52.691 27.2258 51.4597L25.001 48.1355ZM20.0615 52.7263L16.7868 50.4294C13.9059 54.5366 13.0048 59.7815 15.2423 66.8267L19.0547 65.616L22.867 64.4052C21.2394 59.2803 22.1433 56.7241 23.3363 55.0233L20.0615 52.7263ZM19.0547 65.616L15.2556 66.8678L15.4519 67.4635L19.251 66.2117L23.05 64.9599L22.8538 64.3641L19.0547 65.616ZM19.251 66.2117L15.427 67.3854L15.4876 67.5826L19.3115 66.4089L23.1355 65.2353L23.0749 65.038L19.251 66.2117ZM19.3115 66.4089L15.4641 67.5031C15.4648 67.5055 15.4645 67.5052 15.4643 67.5029C15.4641 67.5008 15.4642 67.4989 15.4643 67.4975C15.4645 67.4954 15.4647 67.497 15.4628 67.5005C15.4611 67.5039 15.4602 67.5038 15.4628 67.5016C15.4643 67.5003 15.4659 67.4992 15.4674 67.4983C15.469 67.4974 15.4682 67.4981 15.4633 67.4998L16.751 71.2869L18.0386 75.0739C22.0923 73.6956 24.3174 69.3885 23.159 65.3148L19.3115 66.4089ZM16.751 71.2869L15.4636 67.4997C15.4587 67.5014 15.4576 67.5013 15.4595 67.501C15.4611 67.5008 15.4632 67.5007 15.4652 67.5008C15.4686 67.501 15.468 67.5016 15.4646 67.5C15.4611 67.4984 15.4602 67.497 15.4616 67.4986C15.4626 67.4995 15.4638 67.501 15.4649 67.5027C15.4661 67.5046 15.4661 67.505 15.4651 67.5027L11.748 68.9802L8.03094 70.4578C9.59535 74.3934 13.9843 76.4521 18.0384 75.074L16.751 71.2869ZM11.748 68.9802L15.4988 67.5904L15.4275 67.398L11.6768 68.7878L7.92599 70.1777L7.99728 70.3701L11.748 68.9802ZM11.6768 68.7878L15.4777 67.5416L15.2238 66.7672L11.4229 68.0134L7.62193 69.2596L7.87584 70.034L11.6768 68.7878ZM11.4229 68.0134L15.2365 66.8069C13.0187 59.7967 13.8893 54.5601 16.7865 50.4295L13.5117 48.1326L10.2369 45.8357C5.63486 52.397 4.79622 60.3286 7.60915 69.22L11.4229 68.0134ZM13.5117 48.1326L16.7865 50.4295C19.7736 46.1708 24.9081 43.1031 30.9875 40.5001L29.4131 36.823L27.8387 33.1459C21.4487 35.8818 14.5595 39.673 10.237 45.8356L13.5117 48.1326ZM29.4131 36.823L30.9875 40.5001C30.9902 40.499 30.9915 40.4986 30.9917 40.4985C30.9918 40.4985 30.9914 40.4986 30.9904 40.4988C30.9882 40.4992 30.9862 40.4993 30.985 40.4992L31.1514 36.5027L31.3178 32.5062C30.1564 32.4578 28.9677 32.6625 27.8387 33.1459L29.4131 36.823ZM31.1514 36.5027L33.655 39.6223C34.2444 39.1492 34.8895 38.6956 35.5874 38.2656L33.4893 34.8601L31.3911 31.4546C30.4295 32.047 29.5115 32.6899 28.6477 33.3831L31.1514 36.5027ZM33.4893 34.8601L37.4735 34.5049C37.4718 34.4861 37.4713 34.4775 37.4713 34.4765C37.4712 34.4756 37.4717 34.4842 37.4717 34.5004L33.4717 34.5007L29.4717 34.5011C29.4717 34.7741 29.4874 35.0176 29.5051 35.2153L33.4893 34.8601ZM33.4717 34.5007H37.4717C37.4717 28.965 34.9439 23.9903 29.4715 22.0004L28.1045 25.7595L26.7375 29.5187C28.2839 30.081 29.4717 31.4357 29.4717 34.5007H33.4717ZM28.1045 25.7595L29.472 22.0006L29.4722 22.0002L25.7129 20.6335L21.9536 19.2669C20.4444 23.4181 22.5852 28.008 26.737 29.5185L28.1045 25.7595ZM25.7129 20.6335L29.472 22.0008L29.4722 22.0012L30.8389 18.2419L32.2056 14.4827C28.0544 12.9735 23.4642 15.1138 21.9538 19.2663L25.7129 20.6335ZM30.8389 18.2419L29.4718 22.0011C34.2081 23.7235 36.669 27.6107 37.3075 32.1541L41.2686 31.5974L45.2296 31.0408C44.2695 24.2085 40.283 17.4201 32.2059 14.4828L30.8389 18.2419ZM41.2686 31.5974L42.2784 35.4678C44.6607 34.8463 47.2627 34.5007 49.999 34.5007V30.5007V26.5007C46.5934 26.5007 43.3122 26.9303 40.2587 27.727L41.2686 31.5974ZM49.999 30.5007L49.999 34.5007C52.7264 34.5007 55.3204 34.8441 57.6966 35.4619L58.7031 31.5906L59.7097 27.7193C56.6646 26.9276 53.3937 26.5007 49.999 26.5007V30.5007ZM58.7031 31.5906L62.664 32.1485C63.3037 27.6072 65.7645 23.7219 70.4989 22.0001L69.1318 18.241L67.7648 14.4818C59.6908 17.4181 55.7042 24.2031 54.7422 31.0327L58.7031 31.5906ZM69.1318 18.241L70.4024 22.0338L70.5977 21.9684L69.3271 18.1755L68.0565 14.3827L67.8612 14.4481L69.1318 18.241Z" fill="#301446" mask="url(#path-1-outside-1_21_227)"/>
<mask id="mask0_21_227" style="mask-type:alpha" maskUnits="userSpaceOnUse" x="10" y="18" width="80" height="61">
<path d="M69.3274 18.1766C71.3502 17.5549 73.5266 18.6225 74.2581 20.6336C74.9893 22.6447 74.0074 24.8614 72.0579 25.6844L71.8665 25.7596C68.3571 27.0357 66.4993 30.2004 66.4993 34.5008C66.4993 34.6166 66.4933 34.7312 66.4837 34.8445C67.111 35.23 67.7102 35.6372 68.2796 36.0642C69.037 35.9246 69.843 36.0024 70.6018 36.3338C76.8358 39.0565 82.8347 42.5521 86.4758 47.8475C90.1977 53.2605 91.0488 59.9183 88.5481 67.9803L88.2962 68.7644L88.2258 68.9588C87.4558 70.9295 85.2666 71.9711 83.2366 71.2947C81.2062 70.6179 80.0789 68.4704 80.6458 66.4314L80.7063 66.2351L80.9026 65.6248C82.8433 59.3906 81.9389 55.3696 79.8831 52.3797C78.723 50.6928 77.0822 49.1612 74.9944 47.7293C74.9964 47.8196 74.9993 47.9102 74.9993 48.0008C74.9993 49.4744 74.7374 50.905 74.2473 52.2723C74.5925 52.6421 74.8738 53.0832 75.0637 53.5857C77.2374 59.3392 77.9415 66.3256 75.2757 71.7019C73.8779 74.5208 71.5655 76.8318 68.2796 78.0574C65.2735 79.1785 61.7644 79.2776 57.8684 78.4695L57.0842 78.2967L56.885 78.2439C54.8523 77.6556 53.6166 75.5693 54.1067 73.4861C54.5971 71.4032 56.6334 70.0867 58.7151 70.4666L58.9163 70.5086L59.5012 70.6385C62.364 71.2318 64.2687 71.0144 65.4837 70.5613C66.6996 70.1078 67.5329 69.3092 68.1087 68.1482C69.083 66.1831 69.2942 63.1348 68.5598 59.7225C63.9846 63.2698 57.3644 65.5007 49.9993 65.5008C42.6351 65.5008 36.0149 63.271 31.4397 59.7244C30.7058 63.1359 30.9177 66.1835 31.8919 68.1482C32.4676 69.3092 33.3008 70.1078 34.5169 70.5613C35.7318 71.0144 37.6365 71.2318 40.4993 70.6385L41.0842 70.5086L41.2854 70.4666C43.3671 70.0868 45.4034 71.4032 45.8938 73.4861C46.3839 75.5693 45.1482 77.6555 43.1155 78.2439L42.9163 78.2967L42.1321 78.4695C38.2362 79.2776 34.727 79.1785 31.721 78.0574C28.4349 76.8319 26.1227 74.5208 24.7249 71.7019C22.059 66.3256 22.7631 59.3392 24.9368 53.5857C25.1265 53.0839 25.4067 52.6428 25.7512 52.2732C25.261 50.9057 24.9993 49.4748 24.9993 48.0008C24.9993 47.9049 25.002 47.8091 25.0042 47.7137C22.9053 49.1501 21.2564 50.6865 20.0921 52.3797C18.0363 55.3696 17.1319 59.3906 19.0725 65.6248L19.2688 66.2351L19.3294 66.4314C19.8962 68.4704 18.7688 70.6179 16.7385 71.2947C14.7085 71.9711 12.5193 70.9295 11.7493 68.9588L11.679 68.7644L11.427 67.9803C8.92633 59.9183 9.77742 53.2605 13.4993 47.8475C17.1404 42.5522 23.1394 39.0565 29.3733 36.3338C30.138 35.9999 30.9506 35.924 31.7132 36.0682C32.2761 35.6456 32.8688 35.243 33.4885 34.8611C33.4779 34.7424 33.4719 34.6222 33.4719 34.5008C33.4719 30.2004 31.6142 27.0357 28.1048 25.7596L27.9133 25.6844C25.964 24.8613 24.9819 22.6447 25.7132 20.6336C26.4446 18.6225 28.6211 17.555 30.6438 18.1766L30.8391 18.242C37.2458 20.5718 40.4695 25.9097 41.2688 31.5975C43.9867 30.8883 46.9284 30.5008 49.9993 30.5008C53.06 30.5008 55.9921 30.886 58.7024 31.5906C59.5033 25.9053 62.7279 20.5709 69.1321 18.242L69.3274 18.1766Z" fill="#C100F1"/>
</mask>
<g mask="url(#mask0_21_227)">
<rect x="5.00012" y="3.00024" width="90" height="90" fill="#C100F1"/>
<rect x="67.991" y="-14.9998" width="19.8289" height="131.402" transform="rotate(31.6706 67.991 -14.9998)" fill="#F532FF"/>
<rect x="94.991" y="1.50024" width="7.81298" height="131.402" transform="rotate(31.6706 94.991 1.50024)" fill="#F532FF"/>
</g>
<circle cx="36.999" cy="45.5005" r="5" fill="#301446"/>
<circle cx="62.999" cy="45.5005" r="5" fill="#301446"/>
</svg>
