<svg width="100" height="100" viewBox="0 0 100 100" fill="none" xmlns="http://www.w3.org/2000/svg">
<mask id="path-1-outside-1_21_227" maskUnits="userSpaceOnUse" x="5.98926" y="12.9998" width="88" height="70" fill="black">
<rect fill="white" x="5.98926" y="12.9998" width="88" height="70"/>
<path d="M69.3274 18.1763C71.3502 17.5546 73.5265 18.6222 74.2581 20.6333C74.9892 22.6445 74.0073 24.8612 72.0579 25.6841L71.8665 25.7593C68.3571 27.0355 66.4993 30.2002 66.4993 34.5005C66.4993 34.6164 66.4933 34.731 66.4836 34.8443C67.3222 35.3595 68.1114 35.9129 68.845 36.5015C69.3989 36.4813 69.9661 36.5763 70.512 36.8013C76.7303 39.3652 82.7497 42.6663 86.4211 47.7066C90.216 52.9166 91.0777 59.3517 88.5393 67.0796L88.2834 67.8316L88.2102 68.024C87.4055 69.9811 85.1979 70.9834 83.1799 70.271C81.1622 69.5584 80.0735 67.3922 80.676 65.3638L80.7395 65.1675L80.9329 64.6011C82.843 58.8123 81.9463 55.1513 79.9543 52.4165C78.7896 50.8176 77.1264 49.361 74.9983 47.9937C74.9983 47.9959 74.9993 47.9984 74.9993 48.0005C74.9992 49.4742 74.7374 50.9047 74.2473 52.272C74.5925 52.6419 74.8738 53.083 75.0637 53.5855L73.3684 54.2251V54.2261L75.0637 53.5855C77.2375 59.339 77.9415 66.3254 75.2756 71.7017C73.8778 74.5206 71.5655 76.8316 68.2795 78.0572C65.2735 79.1782 61.7643 79.2774 57.8684 78.4693L57.0842 78.2964L56.885 78.2437C54.8523 77.6554 53.6166 75.5691 54.1067 73.4859C54.5971 71.4029 56.6333 70.0865 58.7151 70.4664L58.9163 70.5083L59.5012 70.6382C62.364 71.2315 64.2687 71.0142 65.4836 70.5611C66.6997 70.1075 67.5329 69.309 68.1086 68.148C69.0829 66.1831 69.294 63.1352 68.5598 59.7232C63.9846 63.2703 57.3641 65.5005 49.9993 65.5005C42.6351 65.5005 36.0149 63.2708 31.4397 59.7242C30.7058 63.1357 30.9177 66.1833 31.8918 68.148C32.4676 69.309 33.3008 70.1075 34.5168 70.5611C35.7318 71.0142 37.6365 71.2315 40.4993 70.6382L41.0842 70.5083L41.2854 70.4664C43.3671 70.0865 45.4034 71.4029 45.8938 73.4859C46.3839 75.5691 45.1482 77.6554 43.1155 78.2437L42.9163 78.2964L42.1321 78.4693C38.2361 79.2774 34.727 79.1782 31.7209 78.0572C28.4349 76.8316 26.1227 74.5206 24.7249 71.7017C22.0589 66.3254 22.763 59.339 24.9368 53.5855L26.6291 54.2251V54.2242L24.9368 53.5855C25.1265 53.0836 25.4067 52.6426 25.7512 52.273C25.2759 50.9472 25.0166 49.5618 25.0012 48.1353C22.8868 49.5505 21.2288 51.0623 20.0618 52.7261C18.0249 55.6302 17.1224 59.5307 19.0549 65.6158L19.2512 66.2115L19.3118 66.4087C19.8906 68.4441 18.7773 70.5977 16.7512 71.2867C14.7251 71.9754 12.53 70.9465 11.7483 68.98L11.677 68.7876L11.4231 68.0132C8.90772 60.0624 9.76231 53.4784 13.512 48.1324C17.1668 42.9217 23.1786 39.4923 29.4133 36.8228C29.9808 36.5798 30.5735 36.4784 31.1516 36.5025C31.8782 35.9193 32.6597 35.3711 33.4895 34.8599C33.4789 34.7415 33.4719 34.6217 33.4719 34.5005C33.4719 30.2002 31.6141 27.0355 28.1047 25.7593L27.9133 25.6841C25.964 24.8611 24.982 22.6444 25.7131 20.6333C26.4446 18.6223 28.6211 17.5548 30.6438 18.1763L30.8391 18.2417C37.2458 20.5716 40.4695 25.9094 41.2688 31.5972C43.9867 30.8881 46.9283 30.5005 49.9993 30.5005C53.06 30.5005 55.9921 30.8858 58.7024 31.5904C59.5032 25.905 62.7279 20.5707 69.1321 18.2417L69.3274 18.1763Z"/>
</mask>
<path d="M69.3274 18.1763C71.3502 17.5546 73.5265 18.6222 74.2581 20.6333C74.9892 22.6445 74.0073 24.8612 72.0579 25.6841L71.8665 25.7593C68.3571 27.0355 66.4993 30.2002 66.4993 34.5005C66.4993 34.6164 66.4933 34.731 66.4836 34.8443C67.3222 35.3595 68.1114 35.9129 68.845 36.5015C69.3989 36.4813 69.9661 36.5763 70.512 36.8013C76.7303 39.3652 82.7497 42.6663 86.4211 47.7066C90.216 52.9166 91.0777 59.3517 88.5393 67.0796L88.2834 67.8316L88.2102 68.024C87.4055 69.9811 85.1979 70.9834 83.1799 70.271C81.1622 69.5584 80.0735 67.3922 80.676 65.3638L80.7395 65.1675L80.9329 64.6011C82.843 58.8123 81.9463 55.1513 79.9543 52.4165C78.7896 50.8176 77.1264 49.361 74.9983 47.9937C74.9983 47.9959 74.9993 47.9984 74.9993 48.0005C74.9992 49.4742 74.7374 50.9047 74.2473 52.272C74.5925 52.6419 74.8738 53.083 75.0637 53.5855L73.3684 54.2251V54.2261L75.0637 53.5855C77.2375 59.339 77.9415 66.3254 75.2756 71.7017C73.8778 74.5206 71.5655 76.8316 68.2795 78.0572C65.2735 79.1782 61.7643 79.2774 57.8684 78.4693L57.0842 78.2964L56.885 78.2437C54.8523 77.6554 53.6166 75.5691 54.1067 73.4859C54.5971 71.4029 56.6333 70.0865 58.7151 70.4664L58.9163 70.5083L59.5012 70.6382C62.364 71.2315 64.2687 71.0142 65.4836 70.5611C66.6997 70.1075 67.5329 69.309 68.1086 68.148C69.0829 66.1831 69.294 63.1352 68.5598 59.7232C63.9846 63.2703 57.3641 65.5005 49.9993 65.5005C42.6351 65.5005 36.0149 63.2708 31.4397 59.7242C30.7058 63.1357 30.9177 66.1833 31.8918 68.148C32.4676 69.309 33.3008 70.1075 34.5168 70.5611C35.7318 71.0142 37.6365 71.2315 40.4993 70.6382L41.0842 70.5083L41.2854 70.4664C43.3671 70.0865 45.4034 71.4029 45.8938 73.4859C46.3839 75.5691 45.1482 77.6554 43.1155 78.2437L42.9163 78.2964L42.1321 78.4693C38.2361 79.2774 34.727 79.1782 31.7209 78.0572C28.4349 76.8316 26.1227 74.5206 24.7249 71.7017C22.0589 66.3254 22.763 59.339 24.9368 53.5855L26.6291 54.2251V54.2242L24.9368 53.5855C25.1265 53.0836 25.4067 52.6426 25.7512 52.273C25.2759 50.9472 25.0166 49.5618 25.0012 48.1353C22.8868 49.5505 21.2288 51.0623 20.0618 52.7261C18.0249 55.6302 17.1224 59.5307 19.0549 65.6158L19.2512 66.2115L19.3118 66.4087C19.8906 68.4441 18.7773 70.5977 16.7512 71.2867C14.7251 71.9754 12.53 70.9465 11.7483 68.98L11.677 68.7876L11.4231 68.0132C8.90772 60.0624 9.76231 53.4784 13.512 48.1324C17.1668 42.9217 23.1786 39.4923 29.4133 36.8228C29.9808 36.5798 30.5735 36.4784 31.1516 36.5025C31.8782 35.9193 32.6597 35.3711 33.4895 34.8599C33.4789 34.7415 33.4719 34.6217 33.4719 34.5005C33.4719 30.2002 31.6141 27.0355 28.1047 25.7593L27.9133 25.6841C25.964 24.8611 24.982 22.6444 25.7131 20.6333C26.4446 18.6223 28.6211 17.5548 30.6438 18.1763L30.8391 18.2417C37.2458 20.5716 40.4695 25.9094 41.2688 31.5972C43.9867 30.8881 46.9283 30.5005 49.9993 30.5005C53.06 30.5005 55.9921 30.8858 58.7024 31.5904C59.5032 25.905 62.7279 20.5707 69.1321 18.2417L69.3274 18.1763Z" fill="#C100F1"/>
<path d="M69.3274 18.1763L68.1523 14.3528C68.1203 14.3626 68.0885 14.3729 68.0568 14.3835L69.3274 18.1763ZM74.2581 20.6333L78.0174 19.2667L78.0171 19.2661L74.2581 20.6333ZM72.0579 25.6841L73.5205 29.4071C73.5516 29.3949 73.5826 29.3823 73.6135 29.3692L72.0579 25.6841ZM71.8665 25.7593L73.2335 29.5185C73.2655 29.5068 73.2974 29.4948 73.3291 29.4823L71.8665 25.7593ZM66.4993 34.5005L70.4993 34.501V34.5005H66.4993ZM66.4836 34.8443L62.4981 34.5044C62.3697 36.0108 63.1015 37.4609 64.3896 38.2523L66.4836 34.8443ZM68.845 36.5015L66.3416 39.6213C67.0906 40.2223 68.0308 40.5338 68.9905 40.4989L68.845 36.5015ZM70.512 36.8013L72.0367 33.1033L72.036 33.103L70.512 36.8013ZM86.4211 47.7066L89.6544 45.3516L89.6543 45.3515L86.4211 47.7066ZM88.5393 67.0796L92.3261 68.3681C92.3307 68.3547 92.3351 68.3413 92.3396 68.3279L88.5393 67.0796ZM88.2834 67.8316L92.0217 69.2548C92.0387 69.2102 92.0549 69.1653 92.0702 69.1201L88.2834 67.8316ZM88.2102 68.024L91.9097 69.5451C91.923 69.5126 91.936 69.48 91.9485 69.4472L88.2102 68.024ZM83.1799 70.271L81.8478 74.0427L81.8483 74.0429L83.1799 70.271ZM80.676 65.3638L76.8701 64.133C76.8602 64.1635 76.8507 64.1941 76.8416 64.2249L80.676 65.3638ZM80.7395 65.1675L76.954 63.8752C76.947 63.8957 76.9402 63.9162 76.9336 63.9367L80.7395 65.1675ZM80.9329 64.6011L84.7184 65.8934C84.7228 65.8805 84.7271 65.8675 84.7314 65.8545L80.9329 64.6011ZM79.9543 52.4165L83.1876 50.0615L83.1874 50.0613L79.9543 52.4165ZM74.9983 47.9937L77.1605 44.6284C75.9293 43.8374 74.3644 43.7818 73.0802 44.4836C71.796 45.1853 70.9975 46.5323 70.9983 47.9958L74.9983 47.9937ZM74.9993 48.0005L78.9993 48.0006V48.0005H74.9993ZM74.2473 52.272L70.4819 50.9224C69.9766 52.3321 70.3011 53.906 71.3227 55.0009L74.2473 52.272ZM75.0637 53.5855L78.8056 52.1718L78.8054 52.1712L75.0637 53.5855ZM73.3684 54.2251L71.9564 50.4827C70.3991 51.0702 69.3684 52.5607 69.3684 54.2251H73.3684ZM73.3684 54.2261H69.3684C69.3684 55.5398 70.0135 56.7698 71.0942 57.5167C72.1749 58.2636 73.5535 58.4323 74.7823 57.9679L73.3684 54.2261ZM75.2756 71.7017L78.8592 73.4787L78.8593 73.4787L75.2756 71.7017ZM68.2795 78.0572L69.6773 81.805L69.6773 81.805L68.2795 78.0572ZM57.8684 78.4693L57.0074 82.3755C57.0236 82.3791 57.0398 82.3825 57.056 82.3859L57.8684 78.4693ZM57.0842 78.2964L56.0607 82.1633C56.1146 82.1775 56.1688 82.1907 56.2232 82.2027L57.0842 78.2964ZM56.885 78.2437L55.7729 82.086C55.8023 82.0945 55.8318 82.1027 55.8614 82.1105L56.885 78.2437ZM54.1067 73.4859L50.2131 72.5693L50.213 72.5698L54.1067 73.4859ZM58.7151 70.4664L59.5324 66.5507C59.4994 66.5439 59.4663 66.5374 59.4331 66.5313L58.7151 70.4664ZM58.9163 70.5083L59.7833 66.6034C59.7667 66.5998 59.7502 66.5962 59.7336 66.5927L58.9163 70.5083ZM59.5012 70.6382L58.6342 74.5431C58.6526 74.5472 58.671 74.5512 58.6895 74.555L59.5012 70.6382ZM65.4836 70.5611L66.8813 74.3089L66.8814 74.3089L65.4836 70.5611ZM68.1086 68.148L71.6922 69.9251L71.6923 69.9249L68.1086 68.148ZM68.5598 59.7232L72.4703 58.8818C72.1811 57.5377 71.2219 56.4363 69.9302 55.9653C68.6386 55.4942 67.1955 55.7196 66.109 56.562L68.5598 59.7232ZM49.9993 65.5005L49.9993 69.5005L49.9993 69.5005L49.9993 65.5005ZM31.4397 59.7242L33.8903 56.5628C32.8037 55.7205 31.3607 55.4952 30.0691 55.9663C28.7775 56.4374 27.8183 57.5388 27.5292 58.8829L31.4397 59.7242ZM31.8918 68.148L28.3082 69.9249L28.3083 69.9251L31.8918 68.148ZM34.5168 70.5611L33.1191 74.3089L33.1192 74.3089L34.5168 70.5611ZM40.4993 70.6382L41.311 74.555C41.3295 74.5512 41.3479 74.5472 41.3663 74.5431L40.4993 70.6382ZM41.0842 70.5083L40.2669 66.5927C40.2503 66.5962 40.2337 66.5998 40.2172 66.6034L41.0842 70.5083ZM41.2854 70.4664L40.5674 66.5313C40.5342 66.5374 40.5011 66.5439 40.4681 66.5507L41.2854 70.4664ZM45.8938 73.4859L49.7875 72.5698L49.7874 72.5693L45.8938 73.4859ZM43.1155 78.2437L44.139 82.1105C44.1686 82.1027 44.1982 82.0945 44.2276 82.086L43.1155 78.2437ZM42.9163 78.2964L43.7773 82.2027C43.8317 82.1907 43.8859 82.1775 43.9398 82.1633L42.9163 78.2964ZM42.1321 78.4693L42.9445 82.3859C42.9607 82.3825 42.9769 82.3791 42.9931 82.3755L42.1321 78.4693ZM31.7209 78.0572L30.3231 81.805L30.3232 81.805L31.7209 78.0572ZM24.7249 71.7017L21.1412 73.4787L21.1412 73.4787L24.7249 71.7017ZM24.9368 53.5855L21.1951 52.1712L21.1949 52.1718L24.9368 53.5855ZM26.6291 54.2251L25.215 57.9668C26.4439 58.4313 27.8225 58.2627 28.9033 57.5158C29.984 56.7689 30.6291 55.5389 30.6291 54.2251H26.6291ZM26.6291 54.2242H30.6291C30.6291 52.5598 29.5986 51.0694 28.0414 50.4818L26.6291 54.2242ZM25.7512 52.273L28.6772 55.0004C29.6979 53.9054 30.0217 52.3322 29.5166 50.9231L25.7512 52.273ZM25.0012 48.1353L29.001 48.0921C28.9851 46.6234 28.1657 45.2816 26.8664 44.5968C25.5671 43.9119 23.997 43.9942 22.7764 44.8111L25.0012 48.1353ZM20.0618 52.7261L16.787 50.4291L16.787 50.4292L20.0618 52.7261ZM19.0549 65.6158L15.2426 66.8265C15.2469 66.8402 15.2514 66.8539 15.2559 66.8676L19.0549 65.6158ZM19.2512 66.2115L23.0752 65.0378C23.0671 65.0117 23.0588 64.9856 23.0503 64.9596L19.2512 66.2115ZM19.3118 66.4087L23.1592 65.3146C23.1517 65.288 23.1438 65.2615 23.1357 65.2351L19.3118 66.4087ZM16.7512 71.2867L18.0386 75.0738L18.0389 75.0737L16.7512 71.2867ZM11.7483 68.98L7.99752 70.3699C8.0084 70.3993 8.01962 70.4285 8.03119 70.4576L11.7483 68.98ZM11.677 68.7876L7.87608 70.0338C7.89189 70.082 7.90861 70.1299 7.92624 70.1775L11.677 68.7876ZM11.4231 68.0132L7.6094 69.2198C7.61359 69.233 7.61785 69.2462 7.62218 69.2594L11.4231 68.0132ZM13.512 48.1324L10.2372 45.8354L10.2372 45.8355L13.512 48.1324ZM29.4133 36.8228L27.8389 33.1457L27.8389 33.1457L29.4133 36.8228ZM31.1516 36.5025L30.9852 40.499C31.952 40.5393 32.9006 40.2277 33.6553 39.6221L31.1516 36.5025ZM33.4895 34.8599L35.5877 38.2654C36.8781 37.4704 37.6083 36.0143 37.4737 34.5047L33.4895 34.8599ZM33.4719 34.5005L29.4719 34.5005L29.4719 34.5009L33.4719 34.5005ZM28.1047 25.7593L26.6421 29.4823C26.6738 29.4948 26.7057 29.5068 26.7378 29.5185L28.1047 25.7593ZM27.9133 25.6841L26.3575 29.3691C26.3884 29.3822 26.4195 29.3949 26.4507 29.4071L27.9133 25.6841ZM25.7131 20.6333L21.9541 19.2661L21.9538 19.2667L25.7131 20.6333ZM30.6438 18.1763L31.9144 14.3835C31.8826 14.3728 31.8507 14.3626 31.8187 14.3527L30.6438 18.1763ZM30.8391 18.2417L32.2062 14.4826C32.1741 14.471 32.142 14.4597 32.1097 14.4489L30.8391 18.2417ZM41.2688 31.5972L37.3077 32.1539C37.4665 33.284 38.1005 34.2924 39.0501 34.9255C39.9996 35.5585 41.1744 35.7558 42.2786 35.4676L41.2688 31.5972ZM49.9993 30.5005L49.9993 26.5005H49.9993V30.5005ZM58.7024 31.5904L57.6959 35.4617C58.7996 35.7486 59.9733 35.5508 60.922 34.918C61.8707 34.2852 62.5042 33.2775 62.6633 32.1483L58.7024 31.5904ZM69.1321 18.2417L67.8615 14.4489C67.8292 14.4597 67.797 14.471 67.765 14.4826L69.1321 18.2417ZM69.3274 18.1763L70.5025 21.9998C70.5049 21.9991 70.5046 21.9994 70.5024 21.9996C70.5003 21.9998 70.4983 21.9998 70.4969 21.9997C70.4948 21.9995 70.4963 21.9993 70.4998 22.001C70.5031 22.0027 70.5031 22.0035 70.5007 22.001C70.4995 21.9995 70.4982 21.9979 70.4974 21.9965C70.4964 21.9949 70.4972 21.9958 70.499 22.0006L74.2581 20.6333L78.0171 19.2661C76.5537 15.2426 72.201 13.1085 68.1523 14.3528L69.3274 18.1763ZM74.2581 20.6333L70.4988 22C70.5005 22.0048 70.5005 22.006 70.5002 22.0042C70.5 22.0027 70.4998 22.0007 70.4999 21.9989C70.5 21.9957 70.5005 21.9964 70.499 22C70.4974 22.0036 70.4961 22.0045 70.4977 22.0029C70.4987 22.0019 70.5002 22.0006 70.502 21.9994C70.504 21.9981 70.5045 21.9981 70.5022 21.999L72.0579 25.6841L73.6135 29.3692C77.5162 27.7218 79.4797 23.2893 78.0174 19.2667L74.2581 20.6333ZM72.0579 25.6841L70.5953 21.9611L70.4038 22.0363L71.8665 25.7593L73.3291 29.4823L73.5205 29.4071L72.0579 25.6841ZM71.8665 25.7593L70.4994 22.0002C65.0272 23.9902 62.4993 28.9648 62.4993 34.5005H66.4993H70.4993C70.4993 31.4356 71.6871 30.0808 73.2335 29.5185L71.8665 25.7593ZM66.4993 34.5005L62.4993 34.5C62.4993 34.4897 62.4995 34.4845 62.4995 34.4853C62.4995 34.4861 62.4992 34.4921 62.4981 34.5044L66.4836 34.8443L70.4692 35.1841C70.4863 34.9828 70.4992 34.7526 70.4993 34.501L66.4993 34.5005ZM66.4836 34.8443L64.3896 38.2523C65.0939 38.6851 65.7455 39.143 66.3416 39.6213L68.845 36.5015L71.3483 33.3817C70.4773 32.6828 69.5505 32.034 68.5777 31.4362L66.4836 34.8443ZM68.845 36.5015L68.9905 40.4989C68.9895 40.4989 68.9876 40.4988 68.9854 40.4985C68.983 40.498 68.9835 40.4978 68.9879 40.4996L70.512 36.8013L72.036 33.103C70.9496 32.6553 69.8121 32.4637 68.6995 32.5042L68.845 36.5015ZM70.512 36.8013L68.9873 40.4993C75.0658 43.0055 80.2005 45.9604 83.188 50.0617L86.4211 47.7066L89.6543 45.3515C85.2989 39.3722 78.3948 35.7248 72.0367 33.1033L70.512 36.8013ZM86.4211 47.7066L83.1879 50.0616C86.086 54.0404 86.9559 59.0823 84.7391 65.8314L88.5393 67.0796L92.3396 68.3279C95.1994 59.621 94.346 51.7927 89.6544 45.3516L86.4211 47.7066ZM88.5393 67.0796L84.7525 65.7911L84.4967 66.5431L88.2834 67.8316L92.0702 69.1201L92.3261 68.3681L88.5393 67.0796ZM88.2834 67.8316L84.5452 66.4084L84.472 66.6008L88.2102 68.024L91.9485 69.4472L92.0217 69.2548L88.2834 67.8316ZM88.2102 68.024L84.5107 66.5029C84.5098 66.5051 84.5098 66.5045 84.5111 66.5025C84.5124 66.5007 84.5137 66.4992 84.5147 66.4981C84.5163 66.4965 84.5154 66.4978 84.5118 66.4994C84.5083 66.501 84.5074 66.5005 84.5106 66.5004C84.5124 66.5003 84.5144 66.5004 84.5159 66.5006C84.5176 66.5009 84.5164 66.5009 84.5115 66.4992L83.1799 70.271L81.8483 74.0429C85.8842 75.4677 90.2986 73.4635 91.9097 69.5451L88.2102 68.024ZM83.1799 70.271L84.512 66.4994C84.5071 66.4976 84.5062 66.4968 84.5078 66.4977C84.5091 66.4985 84.5107 66.4997 84.512 66.5009C84.5144 66.503 84.5135 66.5029 84.5118 66.4995C84.51 66.4959 84.5101 66.4943 84.5103 66.4966C84.5105 66.4981 84.5105 66.5001 84.5103 66.5023C84.5101 66.5046 84.5098 66.5051 84.5104 66.5028L80.676 65.3638L76.8416 64.2249C75.6353 68.2859 77.8122 72.6174 81.8478 74.0427L83.1799 70.271ZM80.676 65.3638L84.482 66.5946L84.5454 66.3983L80.7395 65.1675L76.9336 63.9367L76.8701 64.133L80.676 65.3638ZM80.7395 65.1675L84.525 66.4598L84.7184 65.8934L80.9329 64.6011L77.1474 63.3088L76.954 63.8752L80.7395 65.1675ZM80.9329 64.6011L84.7314 65.8545C86.9721 59.064 86.066 54.0133 83.1876 50.0615L79.9543 52.4165L76.7211 54.7716C77.8266 56.2893 78.7139 58.5607 77.1343 63.3477L80.9329 64.6011ZM79.9543 52.4165L83.1874 50.0613C81.6434 47.9418 79.5577 46.1687 77.1605 44.6284L74.9983 47.9937L72.8361 51.3589C74.6951 52.5534 75.9357 53.6934 76.7212 54.7718L79.9543 52.4165ZM74.9983 47.9937L70.9983 47.9958C70.9983 48.071 71.0005 48.1405 71.0038 48.2035C71.0071 48.2665 71.0116 48.3242 71.0166 48.3759C71.0215 48.4276 71.027 48.4745 71.0325 48.5159C71.0379 48.5573 71.0434 48.5944 71.0485 48.6263C71.0536 48.6583 71.0585 48.6864 71.0627 48.7096C71.0669 48.7329 71.0707 48.7527 71.0737 48.7678C71.0767 48.7828 71.0791 48.795 71.0806 48.8023C71.0814 48.806 71.082 48.809 71.0824 48.8109C71.0826 48.8118 71.0828 48.8126 71.0829 48.8131C71.0829 48.8133 71.083 48.8135 71.083 48.8137C71.083 48.8137 71.083 48.8138 71.083 48.8138C71.083 48.8138 71.0831 48.8139 71.0831 48.8139C71.0831 48.8142 71.0828 48.8128 71.0825 48.8112C71.0821 48.8095 71.0815 48.8065 71.0808 48.8029C71.0793 48.7958 71.0769 48.7839 71.074 48.7691C71.0711 48.7542 71.0673 48.7346 71.0631 48.7116C71.0589 48.6885 71.0541 48.6606 71.049 48.6289C71.044 48.5971 71.0385 48.5602 71.0331 48.519C71.0277 48.4778 71.0222 48.4311 71.0173 48.3796C71.0124 48.3281 71.0079 48.2705 71.0046 48.2077C71.0014 48.1449 70.9993 48.0756 70.9993 48.0005H74.9993H78.9993C78.9993 47.9252 78.9971 47.8556 78.9939 47.7925C78.9906 47.7294 78.9861 47.6716 78.9811 47.6198C78.9762 47.568 78.9707 47.521 78.9653 47.4795C78.9598 47.4381 78.9543 47.4009 78.9492 47.3689C78.9441 47.3368 78.9392 47.3086 78.935 47.2853C78.9307 47.262 78.9269 47.2421 78.9239 47.2269C78.921 47.2118 78.9185 47.1996 78.917 47.1922C78.9162 47.1884 78.9155 47.1853 78.9151 47.1834C78.9149 47.1825 78.9148 47.1817 78.9147 47.1812C78.9146 47.1809 78.9146 47.1807 78.9146 47.1806C78.9145 47.1805 78.9145 47.1804 78.9145 47.1804C78.9144 47.18 78.9147 47.1813 78.915 47.1829C78.9154 47.1846 78.916 47.1875 78.9167 47.1911C78.9182 47.1981 78.9206 47.2099 78.9235 47.2247C78.9264 47.2395 78.9301 47.259 78.9343 47.282C78.9385 47.3049 78.9433 47.3327 78.9484 47.3644C78.9534 47.3961 78.9589 47.4329 78.9643 47.474C78.9697 47.5151 78.9752 47.5617 78.9801 47.6131C78.985 47.6646 78.9895 47.722 78.9928 47.7847C78.9961 47.8474 78.9983 47.9167 78.9983 47.9916L74.9983 47.9937ZM74.9993 48.0005L70.9993 48.0004C70.9992 48.9934 70.8239 49.9682 70.4819 50.9224L74.2473 52.272L78.0128 53.6216C78.6509 51.8413 78.9992 49.955 78.9993 48.0006L74.9993 48.0005ZM74.2473 52.272L71.3227 55.0009C71.324 55.0023 71.3237 55.0021 71.3227 55.0006C71.3216 54.9988 71.3214 54.998 71.3221 54.9997L75.0637 53.5855L78.8054 52.1712C78.4256 51.1665 77.8613 50.2819 77.1719 49.5431L74.2473 52.272ZM75.0637 53.5855L73.6517 49.843L71.9564 50.4827L73.3684 54.2251L74.7805 57.9676L76.4758 57.328L75.0637 53.5855ZM73.3684 54.2251H69.3684V54.2261H73.3684H77.3684V54.2251H73.3684ZM73.3684 54.2261L74.7823 57.9679L76.4777 57.3273L75.0637 53.5855L73.6498 49.8437L71.9545 50.4844L73.3684 54.2261ZM75.0637 53.5855L71.3219 54.9992C73.297 60.2271 73.6642 65.9473 71.692 69.9247L75.2756 71.7017L78.8593 73.4787C82.2188 66.7034 81.1779 58.451 78.8056 52.1718L75.0637 53.5855ZM75.2756 71.7017L71.692 69.9247C70.7043 71.9165 69.131 73.4705 66.8817 74.3094L68.2795 78.0572L69.6773 81.805C74.0001 80.1928 77.0513 77.1246 78.8592 73.4787L75.2756 71.7017ZM68.2795 78.0572L66.8818 74.3093C64.7732 75.0957 62.0682 75.2553 58.6808 74.5526L57.8684 78.4693L57.056 82.3859C61.4605 83.2995 65.7738 83.2608 69.6773 81.805L68.2795 78.0572ZM57.8684 78.4693L58.7294 74.5631L57.9453 74.3902L57.0842 78.2964L56.2232 82.2027L57.0074 82.3755L57.8684 78.4693ZM57.0842 78.2964L58.1078 74.4296L57.9086 74.3769L56.885 78.2437L55.8614 82.1105L56.0607 82.1633L57.0842 78.2964ZM56.885 78.2437L57.9971 74.4014C57.9947 74.4007 57.9952 74.4007 57.9973 74.4017C57.9992 74.4027 58.0008 74.4038 58.0019 74.4047C58.0036 74.406 58.0022 74.4052 58.0001 74.4018C57.9982 74.3984 57.9986 74.3976 57.9991 74.4008C57.9994 74.4027 57.9995 74.4047 57.9995 74.4063C57.9994 74.4081 57.9992 74.407 58.0004 74.402L54.1067 73.4859L50.213 72.5698C49.2326 76.7371 51.7039 80.9083 55.7729 82.086L56.885 78.2437ZM54.1067 73.4859L58.0003 74.4025C58.0014 74.3975 58.0021 74.3966 58.0014 74.3982C58.0007 74.3997 57.9997 74.4014 57.9986 74.4029C57.9968 74.4055 57.9968 74.4045 58.0001 74.4024C58.0035 74.4002 58.0051 74.4002 58.003 74.4006C58.0016 74.4009 57.9996 74.4011 57.9975 74.4012C57.9951 74.4012 57.9947 74.4009 57.997 74.4014L58.7151 70.4664L59.4331 66.5313C55.2657 65.7709 51.194 68.4027 50.2131 72.5693L54.1067 73.4859ZM58.7151 70.4664L57.8978 74.382L58.0989 74.4239L58.9163 70.5083L59.7336 66.5927L59.5324 66.5507L58.7151 70.4664ZM58.9163 70.5083L58.0492 74.4132L58.6342 74.5431L59.5012 70.6382L60.3683 66.7333L59.7833 66.6034L58.9163 70.5083ZM59.5012 70.6382L58.6895 74.555C62.0638 75.2543 64.7715 75.0957 66.8813 74.3089L65.4836 70.5611L64.086 66.8132C63.7658 66.9326 62.6641 67.2087 60.313 66.7215L59.5012 70.6382ZM65.4836 70.5611L66.8814 74.3089C69.1278 73.4711 70.703 71.9197 71.6922 69.9251L68.1086 68.148L64.5251 66.3709C64.4191 66.5845 64.3411 66.6639 64.3142 66.6889C64.2925 66.709 64.2388 66.7562 64.0859 66.8132L65.4836 70.5611ZM68.1086 68.148L71.6923 69.9249C73.2195 66.8448 73.3083 62.7762 72.4703 58.8818L68.5598 59.7232L64.6493 60.5646C65.2797 63.4941 64.9464 65.5213 64.525 66.3711L68.1086 68.148ZM68.5598 59.7232L66.109 56.562C62.3293 59.4923 56.6038 61.5005 49.9993 61.5005L49.9993 65.5005L49.9993 69.5005C58.1243 69.5005 65.6399 67.0483 71.0107 62.8844L68.5598 59.7232ZM49.9993 65.5005V61.5005C43.3952 61.5005 37.67 59.4927 33.8903 56.5628L31.4397 59.7242L28.989 62.8855C34.3598 67.0488 41.8749 69.5005 49.9993 69.5005V65.5005ZM31.4397 59.7242L27.5292 58.8829C26.6913 62.7777 26.7814 66.8457 28.3082 69.9249L31.8918 68.148L35.4755 66.3711C35.0539 65.5209 34.7203 63.4936 35.3502 60.5654L31.4397 59.7242ZM31.8918 68.148L28.3083 69.9251C29.2974 71.9197 30.8727 73.4711 33.1191 74.3089L34.5168 70.5611L35.9146 66.8132C35.7617 66.7562 35.708 66.709 35.6862 66.6889C35.6594 66.6639 35.5814 66.5845 35.4754 66.3709L31.8918 68.148ZM34.5168 70.5611L33.1192 74.3089C35.2289 75.0957 37.9366 75.2543 41.311 74.555L40.4993 70.6382L39.6875 66.7215C37.3364 67.2087 36.2347 66.9326 35.9145 66.8132L34.5168 70.5611ZM40.4993 70.6382L41.3663 74.5431L41.9513 74.4132L41.0842 70.5083L40.2172 66.6034L39.6322 66.7333L40.4993 70.6382ZM41.0842 70.5083L41.9016 74.4239L42.1027 74.382L41.2854 70.4664L40.4681 66.5507L40.2669 66.5927L41.0842 70.5083ZM41.2854 70.4664L42.0034 74.4014C42.0058 74.4009 42.0054 74.4012 42.003 74.4012C42.0008 74.4012 41.9989 74.4009 41.9975 74.4006C41.9954 74.4002 41.997 74.4002 42.0004 74.4024C42.0037 74.4046 42.0037 74.4055 42.0018 74.4029C42.0008 74.4014 41.9998 74.3997 41.9991 74.3982C41.9984 74.3966 41.9991 74.3975 42.0002 74.4025L45.8938 73.4859L49.7874 72.5693C48.8065 68.4027 44.7347 65.7709 40.5674 66.5313L41.2854 70.4664ZM45.8938 73.4859L42.0001 74.402C42.0013 74.407 42.0011 74.4081 42.001 74.4063C42.001 74.4047 42.0011 74.4026 42.0014 74.4008C42.0019 74.3976 42.0023 74.3984 42.0004 74.4017C41.9983 74.4052 41.9968 74.406 41.9985 74.4047C41.9996 74.4038 42.0013 74.4027 42.0032 74.4017C42.0052 74.4007 42.0057 74.4007 42.0034 74.4014L43.1155 78.2437L44.2276 82.086C48.2966 80.9083 50.7679 76.7371 49.7875 72.5698L45.8938 73.4859ZM43.1155 78.2437L42.0919 74.3769L41.8927 74.4296L42.9163 78.2964L43.9398 82.1633L44.139 82.1105L43.1155 78.2437ZM42.9163 78.2964L42.0552 74.3902L41.2711 74.5631L42.1321 78.4693L42.9931 82.3755L43.7773 82.2027L42.9163 78.2964ZM42.1321 78.4693L41.3197 74.5526C37.9323 75.2553 35.2272 75.0957 33.1187 74.3093L31.7209 78.0572L30.3232 81.805C34.2267 83.2608 38.54 83.2995 42.9445 82.3859L42.1321 78.4693ZM31.7209 78.0572L33.1187 74.3094C30.8695 73.4705 29.2961 71.9165 28.3085 69.9247L24.7249 71.7017L21.1412 73.4787C22.9492 77.1246 26.0004 80.1928 30.3231 81.805L31.7209 78.0572ZM24.7249 71.7017L28.3085 69.9247C26.3363 65.9473 26.7035 60.2271 28.6786 54.9992L24.9368 53.5855L21.1949 52.1718C18.8226 58.451 17.7816 66.7034 21.1412 73.4787L24.7249 71.7017ZM24.9368 53.5855L23.5226 57.3272L25.215 57.9668L26.6291 54.2251L28.0433 50.4835L26.351 49.8438L24.9368 53.5855ZM26.6291 54.2251H30.6291V54.2242H26.6291H22.6291V54.2251H26.6291ZM26.6291 54.2242L28.0414 50.4818L26.3491 49.8431L24.9368 53.5855L23.5245 57.3279L25.2168 57.9665L26.6291 54.2242ZM24.9368 53.5855L28.6784 54.9997C28.6797 54.9963 28.6801 54.9962 28.679 54.9979C28.6786 54.9985 28.6782 54.9991 28.6778 54.9996C28.6776 54.9999 28.6775 55.0001 28.6774 55.0002C28.6772 55.0003 28.6772 55.0004 28.6772 55.0004L25.7512 52.273L22.8253 49.5456C22.1344 50.2867 21.573 51.1714 21.1951 52.1712L24.9368 53.5855ZM25.7512 52.273L29.5166 50.9231C29.1857 50.0002 29.0114 49.0557 29.001 48.0921L25.0012 48.1353L21.0015 48.1785C21.0219 50.0678 21.3661 51.8942 21.9859 53.6229L25.7512 52.273ZM25.0012 48.1353L22.7764 44.8111C20.3873 46.4101 18.3184 48.246 16.787 50.4291L20.0618 52.7261L23.3365 55.0231C24.1393 53.8786 25.3863 52.6908 27.2261 51.4595L25.0012 48.1353ZM20.0618 52.7261L16.787 50.4292C13.9062 54.5364 13.0051 59.7813 15.2426 66.8265L19.0549 65.6158L22.8673 64.405C21.2397 59.2801 22.1435 56.7239 23.3365 55.023L20.0618 52.7261ZM19.0549 65.6158L15.2559 66.8676L15.4521 67.4633L19.2512 66.2115L23.0503 64.9596L22.854 64.3639L19.0549 65.6158ZM19.2512 66.2115L15.4273 67.3852L15.4878 67.5824L19.3118 66.4087L23.1357 65.2351L23.0752 65.0378L19.2512 66.2115ZM19.3118 66.4087L15.4643 67.5029C15.465 67.5053 15.4647 67.505 15.4645 67.5027C15.4643 67.5006 15.4644 67.4987 15.4646 67.4973C15.4648 67.4952 15.4649 67.4968 15.4631 67.5003C15.4613 67.5037 15.4605 67.5036 15.4631 67.5014C15.4645 67.5001 15.4662 67.4989 15.4676 67.4981C15.4692 67.4972 15.4684 67.4979 15.4635 67.4996L16.7512 71.2867L18.0389 75.0737C22.0926 73.6954 24.3177 69.3883 23.1592 65.3146L19.3118 66.4087ZM16.7512 71.2867L15.4638 67.4995C15.459 67.5011 15.4579 67.5011 15.4597 67.5008C15.4614 67.5006 15.4635 67.5005 15.4654 67.5006C15.4689 67.5008 15.4683 67.5014 15.4649 67.4998C15.4613 67.4982 15.4604 67.4968 15.4619 67.4984C15.4628 67.4993 15.464 67.5008 15.4652 67.5025C15.4664 67.5044 15.4663 67.5048 15.4654 67.5025L11.7483 68.98L8.03119 70.4576C9.59559 74.3932 13.9846 76.4519 18.0386 75.0738L16.7512 71.2867ZM11.7483 68.98L15.4991 67.5901L15.4278 67.3978L11.677 68.7876L7.92624 70.1775L7.99752 70.3699L11.7483 68.98ZM11.677 68.7876L15.4779 67.5414L15.224 66.767L11.4231 68.0132L7.62218 69.2594L7.87608 70.0338L11.677 68.7876ZM11.4231 68.0132L15.2368 66.8067C13.019 59.7965 13.8895 54.5599 16.7867 50.4293L13.512 48.1324L10.2372 45.8355C5.6351 52.3968 4.79646 60.3284 7.6094 69.2198L11.4231 68.0132ZM13.512 48.1324L16.7867 50.4293C19.7738 46.1706 24.9083 43.1029 30.9877 40.4999L29.4133 36.8228L27.8389 33.1457C21.449 35.8816 14.5597 39.6728 10.2372 45.8354L13.512 48.1324ZM29.4133 36.8228L30.9877 40.4999C30.9904 40.4988 30.9918 40.4984 30.9919 40.4983C30.9921 40.4983 30.9916 40.4984 30.9906 40.4986C30.9884 40.499 30.9864 40.4991 30.9852 40.499L31.1516 36.5025L31.318 32.5059C30.1567 32.4576 28.9679 32.6623 27.8389 33.1457L29.4133 36.8228ZM31.1516 36.5025L33.6553 39.6221C34.2447 39.149 34.8898 38.6954 35.5877 38.2654L33.4895 34.8599L31.3913 31.4544C30.4297 32.0468 29.5118 32.6897 28.648 33.3829L31.1516 36.5025ZM33.4895 34.8599L37.4737 34.5047C37.472 34.4859 37.4716 34.4773 37.4715 34.4763C37.4715 34.4754 37.4719 34.484 37.4719 34.5002L33.4719 34.5005L29.4719 34.5009C29.4719 34.7739 29.4877 35.0174 29.5053 35.2151L33.4895 34.8599ZM33.4719 34.5005H37.4719C37.4719 28.9648 34.9441 23.9901 29.4717 22.0001L28.1047 25.7593L26.7378 29.5185C28.2842 30.0808 29.4719 31.4355 29.4719 34.5005H33.4719ZM28.1047 25.7593L29.5673 22.0363L29.3759 21.9611L27.9133 25.6841L26.4507 29.4071L26.6421 29.4823L28.1047 25.7593ZM27.9133 25.6841L29.4692 21.9991C29.467 21.9982 29.4675 21.9982 29.4694 21.9995C29.4712 22.0007 29.4727 22.002 29.4737 22.003C29.4752 22.0045 29.4738 22.0036 29.4722 21.9998C29.4707 21.9963 29.4712 21.9955 29.4713 21.9988C29.4714 22.0006 29.4712 22.0026 29.471 22.0042C29.4707 22.006 29.4707 22.0048 29.4724 22L25.7131 20.6333L21.9538 19.2667C20.4914 23.2895 22.4554 27.7216 26.3575 29.3691L27.9133 25.6841ZM25.7131 20.6333L29.4722 22.0006C29.4739 21.9958 29.4747 21.995 29.4737 21.9966C29.4729 21.998 29.4716 21.9997 29.4704 22.0011C29.468 22.0037 29.468 22.0028 29.4714 22.0012C29.4749 21.9994 29.4765 21.9996 29.4744 21.9997C29.473 21.9999 29.4711 21.9999 29.4691 21.9997C29.4668 21.9994 29.4665 21.9991 29.4689 21.9999L30.6438 18.1763L31.8187 14.3527C27.7705 13.1089 23.4176 15.2424 21.9541 19.2661L25.7131 20.6333ZM30.6438 18.1763L29.3732 21.9691L29.5685 22.0346L30.8391 18.2417L32.1097 14.4489L31.9144 14.3835L30.6438 18.1763ZM30.8391 18.2417L29.4721 22.0009C34.2084 23.7233 36.6692 27.6105 37.3077 32.1539L41.2688 31.5972L45.2299 31.0406C44.2697 24.2083 40.2832 17.4199 32.2062 14.4826L30.8391 18.2417ZM41.2688 31.5972L42.2786 35.4676C44.661 34.8461 47.263 34.5005 49.9993 34.5005V30.5005V26.5005C46.5936 26.5005 43.3124 26.9301 40.259 27.7268L41.2688 31.5972ZM49.9993 30.5005L49.9993 34.5005C52.7262 34.5005 55.3198 34.844 57.6959 35.4617L58.7024 31.5904L59.7088 27.7191C56.6643 26.9276 53.3938 26.5005 49.9993 26.5005L49.9993 30.5005ZM58.7024 31.5904L62.6633 32.1483C63.3029 27.6078 65.7641 23.7228 70.4992 22.0009L69.1321 18.2417L67.765 14.4826C59.6917 17.4186 55.7036 24.2022 54.7415 31.0324L58.7024 31.5904ZM69.1321 18.2417L70.4027 22.0346L70.598 21.9691L69.3274 18.1763L68.0568 14.3835L67.8615 14.4489L69.1321 18.2417Z" fill="#301446" mask="url(#path-1-outside-1_21_227)"/>
<mask id="mask0_21_227" style="mask-type:alpha" maskUnits="userSpaceOnUse" x="10" y="18" width="80" height="61">
<path d="M69.3274 18.1766C71.3502 17.5549 73.5266 18.6225 74.2581 20.6336C74.9893 22.6447 74.0074 24.8614 72.0579 25.6844L71.8665 25.7596C68.3571 27.0357 66.4993 30.2004 66.4993 34.5008C66.4993 34.6166 66.4933 34.7312 66.4837 34.8445C67.111 35.23 67.7102 35.6372 68.2796 36.0642C69.037 35.9246 69.843 36.0024 70.6018 36.3338C76.8358 39.0565 82.8347 42.5521 86.4758 47.8475C90.1977 53.2605 91.0488 59.9183 88.5481 67.9803L88.2962 68.7644L88.2258 68.9588C87.4558 70.9295 85.2666 71.9711 83.2366 71.2947C81.2062 70.6179 80.0789 68.4704 80.6458 66.4314L80.7063 66.2351L80.9026 65.6248C82.8433 59.3906 81.9389 55.3696 79.8831 52.3797C78.723 50.6928 77.0822 49.1612 74.9944 47.7293C74.9964 47.8196 74.9993 47.9102 74.9993 48.0008C74.9993 49.4744 74.7374 50.905 74.2473 52.2723C74.5925 52.6421 74.8738 53.0832 75.0637 53.5857C77.2375 59.3392 77.9415 66.3256 75.2757 71.7019C73.8779 74.5208 71.5655 76.8318 68.2796 78.0574C65.2735 79.1785 61.7643 79.2776 57.8684 78.4695L57.0842 78.2967L56.885 78.2439C54.8523 77.6556 53.6166 75.5693 54.1067 73.4861C54.5971 71.4032 56.6334 70.0867 58.7151 70.4666L58.9163 70.5086L59.5012 70.6385C62.364 71.2318 64.2687 71.0144 65.4837 70.5613C66.6996 70.1078 67.5329 69.3092 68.1087 68.1482C69.083 66.1831 69.2942 63.1348 68.5598 59.7225C63.9846 63.2698 57.3644 65.5007 49.9993 65.5008C42.6351 65.5008 36.0149 63.271 31.4397 59.7244C30.7058 63.1359 30.9177 66.1835 31.8919 68.1482C32.4676 69.3092 33.3008 70.1078 34.5169 70.5613C35.7318 71.0144 37.6365 71.2318 40.4993 70.6385L41.0842 70.5086L41.2854 70.4666C43.3671 70.0868 45.4034 71.4032 45.8938 73.4861C46.3839 75.5693 45.1482 77.6555 43.1155 78.2439L42.9163 78.2967L42.1321 78.4695C38.2362 79.2776 34.727 79.1785 31.721 78.0574C28.4349 76.8319 26.1227 74.5208 24.7249 71.7019C22.059 66.3256 22.7631 59.3392 24.9368 53.5857C25.1265 53.0839 25.4067 52.6428 25.7512 52.2732C25.261 50.9057 24.9993 49.4748 24.9993 48.0008C24.9993 47.9049 25.002 47.8091 25.0042 47.7137C22.9053 49.1501 21.2564 50.6865 20.0921 52.3797C18.0363 55.3696 17.1319 59.3906 19.0725 65.6248L19.2688 66.2351L19.3294 66.4314C19.8962 68.4704 18.7688 70.6179 16.7385 71.2947C14.7085 71.9711 12.5193 70.9295 11.7493 68.9588L11.679 68.7644L11.427 67.9803C8.92633 59.9183 9.77742 53.2605 13.4993 47.8475C17.1404 42.5522 23.1394 39.0565 29.3733 36.3338C30.138 35.9999 30.9506 35.924 31.7132 36.0682C32.2761 35.6456 32.8688 35.243 33.4885 34.8611C33.4779 34.7424 33.4719 34.6222 33.4719 34.5008C33.4719 30.2004 31.6142 27.0357 28.1048 25.7596L27.9133 25.6844C25.964 24.8613 24.9819 22.6447 25.7132 20.6336C26.4446 18.6225 28.6211 17.555 30.6438 18.1766L30.8391 18.242C37.2458 20.5718 40.4695 25.9097 41.2688 31.5975C43.9867 30.8883 46.9284 30.5008 49.9993 30.5008C53.06 30.5008 55.9921 30.886 58.7024 31.5906C59.5033 25.9053 62.7279 20.5709 69.1321 18.242L69.3274 18.1766Z" fill="#C100F1"/>
</mask>
<g mask="url(#mask0_21_227)">
<rect x="5" y="3.00024" width="90" height="90" fill="#C100F1"/>
<rect x="67.991" y="-14.9998" width="19.8289" height="131.402" transform="rotate(31.6706 67.991 -14.9998)" fill="#F532FF"/>
<rect x="94.991" y="1.50024" width="7.81298" height="131.402" transform="rotate(31.6706 94.991 1.50024)" fill="#F532FF"/>
</g>
<circle cx="36.999" cy="45.5005" r="5" fill="#301446"/>
<circle cx="62.999" cy="45.5005" r="5" fill="#301446"/>
</svg>
