<svg width="100" height="100" viewBox="0 0 100 100" fill="none" xmlns="http://www.w3.org/2000/svg">
<circle cx="50" cy="50" r="42" fill="#FFBA34"/>
<path d="M79.6249 45.3062C79.6249 45.3062 89.9142 51.1278 91.571 53.9976C93.2279 56.8673 92.2446 60.5369 89.3749 62.1937C86.5051 63.8506 82.8356 62.8673 81.1787 59.9976C79.5219 57.1278 79.6249 45.3062 79.6249 45.3062Z" fill="#00A3FF"/>
<path d="M20.3749 45.3062C20.3749 45.3062 20.4779 57.1278 18.821 59.9976C17.1642 62.8673 13.4946 63.8506 10.6249 62.1937C7.75511 60.5369 6.77186 56.8673 8.42871 53.9976C10.0856 51.1278 20.3749 45.3062 20.3749 45.3062Z" fill="#00A3FF"/>
<path d="M23.7199 57.9494C25.3233 62.3428 28.4114 67.5056 33.8197 71.0894C35.1535 69.6779 42.5115 68.8223 50 68.7189C57.4885 68.8223 64.8465 69.6779 66.1803 71.0894C71.5886 67.5056 74.6767 62.3428 76.2801 57.9494C76.8506 56.3863 77.1358 55.6048 76.9368 54.8269C76.7498 54.096 76.1668 53.4141 75.4864 53.1303C74.7622 52.8284 73.7264 53.0805 71.6547 53.5848C69.0859 58.5913 59.4686 61.4744 50 61.6417C40.5314 61.4744 30.9141 58.5913 28.3453 53.5848C26.2736 53.0805 25.2378 52.8284 24.5136 53.1303C23.8332 53.4141 23.2502 54.096 23.0632 54.8269C22.8642 55.6048 23.1494 56.3863 23.7199 57.9494Z" fill="#E40037"/>
<path d="M50 55.7963C42.1854 55.7959 34.3602 55.0491 28.3453 53.5848C30.9141 58.5913 40.5314 61.4744 50 61.6417C59.4686 61.4744 69.0859 58.5913 71.6547 53.5848C65.6398 55.0491 57.8146 55.7959 50 55.7963Z" fill="white"/>
<path d="M33.8197 71.0894C37.8264 73.7444 43.1066 75.5327 50 75.4995C56.8934 75.5327 62.1736 73.7444 66.1803 71.0894C64.8465 69.6779 57.4885 68.8223 50 68.7189C42.5115 68.8223 35.1535 69.6779 33.8197 71.0894Z" fill="#E40037"/>
<path d="M54.5 42.5C58.3889 32.5272 72 32.5272 75.5 42.3376" stroke="#572217" stroke-width="4" stroke-linecap="round" stroke-linejoin="round"/>
<path d="M23 42.5C26.8889 32.5272 40.5 32.5272 44 42.3376" stroke="#572217" stroke-width="4" stroke-linecap="round" stroke-linejoin="round"/>
</svg>
