<svg width="100" height="100" viewBox="0 0 100 100" fill="none" xmlns="http://www.w3.org/2000/svg">
<g filter="url(#filter0_d_71_217)">
<path d="M13.4544 78.2103C13.7314 76.0824 13.87 75.0184 14.253 74.6525C14.7045 74.2214 15.3757 74.1149 15.9384 74.3852C16.4159 74.6145 16.8769 75.5834 17.799 77.5211C17.9565 77.852 18.0352 78.0175 18.1452 78.1543C18.2759 78.3168 18.4389 78.4502 18.624 78.5461C18.7799 78.627 18.9576 78.6714 19.3132 78.7604L19.5105 78.8097C21.8717 79.4004 23.0524 79.6957 23.334 80.4175C23.4124 80.6183 23.4466 80.8337 23.4342 81.0489C23.3897 81.8224 22.3585 82.4687 20.296 83.7611L20.1236 83.8691C19.8131 84.0637 19.6578 84.161 19.5346 84.2861C19.3883 84.4346 19.2745 84.612 19.2006 84.8069C19.1383 84.9711 19.1147 85.1528 19.0674 85.5162C18.7903 87.6442 18.6517 88.7081 18.2687 89.074C17.8172 89.5051 17.146 89.6116 16.5833 89.3413C16.1058 89.112 15.6448 88.1432 14.7227 86.2054C14.5652 85.8745 14.4865 85.709 14.3765 85.5722C14.2459 85.4097 14.0828 85.2763 13.8977 85.1804C13.7418 85.0996 13.5641 85.0551 13.2085 84.9662L13.0112 84.9168C10.65 84.3261 9.46935 84.0308 9.18767 83.309C9.10931 83.1082 9.07515 82.8928 9.08752 82.6777C9.13196 81.9041 10.1632 81.2578 12.2257 79.9654L12.3981 79.8574C12.7086 79.6628 12.8639 79.5655 12.9871 79.4404C13.1334 79.2919 13.2472 79.1145 13.3211 78.9196C13.3834 78.7555 13.407 78.5738 13.4544 78.2103Z" fill="#DFE9ED"/>
</g>
<rect x="44" y="48" width="18" height="31" fill="#572217"/>
<g filter="url(#filter1_d_71_217)">
<mask id="path-3-outside-1_71_217" maskUnits="userSpaceOnUse" x="16.5819" y="2.62564" width="65.9445" height="86.8452" fill="black">
<rect fill="white" x="16.5819" y="2.62564" width="65.9445" height="86.8452"/>
<path d="M47.3729 74.9493C47.7027 78.7061 47.8676 80.5845 46.8029 81.854C45.7383 83.1235 43.8599 83.2884 40.1031 83.6182L36.3179 83.9505C32.5611 84.2803 30.6827 84.4451 29.4132 83.3805C28.1436 82.3159 27.9787 80.4375 27.649 76.6807L24.9884 46.3718C24.9371 45.788 24.9115 45.4961 24.9285 45.2046C24.9455 44.9131 25.0048 44.6262 25.1235 44.0523L31.0291 15.4931C31.2494 14.4278 31.3595 13.8952 31.5731 13.4517C32.0359 12.4907 32.8633 11.7544 33.8715 11.4063C34.3368 11.2456 34.8786 11.198 35.9622 11.1029C37.8077 10.9409 38.7304 10.8599 39.4252 11.0514C40.9445 11.4701 42.0763 12.7419 42.3159 14.2996C42.4254 15.0118 42.2379 15.9189 41.8628 17.7331L37.3499 39.5602C36.8726 41.8687 38.7556 43.9846 41.1039 43.7785C43.0401 43.6085 44.7474 45.0403 44.9174 46.9764L47.3729 74.9493ZM72.2948 75.8236C72.372 76.7027 72.4106 77.1423 72.3737 77.5145C72.211 79.1531 71.0609 80.5246 69.4757 80.9702C69.1156 81.0714 68.676 81.11 67.7969 81.1872L57.9345 82.0529C57.0553 82.1301 56.6158 82.1687 56.2436 82.1318C54.605 81.9691 53.2335 80.819 52.7879 79.2338C52.6866 78.8737 52.648 78.4341 52.5709 77.555C52.4937 76.6759 52.4551 76.2364 52.4921 75.8641C52.6547 74.2255 53.8048 72.854 55.39 72.4084C55.7501 72.3072 56.1897 72.2686 57.0688 72.1914L66.9313 71.3257C67.8104 71.2485 68.2499 71.2099 68.6221 71.2469C70.2607 71.4095 71.6322 72.5597 72.0779 74.1449C72.1791 74.5049 72.2177 74.9445 72.2948 75.8236ZM75.9275 60.5975C76.0047 61.4771 76.0433 61.9169 76.0063 62.2893C75.8436 63.9276 74.6936 65.2988 73.1087 65.7445C72.7485 65.8458 72.3087 65.8844 71.4291 65.9616L56.6364 67.2602C55.7568 67.3374 55.3171 67.376 54.9447 67.339C53.3064 67.1762 51.9351 66.0263 51.4894 64.4414C51.3881 64.0812 51.3495 63.6414 51.2723 62.7618C51.1951 61.8822 51.1565 61.4425 51.1935 61.0701C51.3562 59.4318 52.5062 58.0605 54.0911 57.6148C54.4513 57.5135 54.8911 57.4749 55.7707 57.3977L70.5634 56.0992C71.443 56.022 71.8827 55.9834 72.2551 56.0204C73.8934 56.1831 75.2647 57.333 75.7104 58.9179C75.8117 59.2782 75.8503 59.718 75.9275 60.5975ZM71.3417 46.0929C71.4189 46.972 71.4575 47.4115 71.4206 47.7837C71.2579 49.4223 70.1078 50.7939 68.5226 51.2395C68.1625 51.3407 67.7229 51.3793 66.8438 51.4565L55.3373 52.4665C54.4582 52.5437 54.0186 52.5823 53.6464 52.5453C52.0078 52.3827 50.6363 51.2326 50.1907 49.6473C50.0895 49.2873 50.0509 48.8477 49.9737 47.9686C49.8966 47.0895 49.858 46.6499 49.8949 46.2777C50.0575 44.6391 51.2077 43.2676 52.7929 42.822C53.153 42.7208 53.5925 42.6822 54.4716 42.605L65.9782 41.595C66.8573 41.5178 67.2968 41.4792 67.669 41.5161C69.3076 41.6788 70.6792 42.8289 71.1248 44.4141C71.226 44.7742 71.2646 45.2138 71.3417 46.0929Z"/>
</mask>
<path d="M47.3729 74.9493C47.7027 78.7061 47.8676 80.5845 46.8029 81.854C45.7383 83.1235 43.8599 83.2884 40.1031 83.6182L36.3179 83.9505C32.5611 84.2803 30.6827 84.4451 29.4132 83.3805C28.1436 82.3159 27.9787 80.4375 27.649 76.6807L24.9884 46.3718C24.9371 45.788 24.9115 45.4961 24.9285 45.2046C24.9455 44.9131 25.0048 44.6262 25.1235 44.0523L31.0291 15.4931C31.2494 14.4278 31.3595 13.8952 31.5731 13.4517C32.0359 12.4907 32.8633 11.7544 33.8715 11.4063C34.3368 11.2456 34.8786 11.198 35.9622 11.1029C37.8077 10.9409 38.7304 10.8599 39.4252 11.0514C40.9445 11.4701 42.0763 12.7419 42.3159 14.2996C42.4254 15.0118 42.2379 15.9189 41.8628 17.7331L37.3499 39.5602C36.8726 41.8687 38.7556 43.9846 41.1039 43.7785C43.0401 43.6085 44.7474 45.0403 44.9174 46.9764L47.3729 74.9493ZM72.2948 75.8236C72.372 76.7027 72.4106 77.1423 72.3737 77.5145C72.211 79.1531 71.0609 80.5246 69.4757 80.9702C69.1156 81.0714 68.676 81.11 67.7969 81.1872L57.9345 82.0529C57.0553 82.1301 56.6158 82.1687 56.2436 82.1318C54.605 81.9691 53.2335 80.819 52.7879 79.2338C52.6866 78.8737 52.648 78.4341 52.5709 77.555C52.4937 76.6759 52.4551 76.2364 52.4921 75.8641C52.6547 74.2255 53.8048 72.854 55.39 72.4084C55.7501 72.3072 56.1897 72.2686 57.0688 72.1914L66.9313 71.3257C67.8104 71.2485 68.2499 71.2099 68.6221 71.2469C70.2607 71.4095 71.6322 72.5597 72.0779 74.1449C72.1791 74.5049 72.2177 74.9445 72.2948 75.8236ZM75.9275 60.5975C76.0047 61.4771 76.0433 61.9169 76.0063 62.2893C75.8436 63.9276 74.6936 65.2988 73.1087 65.7445C72.7485 65.8458 72.3087 65.8844 71.4291 65.9616L56.6364 67.2602C55.7568 67.3374 55.3171 67.376 54.9447 67.339C53.3064 67.1762 51.9351 66.0263 51.4894 64.4414C51.3881 64.0812 51.3495 63.6414 51.2723 62.7618C51.1951 61.8822 51.1565 61.4425 51.1935 61.0701C51.3562 59.4318 52.5062 58.0605 54.0911 57.6148C54.4513 57.5135 54.8911 57.4749 55.7707 57.3977L70.5634 56.0992C71.443 56.022 71.8827 55.9834 72.2551 56.0204C73.8934 56.1831 75.2647 57.333 75.7104 58.9179C75.8117 59.2782 75.8503 59.718 75.9275 60.5975ZM71.3417 46.0929C71.4189 46.972 71.4575 47.4115 71.4206 47.7837C71.2579 49.4223 70.1078 50.7939 68.5226 51.2395C68.1625 51.3407 67.7229 51.3793 66.8438 51.4565L55.3373 52.4665C54.4582 52.5437 54.0186 52.5823 53.6464 52.5453C52.0078 52.3827 50.6363 51.2326 50.1907 49.6473C50.0895 49.2873 50.0509 48.8477 49.9737 47.9686C49.8966 47.0895 49.858 46.6499 49.8949 46.2777C50.0575 44.6391 51.2077 43.2676 52.7929 42.822C53.153 42.7208 53.5925 42.6822 54.4716 42.605L65.9782 41.595C66.8573 41.5178 67.2968 41.4792 67.669 41.5161C69.3076 41.6788 70.6792 42.8289 71.1248 44.4141C71.226 44.7742 71.2646 45.2138 71.3417 46.0929Z" fill="#FFBA34"/>
<path d="M65.9782 41.595L65.6284 37.6103L65.9782 41.595ZM67.669 41.5161L67.274 45.4966L67.669 41.5161ZM71.1248 44.4141L67.274 45.4966L71.1248 44.4141ZM49.8949 46.2777L53.8754 46.6728L49.8949 46.2777ZM54.4716 42.605L54.8214 46.5897L54.4716 42.605ZM52.7929 42.822L51.7104 38.9713L52.7929 42.822ZM55.3373 52.4665L55.6871 56.4512L55.3373 52.4665ZM53.6464 52.5453L53.2514 56.5258L53.6464 52.5453ZM50.1907 49.6473L54.0414 48.5649L50.1907 49.6473ZM66.8438 51.4565L66.4941 47.4718L66.8438 51.4565ZM68.5226 51.2395L69.605 55.0902L68.5226 51.2395ZM71.4206 47.7837L67.4401 47.3887L71.4206 47.7837ZM70.5634 56.0992L70.9132 60.0839L70.5634 56.0992ZM72.2551 56.0204L71.8597 60.0008L72.2551 56.0204ZM75.7104 58.9179L71.8597 60.0008L75.7104 58.9179ZM51.1935 61.0701L55.1739 61.4655L51.1935 61.0701ZM55.7707 57.3977L55.4209 53.413L55.7707 57.3977ZM54.0911 57.6148L53.0082 53.7642L54.0911 57.6148ZM54.9447 67.339L54.5493 71.3194L54.9447 67.339ZM51.4894 64.4414L47.6388 65.5242L51.4894 64.4414ZM73.1087 65.7445L74.1916 69.5952L73.1087 65.7445ZM76.0063 62.2893L72.0259 61.8939L76.0063 62.2893ZM68.6221 71.2469L68.2271 75.2273L68.6221 71.2469ZM72.0779 74.1449L68.2271 75.2273L72.0779 74.1449ZM52.4921 75.8641L56.4725 76.2592L52.4921 75.8641ZM55.39 72.4084L54.3076 68.5577L55.39 72.4084ZM57.9345 82.0529L58.2842 86.0376L57.9345 82.0529ZM56.2436 82.1318L56.6386 78.1513L56.2436 82.1318ZM52.7879 79.2338L48.9371 80.3162L52.7879 79.2338ZM67.7969 81.1872L67.4471 77.2025L67.7969 81.1872ZM69.4757 80.9702L70.5581 84.821L69.4757 80.9702ZM72.3737 77.5145L76.3541 77.9095L72.3737 77.5145ZM44.9174 46.9764L40.9327 47.3262L44.9174 46.9764ZM39.4252 11.0514L40.488 7.19517L39.4252 11.0514ZM42.3159 14.2996L46.2694 13.6915L42.3159 14.2996ZM31.5731 13.4517L35.1769 15.1872L31.5731 13.4517ZM33.8715 11.4063L32.566 7.6253L33.8715 11.4063ZM25.1235 44.0523L21.2064 43.2423L25.1235 44.0523ZM24.9285 45.2046L20.9353 44.9721L24.9285 45.2046ZM29.4132 83.3805L31.9834 80.3156L29.4132 83.3805ZM46.8029 81.854L43.738 79.2837L46.8029 81.854ZM40.1031 83.6182L39.7533 79.6335L35.9681 79.9658L36.3179 83.9505L36.6677 87.9352L40.4529 87.6029L40.1031 83.6182ZM27.649 76.6807L31.6336 76.3309L28.9731 46.022L24.9884 46.3718L21.0037 46.7216L23.6643 77.0305L27.649 76.6807ZM25.1235 44.0523L29.0406 44.8623L34.9462 16.3031L31.0291 15.4931L27.1119 14.6831L21.2064 43.2423L25.1235 44.0523ZM41.8628 17.7331L37.9456 16.9232L33.4328 38.7503L37.3499 39.5602L41.2671 40.3701L45.7799 18.543L41.8628 17.7331ZM44.9174 46.9764L40.9327 47.3262L43.3882 75.2991L47.3729 74.9493L51.3576 74.5995L48.9021 46.6267L44.9174 46.9764ZM67.7969 81.1872L67.4471 77.2025L57.5847 78.0683L57.9345 82.0529L58.2842 86.0376L68.1467 85.1719L67.7969 81.1872ZM57.0688 72.1914L57.4186 76.1761L67.281 75.3104L66.9313 71.3257L66.5815 67.341L56.719 68.2068L57.0688 72.1914ZM71.4291 65.9616L71.0793 61.977L56.2866 63.2755L56.6364 67.2602L56.9862 71.2448L71.7789 69.9463L71.4291 65.9616ZM55.7707 57.3977L56.1204 61.3824L70.9132 60.0839L70.5634 56.0992L70.2136 52.1145L55.4209 53.413L55.7707 57.3977ZM66.8438 51.4565L66.4941 47.4718L54.9875 48.4818L55.3373 52.4665L55.6871 56.4512L67.1936 55.4411L66.8438 51.4565ZM54.4716 42.605L54.8214 46.5897L66.328 45.5796L65.9782 41.595L65.6284 37.6103L54.1219 38.6203L54.4716 42.605ZM65.9782 41.595L66.328 45.5796C66.7932 45.5388 67.0475 45.517 67.2338 45.5067C67.4055 45.4972 67.3789 45.507 67.274 45.4966L67.669 41.5161L68.0641 37.5357C67.2258 37.4525 66.3263 37.549 65.6284 37.6103L65.9782 41.595ZM71.3417 46.0929L75.3264 45.7431C75.2652 45.0452 75.2035 44.1426 74.9755 43.3317L71.1248 44.4141L67.274 45.4966C67.2455 45.3952 67.2505 45.3673 67.2711 45.538C67.2934 45.7232 67.3162 45.9774 67.3571 46.4427L71.3417 46.0929ZM67.669 41.5161L67.274 45.4966L71.1248 44.4141L74.9755 43.3317C74.0843 40.1613 71.3413 37.8609 68.0641 37.5357L67.669 41.5161ZM49.9737 47.9686L53.9584 47.6188C53.9176 47.1536 53.8957 46.8993 53.8855 46.713C53.876 46.5413 53.8858 46.5679 53.8754 46.6728L49.8949 46.2777L45.9145 45.8827C45.8313 46.7209 45.9278 47.6205 45.989 48.3184L49.9737 47.9686ZM54.4716 42.605L54.1219 38.6203C53.424 38.6816 52.5214 38.7433 51.7104 38.9713L52.7929 42.822L53.8754 46.6728C53.7739 46.7013 53.746 46.6963 53.9167 46.6757C54.102 46.6534 54.3562 46.6305 54.8214 46.5897L54.4716 42.605ZM49.8949 46.2777L53.8754 46.6728L52.7929 42.822L51.7104 38.9713C48.54 39.8625 46.2397 42.6055 45.9145 45.8827L49.8949 46.2777ZM55.3373 52.4665L54.9875 48.4818C54.5223 48.5227 54.268 48.5445 54.0817 48.5548C53.91 48.5642 53.9366 48.5545 54.0414 48.5649L53.6464 52.5453L53.2514 56.5258C54.0896 56.609 54.9892 56.5125 55.6871 56.4512L55.3373 52.4665ZM49.9737 47.9686L45.989 48.3184C46.0503 49.0163 46.112 49.9189 46.3399 50.7298L50.1907 49.6473L54.0414 48.5649C54.07 48.6663 54.065 48.6942 54.0444 48.5235C54.022 48.3383 53.9992 48.084 53.9584 47.6188L49.9737 47.9686ZM53.6464 52.5453L54.0414 48.5649L50.1907 49.6473L46.3399 50.7298C47.2312 53.9002 49.9742 56.2005 53.2514 56.5258L53.6464 52.5453ZM66.8438 51.4565L67.1936 55.4411C67.8915 55.3799 68.7941 55.3182 69.605 55.0902L68.5226 51.2395L67.4401 47.3887C67.5415 47.3602 67.5695 47.3652 67.3987 47.3858C67.2135 47.4081 66.9593 47.4309 66.4941 47.4718L66.8438 51.4565ZM71.3417 46.0929L67.3571 46.4427C67.3979 46.9079 67.4197 47.1622 67.43 47.3485C67.4395 47.5202 67.4297 47.4936 67.4401 47.3887L71.4206 47.7837L75.401 48.1788C75.4842 47.3405 75.3877 46.441 75.3264 45.7431L71.3417 46.0929ZM68.5226 51.2395L69.605 55.0902C72.7755 54.199 75.0758 51.456 75.401 48.1788L71.4206 47.7837L67.4401 47.3887L68.5226 51.2395ZM70.5634 56.0992L70.9132 60.0839C71.3786 60.043 71.6331 60.0212 71.8195 60.0109C71.9913 60.0014 71.9646 60.0112 71.8597 60.0008L72.2551 56.0204L72.6505 52.0399C71.8119 51.9566 70.9119 52.0532 70.2136 52.1145L70.5634 56.0992ZM75.9275 60.5975L79.9122 60.2478C79.8509 59.5495 79.7892 58.6464 79.561 57.8351L75.7104 58.9179L71.8597 60.0008C71.8312 59.8993 71.8362 59.8714 71.8568 60.0422C71.8791 60.2275 71.902 60.4819 71.9428 60.9473L75.9275 60.5975ZM72.2551 56.0204L71.8597 60.0008L75.7104 58.9179L79.561 57.8351C78.6696 54.6653 75.9271 52.3654 72.6505 52.0399L72.2551 56.0204ZM51.2723 62.7618L55.257 62.412C55.2161 61.9466 55.1943 61.6921 55.184 61.5057C55.1745 61.3339 55.1843 61.3606 55.1739 61.4655L51.1935 61.0701L47.2131 60.6747C47.1298 61.5133 47.2263 62.4133 47.2876 63.1116L51.2723 62.7618ZM55.7707 57.3977L55.4209 53.413C54.7226 53.4743 53.8195 53.536 53.0082 53.7642L54.0911 57.6148L55.1739 61.4655C55.0724 61.494 55.0445 61.489 55.2153 61.4684C55.4006 61.4461 55.655 61.4232 56.1204 61.3824L55.7707 57.3977ZM51.1935 61.0701L55.1739 61.4655L54.0911 57.6148L53.0082 53.7642C49.8384 54.6555 47.5386 57.3981 47.2131 60.6747L51.1935 61.0701ZM56.6364 67.2602L56.2866 63.2755C55.8212 63.3164 55.5667 63.3382 55.3803 63.3485C55.2085 63.3579 55.2352 63.3482 55.3401 63.3586L54.9447 67.339L54.5493 71.3194C55.3879 71.4027 56.2879 71.3061 56.9862 71.2448L56.6364 67.2602ZM51.2723 62.7618L47.2876 63.1116C47.3489 63.8099 47.4106 64.7129 47.6388 65.5242L51.4894 64.4414L55.3401 63.3586C55.3686 63.4601 55.3636 63.488 55.343 63.3172C55.3207 63.1318 55.2978 62.8775 55.257 62.412L51.2723 62.7618ZM54.9447 67.339L55.3401 63.3586L51.4894 64.4414L47.6388 65.5242C48.5301 68.694 51.2726 70.9939 54.5493 71.3194L54.9447 67.339ZM71.4291 65.9616L71.7789 69.9463C72.4772 69.885 73.3802 69.8233 74.1916 69.5952L73.1087 65.7445L72.0259 61.8939C72.1274 61.8653 72.1553 61.8703 71.9845 61.8909C71.7992 61.9133 71.5448 61.9361 71.0793 61.977L71.4291 65.9616ZM75.9275 60.5975L71.9428 60.9473C71.9837 61.4128 72.0055 61.6672 72.0158 61.8536C72.0252 62.0254 72.0155 61.9988 72.0259 61.8939L76.0063 62.2893L79.9867 62.6847C80.07 61.846 79.9735 60.946 79.9122 60.2478L75.9275 60.5975ZM73.1087 65.7445L74.1916 69.5952C77.3614 68.7038 79.6612 65.9613 79.9867 62.6847L76.0063 62.2893L72.0259 61.8939L73.1087 65.7445ZM66.9313 71.3257L67.281 75.3104C67.7463 75.2695 68.0006 75.2477 68.1869 75.2374C68.3586 75.228 68.3319 75.2377 68.2271 75.2273L68.6221 71.2469L69.0172 67.2664C68.1789 67.1833 67.2794 67.2798 66.5815 67.341L66.9313 71.3257ZM72.2948 75.8236L76.2795 75.4738C76.2182 74.7759 76.1566 73.8733 75.9286 73.0624L72.0779 74.1449L68.2271 75.2273C68.1986 75.1259 68.2036 75.098 68.2242 75.2687C68.2465 75.4539 68.2693 75.7082 68.3102 76.1734L72.2948 75.8236ZM68.6221 71.2469L68.2271 75.2273L72.0779 74.1449L75.9286 73.0624C75.0374 69.892 72.2944 67.5917 69.0172 67.2664L68.6221 71.2469ZM52.5709 77.555L56.5556 77.2052C56.5147 76.74 56.4929 76.4857 56.4826 76.2994C56.4732 76.1277 56.4829 76.1543 56.4725 76.2592L52.4921 75.8641L48.5116 75.4691C48.4284 76.3074 48.5249 77.2069 48.5862 77.9048L52.5709 77.555ZM57.0688 72.1914L56.719 68.2068C56.0211 68.268 55.1185 68.3297 54.3076 68.5577L55.39 72.4084L56.4725 76.2592C56.3711 76.2877 56.3432 76.2827 56.5139 76.2621C56.6991 76.2398 56.9534 76.217 57.4186 76.1761L57.0688 72.1914ZM52.4921 75.8641L56.4725 76.2592L55.39 72.4084L54.3076 68.5577C51.1372 69.4489 48.8368 72.1919 48.5116 75.4691L52.4921 75.8641ZM57.9345 82.0529L57.5847 78.0683C57.1195 78.1091 56.8651 78.1309 56.6788 78.1412C56.5071 78.1507 56.5338 78.1409 56.6386 78.1513L56.2436 82.1318L55.8486 86.1122C56.6868 86.1954 57.5863 86.0989 58.2842 86.0376L57.9345 82.0529ZM52.5709 77.555L48.5862 77.9048C48.6475 78.6027 48.7091 79.5053 48.9371 80.3162L52.7879 79.2338L56.6386 78.1513C56.6671 78.2527 56.6621 78.2807 56.6416 78.1099C56.6192 77.9247 56.5964 77.6705 56.5556 77.2052L52.5709 77.555ZM56.2436 82.1318L56.6386 78.1513L52.7879 79.2338L48.9371 80.3162C49.8283 83.4866 52.5714 85.787 55.8486 86.1122L56.2436 82.1318ZM67.7969 81.1872L68.1467 85.1719C68.8446 85.1106 69.7472 85.0489 70.5581 84.821L69.4757 80.9702L68.3932 77.1195C68.4946 77.091 68.5225 77.0959 68.3518 77.1165C68.1666 77.1389 67.9123 77.1617 67.4471 77.2025L67.7969 81.1872ZM72.2948 75.8236L68.3102 76.1734C68.351 76.6386 68.3728 76.8929 68.3831 77.0792C68.3926 77.2509 68.3828 77.2243 68.3932 77.1195L72.3737 77.5145L76.3541 77.9095C76.4373 77.0713 76.3408 76.1717 76.2795 75.4738L72.2948 75.8236ZM69.4757 80.9702L70.5581 84.821C73.7285 83.9298 76.0289 81.1867 76.3541 77.9095L72.3737 77.5145L68.3932 77.1195L69.4757 80.9702ZM41.1039 43.7785L41.4537 47.7631C41.1892 47.7864 40.9559 47.5908 40.9327 47.3262L44.9174 46.9764L48.9021 46.6267C48.5389 42.4898 44.891 39.4307 40.7542 39.7938L41.1039 43.7785ZM37.3499 39.5602L33.4328 38.7503C32.4129 43.6828 36.4363 48.2036 41.4537 47.7631L41.1039 43.7785L40.7542 39.7938C41.075 39.7656 41.3323 40.0547 41.2671 40.3701L37.3499 39.5602ZM35.9622 11.1029L36.312 15.0876C37.2816 15.0025 37.8395 14.9551 38.2461 14.9428C38.6436 14.9308 38.5831 14.9684 38.3624 14.9076L39.4252 11.0514L40.488 7.19517C39.5725 6.94286 38.7033 6.92531 38.0044 6.94643C37.3145 6.96728 36.4883 7.04136 35.6124 7.11825L35.9622 11.1029ZM41.8628 17.7331L45.7799 18.543C45.9579 17.682 46.1274 16.87 46.2282 16.1872C46.3303 15.4954 46.4137 14.6301 46.2694 13.6915L42.3159 14.2996L38.3624 14.9076C38.3276 14.6813 38.372 14.6256 38.3139 15.0191C38.2546 15.4214 38.1427 15.97 37.9456 16.9232L41.8628 17.7331ZM39.4252 11.0514L38.3624 14.9076L42.3159 14.2996L46.2694 13.6915C45.7903 10.5762 43.5266 8.03263 40.488 7.19517L39.4252 11.0514ZM31.0291 15.4931L34.9462 16.3031C35.0634 15.7361 35.1258 15.4389 35.1804 15.2244C35.2276 15.0384 35.2303 15.0764 35.1769 15.1872L31.5731 13.4517L27.9692 11.7161C27.4901 12.7109 27.2876 13.8333 27.1119 14.6831L31.0291 15.4931ZM35.9622 11.1029L35.6124 7.11825C34.7481 7.19412 33.6097 7.26493 32.566 7.6253L33.8715 11.4063L35.1769 15.1872C35.0607 15.2274 35.0233 15.2203 35.2135 15.1949C35.4328 15.1657 35.7353 15.1382 36.312 15.0876L35.9622 11.1029ZM31.5731 13.4517L35.1769 15.1872L33.8715 11.4063L32.566 7.6253C30.5496 8.3215 28.8948 9.79416 27.9692 11.7161L31.5731 13.4517ZM24.9884 46.3718L28.9731 46.022C28.9455 45.7085 28.9325 45.5559 28.926 45.4446C28.9209 45.3575 28.9252 45.3773 28.9217 45.4372L24.9285 45.2046L20.9353 44.9721C20.8974 45.6213 20.9621 46.2478 21.0037 46.7216L24.9884 46.3718ZM25.1235 44.0523L21.2064 43.2423C21.11 43.708 20.9731 44.3228 20.9353 44.9721L24.9285 45.2046L28.9217 45.4372C28.9182 45.4971 28.9117 45.5162 28.9268 45.4304C28.9462 45.3206 28.9769 45.1705 29.0406 44.8623L25.1235 44.0523ZM36.3179 83.9505L35.9681 79.9658C33.977 80.1406 32.8839 80.228 32.1171 80.1927C31.4663 80.1626 31.6786 80.06 31.9834 80.3156L29.4132 83.3805L26.8429 86.4454C28.4172 87.7657 30.2035 88.1129 31.7485 88.1842C33.1775 88.2501 34.9019 88.0902 36.6677 87.9352L36.3179 83.9505ZM27.649 76.6807L23.6643 77.0305C23.8193 78.7962 23.9623 80.5221 24.2761 81.9178C24.6154 83.4267 25.2686 85.1252 26.8429 86.4454L29.4132 83.3805L31.9834 80.3156C32.2882 80.5712 32.2241 80.7982 32.0812 80.1625C31.9128 79.4136 31.8084 78.322 31.6336 76.3309L27.649 76.6807ZM40.1031 83.6182L40.4529 87.6029C42.2187 87.4479 43.9446 87.3049 45.3402 86.9911C46.8491 86.6517 48.5476 85.9986 49.8679 84.4243L46.8029 81.854L43.738 79.2837C43.9936 78.9789 44.2206 79.043 43.585 79.186C42.8361 79.3544 41.7444 79.4588 39.7533 79.6335L40.1031 83.6182ZM47.3729 74.9493L43.3882 75.2991C43.563 77.2901 43.6504 78.3833 43.6151 79.1501C43.5851 79.8009 43.4824 79.5886 43.738 79.2837L46.8029 81.854L49.8679 84.4243C51.1881 82.8499 51.5353 81.0636 51.6066 79.5187C51.6725 78.0897 51.5126 76.3653 51.3576 74.5995L47.3729 74.9493Z" fill="#572217" mask="url(#path-3-outside-1_71_217)"/>
</g>
<g filter="url(#filter2_d_71_217)">
<path d="M73.6465 15.8347C75.7584 12.4867 76.8143 10.8128 77.8817 11.0988C78.949 11.3848 79.0265 13.3624 79.1815 17.3178L79.2149 18.1711C79.2572 19.2494 79.2783 19.7886 79.5919 20.1759C79.9056 20.5632 80.4285 20.6959 81.4745 20.9614L82.3022 21.1716C86.1389 22.1455 88.0573 22.6325 88.1151 23.736C88.1729 24.8395 86.316 25.5243 82.6021 26.894L81.8009 27.1895C80.7884 27.5629 80.2822 27.7496 80.0108 28.1675C79.7394 28.5855 79.7747 29.1239 79.8454 30.2007L79.9013 31.0528C80.1606 35.0027 80.2903 36.9777 79.2587 37.3737C78.2271 37.7697 77.0019 36.2153 74.5516 33.1064L74.023 32.4357C73.355 31.5882 73.021 31.1644 72.5397 31.0354C72.0583 30.9065 71.5572 31.1064 70.5549 31.5064L69.7618 31.823C66.0853 33.2902 64.2471 34.0238 63.5517 33.165C62.8563 32.3063 63.956 30.6607 66.1556 27.3697L66.6301 26.6597C67.2297 25.7625 67.5295 25.3139 67.5034 24.8162C67.4774 24.3185 67.1323 23.9037 66.4422 23.0741L65.896 22.4176C63.3646 19.3745 62.0988 17.853 62.7006 16.9262C63.3025 15.9995 65.2073 16.5369 69.017 17.6118L69.8389 17.8437C70.8774 18.1367 71.3967 18.2832 71.862 18.1046C72.3272 17.926 72.6151 17.4697 73.1908 16.557L73.6465 15.8347Z" fill="#DFE9ED"/>
</g>
<defs>
<filter id="filter0_d_71_217" x="9.08508" y="74.2373" width="17.3517" height="18.252" filterUnits="userSpaceOnUse" color-interpolation-filters="sRGB">
<feFlood flood-opacity="0" result="BackgroundImageFix"/>
<feColorMatrix in="SourceAlpha" type="matrix" values="0 0 0 0 0 0 0 0 0 0 0 0 0 0 0 0 0 0 127 0" result="hardAlpha"/>
<feOffset dx="3" dy="3"/>
<feComposite in2="hardAlpha" operator="out"/>
<feColorMatrix type="matrix" values="0 0 0 0 0.0705882 0 0 0 0 0.0666667 0 0 0 0 0.141176 0 0 0 1 0"/>
<feBlend mode="normal" in2="BackgroundImageFix" result="effect1_dropShadow_71_217"/>
<feBlend mode="normal" in="SourceGraphic" in2="effect1_dropShadow_71_217" result="shape"/>
</filter>
<filter id="filter1_d_71_217" x="20.9238" y="6.93994" width="63.0952" height="85.2594" filterUnits="userSpaceOnUse" color-interpolation-filters="sRGB">
<feFlood flood-opacity="0" result="BackgroundImageFix"/>
<feColorMatrix in="SourceAlpha" type="matrix" values="0 0 0 0 0 0 0 0 0 0 0 0 0 0 0 0 0 0 127 0" result="hardAlpha"/>
<feOffset dx="4" dy="4"/>
<feComposite in2="hardAlpha" operator="out"/>
<feColorMatrix type="matrix" values="0 0 0 0 0.0705882 0 0 0 0 0.0666667 0 0 0 0 0.141176 0 0 0 1 0"/>
<feBlend mode="normal" in2="BackgroundImageFix" result="effect1_dropShadow_71_217"/>
<feBlend mode="normal" in="SourceGraphic" in2="effect1_dropShadow_71_217" result="shape"/>
</filter>
<filter id="filter2_d_71_217" x="62.5525" y="11.0673" width="28.564" height="29.3671" filterUnits="userSpaceOnUse" color-interpolation-filters="sRGB">
<feFlood flood-opacity="0" result="BackgroundImageFix"/>
<feColorMatrix in="SourceAlpha" type="matrix" values="0 0 0 0 0 0 0 0 0 0 0 0 0 0 0 0 0 0 127 0" result="hardAlpha"/>
<feOffset dx="3" dy="3"/>
<feComposite in2="hardAlpha" operator="out"/>
<feColorMatrix type="matrix" values="0 0 0 0 0.0705882 0 0 0 0 0.0666667 0 0 0 0 0.141176 0 0 0 1 0"/>
<feBlend mode="normal" in2="BackgroundImageFix" result="effect1_dropShadow_71_217"/>
<feBlend mode="normal" in="SourceGraphic" in2="effect1_dropShadow_71_217" result="shape"/>
</filter>
</defs>
</svg>
