<svg width="100" height="100" viewBox="0 0 100 100" fill="none" xmlns="http://www.w3.org/2000/svg">
<g filter="url(#filter0_d_71_217)">
<path d="M13.4544 78.2103C13.7314 76.0824 13.87 75.0184 14.253 74.6525C14.7045 74.2214 15.3757 74.1149 15.9384 74.3852C16.4159 74.6145 16.8769 75.5834 17.799 77.5211V77.5211C17.9565 77.852 18.0352 78.0175 18.1452 78.1543C18.2759 78.3168 18.4389 78.4502 18.624 78.5461C18.7799 78.627 18.9576 78.6714 19.3132 78.7604L19.5105 78.8097C21.8717 79.4004 23.0524 79.6957 23.334 80.4175C23.4124 80.6183 23.4466 80.8337 23.4342 81.0489C23.3897 81.8224 22.3585 82.4687 20.296 83.7611L20.1236 83.8691C19.8131 84.0637 19.6578 84.161 19.5346 84.2861C19.3883 84.4346 19.2745 84.612 19.2006 84.8069C19.1383 84.9711 19.1147 85.1528 19.0674 85.5162V85.5162C18.7903 87.6442 18.6517 88.7081 18.2687 89.074C17.8172 89.5051 17.146 89.6116 16.5833 89.3413C16.1058 89.112 15.6448 88.1432 14.7227 86.2054V86.2054C14.5652 85.8745 14.4865 85.709 14.3765 85.5722C14.2459 85.4097 14.0828 85.2763 13.8977 85.1804C13.7418 85.0996 13.5641 85.0551 13.2085 84.9662L13.0112 84.9168C10.65 84.3261 9.46935 84.0308 9.18767 83.309C9.10931 83.1082 9.07515 82.8928 9.08752 82.6777C9.13196 81.9041 10.1632 81.2578 12.2257 79.9654L12.3981 79.8574C12.7086 79.6628 12.8639 79.5655 12.9871 79.4404C13.1334 79.2919 13.2472 79.1145 13.3211 78.9196C13.3834 78.7555 13.407 78.5738 13.4544 78.2103V78.2103Z" fill="#DFE9ED"/>
</g>
<rect x="44" y="48" width="18" height="31" fill="#572217"/>
<g filter="url(#filter1_d_71_217)">
<mask id="path-3-outside-1_71_217" maskUnits="userSpaceOnUse" x="16.5819" y="2.6257" width="65.9445" height="86.8452" fill="black">
<rect fill="white" x="16.5819" y="2.6257" width="65.9445" height="86.8452"/>
<path d="M47.3729 74.9493C47.7027 78.7061 47.8676 80.5845 46.8029 81.8541C45.7383 83.1236 43.8599 83.2885 40.1031 83.6183L36.3179 83.9505C32.5611 84.2803 30.6827 84.4452 29.4132 83.3806C28.1436 82.3159 27.9787 80.4375 27.649 76.6808L24.9884 46.3719C24.9371 45.7881 24.9115 45.4962 24.9285 45.2047C24.9455 44.9132 25.0048 44.6262 25.1235 44.0523L31.0291 15.4931C31.2494 14.4279 31.3595 13.8952 31.5731 13.4517C32.0359 12.4908 32.8633 11.7544 33.8715 11.4063C34.3368 11.2457 34.8786 11.1981 35.9622 11.103V11.103C37.8077 10.941 38.7304 10.86 39.4252 11.0515C40.9445 11.4702 42.0763 12.742 42.3159 14.2996C42.4254 15.0119 42.2379 15.919 41.8628 17.7332L37.3499 39.5603C36.8726 41.8688 38.7556 43.9847 41.1039 43.7785V43.7785C43.0401 43.6086 44.7474 45.0404 44.9174 46.9765L47.3729 74.9493ZM72.2948 75.8237C72.372 76.7028 72.4106 77.1423 72.3736 77.5146C72.211 79.1532 71.0609 80.5247 69.4757 80.9703C69.1156 81.0715 68.676 81.1101 67.7969 81.1873L57.9345 82.053C57.0553 82.1302 56.6158 82.1688 56.2436 82.1318C54.605 81.9692 53.2335 80.819 52.7879 79.2338C52.6866 78.8738 52.648 78.4342 52.5709 77.5551V77.5551C52.4937 76.676 52.4551 76.2364 52.4921 75.8642C52.6547 74.2256 53.8048 72.8541 55.39 72.4085C55.7501 72.3073 56.1897 72.2687 57.0688 72.1915L66.9313 71.3258C67.8104 71.2486 68.2499 71.21 68.6221 71.2469C70.2607 71.4096 71.6322 72.5597 72.0779 74.1449C72.1791 74.505 72.2177 74.9446 72.2948 75.8237V75.8237ZM75.9275 60.5976C76.0047 61.4772 76.0433 61.9169 76.0063 62.2893C75.8436 63.9276 74.6936 65.2989 73.1087 65.7446C72.7485 65.8459 72.3087 65.8845 71.4291 65.9617L56.6364 67.2602C55.7568 67.3374 55.3171 67.376 54.9447 67.3391C53.3064 67.1763 51.9351 66.0264 51.4894 64.4415C51.3881 64.0812 51.3495 63.6414 51.2723 62.7619V62.7619C51.1951 61.8823 51.1565 61.4425 51.1935 61.0701C51.3562 59.4318 52.5062 58.0606 54.0911 57.6149C54.4513 57.5136 54.8911 57.475 55.7707 57.3978L70.5634 56.0992C71.4429 56.022 71.8827 55.9834 72.2551 56.0204C73.8934 56.1832 75.2647 57.3331 75.7104 58.918C75.8117 59.2782 75.8503 59.718 75.9275 60.5976V60.5976ZM71.3417 46.0929C71.4189 46.9721 71.4575 47.4116 71.4206 47.7838C71.2579 49.4224 70.1078 50.7939 68.5226 51.2395C68.1625 51.3408 67.7229 51.3793 66.8438 51.4565L55.3373 52.4666C54.4582 52.5437 54.0186 52.5823 53.6464 52.5454C52.0078 52.3828 50.6363 51.2326 50.1907 49.6474C50.0895 49.2873 50.0509 48.8478 49.9737 47.9687V47.9687C49.8966 47.0896 49.858 46.65 49.8949 46.2778C50.0575 44.6392 51.2077 43.2677 52.7929 42.8221C53.153 42.7208 53.5925 42.6823 54.4716 42.6051L65.9782 41.595C66.8573 41.5179 67.2968 41.4793 67.669 41.5162C69.3076 41.6788 70.6792 42.829 71.1248 44.4142C71.226 44.7743 71.2646 45.2138 71.3417 46.0929V46.0929Z"/>
</mask>
<path d="M47.3729 74.9493C47.7027 78.7061 47.8676 80.5845 46.8029 81.8541C45.7383 83.1236 43.8599 83.2885 40.1031 83.6183L36.3179 83.9505C32.5611 84.2803 30.6827 84.4452 29.4132 83.3806C28.1436 82.3159 27.9787 80.4375 27.649 76.6808L24.9884 46.3719C24.9371 45.7881 24.9115 45.4962 24.9285 45.2047C24.9455 44.9132 25.0048 44.6262 25.1235 44.0523L31.0291 15.4931C31.2494 14.4279 31.3595 13.8952 31.5731 13.4517C32.0359 12.4908 32.8633 11.7544 33.8715 11.4063C34.3368 11.2457 34.8786 11.1981 35.9622 11.103V11.103C37.8077 10.941 38.7304 10.86 39.4252 11.0515C40.9445 11.4702 42.0763 12.742 42.3159 14.2996C42.4254 15.0119 42.2379 15.919 41.8628 17.7332L37.3499 39.5603C36.8726 41.8688 38.7556 43.9847 41.1039 43.7785V43.7785C43.0401 43.6086 44.7474 45.0404 44.9174 46.9765L47.3729 74.9493ZM72.2948 75.8237C72.372 76.7028 72.4106 77.1423 72.3736 77.5146C72.211 79.1532 71.0609 80.5247 69.4757 80.9703C69.1156 81.0715 68.676 81.1101 67.7969 81.1873L57.9345 82.053C57.0553 82.1302 56.6158 82.1688 56.2436 82.1318C54.605 81.9692 53.2335 80.819 52.7879 79.2338C52.6866 78.8738 52.648 78.4342 52.5709 77.5551V77.5551C52.4937 76.676 52.4551 76.2364 52.4921 75.8642C52.6547 74.2256 53.8048 72.8541 55.39 72.4085C55.7501 72.3073 56.1897 72.2687 57.0688 72.1915L66.9313 71.3258C67.8104 71.2486 68.2499 71.21 68.6221 71.2469C70.2607 71.4096 71.6322 72.5597 72.0779 74.1449C72.1791 74.505 72.2177 74.9446 72.2948 75.8237V75.8237ZM75.9275 60.5976C76.0047 61.4772 76.0433 61.9169 76.0063 62.2893C75.8436 63.9276 74.6936 65.2989 73.1087 65.7446C72.7485 65.8459 72.3087 65.8845 71.4291 65.9617L56.6364 67.2602C55.7568 67.3374 55.3171 67.376 54.9447 67.3391C53.3064 67.1763 51.9351 66.0264 51.4894 64.4415C51.3881 64.0812 51.3495 63.6414 51.2723 62.7619V62.7619C51.1951 61.8823 51.1565 61.4425 51.1935 61.0701C51.3562 59.4318 52.5062 58.0606 54.0911 57.6149C54.4513 57.5136 54.8911 57.475 55.7707 57.3978L70.5634 56.0992C71.4429 56.022 71.8827 55.9834 72.2551 56.0204C73.8934 56.1832 75.2647 57.3331 75.7104 58.918C75.8117 59.2782 75.8503 59.718 75.9275 60.5976V60.5976ZM71.3417 46.0929C71.4189 46.9721 71.4575 47.4116 71.4206 47.7838C71.2579 49.4224 70.1078 50.7939 68.5226 51.2395C68.1625 51.3408 67.7229 51.3793 66.8438 51.4565L55.3373 52.4666C54.4582 52.5437 54.0186 52.5823 53.6464 52.5454C52.0078 52.3828 50.6363 51.2326 50.1907 49.6474C50.0895 49.2873 50.0509 48.8478 49.9737 47.9687V47.9687C49.8966 47.0896 49.858 46.65 49.8949 46.2778C50.0575 44.6392 51.2077 43.2677 52.7929 42.8221C53.153 42.7208 53.5925 42.6823 54.4716 42.6051L65.9782 41.595C66.8573 41.5179 67.2968 41.4793 67.669 41.5162C69.3076 41.6788 70.6792 42.829 71.1248 44.4142C71.226 44.7743 71.2646 45.2138 71.3417 46.0929V46.0929Z" fill="#FFBA34"/>
<path d="M67.669 41.5162L67.274 45.4967L67.669 41.5162ZM71.1248 44.4142L67.274 45.4967L71.1248 44.4142ZM49.8949 46.2778L45.9145 45.8828L49.8949 46.2778ZM52.7929 42.8221L53.8754 46.6728L52.7929 42.8221ZM53.6464 52.5454L53.2514 56.5258L53.6464 52.5454ZM50.1907 49.6474L46.3399 50.7299L50.1907 49.6474ZM68.5226 51.2395L69.605 55.0903L68.5226 51.2395ZM71.4206 47.7838L75.401 48.1788L71.4206 47.7838ZM72.2551 56.0204L72.6505 52.04L72.2551 56.0204ZM75.7104 58.918L71.8597 60.0008L75.7104 58.918ZM51.1935 61.0701L55.1739 61.4655L51.1935 61.0701ZM54.0911 57.6149L55.1739 61.4655L54.0911 57.6149ZM54.9447 67.3391L54.5493 71.3195L54.9447 67.3391ZM51.4894 64.4415L47.6388 65.5243L51.4894 64.4415ZM73.1087 65.7446L72.0259 61.8939L73.1087 65.7446ZM76.0063 62.2893L79.9867 62.6847L76.0063 62.2893ZM68.6221 71.2469L69.0172 67.2665L68.6221 71.2469ZM72.0779 74.1449L68.2271 75.2274L72.0779 74.1449ZM52.4921 75.8642L48.5116 75.4692L52.4921 75.8642ZM55.39 72.4085L56.4725 76.2592L55.39 72.4085ZM56.2436 82.1318L55.8486 86.1123L56.2436 82.1318ZM52.7879 79.2338L48.9371 80.3163L52.7879 79.2338ZM69.4757 80.9703L70.5581 84.821L69.4757 80.9703ZM72.3736 77.5146L76.3541 77.9096L72.3736 77.5146ZM39.4252 11.0515L38.3624 14.9077L39.4252 11.0515ZM31.0291 15.4931L27.1119 14.6831L31.0291 15.4931ZM31.5731 13.4517L27.9692 11.7161L31.5731 13.4517ZM33.8715 11.4063L32.566 7.62536L33.8715 11.4063ZM25.1235 44.0523L29.0406 44.8623L25.1235 44.0523ZM24.9285 45.2047L20.9353 44.9721L24.9285 45.2047ZM29.4132 83.3806L31.9834 80.3156L29.4132 83.3806ZM46.8029 81.8541L43.738 79.2838L46.8029 81.8541ZM40.1031 83.6183L39.7533 79.6336L35.9681 79.9659L36.3179 83.9505L36.6677 87.9352L40.4529 87.6029L40.1031 83.6183ZM27.649 76.6808L31.6336 76.331L28.9731 46.0221L24.9884 46.3719L21.0037 46.7217L23.6643 77.0305L27.649 76.6808ZM25.1235 44.0523L29.0406 44.8623L34.9462 16.3031L31.0291 15.4931L27.1119 14.6831L21.2064 43.2423L25.1235 44.0523ZM41.8628 17.7332L37.9456 16.9233L33.4328 38.7504L37.3499 39.5603L41.2671 40.3702L45.7799 18.5431L41.8628 17.7332ZM44.9174 46.9765L40.9327 47.3263L43.3882 75.2991L47.3729 74.9493L51.3576 74.5996L48.9021 46.6267L44.9174 46.9765ZM67.7969 81.1873L67.4471 77.2026L57.5847 78.0683L57.9345 82.053L58.2842 86.0377L68.1467 85.1719L67.7969 81.1873ZM57.0688 72.1915L57.4186 76.1762L67.281 75.3104L66.9313 71.3258L66.5815 67.3411L56.719 68.2068L57.0688 72.1915ZM71.4291 65.9617L71.0793 61.977L56.2866 63.2756L56.6364 67.2602L56.9862 71.2449L71.7789 69.9464L71.4291 65.9617ZM55.7707 57.3978L56.1204 61.3824L70.9132 60.0839L70.5634 56.0992L70.2136 52.1146L55.4209 53.4131L55.7707 57.3978ZM66.8438 51.4565L66.4941 47.4718L54.9875 48.4819L55.3373 52.4666L55.6871 56.4513L67.1936 55.4412L66.8438 51.4565ZM54.4716 42.6051L54.8214 46.5898L66.328 45.5797L65.9782 41.595L65.6284 37.6103L54.1219 38.6204L54.4716 42.6051ZM65.9782 41.595L66.328 45.5797C66.7932 45.5389 67.0475 45.517 67.2338 45.5068C67.4055 45.4973 67.3789 45.5071 67.274 45.4967L67.669 41.5162L68.0641 37.5358C67.2258 37.4526 66.3263 37.5491 65.6284 37.6103L65.9782 41.595ZM71.3417 46.0929L75.3264 45.7432C75.2652 45.0453 75.2035 44.1427 74.9755 43.3317L71.1248 44.4142L67.274 45.4967C67.2455 45.3952 67.2505 45.3673 67.2711 45.538C67.2934 45.7233 67.3162 45.9775 67.3571 46.4427L71.3417 46.0929ZM67.669 41.5162L67.274 45.4967V45.4967L71.1248 44.4142L74.9755 43.3317C74.0843 40.1613 71.3413 37.861 68.0641 37.5358L67.669 41.5162ZM49.9737 47.9687L53.9584 47.6189C53.9176 47.1537 53.8957 46.8993 53.8855 46.713C53.876 46.5413 53.8858 46.568 53.8754 46.6728L49.8949 46.2778L45.9145 45.8828C45.8313 46.721 45.9278 47.6205 45.989 48.3184L49.9737 47.9687ZM54.4716 42.6051L54.1219 38.6204C53.424 38.6817 52.5214 38.7434 51.7104 38.9713L52.7929 42.8221L53.8754 46.6728C53.7739 46.7013 53.746 46.6964 53.9167 46.6758C54.102 46.6534 54.3562 46.6306 54.8214 46.5898L54.4716 42.6051ZM49.8949 46.2778L53.8754 46.6728L53.8754 46.6728L52.7929 42.8221L51.7104 38.9713C48.54 39.8625 46.2397 42.6056 45.9145 45.8828L49.8949 46.2778ZM55.3373 52.4666L54.9875 48.4819C54.5223 48.5227 54.268 48.5446 54.0817 48.5548C53.91 48.5643 53.9366 48.5545 54.0414 48.5649L53.6464 52.5454L53.2514 56.5258C54.0896 56.609 54.9892 56.5125 55.6871 56.4513L55.3373 52.4666ZM49.9737 47.9687L45.989 48.3184C46.0503 49.0163 46.112 49.919 46.3399 50.7299L50.1907 49.6474L54.0414 48.5649C54.07 48.6664 54.065 48.6943 54.0444 48.5236C54.022 48.3383 53.9992 48.0841 53.9584 47.6189L49.9737 47.9687ZM53.6464 52.5454L54.0414 48.5649H54.0414L50.1907 49.6474L46.3399 50.7299C47.2312 53.9003 49.9742 56.2006 53.2514 56.5258L53.6464 52.5454ZM66.8438 51.4565L67.1936 55.4412C67.8915 55.3799 68.7941 55.3182 69.605 55.0903L68.5226 51.2395L67.4401 47.3888C67.5415 47.3603 67.5695 47.3652 67.3987 47.3858C67.2135 47.4082 66.9593 47.431 66.4941 47.4718L66.8438 51.4565ZM71.3417 46.0929L67.3571 46.4427C67.3979 46.9079 67.4197 47.1623 67.43 47.3486C67.4395 47.5203 67.4297 47.4936 67.4401 47.3888L71.4206 47.7838L75.401 48.1788C75.4842 47.3406 75.3877 46.4411 75.3264 45.7432L71.3417 46.0929ZM68.5226 51.2395L69.605 55.0903C72.7755 54.1991 75.0758 51.456 75.401 48.1788L71.4206 47.7838L67.4401 47.3888H67.4401L68.5226 51.2395ZM70.5634 56.0992L70.9132 60.0839C71.3786 60.0431 71.6331 60.0212 71.8195 60.0109C71.9913 60.0015 71.9646 60.0112 71.8597 60.0008L72.2551 56.0204L72.6505 52.04C71.8119 51.9567 70.9119 52.0533 70.2136 52.1146L70.5634 56.0992ZM75.9275 60.5976L79.9122 60.2478C79.8509 59.5496 79.7892 58.6465 79.561 57.8352L75.7104 58.918L71.8597 60.0008C71.8312 59.8994 71.8362 59.8714 71.8568 60.0422C71.8791 60.2276 71.902 60.4819 71.9428 60.9474L75.9275 60.5976ZM72.2551 56.0204L71.8597 60.0008V60.0008L75.7104 58.918L79.561 57.8352C78.6696 54.6654 75.9271 52.3655 72.6505 52.04L72.2551 56.0204ZM51.2723 62.7619L55.257 62.4121C55.2161 61.9466 55.1943 61.6922 55.184 61.5058C55.1745 61.334 55.1843 61.3606 55.1739 61.4655L51.1935 61.0701L47.2131 60.6747C47.1298 61.5134 47.2263 62.4134 47.2876 63.1117L51.2723 62.7619ZM55.7707 57.3978L55.4209 53.4131C54.7226 53.4744 53.8195 53.5361 53.0082 53.7642L54.0911 57.6149L55.1739 61.4655C55.0724 61.4941 55.0445 61.4891 55.2153 61.4685C55.4006 61.4461 55.655 61.4233 56.1204 61.3824L55.7707 57.3978ZM51.1935 61.0701L55.1739 61.4655L55.1739 61.4655L54.0911 57.6149L53.0082 53.7642C49.8384 54.6556 47.5386 57.3981 47.2131 60.6747L51.1935 61.0701ZM56.6364 67.2602L56.2866 63.2756C55.8212 63.3164 55.5667 63.3383 55.3803 63.3485C55.2085 63.358 55.2352 63.3482 55.3401 63.3586L54.9447 67.3391L54.5493 71.3195C55.3879 71.4028 56.2879 71.3062 56.9862 71.2449L56.6364 67.2602ZM51.2723 62.7619L47.2876 63.1117C47.3489 63.8099 47.4106 64.713 47.6388 65.5243L51.4894 64.4415L55.3401 63.3586C55.3686 63.4601 55.3636 63.4881 55.343 63.3173C55.3207 63.1319 55.2978 62.8775 55.257 62.4121L51.2723 62.7619ZM54.9447 67.3391L55.3401 63.3586V63.3586L51.4894 64.4415L47.6388 65.5243C48.5301 68.6941 51.2726 70.994 54.5493 71.3195L54.9447 67.3391ZM71.4291 65.9617L71.7789 69.9464C72.4772 69.8851 73.3802 69.8234 74.1916 69.5952L73.1087 65.7446L72.0259 61.8939C72.1274 61.8654 72.1553 61.8704 71.9845 61.891C71.7992 61.9133 71.5448 61.9362 71.0793 61.977L71.4291 65.9617ZM75.9275 60.5976L71.9428 60.9474C71.9837 61.4128 72.0055 61.6673 72.0158 61.8537C72.0252 62.0255 72.0155 61.9988 72.0259 61.8939L76.0063 62.2893L79.9867 62.6847C80.07 61.8461 79.9735 60.9461 79.9122 60.2478L75.9275 60.5976ZM73.1087 65.7446L74.1916 69.5952C77.3614 68.7039 79.6612 65.9614 79.9867 62.6847L76.0063 62.2893L72.0259 61.8939V61.8939L73.1087 65.7446ZM66.9313 71.3258L67.281 75.3104C67.7463 75.2696 68.0006 75.2478 68.1869 75.2375C68.3586 75.228 68.3319 75.2378 68.2271 75.2274L68.6221 71.2469L69.0172 67.2665C68.1789 67.1833 67.2794 67.2798 66.5815 67.3411L66.9313 71.3258ZM72.2948 75.8237L76.2795 75.4739C76.2182 74.776 76.1566 73.8734 75.9286 73.0625L72.0779 74.1449L68.2271 75.2274C68.1986 75.126 68.2036 75.0981 68.2242 75.2688C68.2465 75.454 68.2693 75.7082 68.3102 76.1735L72.2948 75.8237ZM68.6221 71.2469L68.2271 75.2274H68.2271L72.0779 74.1449L75.9286 73.0625C75.0374 69.8921 72.2944 67.5917 69.0172 67.2665L68.6221 71.2469ZM52.5709 77.5551L56.5556 77.2053C56.5147 76.7401 56.4929 76.4858 56.4826 76.2995C56.4732 76.1278 56.4829 76.1544 56.4725 76.2592L52.4921 75.8642L48.5116 75.4692C48.4284 76.3074 48.5249 77.207 48.5862 77.9049L52.5709 77.5551ZM57.0688 72.1915L56.719 68.2068C56.0211 68.2681 55.1185 68.3298 54.3076 68.5577L55.39 72.4085L56.4725 76.2592C56.3711 76.2877 56.3432 76.2828 56.5139 76.2622C56.6991 76.2398 56.9534 76.217 57.4186 76.1762L57.0688 72.1915ZM52.4921 75.8642L56.4725 76.2592H56.4725L55.39 72.4085L54.3076 68.5577C51.1372 69.4489 48.8368 72.192 48.5116 75.4692L52.4921 75.8642ZM57.9345 82.053L57.5847 78.0683C57.1195 78.1092 56.8651 78.131 56.6788 78.1413C56.5071 78.1507 56.5338 78.141 56.6386 78.1514L56.2436 82.1318L55.8486 86.1123C56.6868 86.1955 57.5863 86.0989 58.2842 86.0377L57.9345 82.053ZM52.5709 77.5551L48.5862 77.9049C48.6475 78.6028 48.7091 79.5054 48.9371 80.3163L52.7879 79.2338L56.6386 78.1514C56.6671 78.2528 56.6621 78.2807 56.6415 78.11C56.6192 77.9247 56.5964 77.6705 56.5556 77.2053L52.5709 77.5551ZM56.2436 82.1318L56.6386 78.1514H56.6386L52.7879 79.2338L48.9371 80.3163C49.8283 83.4867 52.5714 85.787 55.8486 86.1123L56.2436 82.1318ZM67.7969 81.1873L68.1467 85.1719C68.8446 85.1107 69.7472 85.049 70.5581 84.821L69.4757 80.9703L68.3932 77.1195C68.4946 77.091 68.5225 77.096 68.3518 77.1166C68.1666 77.1389 67.9123 77.1617 67.4471 77.2026L67.7969 81.1873ZM72.2948 75.8237L68.3102 76.1735C68.351 76.6387 68.3728 76.893 68.3831 77.0793C68.3926 77.251 68.3828 77.2244 68.3932 77.1195L72.3736 77.5146L76.3541 77.9096C76.4373 77.0713 76.3408 76.1718 76.2795 75.4739L72.2948 75.8237ZM69.4757 80.9703L70.5581 84.821C73.7285 83.9298 76.0289 81.1868 76.3541 77.9096L72.3736 77.5146L68.3932 77.1195L68.3932 77.1195L69.4757 80.9703ZM41.1039 43.7785L41.4537 47.7632C41.1892 47.7864 40.9559 47.5908 40.9327 47.3263L44.9174 46.9765L48.9021 46.6267C48.5389 42.4899 44.891 39.4307 40.7542 39.7939L41.1039 43.7785ZM37.3499 39.5603L33.4328 38.7504C32.4129 43.6828 36.4362 48.2036 41.4537 47.7632L41.1039 43.7785L40.7542 39.7939C41.075 39.7657 41.3323 40.0548 41.2671 40.3702L37.3499 39.5603ZM35.9622 11.103L36.312 15.0877C37.2816 15.0025 37.8395 14.9551 38.2461 14.9428C38.6436 14.9308 38.5831 14.9685 38.3624 14.9077L39.4252 11.0515L40.488 7.19523C39.5725 6.94293 38.7033 6.92537 38.0044 6.94649C37.3145 6.96734 36.4883 7.04142 35.6124 7.11831L35.9622 11.103ZM41.8628 17.7332L45.7799 18.5431C45.9579 17.6821 46.1274 16.87 46.2282 16.1872C46.3303 15.4955 46.4137 14.6301 46.2694 13.6916L42.3159 14.2996L38.3624 14.9077C38.3276 14.6814 38.372 14.6257 38.3139 15.0191C38.2546 15.4215 38.1427 15.9701 37.9456 16.9233L41.8628 17.7332ZM39.4252 11.0515L38.3624 14.9077H38.3624L42.3159 14.2996L46.2694 13.6916C45.7903 10.5763 43.5266 8.03269 40.488 7.19523L39.4252 11.0515ZM31.0291 15.4931L34.9462 16.3031C35.0634 15.7362 35.1258 15.439 35.1804 15.2245C35.2276 15.0385 35.2303 15.0765 35.1769 15.1873L31.5731 13.4517L27.9692 11.7161C27.4901 12.711 27.2877 13.8334 27.1119 14.6831L31.0291 15.4931ZM35.9622 11.103L35.6124 7.11831C34.7481 7.19418 33.6097 7.26499 32.566 7.62536L33.8715 11.4063L35.1769 15.1873C35.0607 15.2274 35.0233 15.2204 35.2135 15.195C35.4328 15.1658 35.7353 15.1383 36.312 15.0877L35.9622 11.103ZM31.5731 13.4517L35.1769 15.1873V15.1873L33.8715 11.4063L32.566 7.62536C30.5496 8.32156 28.8948 9.79422 27.9692 11.7161L31.5731 13.4517ZM24.9884 46.3719L28.9731 46.0221C28.9455 45.7085 28.9325 45.5559 28.926 45.4446C28.9209 45.3576 28.9252 45.3773 28.9217 45.4373L24.9285 45.2047L20.9353 44.9721C20.8974 45.6214 20.9621 46.2479 21.0037 46.7217L24.9884 46.3719ZM25.1235 44.0523L21.2064 43.2423C21.11 43.7081 20.9731 44.3228 20.9353 44.9721L24.9285 45.2047L28.9217 45.4373C28.9182 45.4972 28.9117 45.5163 28.9268 45.4304C28.9462 45.3206 28.9769 45.1706 29.0406 44.8623L25.1235 44.0523ZM36.3179 83.9505L35.9681 79.9659C33.977 80.1406 32.8839 80.2281 32.1171 80.1927C31.4663 80.1627 31.6786 80.06 31.9834 80.3156L29.4132 83.3806L26.8429 86.4455C28.4172 87.7658 30.2035 88.113 31.7485 88.1842C33.1775 88.2501 34.9019 88.0902 36.6677 87.9352L36.3179 83.9505ZM27.649 76.6808L23.6643 77.0305C23.8193 78.7963 23.9623 80.5222 24.2761 81.9178C24.6154 83.4268 25.2686 85.1253 26.8429 86.4455L29.4132 83.3806L31.9834 80.3156C32.2882 80.5713 32.2241 80.7982 32.0812 80.1626C31.9128 79.4137 31.8084 78.322 31.6336 76.331L27.649 76.6808ZM40.1031 83.6183L40.4529 87.6029C42.2187 87.4479 43.9446 87.305 45.3402 86.9911C46.8491 86.6518 48.5476 85.9987 49.8679 84.4243L46.8029 81.8541L43.738 79.2838C43.9936 78.979 44.2206 79.0431 43.585 79.186C42.8361 79.3545 41.7444 79.4588 39.7533 79.6336L40.1031 83.6183ZM47.3729 74.9493L43.3882 75.2991C43.563 77.2902 43.6504 78.3833 43.6151 79.1501C43.5851 79.801 43.4824 79.5886 43.738 79.2838L46.8029 81.8541L49.8679 84.4243C51.1881 82.85 51.5353 81.0637 51.6066 79.5187C51.6725 78.0897 51.5126 76.3653 51.3576 74.5996L47.3729 74.9493Z" fill="#572217" mask="url(#path-3-outside-1_71_217)"/>
</g>
<g filter="url(#filter2_d_71_217)">
<path d="M73.6463 15.8346C75.7582 12.4867 76.8142 10.8127 77.8816 11.0987C78.9489 11.3847 79.0264 13.3624 79.1814 17.3178L79.2148 18.1711C79.2571 19.2494 79.2782 19.7885 79.5918 20.1758C79.9054 20.5631 80.4284 20.6959 81.4744 20.9614L82.3021 21.1715C86.1388 22.1455 88.0572 22.6324 88.115 23.7359C88.1728 24.8394 86.3159 25.5243 82.602 26.8939L81.8008 27.1894C80.7883 27.5628 80.2821 27.7495 80.0106 28.1675C79.7392 28.5854 79.7746 29.1238 79.8453 30.2006L79.9012 31.0528C80.1605 35.0027 80.2902 36.9776 79.2586 37.3736C78.2269 37.7696 77.0018 36.2152 74.5515 33.1063L74.0229 32.4356C73.3549 31.5881 73.0209 31.1644 72.5395 31.0354C72.0582 30.9064 71.557 31.1064 70.5548 31.5064L69.7616 31.8229C66.0852 33.2901 64.247 34.0237 63.5516 33.165C62.8562 32.3062 63.9559 30.6607 66.1554 27.3696L66.63 26.6596C67.2296 25.7624 67.5294 25.3138 67.5033 24.8162C67.4772 24.3185 67.1322 23.9037 66.442 23.0741L65.8959 22.4176C63.3644 19.3744 62.0987 17.8529 62.7005 16.9262C63.3024 15.9994 65.2072 16.5369 69.0169 17.6117L69.8387 17.8436C70.8773 18.1366 71.3966 18.2832 71.8619 18.1046C72.3271 17.926 72.615 17.4696 73.1907 16.5569L73.6463 15.8346Z" fill="#DFE9ED"/>
</g>
<defs>
<filter id="filter0_d_71_217" x="9.08508" y="74.2373" width="17.3516" height="18.252" filterUnits="userSpaceOnUse" color-interpolation-filters="sRGB">
<feFlood flood-opacity="0" result="BackgroundImageFix"/>
<feColorMatrix in="SourceAlpha" type="matrix" values="0 0 0 0 0 0 0 0 0 0 0 0 0 0 0 0 0 0 127 0" result="hardAlpha"/>
<feOffset dx="3" dy="3"/>
<feComposite in2="hardAlpha" operator="out"/>
<feColorMatrix type="matrix" values="0 0 0 0 0.0705882 0 0 0 0 0.0666667 0 0 0 0 0.141176 0 0 0 1 0"/>
<feBlend mode="normal" in2="BackgroundImageFix" result="effect1_dropShadow_71_217"/>
<feBlend mode="normal" in="SourceGraphic" in2="effect1_dropShadow_71_217" result="shape"/>
</filter>
<filter id="filter1_d_71_217" x="20.9238" y="6.93994" width="63.0953" height="85.2595" filterUnits="userSpaceOnUse" color-interpolation-filters="sRGB">
<feFlood flood-opacity="0" result="BackgroundImageFix"/>
<feColorMatrix in="SourceAlpha" type="matrix" values="0 0 0 0 0 0 0 0 0 0 0 0 0 0 0 0 0 0 127 0" result="hardAlpha"/>
<feOffset dx="4" dy="4"/>
<feComposite in2="hardAlpha" operator="out"/>
<feColorMatrix type="matrix" values="0 0 0 0 0.0705882 0 0 0 0 0.0666667 0 0 0 0 0.141176 0 0 0 1 0"/>
<feBlend mode="normal" in2="BackgroundImageFix" result="effect1_dropShadow_71_217"/>
<feBlend mode="normal" in="SourceGraphic" in2="effect1_dropShadow_71_217" result="shape"/>
</filter>
<filter id="filter2_d_71_217" x="62.5525" y="11.0674" width="28.5638" height="29.3669" filterUnits="userSpaceOnUse" color-interpolation-filters="sRGB">
<feFlood flood-opacity="0" result="BackgroundImageFix"/>
<feColorMatrix in="SourceAlpha" type="matrix" values="0 0 0 0 0 0 0 0 0 0 0 0 0 0 0 0 0 0 127 0" result="hardAlpha"/>
<feOffset dx="3" dy="3"/>
<feComposite in2="hardAlpha" operator="out"/>
<feColorMatrix type="matrix" values="0 0 0 0 0.0705882 0 0 0 0 0.0666667 0 0 0 0 0.141176 0 0 0 1 0"/>
<feBlend mode="normal" in2="BackgroundImageFix" result="effect1_dropShadow_71_217"/>
<feBlend mode="normal" in="SourceGraphic" in2="effect1_dropShadow_71_217" result="shape"/>
</filter>
</defs>
</svg>
