<svg width="100" height="100" viewBox="0 0 100 100" fill="none" xmlns="http://www.w3.org/2000/svg">
<rect x="8" y="8" width="84" height="84" rx="12" fill="white"/>
<mask id="mask0_443_2" style="mask-type:alpha" maskUnits="userSpaceOnUse" x="8" y="8" width="84" height="84">
<rect x="8" y="8" width="84" height="84" rx="12" fill="#C3DAE9"/>
</mask>
<g mask="url(#mask0_443_2)">
<path d="M92 68C92 79.3137 92.0001 84.9706 88.4854 88.4854C84.9706 92.0001 79.3137 92 68 92H32C20.6863 92 15.0294 92.0001 11.5146 88.4854C7.99993 84.9706 8 79.3137 8 68V62C8 73.3137 7.99993 78.9706 11.5146 82.4854C15.0294 86.0001 20.6863 86 32 86H68C79.3137 86 84.9706 86.0001 88.4854 82.4854C92.0001 78.9706 92 73.3137 92 62V68Z" fill="#5B6784"/>
<rect x="8" y="8" width="84" height="35" fill="#190E30"/>
<rect x="8" y="24" width="84" height="37" rx="6" fill="white"/>
<path opacity="0.5" d="M29 30V88" stroke="#5B6784" stroke-width="6" stroke-linecap="round"/>
<path opacity="0.5" d="M50 30V88" stroke="#5B6784" stroke-width="6" stroke-linecap="round"/>
<path opacity="0.5" d="M71 30V88" stroke="#5B6784" stroke-width="6" stroke-linecap="round"/>
<rect x="43" y="14" width="14" height="54" rx="4" fill="#190E30"/>
<rect x="22" y="14" width="14" height="54" rx="4" fill="#190E30"/>
<rect x="64" y="14" width="14" height="54" rx="4" fill="#190E30"/>
</g>
</svg>
