<svg width="100" height="100" viewBox="0 0 100 100" fill="none" xmlns="http://www.w3.org/2000/svg">
<circle cx="50" cy="50" r="42" fill="#F20D44"/>
<circle cx="34.7" cy="42.7" r="11.7" fill="white"/>
<circle cx="11.7" cy="11.7" r="11.7" transform="matrix(-1 0 0 1 75.2002 31)" fill="white"/>
<circle cx="37.4002" cy="43.6" r="7.2" fill="#38001E"/>
<circle cx="7.2" cy="7.2" r="7.2" transform="matrix(-1 0 0 1 68 36.4)" fill="#38001E"/>
<path d="M42.6572 34.8282C37.2849 31.844 34.8584 29.2872 32.8075 23.3809" stroke="#38001E" stroke-width="4" stroke-linecap="round"/>
<path d="M55.543 34.8282C60.9153 31.844 63.3418 29.2872 65.3927 23.3809" stroke="#38001E" stroke-width="4" stroke-linecap="round"/>
<path d="M65 10.25L74.5495 11.7192L76.25 3.5M84.5 3.5L82.4774 12.9388L91.25 14.2885M80 24.5L81 19.8333L89.75 20.875M71.75 25.25L73.0661 18.8888L63.5 17.75" stroke="#38001E" stroke-width="4" stroke-linecap="round" stroke-linejoin="round"/>
<rect x="5" y="56" width="90" height="29" rx="6" fill="#121124"/>
<path d="M24.9999 80C20.9999 76.8334 13.0999 68.5 13.4999 64.5C13.9999 59.5 22.4999 59 21.4999 64.5C20.4999 70 12.4999 70 11.9999 75.5C11.4999 81 22.4999 82 24.4999 72.5M31 80V79.5M31.5 75L32.5 61" stroke="white" stroke-width="4" stroke-linecap="round" stroke-linejoin="round"/>
<path d="M38.5902 80.609C46 73.1091 50 67.7062 53.3803 60.3688M44.2273 64.0918C44.4892 66.4999 43.5902 67.8731 41.5306 68.0971C39.821 68.283 38.2564 66.7911 38.0361 64.765C37.8158 62.7388 38.5903 60.9926 40.7328 60.7596C42.4425 60.5737 44.007 62.0656 44.2273 64.0918ZM54.942 78.4023C54.1039 80.609 52.4436 81.1973 50.8947 80.609C49.0902 79.9236 48.6466 78.0789 49.333 76.2719C50.0193 74.4648 51.8314 73.4768 53.3803 74.0651C55.3397 74.8094 55.6284 76.5953 54.942 78.4023Z" stroke="white" stroke-width="4" stroke-linecap="round" stroke-linejoin="round"/>
<path d="M63.5 65.8462V61M63.5 65.8462L59 64.4615M63.5 65.8462L68 64.4615M63.5 65.8462L66.2692 70M63.5 65.8462L60.7308 70" stroke="white" stroke-width="4" stroke-linecap="round" stroke-linejoin="round"/>
<path d="M78.5 61L75.5 81M86 61L83.5 81M74 67H89M72.5 75H87.5" stroke="white" stroke-width="4" stroke-linecap="round" stroke-linejoin="round"/>
</svg>
