<svg width="100" height="100" viewBox="0 0 100 100" fill="none" xmlns="http://www.w3.org/2000/svg">
<circle cx="50" cy="50" r="42" fill="#F20D44"/>
<circle cx="34.7" cy="43.7" r="11.7" fill="white"/>
<circle cx="11.7" cy="11.7" r="11.7" transform="matrix(-1 0 0 1 75.2002 32)" fill="white"/>
<circle cx="37.4002" cy="44.6" r="7.2" fill="#38001E"/>
<circle cx="7.2" cy="7.2" r="7.2" transform="matrix(-1 0 0 1 68 37.4)" fill="#38001E"/>
<path d="M42.6572 35.8282C37.2849 32.844 34.8584 30.2872 32.8075 24.3809" stroke="#38001E" stroke-width="4" stroke-linecap="round"/>
<path d="M55.543 35.8282C60.9153 32.844 63.3418 30.2872 65.3927 24.3809" stroke="#38001E" stroke-width="4" stroke-linecap="round"/>
<path d="M65 10.25L74.5495 11.7192L76.25 3.5M84.5 3.5L82.4774 12.9388L91.25 14.2885M80 24.5L81 19.8333L89.75 20.875M71.75 25.25L73.0661 18.8888L63.5 17.75" stroke="#38001E" stroke-width="4" stroke-linecap="round" stroke-linejoin="round"/>
<rect x="5" y="58" width="90" height="29" rx="6" fill="#121124"/>
<path d="M24 82C22.5 77.1282 11 74.5299 11 68.359C11 64.3455 14 63 17.5 63C21 63 23 65.4276 23 68.359C23 73.7179 10 71.7692 10 77.9866C10 80.0513 12.4999 81.5128 16.9999 81.5128C22 81.5128 24 74.9011 24 74.9011" stroke="white" stroke-width="3" stroke-linecap="round" stroke-linejoin="round"/>
<path d="M34 63L31.1818 76.9024M30 82V81.5" stroke="white" stroke-width="3" stroke-linecap="round" stroke-linejoin="round"/>
<path d="M41.4999 83C48.4923 73.9895 51.7289 69.3517 55.9999 62M47.137 66.0918C47.3988 68.5 46.4999 69.8732 44.4403 70.0972C42.7306 70.2831 41.1661 68.7912 40.9458 66.765C40.7255 64.7388 41.5 62.9927 43.6425 62.7597C45.3521 62.5738 46.9167 64.0657 47.137 66.0918ZM57.8517 80.4024C57.0135 82.6091 55.3533 83.1974 53.8044 82.6091C51.9999 81.9237 51.5563 80.079 52.2427 78.2719C52.929 76.4649 54.741 75.4769 56.2899 76.0652C58.2494 76.8095 58.538 78.5953 57.8517 80.4024Z" stroke="white" stroke-width="3" stroke-linecap="round" stroke-linejoin="round"/>
<path d="M65.9814 62.3853L66.2961 65.6368M66.2961 65.6368L62.3147 66.0222M66.2961 65.6368L70.2775 65.2515M66.2961 65.6368L64.665 69.5455M66.2961 65.6368L69.1441 69.112" stroke="white" stroke-width="3" stroke-linecap="round" stroke-linejoin="round"/>
<path d="M75 72.2857L90 72.7143M82.7419 65L82.2581 80" stroke="white" stroke-width="3" stroke-linecap="round" stroke-linejoin="round"/>
</svg>
