<svg width="100" height="100" viewBox="0 0 100 100" fill="none" xmlns="http://www.w3.org/2000/svg">
<circle cx="50" cy="50" r="42" fill="#F20D44"/>
<circle cx="34.7" cy="55.7" r="11.7" fill="white"/>
<circle cx="11.7" cy="11.7" r="11.7" transform="matrix(-1 0 0 1 75.2002 44)" fill="white"/>
<circle cx="37.4002" cy="56.6" r="7.2" fill="#38001E"/>
<circle cx="7.2" cy="7.2" r="7.2" transform="matrix(-1 0 0 1 68 49.4)" fill="#38001E"/>
<path d="M42.6572 47.8282C37.2849 44.844 34.8584 42.2872 32.8075 36.3809" stroke="#38001E" stroke-width="4" stroke-linecap="round"/>
<path d="M55.543 47.8282C60.9153 44.844 63.3418 42.2872 65.3927 36.3809" stroke="#38001E" stroke-width="4" stroke-linecap="round"/>
<path d="M65 78.5C60 70.5 40 70.5 35 78.5" stroke="#38001E" stroke-width="4" stroke-linecap="round"/>
<path d="M65 19.25L74.5495 20.7192L76.25 12.5M84.5 12.5L82.4774 21.9388L91.25 23.2885M80 33.5L81 28.8333L89.75 29.875M71.75 34.25L73.0661 27.8888L63.5 26.75" stroke="#38001E" stroke-width="4" stroke-linecap="round" stroke-linejoin="round"/>
</svg>
