<svg width="100" height="100" viewBox="0 0 100 100" fill="none" xmlns="http://www.w3.org/2000/svg">
<circle cx="49.9998" cy="50.0002" r="42" fill="#FFBA34"/>
<path d="M68.9608 30.4154C68.9608 30.4154 74.8871 20.2048 77.7713 18.5396C80.6556 16.8744 84.3098 17.8041 85.9334 20.6162C87.557 23.4283 86.535 27.0579 83.6508 28.7231C80.7666 30.3883 68.9608 30.4154 68.9608 30.4154Z" fill="#00A3FF"/>
<path d="M30.4156 68.9606C30.4156 68.9606 20.1897 74.8958 18.522 77.7844C16.8543 80.6729 17.7854 84.3327 20.6018 85.9587C23.4181 87.5847 27.0531 86.5612 28.7208 83.6727C30.3885 80.7841 30.4156 68.9606 30.4156 68.9606Z" fill="#00A3FF"/>
<path d="M19.2408 53.1819L38.3327 46.8179L31.9688 65.9098" stroke="#471C13" stroke-width="4" stroke-linecap="round" stroke-linejoin="round"/>
<path d="M53.182 19.2408L46.818 38.3327L65.9099 31.9688" stroke="#471C13" stroke-width="4" stroke-linecap="round" stroke-linejoin="round"/>
<path d="M39.1595 76.3252C43.3999 78.298 49.2342 79.7651 55.5925 78.4749C55.5376 76.5337 60.1355 70.7258 65.3576 65.3575C70.7258 60.1354 76.5337 55.5376 78.475 55.5925C79.7651 49.2341 78.2981 43.3999 76.3253 39.1595C75.6234 37.6508 75.2724 36.8965 74.5816 36.4872C73.9326 36.1026 73.0382 36.0327 72.3564 36.3132C71.6308 36.6117 71.0766 37.5224 69.9684 39.3439C71.692 44.7005 66.9303 53.5396 60.3532 60.3532C53.5397 66.9302 44.7005 71.692 39.344 69.9683C37.5225 71.0766 36.6118 71.6307 36.3132 72.3563C36.0327 73.0381 36.1027 73.9325 36.4873 74.5816C36.8966 75.2724 37.6509 75.6233 39.1595 76.3252Z" fill="#E60045"/>
<path d="M56.2199 56.2198C50.6939 61.7453 44.6325 66.7505 39.344 69.9683C44.7005 71.692 53.5397 66.9302 60.3532 60.3532C66.9303 53.5396 71.692 44.7005 69.9684 39.3439C66.7506 44.6325 61.7453 50.6938 56.2199 56.2198Z" fill="white"/>
<path d="M55.5925 78.4749C60.3031 77.5191 65.3013 75.05 70.1522 70.1522C75.0501 65.3012 77.5192 60.303 78.475 55.5925C76.5337 55.5376 70.7258 60.1354 65.3576 65.3575C60.1355 70.7258 55.5376 76.5337 55.5925 78.4749Z" fill="#E60045"/>
</svg>
