<svg width="100" height="100" viewBox="0 0 100 100" fill="none" xmlns="http://www.w3.org/2000/svg">
<circle cx="49.9998" cy="50.0002" r="42" fill="#FFBA34"/>
<path d="M68.9607 30.4154C68.9607 30.4154 74.887 20.2048 77.7712 18.5396C80.6554 16.8744 84.3097 17.8042 85.9333 20.6163C87.5569 23.4284 86.5349 27.058 83.6507 28.7232C80.7665 30.3884 68.9607 30.4154 68.9607 30.4154Z" fill="#00A3FF"/>
<path d="M30.4156 68.9607C30.4156 68.9607 20.1897 74.8959 18.522 77.7844C16.8543 80.673 17.7854 84.3327 20.6018 85.9587C23.4181 87.5848 27.0531 86.5613 28.7208 83.6727C30.3885 80.7842 30.4156 68.9607 30.4156 68.9607Z" fill="#00A3FF"/>
<path d="M19.2407 53.182L38.3326 46.818L31.9686 65.9099" stroke="#572217" stroke-width="4" stroke-linecap="round" stroke-linejoin="round"/>
<path d="M53.1819 19.2408L46.8179 38.3327L65.9098 31.9688" stroke="#572217" stroke-width="4" stroke-linecap="round" stroke-linejoin="round"/>
<path d="M39.1594 76.3253C43.3998 78.2981 49.234 79.7651 55.5924 78.475C55.5375 76.5337 60.1354 70.7258 65.3575 65.3576C70.7257 60.1355 76.5336 55.5376 78.4748 55.5925C79.765 49.2342 78.298 43.3999 76.3252 39.1596C75.6233 37.6509 75.2723 36.8966 74.5815 36.4873C73.9325 36.1027 73.038 36.0327 72.3563 36.3132C71.6307 36.6118 71.0765 37.5225 69.9682 39.344C71.6919 44.7005 66.9301 53.5397 60.3531 60.3532C53.5396 66.9303 44.7004 71.692 39.3439 69.9684C37.5224 71.0767 36.6116 71.6308 36.3131 72.3564C36.0326 73.0382 36.1026 73.9326 36.4871 74.5817C36.8964 75.2725 37.6508 75.6234 39.1594 76.3253Z" fill="#E40037"/>
<path d="M56.2198 56.2199C50.6938 61.7454 44.6324 66.7506 39.3439 69.9684C44.7004 71.692 53.5396 66.9303 60.3531 60.3532C66.9301 53.5397 71.6919 44.7005 69.9682 39.344C66.7505 44.6325 61.7452 50.6939 56.2198 56.2199Z" fill="white"/>
<path d="M55.5924 78.475C60.303 77.5192 65.3012 75.0501 70.1521 70.1522C75.0499 65.3013 77.519 60.3031 78.4748 55.5925C76.5336 55.5376 70.7257 60.1355 65.3575 65.3576C60.1354 70.7258 55.5375 76.5337 55.5924 78.475Z" fill="#E40037"/>
</svg>
