<svg width="100" height="100" viewBox="0 0 100 100" fill="none" xmlns="http://www.w3.org/2000/svg">
<circle cx="8.1" cy="8.1" r="8.1" transform="matrix(-1 0 0 1 89.6 57.2)" fill="#ADADBB"/>
<path d="M65.75 8.6001H42.6875C31.8031 8.6001 23 17.4032 23 28.2876H70.7V39.9313L78.8 65.3001C83.1875 62.9376 85.4375 51.8001 85.4375 28.2876C85.4375 17.4032 76.6063 8.6001 65.75 8.6001Z" fill="#E40037"/>
<circle cx="50" cy="60.5" r="33" fill="#DBDAE2"/>
<path d="M83 51.5C83 69.7254 68.2254 84.5 50 84.5C31.7746 84.5 17 69.7254 17 51.5C17 33.2746 31.7746 18.5 50 18.5C68.2254 18.5 83 33.2746 83 51.5Z" fill="#FFBA34"/>
<ellipse cx="50" cy="75.1999" rx="23.4" ry="10.8" fill="#DBDAE2"/>
<path d="M74.1281 64.0749C72.6928 62.7102 70.374 62.7102 68.9387 64.0749C68.2025 64.7751 66.9878 64.81 66.1782 64.1451L63.197 61.66C61.136 59.945 58.5228 59 55.7623 59H50.0577H49.9105H44.2423C41.5189 59 38.8689 59.945 36.8079 61.66L33.8264 64.1451C33.0167 64.81 31.839 64.7751 31.0661 64.0749C29.6307 62.7102 27.312 62.7102 25.8766 64.0749C24.4412 65.44 24.4412 67.645 25.8766 69.0102C27.6801 70.7248 30.1092 71.6 32.5016 71.6C34.7098 71.6 36.918 70.8649 38.6849 69.3601L41.6661 66.875C42.3652 66.2799 43.2854 65.9649 44.2055 65.9649H49.9105H50.0577H55.7623C56.7192 65.9649 57.6026 66.2799 58.3021 66.875L61.2833 69.3601C63.0498 70.83 65.258 71.6 67.4663 71.6C69.8588 71.6 72.2878 70.7248 74.0914 69.0102C75.5634 67.68 75.5634 65.44 74.1281 64.0749Z" fill="white"/>
<rect x="19.4" y="17.6001" width="57.6" height="12.6" rx="4" fill="#DBDAE2"/>
<path d="M42.5 68C48.2623 66.6411 51.3164 66.6925 56.5 68" stroke="#572217" stroke-width="4" stroke-linecap="round" stroke-linejoin="round"/>
<path d="M54.5 51C57.2778 57.6485 67 57.6485 69.5 51.1083" stroke="#572217" stroke-width="4" stroke-linecap="round" stroke-linejoin="round"/>
<path d="M29.5 51C32.2778 57.6485 42 57.6485 44.5 51.1083" stroke="#572217" stroke-width="4" stroke-linecap="round" stroke-linejoin="round"/>
<path d="M22.5 41.5019C26.681 42.8363 30.4244 41.4296 33.5 38" stroke="#572217" stroke-width="4" stroke-linecap="round"/>
<path d="M77.5 41.5019C72.939 42.8363 68.8552 41.4296 65.5 38" stroke="#572217" stroke-width="4" stroke-linecap="round"/>
</svg>
