<svg width="100" height="100" viewBox="0 0 100 100" fill="none" xmlns="http://www.w3.org/2000/svg">
<circle cx="8.1" cy="8.1" r="8.1" transform="matrix(-1 0 0 1 89.6 57.2)" fill="#ADADBB"/>
<path d="M65.75 8.6001H42.6875C31.8031 8.6001 23 17.4032 23 28.2876H70.7V39.9313L78.8 65.3001C83.1875 62.9376 85.4375 51.8001 85.4375 28.2876C85.4375 17.4032 76.6063 8.6001 65.75 8.6001Z" fill="#E40037"/>
<circle cx="50" cy="60.5" r="33" fill="#DBDAE2"/>
<path d="M83 51.5C83 69.7254 68.2254 84.5 50 84.5C31.7746 84.5 17 69.7254 17 51.5C17 33.2746 31.7746 18.5 50 18.5C68.2254 18.5 83 33.2746 83 51.5Z" fill="#FFBA34"/>
<ellipse cx="50" cy="75.1999" rx="23.4" ry="10.8" fill="#DBDAE2"/>
<circle cx="9.9" cy="9.9" r="9.9" transform="matrix(-1 0 0 1 73.4 35.6001)" fill="white"/>
<circle cx="36.5" cy="45.5001" r="9.9" fill="white"/>
<circle cx="4.5" cy="4.5" r="4.5" transform="matrix(-1 0 0 1 66.2 41)" fill="#572217"/>
<circle cx="38.3" cy="45.5" r="4.5" fill="#572217"/>
<path d="M41 64.3999C41 64.4562 41 64.5405 41 64.5968C41 69.4062 44.9094 73.3155 49.7188 73.3155C54.5281 73.3155 58.4375 69.4062 58.4375 64.5968C58.4375 64.5405 58.4375 64.4562 58.4375 64.3999H41Z" fill="#E40037"/>
<path d="M74.128 64.0749C72.6927 62.7102 70.374 62.7102 68.9386 64.0749C68.2024 64.7751 66.9878 64.81 66.1781 64.1451L63.197 61.66C61.136 59.945 58.5227 59 55.7622 59H50.0577H49.9104H44.2422C41.5188 59 38.8688 59.945 36.8078 61.66L33.8263 64.1451C33.0167 64.81 31.839 64.7751 31.0661 64.0749C29.6307 62.7102 27.3119 62.7102 25.8765 64.0749C24.4411 65.44 24.4411 67.645 25.8765 69.0102C27.68 70.7248 30.1091 71.6 32.5015 71.6C34.7097 71.6 36.918 70.8649 38.6849 69.3601L41.666 66.875C42.3652 66.2799 43.2853 65.9649 44.2055 65.9649H49.9104H50.0577H55.7622C56.7191 65.9649 57.6026 66.2799 58.302 66.875L61.2832 69.3601C63.0497 70.83 65.258 71.6 67.4662 71.6C69.8588 71.6 72.2877 70.7248 74.0913 69.0102C75.5634 67.68 75.5634 65.44 74.128 64.0749Z" fill="white"/>
<rect x="19.4" y="17.6001" width="57.6" height="12.6" rx="4" fill="#DBDAE2"/>
</svg>
