<svg width="100" height="100" viewBox="0 0 100 100" fill="none" xmlns="http://www.w3.org/2000/svg">
<circle cx="50" cy="50" r="42" fill="#FFBA34"/>
<path d="M65 63C60 69 40 69 35 63" stroke="#572217" stroke-width="4" stroke-linecap="round"/>
<path d="M47 41.5714C47 48.5144 41.4036 52 34.5 52C27.5964 52 22 48.5144 22 41.5714C22 34.6284 27.5964 29 34.5 29C41.4036 29 47 34.6284 47 41.5714Z" fill="white"/>
<path d="M53 41.5714C53 48.5144 58.5964 52 65.5 52C72.4036 52 78 48.5144 78 41.5714C78 34.6284 72.4036 29 65.5 29C58.5964 29 53 34.6284 53 41.5714Z" fill="white"/>
<circle cx="37" cy="41" r="7.5" fill="#572217"/>
<circle cx="7.5" cy="7.5" r="7.5" transform="matrix(-1 0 0 1 70.5 33.5)" fill="#572217"/>
</svg>
