<svg width="100" height="100" viewBox="0 0 100 100" fill="none" xmlns="http://www.w3.org/2000/svg">
<circle cx="42" cy="42" r="42" transform="matrix(1 0 0 -1 8 92)" fill="#FFBA34"/>
<path d="M65 36C60 26 40 26 35 36" stroke="#572217" stroke-width="4" stroke-linecap="round"/>
<path d="M47 58.5C47 51.5964 41.4036 46 34.5 46C27.5964 46 22 51.5964 22 58.5C22 65.4036 27.5964 71 34.5 71C41.4036 71 47 65.4036 47 58.5Z" fill="white"/>
<path d="M78 58.5C78 51.5964 72.4036 46 65.5 46C58.5964 46 53 51.5964 53 58.5C53 65.4036 58.5964 71 65.5 71C72.4036 71 78 65.4036 78 58.5Z" fill="white"/>
<circle cx="7.5" cy="7.5" r="7.5" transform="matrix(1 0 0 -1 29.5 66.5)" fill="#572217"/>
<circle cx="63" cy="59" r="7.5" transform="rotate(180 63 59)" fill="#572217"/>
</svg>
