<svg width="100" height="100" viewBox="0 0 100 100" fill="none" xmlns="http://www.w3.org/2000/svg">
<circle cx="50" cy="50" r="42" fill="#FFBA34"/>
<path d="M65 64C60 74 40 74 35 64" stroke="#471C13" stroke-width="4" stroke-linecap="round"/>
<path d="M47 41.5C47 48.4036 41.4036 54 34.5 54C27.5964 54 22 48.4036 22 41.5C22 34.5964 27.5964 29 34.5 29C41.4036 29 47 34.5964 47 41.5Z" fill="white"/>
<path d="M78 41.5C78 48.4036 72.4036 54 65.5 54C58.5964 54 53 48.4036 53 41.5C53 34.5964 58.5964 29 65.5 29C72.4036 29 78 34.5964 78 41.5Z" fill="white"/>
<circle cx="37" cy="41" r="7.5" fill="#471C13"/>
<circle cx="7.5" cy="7.5" r="7.5" transform="matrix(-1 0 0 1 70.5 33.5)" fill="#471C13"/>
</svg>
