<svg width="100" height="100" viewBox="0 0 100 100" fill="none" xmlns="http://www.w3.org/2000/svg">
<circle cx="50" cy="48.5" r="40.5" fill="#FFBA34"/>
<path d="M21.5 29C30.8158 27.7806 35.5221 22.6412 34.954 17" stroke="#572217" stroke-width="4" stroke-linecap="round"/>
<path d="M78.5 29C69.1842 27.7806 64.4779 22.6412 65.046 17" stroke="#572217" stroke-width="4" stroke-linecap="round"/>
<path d="M50 42.5C44.4411 42.5 43.0024 55.6846 42.63 62.5093C42.5303 64.3366 42.4805 65.2503 43.0722 65.8752C43.6638 66.5 44.6092 66.5 46.5 66.5H53.5C55.3908 66.5 56.3362 66.5 56.9278 65.8752C57.5195 65.2503 57.4697 64.3366 57.37 62.5093C56.9976 55.6846 55.5589 42.5 50 42.5Z" fill="#E40037"/>
<path d="M17 37H41V81C41 84.7712 41 86.6569 39.8284 87.8284C38.6569 89 36.7712 89 33 89H25C21.2288 89 19.3431 89 18.1716 87.8284C17 86.6569 17 84.7712 17 81V37Z" fill="#00A3FF"/>
<ellipse cx="29" cy="89" rx="18" ry="4.5" fill="#00A3FF"/>
<path opacity="0.7" d="M22 37H35V83C35 85.8284 35 87.2426 34.1213 88.1213C33.2426 89 31.8284 89 29 89H28C25.1716 89 23.7574 89 22.8787 88.1213C22 87.2426 22 85.8284 22 83V37Z" fill="#57E0FF"/>
<path d="M59 37H83V81C83 84.7712 83 86.6569 81.8284 87.8284C80.6569 89 78.7712 89 75 89H67C63.2288 89 61.3431 89 60.1716 87.8284C59 86.6569 59 84.7712 59 81V37Z" fill="#00A3FF"/>
<ellipse cx="71" cy="89" rx="18" ry="4.5" fill="#00A3FF"/>
<path opacity="0.7" d="M64 37H77V83C77 85.8284 77 87.2426 76.1213 88.1213C75.2426 89 73.8284 89 71 89H70C67.1716 89 65.7574 89 64.8787 88.1213C64 87.2426 64 85.8284 64 83V37Z" fill="#57E0FF"/>
<path d="M15 40C25.1111 34.6667 39.1111 34.6667 43 40" stroke="#572217" stroke-width="4" stroke-linecap="round"/>
<path d="M85 40C74.8889 34.6667 60.8889 34.6667 57 40" stroke="#572217" stroke-width="4" stroke-linecap="round"/>
</svg>
