<svg width="100" height="100" viewBox="0 0 100 100" fill="none" xmlns="http://www.w3.org/2000/svg">
<circle cx="50" cy="48.5" r="40.5" fill="#FFBA34"/>
<path d="M29 32C22 33 17 37 14 43" stroke="#572217" stroke-width="4" stroke-linecap="round"/>
<path d="M71 32C78 33 83 37 86 43" stroke="#572217" stroke-width="4" stroke-linecap="round"/>
<path d="M20 45H41V81C41 84.7712 41 86.6569 39.8284 87.8284C38.6569 89 36.7712 89 33 89H28C24.2288 89 22.3431 89 21.1716 87.8284C20 86.6569 20 84.7712 20 81V45Z" fill="#00A3FF"/>
<ellipse cx="31" cy="89" rx="18" ry="4.5" fill="#00A3FF"/>
<path opacity="0.7" d="M23 45H36V83C36 85.8284 36 87.2426 35.1213 88.1213C34.2426 89 32.8284 89 30 89H29C26.1716 89 24.7574 89 23.8787 88.1213C23 87.2426 23 85.8284 23 83V45Z" fill="#57E0FF"/>
<path d="M59 45H80V81C80 84.7712 80 86.6569 78.8284 87.8284C77.6569 89 75.7712 89 72 89H67C63.2288 89 61.3431 89 60.1716 87.8284C59 86.6569 59 84.7712 59 81V45Z" fill="#00A3FF"/>
<ellipse cx="69" cy="89" rx="18" ry="4.5" fill="#00A3FF"/>
<path opacity="0.7" d="M62 45H75V83C75 85.8284 75 87.2426 74.1213 88.1213C73.2426 89 71.8284 89 69 89H68C65.1716 89 63.7574 89 62.8787 88.1213C62 87.2426 62 85.8284 62 83V45Z" fill="#57E0FF"/>
<path d="M19 46C27.6667 43.3333 39.6667 43.3333 43 46" stroke="#572217" stroke-width="4" stroke-linecap="round"/>
<path d="M81 46C72.3333 43.3333 60.3333 43.3333 57 46" stroke="#572217" stroke-width="4" stroke-linecap="round"/>
<path d="M57 64C57 70.6274 53.866 72 50 72C46.134 72 43 70.6274 43 64C43 57.3726 46.134 52 50 52C53.866 52 57 57.3726 57 64Z" fill="#E40037"/>
</svg>
