<svg width="100" height="100" viewBox="0 0 100 100" fill="none" xmlns="http://www.w3.org/2000/svg">
<mask id="path-1-inside-1_34_238" fill="white">
<path d="M32 62C33.1002 62 33.6872 63.8639 34.8613 67.5918L35.7578 70.4395C35.9681 71.1071 36.0738 71.4408 36.3037 71.6885C36.5336 71.9361 36.8587 72.066 37.5088 72.3252L41.0088 73.7197C43.9688 74.8997 45.4492 75.49 45.4492 76.5068C45.4492 77.5237 43.9688 78.114 41.0088 79.2939L37.5088 80.6885C36.8587 80.9476 36.5336 81.0776 36.3037 81.3252C36.0738 81.5728 35.9681 81.9066 35.7578 82.5742L34.8613 85.4219C33.6872 89.1498 33.1002 91.0137 32 91.0137C30.8998 91.0137 30.3128 89.1498 29.1387 85.4219L28.2422 82.5742C28.0319 81.9066 27.9262 81.5728 27.6963 81.3252C27.4664 81.0776 27.1413 80.9476 26.4912 80.6885L22.9912 79.2939C20.0312 78.114 18.5508 77.5237 18.5508 76.5068C18.5508 75.49 20.0312 74.8997 22.9912 73.7197L26.4912 72.3252C27.1413 72.066 27.4664 71.9361 27.6963 71.6885C27.9262 71.4408 28.0319 71.1071 28.2422 70.4395L29.1387 67.5918C30.3128 63.8639 30.8998 62 32 62ZM62 14C63.1002 14 63.6872 15.8639 64.8613 19.5918L69.9443 35.7295C70.1546 36.3971 70.2593 36.7318 70.4893 36.9795C70.7192 37.2271 71.0451 37.3561 71.6953 37.6152L87.0088 43.7197C89.9688 44.8997 91.4492 45.49 91.4492 46.5068C91.4492 47.5237 89.9688 48.114 87.0088 49.2939L71.6953 55.3984C71.0451 55.6576 70.7192 55.7865 70.4893 56.0342C70.2593 56.2818 70.1546 56.6166 69.9443 57.2842L64.8613 73.4219C63.6872 77.1498 63.1002 79.0137 62 79.0137C60.8998 79.0137 60.3128 77.1498 59.1387 73.4219L54.0557 57.2842C53.8454 56.6166 53.7407 56.2818 53.5107 56.0342C53.2808 55.7865 52.9549 55.6576 52.3047 55.3984L36.9912 49.2939C34.0312 48.114 32.5508 47.5237 32.5508 46.5068C32.5508 45.49 34.0312 44.8997 36.9912 43.7197L52.3047 37.6152C52.9549 37.3561 53.2808 37.2271 53.5107 36.9795C53.7407 36.7318 53.8454 36.3971 54.0557 35.7295L59.1387 19.5918C60.3128 15.8639 60.8998 14 62 14ZM21 8C22.1002 8 22.6872 9.86391 23.8613 13.5918L24.7578 16.4395C24.9681 17.1071 25.0738 17.4408 25.3037 17.6885C25.5336 17.9361 25.8587 18.066 26.5088 18.3252L30.0088 19.7197C32.9688 20.8997 34.4492 21.49 34.4492 22.5068C34.4492 23.5237 32.9688 24.114 30.0088 25.2939L26.5088 26.6885C25.8587 26.9476 25.5336 27.0776 25.3037 27.3252C25.0738 27.5728 24.9681 27.9066 24.7578 28.5742L23.8613 31.4219C22.6872 35.1498 22.1002 37.0137 21 37.0137C19.8998 37.0137 19.3128 35.1498 18.1387 31.4219L17.2422 28.5742C17.0319 27.9066 16.9262 27.5728 16.6963 27.3252C16.4664 27.0776 16.1413 26.9476 15.4912 26.6885L11.9912 25.2939C9.0312 24.114 7.55078 23.5237 7.55078 22.5068C7.55078 21.49 9.0312 20.8997 11.9912 19.7197L15.4912 18.3252C16.1413 18.066 16.4664 17.9361 16.6963 17.6885C16.9262 17.4408 17.0319 17.1071 17.2422 16.4395L18.1387 13.5918C19.3128 9.86391 19.8998 8 21 8Z"/>
</mask>
<path d="M32 62C33.1002 62 33.6872 63.8639 34.8613 67.5918L35.7578 70.4395C35.9681 71.1071 36.0738 71.4408 36.3037 71.6885C36.5336 71.9361 36.8587 72.066 37.5088 72.3252L41.0088 73.7197C43.9688 74.8997 45.4492 75.49 45.4492 76.5068C45.4492 77.5237 43.9688 78.114 41.0088 79.2939L37.5088 80.6885C36.8587 80.9476 36.5336 81.0776 36.3037 81.3252C36.0738 81.5728 35.9681 81.9066 35.7578 82.5742L34.8613 85.4219C33.6872 89.1498 33.1002 91.0137 32 91.0137C30.8998 91.0137 30.3128 89.1498 29.1387 85.4219L28.2422 82.5742C28.0319 81.9066 27.9262 81.5728 27.6963 81.3252C27.4664 81.0776 27.1413 80.9476 26.4912 80.6885L22.9912 79.2939C20.0312 78.114 18.5508 77.5237 18.5508 76.5068C18.5508 75.49 20.0312 74.8997 22.9912 73.7197L26.4912 72.3252C27.1413 72.066 27.4664 71.9361 27.6963 71.6885C27.9262 71.4408 28.0319 71.1071 28.2422 70.4395L29.1387 67.5918C30.3128 63.8639 30.8998 62 32 62ZM62 14C63.1002 14 63.6872 15.8639 64.8613 19.5918L69.9443 35.7295C70.1546 36.3971 70.2593 36.7318 70.4893 36.9795C70.7192 37.2271 71.0451 37.3561 71.6953 37.6152L87.0088 43.7197C89.9688 44.8997 91.4492 45.49 91.4492 46.5068C91.4492 47.5237 89.9688 48.114 87.0088 49.2939L71.6953 55.3984C71.0451 55.6576 70.7192 55.7865 70.4893 56.0342C70.2593 56.2818 70.1546 56.6166 69.9443 57.2842L64.8613 73.4219C63.6872 77.1498 63.1002 79.0137 62 79.0137C60.8998 79.0137 60.3128 77.1498 59.1387 73.4219L54.0557 57.2842C53.8454 56.6166 53.7407 56.2818 53.5107 56.0342C53.2808 55.7865 52.9549 55.6576 52.3047 55.3984L36.9912 49.2939C34.0312 48.114 32.5508 47.5237 32.5508 46.5068C32.5508 45.49 34.0312 44.8997 36.9912 43.7197L52.3047 37.6152C52.9549 37.3561 53.2808 37.2271 53.5107 36.9795C53.7407 36.7318 53.8454 36.3971 54.0557 35.7295L59.1387 19.5918C60.3128 15.8639 60.8998 14 62 14ZM21 8C22.1002 8 22.6872 9.86391 23.8613 13.5918L24.7578 16.4395C24.9681 17.1071 25.0738 17.4408 25.3037 17.6885C25.5336 17.9361 25.8587 18.066 26.5088 18.3252L30.0088 19.7197C32.9688 20.8997 34.4492 21.49 34.4492 22.5068C34.4492 23.5237 32.9688 24.114 30.0088 25.2939L26.5088 26.6885C25.8587 26.9476 25.5336 27.0776 25.3037 27.3252C25.0738 27.5728 24.9681 27.9066 24.7578 28.5742L23.8613 31.4219C22.6872 35.1498 22.1002 37.0137 21 37.0137C19.8998 37.0137 19.3128 35.1498 18.1387 31.4219L17.2422 28.5742C17.0319 27.9066 16.9262 27.5728 16.6963 27.3252C16.4664 27.0776 16.1413 26.9476 15.4912 26.6885L11.9912 25.2939C9.0312 24.114 7.55078 23.5237 7.55078 22.5068C7.55078 21.49 9.0312 20.8997 11.9912 19.7197L15.4912 18.3252C16.1413 18.066 16.4664 17.9361 16.6963 17.6885C16.9262 17.4408 17.0319 17.1071 17.2422 16.4395L18.1387 13.5918C19.3128 9.86391 19.8998 8 21 8Z" fill="#FFEE7E"/>
<path d="M32 62V58V62ZM34.8613 67.5918L38.6767 66.3907L38.6766 66.3901L34.8613 67.5918ZM35.7578 70.4395L31.9424 71.6406L31.9426 71.6411L35.7578 70.4395ZM36.3037 71.6885L33.3723 74.4101L33.3727 74.4104L36.3037 71.6885ZM37.5088 72.3252L36.0276 76.0409L36.0282 76.0411L37.5088 72.3252ZM41.0088 73.7197L42.4899 70.0041L42.4893 70.0038L41.0088 73.7197ZM45.4492 76.5068H49.4492H45.4492ZM41.0088 79.2939L42.4893 83.0098L42.4899 83.0096L41.0088 79.2939ZM37.5088 80.6885L36.0282 76.9726L36.0276 76.9728L37.5088 80.6885ZM36.3037 81.3252L33.3727 78.6033L33.3723 78.6036L36.3037 81.3252ZM35.7578 82.5742L31.9426 81.3726L31.9424 81.3731L35.7578 82.5742ZM34.8613 85.4219L38.6766 86.6235L38.6767 86.623L34.8613 85.4219ZM32 91.0137V95.0137V91.0137ZM29.1387 85.4219L25.3233 86.623L25.3234 86.6235L29.1387 85.4219ZM28.2422 82.5742L32.0576 81.3731L32.0574 81.3726L28.2422 82.5742ZM27.6963 81.3252L30.6277 78.6036L30.6273 78.6033L27.6963 81.3252ZM26.4912 80.6885L27.9724 76.9728L27.9718 76.9726L26.4912 80.6885ZM22.9912 79.2939L21.5101 83.0096L21.5107 83.0098L22.9912 79.2939ZM22.9912 73.7197L21.5107 70.0038L21.5101 70.0041L22.9912 73.7197ZM26.4912 72.3252L27.9718 76.0411L27.9724 76.0409L26.4912 72.3252ZM27.6963 71.6885L30.6273 74.4104L30.6277 74.4101L27.6963 71.6885ZM28.2422 70.4395L32.0574 71.6411L32.0576 71.6406L28.2422 70.4395ZM29.1387 67.5918L25.3234 66.3901L25.3233 66.3907L29.1387 67.5918ZM62 14V10V14ZM64.8613 19.5918L61.0461 20.7935L61.0461 20.7935L64.8613 19.5918ZM69.9443 35.7295L73.7596 34.5278L73.7596 34.5278L69.9443 35.7295ZM70.4893 36.9795L67.5579 39.7011L67.558 39.7012L70.4893 36.9795ZM71.6953 37.6152L73.1765 33.8996L73.1765 33.8996L71.6953 37.6152ZM87.0088 43.7197L85.5276 47.4354L85.5276 47.4354L87.0088 43.7197ZM91.4492 46.5068H95.4492H91.4492ZM87.0088 49.2939L85.5276 45.5783L85.5276 45.5783L87.0088 49.2939ZM71.6953 55.3984L73.1765 59.1141L73.1765 59.1141L71.6953 55.3984ZM70.4893 56.0342L67.558 53.3125L67.5579 53.3126L70.4893 56.0342ZM69.9443 57.2842L73.7596 58.4859L73.7596 58.4858L69.9443 57.2842ZM64.8613 73.4219L61.0461 72.2202L61.0461 72.2202L64.8613 73.4219ZM62 79.0137V83.0137V79.0137ZM59.1387 73.4219L62.9539 72.2202L62.9539 72.2202L59.1387 73.4219ZM54.0557 57.2842L50.2404 58.4858L50.2404 58.4859L54.0557 57.2842ZM53.5107 56.0342L56.4421 53.3126L56.442 53.3125L53.5107 56.0342ZM52.3047 55.3984L50.8235 59.1141L50.8235 59.1141L52.3047 55.3984ZM36.9912 49.2939L38.4724 45.5783L38.4724 45.5783L36.9912 49.2939ZM32.5508 46.5068H28.5508H32.5508ZM36.9912 43.7197L38.4724 47.4354L38.4724 47.4354L36.9912 43.7197ZM52.3047 37.6152L50.8235 33.8996L50.8235 33.8996L52.3047 37.6152ZM53.5107 36.9795L56.442 39.7012L56.4421 39.7011L53.5107 36.9795ZM54.0557 35.7295L50.2404 34.5278L50.2404 34.5278L54.0557 35.7295ZM59.1387 19.5918L62.9539 20.7935L62.9539 20.7935L59.1387 19.5918ZM21 8V4H21L21 8ZM23.8613 13.5918L27.6767 12.3907L27.6766 12.3901L23.8613 13.5918ZM24.7578 16.4395L20.9424 17.6406L20.9426 17.6411L24.7578 16.4395ZM25.3037 17.6885L22.3723 20.4101L22.3727 20.4104L25.3037 17.6885ZM26.5088 18.3252L25.0276 22.0409L25.0282 22.0411L26.5088 18.3252ZM30.0088 19.7197L31.4899 16.0041L31.4893 16.0038L30.0088 19.7197ZM34.4492 22.5068H38.4492H34.4492ZM30.0088 25.2939L31.4893 29.0099L31.4899 29.0096L30.0088 25.2939ZM26.5088 26.6885L25.0282 22.9726L25.0276 22.9728L26.5088 26.6885ZM25.3037 27.3252L22.3727 24.6033L22.3723 24.6036L25.3037 27.3252ZM24.7578 28.5742L20.9426 27.3726L20.9424 27.3731L24.7578 28.5742ZM23.8613 31.4219L27.6766 32.6235L27.6767 32.623L23.8613 31.4219ZM21 37.0137L21 41.0137H21V37.0137ZM18.1387 31.4219L14.3233 32.623L14.3234 32.6235L18.1387 31.4219ZM17.2422 28.5742L21.0576 27.3731L21.0574 27.3726L17.2422 28.5742ZM16.6963 27.3252L19.6277 24.6036L19.6273 24.6033L16.6963 27.3252ZM15.4912 26.6885L16.9724 22.9728L16.9718 22.9726L15.4912 26.6885ZM11.9912 25.2939L10.5101 29.0096L10.5107 29.0099L11.9912 25.2939ZM7.55078 22.5068H3.55078H7.55078ZM11.9912 19.7197L10.5107 16.0038L10.5101 16.0041L11.9912 19.7197ZM15.4912 18.3252L16.9718 22.0411L16.9724 22.0409L15.4912 18.3252ZM16.6963 17.6885L19.6273 20.4104L19.6277 20.4101L16.6963 17.6885ZM17.2422 16.4395L21.0574 17.6411L21.0576 17.6406L17.2422 16.4395ZM18.1387 13.5918L14.3234 12.3901L14.3233 12.3907L18.1387 13.5918ZM32 62V66C31.5471 66 31.0946 65.8984 30.6859 65.7059C30.2956 65.522 30.0349 65.298 29.8878 65.1477C29.6421 64.8967 29.6264 64.7614 29.7724 65.0771C29.8983 65.3492 30.0626 65.7734 30.286 66.4314C30.5061 67.0796 30.7484 67.8484 31.0461 68.7935L34.8613 67.5918L38.6766 66.3901C38.1272 64.646 37.5994 62.9425 37.0334 61.7188C36.7484 61.1025 36.3063 60.2682 35.6044 59.5513C34.8035 58.7331 33.5828 58 32 58V62ZM34.8613 67.5918L31.0459 68.7929L31.9424 71.6406L35.7578 70.4395L39.5732 69.2383L38.6767 66.3907L34.8613 67.5918ZM35.7578 70.4395L31.9426 71.6411C32.0406 71.9524 32.3866 73.3483 33.3723 74.4101L36.3037 71.6885L39.2351 68.9669C39.3858 69.1292 39.5024 69.2926 39.5889 69.438C39.6697 69.5739 39.7119 69.6736 39.7222 69.6987C39.731 69.7201 39.7236 69.7046 39.6937 69.615C39.6635 69.5246 39.6283 69.4132 39.573 69.2378L35.7578 70.4395ZM36.3037 71.6885L33.3727 74.4104C34.3586 75.4721 35.726 75.9206 36.0276 76.0409L37.5088 72.3252L38.9899 68.6095C38.819 68.5414 38.7104 68.498 38.6223 68.4611C38.535 68.4246 38.5201 68.416 38.5406 68.4263C38.5648 68.4385 38.6611 68.4878 38.7907 68.5786C38.9294 68.6756 39.0839 68.8041 39.2348 68.9665L36.3037 71.6885ZM37.5088 72.3252L36.0282 76.0411L39.5282 77.4356L41.0088 73.7197L42.4893 70.0038L38.9893 68.6093L37.5088 72.3252ZM41.0088 73.7197L39.5276 77.4354C40.2815 77.7359 40.8791 77.9744 41.3797 78.1883C41.8892 78.406 42.1865 78.5516 42.3571 78.6489C42.5565 78.7627 42.3786 78.6973 42.1293 78.4053C41.986 78.2374 41.8061 77.9798 41.6654 77.6279C41.5208 77.2659 41.4492 76.8821 41.4492 76.5068H45.4492H49.4492C49.4492 73.6277 47.198 72.2003 46.3209 71.7C45.2782 71.1052 43.8462 70.5447 42.4899 70.0041L41.0088 73.7197ZM45.4492 76.5068H41.4492C41.4492 76.1315 41.5208 75.7477 41.6654 75.3858C41.8061 75.0339 41.986 74.7763 42.1293 74.6084C42.3786 74.3163 42.5565 74.251 42.3571 74.3648C42.1865 74.4621 41.8892 74.6077 41.3797 74.8254C40.8791 75.0393 40.2815 75.2778 39.5276 75.5783L41.0088 79.2939L42.4899 83.0096C43.8462 82.469 45.2782 81.9085 46.3209 81.3137C47.198 80.8134 49.4492 79.386 49.4492 76.5068H45.4492ZM41.0088 79.2939L39.5282 75.578L36.0282 76.9726L37.5088 80.6885L38.9893 84.4044L42.4893 83.0098L41.0088 79.2939ZM37.5088 80.6885L36.0276 76.9728C35.726 77.093 34.3586 77.5416 33.3727 78.6033L36.3037 81.3252L39.2348 84.0471C39.0839 84.2096 38.9294 84.3381 38.7907 84.4351C38.6611 84.5258 38.5648 84.5752 38.5406 84.5873C38.5201 84.5976 38.535 84.5891 38.6223 84.5526C38.7104 84.5157 38.819 84.4723 38.9899 84.4041L37.5088 80.6885ZM36.3037 81.3252L33.3723 78.6036C32.3866 79.6654 32.0406 81.0612 31.9426 81.3726L35.7578 82.5742L39.573 83.7759C39.6283 83.6005 39.6635 83.4891 39.6937 83.3987C39.7236 83.3091 39.731 83.2936 39.7222 83.3149C39.7119 83.3401 39.6697 83.4397 39.5889 83.5757C39.5024 83.7211 39.3858 83.8845 39.2351 84.0468L36.3037 81.3252ZM35.7578 82.5742L31.9424 81.3731L31.0459 84.2207L34.8613 85.4219L38.6767 86.623L39.5732 83.7754L35.7578 82.5742ZM34.8613 85.4219L31.0461 84.2202C30.7484 85.1653 30.5061 85.9341 30.286 86.5822C30.0626 87.2402 29.8983 87.6644 29.7724 87.9366C29.6264 88.2523 29.6421 88.117 29.8878 87.866C30.0349 87.7157 30.2956 87.4916 30.6859 87.3078C31.0946 87.1152 31.5471 87.0137 32 87.0137V91.0137V95.0137C33.5828 95.0137 34.8035 94.2805 35.6044 93.4624C36.3063 92.7454 36.7484 91.9112 37.0334 91.2949C37.5994 90.0712 38.1272 88.3677 38.6766 86.6235L34.8613 85.4219ZM32 91.0137V87.0137C32.4529 87.0137 32.9054 87.1152 33.3141 87.3078C33.7044 87.4916 33.9651 87.7157 34.1122 87.866C34.3579 88.117 34.3736 88.2523 34.2276 87.9366C34.1017 87.6644 33.9374 87.2402 33.714 86.5822C33.4939 85.9341 33.2516 85.1653 32.9539 84.2202L29.1387 85.4219L25.3234 86.6235C25.8728 88.3677 26.4006 90.0712 26.9666 91.2949C27.2516 91.9112 27.6937 92.7454 28.3956 93.4624C29.1965 94.2805 30.4172 95.0137 32 95.0137V91.0137ZM29.1387 85.4219L32.9541 84.2207L32.0576 81.3731L28.2422 82.5742L24.4268 83.7754L25.3233 86.623L29.1387 85.4219ZM28.2422 82.5742L32.0574 81.3726C31.9594 81.0612 31.6134 79.6654 30.6277 78.6036L27.6963 81.3252L24.7649 84.0468C24.6142 83.8845 24.4976 83.7211 24.4111 83.5757C24.3303 83.4397 24.2881 83.3401 24.2778 83.3149C24.269 83.2936 24.2764 83.3091 24.3063 83.3987C24.3365 83.4891 24.3717 83.6005 24.427 83.7759L28.2422 82.5742ZM27.6963 81.3252L30.6273 78.6033C29.6414 77.5416 28.274 77.093 27.9724 76.9728L26.4912 80.6885L25.0101 84.4041C25.181 84.4723 25.2896 84.5157 25.3777 84.5526C25.465 84.5891 25.4799 84.5976 25.4594 84.5873C25.4352 84.5752 25.3389 84.5258 25.2093 84.4351C25.0706 84.3381 24.9161 84.2096 24.7652 84.0471L27.6963 81.3252ZM26.4912 80.6885L27.9718 76.9726L24.4718 75.578L22.9912 79.2939L21.5107 83.0098L25.0107 84.4044L26.4912 80.6885ZM22.9912 79.2939L24.4724 75.5783C23.7185 75.2778 23.1209 75.0393 22.6203 74.8254C22.1108 74.6077 21.8135 74.4621 21.6429 74.3648C21.4435 74.251 21.6214 74.3163 21.8707 74.6084C22.014 74.7763 22.1939 75.0339 22.3346 75.3858C22.4792 75.7477 22.5508 76.1315 22.5508 76.5068H18.5508H14.5508C14.5508 79.386 16.802 80.8134 17.679 81.3137C18.7218 81.9085 20.1538 82.469 21.5101 83.0096L22.9912 79.2939ZM18.5508 76.5068H22.5508C22.5508 76.8821 22.4792 77.2659 22.3346 77.6279C22.1939 77.9798 22.014 78.2374 21.8707 78.4053C21.6214 78.6973 21.4435 78.7627 21.6429 78.6489C21.8135 78.5516 22.1108 78.406 22.6203 78.1883C23.1209 77.9744 23.7185 77.7359 24.4724 77.4354L22.9912 73.7197L21.5101 70.0041C20.1538 70.5447 18.7218 71.1052 17.6791 71.7C16.802 72.2003 14.5508 73.6277 14.5508 76.5068H18.5508ZM22.9912 73.7197L24.4718 77.4356L27.9718 76.0411L26.4912 72.3252L25.0107 68.6093L21.5107 70.0038L22.9912 73.7197ZM26.4912 72.3252L27.9724 76.0409C28.274 75.9206 29.6414 75.4721 30.6273 74.4104L27.6963 71.6885L24.7652 68.9665C24.9161 68.8041 25.0706 68.6756 25.2093 68.5786C25.3389 68.4878 25.4352 68.4385 25.4594 68.4263C25.4799 68.416 25.465 68.4246 25.3777 68.4611C25.2896 68.498 25.181 68.5414 25.0101 68.6095L26.4912 72.3252ZM27.6963 71.6885L30.6277 74.4101C31.6134 73.3483 31.9594 71.9524 32.0574 71.6411L28.2422 70.4395L24.427 69.2378C24.3717 69.4132 24.3365 69.5246 24.3063 69.615C24.2764 69.7046 24.269 69.7201 24.2778 69.6987C24.2881 69.6736 24.3303 69.5739 24.4111 69.438C24.4976 69.2926 24.6142 69.1292 24.7649 68.9669L27.6963 71.6885ZM28.2422 70.4395L32.0576 71.6406L32.9541 68.7929L29.1387 67.5918L25.3233 66.3907L24.4268 69.2383L28.2422 70.4395ZM29.1387 67.5918L32.9539 68.7935C33.2516 67.8484 33.4939 67.0796 33.714 66.4314C33.9374 65.7734 34.1017 65.3492 34.2276 65.0771C34.3736 64.7614 34.3579 64.8967 34.1122 65.1477C33.9651 65.298 33.7044 65.522 33.3141 65.7059C32.9054 65.8984 32.4529 66 32 66V62V58C30.4172 58 29.1965 58.7331 28.3956 59.5513C27.6937 60.2682 27.2516 61.1025 26.9666 61.7188C26.4006 62.9425 25.8728 64.646 25.3234 66.3901L29.1387 67.5918ZM62 14V18C61.5471 18 61.0946 17.8984 60.6859 17.7059C60.2956 17.522 60.0349 17.298 59.8878 17.1477C59.6421 16.8967 59.6264 16.7614 59.7724 17.0771C59.8983 17.3492 60.0626 17.7734 60.286 18.4314C60.5061 19.0796 60.7484 19.8484 61.0461 20.7935L64.8613 19.5918L68.6766 18.3901C68.1272 16.646 67.5994 14.9425 67.0334 13.7188C66.7484 13.1025 66.3063 12.2682 65.6044 11.5513C64.8035 10.7331 63.5828 10 62 10V14ZM64.8613 19.5918L61.0461 20.7935L66.1291 36.9312L69.9443 35.7295L73.7596 34.5278L68.6765 18.3901L64.8613 19.5918ZM69.9443 35.7295L66.1291 36.9312C66.2233 37.2301 66.57 38.637 67.5579 39.7011L70.4893 36.9795L73.4206 34.2579C73.5732 34.4222 73.6907 34.5874 73.7774 34.7337C73.8585 34.8703 73.9005 34.9703 73.9105 34.9948C73.919 35.0154 73.9114 34.9993 73.8812 34.9084C73.8506 34.8165 73.8153 34.7047 73.7596 34.5278L69.9443 35.7295ZM70.4893 36.9795L67.558 39.7012C68.5462 40.7655 69.9253 41.2158 70.2142 41.3309L71.6953 37.6152L73.1765 33.8996C73.0039 33.8308 72.895 33.7873 72.8053 33.7499C72.7167 33.7129 72.7012 33.7041 72.7211 33.7141C72.7446 33.7259 72.8414 33.7752 72.9718 33.8662C73.1115 33.9637 73.2678 34.0933 73.4206 34.2578L70.4893 36.9795ZM71.6953 37.6152L70.2141 41.3309L85.5276 47.4354L87.0088 43.7197L88.49 40.0041L73.1765 33.8996L71.6953 37.6152ZM87.0088 43.7197L85.5276 47.4354C86.2815 47.7359 86.8791 47.9744 87.3797 48.1883C87.8892 48.406 88.1865 48.5516 88.3571 48.6489C88.5565 48.7627 88.3786 48.6973 88.1293 48.4053C87.986 48.2374 87.8061 47.9798 87.6654 47.6279C87.5208 47.2659 87.4492 46.8821 87.4492 46.5068H91.4492H95.4492C95.4492 43.6277 93.198 42.2003 92.321 41.7C91.2782 41.1052 89.8462 40.5447 88.4899 40.0041L87.0088 43.7197ZM91.4492 46.5068H87.4492C87.4492 46.1315 87.5208 45.7477 87.6654 45.3858C87.8061 45.0339 87.986 44.7763 88.1293 44.6084C88.3786 44.3163 88.5565 44.251 88.3571 44.3648C88.1865 44.4621 87.8892 44.6077 87.3797 44.8254C86.8791 45.0393 86.2815 45.2778 85.5276 45.5783L87.0088 49.2939L88.4899 53.0096C89.8462 52.469 91.2782 51.9085 92.321 51.3137C93.198 50.8134 95.4492 49.386 95.4492 46.5068H91.4492ZM87.0088 49.2939L85.5276 45.5783L70.2141 51.6828L71.6953 55.3984L73.1765 59.1141L88.49 53.0096L87.0088 49.2939ZM71.6953 55.3984L70.2142 51.6828C69.9253 51.7979 68.5462 52.2481 67.558 53.3125L70.4893 56.0342L73.4206 58.7559C73.2678 58.9204 73.1115 59.05 72.9718 59.1474C72.8414 59.2385 72.7446 59.2878 72.7211 59.2996C72.7012 59.3095 72.7167 59.3007 72.8053 59.2638C72.895 59.2264 73.0039 59.1829 73.1765 59.1141L71.6953 55.3984ZM70.4893 56.0342L67.5579 53.3126C66.57 54.3766 66.2233 55.7836 66.1291 56.0825L69.9443 57.2842L73.7596 58.4858C73.8153 58.309 73.8506 58.1971 73.8812 58.1052C73.9114 58.0144 73.919 57.9983 73.9105 58.0189C73.9005 58.0433 73.8585 58.1433 73.7774 58.28C73.6907 58.4263 73.5732 58.5914 73.4206 58.7558L70.4893 56.0342ZM69.9443 57.2842L66.1291 56.0825L61.0461 72.2202L64.8613 73.4219L68.6765 74.6236L73.7596 58.4859L69.9443 57.2842ZM64.8613 73.4219L61.0461 72.2202C60.7484 73.1653 60.5061 73.9341 60.286 74.5822C60.0626 75.2402 59.8983 75.6644 59.7724 75.9366C59.6264 76.2523 59.6421 76.117 59.8878 75.866C60.0349 75.7157 60.2956 75.4916 60.6859 75.3078C61.0946 75.1152 61.5471 75.0137 62 75.0137V79.0137V83.0137C63.5828 83.0137 64.8035 82.2805 65.6044 81.4624C66.3063 80.7454 66.7484 79.9112 67.0334 79.2949C67.5994 78.0712 68.1272 76.3677 68.6766 74.6235L64.8613 73.4219ZM62 79.0137V75.0137C62.4529 75.0137 62.9054 75.1152 63.3141 75.3078C63.7044 75.4916 63.9651 75.7157 64.1122 75.866C64.3579 76.117 64.3736 76.2523 64.2276 75.9366C64.1017 75.6644 63.9374 75.2402 63.714 74.5822C63.4939 73.9341 63.2516 73.1653 62.9539 72.2202L59.1387 73.4219L55.3234 74.6235C55.8728 76.3677 56.4006 78.0712 56.9666 79.2949C57.2516 79.9112 57.6937 80.7454 58.3956 81.4624C59.1965 82.2805 60.4172 83.0137 62 83.0137V79.0137ZM59.1387 73.4219L62.9539 72.2202L57.8709 56.0825L54.0557 57.2842L50.2404 58.4859L55.3235 74.6236L59.1387 73.4219ZM54.0557 57.2842L57.8709 56.0825C57.7767 55.7836 57.43 54.3766 56.4421 53.3126L53.5107 56.0342L50.5794 58.7558C50.4268 58.5914 50.3093 58.4263 50.2226 58.28C50.1415 58.1433 50.0995 58.0433 50.0895 58.0189C50.081 57.9983 50.0886 58.0144 50.1188 58.1052C50.1494 58.1971 50.1847 58.309 50.2404 58.4858L54.0557 57.2842ZM53.5107 56.0342L56.442 53.3125C55.4538 52.2481 54.0747 51.7979 53.7858 51.6828L52.3047 55.3984L50.8235 59.1141C50.9961 59.1829 51.105 59.2264 51.1947 59.2638C51.2833 59.3007 51.2988 59.3095 51.2789 59.2996C51.2554 59.2878 51.1586 59.2385 51.0282 59.1474C50.8885 59.05 50.7322 58.9204 50.5794 58.7559L53.5107 56.0342ZM52.3047 55.3984L53.7859 51.6828L38.4724 45.5783L36.9912 49.2939L35.51 53.0096L50.8235 59.1141L52.3047 55.3984ZM36.9912 49.2939L38.4724 45.5783C37.7185 45.2778 37.1209 45.0393 36.6203 44.8254C36.1108 44.6077 35.8135 44.4621 35.6429 44.3648C35.4435 44.251 35.6214 44.3163 35.8707 44.6084C36.014 44.7763 36.1939 45.0339 36.3346 45.3858C36.4792 45.7477 36.5508 46.1315 36.5508 46.5068H32.5508H28.5508C28.5508 49.386 30.802 50.8134 31.679 51.3137C32.7218 51.9085 34.1538 52.469 35.5101 53.0096L36.9912 49.2939ZM32.5508 46.5068H36.5508C36.5508 46.8821 36.4792 47.2659 36.3346 47.6279C36.1939 47.9798 36.014 48.2374 35.8707 48.4053C35.6214 48.6973 35.4435 48.7627 35.6429 48.6489C35.8135 48.5516 36.1108 48.406 36.6203 48.1883C37.1209 47.9744 37.7185 47.7359 38.4724 47.4354L36.9912 43.7197L35.5101 40.0041C34.1538 40.5447 32.7218 41.1052 31.6791 41.7C30.802 42.2003 28.5508 43.6277 28.5508 46.5068H32.5508ZM36.9912 43.7197L38.4724 47.4354L53.7859 41.3309L52.3047 37.6152L50.8235 33.8996L35.51 40.0041L36.9912 43.7197ZM52.3047 37.6152L53.7858 41.3309C54.0747 41.2157 55.4538 40.7655 56.442 39.7012L53.5107 36.9795L50.5794 34.2578C50.7322 34.0933 50.8885 33.9637 51.0282 33.8662C51.1586 33.7752 51.2554 33.7259 51.2789 33.7141C51.2988 33.7041 51.2833 33.7129 51.1947 33.7499C51.105 33.7873 50.9961 33.8308 50.8235 33.8996L52.3047 37.6152ZM53.5107 36.9795L56.4421 39.7011C57.43 38.637 57.7767 37.2301 57.8709 36.9312L54.0557 35.7295L50.2404 34.5278C50.1847 34.7047 50.1494 34.8165 50.1188 34.9084C50.0886 34.9993 50.081 35.0154 50.0895 34.9948C50.0995 34.9703 50.1415 34.8703 50.2226 34.7337C50.3093 34.5874 50.4268 34.4222 50.5794 34.2579L53.5107 36.9795ZM54.0557 35.7295L57.8709 36.9312L62.9539 20.7935L59.1387 19.5918L55.3235 18.3901L50.2404 34.5278L54.0557 35.7295ZM59.1387 19.5918L62.9539 20.7935C63.2516 19.8484 63.4939 19.0796 63.714 18.4314C63.9374 17.7734 64.1017 17.3492 64.2276 17.0771C64.3736 16.7614 64.3579 16.8967 64.1122 17.1477C63.9651 17.298 63.7044 17.522 63.3141 17.7059C62.9054 17.8984 62.4529 18 62 18V14V10C60.4172 10 59.1965 10.7331 58.3956 11.5513C57.6937 12.2682 57.2516 13.1025 56.9666 13.7188C56.4006 14.9425 55.8728 16.646 55.3234 18.3901L59.1387 19.5918ZM21 8V12C20.5471 12 20.0946 11.8984 19.6859 11.7059C19.2956 11.522 19.0349 11.298 18.8878 11.1477C18.6421 10.8967 18.6264 10.7614 18.7724 11.0771C18.8983 11.3492 19.0626 11.7734 19.286 12.4314C19.5061 13.0796 19.7484 13.8484 20.0461 14.7935L23.8613 13.5918L27.6766 12.3901C27.1272 10.646 26.5994 8.9425 26.0334 7.71881C25.7484 7.10251 25.3063 6.26823 24.6044 5.55127C23.8035 4.73314 22.5828 4 21 4V8ZM23.8613 13.5918L20.0459 14.7929L20.9424 17.6406L24.7578 16.4395L28.5732 15.2383L27.6767 12.3907L23.8613 13.5918ZM24.7578 16.4395L20.9426 17.6411C21.0406 17.9524 21.3866 19.3483 22.3723 20.4101L25.3037 17.6885L28.2351 14.9669C28.3858 15.1292 28.5024 15.2926 28.5889 15.438C28.6697 15.5739 28.7119 15.6736 28.7222 15.6987C28.731 15.7201 28.7236 15.7046 28.6937 15.615C28.6635 15.5246 28.6283 15.4132 28.573 15.2378L24.7578 16.4395ZM25.3037 17.6885L22.3727 20.4104C23.3586 21.4721 24.726 21.9206 25.0276 22.0409L26.5088 18.3252L27.9899 14.6095C27.819 14.5414 27.7104 14.498 27.6223 14.4611C27.535 14.4246 27.5201 14.416 27.5406 14.4263C27.5648 14.4385 27.6611 14.4878 27.7907 14.5786C27.9294 14.6756 28.0839 14.8041 28.2348 14.9665L25.3037 17.6885ZM26.5088 18.3252L25.0282 22.0411L28.5282 23.4356L30.0088 19.7197L31.4893 16.0038L27.9893 14.6093L26.5088 18.3252ZM30.0088 19.7197L28.5276 23.4354C29.2815 23.7359 29.8791 23.9744 30.3797 24.1883C30.8892 24.406 31.1865 24.5516 31.3571 24.6489C31.5565 24.7627 31.3786 24.6973 31.1293 24.4053C30.986 24.2374 30.8061 23.9798 30.6654 23.6279C30.5208 23.2659 30.4492 22.8821 30.4492 22.5068H34.4492H38.4492C38.4492 19.6277 36.198 18.2003 35.321 17.7C34.2782 17.1052 32.8462 16.5447 31.4899 16.0041L30.0088 19.7197ZM34.4492 22.5068H30.4492C30.4492 22.1315 30.5208 21.7477 30.6654 21.3858C30.8061 21.0339 30.986 20.7763 31.1293 20.6084C31.3786 20.3163 31.5565 20.251 31.3571 20.3648C31.1865 20.4621 30.8892 20.6077 30.3797 20.8254C29.8791 21.0393 29.2815 21.2778 28.5276 21.5783L30.0088 25.2939L31.4899 29.0096C32.8462 28.469 34.2782 27.9085 35.3209 27.3137C36.198 26.8134 38.4492 25.386 38.4492 22.5068H34.4492ZM30.0088 25.2939L28.5282 21.578L25.0282 22.9726L26.5088 26.6885L27.9893 30.4044L31.4893 29.0099L30.0088 25.2939ZM26.5088 26.6885L25.0276 22.9728C24.726 23.093 23.3586 23.5416 22.3727 24.6033L25.3037 27.3252L28.2348 30.0471C28.0839 30.2096 27.9294 30.3381 27.7907 30.4351C27.6611 30.5258 27.5648 30.5752 27.5406 30.5873C27.5201 30.5976 27.535 30.5891 27.6223 30.5526C27.7104 30.5157 27.819 30.4723 27.9899 30.4041L26.5088 26.6885ZM25.3037 27.3252L22.3723 24.6036C21.3866 25.6654 21.0406 27.0612 20.9426 27.3726L24.7578 28.5742L28.573 29.7759C28.6283 29.6005 28.6635 29.4891 28.6937 29.3987C28.7236 29.3091 28.731 29.2936 28.7222 29.3149C28.7119 29.3401 28.6697 29.4397 28.5889 29.5757C28.5024 29.7211 28.3858 29.8845 28.2351 30.0468L25.3037 27.3252ZM24.7578 28.5742L20.9424 27.3731L20.0459 30.2207L23.8613 31.4219L27.6767 32.623L28.5732 29.7754L24.7578 28.5742ZM23.8613 31.4219L20.0461 30.2202C19.7484 31.1653 19.5061 31.9341 19.286 32.5822C19.0626 33.2402 18.8983 33.6644 18.7724 33.9366C18.6264 34.2523 18.6421 34.117 18.8878 33.866C19.0349 33.7157 19.2956 33.4916 19.6859 33.3078C20.0946 33.1152 20.5471 33.0137 21 33.0137V37.0137V41.0137C22.5828 41.0137 23.8035 40.2805 24.6044 39.4624C25.3063 38.7454 25.7484 37.9112 26.0334 37.2949C26.5994 36.0712 27.1272 34.3677 27.6766 32.6235L23.8613 31.4219ZM21 37.0137L21 33.0137C21.4529 33.0137 21.9054 33.1152 22.3141 33.3078C22.7044 33.4916 22.9651 33.7157 23.1122 33.866C23.3579 34.117 23.3736 34.2523 23.2276 33.9366C23.1017 33.6644 22.9374 33.2402 22.714 32.5822C22.4939 31.9341 22.2516 31.1653 21.9539 30.2202L18.1387 31.4219L14.3234 32.6235C14.8728 34.3677 15.4006 36.0712 15.9666 37.2949C16.2516 37.9112 16.6937 38.7454 17.3956 39.4624C18.1965 40.2805 19.4172 41.0137 21 41.0137L21 37.0137ZM18.1387 31.4219L21.9541 30.2207L21.0576 27.3731L17.2422 28.5742L13.4268 29.7754L14.3233 32.623L18.1387 31.4219ZM17.2422 28.5742L21.0574 27.3726C20.9594 27.0612 20.6134 25.6654 19.6277 24.6036L16.6963 27.3252L13.7649 30.0468C13.6142 29.8845 13.4976 29.7211 13.4111 29.5757C13.3303 29.4397 13.2881 29.3401 13.2778 29.3149C13.269 29.2936 13.2764 29.3091 13.3063 29.3987C13.3365 29.4891 13.3717 29.6005 13.427 29.7759L17.2422 28.5742ZM16.6963 27.3252L19.6273 24.6033C18.6414 23.5416 17.274 23.093 16.9724 22.9728L15.4912 26.6885L14.0101 30.4041C14.181 30.4723 14.2896 30.5157 14.3777 30.5526C14.465 30.5891 14.4799 30.5976 14.4594 30.5873C14.4352 30.5752 14.3389 30.5258 14.2093 30.4351C14.0706 30.3381 13.9161 30.2096 13.7652 30.0471L16.6963 27.3252ZM15.4912 26.6885L16.9718 22.9726L13.4718 21.578L11.9912 25.2939L10.5107 29.0099L14.0107 30.4044L15.4912 26.6885ZM11.9912 25.2939L13.4724 21.5783C12.7185 21.2778 12.1209 21.0393 11.6203 20.8254C11.1108 20.6077 10.8135 20.4621 10.6429 20.3648C10.4435 20.251 10.6214 20.3163 10.8707 20.6084C11.014 20.7763 11.1939 21.0339 11.3346 21.3858C11.4792 21.7477 11.5508 22.1315 11.5508 22.5068H7.55078H3.55078C3.55078 25.386 5.80197 26.8134 6.67905 27.3137C7.72178 27.9085 9.15376 28.469 10.5101 29.0096L11.9912 25.2939ZM7.55078 22.5068H11.5508C11.5508 22.8821 11.4792 23.2659 11.3346 23.6279C11.1939 23.9798 11.014 24.2374 10.8707 24.4053C10.6214 24.6973 10.4435 24.7627 10.6429 24.6489C10.8135 24.5516 11.1108 24.406 11.6203 24.1883C12.1209 23.9744 12.7185 23.7359 13.4724 23.4354L11.9912 19.7197L10.5101 16.0041C9.15376 16.5447 7.72178 17.1052 6.67905 17.7C5.80197 18.2003 3.55078 19.6277 3.55078 22.5068H7.55078ZM11.9912 19.7197L13.4718 23.4356L16.9718 22.0411L15.4912 18.3252L14.0107 14.6093L10.5107 16.0038L11.9912 19.7197ZM15.4912 18.3252L16.9724 22.0409C17.274 21.9206 18.6414 21.4721 19.6273 20.4104L16.6963 17.6885L13.7652 14.9665C13.9161 14.8041 14.0706 14.6756 14.2093 14.5786C14.3389 14.4878 14.4352 14.4385 14.4594 14.4263C14.4799 14.416 14.465 14.4246 14.3777 14.4611C14.2896 14.498 14.181 14.5414 14.0101 14.6095L15.4912 18.3252ZM16.6963 17.6885L19.6277 20.4101C20.6134 19.3483 20.9594 17.9524 21.0574 17.6411L17.2422 16.4395L13.427 15.2378C13.3717 15.4132 13.3365 15.5246 13.3063 15.615C13.2764 15.7046 13.269 15.7201 13.2778 15.6987C13.2881 15.6736 13.3303 15.5739 13.4111 15.438C13.4976 15.2926 13.6142 15.1292 13.7649 14.9669L16.6963 17.6885ZM17.2422 16.4395L21.0576 17.6406L21.9541 14.7929L18.1387 13.5918L14.3233 12.3907L13.4268 15.2383L17.2422 16.4395ZM18.1387 13.5918L21.9539 14.7935C22.2516 13.8484 22.4939 13.0796 22.714 12.4314C22.9374 11.7734 23.1017 11.3492 23.2276 11.0771C23.3736 10.7614 23.3579 10.8967 23.1122 11.1477C22.9651 11.298 22.7044 11.522 22.3141 11.7059C21.9054 11.8984 21.4529 12 21 12L21 8L21 4C19.4172 4 18.1965 4.73314 17.3956 5.55127C16.6937 6.26823 16.2516 7.10251 15.9666 7.71881C15.4006 8.9425 14.8728 10.646 14.3234 12.3901L18.1387 13.5918Z" fill="#FFBA34" mask="url(#path-1-inside-1_34_238)"/>
</svg>
