<svg width="100" height="100" viewBox="0 0 100 100" fill="none" xmlns="http://www.w3.org/2000/svg">
<path d="M59.1386 20.0849C60.3127 16.357 60.8998 14.4931 62 14.4931C63.1002 14.4931 63.6873 16.357 64.8614 20.085L69.9444 36.2231C70.1546 36.8907 70.2598 37.2245 70.4897 37.4722C70.7196 37.7198 71.0447 37.8494 71.6949 38.1086L87.0091 44.2132C89.9691 45.3932 91.4491 45.9832 91.4491 47C91.4491 48.0168 89.9691 48.6068 87.0091 49.7867L71.6949 55.8914C71.0447 56.1506 70.7196 56.2802 70.4897 56.5278C70.2598 56.7755 70.1546 57.1093 69.9444 57.7769L64.8614 73.9151C63.6873 77.643 63.1002 79.5069 62 79.5069C60.8998 79.5069 60.3127 77.643 59.1386 73.915L54.0556 57.7769C53.8454 57.1093 53.7402 56.7755 53.5103 56.5278C53.2804 56.2802 52.9553 56.1506 52.3051 55.8914L36.9909 49.7868C34.0309 48.6068 32.5509 48.0168 32.5509 47C32.5509 45.9832 34.0309 45.3932 36.9909 44.2133L52.3051 38.1086C52.9553 37.8494 53.2804 37.7198 53.5103 37.4722C53.7402 37.2245 53.8454 36.8907 54.0556 36.2231L59.1386 20.0849Z" fill="#FFBA34"/>
<path d="M18.1386 14.0849C19.3127 10.357 19.8998 8.4931 21 8.4931C22.1002 8.4931 22.6873 10.357 23.8614 14.085L24.7583 16.9325C24.9686 17.6001 25.0737 17.9339 25.3036 18.1815C25.5335 18.4292 25.8586 18.5588 26.5088 18.818L30.0091 20.2133C32.9691 21.3932 34.4491 21.9832 34.4491 23C34.4491 24.0168 32.9691 24.6068 30.0091 25.7867L26.5088 27.182C25.8586 27.4412 25.5335 27.5708 25.3036 27.8185C25.0737 28.0661 24.9686 28.3999 24.7583 29.0675L23.8614 31.9151C22.6873 35.643 22.1002 37.5069 21 37.5069C19.8998 37.5069 19.3127 35.643 18.1386 31.915L17.2417 29.0675C17.0314 28.3999 16.9263 28.0661 16.6964 27.8185C16.4665 27.5708 16.1414 27.4412 15.4912 27.182L11.9909 25.7868C9.03089 24.6068 7.55088 24.0168 7.55088 23C7.55088 21.9832 9.03089 21.3932 11.9909 20.2133L15.4912 18.818C16.1414 18.5588 16.4665 18.4292 16.6964 18.1815C16.9263 17.9339 17.0314 17.6001 17.2417 16.9325L18.1386 14.0849Z" fill="#FFBA34"/>
<path d="M29.1386 68.0849C30.3127 64.357 30.8998 62.4931 32 62.4931C33.1002 62.4931 33.6873 64.357 34.8614 68.085L35.7583 70.9325C35.9686 71.6001 36.0737 71.9339 36.3036 72.1815C36.5335 72.4292 36.8586 72.5588 37.5088 72.818L41.0091 74.2133C43.9691 75.3932 45.4491 75.9832 45.4491 77C45.4491 78.0168 43.9691 78.6068 41.0091 79.7867L37.5088 81.182C36.8586 81.4412 36.5335 81.5708 36.3036 81.8185C36.0737 82.0661 35.9686 82.3999 35.7583 83.0675L34.8614 85.9151C33.6873 89.643 33.1002 91.5069 32 91.5069C30.8998 91.5069 30.3127 89.643 29.1386 85.915L28.2417 83.0675C28.0314 82.3999 27.9263 82.0661 27.6964 81.8185C27.4665 81.5708 27.1414 81.4412 26.4912 81.182L22.9909 79.7868C20.0309 78.6068 18.5509 78.0168 18.5509 77C18.5509 75.9832 20.0309 75.3932 22.9909 74.2133L26.4912 72.818C27.1414 72.5588 27.4665 72.4292 27.6964 72.1815C27.9263 71.9339 28.0314 71.6001 28.2417 70.9325L29.1386 68.0849Z" fill="#FFBA34"/>
</svg>
