<svg width="100" height="100" viewBox="0 0 100 100" fill="none" xmlns="http://www.w3.org/2000/svg">
<path d="M90.7627 37.1863V43.1863C90.7604 44.3446 89.2234 45.6612 86.446 48.0403L86.4443 48.0417L71.542 60.8074L70.877 61.3865L74.8066 77.8601C75.3685 80.2157 75.7641 81.875 75.7705 82.9998V88.9998C75.7749 89.7769 75.5934 90.2994 75.1523 90.6199C74.073 91.4037 72.326 90.3366 68.8323 88.2026L68.8311 88.2019L52.085 77.9734C51.1966 77.4308 50.6969 77.126 50.209 77.0583L50 77.0437C49.4376 77.0437 48.93 77.3535 47.915 77.9734L31.1689 88.2019L31.1676 88.2027C27.674 90.3366 25.9269 91.4037 24.8477 90.6199C24.4066 90.2994 24.2251 89.7769 24.2295 88.9998V82.9998C24.2359 81.875 24.6315 80.2157 25.1934 77.8601L29.123 61.3865C28.9352 61.2167 28.7149 61.0275 28.458 60.8074L13.5557 48.0417L13.554 48.0404C10.7766 45.6612 9.23962 44.3446 9.2373 43.1863V37.1863H90.7627Z" fill="#BF5319"/>
<mask id="mask0_87_53" style="mask-type:alpha" maskUnits="userSpaceOnUse" x="9" y="7" width="82" height="78">
<path d="M46.3067 12.8797C47.8794 9.09851 48.6658 7.20792 50 7.20792C51.3342 7.20792 52.1206 9.09852 53.6933 12.8797L61.2289 30.9975C61.6857 32.0957 61.914 32.6448 62.3691 32.9754C62.8242 33.306 63.4169 33.3535 64.6025 33.4486L84.1622 35.0167C88.2443 35.3439 90.2854 35.5076 90.6977 36.7765C91.11 38.0455 89.5549 39.3775 86.4448 42.0417L71.5424 54.8072C70.6391 55.581 70.1874 55.9679 70.0136 56.5028C69.8398 57.0378 69.9778 57.6162 70.2538 58.7732L74.8067 77.8601C75.7569 81.8435 76.232 83.8353 75.1526 84.6195C74.0731 85.4038 72.3257 84.3364 68.8308 82.2018L52.085 71.9735C51.07 71.3535 50.5625 71.0436 50 71.0436C49.4375 71.0436 48.93 71.3535 47.915 71.9735L31.1692 82.2018C27.6743 84.3364 25.9269 85.4038 24.8474 84.6195C23.768 83.8353 24.2431 81.8435 25.1933 77.8601L29.7462 58.7732C30.0222 57.6162 30.1602 57.0378 29.9864 56.5028C29.8126 55.9679 29.3609 55.581 28.4576 54.8072L13.5552 42.0417C10.4451 39.3775 8.89001 38.0455 9.30231 36.7765C9.71462 35.5076 11.7557 35.3439 15.8378 35.0167L35.3975 33.4486C36.5831 33.3535 37.1758 33.306 37.6309 32.9754C38.086 32.6448 38.3143 32.0957 38.7711 30.9975L46.3067 12.8797Z" fill="#FFBA34"/>
</mask>
<g mask="url(#mask0_87_53)">
<path d="M46.3067 12.8797C47.8794 9.09851 48.6658 7.20792 50 7.20792C51.3342 7.20792 52.1206 9.09852 53.6933 12.8797L61.2289 30.9975C61.6857 32.0957 61.914 32.6448 62.3691 32.9754C62.8242 33.306 63.4169 33.3535 64.6025 33.4486L84.1622 35.0167C88.2443 35.3439 90.2854 35.5076 90.6977 36.7765C91.11 38.0455 89.5549 39.3775 86.4448 42.0417L71.5424 54.8072C70.6391 55.581 70.1874 55.9679 70.0136 56.5028C69.8398 57.0378 69.9778 57.6162 70.2538 58.7732L74.8067 77.8601C75.7569 81.8435 76.232 83.8353 75.1526 84.6195C74.0731 85.4038 72.3257 84.3364 68.8308 82.2018L52.085 71.9735C51.07 71.3535 50.5625 71.0436 50 71.0436C49.4375 71.0436 48.93 71.3535 47.915 71.9735L31.1692 82.2018C27.6743 84.3364 25.9269 85.4038 24.8474 84.6195C23.768 83.8353 24.2431 81.8435 25.1933 77.8601L29.7462 58.7732C30.0222 57.6162 30.1602 57.0378 29.9864 56.5028C29.8126 55.9679 29.3609 55.581 28.4576 54.8072L13.5552 42.0417C10.4451 39.3775 8.89001 38.0455 9.30231 36.7765C9.71462 35.5076 11.7557 35.3439 15.8378 35.0167L35.3975 33.4486C36.5831 33.3535 37.1758 33.306 37.6309 32.9754C38.086 32.6448 38.3143 32.0957 38.7711 30.9975L46.3067 12.8797Z" fill="#FFBA34"/>
<rect x="69.5369" width="20" height="107.074" transform="rotate(30 69.5369 0)" fill="#FFEE7E"/>
<rect x="55.5369" y="-13" width="8" height="107.074" transform="rotate(30 55.5369 -13)" fill="#FFEE7E"/>
</g>
</svg>
