<svg width="100" height="100" viewBox="0 0 100 100" fill="none" xmlns="http://www.w3.org/2000/svg">
<path d="M46.3067 14.8797C47.8794 11.0985 48.6658 9.20792 50 9.20792C51.3342 9.20792 52.1206 11.0985 53.6933 14.8797L61.2289 32.9975C61.6857 34.0957 61.914 34.6448 62.3691 34.9754C62.8242 35.306 63.4169 35.3535 64.6025 35.4486L84.1622 37.0167C88.2443 37.3439 90.2854 37.5076 90.6977 38.7765C91.11 40.0455 89.5549 41.3775 86.4448 44.0417L71.5424 56.8072C70.6391 57.581 70.1874 57.9679 70.0136 58.5028C69.8398 59.0378 69.9778 59.6162 70.2538 60.7732L74.8067 79.8601C75.7569 83.8435 76.232 85.8353 75.1526 86.6195C74.0731 87.4038 72.3257 86.3364 68.8308 84.2018L52.085 73.9735C51.07 73.3535 50.5625 73.0436 50 73.0436C49.4375 73.0436 48.93 73.3535 47.915 73.9735L31.1692 84.2018C27.6743 86.3365 25.9269 87.4038 24.8474 86.6195C23.768 85.8353 24.2431 83.8435 25.1933 79.8601L29.7462 60.7732C30.0222 59.6162 30.1602 59.0378 29.9864 58.5028C29.8126 57.9679 29.3609 57.581 28.4576 56.8072L13.5552 44.0417C10.4451 41.3775 8.89001 40.0455 9.30231 38.7765C9.71462 37.5076 11.7557 37.3439 15.8378 37.0167L35.3975 35.4486C36.5831 35.3535 37.1758 35.306 37.6309 34.9754C38.086 34.6448 38.3143 34.0957 38.7711 32.9975L46.3067 14.8797Z" fill="#FFBA34"/>
</svg>
