<svg width="100" height="100" viewBox="0 0 100 100" fill="none" xmlns="http://www.w3.org/2000/svg">
<circle cx="50" cy="50" r="42" fill="#FFBA34"/>
<path d="M51.8 61.0249C59.9 68.8999 77 62.5999 74.3 55.3999" stroke="#471C13" stroke-width="4" stroke-linecap="round" stroke-linejoin="round"/>
<path d="M15.0233 35.8575L52.1626 30.6379L85.7078 25.9234C89.233 51.0067 55.6878 55.7212 52.1626 30.6379C55.6878 55.7212 18.5485 60.9407 15.0233 35.8575Z" fill="#C100F1"/>
<path d="M10.2311 36.531L90.5 25.2499L85.7078 25.9234C89.233 51.0067 55.6878 55.7212 52.1626 30.6379C55.6878 55.7212 18.5485 60.9407 15.0233 35.8575" stroke="#301446" stroke-width="4" stroke-linecap="round" stroke-linejoin="round"/>
<path d="M25.3149 30.82C26.189 29.232 26.6261 28.438 27.1769 28.5206C27.7277 28.6032 27.9128 29.4904 28.2829 31.2648L29.0829 35.1006C29.1568 35.4549 29.1938 35.6321 29.2979 35.7729C29.402 35.9137 29.5605 36.001 29.8777 36.1756L33.3103 38.0651C34.8982 38.9391 35.6922 39.3762 35.6096 39.927C35.5271 40.4779 34.6398 40.6629 32.8654 41.033L29.0297 41.8331C28.6753 41.907 28.4981 41.9439 28.3573 42.048C28.2165 42.1521 28.1292 42.3107 27.9547 42.6278L26.0652 46.0604C25.1911 47.6484 24.754 48.4423 24.2032 48.3598C23.6524 48.2772 23.4673 47.39 23.0972 45.6155L22.2972 41.7798C22.2233 41.4254 22.1863 41.2483 22.0822 41.1075C21.9781 40.9666 21.8195 40.8794 21.5024 40.7048L18.0698 38.8153C16.4819 37.9412 15.6879 37.5042 15.7705 36.9533C15.853 36.4025 16.7402 36.2175 18.5147 35.8473L22.3504 35.0473C22.7048 34.9734 22.882 34.9364 23.0228 34.8323C23.1636 34.7282 23.2509 34.5697 23.4254 34.2526L25.3149 30.82Z" fill="white"/>
<path d="M62.7431 25.4979C63.6172 23.91 64.0543 23.116 64.6051 23.1986C65.1559 23.2811 65.341 24.1684 65.7111 25.9428L66.5111 29.7786C66.5851 30.1329 66.622 30.3101 66.7261 30.4509C66.8302 30.5917 66.9888 30.679 67.3059 30.8535L70.7385 32.743C72.3264 33.6171 73.1204 34.0542 73.0379 34.605C72.9553 35.1558 72.0681 35.3409 70.2936 35.711L66.4579 36.511C66.1035 36.5849 65.9263 36.6219 65.7855 36.726C65.6447 36.8301 65.5574 36.9887 65.3829 37.3058L63.4934 40.7384C62.6193 42.3263 62.1823 43.1203 61.6314 43.0378C61.0806 42.9552 60.8955 42.068 60.5254 40.2935L59.7254 36.4578C59.6515 36.1034 59.6145 35.9262 59.5104 35.7854C59.4063 35.6446 59.2478 35.5573 58.9307 35.3828L55.498 33.4933C53.9101 32.6192 53.1161 32.1822 53.1987 31.6313C53.2812 31.0805 54.1685 30.8954 55.9429 30.5253L59.7787 29.7253C60.133 29.6514 60.3102 29.6144 60.451 29.5103C60.5918 29.4062 60.6791 29.2477 60.8536 28.9306L62.7431 25.4979Z" fill="white"/>
</svg>
