<svg width="100" height="100" viewBox="0 0 100 100" fill="none" xmlns="http://www.w3.org/2000/svg">
<circle cx="50" cy="50" r="42" fill="#FFBA34"/>
<path d="M51.8 61.025C59.9 68.9 77 62.6 74.3 55.4" stroke="#572217" stroke-width="4" stroke-linecap="round" stroke-linejoin="round"/>
<path d="M15.0231 35.8575L52.1625 30.6379L85.7077 25.9234C89.2329 51.0067 55.6877 55.7212 52.1625 30.6379C55.6877 55.7212 18.5484 60.9407 15.0231 35.8575Z" fill="#C100F1"/>
<path d="M10.231 36.531L90.4999 25.2499L85.7077 25.9234C89.2329 51.0067 55.6877 55.7212 52.1625 30.6379C55.6877 55.7212 18.5484 60.9407 15.0231 35.8575" stroke="#331B5B" stroke-width="4" stroke-linecap="round" stroke-linejoin="round"/>
<path d="M25.3148 30.82C26.1889 29.2321 26.6259 28.4381 27.1768 28.5207C27.7276 28.6032 27.9127 29.4904 28.2828 31.2649L29.0828 35.1006C29.1567 35.455 29.1937 35.6322 29.2978 35.773C29.4019 35.9138 29.5604 36.0011 29.8775 36.1756L33.3101 38.0651C34.8981 38.9392 35.6921 39.3763 35.6095 39.9271C35.5269 40.4779 34.6397 40.663 32.8653 41.0331L29.0295 41.8331C28.6752 41.907 28.498 41.944 28.3572 42.0481C28.2164 42.1522 28.1291 42.3107 27.9545 42.6279L26.0651 46.0605C25.191 47.6484 24.7539 48.4424 24.2031 48.3598C23.6522 48.2773 23.4672 47.39 23.0971 45.6156L22.297 41.7799C22.2231 41.4255 22.1862 41.2483 22.0821 41.1075C21.978 40.9667 21.8194 40.8794 21.5023 40.7049L18.0697 38.8154C16.4817 37.9413 15.6878 37.5042 15.7703 36.9534C15.8529 36.4026 16.7401 36.2175 18.5146 35.8474L22.3503 35.0474C22.7047 34.9735 22.8818 34.9365 23.0227 34.8324C23.1635 34.7283 23.2507 34.5697 23.4253 34.2526L25.3148 30.82Z" fill="white"/>
<path d="M62.743 25.4981C63.6171 23.9101 64.0542 23.1161 64.605 23.1987C65.1558 23.2813 65.3409 24.1685 65.711 25.9429L66.511 29.7787C66.5849 30.133 66.6219 30.3102 66.726 30.451C66.8301 30.5918 66.9886 30.6791 67.3058 30.8537L70.7384 32.7432C72.3263 33.6172 73.1203 34.0543 73.0377 34.6051C72.9552 35.156 72.0679 35.341 70.2935 35.7111L66.4578 36.5112C66.1034 36.5851 65.9262 36.622 65.7854 36.7261C65.6446 36.8302 65.5573 36.9888 65.3828 37.3059L63.4933 40.7385C62.6192 42.3265 62.1821 43.1204 61.6313 43.0379C61.0805 42.9553 60.8954 42.0681 60.5253 40.2936L59.7253 36.4579C59.6514 36.1035 59.6144 35.9264 59.5103 35.7856C59.4062 35.6447 59.2476 35.5575 58.9305 35.3829L55.4979 33.4934C53.91 32.6193 53.116 32.1823 53.1986 31.6314C53.2811 31.0806 54.1683 30.8956 55.9428 30.5254L59.7785 29.7254C60.1329 29.6515 60.3101 29.6145 60.4509 29.5104C60.5917 29.4063 60.679 29.2478 60.8535 28.9307L62.743 25.4981Z" fill="white"/>
</svg>
