<svg width="100" height="100" viewBox="0 0 100 100" fill="none" xmlns="http://www.w3.org/2000/svg">
<rect x="8" y="8" width="84" height="84" rx="12" fill="#5B6784"/>
<path d="M92 68C92 79.3137 92.0001 84.9706 88.4854 88.4854C84.9706 92.0001 79.3137 92 68 92H32C20.6863 92 15.0294 92.0001 11.5146 88.4854C7.99993 84.9706 8 79.3137 8 68V62C8 73.3137 7.99993 78.9706 11.5146 82.4854C15.0294 86.0001 20.6863 86 32 86H68C79.3137 86 84.9706 86.0001 88.4854 82.4854C92.0001 78.9706 92 73.3137 92 62V68Z" fill="#323956"/>
<path d="M50 19C58.8366 19 66 26.1634 66 35C66 41.5039 62.119 47.1005 56.5469 49.6025C57.845 49.8454 59.1231 50.1621 60.3711 50.5498C63.6785 51.5773 66.7425 53.1016 69.3701 55.0723L69.8574 55.4463C72.2667 57.3443 74.2592 59.6145 75.6748 62.1777L75.9502 62.6953C77.287 65.2957 78 68.1145 78 71C78 73.2091 76.2091 75 74 75H26C23.7909 75 22 73.2091 22 71C22 67.9221 22.8108 64.9197 24.3252 62.1777L24.6162 61.6689C26.1079 59.1454 28.166 56.9201 30.6299 55.0723L31.127 54.708C33.6409 52.913 36.528 51.5131 39.6289 50.5498L40.252 50.3633C41.3017 50.0596 42.3716 49.8072 43.4551 49.6045C37.8817 47.103 34 41.5048 34 35C34 26.1634 41.1634 19 50 19Z" fill="white"/>
</svg>
