<svg width="100" height="100" viewBox="0 0 100 100" fill="none" xmlns="http://www.w3.org/2000/svg">
<path fill-rule="evenodd" clip-rule="evenodd" d="M58.0026 27.4941C58.0026 38.2604 49.2608 46.9882 38.4771 46.9882C27.6934 46.9882 18.9515 38.2604 18.9515 27.4941C18.9515 16.7278 27.6934 8 38.4771 8C49.2608 8 58.0026 16.7278 58.0026 27.4941ZM77.4382 68.1891C77.4382 76.9212 70.348 84 61.6018 84C52.8556 84 45.7654 76.9212 45.7654 68.1891C45.7654 59.457 52.8556 52.3783 61.6018 52.3783C70.348 52.3783 77.4382 59.457 77.4382 68.1891ZM19.6714 60.104C23.945 60.104 27.4096 56.645 27.4096 52.3783C27.4096 48.1115 23.945 44.6525 19.6714 44.6525C15.3977 44.6525 11.9331 48.1115 11.9331 52.3783C11.9331 56.645 15.3977 60.104 19.6714 60.104ZM95.0742 45.6407C95.0742 48.2703 92.9392 50.4019 90.3053 50.4019C87.6714 50.4019 85.5364 48.2703 85.5364 45.6407C85.5364 43.011 87.6714 40.8794 90.3053 40.8794C92.9392 40.8794 95.0742 43.011 95.0742 45.6407ZM11.2133 42.3168C13.4992 42.3168 15.3523 40.4667 15.3523 38.1844C15.3523 35.9021 13.4992 34.052 11.2133 34.052C8.92735 34.052 7.07422 35.9021 7.07422 38.1844C7.07422 40.4667 8.92735 42.3168 11.2133 42.3168Z" fill="#190E30"/>
<path d="M66.4985 23.5597L56.6863 22.5704L55.1923 37.3879L69.4177 32.9799L66.4985 23.5597ZM68.4629 34.7558L58.6835 33.4829L58.6833 33.4841L68.4629 34.7558ZM68.4598 34.7793L58.6806 33.5046L57.9019 39.479L62.8621 42.8988L68.4598 34.7793ZM75.4655 43.1689L69.19 35.5611L59.3889 43.6458L69.6521 51.1355L75.4655 43.1689ZM64.188 54.868L73.544 57.9865L73.5944 57.8354L73.6399 57.6828L64.188 54.868ZM64.188 54.868L54.8321 51.7492L54.7817 51.9006L54.7361 52.0532L64.188 54.868ZM52.881 56.2847L61.5412 51.5662L53.1302 36.129L44.3403 51.3537L52.881 56.2847ZM34.7895 81.5928L29.266 89.7629L29.5558 89.9587L29.8586 90.1337L34.7895 81.5928ZM34.7895 81.5926L40.313 73.4225L40.0232 73.2267L39.7205 73.0518L34.7895 81.5926ZM34.0419 76.8597L42.5827 81.7907L51.9692 65.5328L33.256 67.029L34.0419 76.8597ZM32.0998 76.2135L37.0309 67.6725L36.6851 67.473L36.3244 67.3021L32.0998 76.2135ZM32.0998 76.2133L27.1686 84.7542L27.5143 84.9538L27.8751 85.1248L32.0998 76.2133ZM41.8046 53.3765L50.3454 58.3075L58.7925 43.6765L41.899 43.5148L41.8046 53.3765ZM36.8958 51.8798L45.9053 47.8686V47.8684L36.8958 51.8798ZM38.4216 47.9839L46.0154 54.2764L58.9026 38.7247L38.7139 38.1261L38.4216 47.9839ZM34.2062 46.5005L43.2156 42.4893V42.4891L34.2062 46.5005ZM39.1543 38.8606L32.1807 31.887L32.0842 31.9835L31.9906 32.0825L39.1543 38.8606ZM39.1543 38.8606L46.1278 45.8341L46.2241 45.7379L46.3179 45.6387L39.1543 38.8606ZM41.7107 31.9057L32.3274 34.9414L32.3668 35.0633L32.4095 35.1842L41.7107 31.9057ZM41.7107 31.9057L51.0938 28.8699L51.0544 28.748L51.0119 28.6272L41.7107 31.9057ZM53.167 25.1697L52.1361 15.3616H52.136L53.167 25.1697ZM70.478 9.74045C64.7734 6.44693 59.4248 9.19199 57.7116 10.1557C55.6669 11.3058 53.3637 13.0986 51.4395 14.5707L63.4239 30.2363C64.5471 29.377 65.3978 28.727 66.1225 28.2006C66.8663 27.6603 67.2364 27.4285 67.382 27.3465C67.5936 27.2275 67.0035 27.6112 65.8789 27.8009C65.25 27.907 64.4053 27.9616 63.4239 27.8097C62.4189 27.6542 61.4641 27.3117 60.6159 26.822L70.478 9.74045ZM76.311 24.5489C76.4655 23.0151 76.6504 20.7628 76.3097 18.5494C75.9245 16.0476 74.6061 12.1238 70.478 9.74045L60.6159 26.822C59.3134 26.07 58.3017 24.9974 57.639 23.8283C57.0399 22.7716 56.8674 21.89 56.8151 21.5501C56.7622 21.2067 56.7833 21.0852 56.7774 21.337C56.772 21.5684 56.7485 21.9534 56.6863 22.5704L76.311 24.5489ZM73.1676 15.1198C69.6239 13.0739 66.0445 13.3757 63.5796 14.1395L69.4177 32.9799C68.9424 33.1271 68.06 33.3341 66.9016 33.2713C65.6662 33.2042 64.4211 32.8454 63.3056 32.2014L73.1676 15.1198ZM78.5037 34.0226C78.8165 31.6202 79.2174 28.729 79.191 26.3833C79.1692 24.4178 78.872 18.4133 73.1676 15.1198L63.3056 32.2014C62.4573 31.7117 61.6832 31.0559 61.0461 30.2634C60.4239 29.4893 60.0488 28.7306 59.8262 28.133C59.4282 27.0641 59.4655 26.3612 59.4681 26.6038C59.4701 26.7709 59.4542 27.2074 59.3582 28.1217C59.2646 29.0125 59.1271 30.0744 58.9446 31.4766L78.5037 34.0226ZM78.2425 36.0289L78.5037 34.0226L58.9446 31.4766L58.6835 33.4829L78.2425 36.0289ZM78.2393 36.054C78.2405 36.0443 78.2418 36.0348 78.2427 36.0275L58.6833 33.4841C58.6822 33.4926 58.6813 33.4987 58.6806 33.5046L78.2393 36.054ZM75.3178 27.5285L74.0577 26.6599L62.8621 42.8988L64.1221 43.7674L75.3178 27.5285ZM85.7947 44.1427C87.1643 37.6995 82.9008 33.461 81.4548 32.1295C79.7291 30.5404 77.3124 28.9038 75.3178 27.5285L64.1221 43.7674C65.2864 44.5702 66.1675 45.1784 66.8923 45.705C67.6359 46.2453 67.9709 46.5257 68.0937 46.6389C68.2723 46.8033 67.7249 46.3606 67.197 45.3496C66.9018 44.7843 66.5889 43.9978 66.4301 43.0175C66.2672 42.0138 66.2979 40.9998 66.5016 40.0417L85.7947 44.1427ZM81.741 50.7768C83.5886 49.2527 85.1809 47.0307 85.7947 44.1427L66.5016 40.0417C66.6976 39.1199 67.0618 38.2118 67.5907 37.3806C68.1093 36.5658 68.6922 35.9717 69.19 35.5611L81.741 50.7768ZM88.4843 49.522C89.4885 44.7979 87.39 41.1672 85.783 39.224C84.3546 37.4969 82.5406 36.1232 81.2789 35.2025L69.6521 51.1355C70.1715 51.5145 70.4907 51.7663 70.6817 51.9289C70.8888 52.1052 70.7957 52.0512 70.5834 51.7944C70.3745 51.542 69.83 50.8308 69.4382 49.678C69.003 48.3979 68.8742 46.9125 69.1913 45.421L88.4843 49.522ZM72.1556 60.4383C74.5372 59.9932 77.4107 59.4811 79.6336 58.7312C81.4959 58.1031 87.1149 55.965 88.4843 49.522L69.1913 45.421C69.3949 44.463 69.7792 43.5243 70.3363 42.6734C70.8802 41.8425 71.4857 41.2511 71.9854 40.8549C72.879 40.1461 73.5591 39.9642 73.329 40.0419C73.1707 40.0953 72.7507 40.2151 71.8515 40.4062C70.9754 40.5925 69.923 40.79 68.5328 41.0496L72.1556 60.4383ZM70.1669 60.8098L72.1556 60.4383L68.5328 41.0496L66.5443 41.4211L70.1669 60.8098ZM72.034 59.3913C71.473 59.8964 70.8902 60.2742 70.3527 60.5455C69.8502 60.7992 69.4593 60.9235 69.3074 60.9681C69.1663 61.0099 69.1317 61.0113 69.3186 60.9726C69.5067 60.9335 69.746 60.8885 70.1669 60.8098L66.5443 41.4211C65.9552 41.5312 64.7851 41.7378 63.7255 42.0503C62.4486 42.4271 60.5962 43.1484 58.8359 44.7334L72.034 59.3913ZM73.6399 57.6828C73.7621 57.2724 73.832 57.0391 73.8904 56.856C73.9485 56.6744 73.9433 56.7086 73.8872 56.8445C73.8268 56.9908 73.6625 57.3667 73.3577 57.8399C73.0315 58.3461 72.5949 58.8861 72.034 59.3913L58.8359 44.7334C57.0756 46.3183 56.1647 48.0852 55.6565 49.3156C55.2348 50.3368 54.9072 51.479 54.7361 52.0532L73.6399 57.6828ZM73.544 57.9867V57.9865L54.8321 51.7492L73.544 57.9867ZM73.0624 59.6217L73.6399 57.6828L54.7361 52.0532L54.1588 53.9922L73.0624 59.6217ZM60.4992 74.72C67.0501 74.0314 69.7636 68.6668 70.5832 66.8802C71.5612 64.748 72.371 61.9438 73.0624 59.6217L54.1588 53.9922C53.7551 55.3476 53.4489 56.3735 53.172 57.2254C52.8878 58.0997 52.7248 58.5049 52.6551 58.6568C52.5539 58.8774 52.8059 58.22 53.6042 57.4054C54.0506 56.95 54.7019 56.4095 55.5852 55.9553C56.4896 55.4904 57.4633 55.2063 58.4375 55.104L60.4992 74.72ZM45.0713 62.5638C46.2304 64.6911 47.6055 67.2659 49.0054 69.1481C50.1784 70.7253 53.9483 75.4085 60.4992 74.72L58.4375 55.104C59.4115 55.0016 60.423 55.0771 61.4043 55.3437C62.3628 55.6042 63.1123 55.9976 63.6436 56.3503C64.5937 56.981 64.9767 57.5716 64.832 57.3769C64.7323 57.2428 64.4885 56.8804 64.0287 56.0844C63.5808 55.3085 63.068 54.3688 62.3914 53.1269L45.0713 62.5638ZM44.221 61.0031L45.0713 62.5638L62.3914 53.1269L61.5412 51.5662L44.221 61.0031ZM47.4472 85.4205L61.4219 61.2157L44.3403 51.3537L30.3655 75.5584L47.4472 85.4205ZM45.4375 88.259C46.598 87.0225 47.4076 85.489 47.4472 85.4205L30.3655 75.5584C30.2805 75.7055 30.2319 75.7896 30.193 75.8559C30.1543 75.9217 30.1597 75.9111 30.1898 75.8633C30.242 75.7808 30.5382 75.3121 31.0546 74.7618L45.4375 88.259ZM33.0181 91.5868C37.4539 92.9277 42.2664 91.6383 45.4375 88.259L31.0546 74.7618C33.0132 72.6748 35.9857 71.8783 38.7253 72.7065L33.0181 91.5868ZM29.8586 90.1337C29.9268 90.1729 31.3948 91.096 33.0181 91.5868L38.7253 72.7065C39.4476 72.9247 39.9386 73.1826 40.025 73.2279C40.075 73.2543 40.0849 73.2607 40.0183 73.2231C39.9516 73.1853 39.8675 73.1367 39.7205 73.0518L29.8586 90.1337ZM27.0198 88.1238C28.2563 89.2843 29.7899 90.094 29.8583 90.1335L39.7205 73.0518C39.5735 72.967 39.4894 72.9183 39.423 72.8793C39.3572 72.8406 39.3678 72.846 39.4157 72.8761C39.4982 72.9283 39.9669 73.2245 40.517 73.7408L27.0198 88.1238ZM23.6921 75.7044C22.3513 80.1402 23.6407 84.9527 27.0198 88.1238L40.5172 73.7409C42.6042 75.6995 43.4007 78.672 42.5724 81.4117L23.6921 75.7044ZM25.1454 72.5448C25.106 72.6131 24.1829 74.0811 23.6921 75.7044L42.5724 81.4117C42.3542 82.1339 42.0964 82.6249 42.051 82.7113C42.0247 82.7613 42.018 82.7714 42.0557 82.7048C42.0937 82.638 42.1421 82.5539 42.2271 82.4068L25.1454 72.5448ZM25.5012 71.9286L25.1454 72.5448L42.2271 82.4068L42.5827 81.7907L25.5012 71.9286ZM30.3284 86.2075C31.8081 86.6547 33.3347 86.8098 34.8279 86.6904L33.256 67.029C34.1789 66.9551 35.1228 67.0512 36.0357 67.3272L30.3284 86.2075ZM27.1686 84.7542C27.2369 84.7936 28.7051 85.7167 30.3284 86.2075L36.0357 67.3272C36.7579 67.5454 37.2489 67.8033 37.3353 67.8486C37.3854 67.875 37.3954 67.8816 37.3289 67.844C37.262 67.8059 37.1779 67.7575 37.0309 67.6725L27.1686 84.7542ZM24.3301 82.7445C25.5666 83.905 27.1003 84.7147 27.1686 84.7542L37.0309 67.6725C36.8838 67.5877 36.7997 67.5389 36.7334 67.5C36.6676 67.4613 36.6782 67.4667 36.726 67.4968C36.8085 67.549 37.2772 67.8452 37.8274 68.3614L24.3301 82.7445ZM21.0024 70.3251C19.6616 74.7609 20.9511 79.5734 24.3301 82.7445L37.8275 68.3616C39.9145 70.3202 40.711 73.2927 39.8828 76.0323L21.0024 70.3251ZM22.4558 67.1654C22.4163 67.2338 21.4932 68.7018 21.0024 70.3251L39.8828 76.0323C39.6646 76.7546 39.4067 77.2456 39.3614 77.332C39.335 77.382 39.3284 77.3921 39.366 77.3255C39.404 77.2587 39.4524 77.1746 39.5374 77.0275L22.4558 67.1654ZM33.2637 48.4454L22.4558 67.1654L39.5374 77.0275L50.3454 58.3075L33.2637 48.4454ZM27.8864 55.8909C29.7665 60.1135 33.3781 61.8727 35.8352 62.5568C37.9887 63.1564 40.2125 63.2237 41.7101 63.238L41.899 43.5148C41.3311 43.5094 40.9927 43.4909 40.8062 43.4739C40.6009 43.4552 40.7596 43.4534 41.1252 43.5553C41.4914 43.6573 42.3488 43.9403 43.3214 44.6546C44.3883 45.4384 45.3128 46.5378 45.9053 47.8686L27.8864 55.8909ZM30.828 41.6914C29.9709 42.7256 28.6911 44.371 27.8444 46.4176C26.8589 48.8001 26.2679 52.2554 27.8864 55.8909L45.9053 47.8684C46.4151 49.0135 46.6458 50.2579 46.5972 51.4733C46.5513 52.6191 46.2691 53.4778 46.0706 53.9576C45.7475 54.7389 45.4584 54.9485 46.0154 54.2764L30.828 41.6914ZM25.1967 50.5116C26.8977 54.3318 30.06 56.1791 32.511 56.9851C34.6222 57.6794 36.7454 57.8006 38.1295 57.8417L38.7139 38.1261C37.6963 38.096 37.9498 38.0103 38.6728 38.2481C39.1284 38.398 39.9694 38.7379 40.8835 39.4683C41.8627 40.2506 42.6804 41.2867 43.2156 42.4893L25.1967 50.5116ZM31.9906 32.0825C30.3255 33.8422 28.3018 35.9455 26.9441 37.8588C25.8067 39.4618 22.5177 44.494 25.1967 50.5116L43.2156 42.4891C43.6141 43.384 43.8549 44.3694 43.9044 45.3852C43.9528 46.3769 43.8104 47.2114 43.6392 47.8257C43.3329 48.9244 42.8896 49.4711 43.03 49.2731C43.1267 49.1369 43.396 48.7931 44.0111 48.11C44.6105 47.4442 45.3458 46.666 46.3177 45.6389L31.9906 32.0825ZM33.3812 30.6128L31.9906 32.0825L46.3179 45.6387L47.7083 44.1692L33.3812 30.6128ZM32.7045 32.858C32.8614 32.1196 33.1108 31.4714 33.3862 30.936C33.6435 30.4353 33.8868 30.105 33.9833 29.9795C34.073 29.863 34.1 29.8414 33.9718 29.9826C33.8425 30.1246 33.6754 30.3019 33.3812 30.6128L47.7083 44.1692C48.1201 43.7341 48.9455 42.8791 49.6188 42.0034C50.4304 40.9481 51.5051 39.2757 51.9975 36.9588L32.7045 32.858ZM32.4095 35.1842C32.5519 35.588 32.6324 35.8179 32.6926 36.0002C32.7525 36.1813 32.7366 36.1507 32.7021 36.0076C32.665 35.8537 32.577 35.4531 32.5454 34.891C32.5117 34.29 32.5474 33.5964 32.7045 32.858L51.9975 36.9588C52.4899 34.6419 52.1885 32.6771 51.8763 31.3828C51.6172 30.3089 51.2111 29.1923 51.0119 28.6272L32.4095 35.1842ZM31.7369 33.276L32.4095 35.1842L51.0119 28.6272L50.3393 26.7191L31.7369 33.276ZM33.0263 13.6768C28.1311 18.0844 29.089 24.0194 29.4762 25.9465C29.9382 28.2465 30.9316 30.991 31.7369 33.276L50.3393 26.7191C49.8691 25.3854 49.5139 24.3754 49.2371 23.5234C48.9532 22.6491 48.8469 22.2254 48.8141 22.0615C48.7662 21.8237 48.9487 22.5035 48.7818 23.6318C48.6882 24.2626 48.4791 25.0827 48.0314 25.9692C47.5731 26.8771 46.9523 27.6793 46.2243 28.3347L33.0263 13.6768ZM52.6529 14.4431C50.4648 13.4033 47.839 12.1286 45.5999 11.4287C43.724 10.8422 37.9215 9.26917 33.0263 13.6768L46.2243 28.3347C45.4965 28.9901 44.6338 29.5235 43.6831 29.8845C42.7546 30.237 41.9171 30.3595 41.2798 30.3864C40.1403 30.4346 39.4833 30.182 39.715 30.2544C39.8744 30.3043 40.2848 30.4542 41.1245 30.828C41.9429 31.1924 42.9103 31.6512 44.1875 32.2582L52.6529 14.4431ZM54.4803 15.3114L52.6529 14.4431L44.1875 32.2582L46.0148 33.1266L54.4803 15.3114ZM52.136 15.3616C52.8869 15.2827 53.5803 15.3197 54.1747 15.416C54.7304 15.5061 55.1195 15.6355 55.2687 15.6885C55.4073 15.7377 55.4362 15.7568 55.2622 15.6784C55.0872 15.5994 54.867 15.4952 54.4803 15.3114L46.0148 33.1266C46.556 33.3837 47.624 33.9044 48.6651 34.2744C49.9195 34.7199 51.8421 35.2252 54.1979 34.9776L52.136 15.3616ZM49.8325 15.7999C49.4924 16.0601 49.2987 16.2078 49.144 16.3214C48.9901 16.4343 49.0144 16.4097 49.1397 16.3327C49.2747 16.2498 49.6285 16.0423 50.1533 15.8387C50.7146 15.6209 51.3852 15.4405 52.1361 15.3616L54.1979 34.9776C56.5535 34.7302 58.329 33.8361 59.4633 33.1393C60.4047 32.5612 61.3412 31.8296 61.8171 31.4656L49.8325 15.7999ZM51.4395 14.5707L49.8325 15.7999L61.8171 31.4656L63.4239 30.2363L51.4395 14.5707Z" fill="#190E30"/>
<path fill-rule="evenodd" clip-rule="evenodd" d="M68.3974 23.2406C66.838 22.3407 64.6436 24.0188 60.2547 27.375L58.6425 28.608C57.3679 29.5827 56.7303 30.0701 55.9756 30.1494C55.2206 30.2287 54.4959 29.8843 53.0464 29.1959L51.2128 28.3249C46.2216 25.9543 43.7261 24.7689 42.3881 25.9731C41.0502 27.1774 41.9687 29.782 43.8057 34.9917L44.4805 36.9054C45.014 38.4184 45.2808 39.1748 45.123 39.917C44.9652 40.659 44.4136 41.2417 43.3105 42.4071L41.9154 43.8809C38.1174 47.8931 36.2184 49.8993 36.9507 51.5434C37.6831 53.1875 40.4452 53.1192 45.9695 52.9827L47.7521 52.9386L33.7301 77.2153C33.4119 77.7665 33.2526 78.0422 33.1744 78.3008C32.9171 79.1513 33.1645 80.074 33.8127 80.6821C34.0097 80.8669 34.2855 81.0261 34.8372 81.3442C35.3886 81.6626 35.6644 81.8217 35.9231 81.9C36.774 82.1569 37.6971 81.9098 38.3054 81.2619C38.4904 81.0649 38.6494 80.7893 38.9679 80.2379L52.9899 55.9614L53.843 57.5265C56.4869 62.3771 57.8089 64.8022 59.5994 64.6141C61.39 64.426 62.1786 61.7791 63.7557 56.4853L64.335 54.5405C64.7931 53.003 65.0221 52.2342 65.5862 51.7265C66.1504 51.2188 66.9392 51.0715 68.5167 50.7769L70.5121 50.4041C75.9442 49.3896 78.6602 48.8825 79.0344 47.122C79.4088 45.3617 77.1339 43.794 72.5844 40.6588L70.9131 39.5071C69.5918 38.5964 68.9312 38.1412 68.6224 37.4481C68.3137 36.755 68.4173 35.9596 68.6246 34.3687L68.8866 32.3566C69.5998 26.8792 69.9565 24.1404 68.3974 23.2406Z" fill="#5A55FF"/>
<path fill-rule="evenodd" clip-rule="evenodd" d="M65.3974 18.2406C63.838 17.3407 61.6436 19.0188 57.2547 22.375L55.6425 23.608C54.3679 24.5828 53.7303 25.0701 52.9756 25.1494C52.2206 25.2287 51.4959 24.8843 50.0464 24.1959L48.2128 23.3249C43.2216 20.9543 40.7261 19.7689 39.3881 20.9731C38.0502 22.1774 38.9687 24.782 40.8057 29.9917L41.4805 31.9054C42.014 33.4184 42.2808 34.1748 42.123 34.917C41.9652 35.659 41.4136 36.2417 40.3105 37.4071L38.9154 38.8809C35.1174 42.8932 33.2184 44.8993 33.9507 46.5434C34.6831 48.1875 37.4452 48.1192 42.9695 47.9827L44.7521 47.9386L30.7301 72.2153C30.4119 72.7665 30.2526 73.0422 30.1744 73.3008C29.9171 74.1513 30.1645 75.074 30.8127 75.6821C31.0097 75.8669 31.2855 76.0261 31.8372 76.3442C32.3886 76.6626 32.6644 76.8217 32.9231 76.9C33.774 77.157 34.6971 76.9098 35.3054 76.2619C35.4904 76.065 35.6494 75.7893 35.9679 75.2379L49.9899 50.9614L50.843 52.5266C53.4869 57.3771 54.8089 59.8022 56.5994 59.6141C58.39 59.426 59.1786 56.7791 60.7557 51.4853L61.335 49.5405C61.7931 48.003 62.0221 47.2342 62.5862 46.7265C63.1504 46.2188 63.9392 46.0715 65.5167 45.7769L67.5121 45.4041C72.9442 44.3896 75.6602 43.8825 76.0344 42.122C76.4088 40.3617 74.1339 38.794 69.5844 35.6588L67.9131 34.5071C66.5918 33.5964 65.9312 33.1412 65.6224 32.4481C65.3137 31.755 65.4173 30.9596 65.6246 29.3687L65.8866 27.3566C66.5998 21.8791 66.9565 19.1404 65.3974 18.2406Z" fill="white"/>
</svg>
