<svg width="100" height="100" viewBox="0 0 100 100" fill="none" xmlns="http://www.w3.org/2000/svg">
<g clip-path="url(#clip0_243_1385)">
<path d="M43.9574 20.6C45.7763 17.4496 46.6857 15.8744 47.873 15.3458C48.9086 14.8847 50.0913 14.8847 51.1269 15.3458C52.3142 15.8744 53.2237 17.4496 55.0425 20.6L89.4237 80.15C89.9758 81.1063 90.4441 81.9174 90.8249 82.6195C91.6083 84.0644 92.0208 85.0478 92.0293 85.8847C92.0295 85.9023 92.0295 85.9199 92.0293 85.9374C92.0285 86.0154 92.0242 86.0923 92.0162 86.1681C91.8977 87.2955 91.3064 88.3197 90.3892 88.9861C89.3378 89.75 87.5189 89.75 83.8812 89.75H15.1188C11.481 89.75 9.66215 89.75 8.61069 88.9861C7.69356 88.3197 7.10224 87.2955 6.98374 86.1681C6.97558 86.0905 6.97119 86.0118 6.97054 85.9318C6.97043 85.918 6.97043 85.9042 6.97054 85.8903C6.97727 85.0522 7.38989 84.0676 8.17507 82.6195C8.55579 81.9174 9.02409 81.1063 9.57619 80.15L43.9574 20.6Z" fill="#BF5319"/>
<path d="M43.9574 14.6C45.7763 11.4496 46.6857 9.87445 47.873 9.34582C48.9086 8.88473 50.0913 8.88473 51.1269 9.34582C52.3142 9.87444 53.2237 11.4496 55.0425 14.6L89.4237 74.15C91.1359 77.1155 92.0422 78.6853 92.0293 79.9374C92.0285 80.0154 92.0242 80.0923 92.0162 80.1681C91.9177 81.1054 91.4924 81.9713 90.8249 82.6195C90.6894 82.7511 90.544 82.8737 90.3892 82.9861C89.3378 83.75 87.5189 83.75 83.8812 83.75H15.1188C11.481 83.75 9.66215 83.75 8.61069 82.9861C8.45597 82.8737 8.31054 82.7511 8.17507 82.6195C7.50751 81.9712 7.08225 81.1054 6.98374 80.1681C6.97558 80.0905 6.97119 80.0118 6.97054 79.9318C6.96044 78.6806 7.86659 77.1111 9.57619 74.15L43.9574 14.6Z" fill="#BF5319"/>
<path d="M6.97054 85.8903C6.97727 85.0522 7.38989 84.0676 8.17507 82.6195C7.50751 81.9712 7.08225 81.1054 6.98374 80.1681C6.97558 80.0905 6.97119 80.0118 6.97054 79.9318V85.8903Z" fill="#BF5319"/>
<path d="M90.8249 82.6195C91.6083 84.0644 92.0208 85.0478 92.0293 85.8847V79.9374C92.0285 80.0154 92.0242 80.0923 92.0162 80.1681C91.9177 81.1054 91.4924 81.9713 90.8249 82.6195Z" fill="#BF5319"/>
<path d="M43.9574 14.6C45.7763 11.4496 46.6857 9.87444 47.8731 9.34582C48.9087 8.88473 50.0913 8.88473 51.1269 9.34582C52.3143 9.87444 53.2237 11.4496 55.0426 14.6L89.4238 74.15C91.2426 77.3004 92.1521 78.8756 92.0162 80.1681C91.8977 81.2955 91.3064 82.3197 90.3893 82.9861C89.3378 83.75 87.5189 83.75 83.8812 83.75H15.1188C11.4811 83.75 9.66219 83.75 8.61073 82.9861C7.6936 82.3197 7.10228 81.2955 6.98378 80.1681C6.84793 78.8756 7.75736 77.3004 9.57623 74.15L43.9574 14.6Z" fill="#FFBA34"/>
<circle cx="50" cy="73" r="6" fill="#190E30"/>
<path d="M56 34C56 45.598 53.3137 63 50 63C46.6863 63 44 45.598 44 34C44 22.402 46.6863 21 50 21C53.3137 21 56 22.402 56 34Z" fill="#190E30"/>
</g>
<defs>
<clipPath id="clip0_243_1385">
<rect width="100" height="100" fill="white"/>
</clipPath>
</defs>
</svg>
