<svg width="100" height="100" viewBox="0 0 100 100" fill="none" xmlns="http://www.w3.org/2000/svg">
<g clip-path="url(#clip0_33_166)">
<g filter="url(#filter0_d_33_166)">
<path d="M25.3669 78.4926C18.1721 74.6645 14.4836 69.3246 14.9662 60.8001" stroke="#DFE9ED" stroke-width="4" stroke-linecap="round" stroke-linejoin="round"/>
</g>
<g filter="url(#filter1_d_33_166)">
<path d="M61.8535 13.5331C69.0484 17.3612 72.7369 22.7011 72.2543 31.2256" stroke="#DFE9ED" stroke-width="4" stroke-linecap="round" stroke-linejoin="round"/>
</g>
<g filter="url(#filter2_d_33_166)">
<path d="M16.6315 83.4257C12.6828 82.382 10.2742 79.7739 9.53984 74.454" stroke="#DFE9ED" stroke-width="4" stroke-linecap="round" stroke-linejoin="round"/>
</g>
<g filter="url(#filter3_d_33_166)">
<path d="M70.5894 8.59998C74.538 9.64366 76.9467 12.2518 77.681 17.5716" stroke="#DFE9ED" stroke-width="4" stroke-linecap="round" stroke-linejoin="round"/>
</g>
<g filter="url(#filter4_d_33_166)">
<mask id="path-5-outside-1_33_166" maskUnits="userSpaceOnUse" x="1.83158" y="-8.22863" width="99.6218" height="102.55" fill="black">
<rect fill="white" x="1.83158" y="-8.22863" width="99.6218" height="102.55"/>
<path d="M39.2405 50.7812C40.1066 52.2812 39.5926 54.1993 38.0926 55.0653C36.5926 55.9314 34.6745 55.4174 33.8084 53.9174L25.1841 38.9797C24.8571 38.4133 24.6936 38.1301 24.5234 37.9116C23.4242 36.5007 21.5219 35.991 19.8645 36.6633C19.6078 36.7674 19.3246 36.9309 18.7582 37.2579C18.1918 37.5849 17.9086 37.7484 17.6902 37.9186C16.2792 39.0178 15.7695 40.9201 16.4418 42.5776C16.5459 42.8342 16.7094 43.1174 17.0364 43.6838L38.9095 81.569C40.7951 84.835 41.7379 86.468 43.3383 86.8969C44.9387 87.3257 46.5717 86.3829 49.8377 84.4973L75.3471 69.7693C76.7631 68.9518 77.4711 68.5431 77.9554 67.9119C78.4398 67.2806 78.6514 66.491 79.0746 64.9117L85.1162 42.3641C85.2856 41.7319 85.3703 41.4158 85.4044 41.1408C85.6246 39.3661 84.6401 37.6609 82.993 36.9642C82.7378 36.8563 82.4217 36.7716 81.7895 36.6022C81.1573 36.4328 80.8412 36.3481 80.5662 36.3139C78.7915 36.0937 77.0863 37.0783 76.3896 38.7253C76.2816 38.9805 76.197 39.2966 76.0276 39.9288L75.5811 41.5951C74.311 46.3353 73.6759 48.7054 72.436 49.5417C71.3949 50.2439 70.0844 50.4165 68.897 50.0076C67.4829 49.5207 66.2561 47.3957 63.8023 43.1457L49.2079 17.8674C48.8806 17.3006 48.717 17.0172 48.5467 16.7986C47.4475 15.388 45.5455 14.8783 43.8883 15.5504C43.6315 15.6545 43.3481 15.8181 42.7813 16.1454C42.2145 16.4726 41.9311 16.6362 41.7125 16.8066C40.3019 17.9058 39.7922 19.8077 40.4643 21.4649C40.5684 21.7218 40.732 22.0052 41.0593 22.572L52.8198 42.9417C53.6857 44.4415 53.1718 46.3593 51.672 47.2252C50.1722 48.0912 48.2544 47.5773 47.3885 46.0775L32.4915 20.2752C32.1645 19.7088 32.001 19.4256 31.8308 19.2071C30.7316 17.7961 28.8293 17.2864 27.1719 17.9587C26.9152 18.0628 26.632 18.2263 26.0656 18.5533C25.4992 18.8804 25.216 19.0439 24.9975 19.2141C23.5866 20.3133 23.0769 22.2156 23.7492 23.873C23.8533 24.1297 24.0168 24.4129 24.3438 24.9793L39.2405 50.7812Z"/>
</mask>
<path d="M39.2405 50.7812C40.1066 52.2812 39.5926 54.1993 38.0926 55.0653C36.5926 55.9314 34.6745 55.4174 33.8084 53.9174L25.1841 38.9797C24.8571 38.4133 24.6936 38.1301 24.5234 37.9116C23.4242 36.5007 21.5219 35.991 19.8645 36.6633C19.6078 36.7674 19.3246 36.9309 18.7582 37.2579C18.1918 37.5849 17.9086 37.7484 17.6902 37.9186C16.2792 39.0178 15.7695 40.9201 16.4418 42.5776C16.5459 42.8342 16.7094 43.1174 17.0364 43.6838L38.9095 81.569C40.7951 84.835 41.7379 86.468 43.3383 86.8969C44.9387 87.3257 46.5717 86.3829 49.8377 84.4973L75.3471 69.7693C76.7631 68.9518 77.4711 68.5431 77.9554 67.9119C78.4398 67.2806 78.6514 66.491 79.0746 64.9117L85.1162 42.3641C85.2856 41.7319 85.3703 41.4158 85.4044 41.1408C85.6246 39.3661 84.6401 37.6609 82.993 36.9642C82.7378 36.8563 82.4217 36.7716 81.7895 36.6022C81.1573 36.4328 80.8412 36.3481 80.5662 36.3139C78.7915 36.0937 77.0863 37.0783 76.3896 38.7253C76.2816 38.9805 76.197 39.2966 76.0276 39.9288L75.5811 41.5951C74.311 46.3353 73.6759 48.7054 72.436 49.5417C71.3949 50.2439 70.0844 50.4165 68.897 50.0076C67.4829 49.5207 66.2561 47.3957 63.8023 43.1457L49.2079 17.8674C48.8806 17.3006 48.717 17.0172 48.5467 16.7986C47.4475 15.388 45.5455 14.8783 43.8883 15.5504C43.6315 15.6545 43.3481 15.8181 42.7813 16.1454C42.2145 16.4726 41.9311 16.6362 41.7125 16.8066C40.3019 17.9058 39.7922 19.8077 40.4643 21.4649C40.5684 21.7218 40.732 22.0052 41.0593 22.572L52.8198 42.9417C53.6857 44.4415 53.1718 46.3593 51.672 47.2252C50.1722 48.0912 48.2544 47.5773 47.3885 46.0775L32.4915 20.2752C32.1645 19.7088 32.001 19.4256 31.8308 19.2071C30.7316 17.7961 28.8293 17.2864 27.1719 17.9587C26.9152 18.0628 26.632 18.2263 26.0656 18.5533C25.4992 18.8804 25.216 19.0439 24.9975 19.2141C23.5866 20.3133 23.0769 22.2156 23.7492 23.873C23.8533 24.1297 24.0168 24.4129 24.3438 24.9793L39.2405 50.7812Z" fill="#FFBA34"/>
<path d="M23.7492 23.873L27.4559 22.3695L23.7492 23.873ZM31.8308 19.2071L34.9863 16.7488L31.8308 19.2071ZM27.1719 17.9587L28.6754 21.6654L27.1719 17.9587ZM41.7125 16.8066L44.1711 19.9618L41.7125 16.8066ZM40.4643 21.4649L44.1711 19.9618L40.4643 21.4649ZM48.5467 16.7986L45.3915 19.2572L48.5467 16.7986ZM43.8883 15.5504L42.3851 11.8435L43.8883 15.5504ZM72.436 49.5417L74.6728 52.8578L72.436 49.5417ZM68.897 50.0076L67.5947 53.7897L68.897 50.0076ZM80.5662 36.3139L81.0587 32.3444L80.5662 36.3139ZM76.0276 39.9288L79.8913 40.9641L76.0276 39.9288ZM76.3896 38.7253L80.0736 40.2835L76.3896 38.7253ZM85.1162 42.3641L88.9799 43.3994L85.1162 42.3641ZM85.4044 41.1408L89.3739 41.6333L85.4044 41.1408ZM82.993 36.9642L81.4348 40.6482L82.993 36.9642ZM79.0746 64.9117L82.9383 65.947L79.0746 64.9117ZM77.9554 67.9119L74.782 65.4768L77.9554 67.9119ZM43.3383 86.8969L44.3736 83.0331L43.3383 86.8969ZM17.6902 37.9186L15.2318 34.7632L17.6902 37.9186ZM16.4418 42.5776L20.1485 41.0741L16.4418 42.5776ZM24.5234 37.9116L27.6789 35.4533L24.5234 37.9116ZM19.8645 36.6633L21.368 40.3699L19.8645 36.6633ZM33.8084 53.9174L30.3443 55.9174L21.72 40.9797L25.1841 38.9797L28.6483 36.9797L37.2725 51.9174L33.8084 53.9174ZM17.0364 43.6838L20.5005 41.6838L42.3736 79.569L38.9095 81.569L35.4453 83.569L13.5723 45.6838L17.0364 43.6838ZM49.8377 84.4973L47.8377 81.0331L73.3471 66.3052L75.3471 69.7693L77.3471 73.2334L51.8377 87.9614L49.8377 84.4973ZM79.0746 64.9117L75.2108 63.8764L81.2525 41.3288L85.1162 42.3641L88.9799 43.3994L82.9383 65.947L79.0746 64.9117ZM76.0276 39.9288L79.8913 40.9641L79.4448 42.6303L75.5811 41.5951L71.7174 40.5598L72.1639 38.8935L76.0276 39.9288ZM63.8023 43.1457L60.3382 45.1457L45.7438 19.8674L49.2079 17.8674L52.672 15.8674L67.2665 41.1457L63.8023 43.1457ZM41.0593 22.572L44.5234 20.572L56.2839 40.9417L52.8198 42.9417L49.3557 44.9417L37.5952 24.572L41.0593 22.572ZM47.3885 46.0775L43.9244 48.0775L29.0274 22.2752L32.4915 20.2752L35.9556 18.2752L50.8526 44.0775L47.3885 46.0775ZM24.3438 24.9793L27.8079 22.9793L42.7046 48.7812L39.2405 50.7812L35.7764 52.7812L20.8797 26.9793L24.3438 24.9793ZM26.0656 18.5533L28.0656 22.0174C27.7659 22.1905 27.6022 22.2853 27.4841 22.3574C27.3749 22.4239 27.3941 22.4176 27.4559 22.3695L24.9975 19.2141L22.5392 16.0586C23.0312 15.6753 23.6156 15.3491 24.0656 15.0892L26.0656 18.5533ZM24.3438 24.9793L20.8797 26.9793C20.6199 26.5292 20.2769 25.9545 20.0425 25.3766L23.7492 23.873L27.4559 22.3695C27.4264 22.2969 27.413 22.2819 27.4742 22.3941C27.5405 22.5156 27.6349 22.6795 27.8079 22.9793L24.3438 24.9793ZM24.9975 19.2141L27.4559 22.3695L23.7492 23.873L20.0425 25.3766C18.6979 22.0617 19.7174 18.2571 22.5392 16.0586L24.9975 19.2141ZM32.4915 20.2752L29.0274 22.2752C28.8544 21.9754 28.7596 21.8118 28.6875 21.6936C28.621 21.5845 28.6273 21.6036 28.6754 21.6654L31.8308 19.2071L34.9863 16.7488C35.3696 17.2408 35.6958 17.8251 35.9556 18.2752L32.4915 20.2752ZM26.0656 18.5533L24.0656 15.0892C24.5157 14.8294 25.0904 14.4865 25.6683 14.2521L27.1719 17.9587L28.6754 21.6654C28.7479 21.636 28.763 21.6225 28.6508 21.6838C28.5293 21.7501 28.3653 21.8444 28.0656 22.0174L26.0656 18.5533ZM31.8308 19.2071L28.6754 21.6654L27.1719 17.9587L25.6683 14.2521C28.9832 12.9075 32.7878 13.9269 34.9863 16.7488L31.8308 19.2071ZM51.672 47.2252L53.672 50.6893C50.259 52.6598 45.8949 51.4905 43.9244 48.0775L47.3885 46.0775L50.8526 44.0775C50.614 43.6641 50.0854 43.5225 49.672 43.7611L51.672 47.2252ZM52.8198 42.9417L56.2839 40.9417C58.2544 44.3547 57.085 48.7189 53.672 50.6893L51.672 47.2252L49.672 43.7611C49.2586 43.9998 49.117 44.5284 49.3557 44.9417L52.8198 42.9417ZM42.7813 16.1454L44.7813 19.6095C44.4814 19.7826 44.3176 19.8775 44.1993 19.9496C44.0901 20.0162 44.1093 20.0099 44.1711 19.9618L41.7125 16.8066L39.2539 13.6514C39.7462 13.2678 40.3309 12.9413 40.7813 12.6813L42.7813 16.1454ZM41.0593 22.572L37.5952 24.572C37.3352 24.1216 36.992 23.5465 36.7575 22.9681L40.4643 21.4649L44.1711 19.9618C44.1416 19.8892 44.1282 19.8741 44.1895 19.9864C44.2558 20.108 44.3502 20.272 44.5234 20.572L41.0593 22.572ZM41.7125 16.8066L44.1711 19.9618L40.4643 21.4649L36.7575 22.9681C35.4134 19.6537 36.4326 15.8497 39.2539 13.6514L41.7125 16.8066ZM49.2079 17.8674L45.7438 19.8674C45.5706 19.5674 45.4757 19.4037 45.4036 19.2854C45.337 19.1762 45.3433 19.1954 45.3915 19.2572L48.5467 16.7986L51.7019 14.34C52.0855 14.8323 52.412 15.417 52.672 15.8674L49.2079 17.8674ZM42.7813 16.1454L40.7813 12.6813C41.2317 12.4212 41.8067 12.0781 42.3851 11.8435L43.8883 15.5504L45.3915 19.2572C45.4641 19.2277 45.4791 19.2143 45.3669 19.2756C45.2453 19.3419 45.0812 19.4363 44.7813 19.6095L42.7813 16.1454ZM48.5467 16.7986L45.3915 19.2572L43.8883 15.5504L42.3851 11.8435C45.6996 10.4995 49.5035 11.5187 51.7019 14.34L48.5467 16.7986ZM75.5811 41.5951L79.4448 42.6303C78.8305 44.923 78.3021 46.9098 77.753 48.4085C77.2498 49.782 76.427 51.6746 74.6728 52.8578L72.436 49.5417L70.1993 46.2255C69.6849 46.5724 69.7996 46.8619 70.2414 45.6562C70.6373 44.5756 71.0616 43.0073 71.7174 40.5598L75.5811 41.5951ZM63.8023 43.1457L67.2665 41.1457C68.5334 43.3401 69.3491 44.7452 70.0112 45.6865C70.75 46.7367 70.7859 46.4275 70.1993 46.2255L68.897 50.0076L67.5947 53.7897C65.594 53.1008 64.3095 51.4856 63.4679 50.2892C62.5496 48.9837 61.525 47.2013 60.3382 45.1457L63.8023 43.1457ZM72.436 49.5417L74.6728 52.8578C72.5905 54.2623 69.9695 54.6074 67.5947 53.7897L68.897 50.0076L70.1993 46.2255L72.436 49.5417ZM81.7895 36.6022L80.7542 40.4659C80.4197 40.3762 80.2368 40.3275 80.1022 40.2949C79.9778 40.2648 79.9959 40.2739 80.0736 40.2835L80.5662 36.3139L81.0587 32.3444C81.6781 32.4212 82.3224 32.6039 82.8248 32.7385L81.7895 36.6022ZM76.0276 39.9288L72.1639 38.8935C72.2985 38.3912 72.4625 37.7419 72.7056 37.1671L76.3896 38.7253L80.0736 40.2835C80.1041 40.2113 80.1053 40.1912 80.0692 40.3139C80.0301 40.4468 79.9809 40.6296 79.8913 40.9641L76.0276 39.9288ZM80.5662 36.3139L80.0736 40.2835L76.3896 38.7253L72.7056 37.1671C74.0989 33.873 77.5093 31.904 81.0587 32.3444L80.5662 36.3139ZM85.1162 42.3641L81.2525 41.3288C81.3421 40.9943 81.3908 40.8114 81.4234 40.6768C81.4535 40.5525 81.4445 40.5705 81.4348 40.6482L85.4044 41.1408L89.3739 41.6333C89.2971 42.2527 89.1145 42.8971 88.9799 43.3994L85.1162 42.3641ZM81.7895 36.6022L82.8248 32.7385C83.3271 32.8731 83.9764 33.0371 84.5513 33.2802L82.993 36.9642L81.4348 40.6482C81.507 40.6788 81.5271 40.6799 81.4044 40.6438C81.2715 40.6048 81.0888 40.5555 80.7542 40.4659L81.7895 36.6022ZM85.4044 41.1408L81.4348 40.6482L82.993 36.9642L84.5513 33.2802C87.8453 34.6735 89.8143 38.084 89.3739 41.6333L85.4044 41.1408ZM75.3471 69.7693L73.3471 66.3052C74.1059 65.8672 74.4834 65.6462 74.7438 65.4682C74.9495 65.3277 74.884 65.3439 74.782 65.4768L77.9554 67.9119L81.1289 70.3469C80.0475 71.7561 78.4804 72.5791 77.3471 73.2334L75.3471 69.7693ZM79.0746 64.9117L82.9383 65.947C82.5996 67.211 82.2102 68.9377 81.1289 70.3469L77.9554 67.9119L74.782 65.4768C74.68 65.6097 74.6813 65.6772 74.7638 65.4421C74.8683 65.1445 74.9841 64.7227 75.2108 63.8764L79.0746 64.9117ZM38.9095 81.569L42.3736 79.569C43.3729 81.3 43.9286 82.2454 44.3975 82.8531C44.7956 83.3689 44.7578 83.1361 44.3736 83.0331L43.3383 86.8969L42.303 90.7606C40.3184 90.2288 39.009 88.965 38.0641 87.7406C37.1902 86.6081 36.3316 85.1041 35.4453 83.569L38.9095 81.569ZM49.8377 84.4973L51.8377 87.9614C50.3026 88.8476 48.8071 89.7209 47.484 90.2647C46.0535 90.8526 44.2876 91.2923 42.303 90.7606L43.3383 86.8969L44.3736 83.0331C43.9893 82.9302 43.8402 83.1129 44.4428 82.8653C45.1528 82.5735 46.1067 82.0325 47.8377 81.0331L49.8377 84.4973ZM18.7582 37.2579L20.7582 40.722C20.4585 40.895 20.2948 40.9899 20.1767 41.0619C20.0675 41.1285 20.0867 41.1222 20.1485 41.0741L17.6902 37.9186L15.2318 34.7632C15.7239 34.3799 16.3082 34.0536 16.7582 33.7938L18.7582 37.2579ZM17.0364 43.6838L13.5723 45.6838C13.3125 45.2338 12.9696 44.6591 12.7351 44.0811L16.4418 42.5776L20.1485 41.0741C20.119 41.0015 20.1056 40.9865 20.1668 41.0986C20.2331 41.2202 20.3275 41.3841 20.5005 41.6838L17.0364 43.6838ZM17.6902 37.9186L20.1485 41.0741L16.4418 42.5776L12.7351 44.0811C11.3905 40.7663 12.41 36.9616 15.2318 34.7632L17.6902 37.9186ZM25.1841 38.9797L21.72 40.9797C21.547 40.68 21.4522 40.5163 21.3801 40.3981C21.3136 40.289 21.3199 40.3082 21.368 40.3699L24.5234 37.9116L27.6789 35.4533C28.0622 35.9453 28.3884 36.5297 28.6483 36.9797L25.1841 38.9797ZM18.7582 37.2579L16.7582 33.7938C17.2083 33.534 17.783 33.191 18.3609 32.9566L19.8645 36.6633L21.368 40.3699C21.4406 40.3405 21.4556 40.3271 21.3434 40.3883C21.2219 40.4546 21.0579 40.549 20.7582 40.722L18.7582 37.2579ZM24.5234 37.9116L21.368 40.3699L19.8645 36.6633L18.3609 32.9566C21.6758 31.612 25.4804 32.6315 27.6789 35.4533L24.5234 37.9116ZM38.0926 55.0653L40.0926 58.5294C36.6794 60.5 32.3149 59.3306 30.3443 55.9174L33.8084 53.9174L37.2725 51.9174C37.034 51.5043 36.5057 51.3627 36.0926 51.6012L38.0926 55.0653ZM38.0926 55.0653L36.0926 51.6012C35.6795 51.8398 35.5379 52.368 35.7764 52.7812L39.2405 50.7812L42.7046 48.7812C44.6752 52.1944 43.5058 56.5588 40.0926 58.5294L38.0926 55.0653Z" fill="#572217" mask="url(#path-5-outside-1_33_166)"/>
</g>
<path d="M38.2 66.2L64.3 53.6C57.6408 59.5192 51.7693 67.5774 48.2434 77" stroke="#E27C23" stroke-width="4" stroke-linecap="round" stroke-linejoin="round"/>
</g>
<defs>
<filter id="filter0_d_33_166" x="12.9242" y="58.8" width="18.4431" height="25.6929" filterUnits="userSpaceOnUse" color-interpolation-filters="sRGB">
<feFlood flood-opacity="0" result="BackgroundImageFix"/>
<feColorMatrix in="SourceAlpha" type="matrix" values="0 0 0 0 0 0 0 0 0 0 0 0 0 0 0 0 0 0 127 0" result="hardAlpha"/>
<feOffset dx="4" dy="4"/>
<feComposite in2="hardAlpha" operator="out"/>
<feColorMatrix type="matrix" values="0 0 0 0 0.0705882 0 0 0 0 0.0666667 0 0 0 0 0.141176 0 0 0 1 0"/>
<feBlend mode="normal" in2="BackgroundImageFix" result="effect1_dropShadow_33_166"/>
<feBlend mode="normal" in="SourceGraphic" in2="effect1_dropShadow_33_166" result="shape"/>
</filter>
<filter id="filter1_d_33_166" x="59.8531" y="11.5327" width="18.4431" height="25.6929" filterUnits="userSpaceOnUse" color-interpolation-filters="sRGB">
<feFlood flood-opacity="0" result="BackgroundImageFix"/>
<feColorMatrix in="SourceAlpha" type="matrix" values="0 0 0 0 0 0 0 0 0 0 0 0 0 0 0 0 0 0 127 0" result="hardAlpha"/>
<feOffset dx="4" dy="4"/>
<feComposite in2="hardAlpha" operator="out"/>
<feColorMatrix type="matrix" values="0 0 0 0 0.0705882 0 0 0 0 0.0666667 0 0 0 0 0.141176 0 0 0 1 0"/>
<feBlend mode="normal" in2="BackgroundImageFix" result="effect1_dropShadow_33_166"/>
<feBlend mode="normal" in="SourceGraphic" in2="effect1_dropShadow_33_166" result="shape"/>
</filter>
<filter id="filter2_d_33_166" x="7.53955" y="72.4537" width="15.0924" height="16.9724" filterUnits="userSpaceOnUse" color-interpolation-filters="sRGB">
<feFlood flood-opacity="0" result="BackgroundImageFix"/>
<feColorMatrix in="SourceAlpha" type="matrix" values="0 0 0 0 0 0 0 0 0 0 0 0 0 0 0 0 0 0 127 0" result="hardAlpha"/>
<feOffset dx="4" dy="4"/>
<feComposite in2="hardAlpha" operator="out"/>
<feColorMatrix type="matrix" values="0 0 0 0 0.0705882 0 0 0 0 0.0666667 0 0 0 0 0.141176 0 0 0 1 0"/>
<feBlend mode="normal" in2="BackgroundImageFix" result="effect1_dropShadow_33_166"/>
<feBlend mode="normal" in="SourceGraphic" in2="effect1_dropShadow_33_166" result="shape"/>
</filter>
<filter id="filter3_d_33_166" x="68.5889" y="6.59949" width="15.0924" height="16.9724" filterUnits="userSpaceOnUse" color-interpolation-filters="sRGB">
<feFlood flood-opacity="0" result="BackgroundImageFix"/>
<feColorMatrix in="SourceAlpha" type="matrix" values="0 0 0 0 0 0 0 0 0 0 0 0 0 0 0 0 0 0 127 0" result="hardAlpha"/>
<feOffset dx="4" dy="4"/>
<feComposite in2="hardAlpha" operator="out"/>
<feColorMatrix type="matrix" values="0 0 0 0 0.0705882 0 0 0 0 0.0666667 0 0 0 0 0.141176 0 0 0 1 0"/>
<feBlend mode="normal" in2="BackgroundImageFix" result="effect1_dropShadow_33_166"/>
<feBlend mode="normal" in="SourceGraphic" in2="effect1_dropShadow_33_166" result="shape"/>
</filter>
<filter id="filter4_d_33_166" x="12.1479" y="11.2567" width="81.2872" height="83.743" filterUnits="userSpaceOnUse" color-interpolation-filters="sRGB">
<feFlood flood-opacity="0" result="BackgroundImageFix"/>
<feColorMatrix in="SourceAlpha" type="matrix" values="0 0 0 0 0 0 0 0 0 0 0 0 0 0 0 0 0 0 127 0" result="hardAlpha"/>
<feOffset dx="4" dy="4"/>
<feComposite in2="hardAlpha" operator="out"/>
<feColorMatrix type="matrix" values="0 0 0 0 0.0705882 0 0 0 0 0.0666667 0 0 0 0 0.141176 0 0 0 1 0"/>
<feBlend mode="normal" in2="BackgroundImageFix" result="effect1_dropShadow_33_166"/>
<feBlend mode="normal" in="SourceGraphic" in2="effect1_dropShadow_33_166" result="shape"/>
</filter>
<clipPath id="clip0_33_166">
<rect width="100" height="100" fill="white"/>
</clipPath>
</defs>
</svg>
