<svg width="100" height="100" viewBox="0 0 100 100" fill="none" xmlns="http://www.w3.org/2000/svg">
<g clip-path="url(#clip0_267_63)">
<g filter="url(#filter0_d_267_63)">
<path d="M25.7672 83.6924C18.5724 79.8643 14.8838 74.5244 15.3665 65.9999" stroke="#C3DAE9" stroke-width="4" stroke-linecap="round" stroke-linejoin="round"/>
</g>
<g filter="url(#filter1_d_267_63)">
<path d="M17.0316 88.6255C13.0829 87.5818 10.6743 84.9737 9.93998 79.6539" stroke="#C3DAE9" stroke-width="4" stroke-linecap="round" stroke-linejoin="round"/>
</g>
<g filter="url(#filter2_d_267_63)">
<path d="M64.6538 11.9331C71.8487 15.7612 75.5372 21.1011 75.0545 29.6256" stroke="#C3DAE9" stroke-width="4" stroke-linecap="round" stroke-linejoin="round"/>
</g>
<g filter="url(#filter3_d_267_63)">
<path d="M73.3896 7C77.3383 8.04369 79.747 10.6518 80.4813 15.9716" stroke="#C3DAE9" stroke-width="4" stroke-linecap="round" stroke-linejoin="round"/>
</g>
<mask id="path-5-outside-1_267_63" maskUnits="userSpaceOnUse" x="0.55665" y="-10.6147" width="109.318" height="113.344" fill="black">
<rect fill="white" x="0.55665" y="-10.6147" width="109.318" height="113.344"/>
<path d="M34.7812 18.8284C40.2557 27.3087 45.4496 35.989 50.197 44.8516C50.8152 46.0056 52.2647 46.4778 53.4975 46.0373C54.9995 45.5006 55.7051 43.7956 54.9609 42.3848C52.375 37.4822 49.8105 33.351 46.1052 27.6941L42.9281 22.8787L42.764 22.6159C41.1478 19.8845 41.9408 16.3357 44.6166 14.5629C47.2925 12.7903 50.8694 13.4442 52.7543 15.9978L52.9318 16.2505L54.6372 18.8293C62.4793 30.7154 65.8005 36.2619 72.308 50.901C72.8751 51.816 74.2853 51.7271 74.6282 50.7066C75.9414 46.7976 76.9628 42.8191 77.6151 38.9095C78.1605 35.6412 81.2533 33.4342 84.5216 33.9793C87.7898 34.5248 89.9973 37.6162 89.4521 40.8845C87.5145 52.4976 82.866 64.3919 76.8863 74.1904C76.7924 74.3442 76.7455 74.4211 76.709 74.4884C76.6725 74.5556 76.5981 74.7113 76.4491 75.0228C76.4383 75.0455 76.4273 75.0682 76.4162 75.0907C72.2833 83.4496 59.3292 90.331 50.8828 89.8324C44.742 89.4698 35.0752 81.3564 31.731 72.8886C31.6217 72.6119 31.5671 72.4735 31.5263 72.3868C31.4855 72.3002 31.2246 71.827 30.7029 70.8805C30.5782 70.6543 30.4667 70.4174 30.37 70.1704C26.3827 59.9807 23.2987 53.6793 17.4408 44.708L16.231 42.8761L16.0665 42.6147C14.4409 39.8888 15.2217 36.3369 17.8915 34.5551C20.5617 32.7731 24.1416 33.4152 26.0351 35.9629L26.2126 36.2156L27.5197 38.1944C31.0392 43.5887 33.6622 48.1572 36.0289 53.0147C36.6301 54.2487 38.2279 54.605 39.3135 53.7648C40.122 53.1389 40.4147 52.0097 39.9339 51.1074C35.2852 42.3833 30.1555 33.7889 24.6995 25.337L29.7408 22.0825L34.7812 18.8284ZM26.4867 17.042C29.2706 15.245 32.9839 16.0448 34.7812 18.8284L24.6995 25.337C22.9026 22.5531 23.703 18.8392 26.4867 17.042Z"/>
</mask>
<path d="M34.7812 18.8284C40.2557 27.3087 45.4496 35.989 50.197 44.8516C50.8152 46.0056 52.2647 46.4778 53.4975 46.0373C54.9995 45.5006 55.7051 43.7956 54.9609 42.3848C52.375 37.4822 49.8105 33.351 46.1052 27.6941L42.9281 22.8787L42.764 22.6159C41.1478 19.8845 41.9408 16.3357 44.6166 14.5629C47.2925 12.7903 50.8694 13.4442 52.7543 15.9978L52.9318 16.2505L54.6372 18.8293C62.4793 30.7154 65.8005 36.2619 72.308 50.901C72.8751 51.816 74.2853 51.7271 74.6282 50.7066C75.9414 46.7976 76.9628 42.8191 77.6151 38.9095C78.1605 35.6412 81.2533 33.4342 84.5216 33.9793C87.7898 34.5248 89.9973 37.6162 89.4521 40.8845C87.5145 52.4976 82.866 64.3919 76.8863 74.1904C76.7924 74.3442 76.7455 74.4211 76.709 74.4884C76.6725 74.5556 76.5981 74.7113 76.4491 75.0228C76.4383 75.0455 76.4273 75.0682 76.4162 75.0907C72.2833 83.4496 59.3292 90.331 50.8828 89.8324C44.742 89.4698 35.0752 81.3564 31.731 72.8886C31.6217 72.6119 31.5671 72.4735 31.5263 72.3868C31.4855 72.3002 31.2246 71.827 30.7029 70.8805C30.5782 70.6543 30.4667 70.4174 30.37 70.1704C26.3827 59.9807 23.2987 53.6793 17.4408 44.708L16.231 42.8761L16.0665 42.6147C14.4409 39.8888 15.2217 36.3369 17.8915 34.5551C20.5617 32.7731 24.1416 33.4152 26.0351 35.9629L26.2126 36.2156L27.5197 38.1944C31.0392 43.5887 33.6622 48.1572 36.0289 53.0147C36.6301 54.2487 38.2279 54.605 39.3135 53.7648C40.122 53.1389 40.4147 52.0097 39.9339 51.1074C35.2852 42.3833 30.1555 33.7889 24.6995 25.337L29.7408 22.0825L34.7812 18.8284ZM26.4867 17.042C29.2706 15.245 32.9839 16.0448 34.7812 18.8284L24.6995 25.337C22.9026 22.5531 23.703 18.8392 26.4867 17.042Z" fill="#FFBA34"/>
<path d="M34.7812 18.8284L38.1418 16.659L38.1416 16.6587L34.7812 18.8284ZM46.1052 27.6941L49.4513 25.5023L49.444 25.4912L46.1052 27.6941ZM42.9281 22.8787L39.5354 24.9976L39.5619 25.0399L39.5893 25.0815L42.9281 22.8787ZM42.764 22.6159L39.3215 24.6529L39.3459 24.6942L39.3714 24.7349L42.764 22.6159ZM44.6166 14.5629L42.4076 11.2282L42.4073 11.2284L44.6166 14.5629ZM52.7543 15.9978L56.0277 13.6989L56.0006 13.6603L55.9726 13.6223L52.7543 15.9978ZM52.9318 16.2505L56.2682 14.0441L56.2374 13.9975L56.2052 13.9517L52.9318 16.2505ZM54.6372 18.8293L57.976 16.6264L57.9736 16.6229L54.6372 18.8293ZM77.6151 38.9095L73.6697 38.251L73.6696 38.2512L77.6151 38.9095ZM84.5216 33.9793L85.1801 30.0339L85.1796 30.0338L84.5216 33.9793ZM89.4521 40.8845L93.3976 41.5427L93.3976 41.5426L89.4521 40.8845ZM76.4162 75.0907L80.0018 76.8635L80.0018 76.8635L76.4162 75.0907ZM50.8828 89.8324L50.6471 93.8254L50.6471 93.8254L50.8828 89.8324ZM30.37 70.1704L26.645 71.628L26.645 71.628L30.37 70.1704ZM17.4408 44.708L20.7901 42.5211L20.7843 42.5123L20.7786 42.5036L17.4408 44.708ZM16.231 42.8761L12.8452 45.0061L12.8688 45.0436L12.8932 45.0805L16.231 42.8761ZM16.0665 42.6147L12.631 44.6635L12.6554 44.7044L12.6808 44.7448L16.0665 42.6147ZM17.8915 34.5551L15.6711 31.2279L15.671 31.228L17.8915 34.5551ZM26.0351 35.9629L29.3085 33.664L29.2776 33.62L29.2456 33.5769L26.0351 35.9629ZM26.2126 36.2156L29.5502 34.011L29.5188 33.9634L29.486 33.9168L26.2126 36.2156ZM27.5197 38.1944L30.8697 36.0086L30.8635 35.9992L30.8573 35.9897L27.5197 38.1944ZM24.6995 25.337L21.3387 27.5062L21.3389 27.5064L24.6995 25.337ZM29.7408 22.0825L31.9103 25.443L31.9103 25.443L29.7408 22.0825ZM26.4867 17.042L24.3174 13.6813L24.3172 13.6815L26.4867 17.042ZM39.9339 51.1074L36.4038 52.9884L39.9339 51.1074ZM36.0289 53.0147L32.433 54.7667L36.0289 53.0147ZM31.5263 72.3868L35.1453 70.6832L31.5263 72.3868ZM76.8863 74.1904L80.3007 76.2741L76.8863 74.1904ZM76.4491 75.0228L72.8404 73.2974L76.4491 75.0228ZM76.709 74.4884L73.1929 72.5813L76.709 74.4884ZM54.9609 42.3848L58.4989 40.5186L54.9609 42.3848ZM74.6282 50.7066L70.8364 49.4327L74.6282 50.7066ZM50.197 44.8516L46.671 46.7404L50.197 44.8516ZM34.7812 18.8284L31.4206 20.9978C36.8464 29.4028 41.9831 37.9889 46.671 46.7404L50.197 44.8516L53.723 42.9629C48.9161 33.9891 43.6649 25.2147 38.1418 16.659L34.7812 18.8284ZM54.9609 42.3848L58.4989 40.5186C55.8267 35.4525 53.1834 31.2001 49.4513 25.5023L46.1052 27.6941L42.7591 29.8858C46.4376 35.5018 48.9233 39.5119 51.4229 44.2509L54.9609 42.3848ZM46.1052 27.6941L49.444 25.4912L46.2669 20.6758L42.9281 22.8787L39.5893 25.0815L42.7664 29.8969L46.1052 27.6941ZM42.9281 22.8787L46.3208 20.7597L46.1567 20.497L42.764 22.6159L39.3714 24.7349L39.5354 24.9976L42.9281 22.8787ZM42.764 22.6159L46.2065 20.579C45.6695 19.6714 45.9349 18.4877 46.8258 17.8975L44.6166 14.5629L42.4073 11.2284C37.9467 14.1837 36.6261 20.0976 39.3215 24.6529L42.764 22.6159ZM44.6166 14.5629L46.8255 17.8976C47.7163 17.3076 48.9097 17.5246 49.5361 18.3733L52.7543 15.9978L55.9726 13.6223C52.8292 9.36385 46.8687 8.27306 42.4076 11.2282L44.6166 14.5629ZM52.7543 15.9978L49.4809 18.2967L49.6584 18.5494L52.9318 16.2505L56.2052 13.9517L56.0277 13.6989L52.7543 15.9978ZM52.9318 16.2505L49.5954 18.4569L51.3007 21.0357L54.6372 18.8293L57.9736 16.6229L56.2682 14.0441L52.9318 16.2505ZM54.6372 18.8293L51.2984 21.0321C59.0448 32.7732 62.2517 38.126 68.6529 52.5258L72.308 50.901L75.9632 49.2762C69.3492 34.3977 65.9137 28.6576 57.976 16.6264L54.6372 18.8293ZM74.6282 50.7066L78.4199 51.9805C79.7935 47.892 80.8699 43.7074 81.5605 39.5678L77.6151 38.9095L73.6696 38.2512C73.0557 41.9308 72.0894 45.7033 70.8364 49.4327L74.6282 50.7066ZM77.6151 38.9095L81.5605 39.5679C81.7421 38.4799 82.7729 37.7429 83.8636 37.9248L84.5216 33.9793L85.1796 30.0338C79.7338 29.1256 74.579 32.8026 73.6697 38.251L77.6151 38.9095ZM84.5216 33.9793L83.863 37.9247C84.9526 38.1066 85.6883 39.1371 85.5066 40.2263L89.4521 40.8845L93.3976 41.5426C94.3062 36.0952 90.627 30.943 85.1801 30.0339L84.5216 33.9793ZM89.4521 40.8845L85.5067 40.2262C83.6596 51.2964 79.2059 62.7107 73.4719 72.1067L76.8863 74.1904L80.3007 76.2741C86.526 66.073 91.3694 53.6988 93.3976 41.5427L89.4521 40.8845ZM76.4491 75.0228L72.8404 73.2974C72.8367 73.3052 72.8334 73.3119 72.8305 73.3178L76.4162 75.0907L80.0018 76.8635C80.0212 76.8244 80.0399 76.7859 80.0579 76.7482L76.4491 75.0228ZM76.4162 75.0907L72.8305 73.3178C71.2491 76.5161 67.7193 79.8173 63.3078 82.2958C58.8899 84.7779 54.3132 86.0279 51.1185 85.8393L50.8828 89.8324L50.6471 93.8254C55.8988 94.1354 62.0223 92.1941 67.2263 89.2704C72.4367 86.3431 77.4503 82.0241 80.0018 76.8635L76.4162 75.0907ZM50.8828 89.8324L51.1185 85.8393C49.3716 85.7362 46.2544 84.313 42.8827 81.3814C39.6355 78.558 36.8321 74.9153 35.4514 71.4194L31.731 72.8886L28.0107 74.3579C29.9742 79.3298 33.6762 83.9777 37.6336 87.4185C41.4665 90.7512 46.2532 93.566 50.6471 93.8254L50.8828 89.8324ZM30.7029 70.8805L34.2058 68.9494C34.1646 68.8746 34.1275 68.7958 34.095 68.7128L30.37 70.1704L26.645 71.628C26.8059 72.039 26.9917 72.434 27.1999 72.8117L30.7029 70.8805ZM30.37 70.1704L34.095 68.7128C30.0257 58.3134 26.8225 51.7596 20.7901 42.5211L17.4408 44.708L14.0916 46.8949C19.775 55.5989 22.7398 61.648 26.645 71.628L30.37 70.1704ZM17.4408 44.708L20.7786 42.5036L19.5687 40.6717L16.231 42.8761L12.8932 45.0805L14.1031 46.9124L17.4408 44.708ZM16.231 42.8761L19.6167 40.7461L19.4522 40.4847L16.0665 42.6147L12.6808 44.7448L12.8452 45.0061L16.231 42.8761ZM16.0665 42.6147L19.502 40.566C18.9618 39.6601 19.2233 38.4753 20.1121 37.8821L17.8915 34.5551L15.671 31.228C11.2202 34.1986 9.92002 40.1175 12.631 44.6635L16.0665 42.6147ZM17.8915 34.5551L20.1119 37.8822C21.0008 37.289 22.1953 37.5021 22.8247 38.3489L26.0351 35.9629L29.2456 33.5769C26.088 29.3282 20.1226 28.2571 15.6711 31.2279L17.8915 34.5551ZM26.0351 35.9629L22.7617 38.2617L22.9392 38.5145L26.2126 36.2156L29.486 33.9168L29.3085 33.664L26.0351 35.9629ZM26.2126 36.2156L22.875 38.4203L24.1821 40.399L27.5197 38.1944L30.8573 35.9897L29.5502 34.011L26.2126 36.2156ZM27.5197 38.1944L24.1697 40.3801C27.6149 45.6606 30.1513 50.0839 32.433 54.7667L36.0289 53.0147L39.6248 51.2626C37.173 46.2306 34.4635 41.5168 30.8697 36.0086L27.5197 38.1944ZM39.9339 51.1074L43.464 49.2263C38.7543 40.3878 33.566 31.6967 28.0601 23.1676L24.6995 25.337L21.3389 27.5064C26.7451 35.8811 31.816 44.3787 36.4038 52.9884L39.9339 51.1074ZM24.6995 25.337L26.8689 28.6976L31.9103 25.443L29.7408 22.0825L27.5713 18.7219L22.53 21.9764L24.6995 25.337ZM29.7408 22.0825L31.9103 25.443L36.9507 22.189L34.7812 18.8284L32.6117 15.4679L27.5713 18.7219L29.7408 22.0825ZM26.4867 17.042L28.6561 20.4027C29.584 19.8037 30.8217 20.0703 31.4208 20.9981L34.7812 18.8284L38.1416 16.6587C35.1462 12.0194 28.9572 10.6864 24.3174 13.6813L26.4867 17.042ZM34.7812 18.8284L32.6117 15.4679L22.53 21.9764L24.6995 25.337L26.869 28.6975L36.9507 22.189L34.7812 18.8284ZM24.6995 25.337L28.0602 23.1678C27.4615 22.2402 27.728 21.0018 28.6563 20.4025L26.4867 17.042L24.3172 13.6815C19.678 16.6765 18.3437 22.866 21.3387 27.5062L24.6995 25.337ZM39.3135 53.7648L41.7619 56.9278C43.9696 55.2189 44.9436 52.003 43.464 49.2263L39.9339 51.1074L36.4038 52.9884C35.8858 52.0164 36.2743 51.0589 36.865 50.6017L39.3135 53.7648ZM36.0289 53.0147L32.433 54.7667C34.1695 58.3308 38.7136 59.2875 41.7619 56.9278L39.3135 53.7648L36.865 50.6017C37.7423 49.9226 39.0908 50.1666 39.6248 51.2626L36.0289 53.0147ZM31.731 72.8886L35.4514 71.4194C35.3724 71.2193 35.2559 70.918 35.1453 70.6832L31.5263 72.3868L27.9072 74.0905C27.8902 74.0543 27.8806 74.0316 27.8805 74.0314C27.8803 74.0309 27.8846 74.041 27.8958 74.0686C27.9199 74.1283 27.9533 74.2126 28.0107 74.3579L31.731 72.8886ZM30.7029 70.8805L27.1999 72.8117C27.4621 73.2872 27.6545 73.6362 27.7867 73.8777C27.8532 73.9991 27.8998 74.0848 27.9305 74.1418C27.946 74.1707 27.9533 74.1846 27.9551 74.188C27.9643 74.2055 27.9399 74.1599 27.9072 74.0905L31.5263 72.3868L35.1453 70.6832C35.0322 70.4429 34.659 69.7714 34.2058 68.9494L30.7029 70.8805ZM76.8863 74.1904L73.4719 72.1067C73.4036 72.2186 73.2902 72.4019 73.1929 72.5813L76.709 74.4884L80.2251 76.3954C80.2053 76.4319 80.1942 76.4496 80.209 76.425C80.2159 76.4134 80.2262 76.3964 80.2421 76.3701C80.2581 76.3438 80.2767 76.3134 80.3007 76.2741L76.8863 74.1904ZM76.4491 75.0228L80.0579 76.7482C80.1343 76.5883 80.1849 76.4826 80.2212 76.4077C80.239 76.3709 80.2486 76.3514 80.2529 76.3428C80.2596 76.3294 80.2478 76.3536 80.2251 76.3954L76.709 74.4884L73.1929 72.5813C73.0929 72.7657 72.9529 73.0621 72.8404 73.2974L76.4491 75.0228ZM53.4975 46.0373L54.8434 49.8041C58.5337 48.4855 60.4301 44.1798 58.4989 40.5186L54.9609 42.3848L51.4229 44.2509C50.9801 43.4113 51.4653 42.5158 52.1516 42.2705L53.4975 46.0373ZM72.308 50.901L68.9079 53.008C70.0498 54.8506 72.0412 55.6559 73.8551 55.5181C75.7094 55.3773 77.6713 54.2087 78.4199 51.9805L74.6282 50.7066L70.8364 49.4327C71.2422 48.225 72.3276 47.6111 73.2492 47.5411C74.1306 47.4742 75.1333 47.8664 75.7082 48.794L72.308 50.901ZM50.197 44.8516L46.671 46.7404C48.3291 49.8357 51.9626 50.8334 54.8434 49.8041L53.4975 46.0373L52.1516 42.2705C52.4214 42.1741 52.6914 42.1808 52.9349 42.2658C53.1895 42.3547 53.5118 42.5686 53.723 42.9629L50.197 44.8516Z" fill="#471C13" mask="url(#path-5-outside-1_267_63)"/>
<path d="M41.3561 66.2487L66.2057 53.294C60.0979 58.7895 54.9564 65.9341 52.2626 73.9365" stroke="#E27C23" stroke-width="4" stroke-linecap="round" stroke-linejoin="round"/>
</g>
<defs>
<filter id="filter0_d_267_63" x="13.3245" y="63.9998" width="18.4431" height="25.6931" filterUnits="userSpaceOnUse" color-interpolation-filters="sRGB">
<feFlood flood-opacity="0" result="BackgroundImageFix"/>
<feColorMatrix in="SourceAlpha" type="matrix" values="0 0 0 0 0 0 0 0 0 0 0 0 0 0 0 0 0 0 127 0" result="hardAlpha"/>
<feOffset dx="4" dy="4"/>
<feComposite in2="hardAlpha" operator="out"/>
<feColorMatrix type="matrix" values="0 0 0 0 0.0980392 0 0 0 0 0.054902 0 0 0 0 0.188235 0 0 0 1 0"/>
<feBlend mode="normal" in2="BackgroundImageFix" result="effect1_dropShadow_267_63"/>
<feBlend mode="normal" in="SourceGraphic" in2="effect1_dropShadow_267_63" result="shape"/>
</filter>
<filter id="filter1_d_267_63" x="7.9397" y="77.6536" width="15.0924" height="16.9724" filterUnits="userSpaceOnUse" color-interpolation-filters="sRGB">
<feFlood flood-opacity="0" result="BackgroundImageFix"/>
<feColorMatrix in="SourceAlpha" type="matrix" values="0 0 0 0 0 0 0 0 0 0 0 0 0 0 0 0 0 0 127 0" result="hardAlpha"/>
<feOffset dx="4" dy="4"/>
<feComposite in2="hardAlpha" operator="out"/>
<feColorMatrix type="matrix" values="0 0 0 0 0.0980392 0 0 0 0 0.054902 0 0 0 0 0.188235 0 0 0 1 0"/>
<feBlend mode="normal" in2="BackgroundImageFix" result="effect1_dropShadow_267_63"/>
<feBlend mode="normal" in="SourceGraphic" in2="effect1_dropShadow_267_63" result="shape"/>
</filter>
<filter id="filter2_d_267_63" x="62.6534" y="9.93262" width="18.4431" height="25.6931" filterUnits="userSpaceOnUse" color-interpolation-filters="sRGB">
<feFlood flood-opacity="0" result="BackgroundImageFix"/>
<feColorMatrix in="SourceAlpha" type="matrix" values="0 0 0 0 0 0 0 0 0 0 0 0 0 0 0 0 0 0 127 0" result="hardAlpha"/>
<feOffset dx="4" dy="4"/>
<feComposite in2="hardAlpha" operator="out"/>
<feColorMatrix type="matrix" values="0 0 0 0 0.0980392 0 0 0 0 0.054902 0 0 0 0 0.188235 0 0 0 1 0"/>
<feBlend mode="normal" in2="BackgroundImageFix" result="effect1_dropShadow_267_63"/>
<feBlend mode="normal" in="SourceGraphic" in2="effect1_dropShadow_267_63" result="shape"/>
</filter>
<filter id="filter3_d_267_63" x="71.3892" y="4.99951" width="15.0924" height="16.9724" filterUnits="userSpaceOnUse" color-interpolation-filters="sRGB">
<feFlood flood-opacity="0" result="BackgroundImageFix"/>
<feColorMatrix in="SourceAlpha" type="matrix" values="0 0 0 0 0 0 0 0 0 0 0 0 0 0 0 0 0 0 127 0" result="hardAlpha"/>
<feOffset dx="4" dy="4"/>
<feComposite in2="hardAlpha" operator="out"/>
<feColorMatrix type="matrix" values="0 0 0 0 0.0980392 0 0 0 0 0.054902 0 0 0 0 0.188235 0 0 0 1 0"/>
<feBlend mode="normal" in2="BackgroundImageFix" result="effect1_dropShadow_267_63"/>
<feBlend mode="normal" in="SourceGraphic" in2="effect1_dropShadow_267_63" result="shape"/>
</filter>
<clipPath id="clip0_267_63">
<rect width="100" height="100" fill="white"/>
</clipPath>
</defs>
</svg>
