<svg width="100" height="100" viewBox="0 0 100 100" fill="none" xmlns="http://www.w3.org/2000/svg">
<rect x="8" y="8" width="84" height="84" rx="12" fill="#00A3FF"/>
<path d="M92 68C92 79.3137 92.0001 84.9706 88.4854 88.4854C84.9706 92.0001 79.3137 92 68 92H32C20.6863 92 15.0294 92.0001 11.5146 88.4854C7.99993 84.9706 8 79.3137 8 68V62C8 73.3137 7.99993 78.9706 11.5146 82.4854C15.0294 86.0001 20.6863 86 32 86H68C79.3137 86 84.9706 86.0001 88.4854 82.4854C92.0001 78.9706 92 73.3137 92 62V68Z" fill="#0069C4"/>
<rect opacity="0.9" x="14" y="14" width="72" height="66" rx="12" fill="#083898"/>
<rect x="14" y="20" width="72" height="60" rx="12" fill="#0069C4"/>
<mask id="mask0_444_169" style="mask-type:alpha" maskUnits="userSpaceOnUse" x="14" y="20" width="72" height="60">
<rect x="14" y="20" width="72" height="60" rx="12" fill="#376F41"/>
</mask>
<g mask="url(#mask0_444_169)">
<path d="M-18 50C-18 50 -13.125 66 -8.25 66C-3.375 66 1.5 50 1.5 50C1.5 50 6.375 34 11.25 34C16.125 34 21 50 21 50C21 50 25.875 66 30.75 66C35.625 66 40.5 50 40.5 50C40.5 50 45.375 34 50.25 34C55.125 34 60 50 60 50C60 50 64.875 66 69.75 66C74.625 66 79.5 50 79.5 50C79.5 50 84.375 34 89.25 34C94.125 34 99 50 99 50C99 50 103.875 66 108.75 66C113.625 66 118.5 50 118.5 50" stroke="white" stroke-width="6" stroke-linecap="round" stroke-linejoin="round"/>
</g>
</svg>
