<svg width="100" height="100" viewBox="0 0 100 100" fill="none" xmlns="http://www.w3.org/2000/svg">
<rect x="8" y="8" width="84" height="84" rx="12" fill="#5B6784"/>
<path d="M92 68C92 79.3137 92.0001 84.9706 88.4854 88.4854C84.9706 92.0001 79.3137 92 68 92H32C20.6863 92 15.0294 92.0001 11.5146 88.4854C7.99993 84.9706 8 79.3137 8 68V62C8 73.3137 7.99993 78.9706 11.5146 82.4854C15.0294 86.0001 20.6863 86 32 86H68C79.3137 86 84.9706 86.0001 88.4854 82.4854C92.0001 78.9706 92 73.3137 92 62V68Z" fill="#323956"/>
<rect opacity="0.9" x="14" y="14" width="72" height="66" rx="12" fill="#190E30"/>
<rect x="14" y="20" width="72" height="60" rx="12" fill="#323956"/>
<mask id="mask0_443_104" style="mask-type:alpha" maskUnits="userSpaceOnUse" x="14" y="20" width="72" height="60">
<rect x="14" y="20" width="72" height="60" rx="12" fill="#376F41"/>
</mask>
<g mask="url(#mask0_443_104)">
<path d="M131 49.5L125.964 34L120.929 42.75L115.893 65H110.857L105.821 56.25L100.786 52.5L95.75 34L90.7143 40.75L85.6786 37L80.6429 49.5L75.6071 36L70.5714 66L65.5357 40.75L60.5 43.75L55.4643 33L50.4286 63L45.3929 40.75L40.3571 43.75L35.3214 49.5H30.2857L25.25 66L20.2143 35L15.1786 49.5L10.1429 57.25L5.10715 55.25L0.0714363 33L-4.96429 58.25L-10 49.5" stroke="#5B6784" stroke-width="6" stroke-linecap="round" stroke-linejoin="round"/>
<path d="M-37 49.5L-31.9643 65L-26.9286 56.25L-21.8929 34H-16.8571L-11.8214 42.75L-6.78571 46.5L-1.75 65L3.28571 58.25L8.32143 62L13.3571 49.5L18.3929 63L23.4286 33L28.4643 58.25L33.5 55.25L38.5357 66L43.5714 36L48.6071 58.25L53.6429 55.25L58.6786 49.5H63.7143L68.75 33L73.7857 64L78.8214 49.5L83.8571 41.75L88.8929 43.75L93.9286 66L98.9643 40.75L104 49.5" stroke="white" stroke-width="6" stroke-linecap="round" stroke-linejoin="round"/>
</g>
</svg>
