<svg width="100" height="100" viewBox="0 0 100 100" fill="none" xmlns="http://www.w3.org/2000/svg">
<g clip-path="url(#clip0_33_166)">
<g filter="url(#filter0_d_33_166)">
<path d="M25.3669 78.4927C18.1721 74.6646 14.4836 69.3247 14.9662 60.8002" stroke="#DFE9ED" stroke-width="4" stroke-linecap="round" stroke-linejoin="round"/>
</g>
<g filter="url(#filter1_d_33_166)">
<path d="M61.8535 13.5332C69.0484 17.3613 72.7369 22.7012 72.2543 31.2257" stroke="#DFE9ED" stroke-width="4" stroke-linecap="round" stroke-linejoin="round"/>
</g>
<g filter="url(#filter2_d_33_166)">
<path d="M16.6315 83.4258C12.6828 82.3821 10.2742 79.774 9.53984 74.4541" stroke="#DFE9ED" stroke-width="4" stroke-linecap="round" stroke-linejoin="round"/>
</g>
<g filter="url(#filter3_d_33_166)">
<path d="M70.5894 8.6001C74.538 9.64379 76.9467 12.2519 77.681 17.5717" stroke="#DFE9ED" stroke-width="4" stroke-linecap="round" stroke-linejoin="round"/>
</g>
<g filter="url(#filter4_d_33_166)">
<mask id="path-5-outside-1_33_166" maskUnits="userSpaceOnUse" x="1.83122" y="-8.22832" width="99.6218" height="102.55" fill="black">
<rect fill="white" x="1.83122" y="-8.22832" width="99.6218" height="102.55"/>
<path d="M39.24 50.7816C40.106 52.2816 39.5921 54.1997 38.092 55.0657V55.0657C36.592 55.9318 34.6739 55.4178 33.8079 53.9178L25.1836 38.9801C24.8566 38.4137 24.6931 38.1305 24.5229 37.9121C23.4237 36.5011 21.5214 35.9914 19.8639 36.6637C19.6073 36.7678 19.3241 36.9313 18.7577 37.2583V37.2583C18.1913 37.5853 17.9081 37.7488 17.6896 37.919C16.2787 39.0183 15.7689 40.9206 16.4412 42.578C16.5453 42.8346 16.7088 43.1178 17.0359 43.6842L38.9089 81.5695C40.7945 84.8354 41.7373 86.4684 43.3377 86.8973C44.9381 87.3261 46.5711 86.3833 49.8371 84.4977L75.3466 69.7697C76.7626 68.9522 77.4705 68.5435 77.9549 67.9123C78.4393 67.281 78.6508 66.4914 79.074 64.9121L85.1158 42.3639C85.2851 41.732 85.3697 41.4161 85.4039 41.1412C85.6242 39.3664 84.6397 37.661 82.9926 36.9643C82.7375 36.8564 82.4215 36.7718 81.7897 36.6024V36.6024C81.1578 36.433 80.8418 36.3484 80.5669 36.3142C78.792 36.0937 77.0864 37.0784 76.3897 38.7257C76.2818 38.9809 76.1972 39.2968 76.0279 39.9287L75.5812 41.5957C74.3109 46.3364 73.6758 48.7068 72.4357 49.5431C71.3947 50.2451 70.0845 50.4176 68.8972 50.0089C67.4829 49.5221 66.256 47.3969 63.802 43.1465L49.2071 17.8674C48.8801 17.3009 48.7166 17.0177 48.5464 16.7993C47.4471 15.3883 45.5448 14.8786 43.8874 15.5509C43.6308 15.655 43.3476 15.8185 42.7812 16.1455V16.1455C42.2148 16.4725 41.9316 16.6361 41.7131 16.8063C40.3021 17.9055 39.7924 19.8078 40.4647 21.4652C40.5688 21.7218 40.7323 22.0051 41.0593 22.5715L52.8198 42.9412C53.6859 44.4413 53.1719 46.3594 51.6719 47.2254V47.2254C50.1719 48.0915 48.2538 47.5775 47.3877 46.0775L32.491 20.2756C32.164 19.7092 32.0005 19.426 31.8303 19.2075C30.731 17.7966 28.8287 17.2868 27.1713 17.9591C26.9147 18.0632 26.6315 18.2267 26.0651 18.5538V18.5538C25.4987 18.8808 25.2155 19.0443 24.997 19.2145C23.5861 20.3137 23.0763 22.216 23.7486 23.8734C23.8527 24.1301 24.0162 24.4133 24.3433 24.9797L39.24 50.7816Z"/>
</mask>
<path d="M39.24 50.7816C40.106 52.2816 39.5921 54.1997 38.092 55.0657V55.0657C36.592 55.9318 34.6739 55.4178 33.8079 53.9178L25.1836 38.9801C24.8566 38.4137 24.6931 38.1305 24.5229 37.9121C23.4237 36.5011 21.5214 35.9914 19.8639 36.6637C19.6073 36.7678 19.3241 36.9313 18.7577 37.2583V37.2583C18.1913 37.5853 17.9081 37.7488 17.6896 37.919C16.2787 39.0183 15.7689 40.9206 16.4412 42.578C16.5453 42.8346 16.7088 43.1178 17.0359 43.6842L38.9089 81.5695C40.7945 84.8354 41.7373 86.4684 43.3377 86.8973C44.9381 87.3261 46.5711 86.3833 49.8371 84.4977L75.3466 69.7697C76.7626 68.9522 77.4705 68.5435 77.9549 67.9123C78.4393 67.281 78.6508 66.4914 79.074 64.9121L85.1158 42.3639C85.2851 41.732 85.3697 41.4161 85.4039 41.1412C85.6242 39.3664 84.6397 37.661 82.9926 36.9643C82.7375 36.8564 82.4215 36.7718 81.7897 36.6024V36.6024C81.1578 36.433 80.8418 36.3484 80.5669 36.3142C78.792 36.0937 77.0864 37.0784 76.3897 38.7257C76.2818 38.9809 76.1972 39.2968 76.0279 39.9287L75.5812 41.5957C74.3109 46.3364 73.6758 48.7068 72.4357 49.5431C71.3947 50.2451 70.0845 50.4176 68.8972 50.0089C67.4829 49.5221 66.256 47.3969 63.802 43.1465L49.2071 17.8674C48.8801 17.3009 48.7166 17.0177 48.5464 16.7993C47.4471 15.3883 45.5448 14.8786 43.8874 15.5509C43.6308 15.655 43.3476 15.8185 42.7812 16.1455V16.1455C42.2148 16.4725 41.9316 16.6361 41.7131 16.8063C40.3021 17.9055 39.7924 19.8078 40.4647 21.4652C40.5688 21.7218 40.7323 22.0051 41.0593 22.5715L52.8198 42.9412C53.6859 44.4413 53.1719 46.3594 51.6719 47.2254V47.2254C50.1719 48.0915 48.2538 47.5775 47.3877 46.0775L32.491 20.2756C32.164 19.7092 32.0005 19.426 31.8303 19.2075C30.731 17.7966 28.8287 17.2868 27.1713 17.9591C26.9147 18.0632 26.6315 18.2267 26.0651 18.5538V18.5538C25.4987 18.8808 25.2155 19.0443 24.997 19.2145C23.5861 20.3137 23.0763 22.216 23.7486 23.8734C23.8527 24.1301 24.0162 24.4133 24.3433 24.9797L39.24 50.7816Z" fill="#FFBA34"/>
<path d="M24.997 19.2145L27.4553 22.3699L24.997 19.2145ZM23.7486 23.8734L27.4553 22.3699L23.7486 23.8734ZM31.8303 19.2075L28.6748 21.6658L31.8303 19.2075ZM27.1713 17.9591L25.6678 14.2525L27.1713 17.9591ZM41.7131 16.8063L39.2548 13.6508L41.7131 16.8063ZM41.0593 22.5715L37.5952 24.5715L41.0593 22.5715ZM40.4647 21.4652L36.758 22.9687L40.4647 21.4652ZM49.2071 17.8674L45.743 19.8674L49.2071 17.8674ZM48.5464 16.7993L51.7018 14.341L48.5464 16.7993ZM43.8874 15.5509L45.3909 19.2576L43.8874 15.5509ZM75.5812 41.5957L79.4449 42.631L75.5812 41.5957ZM72.4357 49.5431L74.6723 52.8594L72.4357 49.5431ZM63.802 43.1465L67.2661 41.1465L63.802 43.1465ZM68.8972 50.0089L70.1992 46.2268L68.8972 50.0089ZM80.5669 36.3142L81.06 32.3447L80.5669 36.3142ZM76.0279 39.9287L72.1642 38.8935L76.0279 39.9287ZM76.3897 38.7257L80.0738 40.2837L76.3897 38.7257ZM85.1158 42.3639L81.2521 41.3286L85.1158 42.3639ZM85.4039 41.1412L89.3734 41.634L85.4039 41.1412ZM82.9926 36.9643L84.5508 33.2803L82.9926 36.9643ZM77.9549 67.9123L74.7815 65.4772L77.9549 67.9123ZM43.3377 86.8973L44.373 83.0336L43.3377 86.8973ZM17.6896 37.919L15.2313 34.7636L17.6896 37.919ZM17.0359 43.6842L13.5718 45.6842L17.0359 43.6842ZM16.4412 42.578L12.7346 44.0815L16.4412 42.578ZM25.1836 38.9801L21.7195 40.9801L25.1836 38.9801ZM24.5229 37.9121L21.3675 40.3704L24.5229 37.9121ZM19.8639 36.6637L18.3604 32.957L19.8639 36.6637ZM33.8079 53.9178L30.3438 55.9178L33.8079 53.9178ZM33.8079 53.9178L30.3438 55.9178L21.7195 40.9801L25.1836 38.9801L28.6477 36.9801L37.272 51.9178L33.8079 53.9178ZM17.0359 43.6842L20.5 41.6842L42.373 79.5695L38.9089 81.5695L35.4448 83.5695L13.5718 45.6842L17.0359 43.6842ZM49.8371 84.4977L47.8371 81.0336L73.3466 66.3056L75.3466 69.7697L77.3466 73.2339L51.8371 87.9618L49.8371 84.4977ZM79.074 64.9121L75.2103 63.8768L81.2521 41.3286L85.1158 42.3639L88.9795 43.3991L82.9377 65.9474L79.074 64.9121ZM76.0279 39.9287L79.8916 40.964L79.4449 42.631L75.5812 41.5957L71.7175 40.5604L72.1642 38.8935L76.0279 39.9287ZM63.802 43.1465L60.3379 45.1465L45.743 19.8674L49.2071 17.8674L52.6712 15.8674L67.2661 41.1465L63.802 43.1465ZM41.0593 22.5715L44.5234 20.5715L56.2839 40.9412L52.8198 42.9412L49.3557 44.9412L37.5952 24.5715L41.0593 22.5715ZM47.3877 46.0775L43.9236 48.0775L29.0269 22.2756L32.491 20.2756L35.9551 18.2756L50.8518 44.0775L47.3877 46.0775ZM24.3433 24.9797L27.8074 22.9797L42.7041 48.7816L39.24 50.7816L35.7759 52.7816L20.8792 26.9797L24.3433 24.9797ZM26.0651 18.5538L28.0651 22.0179C27.7654 22.1909 27.6017 22.2857 27.4835 22.3578C27.3744 22.4243 27.3935 22.418 27.4553 22.3699L24.997 19.2145L22.5387 16.059C23.0307 15.6757 23.615 15.3495 24.0651 15.0897L26.0651 18.5538ZM24.3433 24.9797L20.8792 26.9797C20.6193 26.5296 20.2764 25.9549 20.042 25.377L23.7486 23.8734L27.4553 22.3699C27.4259 22.2974 27.4125 22.2823 27.4737 22.3945C27.54 22.516 27.6343 22.68 27.8074 22.9797L24.3433 24.9797ZM24.997 19.2145L27.4553 22.3699L23.7486 23.8734L20.042 25.377C18.6974 22.0621 19.7168 18.2575 22.5387 16.059L24.997 19.2145ZM32.491 20.2756L29.0269 22.2756C28.8539 21.9759 28.759 21.8122 28.687 21.694C28.6204 21.5849 28.6267 21.604 28.6748 21.6658L31.8303 19.2075L34.9857 16.7492C35.369 17.2412 35.6953 17.8255 35.9551 18.2756L32.491 20.2756ZM26.0651 18.5538L24.0651 15.0897C24.5151 14.8298 25.0898 14.4869 25.6678 14.2525L27.1713 17.9591L28.6748 21.6658C28.7474 21.6364 28.7624 21.623 28.6503 21.6842C28.5287 21.7505 28.3648 21.8448 28.0651 22.0179L26.0651 18.5538ZM31.8303 19.2075L28.6748 21.6658L27.1713 17.9591L25.6678 14.2525C28.9826 12.9079 32.7873 13.9273 34.9857 16.7492L31.8303 19.2075ZM51.6719 47.2254L53.6719 50.6895C50.2587 52.6601 45.8942 51.4907 43.9236 48.0775L47.3877 46.0775L50.8518 44.0775C50.6133 43.6643 50.085 43.5228 49.6719 43.7613L51.6719 47.2254ZM52.8198 42.9412L56.2839 40.9412C58.2546 44.3544 57.0851 48.7189 53.6719 50.6895L51.6719 47.2254L49.6719 43.7613C49.2588 43.9998 49.1172 44.5281 49.3557 44.9412L52.8198 42.9412ZM42.7812 16.1455L44.7812 19.6096C44.4814 19.7827 44.3178 19.8775 44.1996 19.9496C44.0905 20.0161 44.1096 20.0098 44.1714 19.9617L41.7131 16.8063L39.2548 13.6508C39.7468 13.2675 40.3311 12.9413 40.7812 12.6814L42.7812 16.1455ZM41.0593 22.5715L37.5952 24.5715C37.3354 24.1214 36.9925 23.5467 36.758 22.9687L40.4647 21.4652L44.1714 19.9617C44.142 19.8891 44.1285 19.8741 44.1898 19.9863C44.2561 20.1078 44.3504 20.2717 44.5234 20.5715L41.0593 22.5715ZM41.7131 16.8063L44.1714 19.9617V19.9617L40.4647 21.4652L36.758 22.9687C35.4135 19.6539 36.4329 15.8493 39.2548 13.6508L41.7131 16.8063ZM49.2071 17.8674L45.743 19.8674C45.5699 19.5676 45.4751 19.404 45.403 19.2858C45.3365 19.1767 45.3428 19.1958 45.3909 19.2576L48.5464 16.7993L51.7018 14.341C52.0851 14.833 52.4113 15.4173 52.6712 15.8674L49.2071 17.8674ZM42.7812 16.1455L40.7812 12.6814C41.2312 12.4216 41.8059 12.0787 42.3839 11.8442L43.8874 15.5509L45.3909 19.2576C45.4635 19.2282 45.4785 19.2147 45.3663 19.2759C45.2448 19.3423 45.0809 19.4366 44.7812 19.6096L42.7812 16.1455ZM48.5464 16.7993L45.3909 19.2576V19.2576L43.8874 15.5509L42.3839 11.8442C45.6987 10.4996 49.5033 11.5191 51.7018 14.341L48.5464 16.7993ZM75.5812 41.5957L79.4449 42.631C78.8305 44.9239 78.3021 46.9109 77.7529 48.4097C77.2496 49.7834 76.4267 51.6762 74.6723 52.8594L72.4357 49.5431L70.1992 46.2268C69.6848 46.5737 69.7995 46.8632 70.2413 45.6574C70.6373 44.5767 71.0616 43.0082 71.7175 40.5604L75.5812 41.5957ZM63.802 43.1465L67.2661 41.1465C68.5331 43.3411 69.349 44.7463 70.0111 45.6877C70.75 46.738 70.7859 46.4287 70.1992 46.2268L68.8972 50.0089L67.5952 53.7911C65.5943 53.1023 64.3095 51.487 63.4678 50.2904C62.5495 48.9848 61.5248 47.2022 60.3379 45.1465L63.802 43.1465ZM72.4357 49.5431L74.6723 52.8594C72.5902 54.2635 69.9697 54.6085 67.5952 53.7911L68.8972 50.0089L70.1992 46.2268V46.2268L72.4357 49.5431ZM81.7897 36.6024L80.7541 40.466C80.4198 40.3764 80.2369 40.3277 80.1024 40.2951C79.9781 40.265 79.9961 40.2741 80.0738 40.2837L80.5669 36.3142L81.06 32.3447C81.6791 32.4216 82.3232 32.6042 82.8253 32.7388L81.7897 36.6024ZM76.0279 39.9287L72.1642 38.8935C72.2987 38.3913 72.4626 37.7423 72.7056 37.1677L76.3897 38.7257L80.0738 40.2837C80.1044 40.2116 80.1055 40.1914 80.0694 40.3141C80.0304 40.4469 79.9812 40.6296 79.8916 40.964L76.0279 39.9287ZM80.5669 36.3142L80.0738 40.2837L80.0738 40.2837L76.3897 38.7257L72.7056 37.1677C74.0989 33.873 77.5101 31.9038 81.06 32.3447L80.5669 36.3142ZM85.1158 42.3639L81.2521 41.3286C81.3417 40.9942 81.3904 40.8114 81.423 40.6769C81.4531 40.5526 81.444 40.5707 81.4344 40.6484L85.4039 41.1412L89.3734 41.634C89.2965 42.2531 89.114 42.8971 88.9795 43.3991L85.1158 42.3639ZM81.7897 36.6024L82.8253 32.7388C83.3273 32.8734 83.9763 33.0373 84.5508 33.2803L82.9926 36.9643L81.4344 40.6484C81.5065 40.6789 81.5266 40.68 81.404 40.644C81.2711 40.6049 81.0885 40.5557 80.7541 40.466L81.7897 36.6024ZM85.4039 41.1412L81.4344 40.6484H81.4344L82.9926 36.9643L84.5508 33.2803C87.845 34.6737 89.8141 38.0845 89.3734 41.634L85.4039 41.1412ZM75.3466 69.7697L73.3466 66.3056C74.1053 65.8676 74.4829 65.6466 74.7433 65.4686C74.9489 65.3281 74.8835 65.3443 74.7815 65.4772L77.9549 67.9123L81.1283 70.3473C80.047 71.7566 78.4799 72.5795 77.3466 73.2339L75.3466 69.7697ZM79.074 64.9121L82.9377 65.9474C82.599 67.2114 82.2097 68.9381 81.1283 70.3473L77.9549 67.9123L74.7815 65.4772C74.6795 65.6101 74.6808 65.6776 74.7633 65.4425C74.8678 65.1449 74.9836 64.7231 75.2103 63.8768L79.074 64.9121ZM38.9089 81.5695L42.373 79.5695C43.3724 81.3004 43.928 82.2458 44.397 82.8535C44.795 83.3693 44.7573 83.1365 44.373 83.0336L43.3377 86.8973L42.3025 90.761C40.3178 90.2292 39.0084 88.9655 38.0636 87.741C37.1896 86.6085 36.3311 85.1045 35.4448 83.5695L38.9089 81.5695ZM49.8371 84.4977L51.8371 87.9618C50.302 88.848 48.8065 89.7213 47.4834 90.2651C46.0529 90.853 44.2871 91.2927 42.3025 90.761L43.3377 86.8973L44.373 83.0336C43.9888 82.9306 43.8396 83.1133 44.4422 82.8657C45.1522 82.5739 46.1062 82.0329 47.8371 81.0336L49.8371 84.4977ZM18.7577 37.2583L20.7577 40.7224C20.458 40.8955 20.2943 40.9903 20.1761 41.0623C20.067 41.1289 20.0861 41.1226 20.1479 41.0745L17.6896 37.919L15.2313 34.7636C15.7233 34.3803 16.3076 34.054 16.7577 33.7942L18.7577 37.2583ZM17.0359 43.6842L13.5718 45.6842C13.3119 45.2342 12.969 44.6595 12.7346 44.0815L16.4412 42.578L20.1479 41.0745C20.1185 41.0019 20.1051 40.9869 20.1663 41.0991C20.2326 41.2206 20.3269 41.3845 20.5 41.6842L17.0359 43.6842ZM17.6896 37.919L20.1479 41.0745L16.4412 42.578L12.7346 44.0815C11.39 40.7667 12.4094 36.9621 15.2313 34.7636L17.6896 37.919ZM25.1836 38.9801L21.7195 40.9801C21.5465 40.6804 21.4517 40.5167 21.3796 40.3986C21.313 40.2894 21.3193 40.3086 21.3675 40.3704L24.5229 37.9121L27.6783 35.4537C28.0616 35.9458 28.3879 36.5301 28.6477 36.9801L25.1836 38.9801ZM18.7577 37.2583L16.7577 33.7942C17.2077 33.5344 17.7824 33.1915 18.3604 32.957L19.8639 36.6637L21.3675 40.3704C21.44 40.3409 21.4551 40.3275 21.3429 40.3887C21.2213 40.455 21.0574 40.5494 20.7577 40.7224L18.7577 37.2583ZM24.5229 37.9121L21.3675 40.3704V40.3704L19.8639 36.6637L18.3604 32.957C21.6753 31.6124 25.4799 32.6319 27.6783 35.4537L24.5229 37.9121ZM38.092 55.0657L40.092 58.5298C36.6788 60.5005 32.3144 59.331 30.3438 55.9178L33.8079 53.9178L37.272 51.9178C37.0334 51.5047 36.5052 51.3631 36.092 51.6016L38.092 55.0657ZM38.092 55.0657L36.092 51.6016C35.6789 51.8402 35.5374 52.3684 35.7759 52.7816L39.24 50.7816L42.7041 48.7816C44.6747 52.1948 43.5052 56.5592 40.092 58.5298L38.092 55.0657Z" fill="#572217" mask="url(#path-5-outside-1_33_166)"/>
</g>
<path d="M38.2 66.2001L64.3 53.6001C57.6408 59.5194 51.7693 67.5775 48.2434 77.0001" stroke="#E27C23" stroke-width="4" stroke-linecap="round" stroke-linejoin="round"/>
</g>
<defs>
<filter id="filter0_d_33_166" x="12.9242" y="58.8" width="18.4431" height="25.6931" filterUnits="userSpaceOnUse" color-interpolation-filters="sRGB">
<feFlood flood-opacity="0" result="BackgroundImageFix"/>
<feColorMatrix in="SourceAlpha" type="matrix" values="0 0 0 0 0 0 0 0 0 0 0 0 0 0 0 0 0 0 127 0" result="hardAlpha"/>
<feOffset dx="4" dy="4"/>
<feComposite in2="hardAlpha" operator="out"/>
<feColorMatrix type="matrix" values="0 0 0 0 0.0705882 0 0 0 0 0.0666667 0 0 0 0 0.141176 0 0 0 1 0"/>
<feBlend mode="normal" in2="BackgroundImageFix" result="effect1_dropShadow_33_166"/>
<feBlend mode="normal" in="SourceGraphic" in2="effect1_dropShadow_33_166" result="shape"/>
</filter>
<filter id="filter1_d_33_166" x="59.8531" y="11.5327" width="18.4431" height="25.6931" filterUnits="userSpaceOnUse" color-interpolation-filters="sRGB">
<feFlood flood-opacity="0" result="BackgroundImageFix"/>
<feColorMatrix in="SourceAlpha" type="matrix" values="0 0 0 0 0 0 0 0 0 0 0 0 0 0 0 0 0 0 127 0" result="hardAlpha"/>
<feOffset dx="4" dy="4"/>
<feComposite in2="hardAlpha" operator="out"/>
<feColorMatrix type="matrix" values="0 0 0 0 0.0705882 0 0 0 0 0.0666667 0 0 0 0 0.141176 0 0 0 1 0"/>
<feBlend mode="normal" in2="BackgroundImageFix" result="effect1_dropShadow_33_166"/>
<feBlend mode="normal" in="SourceGraphic" in2="effect1_dropShadow_33_166" result="shape"/>
</filter>
<filter id="filter2_d_33_166" x="7.53955" y="72.4539" width="15.0924" height="16.9724" filterUnits="userSpaceOnUse" color-interpolation-filters="sRGB">
<feFlood flood-opacity="0" result="BackgroundImageFix"/>
<feColorMatrix in="SourceAlpha" type="matrix" values="0 0 0 0 0 0 0 0 0 0 0 0 0 0 0 0 0 0 127 0" result="hardAlpha"/>
<feOffset dx="4" dy="4"/>
<feComposite in2="hardAlpha" operator="out"/>
<feColorMatrix type="matrix" values="0 0 0 0 0.0705882 0 0 0 0 0.0666667 0 0 0 0 0.141176 0 0 0 1 0"/>
<feBlend mode="normal" in2="BackgroundImageFix" result="effect1_dropShadow_33_166"/>
<feBlend mode="normal" in="SourceGraphic" in2="effect1_dropShadow_33_166" result="shape"/>
</filter>
<filter id="filter3_d_33_166" x="68.5889" y="6.59961" width="15.0924" height="16.9724" filterUnits="userSpaceOnUse" color-interpolation-filters="sRGB">
<feFlood flood-opacity="0" result="BackgroundImageFix"/>
<feColorMatrix in="SourceAlpha" type="matrix" values="0 0 0 0 0 0 0 0 0 0 0 0 0 0 0 0 0 0 127 0" result="hardAlpha"/>
<feOffset dx="4" dy="4"/>
<feComposite in2="hardAlpha" operator="out"/>
<feColorMatrix type="matrix" values="0 0 0 0 0.0705882 0 0 0 0 0.0666667 0 0 0 0 0.141176 0 0 0 1 0"/>
<feBlend mode="normal" in2="BackgroundImageFix" result="effect1_dropShadow_33_166"/>
<feBlend mode="normal" in="SourceGraphic" in2="effect1_dropShadow_33_166" result="shape"/>
</filter>
<filter id="filter4_d_33_166" x="12.1473" y="11.2571" width="81.2874" height="83.7429" filterUnits="userSpaceOnUse" color-interpolation-filters="sRGB">
<feFlood flood-opacity="0" result="BackgroundImageFix"/>
<feColorMatrix in="SourceAlpha" type="matrix" values="0 0 0 0 0 0 0 0 0 0 0 0 0 0 0 0 0 0 127 0" result="hardAlpha"/>
<feOffset dx="4" dy="4"/>
<feComposite in2="hardAlpha" operator="out"/>
<feColorMatrix type="matrix" values="0 0 0 0 0.0705882 0 0 0 0 0.0666667 0 0 0 0 0.141176 0 0 0 1 0"/>
<feBlend mode="normal" in2="BackgroundImageFix" result="effect1_dropShadow_33_166"/>
<feBlend mode="normal" in="SourceGraphic" in2="effect1_dropShadow_33_166" result="shape"/>
</filter>
<clipPath id="clip0_33_166">
<rect width="100" height="100" fill="white"/>
</clipPath>
</defs>
</svg>
