<svg width="100" height="100" viewBox="0 0 100 100" fill="none" xmlns="http://www.w3.org/2000/svg">
<circle cx="50" cy="50" r="42" fill="#FFBA34"/>
<path d="M65 68C60 78 40 78 35 68" stroke="#572217" stroke-width="4" stroke-linecap="round"/>
<path d="M47 45.5C47 52.4036 41.4036 58 34.5 58C27.5964 58 22 52.4036 22 45.5C22 38.5964 27.5964 33 34.5 33C41.4036 33 47 38.5964 47 45.5Z" fill="white"/>
<circle cx="37.5" cy="45.5" r="7.5" fill="#572217"/>
<path d="M55 49C58.8889 39.6921 72.5 39.6921 76 48.8484" stroke="#572217" stroke-width="4" stroke-linecap="round" stroke-linejoin="round"/>
<path d="M33 22C26 23 21 27 18 33" stroke="#572217" stroke-width="4" stroke-linecap="round"/>
<path d="M67 28C74 29 79 33 82 39" stroke="#572217" stroke-width="4" stroke-linecap="round"/>
</svg>
