<svg width="100" height="100" viewBox="0 0 100 100" fill="none" xmlns="http://www.w3.org/2000/svg">
<circle cx="50" cy="50" r="42" fill="#FFBA34"/>
<path d="M72.5 62.3214C72.5 77.4106 64.0625 80 50 80C35.9375 80 27.5 77.4106 27.5 62.3214C27.5 47.2322 38.75 35 50 35C61.25 35 72.5 47.2322 72.5 62.3214Z" fill="#E40037"/>
<path d="M44 25.5826C36.5 20.8934 26 24.42 21.5 30.5" stroke="#572217" stroke-width="4" stroke-linecap="round"/>
<path d="M56 25.5826C63.5 20.8934 74 24.42 78.5 30.5" stroke="#572217" stroke-width="4" stroke-linecap="round"/>
<mask id="path-5-outside-1_33_86" maskUnits="userSpaceOnUse" x="1.5974" y="26.3861" width="71.3102" height="70.4401" fill="black">
<rect fill="white" x="1.5974" y="26.3861" width="71.3102" height="70.4401"/>
<path d="M43.372 68.6445C42.5008 69.3235 42.345 70.5802 43.024 71.4514C43.703 72.3226 44.9597 72.4785 45.8309 71.7994L54.507 65.0374C55.242 64.4645 55.6095 64.1781 55.993 64.0722C56.5043 63.9311 57.0508 63.9988 57.5121 64.2606C57.8581 64.4569 58.1446 64.8244 58.7174 65.5594C59.2903 66.2944 59.5767 66.6619 59.6826 67.0454C59.8237 67.5567 59.756 68.1031 59.4942 68.5645C59.2979 68.9105 58.9304 69.1969 58.1954 69.7698L35.3221 87.597C33.8348 88.7562 33.0912 89.3358 32.2691 89.2338C31.447 89.1319 30.8674 88.3883 29.7082 86.901L17.2027 70.8558C16.7001 70.2109 16.4488 69.8885 16.3429 69.505C16.2371 69.1215 16.2874 68.7159 16.388 67.9045L18.2764 52.6778C18.391 51.7533 18.4483 51.291 18.6446 50.9451C18.9063 50.4836 19.3407 50.145 19.8522 50.0039C20.2356 49.8981 20.6978 49.9554 21.6224 50.07C22.5469 50.1847 23.0092 50.242 23.3551 50.4382C23.8166 50.7 24.1552 51.1344 24.2964 51.6459C24.4022 52.0292 24.3448 52.4915 24.2302 53.4161L24.0649 54.7492C23.5593 58.8278 23.3064 60.8671 24.4688 61.5265C25.6311 62.186 27.2519 60.9227 30.4935 58.3963L45.3673 46.8037C46.1023 46.2309 46.4698 45.9444 46.8533 45.8386C47.3646 45.6974 47.911 45.7652 48.3724 46.0269C48.7184 46.2232 49.0048 46.5907 49.5777 47.3257C50.1505 48.0608 50.437 48.4283 50.5428 48.8117C50.684 49.323 50.6162 49.8695 50.3545 50.3308C50.1582 50.6769 49.7907 50.9633 49.0557 51.5361L37.2247 60.7571C36.3534 61.4362 36.1976 62.6929 36.8767 63.5641C37.5557 64.4353 38.8124 64.5911 39.6836 63.9121L54.6696 52.2322C55.4046 51.6593 55.7721 51.3729 56.1556 51.267C56.6669 51.1259 57.2133 51.1936 57.6747 51.4553C58.0207 51.6516 58.3071 52.0192 58.88 52.7542C59.4528 53.4892 59.7393 53.8567 59.8451 54.2402C59.9863 54.7515 59.9185 55.2979 59.6568 55.7593C59.4605 56.1053 59.093 56.3917 58.358 56.9646L43.372 68.6445Z"/>
</mask>
<path d="M43.372 68.6445C42.5008 69.3235 42.345 70.5802 43.024 71.4514C43.703 72.3226 44.9597 72.4785 45.8309 71.7994L54.507 65.0374C55.242 64.4645 55.6095 64.1781 55.993 64.0722C56.5043 63.9311 57.0508 63.9988 57.5121 64.2606C57.8581 64.4569 58.1446 64.8244 58.7174 65.5594C59.2903 66.2944 59.5767 66.6619 59.6826 67.0454C59.8237 67.5567 59.756 68.1031 59.4942 68.5645C59.2979 68.9105 58.9304 69.1969 58.1954 69.7698L35.3221 87.597C33.8348 88.7562 33.0912 89.3358 32.2691 89.2338C31.447 89.1319 30.8674 88.3883 29.7082 86.901L17.2027 70.8558C16.7001 70.2109 16.4488 69.8885 16.3429 69.505C16.2371 69.1215 16.2874 68.7159 16.388 67.9045L18.2764 52.6778C18.391 51.7533 18.4483 51.291 18.6446 50.9451C18.9063 50.4836 19.3407 50.145 19.8522 50.0039C20.2356 49.8981 20.6978 49.9554 21.6224 50.07C22.5469 50.1847 23.0092 50.242 23.3551 50.4382C23.8166 50.7 24.1552 51.1344 24.2964 51.6459C24.4022 52.0292 24.3448 52.4915 24.2302 53.4161L24.0649 54.7492C23.5593 58.8278 23.3064 60.8671 24.4688 61.5265C25.6311 62.186 27.2519 60.9227 30.4935 58.3963L45.3673 46.8037C46.1023 46.2309 46.4698 45.9444 46.8533 45.8386C47.3646 45.6974 47.911 45.7652 48.3724 46.0269C48.7184 46.2232 49.0048 46.5907 49.5777 47.3257C50.1505 48.0608 50.437 48.4283 50.5428 48.8117C50.684 49.323 50.6162 49.8695 50.3545 50.3308C50.1582 50.6769 49.7907 50.9633 49.0557 51.5361L37.2247 60.7571C36.3534 61.4362 36.1976 62.6929 36.8767 63.5641C37.5557 64.4353 38.8124 64.5911 39.6836 63.9121L54.6696 52.2322C55.4046 51.6593 55.7721 51.3729 56.1556 51.267C56.6669 51.1259 57.2133 51.1936 57.6747 51.4553C58.0207 51.6516 58.3071 52.0192 58.88 52.7542C59.4528 53.4892 59.7393 53.8567 59.8451 54.2402C59.9863 54.7515 59.9185 55.2979 59.6568 55.7593C59.4605 56.1053 59.093 56.3917 58.358 56.9646L43.372 68.6445Z" fill="#FFBA34"/>
<path d="M59.8451 54.2402L55.9893 55.3046L59.8451 54.2402ZM59.6568 55.7593L56.1777 53.7855L59.6568 55.7593ZM56.1556 51.267L55.0911 47.4112L56.1556 51.267ZM50.5428 48.8117L46.6871 49.8762L50.5428 48.8117ZM46.8533 45.8386L45.7889 41.9828L46.8533 45.8386ZM48.3724 46.0269L46.3986 49.506L48.3724 46.0269ZM24.4688 61.5265L26.4426 58.0474L24.4688 61.5265ZM23.3551 50.4382L25.3286 46.9589L23.3551 50.4382ZM24.2302 53.4161L20.2606 52.9239L24.2302 53.4161ZM24.2964 51.6459L20.4405 52.7099L24.2964 51.6459ZM19.8522 50.0039L20.9162 53.8598L19.8522 50.0039ZM17.2027 70.8558L20.3576 68.3968L17.2027 70.8558ZM16.388 67.9045L20.3576 68.3968L16.388 67.9045ZM16.3429 69.505L20.1987 68.4407L16.3429 69.505ZM35.3221 87.597L32.8632 84.4421L35.3221 87.597ZM29.7082 86.901L32.8632 84.4421L29.7082 86.901ZM32.2691 89.2338L31.7769 93.2035L32.2691 89.2338ZM59.6826 67.0454L63.5383 65.981L59.6826 67.0454ZM58.1954 69.7698L55.7365 66.6148L58.1954 69.7698ZM59.4942 68.5645L56.0151 66.5907L59.4942 68.5645ZM54.507 65.0374L56.9659 68.1923L54.507 65.0374ZM55.993 64.0722L57.0574 67.928L55.993 64.0722ZM57.5121 64.2606L55.5383 67.7397L57.5121 64.2606ZM45.8309 71.7994L48.2899 74.9544L45.8309 71.7994ZM45.8309 71.7994L48.2899 74.9544L56.9659 68.1923L54.507 65.0374L52.0481 61.8824L43.372 68.6445L45.8309 71.7994ZM58.1954 69.7698L55.7365 66.6148L32.8632 84.4421L35.3221 87.597L37.781 90.752L60.6543 72.9247L58.1954 69.7698ZM29.7082 86.901L32.8632 84.4421L20.3576 68.3968L17.2027 70.8558L14.0477 73.3147L26.5533 89.36L29.7082 86.901ZM16.388 67.9045L20.3576 68.3968L22.2459 53.1701L18.2764 52.6778L14.3068 52.1855L12.4184 67.4122L16.388 67.9045ZM24.2302 53.4161L20.2606 52.9239L20.0953 54.257L24.0649 54.7492L28.0345 55.2413L28.1998 53.9082L24.2302 53.4161ZM30.4935 58.3963L32.9524 61.5512L47.8262 49.9587L45.3673 46.8037L42.9084 43.6488L28.0345 55.2413L30.4935 58.3963ZM49.0557 51.5361L46.5967 48.3812L34.7657 57.6022L37.2247 60.7571L39.6836 63.9121L51.5146 54.6911L49.0557 51.5361ZM39.6836 63.9121L42.1425 67.067L57.1285 55.3871L54.6696 52.2322L52.2106 49.0772L37.2247 60.7571L39.6836 63.9121ZM58.358 56.9646L55.899 53.8096L40.9131 65.4896L43.372 68.6445L45.8309 71.7994L60.8169 60.1195L58.358 56.9646ZM58.88 52.7542L55.725 55.2131C55.8729 55.4029 55.9806 55.5411 56.0705 55.6596C56.1603 55.7781 56.2035 55.839 56.2227 55.8674C56.2411 55.8948 56.2103 55.8525 56.1634 55.76C56.1121 55.6589 56.0444 55.504 55.9893 55.3046L59.8451 54.2402L63.7009 53.1757C63.4842 52.3907 63.1234 51.7914 62.8527 51.3905C62.6021 51.0195 62.2877 50.6196 62.0349 50.2952L58.88 52.7542ZM58.358 56.9646L60.8169 60.1195C61.1412 59.8667 61.5438 59.5557 61.8774 59.2571C62.2378 58.9345 62.734 58.4414 63.1359 57.733L59.6568 55.7593L56.1777 53.7855C56.2797 53.6056 56.3832 53.4718 56.4577 53.3863C56.5258 53.3081 56.566 53.2746 56.5414 53.2966C56.5158 53.3195 56.4591 53.368 56.3431 53.461C56.227 53.5539 56.0888 53.6617 55.899 53.8096L58.358 56.9646ZM59.8451 54.2402L55.9893 55.3046C55.8482 54.7933 55.9159 54.2468 56.1777 53.7855L59.6568 55.7593L63.1359 57.733C63.9211 56.349 64.1243 54.7097 63.7009 53.1757L59.8451 54.2402ZM54.6696 52.2322L57.1285 55.3871C57.3183 55.2392 57.4565 55.1315 57.575 55.0416C57.6935 54.9518 57.7544 54.9087 57.7828 54.8895C57.8102 54.871 57.7679 54.9018 57.6754 54.9487C57.5743 55 57.4194 55.0677 57.22 55.1228L56.1556 51.267L55.0911 47.4112C54.3061 47.6279 53.7068 47.9888 53.3059 48.2595C52.9349 48.51 52.535 48.8244 52.2106 49.0772L54.6696 52.2322ZM58.88 52.7542L62.0349 50.2952C61.7821 49.9709 61.4711 49.5683 61.1725 49.2347C60.8499 48.8744 60.3568 48.3781 59.6484 47.9762L57.6747 51.4553L55.7009 54.9344C55.521 54.8324 55.3872 54.7289 55.3017 54.6544C55.2235 54.5863 55.19 54.5461 55.212 54.5707C55.2349 54.5963 55.2834 54.653 55.3764 54.769C55.4693 54.8851 55.5771 55.0233 55.725 55.2131L58.88 52.7542ZM56.1556 51.267L57.22 55.1228C56.7087 55.2639 56.1622 55.1962 55.7009 54.9344L57.6747 51.4553L59.6484 47.9762C58.2644 47.191 56.6251 46.9878 55.0911 47.4112L56.1556 51.267ZM36.8767 63.5641L33.7217 66.023C35.7588 68.6367 39.5289 69.1041 42.1425 67.067L39.6836 63.9121L37.2247 60.7571C38.0959 60.0781 39.3526 60.2339 40.0316 61.1052L36.8767 63.5641ZM37.2247 60.7571L34.7657 57.6022C32.1521 59.6393 31.6847 63.4094 33.7217 66.023L36.8767 63.5641L40.0316 61.1052C40.7106 61.9764 40.5548 63.2331 39.6836 63.9121L37.2247 60.7571ZM49.5777 47.3257L46.4227 49.7847C46.5707 49.9745 46.6783 50.1127 46.7682 50.2312C46.8581 50.3497 46.9012 50.4106 46.9204 50.439C46.9389 50.4664 46.9081 50.4241 46.8611 50.3316C46.8098 50.2305 46.7421 50.0755 46.6871 49.8762L50.5428 48.8117L54.3986 47.7473C54.1819 46.9623 53.8211 46.363 53.5504 45.9621C53.2999 45.5911 52.9854 45.1911 52.7326 44.8668L49.5777 47.3257ZM49.0557 51.5361L51.5146 54.6911C51.839 54.4383 52.2415 54.1273 52.5751 53.8287C52.9355 53.506 53.4317 53.013 53.8336 52.3046L50.3545 50.3308L46.8754 48.357C46.9775 48.1771 47.081 48.0434 47.1554 47.9579C47.2235 47.8797 47.2637 47.8462 47.2391 47.8682C47.2135 47.8911 47.1569 47.9396 47.0408 48.0325C46.9247 48.1255 46.7865 48.2333 46.5967 48.3812L49.0557 51.5361ZM50.5428 48.8117L46.6871 49.8762C46.5459 49.3648 46.6137 48.8184 46.8754 48.357L50.3545 50.3308L53.8336 52.3046C54.6188 50.9206 54.8221 49.2812 54.3986 47.7473L50.5428 48.8117ZM45.3673 46.8037L47.8262 49.9587C48.016 49.8108 48.1543 49.7031 48.2728 49.6132C48.3912 49.5234 48.4521 49.4802 48.4806 49.461C48.508 49.4426 48.4656 49.4734 48.3732 49.5203C48.272 49.5716 48.1171 49.6393 47.9177 49.6944L46.8533 45.8386L45.7889 41.9828C45.0038 42.1995 44.4045 42.5603 44.0036 42.831C43.6326 43.0816 43.2327 43.396 42.9084 43.6488L45.3673 46.8037ZM49.5777 47.3257L52.7326 44.8668C52.4798 44.5425 52.1688 44.1399 51.8702 43.8063C51.5476 43.4459 51.0545 42.9497 50.3462 42.5478L48.3724 46.0269L46.3986 49.506C46.2187 49.404 46.0849 49.3005 45.9994 49.226C45.9212 49.1579 45.8877 49.1177 45.9097 49.1423C45.9326 49.1679 45.9811 49.2246 46.0741 49.3406C46.1671 49.4567 46.2748 49.5949 46.4227 49.7847L49.5777 47.3257ZM46.8533 45.8386L47.9177 49.6944C47.4064 49.8355 46.8599 49.7678 46.3986 49.506L48.3724 46.0269L50.3462 42.5478C48.9621 41.7626 47.3228 41.5594 45.7889 41.9828L46.8533 45.8386ZM24.0649 54.7492L20.0953 54.257C19.859 56.1632 19.617 58.0347 19.6419 59.4885C19.6641 60.7848 19.9013 63.5342 22.495 65.0056L24.4688 61.5265L26.4426 58.0474C27.0817 58.4101 27.4374 58.9573 27.5843 59.3445C27.6884 59.619 27.6468 59.7019 27.6408 59.3516C27.6353 59.0322 27.6601 58.5546 27.7318 57.8297C27.8026 57.1143 27.9063 56.276 28.0345 55.2413L24.0649 54.7492ZM30.4935 58.3963L28.0345 55.2413C27.2122 55.8822 26.5458 56.4013 25.968 56.8291C25.3825 57.2625 24.9854 57.5288 24.7084 57.688C24.4047 57.8625 24.4545 57.7843 24.7435 57.7328C25.1512 57.6603 25.8034 57.6848 26.4426 58.0474L24.4688 61.5265L22.495 65.0056C25.0887 66.4771 27.5703 65.2702 28.6944 64.6242C29.9551 63.8998 31.4374 62.732 32.9524 61.5512L30.4935 58.3963ZM21.6224 50.07L21.1302 54.0397C21.3689 54.0693 21.5428 54.0909 21.6901 54.1111C21.8373 54.1313 21.9109 54.1439 21.9446 54.1504C21.977 54.1567 21.9253 54.1486 21.8267 54.1164C21.719 54.0812 21.5616 54.0195 21.3817 53.9175L23.3551 50.4382L25.3286 46.9589C24.6204 46.5572 23.9416 46.3886 23.4669 46.2966C23.0275 46.2115 22.5225 46.151 22.1145 46.1004L21.6224 50.07ZM24.2302 53.4161L28.1998 53.9082C28.2504 53.5002 28.3151 52.9958 28.3398 52.5489C28.3665 52.0661 28.3688 51.3667 28.1523 50.5818L24.2964 51.6459L20.4405 52.7099C20.3855 52.5105 20.3641 52.3428 20.3563 52.2297C20.3491 52.1263 20.3539 52.0742 20.352 52.1072C20.3502 52.1414 20.3444 52.2158 20.328 52.3635C20.3117 52.5113 20.2902 52.6852 20.2606 52.9239L24.2302 53.4161ZM23.3551 50.4382L21.3817 53.9175C20.9202 53.6557 20.5816 53.2213 20.4405 52.7099L24.2964 51.6459L28.1523 50.5818C27.7288 49.0475 26.7131 47.7442 25.3286 46.9589L23.3551 50.4382ZM18.2764 52.6778L22.2459 53.1701C22.2755 52.9314 22.2972 52.7575 22.3174 52.6102C22.3377 52.463 22.3502 52.3894 22.3568 52.3558C22.363 52.3233 22.3549 52.375 22.3227 52.4736C22.2875 52.5813 22.2258 52.7387 22.1238 52.9186L18.6446 50.9451L15.1653 48.9716C14.7636 49.6797 14.595 50.3585 14.503 50.8332C14.4178 51.2726 14.3574 51.7776 14.3068 52.1855L18.2764 52.6778ZM21.6224 50.07L22.1145 46.1004C21.7065 46.0499 21.2021 45.9851 20.7552 45.9604C20.2724 45.9337 19.573 45.9314 18.7882 46.148L19.8522 50.0039L20.9162 53.8598C20.7168 53.9148 20.5491 53.9362 20.436 53.944C20.3326 53.9511 20.2805 53.9464 20.3135 53.9482C20.3477 53.9501 20.4221 53.9559 20.5698 53.9722C20.7176 53.9886 20.8915 54.0101 21.1302 54.0397L21.6224 50.07ZM18.6446 50.9451L22.1238 52.9186C21.862 53.3801 21.4276 53.7187 20.9162 53.8598L19.8522 50.0039L18.7882 46.148C17.2539 46.5714 15.9506 47.5871 15.1653 48.9716L18.6446 50.9451ZM17.2027 70.8558L20.3576 68.3968C20.2939 68.315 20.2392 68.2449 20.1888 68.1798C20.1387 68.1151 20.0976 68.0615 20.0626 68.0151C20.0275 67.9688 20.0023 67.9345 19.9839 67.9089C19.9655 67.8834 19.9574 67.8713 19.9563 67.8697C19.9531 67.8648 19.9912 67.9213 20.0414 68.0233C20.0671 68.0758 20.0954 68.1388 20.1233 68.2113C20.1513 68.2843 20.1768 68.3611 20.1987 68.4407L16.3429 69.505L12.4872 70.5694C12.854 71.8982 13.7458 72.9273 14.0477 73.3147L17.2027 70.8558ZM16.388 67.9045L12.4184 67.4122C12.358 67.8997 12.1203 69.2405 12.4872 70.5694L16.3429 69.505L20.1987 68.4407C20.2207 68.5203 20.2382 68.5993 20.2516 68.6763C20.2649 68.7529 20.273 68.8214 20.2777 68.8797C20.2871 68.993 20.2833 69.061 20.2835 69.0552C20.2836 69.0532 20.2844 69.0387 20.2871 69.0073C20.2897 68.976 20.2939 68.9336 20.3001 68.8758C20.3064 68.818 20.3142 68.7509 20.324 68.6697C20.3339 68.588 20.3448 68.4997 20.3576 68.3968L16.388 67.9045ZM35.3221 87.597L32.8632 84.4421C32.4796 84.741 32.1975 84.9606 31.9547 85.1402C31.7103 85.3209 31.5851 85.4015 31.5296 85.4339C31.4763 85.465 31.5836 85.394 31.8102 85.3309C32.07 85.2585 32.4019 85.2197 32.7612 85.2642L32.2691 89.2338L31.7769 93.2035C33.4049 93.4053 34.7017 92.8455 35.5628 92.3428C36.3236 91.8987 37.1266 91.2621 37.781 90.752L35.3221 87.597ZM29.7082 86.901L26.5533 89.36C27.0633 90.0144 27.6866 90.8278 28.3159 91.4443C29.0281 92.1421 30.149 93.0016 31.7769 93.2035L32.2691 89.2338L32.7612 85.2642C33.1205 85.3088 33.4329 85.4274 33.6672 85.5611C33.8716 85.6777 33.9582 85.7727 33.9142 85.7295C33.8683 85.6846 33.7665 85.5759 33.5737 85.3409C33.3821 85.1075 33.1621 84.8256 32.8632 84.4421L29.7082 86.901ZM58.7174 65.5594L55.5625 68.0183C55.7104 68.2081 55.8181 68.3463 55.9079 68.4649C55.9978 68.5833 56.0409 68.6442 56.0601 68.6727C56.0786 68.7 56.0478 68.6577 56.0008 68.5652C55.9495 68.4641 55.8818 68.3092 55.8268 68.1098L59.6826 67.0454L63.5383 65.981C63.3216 65.1959 62.9608 64.5966 62.6901 64.1957C62.4396 63.8247 62.1251 63.4248 61.8724 63.1004L58.7174 65.5594ZM58.1954 69.7698L60.6543 72.9247C60.9787 72.6719 61.3813 72.3609 61.7148 72.0623C62.0752 71.7397 62.5715 71.2466 62.9733 70.5383L59.4942 68.5645L56.0151 66.5907C56.1172 66.4108 56.2207 66.277 56.2951 66.1915C56.3632 66.1133 56.4035 66.0798 56.3788 66.1018C56.3533 66.1247 56.2966 66.1732 56.1805 66.2662C56.0644 66.3591 55.9263 66.4669 55.7365 66.6148L58.1954 69.7698ZM59.6826 67.0454L55.8268 68.1098C55.6856 67.5985 55.7534 67.052 56.0151 66.5907L59.4942 68.5645L62.9733 70.5383C63.7586 69.1542 63.9618 67.5149 63.5383 65.981L59.6826 67.0454ZM54.507 65.0374L56.9659 68.1923C57.1557 68.0444 57.294 67.9367 57.4125 67.8469C57.531 67.757 57.5919 67.7139 57.6203 67.6947C57.6477 67.6762 57.6053 67.707 57.5129 67.7539C57.4118 67.8053 57.2568 67.873 57.0574 67.928L55.993 64.0722L54.9286 60.2164C54.1436 60.4332 53.5442 60.794 53.1434 61.0647C52.7723 61.3152 52.3724 61.6296 52.0481 61.8824L54.507 65.0374ZM58.7174 65.5594L61.8724 63.1004C61.6196 62.7761 61.3085 62.3735 61.0099 62.04C60.6873 61.6796 60.1942 61.1833 59.4859 60.7815L57.5121 64.2606L55.5383 67.7397C55.3584 67.6376 55.2247 67.5341 55.1391 67.4596C55.0609 67.3915 55.0274 67.3513 55.0495 67.3759C55.0723 67.4015 55.1209 67.4582 55.2138 67.5743C55.3068 67.6904 55.4146 67.8285 55.5625 68.0183L58.7174 65.5594ZM55.993 64.0722L57.0574 67.928C56.5461 68.0691 55.9997 68.0014 55.5383 67.7397L57.5121 64.2606L59.4859 60.7815C58.1018 59.9962 56.4625 59.793 54.9286 60.2164L55.993 64.0722ZM43.024 71.4514L39.869 73.9104C41.9061 76.524 45.6762 76.9914 48.2899 74.9544L45.8309 71.7994L43.372 68.6445C44.2432 67.9655 45.4999 68.1213 46.1789 68.9925L43.024 71.4514ZM43.024 71.4514L46.1789 68.9925C46.8579 69.8637 46.7021 71.1204 45.8309 71.7994L43.372 68.6445L40.9131 65.4896C38.2994 67.5266 37.832 71.2967 39.869 73.9104L43.024 71.4514Z" fill="#572217" mask="url(#path-5-outside-1_33_86)"/>
</svg>
