<svg width="100" height="100" viewBox="0 0 100 100" fill="none" xmlns="http://www.w3.org/2000/svg">
<circle cx="50" cy="50" r="42" fill="#FFBA34"/>
<path d="M72.5 62.3214C72.5 77.4106 64.0625 80 50 80C35.9375 80 27.5 77.4106 27.5 62.3214C27.5 47.2322 38.75 35 50 35C61.25 35 72.5 47.2322 72.5 62.3214Z" fill="#E40037"/>
<path d="M44 25.5827C36.5 20.8935 26 24.4202 21.5 30.5001" stroke="#572217" stroke-width="4" stroke-linecap="round"/>
<path d="M56 25.5827C63.5 20.8935 74 24.4202 78.5 30.5001" stroke="#572217" stroke-width="4" stroke-linecap="round"/>
<mask id="path-5-outside-1_33_86" maskUnits="userSpaceOnUse" x="1.59709" y="26.3856" width="71.3102" height="70.4401" fill="black">
<rect fill="white" x="1.59709" y="26.3856" width="71.3102" height="70.4401"/>
<path d="M43.3722 68.6446C42.5009 69.3236 42.3451 70.5803 43.0242 71.4515V71.4515C43.7032 72.3228 44.9599 72.4786 45.8311 71.7996L54.5072 65.0375C55.2422 64.4646 55.6097 64.1782 55.9932 64.0723C56.5045 63.9312 57.0509 63.9989 57.5123 64.2607C57.8583 64.457 58.1447 64.8245 58.7176 65.5595V65.5595C59.2904 66.2945 59.5769 66.662 59.6827 67.0455C59.8239 67.5568 59.7561 68.1032 59.4944 68.5646C59.2981 68.9106 58.9306 69.197 58.1956 69.7699L35.3223 87.5972C33.835 88.7563 33.0914 89.3359 32.2692 89.234C31.4471 89.132 30.8675 88.3884 29.7084 86.9012L17.2028 70.8558C16.7002 70.211 16.449 69.8886 16.3431 69.5051C16.2372 69.1217 16.2875 68.716 16.3881 67.9047L18.2759 52.6779C18.3906 51.753 18.4479 51.2905 18.6443 50.9445C18.906 50.4831 19.3404 50.1446 19.8517 50.0035C20.2353 49.8977 20.6977 49.955 21.6226 50.0698V50.0698C22.5473 50.1846 23.0097 50.242 23.3557 50.4383C23.817 50.7 24.1554 51.1343 24.2965 51.6456C24.4024 52.029 24.345 52.4914 24.2304 53.4161L24.0651 54.7493C23.5594 58.8279 23.3066 60.8672 24.4689 61.5266C25.6313 62.1861 27.2521 60.9228 30.4936 58.3964L45.3674 46.8039C46.1025 46.231 46.47 45.9446 46.8534 45.8387C47.3648 45.6976 47.9112 45.7653 48.3725 46.027C48.7186 46.2233 49.005 46.5908 49.5779 47.3259V47.3259C50.1507 48.0609 50.4371 48.4284 50.543 48.8119C50.6842 49.3232 50.6164 49.8696 50.3547 50.331C50.1584 50.677 49.7909 50.9634 49.0558 51.5363L37.2248 60.7573C36.3536 61.4363 36.1978 62.693 36.8768 63.5642V63.5642C37.5558 64.4354 38.8125 64.5912 39.6838 63.9122L54.6697 52.2323C55.4047 51.6594 55.7722 51.373 56.1557 51.2671C56.667 51.126 57.2135 51.1937 57.6748 51.4555C58.0208 51.6518 58.3073 52.0193 58.8801 52.7543V52.7543C59.453 53.4893 59.7394 53.8568 59.8453 54.2403C59.9864 54.7516 59.9187 55.298 59.6569 55.7594C59.4606 56.1054 59.0931 56.3918 58.3581 56.9647L43.3722 68.6446Z"/>
</mask>
<path d="M43.3722 68.6446C42.5009 69.3236 42.3451 70.5803 43.0242 71.4515V71.4515C43.7032 72.3228 44.9599 72.4786 45.8311 71.7996L54.5072 65.0375C55.2422 64.4646 55.6097 64.1782 55.9932 64.0723C56.5045 63.9312 57.0509 63.9989 57.5123 64.2607C57.8583 64.457 58.1447 64.8245 58.7176 65.5595V65.5595C59.2904 66.2945 59.5769 66.662 59.6827 67.0455C59.8239 67.5568 59.7561 68.1032 59.4944 68.5646C59.2981 68.9106 58.9306 69.197 58.1956 69.7699L35.3223 87.5972C33.835 88.7563 33.0914 89.3359 32.2692 89.234C31.4471 89.132 30.8675 88.3884 29.7084 86.9012L17.2028 70.8558C16.7002 70.211 16.449 69.8886 16.3431 69.5051C16.2372 69.1217 16.2875 68.716 16.3881 67.9047L18.2759 52.6779C18.3906 51.753 18.4479 51.2905 18.6443 50.9445C18.906 50.4831 19.3404 50.1446 19.8517 50.0035C20.2353 49.8977 20.6977 49.955 21.6226 50.0698V50.0698C22.5473 50.1846 23.0097 50.242 23.3557 50.4383C23.817 50.7 24.1554 51.1343 24.2965 51.6456C24.4024 52.029 24.345 52.4914 24.2304 53.4161L24.0651 54.7493C23.5594 58.8279 23.3066 60.8672 24.4689 61.5266C25.6313 62.1861 27.2521 60.9228 30.4936 58.3964L45.3674 46.8039C46.1025 46.231 46.47 45.9446 46.8534 45.8387C47.3648 45.6976 47.9112 45.7653 48.3725 46.027C48.7186 46.2233 49.005 46.5908 49.5779 47.3259V47.3259C50.1507 48.0609 50.4371 48.4284 50.543 48.8119C50.6842 49.3232 50.6164 49.8696 50.3547 50.331C50.1584 50.677 49.7909 50.9634 49.0558 51.5363L37.2248 60.7573C36.3536 61.4363 36.1978 62.693 36.8768 63.5642V63.5642C37.5558 64.4354 38.8125 64.5912 39.6838 63.9122L54.6697 52.2323C55.4047 51.6594 55.7722 51.373 56.1557 51.2671C56.667 51.126 57.2135 51.1937 57.6748 51.4555C58.0208 51.6518 58.3073 52.0193 58.8801 52.7543V52.7543C59.453 53.4893 59.7394 53.8568 59.8453 54.2403C59.9864 54.7516 59.9187 55.298 59.6569 55.7594C59.4606 56.1054 59.0931 56.3918 58.3581 56.9647L43.3722 68.6446Z" fill="#FFBA34"/>
<path d="M59.8453 54.2403L63.7011 53.1759L59.8453 54.2403ZM59.6569 55.7594L56.1778 53.7856L59.6569 55.7594ZM56.1557 51.2671L55.0913 47.4113L56.1557 51.2671ZM57.6748 51.4555L55.701 54.9346L57.6748 51.4555ZM50.543 48.8119L54.3988 47.7474L50.543 48.8119ZM50.3547 50.331L53.8338 52.3047L50.3547 50.331ZM46.8534 45.8387L45.789 41.9829L46.8534 45.8387ZM48.3725 46.027L50.3463 42.5479L48.3725 46.027ZM24.4689 61.5266L26.4427 58.0475L24.4689 61.5266ZM23.3557 50.4383L21.3815 53.9172L21.3815 53.9172L23.3557 50.4383ZM24.2304 53.4161L20.2608 52.924L24.2304 53.4161ZM24.2965 51.6456L20.4407 52.7099L24.2965 51.6456ZM18.6443 50.9445L15.1652 48.9705L18.6443 50.9445ZM19.8517 50.0035L18.7876 46.1476L19.8517 50.0035ZM17.2028 70.8558L14.0478 73.3147L17.2028 70.8558ZM16.3881 67.9047L12.4185 67.4126L16.3881 67.9047ZM16.3431 69.5051L12.4873 70.5696L16.3431 69.5051ZM29.7084 86.9012L32.8633 84.4422L29.7084 86.9012ZM32.2692 89.234L31.7771 93.2036L32.2692 89.234ZM59.6827 67.0455L63.5385 65.9811L59.6827 67.0455ZM59.4944 68.5646L62.9735 70.5384L59.4944 68.5646ZM55.9932 64.0723L54.9288 60.2166L55.9932 64.0723ZM57.5123 64.2607L59.4861 60.7816L57.5123 64.2607ZM45.8311 71.7996L48.29 74.9545L56.9661 68.1924L54.5072 65.0375L52.0482 61.8825L43.3722 68.6446L45.8311 71.7996ZM58.1956 69.7699L55.7366 66.615L32.8633 84.4422L35.3223 87.5972L37.7812 90.7521L60.6545 72.9248L58.1956 69.7699ZM29.7084 86.9012L32.8633 84.4422L20.3577 68.3969L17.2028 70.8558L14.0478 73.3147L26.5534 89.3601L29.7084 86.9012ZM16.3881 67.9047L20.3577 68.3969L22.2455 53.1701L18.2759 52.6779L14.3063 52.1858L12.4185 67.4126L16.3881 67.9047ZM24.2304 53.4161L20.2608 52.924L20.0955 54.2571L24.0651 54.7493L28.0347 55.2414L28.2 53.9083L24.2304 53.4161ZM30.4936 58.3964L32.9526 61.5513L47.8264 49.9588L45.3674 46.8039L42.9085 43.6489L28.0347 55.2414L30.4936 58.3964ZM49.0558 51.5363L46.5969 48.3813L34.7659 57.6023L37.2248 60.7573L39.6838 63.9122L51.5148 54.6912L49.0558 51.5363ZM39.6838 63.9122L42.1427 67.0671L57.1287 55.3872L54.6697 52.2323L52.2108 49.0773L37.2248 60.7573L39.6838 63.9122ZM58.3581 56.9647L55.8992 53.8097L40.9132 65.4897L43.3722 68.6446L45.8311 71.7996L60.8171 60.1196L58.3581 56.9647ZM58.8801 52.7543L55.7252 55.2132C55.8731 55.403 55.9808 55.5412 56.0706 55.6598C56.1605 55.7782 56.2036 55.8391 56.2228 55.8676C56.2413 55.8949 56.2105 55.8526 56.1636 55.7601C56.1122 55.659 56.0445 55.5041 55.9895 55.3047L59.8453 54.2403L63.7011 53.1759C63.4843 52.3908 63.1235 51.7915 62.8528 51.3906C62.6023 51.0196 62.2879 50.6197 62.0351 50.2953L58.8801 52.7543ZM58.3581 56.9647L60.8171 60.1196C61.1414 59.8668 61.544 59.5558 61.8775 59.2572C62.2379 58.9346 62.7342 58.4415 63.136 57.7332L59.6569 55.7594L56.1778 53.7856C56.2799 53.6057 56.3834 53.4719 56.4579 53.3864C56.5259 53.3082 56.5662 53.2747 56.5416 53.2967C56.516 53.3196 56.4593 53.3681 56.3432 53.4611C56.2271 53.554 56.089 53.6618 55.8992 53.8097L58.3581 56.9647ZM59.8453 54.2403L55.9895 55.3047C55.8484 54.7934 55.9161 54.2469 56.1778 53.7856L59.6569 55.7594L63.136 57.7332C63.9213 56.3491 64.1245 54.7098 63.7011 53.1759L59.8453 54.2403ZM54.6697 52.2323L57.1287 55.3872C57.3184 55.2393 57.4567 55.1316 57.5752 55.0418C57.6937 54.9519 57.7546 54.9088 57.783 54.8896C57.8104 54.8711 57.7681 54.9019 57.6756 54.9488C57.5745 55.0002 57.4195 55.0679 57.2201 55.1229L56.1557 51.2671L55.0913 47.4113C54.3063 47.6281 53.7069 47.9889 53.3061 48.2596C52.9351 48.5101 52.5351 48.8245 52.2108 49.0773L54.6697 52.2323ZM58.8801 52.7543L62.0351 50.2953C61.7823 49.971 61.4713 49.5684 61.1726 49.2349C60.85 48.8745 60.3569 48.3782 59.6486 47.9764L57.6748 51.4555L55.701 54.9346C55.5211 54.8325 55.3874 54.729 55.3019 54.6545C55.2237 54.5864 55.1901 54.5462 55.2122 54.5708C55.2351 54.5964 55.2836 54.6531 55.3765 54.7692C55.4695 54.8853 55.5773 55.0234 55.7252 55.2132L58.8801 52.7543ZM56.1557 51.2671L57.2201 55.1229C56.7088 55.264 56.1624 55.1963 55.701 54.9346L57.6748 51.4555L59.6486 47.9764C58.2645 47.1911 56.6252 46.9879 55.0913 47.4113L56.1557 51.2671ZM36.8768 63.5642L33.7219 66.0231C35.7589 68.6368 39.5291 69.1042 42.1427 67.0671L39.6838 63.9122L37.2248 60.7573C38.096 60.0782 39.3527 60.2341 40.0318 61.1053L36.8768 63.5642ZM37.2248 60.7573L34.7659 57.6023C32.1523 59.6394 31.6848 63.4095 33.7219 66.0231L36.8768 63.5642L40.0318 61.1053C40.7108 61.9765 40.555 63.2332 39.6838 63.9122L37.2248 60.7573ZM49.5779 47.3259L46.4229 49.7848C46.5708 49.9746 46.6785 50.1128 46.7684 50.2313C46.8582 50.3498 46.9013 50.4107 46.9205 50.4391C46.939 50.4665 46.9082 50.4242 46.8613 50.3317C46.81 50.2306 46.7423 50.0757 46.6872 49.8763L50.543 48.8119L54.3988 47.7474C54.1821 46.9624 53.8212 46.3631 53.5506 45.9622C53.3 45.5912 52.9856 45.1913 52.7328 44.8669L49.5779 47.3259ZM49.0558 51.5363L51.5148 54.6912C51.8391 54.4384 52.2417 54.1274 52.5753 53.8288C52.9356 53.5062 53.4319 53.0131 53.8338 52.3047L50.3547 50.331L46.8756 48.3572C46.9776 48.1773 47.0811 48.0435 47.1556 47.958C47.2237 47.8798 47.2639 47.8463 47.2393 47.8683C47.2137 47.8912 47.157 47.9397 47.041 48.0327C46.9249 48.1256 46.7867 48.2334 46.5969 48.3813L49.0558 51.5363ZM50.543 48.8119L46.6872 49.8763C46.5461 49.365 46.6138 48.8185 46.8756 48.3572L50.3547 50.331L53.8338 52.3047C54.619 50.9207 54.8222 49.2814 54.3988 47.7474L50.543 48.8119ZM45.3674 46.8039L47.8264 49.9588C48.0162 49.8109 48.1544 49.7032 48.2729 49.6133C48.3914 49.5235 48.4523 49.4804 48.4807 49.4612C48.5081 49.4427 48.4658 49.4735 48.3733 49.5204C48.2722 49.5717 48.1172 49.6394 47.9179 49.6945L46.8534 45.8387L45.789 41.9829C45.004 42.1996 44.4047 42.5605 44.0038 42.8311C43.6328 43.0817 43.2329 43.3961 42.9085 43.6489L45.3674 46.8039ZM49.5779 47.3259L52.7328 44.8669C52.48 44.5426 52.169 44.14 51.8704 43.8064C51.5477 43.4461 51.0547 42.9498 50.3463 42.5479L48.3725 46.027L46.3988 49.5061C46.2188 49.4041 46.0851 49.3006 45.9996 49.2261C45.9214 49.158 45.8879 49.1178 45.9099 49.1424C45.9328 49.168 45.9813 49.2247 46.0742 49.3407C46.1672 49.4568 46.275 49.595 46.4229 49.7848L49.5779 47.3259ZM46.8534 45.8387L47.9179 49.6945C47.4065 49.8356 46.8601 49.7679 46.3988 49.5061L48.3725 46.027L50.3463 42.5479C48.9623 41.7627 47.323 41.5595 45.789 41.9829L46.8534 45.8387ZM24.0651 54.7493L20.0955 54.2571C19.8592 56.1633 19.6172 58.0348 19.6421 59.4887C19.6643 60.7849 19.9015 63.5343 22.4951 65.0057L24.4689 61.5266L26.4427 58.0475C27.0819 58.4102 27.4376 58.9574 27.5844 59.3446C27.6885 59.6191 27.6469 59.702 27.6409 59.3517C27.6355 59.0323 27.6603 58.5547 27.732 57.8299C27.8028 57.1144 27.9064 56.2761 28.0347 55.2414L24.0651 54.7493ZM30.4936 58.3964L28.0347 55.2414C27.2124 55.8823 26.546 56.4014 25.9682 56.8292C25.3827 57.2626 24.9856 57.5289 24.7086 57.6881C24.4048 57.8626 24.4547 57.7844 24.7437 57.7329C25.1513 57.6604 25.8035 57.6849 26.4427 58.0475L24.4689 61.5266L22.4951 65.0057C25.0888 66.4772 27.5705 65.2703 28.6945 64.6244C29.9553 63.8999 31.4376 62.7321 32.9526 61.5513L30.4936 58.3964ZM21.6226 50.0698L21.13 54.0394C21.3688 54.069 21.5427 54.0907 21.69 54.1109C21.8373 54.1312 21.9108 54.1437 21.9445 54.1503C21.9769 54.1566 21.9252 54.1484 21.8266 54.1162C21.7189 54.081 21.5614 54.0193 21.3815 53.9172L23.3557 50.4383L25.3298 46.9594C24.6215 46.5575 23.9427 46.3888 23.4678 46.2967C23.0284 46.2114 22.5233 46.1509 22.1152 46.1003L21.6226 50.0698ZM24.2304 53.4161L28.2 53.9083C28.2506 53.5002 28.3153 52.9957 28.34 52.5487C28.3667 52.0657 28.369 51.3662 28.1523 50.5812L24.2965 51.6456L20.4407 52.7099C20.3857 52.5105 20.3643 52.3428 20.3565 52.2297C20.3493 52.1262 20.3541 52.0741 20.3522 52.1071C20.3503 52.1413 20.3446 52.2157 20.3282 52.3635C20.3119 52.5113 20.2904 52.6852 20.2608 52.924L24.2304 53.4161ZM23.3557 50.4383L21.3815 53.9172C20.9203 53.6554 20.5818 53.2212 20.4407 52.7099L24.2965 51.6456L28.1523 50.5812C27.7289 49.0475 26.7137 47.7447 25.3298 46.9594L23.3557 50.4383ZM18.2759 52.6779L22.2455 53.1701C22.2751 52.9312 22.2968 52.7573 22.317 52.6099C22.3373 52.4626 22.3498 52.389 22.3564 52.3554C22.3627 52.3229 22.3545 52.3746 22.3223 52.4732C22.2871 52.581 22.2254 52.7385 22.1233 52.9184L18.6443 50.9445L15.1652 48.9705C14.7633 49.6789 14.5946 50.358 14.5026 50.8329C14.4174 51.2724 14.3569 51.7776 14.3063 52.1858L18.2759 52.6779ZM21.6226 50.0698L22.1152 46.1003C21.7071 46.0496 21.2024 45.9848 20.7554 45.9601C20.2724 45.9333 19.5727 45.931 18.7876 46.1476L19.8517 50.0035L20.9158 53.8594C20.7164 53.9144 20.5487 53.9358 20.4355 53.9436C20.3321 53.9507 20.2799 53.946 20.3129 53.9478C20.3472 53.9497 20.4216 53.9555 20.5694 53.9719C20.7173 53.9882 20.8912 54.0097 21.13 54.0394L21.6226 50.0698ZM18.6443 50.9445L22.1233 52.9184C21.8615 53.3798 21.4272 53.7182 20.9158 53.8594L19.8517 50.0035L18.7876 46.1476C17.2536 46.571 15.9506 47.5864 15.1652 48.9705L18.6443 50.9445ZM17.2028 70.8558L20.3577 68.3969C20.294 68.3151 20.2393 68.2449 20.1889 68.1799C20.1389 68.1152 20.0977 68.0616 20.0627 68.0152C20.0277 67.9688 20.0024 67.9346 19.984 67.909C19.9656 67.8835 19.9575 67.8714 19.9564 67.8698C19.9532 67.8649 19.9913 67.9213 20.0415 68.0234C20.0673 68.0758 20.0955 68.1388 20.1234 68.2114C20.1514 68.2843 20.1769 68.3611 20.1989 68.4407L16.3431 69.5051L12.4873 70.5696C12.8541 71.8983 13.7459 72.9274 14.0478 73.3147L17.2028 70.8558ZM16.3881 67.9047L12.4185 67.4126C12.3581 67.9 12.1205 69.2408 12.4873 70.5696L16.3431 69.5051L20.1989 68.4407C20.2209 68.5203 20.2384 68.5993 20.2517 68.6763C20.265 68.7529 20.2731 68.8215 20.2779 68.8797C20.2872 68.993 20.2834 69.061 20.2837 69.0552C20.2838 69.0532 20.2845 69.0387 20.2872 69.0074C20.2899 68.976 20.294 68.9336 20.3003 68.8758C20.3066 68.8181 20.3144 68.751 20.3242 68.6697C20.334 68.588 20.345 68.4998 20.3577 68.3969L16.3881 67.9047ZM35.3223 87.5972L32.8633 84.4422C32.4798 84.7412 32.1976 84.9607 31.9548 85.1403C31.7104 85.3211 31.5852 85.4016 31.5297 85.434C31.4765 85.4651 31.5837 85.3941 31.8103 85.331C32.0702 85.2586 32.4021 85.2198 32.7614 85.2644L32.2692 89.234L31.7771 93.2036C33.4051 93.4054 34.7019 92.8456 35.563 92.3429C36.3238 91.8988 37.1268 91.2622 37.7812 90.7521L35.3223 87.5972ZM29.7084 86.9012L26.5534 89.3601C27.0635 90.0145 27.6867 90.828 28.316 91.4445C29.0283 92.1422 30.1491 93.0017 31.7771 93.2036L32.2692 89.234L32.7614 85.2644C33.1207 85.3089 33.4331 85.4276 33.6674 85.5612C33.8717 85.6778 33.9584 85.7728 33.9144 85.7297C33.8685 85.6847 33.7667 85.576 33.5738 85.341C33.3822 85.1076 33.1623 84.8258 32.8633 84.4422L29.7084 86.9012ZM58.7176 65.5595L55.5626 68.0184C55.7106 68.2082 55.8182 68.3465 55.9081 68.465C55.9979 68.5834 56.0411 68.6443 56.0603 68.6728C56.0788 68.7002 56.0479 68.6578 56.001 68.5654C55.9497 68.4643 55.882 68.3093 55.827 68.1099L59.6827 67.0455L63.5385 65.9811C63.3218 65.196 62.961 64.5967 62.6903 64.1958C62.4398 63.8248 62.1253 63.4249 61.8725 63.1006L58.7176 65.5595ZM58.1956 69.7699L60.6545 72.9248C60.9788 72.672 61.3814 72.361 61.715 72.0624C62.0754 71.7398 62.5716 71.2467 62.9735 70.5384L59.4944 68.5646L56.0153 66.5908C56.1174 66.4109 56.2208 66.2771 56.2953 66.1916C56.3634 66.1134 56.4036 66.0799 56.379 66.1019C56.3534 66.1248 56.2967 66.1734 56.1807 66.2663C56.0646 66.3593 55.9264 66.467 55.7366 66.615L58.1956 69.7699ZM59.6827 67.0455L55.827 68.1099C55.6858 67.5986 55.7536 67.0522 56.0153 66.5908L59.4944 68.5646L62.9735 70.5384C63.7587 69.1543 63.962 67.515 63.5385 65.9811L59.6827 67.0455ZM54.5072 65.0375L56.9661 68.1924C57.1559 68.0445 57.2941 67.9368 57.4127 67.847C57.5311 67.7571 57.592 67.714 57.6205 67.6948C57.6478 67.6763 57.6055 67.7071 57.513 67.7541C57.4119 67.8054 57.257 67.8731 57.0576 67.9281L55.9932 64.0723L54.9288 60.2166C54.1437 60.4333 53.5444 60.7941 53.1435 61.0648C52.7725 61.3153 52.3726 61.6298 52.0482 61.8825L54.5072 65.0375ZM58.7176 65.5595L61.8725 63.1006C61.6197 62.7762 61.3087 62.3736 61.0101 62.0401C60.6875 61.6797 60.1944 61.1834 59.4861 60.7816L57.5123 64.2607L55.5385 67.7398C55.3586 67.6377 55.2248 67.5342 55.1393 67.4598C55.0611 67.3917 55.0276 67.3514 55.0496 67.3761C55.0725 67.4016 55.121 67.4583 55.214 67.5744C55.3069 67.6905 55.4147 67.8286 55.5626 68.0184L58.7176 65.5595ZM55.9932 64.0723L57.0576 67.9281C56.5463 68.0693 55.9998 68.0015 55.5385 67.7398L57.5123 64.2607L59.4861 60.7816C58.102 59.9963 56.4627 59.7931 54.9288 60.2166L55.9932 64.0723ZM43.0242 71.4515L39.8692 73.9105C41.9063 76.5241 45.6764 76.9915 48.29 74.9545L45.8311 71.7996L43.3722 68.6446C44.2434 67.9656 45.5001 68.1214 46.1791 68.9926L43.0242 71.4515ZM43.0242 71.4515L46.1791 68.9926C46.8581 69.8638 46.7023 71.1205 45.8311 71.7996L43.3722 68.6446L40.9132 65.4897C38.2996 67.5267 37.8322 71.2968 39.8692 73.9105L43.0242 71.4515Z" fill="#572217" mask="url(#path-5-outside-1_33_86)"/>
</svg>
