<svg width="100" height="100" viewBox="0 0 100 100" fill="none" xmlns="http://www.w3.org/2000/svg">
<circle cx="50" cy="50" r="42" fill="#FFBA34"/>
<path d="M72.5 62.3214C72.5 77.4106 64.0625 80 50 80C35.9375 80 27.5 77.4106 27.5 62.3214C27.5 47.2322 38.75 35 50 35C61.25 35 72.5 47.2322 72.5 62.3214Z" fill="#E40037"/>
<path d="M44 25.5826C36.5 20.8934 26 24.42 21.5 30.5" stroke="#572217" stroke-width="4" stroke-linecap="round"/>
<path d="M56 25.5826C63.5 20.8934 74 24.42 78.5 30.5" stroke="#572217" stroke-width="4" stroke-linecap="round"/>
<mask id="path-5-outside-1_33_86" maskUnits="userSpaceOnUse" x="1.59715" y="26.3861" width="71.3102" height="70.4401" fill="black">
<rect fill="white" x="1.59715" y="26.3861" width="71.3102" height="70.4401"/>
<path d="M43.3717 68.6445C42.5005 69.3235 42.3447 70.5802 43.0237 71.4514C43.7028 72.3226 44.9595 72.4785 45.8307 71.7994L54.5068 65.0374C55.2418 64.4645 55.6093 64.1781 55.9928 64.0722C56.5041 63.9311 57.0505 63.9988 57.5119 64.2606C57.8579 64.4569 58.1443 64.8244 58.7172 65.5594C59.29 66.2944 59.5765 66.6619 59.6823 67.0454C59.8235 67.5567 59.7557 68.1031 59.494 68.5645C59.2977 68.9105 58.9302 69.1969 58.1952 69.7698L35.3219 87.597C33.8346 88.7562 33.091 89.3358 32.2688 89.2338C31.4467 89.1319 30.8671 88.3883 29.708 86.901L17.2024 70.8558C16.6998 70.2109 16.4486 69.8885 16.3427 69.505C16.2368 69.1215 16.2872 68.7159 16.3878 67.9045L18.2761 52.6778C18.3908 51.7533 18.4481 51.291 18.6443 50.9451C18.9061 50.4836 19.3405 50.145 19.852 50.0039C20.2353 49.8981 20.6976 49.9554 21.6221 50.07C22.5467 50.1847 23.0089 50.242 23.3549 50.4382C23.8164 50.7 24.155 51.1344 24.2961 51.6459C24.4019 52.0292 24.3446 52.4915 24.23 53.4161L24.0647 54.7492C23.559 58.8278 23.3062 60.8671 24.4685 61.5265C25.6309 62.186 27.2517 60.9227 30.4932 58.3963L45.367 46.8037C46.102 46.2309 46.4696 45.9444 46.853 45.8386C47.3643 45.6974 47.9108 45.7652 48.3721 46.0269C48.7182 46.2232 49.0046 46.5907 49.5774 47.3257C50.1503 48.0608 50.4367 48.4283 50.5426 48.8117C50.6837 49.323 50.616 49.8695 50.3543 50.3308C50.158 50.6769 49.7904 50.9633 49.0554 51.5361L37.2244 60.7571C36.3532 61.4362 36.1974 62.6929 36.8764 63.5641C37.5554 64.4353 38.8121 64.5911 39.6833 63.9121L54.6693 52.2322C55.4043 51.6593 55.7718 51.3729 56.1553 51.267C56.6666 51.1259 57.2131 51.1936 57.6744 51.4553C58.0204 51.6516 58.3069 52.0192 58.8797 52.7542C59.4526 53.4892 59.739 53.8567 59.8449 54.2402C59.986 54.7515 59.9183 55.2979 59.6565 55.7593C59.4602 56.1053 59.0927 56.3917 58.3577 56.9646L43.3717 68.6445Z"/>
</mask>
<path d="M43.3717 68.6445C42.5005 69.3235 42.3447 70.5802 43.0237 71.4514C43.7028 72.3226 44.9595 72.4785 45.8307 71.7994L54.5068 65.0374C55.2418 64.4645 55.6093 64.1781 55.9928 64.0722C56.5041 63.9311 57.0505 63.9988 57.5119 64.2606C57.8579 64.4569 58.1443 64.8244 58.7172 65.5594C59.29 66.2944 59.5765 66.6619 59.6823 67.0454C59.8235 67.5567 59.7557 68.1031 59.494 68.5645C59.2977 68.9105 58.9302 69.1969 58.1952 69.7698L35.3219 87.597C33.8346 88.7562 33.091 89.3358 32.2688 89.2338C31.4467 89.1319 30.8671 88.3883 29.708 86.901L17.2024 70.8558C16.6998 70.2109 16.4486 69.8885 16.3427 69.505C16.2368 69.1215 16.2872 68.7159 16.3878 67.9045L18.2761 52.6778C18.3908 51.7533 18.4481 51.291 18.6443 50.9451C18.9061 50.4836 19.3405 50.145 19.852 50.0039C20.2353 49.8981 20.6976 49.9554 21.6221 50.07C22.5467 50.1847 23.0089 50.242 23.3549 50.4382C23.8164 50.7 24.155 51.1344 24.2961 51.6459C24.4019 52.0292 24.3446 52.4915 24.23 53.4161L24.0647 54.7492C23.559 58.8278 23.3062 60.8671 24.4685 61.5265C25.6309 62.186 27.2517 60.9227 30.4932 58.3963L45.367 46.8037C46.102 46.2309 46.4696 45.9444 46.853 45.8386C47.3643 45.6974 47.9108 45.7652 48.3721 46.0269C48.7182 46.2232 49.0046 46.5907 49.5774 47.3257C50.1503 48.0608 50.4367 48.4283 50.5426 48.8117C50.6837 49.323 50.616 49.8695 50.3543 50.3308C50.158 50.6769 49.7904 50.9633 49.0554 51.5361L37.2244 60.7571C36.3532 61.4362 36.1974 62.6929 36.8764 63.5641C37.5554 64.4353 38.8121 64.5911 39.6833 63.9121L54.6693 52.2322C55.4043 51.6593 55.7718 51.3729 56.1553 51.267C56.6666 51.1259 57.2131 51.1936 57.6744 51.4553C58.0204 51.6516 58.3069 52.0192 58.8797 52.7542C59.4526 53.4892 59.739 53.8567 59.8449 54.2402C59.986 54.7515 59.9183 55.2979 59.6565 55.7593C59.4602 56.1053 59.0927 56.3917 58.3577 56.9646L43.3717 68.6445Z" fill="#FFBA34"/>
<path d="M59.8449 54.2402L55.9891 55.3046L59.8449 54.2402ZM59.6565 55.7593L56.1774 53.7855L59.6565 55.7593ZM56.1553 51.267L55.0909 47.4112L56.1553 51.267ZM50.5426 48.8117L46.6868 49.8762L50.5426 48.8117ZM46.853 45.8386L45.7886 41.9828L46.853 45.8386ZM48.3721 46.0269L46.3983 49.506L48.3721 46.0269ZM24.4685 61.5265L26.4423 58.0474L24.4685 61.5265ZM23.3549 50.4382L25.3283 46.9589L23.3549 50.4382ZM24.23 53.4161L20.2604 52.9239L24.23 53.4161ZM24.2961 51.6459L20.4402 52.7099L24.2961 51.6459ZM19.852 50.0039L20.9159 53.8598L19.852 50.0039ZM17.2024 70.8558L20.3574 68.3968L17.2024 70.8558ZM16.3878 67.9045L20.3574 68.3968L16.3878 67.9045ZM16.3427 69.505L20.1985 68.4407L16.3427 69.505ZM35.3219 87.597L32.8629 84.4421L35.3219 87.597ZM29.708 86.901L32.8629 84.4421L29.708 86.901ZM32.2688 89.2338L31.7767 93.2035L32.2688 89.2338ZM59.6823 67.0454L63.5381 65.981L59.6823 67.0454ZM58.1952 69.7698L55.7362 66.6148L58.1952 69.7698ZM59.494 68.5645L56.0149 66.5907L59.494 68.5645ZM54.5068 65.0374L56.9657 68.1923L54.5068 65.0374ZM55.9928 64.0722L57.0572 67.928L55.9928 64.0722ZM57.5119 64.2606L55.5381 67.7397L57.5119 64.2606ZM45.8307 71.7994L48.2896 74.9544L45.8307 71.7994ZM45.8307 71.7994L48.2896 74.9544L56.9657 68.1923L54.5068 65.0374L52.0478 61.8824L43.3717 68.6445L45.8307 71.7994ZM58.1952 69.7698L55.7362 66.6148L32.8629 84.4421L35.3219 87.597L37.7808 90.752L60.6541 72.9247L58.1952 69.7698ZM29.708 86.901L32.8629 84.4421L20.3574 68.3968L17.2024 70.8558L14.0475 73.3147L26.553 89.36L29.708 86.901ZM16.3878 67.9045L20.3574 68.3968L22.2457 53.1701L18.2761 52.6778L14.3065 52.1855L12.4182 67.4122L16.3878 67.9045ZM24.23 53.4161L20.2604 52.9239L20.0951 54.257L24.0647 54.7492L28.0343 55.2413L28.1996 53.9082L24.23 53.4161ZM30.4932 58.3963L32.9522 61.5512L47.826 49.9587L45.367 46.8037L42.9081 43.6488L28.0343 55.2413L30.4932 58.3963ZM49.0554 51.5361L46.5965 48.3812L34.7655 57.6022L37.2244 60.7571L39.6833 63.9121L51.5144 54.6911L49.0554 51.5361ZM39.6833 63.9121L42.1423 67.067L57.1282 55.3871L54.6693 52.2322L52.2104 49.0772L37.2244 60.7571L39.6833 63.9121ZM58.3577 56.9646L55.8988 53.8096L40.9128 65.4896L43.3717 68.6445L45.8307 71.7994L60.8166 60.1195L58.3577 56.9646ZM58.8797 52.7542L55.7248 55.2131C55.8727 55.4029 55.9804 55.5411 56.0702 55.6596C56.1601 55.7781 56.2032 55.839 56.2224 55.8674C56.2409 55.8948 56.2101 55.8525 56.1632 55.76C56.1118 55.6589 56.0441 55.504 55.9891 55.3046L59.8449 54.2402L63.7006 53.1757C63.4839 52.3907 63.1231 51.7914 62.8524 51.3905C62.6019 51.0195 62.2874 50.6196 62.0347 50.2952L58.8797 52.7542ZM58.3577 56.9646L60.8166 60.1195C61.141 59.8667 61.5436 59.5557 61.8771 59.2571C62.2375 58.9345 62.7338 58.4414 63.1356 57.733L59.6565 55.7593L56.1774 53.7855C56.2795 53.6056 56.383 53.4718 56.4574 53.3863C56.5255 53.3081 56.5658 53.2746 56.5411 53.2966C56.5156 53.3195 56.4589 53.368 56.3428 53.461C56.2267 53.5539 56.0886 53.6617 55.8988 53.8096L58.3577 56.9646ZM59.8449 54.2402L55.9891 55.3046C55.8479 54.7933 55.9157 54.2468 56.1774 53.7855L59.6565 55.7593L63.1356 57.733C63.9209 56.349 64.1241 54.7097 63.7006 53.1757L59.8449 54.2402ZM54.6693 52.2322L57.1282 55.3871C57.318 55.2392 57.4563 55.1315 57.5748 55.0416C57.6933 54.9518 57.7542 54.9087 57.7826 54.8895C57.81 54.871 57.7677 54.9018 57.6752 54.9487C57.5741 55 57.4191 55.0677 57.2197 55.1228L56.1553 51.267L55.0909 47.4112C54.3059 47.6279 53.7065 47.9888 53.3057 48.2595C52.9346 48.51 52.5347 48.8244 52.2104 49.0772L54.6693 52.2322ZM58.8797 52.7542L62.0347 50.2952C61.7819 49.9709 61.4708 49.5683 61.1722 49.2347C60.8496 48.8744 60.3565 48.3781 59.6482 47.9762L57.6744 51.4553L55.7006 54.9344C55.5207 54.8324 55.387 54.7289 55.3015 54.6544C55.2232 54.5863 55.1897 54.5461 55.2118 54.5707C55.2346 54.5963 55.2832 54.653 55.3761 54.769C55.4691 54.8851 55.5769 55.0233 55.7248 55.2131L58.8797 52.7542ZM56.1553 51.267L57.2197 55.1228C56.7084 55.2639 56.162 55.1962 55.7006 54.9344L57.6744 51.4553L59.6482 47.9762C58.2641 47.191 56.6248 46.9878 55.0909 47.4112L56.1553 51.267ZM36.8764 63.5641L33.7215 66.023C35.7585 68.6367 39.5286 69.1041 42.1423 67.067L39.6833 63.9121L37.2244 60.7571C38.0956 60.0781 39.3523 60.2339 40.0314 61.1052L36.8764 63.5641ZM37.2244 60.7571L34.7655 57.6022C32.1518 59.6393 31.6844 63.4094 33.7215 66.023L36.8764 63.5641L40.0314 61.1052C40.7104 61.9764 40.5546 63.2331 39.6833 63.9121L37.2244 60.7571ZM49.5774 47.3257L46.4225 49.7847C46.5704 49.9745 46.6781 50.1127 46.768 50.2312C46.8578 50.3497 46.9009 50.4106 46.9201 50.439C46.9386 50.4664 46.9078 50.4241 46.8609 50.3316C46.8096 50.2305 46.7419 50.0755 46.6868 49.8762L50.5426 48.8117L54.3984 47.7473C54.1817 46.9623 53.8208 46.363 53.5501 45.9621C53.2996 45.5911 52.9852 45.1911 52.7324 44.8668L49.5774 47.3257ZM49.0554 51.5361L51.5144 54.6911C51.8387 54.4383 52.2413 54.1273 52.5749 53.8287C52.9352 53.506 53.4315 53.013 53.8334 52.3046L50.3543 50.3308L46.8752 48.357C46.9772 48.1771 47.0807 48.0434 47.1552 47.9579C47.2233 47.8797 47.2635 47.8462 47.2389 47.8682C47.2133 47.8911 47.1566 47.9396 47.0406 48.0325C46.9245 48.1255 46.7863 48.2333 46.5965 48.3812L49.0554 51.5361ZM50.5426 48.8117L46.6868 49.8762C46.5457 49.3648 46.6134 48.8184 46.8752 48.357L50.3543 50.3308L53.8334 52.3046C54.6186 50.9206 54.8218 49.2812 54.3984 47.7473L50.5426 48.8117ZM45.367 46.8037L47.826 49.9587C48.0158 49.8108 48.154 49.7031 48.2725 49.6132C48.391 49.5234 48.4519 49.4802 48.4803 49.461C48.5077 49.4426 48.4654 49.4734 48.3729 49.5203C48.2718 49.5716 48.1168 49.6393 47.9174 49.6944L46.853 45.8386L45.7886 41.9828C45.0036 42.1995 44.4043 42.5603 44.0034 42.831C43.6324 43.0816 43.2324 43.396 42.9081 43.6488L45.367 46.8037ZM49.5774 47.3257L52.7324 44.8668C52.4796 44.5425 52.1686 44.1399 51.87 43.8063C51.5473 43.4459 51.0543 42.9497 50.3459 42.5478L48.3721 46.0269L46.3983 49.506C46.2184 49.404 46.0847 49.3005 45.9992 49.226C45.921 49.1579 45.8874 49.1177 45.9095 49.1423C45.9324 49.1679 45.9809 49.2246 46.0738 49.3406C46.1668 49.4567 46.2746 49.5949 46.4225 49.7847L49.5774 47.3257ZM46.853 45.8386L47.9174 49.6944C47.4061 49.8355 46.8597 49.7678 46.3983 49.506L48.3721 46.0269L50.3459 42.5478C48.9619 41.7626 47.3225 41.5594 45.7886 41.9828L46.853 45.8386ZM24.0647 54.7492L20.0951 54.257C19.8588 56.1632 19.6168 58.0347 19.6417 59.4885C19.6639 60.7848 19.901 63.5342 22.4947 65.0056L24.4685 61.5265L26.4423 58.0474C27.0815 58.4101 27.4372 58.9573 27.584 59.3445C27.6881 59.619 27.6465 59.7019 27.6405 59.3516C27.6351 59.0322 27.6599 58.5546 27.7316 57.8297C27.8024 57.1143 27.906 56.276 28.0343 55.2413L24.0647 54.7492ZM30.4932 58.3963L28.0343 55.2413C27.212 55.8822 26.5456 56.4013 25.9678 56.8291C25.3823 57.2625 24.9852 57.5288 24.7082 57.688C24.4044 57.8625 24.4542 57.7843 24.7433 57.7328C25.1509 57.6603 25.8031 57.6848 26.4423 58.0474L24.4685 61.5265L22.4947 65.0056C25.0884 66.4771 27.5701 65.2702 28.6941 64.6242C29.9549 63.8998 31.4372 62.732 32.9522 61.5512L30.4932 58.3963ZM21.6221 50.07L21.13 54.0397C21.3687 54.0693 21.5425 54.0909 21.6898 54.1111C21.8371 54.1313 21.9106 54.1439 21.9443 54.1504C21.9767 54.1567 21.925 54.1486 21.8265 54.1164C21.7187 54.0812 21.5613 54.0195 21.3815 53.9175L23.3549 50.4382L25.3283 46.9589C24.6201 46.5572 23.9414 46.3886 23.4666 46.2966C23.0272 46.2115 22.5222 46.151 22.1143 46.1004L21.6221 50.07ZM24.23 53.4161L28.1996 53.9082C28.2502 53.5002 28.3149 52.9958 28.3396 52.5489C28.3663 52.0661 28.3686 51.3667 28.152 50.5818L24.2961 51.6459L20.4402 52.7099C20.3852 52.5105 20.3638 52.3428 20.356 52.2297C20.3489 52.1263 20.3536 52.0742 20.3518 52.1072C20.3499 52.1414 20.3441 52.2158 20.3278 52.3635C20.3114 52.5113 20.29 52.6852 20.2604 52.9239L24.23 53.4161ZM23.3549 50.4382L21.3815 53.9175C20.9199 53.6557 20.5814 53.2213 20.4402 52.7099L24.2961 51.6459L28.152 50.5818C27.7286 49.0475 26.7128 47.7442 25.3283 46.9589L23.3549 50.4382ZM18.2761 52.6778L22.2457 53.1701C22.2753 52.9314 22.2969 52.7575 22.3172 52.6102C22.3374 52.463 22.35 52.3894 22.3565 52.3558C22.3628 52.3233 22.3547 52.375 22.3225 52.4736C22.2873 52.5813 22.2256 52.7387 22.1236 52.9186L18.6443 50.9451L15.1651 48.9716C14.7634 49.6797 14.5948 50.3585 14.5027 50.8332C14.4176 51.2726 14.3571 51.7776 14.3065 52.1855L18.2761 52.6778ZM21.6221 50.07L22.1143 46.1004C21.7063 46.0499 21.2018 45.9851 20.755 45.9604C20.2722 45.9337 19.5728 45.9314 18.788 46.148L19.852 50.0039L20.9159 53.8598C20.7166 53.9148 20.5489 53.9362 20.4358 53.944C20.3324 53.9511 20.2803 53.9464 20.3132 53.9482C20.3475 53.9501 20.4219 53.9559 20.5696 53.9722C20.7174 53.9886 20.8912 54.0101 21.13 54.0397L21.6221 50.07ZM18.6443 50.9451L22.1236 52.9186C21.8618 53.3801 21.4274 53.7187 20.9159 53.8598L19.852 50.0039L18.788 46.148C17.2536 46.5714 15.9504 47.5871 15.1651 48.9716L18.6443 50.9451ZM17.2024 70.8558L20.3574 68.3968C20.2936 68.315 20.2389 68.2449 20.1886 68.1798C20.1385 68.1151 20.0974 68.0615 20.0623 68.0151C20.0273 67.9688 20.002 67.9345 19.9836 67.9089C19.9652 67.8834 19.9571 67.8713 19.9561 67.8697C19.9528 67.8648 19.991 67.9213 20.0411 68.0233C20.0669 68.0758 20.0951 68.1388 20.123 68.2113C20.151 68.2843 20.1765 68.3611 20.1985 68.4407L16.3427 69.505L12.4869 70.5694C12.8537 71.8982 13.7456 72.9273 14.0475 73.3147L17.2024 70.8558ZM16.3878 67.9045L12.4182 67.4122C12.3577 67.8997 12.1201 69.2405 12.4869 70.5694L16.3427 69.505L20.1985 68.4407C20.2205 68.5203 20.238 68.5993 20.2514 68.6763C20.2646 68.7529 20.2727 68.8214 20.2775 68.8797C20.2868 68.993 20.283 69.061 20.2833 69.0552C20.2834 69.0532 20.2841 69.0387 20.2868 69.0073C20.2895 68.976 20.2936 68.9336 20.2999 68.8758C20.3062 68.818 20.314 68.7509 20.3238 68.6697C20.3337 68.588 20.3446 68.4997 20.3574 68.3968L16.3878 67.9045ZM35.3219 87.597L32.8629 84.4421C32.4794 84.741 32.1972 84.9606 31.9544 85.1402C31.71 85.3209 31.5848 85.4015 31.5293 85.4339C31.476 85.465 31.5833 85.394 31.8099 85.3309C32.0698 85.2585 32.4017 85.2197 32.761 85.2642L32.2688 89.2338L31.7767 93.2035C33.4047 93.4053 34.7015 92.8455 35.5625 92.3428C36.3234 91.8987 37.1263 91.2621 37.7808 90.752L35.3219 87.597ZM29.708 86.901L26.553 89.36C27.0631 90.0144 27.6863 90.8278 28.3156 91.4443C29.0279 92.1421 30.1487 93.0016 31.7767 93.2035L32.2688 89.2338L32.761 85.2642C33.1203 85.3088 33.4327 85.4274 33.667 85.5611C33.8713 85.6777 33.958 85.7727 33.914 85.7295C33.868 85.6846 33.7663 85.5759 33.5734 85.3409C33.3818 85.1075 33.1618 84.8256 32.8629 84.4421L29.708 86.901ZM58.7172 65.5594L55.5622 68.0183C55.7101 68.2081 55.8178 68.3463 55.9077 68.4649C55.9975 68.5833 56.0407 68.6442 56.0599 68.6727C56.0784 68.7 56.0475 68.6577 56.0006 68.5652C55.9493 68.4641 55.8816 68.3092 55.8265 68.1098L59.6823 67.0454L63.5381 65.981C63.3214 65.1959 62.9606 64.5966 62.6899 64.1957C62.4393 63.8247 62.1249 63.4248 61.8721 63.1004L58.7172 65.5594ZM58.1952 69.7698L60.6541 72.9247C60.9784 72.6719 61.381 72.3609 61.7146 72.0623C62.075 71.7397 62.5712 71.2466 62.9731 70.5383L59.494 68.5645L56.0149 66.5907C56.1169 66.4108 56.2204 66.277 56.2949 66.1915C56.363 66.1133 56.4032 66.0798 56.3786 66.1018C56.353 66.1247 56.2963 66.1732 56.1803 66.2662C56.0642 66.3591 55.926 66.4669 55.7362 66.6148L58.1952 69.7698ZM59.6823 67.0454L55.8265 68.1098C55.6854 67.5985 55.7531 67.052 56.0149 66.5907L59.494 68.5645L62.9731 70.5383C63.7583 69.1542 63.9615 67.5149 63.5381 65.981L59.6823 67.0454ZM54.5068 65.0374L56.9657 68.1923C57.1555 68.0444 57.2937 67.9367 57.4122 67.8469C57.5307 67.757 57.5916 67.7139 57.6201 67.6947C57.6474 67.6762 57.6051 67.707 57.5126 67.7539C57.4115 67.8053 57.2566 67.873 57.0572 67.928L55.9928 64.0722L54.9283 60.2164C54.1433 60.4332 53.544 60.794 53.1431 61.0647C52.7721 61.3152 52.3722 61.6296 52.0478 61.8824L54.5068 65.0374ZM58.7172 65.5594L61.8721 63.1004C61.6193 62.7761 61.3083 62.3735 61.0097 62.04C60.6871 61.6796 60.194 61.1833 59.4857 60.7815L57.5119 64.2606L55.5381 67.7397C55.3582 67.6376 55.2244 67.5341 55.1389 67.4596C55.0607 67.3915 55.0272 67.3513 55.0492 67.3759C55.0721 67.4015 55.1206 67.4582 55.2136 67.5743C55.3065 67.6904 55.4143 67.8285 55.5622 68.0183L58.7172 65.5594ZM55.9928 64.0722L57.0572 67.928C56.5459 68.0691 55.9994 68.0014 55.5381 67.7397L57.5119 64.2606L59.4857 60.7815C58.1016 59.9962 56.4623 59.793 54.9283 60.2164L55.9928 64.0722ZM43.0237 71.4514L39.8688 73.9104C41.9059 76.524 45.676 76.9914 48.2896 74.9544L45.8307 71.7994L43.3717 68.6445C44.243 67.9655 45.4997 68.1213 46.1787 68.9925L43.0237 71.4514ZM43.0237 71.4514L46.1787 68.9925C46.8577 69.8637 46.7019 71.1204 45.8307 71.7994L43.3717 68.6445L40.9128 65.4896C38.2992 67.5266 37.8318 71.2967 39.8688 73.9104L43.0237 71.4514Z" fill="#572217" mask="url(#path-5-outside-1_33_86)"/>
</svg>
