<svg width="100" height="100" viewBox="0 0 100 100" fill="none" xmlns="http://www.w3.org/2000/svg">
<circle cx="50" cy="50" r="42" fill="#FFBA34"/>
<path d="M72.5 62.3214C72.5 77.4106 64.0625 80 50 80C35.9375 80 27.5 77.4106 27.5 62.3214C27.5 47.2322 38.75 35 50 35C61.25 35 72.5 47.2322 72.5 62.3214Z" fill="#E60045"/>
<path d="M44 25.5827C36.5 20.8935 26 24.4202 21.5 30.5001" stroke="#471C13" stroke-width="4" stroke-linecap="round"/>
<path d="M56 25.5827C63.5 20.8935 74 24.4202 78.5 30.5001" stroke="#471C13" stroke-width="4" stroke-linecap="round"/>
<mask id="path-5-outside-1_267_94" maskUnits="userSpaceOnUse" x="-0.223956" y="28.687" width="72.0881" height="72.1569" fill="black">
<rect fill="white" x="-0.223956" y="28.687" width="72.0881" height="72.1569"/>
<path d="M56.2838 52.6389C55.197 51.4581 53.3824 51.3475 52.1617 52.3616L52.0452 52.4633L50.6668 53.7403C46.9169 57.2422 43.2744 60.8603 39.8006 64.6033C39.1071 65.3506 37.9048 65.4005 37.0629 64.8255C36.0335 64.1226 35.8299 62.697 36.6754 61.7811C39.3367 58.8983 41.886 56.5748 46.1028 52.7857L44.0972 50.5535L42.0924 48.322C35.5805 54.1734 32.8002 56.7607 27.6923 63.0311C27.5665 63.1855 27.4382 63.3053 27.274 63.4181C25.8835 64.3723 23.7136 63.721 23.6745 62.0351C23.636 60.3777 23.6838 58.735 23.8255 57.1354C23.9714 55.4853 22.7519 54.0292 21.1018 53.8829C19.4516 53.7367 17.9951 54.9558 17.8486 56.6059C17.3131 62.6508 17.9454 69.1384 19.4447 74.9888C19.5318 75.3288 19.5753 75.4987 19.5908 75.6387C19.6063 75.7787 19.5988 76.0267 19.5838 76.5227C19.5685 77.0286 19.6037 77.507 19.6957 77.9485C20.8144 83.3149 27.1703 89.1417 32.0503 90.1042C36.1012 90.9031 44.2596 86.6315 46.5573 81.389C46.7103 81.04 46.7868 80.8655 46.8429 80.7687C46.8989 80.6718 46.9733 80.5712 47.1221 80.3699C50.6946 75.5379 53.4644 72.4593 58.3457 68.103C59.5815 66.9998 59.6892 65.1027 58.5861 63.8666C57.4829 62.6307 55.5864 62.5238 54.3504 63.6268C51.2157 66.4243 48.8677 68.7633 46.6683 71.2992C45.9312 72.149 44.5851 72.0952 43.8925 71.2087C43.3785 70.5508 43.3623 69.5894 43.9289 68.9761C47.3699 65.2524 51.0002 61.6393 54.7608 58.1273L56.1083 56.8775L56.2193 56.7703C57.3309 55.6378 57.3706 53.8198 56.2838 52.6389ZM46.3287 48.5487C45.2214 47.3165 43.3248 47.215 42.0924 48.322L46.1028 52.7857C47.335 51.6783 47.4361 49.7811 46.3287 48.5487Z"/>
</mask>
<path d="M56.2838 52.6389C55.197 51.4581 53.3824 51.3475 52.1617 52.3616L52.0452 52.4633L50.6668 53.7403C46.9169 57.2422 43.2744 60.8603 39.8006 64.6033C39.1071 65.3506 37.9048 65.4005 37.0629 64.8255C36.0335 64.1226 35.8299 62.697 36.6754 61.7811C39.3367 58.8983 41.886 56.5748 46.1028 52.7857L44.0972 50.5535L42.0924 48.322C35.5805 54.1734 32.8002 56.7607 27.6923 63.0311C27.5665 63.1855 27.4382 63.3053 27.274 63.4181C25.8835 64.3723 23.7136 63.721 23.6745 62.0351C23.636 60.3777 23.6838 58.735 23.8255 57.1354C23.9714 55.4853 22.7519 54.0292 21.1018 53.8829C19.4516 53.7367 17.9951 54.9558 17.8486 56.6059C17.3131 62.6508 17.9454 69.1384 19.4447 74.9888C19.5318 75.3288 19.5753 75.4987 19.5908 75.6387C19.6063 75.7787 19.5988 76.0267 19.5838 76.5227C19.5685 77.0286 19.6037 77.507 19.6957 77.9485C20.8144 83.3149 27.1703 89.1417 32.0503 90.1042C36.1012 90.9031 44.2596 86.6315 46.5573 81.389C46.7103 81.04 46.7868 80.8655 46.8429 80.7687C46.8989 80.6718 46.9733 80.5712 47.1221 80.3699C50.6946 75.5379 53.4644 72.4593 58.3457 68.103C59.5815 66.9998 59.6892 65.1027 58.5861 63.8666C57.4829 62.6307 55.5864 62.5238 54.3504 63.6268C51.2157 66.4243 48.8677 68.7633 46.6683 71.2992C45.9312 72.149 44.5851 72.0952 43.8925 71.2087C43.3785 70.5508 43.3623 69.5894 43.9289 68.9761C47.3699 65.2524 51.0002 61.6393 54.7608 58.1273L56.1083 56.8775L56.2193 56.7703C57.3309 55.6378 57.3706 53.8198 56.2838 52.6389ZM46.3287 48.5487C45.2214 47.3165 43.3248 47.215 42.0924 48.322L46.1028 52.7857C47.335 51.6783 47.4361 49.7811 46.3287 48.5487Z" fill="#FFBA34"/>
<path d="M56.2838 52.6389L59.2269 49.9299L59.2272 49.9303L56.2838 52.6389ZM52.1617 52.3616L49.5311 49.3483L49.568 49.3161L49.6057 49.2847L52.1617 52.3616ZM52.0452 52.4633L49.3267 49.5291L49.37 49.4889L49.4145 49.4501L52.0452 52.4633ZM50.6668 53.7403L47.9367 50.8169L47.9425 50.8114L47.9483 50.806L50.6668 53.7403ZM46.1028 52.7857L48.7765 55.7608L48.7763 55.761L46.1028 52.7857ZM44.0972 50.5535L41.1218 53.2269L41.1217 53.2268L44.0972 50.5535ZM42.0924 48.322L39.4189 45.3468L39.4193 45.3463L42.0924 48.322ZM23.8255 57.1354L27.81 57.4877L27.8099 57.4884L23.8255 57.1354ZM21.1018 53.8829L21.4547 49.8985L21.4549 49.8985L21.1018 53.8829ZM17.8486 56.6059L13.8642 56.253L13.8642 56.2522L17.8486 56.6059ZM19.6957 77.9485L15.7799 78.7648L15.7799 78.7647L19.6957 77.9485ZM32.0503 90.1042L31.2764 94.0286L31.2764 94.0286L32.0503 90.1042ZM58.3457 68.103L61.0094 71.0871L61.009 71.0874L58.3457 68.103ZM58.5861 63.8666L61.5702 61.2029L61.5705 61.2032L58.5861 63.8666ZM54.3504 63.6268L51.687 60.6424L51.6872 60.6423L54.3504 63.6268ZM54.7608 58.1273L52.0307 55.2039L52.0407 55.1946L54.7608 58.1273ZM56.1083 56.8775L58.8877 59.7542L58.8583 59.7825L58.8284 59.8103L56.1083 56.8775ZM56.2193 56.7703L59.0739 59.5723L59.0368 59.6101L58.9987 59.6469L56.2193 56.7703ZM46.3287 48.5487L49.3038 45.875L49.304 45.8752L46.3287 48.5487ZM43.9289 68.9761L46.8667 71.6908L43.9289 68.9761ZM46.5573 81.389L50.2209 82.9947L46.5573 81.389ZM47.1221 80.3699L50.3385 82.7479L47.1221 80.3699ZM46.8429 80.7687L50.3044 82.773L46.8429 80.7687ZM46.6683 71.2992L49.6901 73.92L46.6683 71.2992ZM23.6745 62.0351L27.6734 61.9423L23.6745 62.0351ZM36.6754 61.7811L39.6145 64.4943L36.6754 61.7811ZM19.4447 74.9888L15.5699 75.9818L19.4447 74.9888ZM19.5838 76.5227L23.582 76.6439L19.5838 76.5227ZM19.5908 75.6387L15.6151 76.0789L19.5908 75.6387ZM27.6923 63.0311L24.591 60.5048L27.6923 63.0311ZM56.2838 52.6389L53.3408 55.3478C53.7043 55.7428 54.3087 55.7782 54.7177 55.4384L52.1617 52.3616L49.6057 49.2847C52.4562 46.9168 56.6896 47.1734 59.2269 49.9299L56.2838 52.6389ZM52.1617 52.3616L54.7924 55.3748L54.6758 55.4766L52.0452 52.4633L49.4145 49.4501L49.5311 49.3483L52.1617 52.3616ZM52.0452 52.4633L54.7636 55.3976L53.3853 56.6746L50.6668 53.7403L47.9483 50.806L49.3267 49.5291L52.0452 52.4633ZM50.6668 53.7403L53.3969 56.6638C49.7066 60.11 46.1327 63.6606 42.7325 67.3243L39.8006 64.6033L36.8687 61.8823C40.4161 58.06 44.1273 54.3743 47.9367 50.8169L50.6668 53.7403ZM36.6754 61.7811L33.7363 59.0679C36.5419 56.0286 39.225 53.5882 43.4293 49.8104L46.1028 52.7857L48.7763 55.761C44.5469 59.5614 42.1314 61.7679 39.6145 64.4943L36.6754 61.7811ZM46.1028 52.7857L43.1273 55.4591L41.1218 53.2269L44.0972 50.5535L47.0727 47.8802L49.0782 50.1124L46.1028 52.7857ZM44.0972 50.5535L41.1217 53.2268L39.1169 50.9953L42.0924 48.322L45.0679 45.6488L47.0727 47.8803L44.0972 50.5535ZM42.0924 48.322L44.7659 51.2973C38.3139 57.0949 35.7097 59.5224 30.7936 65.5574L27.6923 63.0311L24.591 60.5048C29.8907 53.999 32.8472 51.2519 39.4189 45.3468L42.0924 48.322ZM23.6745 62.0351L19.6755 62.1278C19.6339 60.3337 19.6853 58.5417 19.8411 56.7825L23.8255 57.1354L27.8099 57.4884C27.6823 58.9282 27.6381 60.4217 27.6734 61.9423L23.6745 62.0351ZM23.8255 57.1354L19.841 56.7832C19.7924 57.3336 20.1989 57.8185 20.7486 57.8673L21.1018 53.8829L21.4549 49.8985C25.3049 50.2398 28.1504 53.637 27.81 57.4877L23.8255 57.1354ZM21.1018 53.8829L20.7488 57.8673C21.2985 57.916 21.784 57.51 21.8329 56.9596L17.8486 56.6059L13.8642 56.2522C14.2061 52.4016 17.6046 49.5574 21.4547 49.8985L21.1018 53.8829ZM17.8486 56.6059L21.833 56.9589C21.3413 62.5095 21.9216 68.5412 23.3195 73.9958L19.4447 74.9888L15.5699 75.9818C13.9692 69.7357 13.2849 62.7921 13.8642 56.253L17.8486 56.6059ZM19.5838 76.5227L23.582 76.6439C23.5744 76.894 23.5947 77.0516 23.6115 77.1322L19.6957 77.9485L15.7799 78.7647C15.6126 77.9623 15.5625 77.1632 15.5856 76.4014L19.5838 76.5227ZM19.6957 77.9485L23.6115 77.1321C23.9475 78.7439 25.2259 80.8635 27.2343 82.7938C29.2481 84.7293 31.3952 85.8979 32.8243 86.1798L32.0503 90.1042L31.2764 94.0286C27.8255 93.348 24.3546 91.122 21.6908 88.5618C19.0216 85.9964 16.5626 82.5194 15.7799 78.7648L19.6957 77.9485ZM32.0503 90.1042L32.8243 86.1798C33.0054 86.2155 33.6057 86.2397 34.6602 85.955C35.6561 85.6861 36.8113 85.2069 37.9727 84.5414C40.4102 83.1448 42.2211 81.318 42.8938 79.7833L46.5573 81.389L50.2209 82.9947C48.5958 86.7025 45.1787 89.6327 41.9499 91.4828C40.2781 92.4407 38.4905 93.2072 36.7456 93.6784C35.0593 94.1337 33.1207 94.3923 31.2764 94.0286L32.0503 90.1042ZM47.1221 80.3699L43.9057 77.9919C47.641 72.9397 50.5961 69.6578 55.6823 65.1187L58.3457 68.103L61.009 71.0874C56.3326 75.2608 53.7481 78.1362 50.3385 82.7479L47.1221 80.3699ZM58.3457 68.103L55.6819 65.119C55.2698 65.4868 55.2341 66.118 55.6017 66.53L58.5861 63.8666L61.5705 61.2032C64.1443 64.0873 63.8932 68.5127 61.0094 71.0871L58.3457 68.103ZM58.5861 63.8666L55.6021 66.5303C55.9712 66.9438 56.6031 66.9776 57.0135 66.6113L54.3504 63.6268L51.6872 60.6423C54.5698 58.07 58.9946 58.3176 61.5702 61.2029L58.5861 63.8666ZM54.3504 63.6268L57.0137 66.6112C53.9722 69.3256 51.7516 71.5431 49.6901 73.92L46.6683 71.2992L43.6465 68.6784C45.9838 65.9834 48.4592 63.5231 51.687 60.6424L54.3504 63.6268ZM43.9289 68.9761L40.9911 66.2615C44.508 62.4556 48.209 58.7729 52.0307 55.2039L54.7608 58.1273L57.4909 61.0508C53.7914 64.5057 50.2318 68.0491 46.8667 71.6908L43.9289 68.9761ZM54.7608 58.1273L52.0407 55.1946L53.3882 53.9448L56.1083 56.8775L58.8284 59.8103L57.4809 61.0601L54.7608 58.1273ZM56.1083 56.8775L53.3289 54.0009L53.4399 53.8937L56.2193 56.7703L58.9987 59.6469L58.8877 59.7542L56.1083 56.8775ZM56.2193 56.7703L53.3647 53.9683C52.9913 54.3487 52.9778 54.9534 53.3404 55.3474L56.2838 52.6389L59.2272 49.9303C61.7634 52.6863 61.6705 56.9269 59.0739 59.5723L56.2193 56.7703ZM46.3287 48.5487L43.3536 51.2224C43.7225 51.6329 44.3544 51.667 44.7654 51.2978L42.0924 48.322L39.4193 45.3463C42.2951 42.7631 46.7203 43.0002 49.3038 45.875L46.3287 48.5487ZM42.0924 48.322L45.0679 45.6487L49.0782 50.1124L46.1028 52.7857L43.1273 55.459L39.1169 50.9954L42.0924 48.322ZM46.1028 52.7857L43.4291 49.8106C43.0178 50.1802 42.9848 50.8119 43.3534 51.2222L46.3287 48.5487L49.304 45.8752C51.8874 48.7502 51.6523 53.1764 48.7765 55.7608L46.1028 52.7857ZM43.8925 71.2087L40.7405 73.6714C39.1734 71.6656 38.9309 68.4911 40.9911 66.2615L43.9289 68.9761L46.8667 71.6908C47.7937 70.6876 47.5836 69.4359 47.0446 68.7461L43.8925 71.2087ZM46.5573 81.389L42.8938 79.7833C42.9842 79.5769 43.1806 79.1109 43.3813 78.7643L46.8429 80.7687L50.3044 82.773C50.3506 82.6933 50.3786 82.6366 50.3847 82.6243C50.3918 82.6099 50.3905 82.6118 50.3767 82.6422C50.3635 82.6712 50.345 82.7125 50.3179 82.7739C50.2909 82.835 50.2598 82.906 50.2209 82.9947L46.5573 81.389ZM47.1221 80.3699L50.3385 82.7479C50.3197 82.7734 50.3034 82.7955 50.2882 82.816C50.2732 82.8364 50.2605 82.8536 50.2495 82.8686C50.2385 82.8836 50.2301 82.8951 50.2236 82.904C50.2172 82.913 50.2135 82.9181 50.212 82.9203C50.2083 82.9255 50.2175 82.9127 50.2338 82.8879C50.2512 82.8613 50.276 82.8221 50.3044 82.773L46.8429 80.7687L43.3813 78.7643C43.5769 78.4265 43.8167 78.1123 43.9057 77.9919L47.1221 80.3699ZM46.6683 71.2992L49.6901 73.92C47.2524 76.7307 42.9342 76.4792 40.7405 73.6714L43.8925 71.2087L47.0446 68.7461C46.2361 67.7112 44.6101 67.5674 43.6465 68.6784L46.6683 71.2992ZM27.274 63.4181L29.5375 66.716C27.7175 67.9651 25.4794 68.1385 23.6374 67.489C21.704 66.8073 19.7417 64.9804 19.6755 62.1278L23.6745 62.0351L27.6734 61.9423C27.6623 61.4643 27.4826 60.9675 27.1595 60.5708C26.8614 60.2047 26.5284 60.0257 26.2976 59.9443C25.8979 59.8034 25.44 59.8253 25.0105 60.1201L27.274 63.4181ZM37.0629 64.8255L34.8071 68.1288C31.8864 66.1342 31.1341 61.8868 33.7363 59.0679L36.6754 61.7811L39.6145 64.4943C40.5258 63.5072 40.1806 62.1109 39.3186 61.5222L37.0629 64.8255ZM19.4447 74.9888L23.3195 73.9958C23.3703 74.1942 23.512 74.7061 23.5665 75.1985L19.5908 75.6387L15.6151 76.0789C15.6242 76.1604 15.6347 76.2227 15.6414 76.2584C15.6476 76.2918 15.6513 76.3064 15.6476 76.2906C15.6439 76.2748 15.6367 76.2448 15.6228 76.1895C15.6089 76.1342 15.5923 76.0693 15.5699 75.9818L19.4447 74.9888ZM19.5838 76.5227L15.5856 76.4014C15.5894 76.2755 15.5925 76.1741 15.5949 76.0867C15.5973 75.9988 15.5985 75.9386 15.5991 75.8957C15.5997 75.8507 15.5991 75.8455 15.5996 75.8639C15.5999 75.8784 15.602 75.96 15.6151 76.0789L19.5908 75.6387L23.5665 75.1985C23.6221 75.7002 23.5909 76.3488 23.582 76.6439L19.5838 76.5227ZM27.6923 63.0311L30.7936 65.5574C30.4378 65.9941 30.0305 66.3776 29.5375 66.716L27.274 63.4181L25.0105 60.1201C24.944 60.1657 24.863 60.2282 24.7781 60.3069C24.6939 60.3849 24.6312 60.4555 24.591 60.5048L27.6923 63.0311ZM39.8006 64.6033L42.7325 67.3243C40.4923 69.7382 37.0291 69.6462 34.8071 68.1288L37.0629 64.8255L39.3186 61.5222C38.9759 61.2882 38.5905 61.1936 38.2118 61.2198C37.8191 61.2469 37.2973 61.4205 36.8687 61.8823L39.8006 64.6033Z" fill="#471C13" mask="url(#path-5-outside-1_267_94)"/>
</svg>
