<svg width="60" height="60" viewBox="0 0 60 60" fill="none" xmlns="http://www.w3.org/2000/svg">
<path d="M58 30C58 45.464 45.464 58 30 58C14.536 58 2 45.464 2 30C2 14.536 14.536 2 30 2C45.464 2 58 14.536 58 30Z" fill="#FFBA34"/>
<path d="M27.6 28.8C27.6 33.1078 24.1078 36.6 19.8 36.6C15.4922 36.6 12 33.1078 12 28.8C12 24.4922 15.4922 21 19.8 21C24.1078 21 27.6 24.4922 27.6 28.8Z" fill="white"/>
<path d="M31.2 28.8C31.2 33.1078 34.6922 36.6 39 36.6C43.3079 36.6 46.8 33.1078 46.8 28.8C46.8 24.4922 43.3079 21 39 21C34.6922 21 31.2 24.4922 31.2 28.8Z" fill="white"/>
<path d="M26.4 29.4C26.4 32.0509 24.251 34.2 21.6 34.2C18.9491 34.2 16.8 32.0509 16.8 29.4C16.8 26.749 18.9491 24.6 21.6 24.6C24.251 24.6 26.4 26.749 26.4 29.4Z" fill="#572217"/>
<path d="M32.4 29.4C32.4 32.0509 34.549 34.2 37.2 34.2C39.851 34.2 42 32.0509 42 29.4C42 26.749 39.851 24.6 37.2 24.6C34.549 24.6 32.4 26.749 32.4 29.4Z" fill="#572217"/>
<path fill-rule="evenodd" clip-rule="evenodd" d="M15.0993 13.7154C15.8088 13.2877 16.7307 13.5161 17.1584 14.2256C17.9109 15.4738 18.6914 16.3104 19.7521 17.0073C20.852 17.73 22.3138 18.3431 24.5082 19.0452C25.2972 19.2976 25.7322 20.1419 25.4798 20.9309C25.2274 21.72 24.3831 22.155 23.5941 21.9025C21.3283 21.1776 19.5527 20.4659 18.1047 19.5146C16.6174 18.5373 15.5393 17.3505 14.5892 15.7745C14.1615 15.065 14.3899 14.1431 15.0993 13.7154Z" fill="#572217"/>
<path fill-rule="evenodd" clip-rule="evenodd" d="M43.7007 13.7154C44.4102 14.1431 44.6386 15.065 44.2109 15.7745C43.2607 17.3505 42.1826 18.5373 40.6953 19.5146C39.2473 20.4659 37.4717 21.1776 35.206 21.9025C34.417 22.155 33.5727 21.72 33.3203 20.9309C33.0678 20.1419 33.5028 19.2976 34.2918 19.0452C36.4863 18.3431 37.948 17.73 39.048 17.0073C40.1086 16.3104 40.8891 15.4738 41.6416 14.2256C42.0694 13.5161 42.9912 13.2877 43.7007 13.7154Z" fill="#572217"/>
<path fill-rule="evenodd" clip-rule="evenodd" d="M19.205 45.272C19.9075 45.7111 20.8329 45.4975 21.272 44.795C21.8706 43.8372 23.0011 43.0024 24.591 42.4038C26.165 41.8112 28.0648 41.5 30 41.5C31.9352 41.5 33.835 41.8112 35.409 42.4038C36.9989 43.0024 38.1294 43.8372 38.728 44.795C39.1671 45.4975 40.0925 45.7111 40.795 45.272C41.4975 44.8329 41.7111 43.9075 41.272 43.205C40.204 41.4961 38.4177 40.331 36.466 39.5962C34.4983 38.8554 32.2314 38.5 30 38.5C27.7686 38.5 25.5017 38.8554 23.534 39.5962C21.5823 40.331 19.796 41.4961 18.728 43.205C18.2889 43.9075 18.5025 44.8329 19.205 45.272Z" fill="#572217"/>
</svg>
