<svg width="60" height="60" viewBox="0 0 60 60" fill="none" xmlns="http://www.w3.org/2000/svg">
<path opacity="0.5" d="M56 30C56 44.3594 44.3594 56 30 56C15.6406 56 4 44.3594 4 30C4 15.6406 15.6406 4 30 4C44.3594 4 56 15.6406 56 30Z" fill="#FF3162"/>
<path d="M30 3L35.1545 19.2965L51.1094 13.1658L41.5821 27.3565L56.323 36.0081L39.2882 37.4071L41.7149 54.3262L30 41.88L18.2851 54.3262L20.7118 37.4071L3.67694 36.0081L18.4179 27.3565L8.89054 13.1658L24.8455 19.2965L30 3Z" fill="#FF3162"/>
<path d="M30 3L35.1545 19.2965L51.1094 13.1658L41.5821 27.3565L56.323 36.0081L39.2882 37.4071L41.7149 54.3262L30 41.88L18.2851 54.3262L20.7118 37.4071L3.67694 36.0081L18.4179 27.3565L8.89054 13.1658L24.8455 19.2965L30 3Z" fill="#38001E" fill-opacity="0.5"/>
<path fill-rule="evenodd" clip-rule="evenodd" d="M30 1.5C30.6542 1.5 31.2329 1.92393 31.4302 2.54764L36.1041 17.3247L50.5714 11.7656C51.1821 11.5309 51.8743 11.7191 52.2822 12.2305C52.6901 12.742 52.7194 13.4588 52.3548 14.0019L43.7158 26.8695L57.0823 34.7144C57.6465 35.0455 57.931 35.7041 57.7854 36.3418C57.6399 36.9796 57.0978 37.4495 56.4458 37.503L40.9992 38.7716L43.1997 54.1132C43.2925 54.7607 42.9551 55.3938 42.3657 55.6776C41.7763 55.9614 41.0709 55.8306 40.6226 55.3542L30 44.0685L19.3774 55.3542C18.929 55.8306 18.2237 55.9614 17.6343 55.6776C17.0449 55.3938 16.7075 54.7607 16.8003 54.1132L19.0008 38.7716L3.55417 37.503C2.9022 37.4495 2.36011 36.9796 2.21455 36.3418C2.06898 35.7041 2.35351 35.0455 2.91768 34.7144L16.2842 26.8695L7.64518 14.0019C7.28055 13.4588 7.30993 12.742 7.7178 12.2305C8.12566 11.7191 8.81793 11.5309 9.42857 11.7656L23.8959 17.3247L28.5698 2.54764C28.7671 1.92393 29.3458 1.5 30 1.5ZM30 7.97394L26.2756 19.7488C26.1509 20.1432 25.8689 20.4685 25.4963 20.6479C25.1237 20.8274 24.6935 20.845 24.3074 20.6967L12.7793 16.267L19.6632 26.5203C19.8937 26.8637 19.9723 27.287 19.8802 27.6902C19.7882 28.0934 19.5338 28.4408 19.1771 28.6501L8.52617 34.9013L20.8346 35.9121C21.2468 35.9459 21.6267 36.1485 21.8846 36.4718C22.1424 36.7952 22.2554 37.2106 22.1966 37.62L20.4432 49.8448L28.9077 40.8519C29.1912 40.5508 29.5864 40.38 30 40.38C30.4136 40.38 30.8088 40.5508 31.0923 40.8519L39.5567 49.8448L37.8033 37.62C37.7446 37.2106 37.8575 36.7952 38.1154 36.4718C38.3733 36.1485 38.7532 35.9459 39.1654 35.9121L51.4738 34.9013L40.8229 28.6501C40.4662 28.4408 40.2118 28.0934 40.1197 27.6902C40.0277 27.287 40.1062 26.8637 40.3368 26.5203L47.2207 16.267L35.6926 20.6967C35.3065 20.845 34.8763 20.8274 34.5037 20.6479C34.1311 20.4685 33.8491 20.1432 33.7244 19.7488L30 7.97394Z" fill="white"/>
<path d="M30 17L32.5946 24.6122L40.1638 21.8946L35.8301 28.6693L42.6741 32.8928L34.6754 33.7285L35.6405 41.7126L30 35.98L24.3595 41.7126L25.3247 33.7285L17.3259 32.8928L24.1699 28.6693L19.8362 21.8946L27.4054 24.6122L30 17Z" fill="#FF3162"/>
</svg>
