<svg width="60" height="60" viewBox="0 0 60 60" fill="none" xmlns="http://www.w3.org/2000/svg">
<path d="M33 41C33 39.3431 34.3431 38 36 38H40C41.6569 38 43 39.3431 43 41V55C43 56.6569 41.6569 58 40 58H36C34.3431 58 33 56.6569 33 55V41Z" fill="#4E2518"/>
<path fill-rule="evenodd" clip-rule="evenodd" d="M31.5 41C31.5 38.5147 33.5147 36.5 36 36.5H40C42.4853 36.5 44.5 38.5147 44.5 41V55C44.5 57.4853 42.4853 59.5 40 59.5H36C33.5147 59.5 31.5 57.4853 31.5 55V41ZM36 39.5C35.1716 39.5 34.5 40.1716 34.5 41V55C34.5 55.8284 35.1716 56.5 36 56.5H40C40.8284 56.5 41.5 55.8284 41.5 55V41C41.5 40.1716 40.8284 39.5 40 39.5H36Z" fill="black"/>
<path d="M14 5C14 3.34314 15.3431 2 17 2L21 2C22.6569 2 24 3.34315 24 5L24 55C24 56.6569 22.6569 58 21 58H17C15.3431 58 14 56.6569 14 55L14 5Z" fill="#4E2518"/>
<path fill-rule="evenodd" clip-rule="evenodd" d="M12.5 5C12.5 2.51472 14.5147 0.5 17 0.5L21 0.5C23.4853 0.5 25.5 2.51472 25.5 5L25.5 55C25.5 57.4853 23.4853 59.5 21 59.5H17C14.5147 59.5 12.5 57.4853 12.5 55L12.5 5ZM17 3.5C16.1716 3.5 15.5 4.17157 15.5 5L15.5 55C15.5 55.8284 16.1716 56.5 17 56.5H21C21.8284 56.5 22.5 55.8284 22.5 55L22.5 5C22.5 4.17157 21.8284 3.5 21 3.5L17 3.5Z" fill="black"/>
<path d="M12 39C12 37.3431 13.3431 36 15 36H46C47.6569 36 49 37.3431 49 39V43C49 44.6569 47.6569 46 46 46H15C13.3431 46 12 44.6569 12 43V39Z" fill="#4E2518"/>
<path fill-rule="evenodd" clip-rule="evenodd" d="M10.5 39C10.5 36.5147 12.5147 34.5 15 34.5H46C48.4853 34.5 50.5 36.5147 50.5 39V43C50.5 45.4853 48.4853 47.5 46 47.5H15C12.5147 47.5 10.5 45.4853 10.5 43V39ZM15 37.5C14.1716 37.5 13.5 38.1716 13.5 39V43C13.5 43.8284 14.1716 44.5 15 44.5H46C46.8284 44.5 47.5 43.8284 47.5 43V39C47.5 38.1716 46.8284 37.5 46 37.5H15Z" fill="black"/>
<path d="M39 41C39 39.3431 40.3431 38 42 38H46C47.6569 38 49 39.3431 49 41V55C49 56.6569 47.6569 58 46 58H42C40.3431 58 39 56.6569 39 55V41Z" fill="#975034"/>
<path fill-rule="evenodd" clip-rule="evenodd" d="M37.5 41C37.5 38.5147 39.5147 36.5 42 36.5H46C48.4853 36.5 50.5 38.5147 50.5 41V55C50.5 57.4853 48.4853 59.5 46 59.5H42C39.5147 59.5 37.5 57.4853 37.5 55V41ZM42 39.5C41.1716 39.5 40.5 40.1716 40.5 41V55C40.5 55.8284 41.1716 56.5 42 56.5H46C46.8284 56.5 47.5 55.8284 47.5 55V41C47.5 40.1716 46.8284 39.5 46 39.5H42Z" fill="black"/>
<path d="M16 35C16 32.7909 17.7909 31 20 31H50C52.2091 31 54 32.7909 54 35V37C54 39.2091 52.2091 41 50 41H20C17.7909 41 16 39.2091 16 37V35Z" fill="#975034"/>
<path fill-rule="evenodd" clip-rule="evenodd" d="M14.5 35C14.5 31.9624 16.9624 29.5 20 29.5H50C53.0376 29.5 55.5 31.9624 55.5 35V37C55.5 40.0376 53.0376 42.5 50 42.5H20C16.9624 42.5 14.5 40.0376 14.5 37V35ZM20 32.5C18.6193 32.5 17.5 33.6193 17.5 35V37C17.5 38.3807 18.6193 39.5 20 39.5H50C51.3807 39.5 52.5 38.3807 52.5 37V35C52.5 33.6193 51.3807 32.5 50 32.5H20Z" fill="black"/>
<path d="M8 5C8 3.34314 9.34315 2 11 2L15 2C16.6569 2 18 3.34315 18 5L18 55C18 56.6569 16.6569 58 15 58H11C9.34315 58 8 56.6569 8 55L8 5Z" fill="#975034"/>
<path fill-rule="evenodd" clip-rule="evenodd" d="M6.5 5C6.5 2.51472 8.51472 0.5 11 0.5L15 0.5C17.4853 0.5 19.5 2.51472 19.5 5L19.5 55C19.5 57.4853 17.4853 59.5 15 59.5H11C8.51472 59.5 6.5 57.4853 6.5 55L6.5 5ZM11 3.5C10.1716 3.5 9.5 4.17157 9.5 5L9.5 55C9.5 55.8284 10.1716 56.5 11 56.5H15C15.8284 56.5 16.5 55.8284 16.5 55L16.5 5C16.5 4.17157 15.8284 3.5 15 3.5L11 3.5Z" fill="black"/>
</svg>
