<svg width="60" height="60" viewBox="0 0 60 60" fill="none" xmlns="http://www.w3.org/2000/svg">
<g clip-path="url(#clip0_1_216)">
<path d="M58 30C58 45.464 45.464 58 30 58C14.536 58 2 45.464 2 30C2 14.536 14.536 2 30 2C45.464 2 58 14.536 58 30Z" fill="#FFBA34"/>
<path fill-rule="evenodd" clip-rule="evenodd" d="M45.6733 32.1955C46.449 31.9046 47.3136 32.2976 47.6045 33.0733C48.3063 34.9448 47.6467 36.6845 46.4832 37.9601C45.3487 39.2039 43.6568 40.1307 41.8325 40.68C38.2278 41.7655 33.3842 41.5656 30.1544 38.4255C29.5604 37.848 29.547 36.8984 30.1245 36.3044C30.702 35.7104 31.6516 35.697 32.2456 36.2745C34.4158 38.3844 37.9722 38.7095 40.9675 37.8075C42.4432 37.3631 43.6013 36.6679 44.2668 35.9384C44.9033 35.2405 44.9937 34.6552 44.7955 34.1267C44.5046 33.351 44.8976 32.4864 45.6733 32.1955Z" fill="#572217"/>
<path d="M6.68213 20.5717L31.4417 17.0919L53.8052 13.9489C56.1553 30.6711 33.7918 33.8141 31.4417 17.0919C33.7918 33.8141 9.03228 37.2938 6.68213 20.5717Z" fill="#C100F1"/>
<path fill-rule="evenodd" clip-rule="evenodd" d="M2.00196 21.2294C1.88666 20.4091 2.45823 19.6505 3.2786 19.5353L56.7912 12.0145C57.6116 11.8993 58.3701 12.4708 58.4854 13.2912C58.6007 14.1116 58.0291 14.8701 57.2087 14.9854L55.4428 15.2335C55.6835 19.095 54.6678 22.3188 52.8294 24.7508C50.7712 27.4736 47.7563 29.1031 44.5948 29.5475C41.4333 29.9918 38.0861 29.2564 35.357 27.2064C34.2069 26.3424 33.1843 25.2585 32.3374 23.9577C31.81 25.4796 31.0266 26.835 30.0441 28.006C27.7505 30.7397 24.45 32.3786 21.0333 32.8588C17.6166 33.339 13.9922 32.6733 11.0339 30.6777C8.37801 28.886 6.33931 26.075 5.46756 22.2571L3.69612 22.5061C2.87575 22.6214 2.11725 22.0498 2.00196 21.2294ZM8.45127 21.8378C9.18945 24.8165 10.7741 26.8836 12.7116 28.1907C14.9833 29.7231 17.8426 30.2778 20.6158 29.888C23.389 29.4983 25.9846 28.177 27.7459 26.0777C29.2481 24.2872 30.2016 21.8635 30.0901 18.7966L8.45127 21.8378ZM33.2029 18.3592L52.4616 15.6525C52.6086 18.7591 51.7652 21.1837 50.4363 22.9417C48.8889 24.9887 46.6067 26.2352 44.1773 26.5767C41.7479 26.9181 39.2105 26.3489 37.1589 24.8077C35.3969 23.4841 33.9178 21.3859 33.2029 18.3592Z" fill="#331B5B"/>
<path d="M12.8482 18.476C13.7223 16.888 14.1594 16.0941 14.7102 16.1766C15.2611 16.2592 15.4461 17.1464 15.8162 18.9209L16.0052 19.827C16.0791 20.1814 16.1161 20.3585 16.2202 20.4994C16.3243 20.6402 16.4828 20.7274 16.7999 20.902L17.6109 21.3484C19.1988 22.2225 19.9928 22.6595 19.9102 23.2103C19.8277 23.7612 18.9404 23.9462 17.166 24.3163L16.2598 24.5053C15.9055 24.5792 15.7283 24.6162 15.5875 24.7203C15.4467 24.8244 15.3594 24.983 15.1849 25.3001L14.7385 26.111C13.8644 27.6989 13.4273 28.4929 12.8765 28.4103C12.3257 28.3278 12.1406 27.4406 11.7705 25.6661L11.5815 24.76C11.5076 24.4056 11.4707 24.2284 11.3666 24.0876C11.2625 23.9468 11.1039 23.8595 10.7868 23.685L9.97588 23.2386C8.38792 22.3645 7.59394 21.9275 7.67651 21.3766C7.75907 20.8258 8.6463 20.6407 10.4207 20.2706L11.3269 20.0816C11.6812 20.0077 11.8584 19.9708 11.9992 19.8667C12.14 19.7626 12.2273 19.604 12.4019 19.2869L12.8482 18.476Z" fill="white"/>
<path d="M37.8004 14.928C38.6745 13.3401 39.1115 12.5461 39.6624 12.6286C40.2132 12.7112 40.3982 13.5984 40.7684 15.3729L40.9574 16.279C41.0313 16.6334 41.0682 16.8106 41.1723 16.9514C41.2764 17.0922 41.435 17.1795 41.7521 17.354L42.563 17.8004C44.151 18.6745 44.9449 19.1115 44.8624 19.6624C44.7798 20.2132 43.8926 20.3982 42.1181 20.7683L41.212 20.9573C40.8576 21.0313 40.6805 21.0682 40.5396 21.1723C40.3988 21.2764 40.3116 21.435 40.137 21.7521L39.6906 22.563C38.8165 24.1509 38.3795 24.9449 37.8287 24.8624C37.2778 24.7798 37.0928 23.8926 36.7227 22.1181L36.5337 21.212C36.4598 20.8576 36.4228 20.6805 36.3187 20.5396C36.2146 20.3988 36.056 20.3115 35.7389 20.137L34.928 19.6906C33.3401 18.8165 32.5461 18.3795 32.6286 17.8286C32.7112 17.2778 33.5984 17.0928 35.3729 16.7227L36.279 16.5337C36.6334 16.4597 36.8106 16.4228 36.9514 16.3187C37.0922 16.2146 37.1795 16.056 37.354 15.7389L37.8004 14.928Z" fill="white"/>
</g>
<defs>
<clipPath id="clip0_1_216">
<rect width="60" height="60" fill="white"/>
</clipPath>
</defs>
</svg>
