<svg width="60" height="60" viewBox="0 0 60 60" fill="none" xmlns="http://www.w3.org/2000/svg">
<path d="M58 30C58 45.464 45.464 58 30 58C14.536 58 2 45.464 2 30C2 14.536 14.536 2 30 2C45.464 2 58 14.536 58 30Z" fill="#FFBA34"/>
<path fill-rule="evenodd" clip-rule="evenodd" d="M47.8069 8.48814C48.4209 9.04421 48.4679 9.9928 47.9119 10.6069L33.7851 26.2069C33.2731 26.7723 32.4183 26.8634 31.7986 26.4186L11.1253 11.5796C10.4523 11.0965 10.2983 10.1593 10.7814 9.4863C11.2645 8.81329 12.2017 8.65933 12.8747 9.1424L32.4602 23.2006L45.6881 8.59314C46.2442 7.97908 47.1928 7.93207 47.8069 8.48814Z" fill="#572217"/>
<path fill-rule="evenodd" clip-rule="evenodd" d="M21.6 16.5C22.4284 16.5 23.1 17.1716 23.1 18V31.2C23.1 32.0284 22.4284 32.7 21.6 32.7C20.7716 32.7 20.1 32.0284 20.1 31.2V18C20.1 17.1716 20.7716 16.5 21.6 16.5Z" fill="#572217"/>
<path fill-rule="evenodd" clip-rule="evenodd" d="M39.6 16.5C40.4284 16.5 41.1 17.1716 41.1 18V31.2C41.1 32.0284 40.4284 32.7 39.6 32.7C38.7716 32.7 38.1 32.0284 38.1 31.2V18C38.1 17.1716 38.7716 16.5 39.6 16.5Z" fill="#572217"/>
<path d="M8.43109 33.6C7.07715 55.3463 50.4 59.021 50.4 35.5712C34.0152 37.8351 24.8274 37.8048 8.43109 33.6Z" fill="white"/>
<path fill-rule="evenodd" clip-rule="evenodd" d="M7.54884 32.3869C7.91046 32.1239 8.37057 32.0359 8.8037 32.147C24.9779 36.2949 33.9653 36.3277 50.1947 34.0853C50.6242 34.026 51.0585 34.1554 51.3854 34.4403C51.7123 34.7252 51.9 35.1376 51.9 35.5712C51.9 41.9742 48.9071 46.6015 44.4666 49.4737C40.0892 52.305 34.3733 53.3992 28.8087 53.0309C23.2404 52.6623 17.646 50.8183 13.4918 47.5601C9.30048 44.2728 6.55981 39.5166 6.93398 33.5068C6.96177 33.0605 7.18721 32.6499 7.54884 32.3869ZM9.93183 35.5229C10.2068 39.5329 12.2499 42.7734 15.3432 45.1996C18.9313 48.0138 23.9137 49.7003 29.0069 50.0374C34.1038 50.3748 39.134 49.35 42.8373 46.9547C46.0697 44.8639 48.3419 41.7068 48.8105 37.2995C33.9778 39.254 24.8135 39.1687 9.93183 35.5229Z" fill="#572217"/>
<path fill-rule="evenodd" clip-rule="evenodd" d="M19.4121 36.9151C20.2322 37.0322 20.8021 37.792 20.6849 38.6121L19.4849 47.0121C19.3678 47.8322 18.608 48.4021 17.7879 48.2849C16.9678 48.1678 16.3979 47.408 16.5151 46.5879L17.7151 38.1879C17.8322 37.3678 18.592 36.7979 19.4121 36.9151Z" fill="#572217"/>
<path fill-rule="evenodd" clip-rule="evenodd" d="M30 36.9C30.8284 36.9 31.5 37.5716 31.5 38.4V49.2C31.5 50.0284 30.8284 50.7 30 50.7C29.1716 50.7 28.5 50.0284 28.5 49.2V38.4C28.5 37.5716 29.1716 36.9 30 36.9Z" fill="#572217"/>
<path fill-rule="evenodd" clip-rule="evenodd" d="M39.4139 36.9116C40.236 36.8088 40.9857 37.3919 41.0884 38.2139L42.2884 47.8139C42.3912 48.636 41.8081 49.3857 40.986 49.4884C40.164 49.5912 39.4143 49.0081 39.3116 48.1861L38.1116 38.5861C38.0088 37.764 38.5919 37.0143 39.4139 36.9116Z" fill="#572217"/>
<path fill-rule="evenodd" clip-rule="evenodd" d="M9.17933 35.3581C9.88686 34.882 10.7995 35.0521 11.2177 35.738C12.2628 37.452 14.5423 39.0154 17.7576 40.2016C20.9273 41.3709 24.8101 42.1006 28.7849 42.2958C32.7614 42.491 36.7594 42.1478 40.1613 41.2228C43.5966 40.2888 46.2294 38.8166 47.7269 36.9108C48.2574 36.2356 49.1964 36.0863 49.8241 36.5774C50.4518 37.0685 50.5305 38.014 50 38.6892C47.8769 41.3911 44.4739 43.1227 40.7319 44.1401C36.9564 45.1666 32.6357 45.5225 28.4259 45.3158C24.2143 45.109 20.0432 44.3358 16.5654 43.0528C13.1331 41.7865 10.1713 39.948 8.6555 37.462C8.23728 36.7761 8.47181 35.8342 9.17933 35.3581Z" fill="#572217"/>
</svg>
