<svg width="60" height="60" viewBox="0 0 60 60" fill="none" xmlns="http://www.w3.org/2000/svg">
<path d="M41.815 31.2444C45.0051 20.0444 36.7109 5.73333 24.5886 2C29.0547 19.4222 19.1891 20.6667 19.1891 36.2222C14.085 33.7333 12.5392 28.0361 14.085 20.6667C3.13552 27.2465 5.71688 58 32.1247 58C55.3113 58 54.2804 27.5111 48.5383 23.1556C47.9003 27.5111 46.9191 31.2444 41.815 31.2444Z" fill="#FF7A00"/>
<path d="M24.7001 41.5205C22.5396 36.1444 21.8195 25.3922 34.0623 18C31.5797 26.0697 36.223 32.7843 40.7655 39.5045C45.308 46.2246 43.4246 56.3048 30.4616 56.9768C17.4986 57.6488 13.8977 43.5365 19.6591 36.8164C19.8991 38.1604 21.2433 40.9829 24.7001 41.5205Z" fill="#FFD542"/>
<path d="M30.6634 54.9936C39.3395 54.6813 36.0613 43.4076 30.5381 40C31.3667 43.0571 28.8498 45.1922 26.3807 47.3355C23.9117 49.4788 24.419 55.2183 30.6634 54.9936Z" fill="white"/>
</svg>
