<svg width="60" height="60" viewBox="0 0 60 60" fill="none" xmlns="http://www.w3.org/2000/svg">
<path d="M58 30C58 45.464 45.464 58 30 58C14.536 58 2 45.464 2 30C2 14.536 14.536 2 30 2C45.464 2 58 14.536 58 30Z" fill="#FFBA34"/>
<path d="M2.88066 3.33479C4.8346 1.76551 7.44052 2.29513 9 4.00888C10.5595 2.29513 13.1211 1.78201 15.1086 3.33479C17.0962 4.88756 17.3377 7.52781 15.8033 9.38383C14.5274 10.9269 10.2654 14.5466 9 15.6C7.73458 14.5466 3.46186 10.9269 2.18607 9.38383C0.65163 7.52781 0.926719 4.90407 2.88066 3.33479Z" fill="#F20D44"/>
<path d="M5.1716 46.9872C6.43629 45.319 8.67832 45.1669 10.3158 46.1798C11.2275 44.4838 13.2125 43.5173 15.1658 44.3092C17.119 45.1011 17.8756 47.1348 17.0145 48.9377C16.2985 50.4366 13.5815 54.2306 12.7704 55.3402C11.513 54.7849 7.25435 52.86 5.88485 51.9198C4.23768 50.7891 3.90691 48.6553 5.1716 46.9872Z" fill="#F20D44"/>
<path d="M41.6699 37.4669C44.6919 36.0612 47.7966 37.6408 49.1616 40.4259C51.7362 38.6964 55.153 38.8875 57.1155 41.6055C59.078 44.3234 58.4512 47.8828 55.858 49.8082C53.7018 51.4089 47.0408 54.7341 45.0707 55.6934C43.844 53.8776 39.7245 47.6637 38.6577 45.1994C37.3745 42.2354 38.648 38.8725 41.6699 37.4669Z" fill="#F20D44"/>
<path fill-rule="evenodd" clip-rule="evenodd" d="M20.6332 27.5455C21.4364 27.343 22.2519 27.8299 22.4545 28.6332C24.4274 36.4559 35.5907 36.4084 37.5469 28.773C37.7526 27.9705 38.5698 27.4866 39.3723 27.6922C40.1748 27.8978 40.6587 28.7151 40.4531 29.5176C37.7137 40.2095 22.2682 40.162 19.5456 29.3668C19.343 28.5636 19.8299 27.7481 20.6332 27.5455Z" fill="#572217"/>
<path fill-rule="evenodd" clip-rule="evenodd" d="M36.5068 23.4166C37.2891 23.689 38.1442 23.2756 38.4166 22.4932C39.1498 20.3873 40.7005 19.5073 42.0773 19.5C43.4459 19.4929 44.9255 20.3429 45.5708 22.3687C45.8222 23.158 46.6659 23.5941 47.4553 23.3426C48.2446 23.0912 48.6807 22.2475 48.4292 21.4581C47.4079 18.2517 44.8134 16.4856 42.0616 16.5001C39.318 16.5145 36.702 18.2939 35.5834 21.5068C35.311 22.2891 35.7244 23.1442 36.5068 23.4166Z" fill="#572217"/>
<path fill-rule="evenodd" clip-rule="evenodd" d="M11.5068 23.4166C12.2891 23.689 13.1442 23.2756 13.4166 22.4932C14.1498 20.3873 15.7005 19.5073 17.0773 19.5C18.4459 19.4929 19.9255 20.3429 20.5708 22.3687C20.8222 23.158 21.6659 23.5941 22.4553 23.3426C23.2446 23.0912 23.6807 22.2475 23.4292 21.4581C22.4079 18.2517 19.8134 16.4856 17.0616 16.5001C14.318 16.5145 11.702 18.2939 10.5834 21.5068C10.311 22.2891 10.7244 23.1442 11.5068 23.4166Z" fill="#572217"/>
</svg>
