<svg width="60" height="60" viewBox="0 0 60 60" fill="none" xmlns="http://www.w3.org/2000/svg">
<path d="M11.1713 10.2576C17.1834 4.78888 25.2016 6.63454 30 12.6067C34.7984 6.63454 42.6803 4.84641 48.7958 10.2576C54.9112 15.6688 55.6544 24.8696 50.9331 31.3376C47.0075 36.715 33.8936 49.329 30 53C26.1064 49.329 12.9596 36.715 9.03408 31.3376C4.31272 24.8696 5.15914 15.7263 11.1713 10.2576Z" fill="#F20D61"/>
<path d="M15.5 25L18.7704 34.2296L28 37.5L18.7704 40.7704L15.5 50L12.2296 40.7704L3 37.5L12.2296 34.2296L15.5 25Z" fill="#FFBA34"/>
<path d="M47.5 4L49.4622 9.53778L55 11.5L49.4622 13.4622L47.5 19L45.5378 13.4622L40 11.5L45.5378 9.53778L47.5 4Z" fill="#FFBA34"/>
</svg>
