<svg width="60" height="60" viewBox="0 0 60 60" fill="none" xmlns="http://www.w3.org/2000/svg">
<path d="M58 30C58 45.464 45.464 58 30 58C14.536 58 2 45.464 2 30C2 14.536 14.536 2 30 2C45.464 2 58 14.536 58 30Z" fill="#FFBA34"/>
<path d="M45.8625 37.1965C35.5865 38.4682 21.6961 36.1673 12.7616 31.9389C11.1367 31.1699 10.3242 30.7854 9.69428 30.8983C9.1655 30.9931 8.6495 31.3388 8.36072 31.7918C8.01669 32.3315 8.05242 33.0196 8.1239 34.3958C8.74951 46.4409 21.1405 53.4922 30 53C38.3204 52.5378 45.6022 49.3834 49.5417 41.4249L49.5417 41.4248C50.2879 39.9175 50.6609 39.1638 50.5368 38.5058C50.43 37.9392 50.07 37.4318 49.5704 37.1438C48.9903 36.8095 47.9477 36.9385 45.8625 37.1965Z" fill="#E40037"/>
<path fill-rule="evenodd" clip-rule="evenodd" d="M24.5592 25.4709C25.5202 25.9724 26.0008 26.2231 26.4012 26.092C26.8015 25.9608 26.9711 25.6157 27.3102 24.9255C27.7555 24.0194 28 23.0325 28 22C28 17.5817 23.5228 14 18 14C12.4772 14 8 17.5817 8 22C8 23.0325 8.24452 24.0194 8.68976 24.9255C9.02889 25.6157 9.19846 25.9608 9.59885 26.092C9.99924 26.2231 10.4798 25.9724 11.4408 25.4709C13.1966 24.5547 15.4903 24 18 24C20.5097 24 22.8034 24.5547 24.5592 25.4709Z" fill="white"/>
<path fill-rule="evenodd" clip-rule="evenodd" d="M48.5592 25.4709C49.5202 25.9724 50.0008 26.2231 50.4012 26.092C50.8015 25.9608 50.9711 25.6157 51.3102 24.9255C51.7555 24.0194 52 23.0325 52 22C52 17.5817 47.5228 14 42 14C36.4772 14 32 17.5817 32 22C32 23.0325 32.2445 24.0194 32.6898 24.9255C33.0289 25.6157 33.1985 25.9608 33.5988 26.092C33.9992 26.2231 34.4798 25.9724 35.4408 25.4709C37.1966 24.5547 39.4903 24 42 24C44.5097 24 46.8034 24.5547 48.5592 25.4709Z" fill="white"/>
<path d="M19 19.5C19 21.9853 16.9853 24 14.5 24C12.0147 24 10 21.9853 10 19.5C10 17.0147 12.0147 15 14.5 15C16.9853 15 19 17.0147 19 19.5Z" fill="#572217"/>
<path d="M43 19.5C43 21.9853 40.9853 24 38.5 24C36.0147 24 34 21.9853 34 19.5C34 17.0147 36.0147 15 38.5 15C40.9853 15 43 17.0147 43 19.5Z" fill="#572217"/>
</svg>
