<svg width="60" height="60" viewBox="0 0 60 60" fill="none" xmlns="http://www.w3.org/2000/svg">
<g clip-path="url(#clip0_1_260)">
<path fill-rule="evenodd" clip-rule="evenodd" d="M19.9384 10.7766C19.5242 10.0592 18.6068 9.81337 17.8894 10.2276L14.2521 12.3276C13.5346 12.7418 13.2888 13.6592 13.703 14.3766L24.453 32.9962C24.7292 33.4745 24.5653 34.086 24.087 34.3622L22.7015 35.1621C22.2232 35.4383 21.6116 35.2744 21.3355 34.7961L14.1855 22.4119C13.7713 21.6945 12.8539 21.4487 12.1364 21.8629L8.49913 23.9629C7.78169 24.3771 7.53588 25.2945 7.95009 26.0119L16.0501 40.0415C16.0666 40.0702 16.084 40.0981 16.1021 40.1253C16.1765 40.2367 16.2438 40.3535 16.3031 40.4736C16.3177 40.5031 16.3333 40.5323 16.35 40.5612L24.45 54.5908C24.8642 55.3083 25.7816 55.5541 26.499 55.1399L47.974 42.7413C48.0997 42.6687 48.241 42.6296 48.3818 42.5946C48.7955 42.4919 49.1501 42.2077 49.3372 41.8049C49.3616 41.7525 49.3874 41.7006 49.4146 41.6497C49.5167 41.4589 49.5764 41.248 49.5898 41.0324C49.5955 40.9409 49.6033 40.8491 49.6255 40.7601L53.2237 26.3373C53.4243 25.5335 52.9412 24.6969 52.1449 24.4687L48.1074 23.3116C47.311 23.0833 46.5029 23.5499 46.3024 24.3537L45.0745 29.2752C44.8569 30.1477 43.6879 30.3119 43.2383 29.5331L41.2915 26.1612C41.2749 26.1324 41.2574 26.1044 41.2392 26.0771C41.1649 25.9657 41.0975 25.849 41.0382 25.7289C41.0237 25.6995 41.0081 25.6704 40.9915 25.6416L31.0915 8.49431C30.6773 7.77687 29.7599 7.53106 29.0425 7.94527L25.4052 10.0453C24.6877 10.4595 24.4419 11.3769 24.8561 12.0943L33.8061 27.5962C34.0823 28.0745 33.9184 28.686 33.4401 28.9622L32.0544 29.7622C31.5762 30.0383 30.9646 29.8745 30.6884 29.3962L19.9384 10.7766Z" fill="#FFBA34"/>
<path fill-rule="evenodd" clip-rule="evenodd" d="M48.9339 20.4277C46.5057 19.7318 44.003 21.1767 43.3916 23.6275L43.3617 23.747L33.6896 6.99431C32.4469 4.842 29.6948 4.10455 27.5424 5.34719L23.9051 7.44719C23.243 7.8295 22.7147 8.35468 22.3368 8.96131C21.0173 7.05485 18.4329 6.44964 16.3894 7.62951L12.7521 9.72951C10.5997 10.9721 9.8623 13.7243 11.1049 15.8766L12.7144 18.6643C12.0058 18.6908 11.2932 18.8856 10.6364 19.2648L6.99911 21.3648C4.84679 22.6075 4.10935 25.3596 5.35199 27.5119L13.452 41.5415C13.501 41.6264 13.5525 41.7094 13.6066 41.7904C13.6087 41.7936 13.611 41.7975 13.6127 41.8009C13.6561 41.8889 13.7025 41.9757 13.7519 42.0612L21.8519 56.0908C23.0945 58.2432 25.8467 58.9806 27.999 57.738L49.254 45.4664C50.4709 45.1187 51.5052 44.2588 52.058 43.0687C52.0594 43.0657 52.0601 43.0643 52.06 43.0646C52.3483 42.5257 52.5235 41.9341 52.576 41.3271L56.1345 27.0635C56.7263 24.6913 55.3216 22.2583 52.9713 21.5848L48.9339 20.4277ZM46.3023 24.3537C46.5029 23.5499 47.311 23.0833 48.1074 23.3116L52.1449 24.4687C52.9412 24.6969 53.4242 25.5335 53.2237 26.3373L49.6255 40.7601C49.6033 40.8491 49.5955 40.9409 49.5898 41.0324C49.5764 41.248 49.5166 41.4589 49.4146 41.6497C49.3874 41.7006 49.3615 41.7525 49.3372 41.8049C49.1501 42.2077 48.7954 42.4918 48.3818 42.5946C48.241 42.6296 48.0997 42.6687 47.974 42.7413L26.499 55.1399C25.7815 55.5541 24.8642 55.3083 24.4499 54.5908L16.3499 40.5612C16.3333 40.5323 16.3176 40.5031 16.3031 40.4736C16.2438 40.3535 16.1765 40.2367 16.1021 40.1253C16.084 40.0981 16.0666 40.0702 16.0501 40.0415L7.95007 26.0119C7.53585 25.2945 7.78167 24.3771 8.49911 23.9629L12.1364 21.8629C12.8539 21.4487 13.7712 21.6945 14.1855 22.4119L21.3355 34.7961C21.6116 35.2744 22.2232 35.4383 22.7015 35.1621L24.087 34.3622C24.5653 34.086 24.7292 33.4745 24.453 32.9962L13.703 14.3766C13.2888 13.6592 13.5346 12.7418 14.2521 12.3276L17.8894 10.2276C18.6068 9.81337 19.5242 10.0592 19.9384 10.7766L30.6884 29.3962C30.9645 29.8745 31.5761 30.0383 32.0544 29.7622L33.4401 28.9622C33.9184 28.686 34.0822 28.0745 33.8061 27.5962L24.8561 12.0943C24.4419 11.3769 24.6877 10.4595 25.4051 10.0453L29.0424 7.94527C29.7599 7.53106 30.6773 7.77687 31.0915 8.49431L40.9915 25.6416C41.0081 25.6704 41.0237 25.6995 41.0382 25.7289C41.0975 25.849 41.1648 25.9657 41.2392 26.0771C41.2574 26.1044 41.2749 26.1324 41.2915 26.1612L43.2382 29.5331C43.6879 30.3119 44.8568 30.1477 45.0745 29.2752L46.3023 24.3537Z" fill="#572217"/>
<path fill-rule="evenodd" clip-rule="evenodd" d="M14.9021 49.6996C14.513 50.431 13.6047 50.7084 12.8734 50.3193C10.3179 48.9596 8.26648 47.2686 6.91206 45.0544C5.54964 42.8272 4.97181 40.2005 5.14649 37.1153C5.19332 36.2882 5.90178 35.6556 6.72888 35.7025C7.55598 35.7493 8.18852 36.4578 8.14169 37.2849C7.99462 39.8826 8.48542 41.8774 9.47121 43.4889C10.465 45.1135 12.0414 46.4785 14.2825 47.6708C15.0138 48.06 15.2913 48.9683 14.9021 49.6996Z" fill="#572217"/>
<path fill-rule="evenodd" clip-rule="evenodd" d="M36.5783 4.98415C36.9674 4.2528 37.8758 3.97537 38.6071 4.36449C41.1626 5.72416 43.214 7.41524 44.5684 9.62938C45.9308 11.8566 46.5087 14.4833 46.334 17.5685C46.2872 18.3956 45.5787 19.0282 44.7516 18.9813C43.9245 18.9345 43.2919 18.226 43.3388 17.3989C43.4859 14.8012 42.995 12.8064 42.0093 11.1949C41.0155 9.57026 39.4391 8.20534 37.198 7.01295C36.4666 6.62383 36.1892 5.71551 36.5783 4.98415Z" fill="#572217"/>
<path opacity="0.5" fill-rule="evenodd" clip-rule="evenodd" d="M9.20448 52.6671C8.99279 53.468 8.1719 53.9457 7.37098 53.734C5.81756 53.3234 4.45898 52.5714 3.42716 51.3137C2.40808 50.0716 1.81021 48.4609 1.54062 46.5078C1.42734 45.6872 2.00078 44.9301 2.82142 44.8168C3.64207 44.7035 4.39916 45.2769 4.51244 46.0976C4.73239 47.6911 5.18218 48.7231 5.74648 49.4109C6.29804 50.0832 7.05856 50.5484 8.13759 50.8336C8.93851 51.0453 9.41618 51.8662 9.20448 52.6671Z" fill="#572217"/>
<path opacity="0.5" fill-rule="evenodd" clip-rule="evenodd" d="M42.276 2.01669C42.4877 1.21577 43.3086 0.738107 44.1095 0.949802C45.6629 1.36039 47.0215 2.11242 48.0533 3.37009C49.0724 4.61223 49.6703 6.22287 49.9399 8.17598C50.0531 8.99663 49.4797 9.75373 48.659 9.867C47.8384 9.98028 47.0813 9.40684 46.968 8.5862C46.7481 6.99273 46.2983 5.96073 45.734 5.27292C45.1824 4.60063 44.4219 4.1354 43.3429 3.8502C42.542 3.6385 42.0643 2.81762 42.276 2.01669Z" fill="#572217"/>
<path fill-rule="evenodd" clip-rule="evenodd" d="M41.4479 31.5677C41.8632 32.1904 41.7559 33.0239 41.1965 33.5211C36.9277 37.3156 33.16 42.4872 30.9005 48.5257C30.6102 49.3016 29.7458 49.6952 28.9699 49.4049C28.194 49.1145 27.8004 48.2502 28.0908 47.4743C29.5097 43.6823 31.4756 40.2119 33.7783 37.1658L23.4521 42.1508C22.7061 42.511 21.8093 42.1982 21.4492 41.4521C21.089 40.7061 21.4018 39.8093 22.1479 39.4492L39.5479 31.0492C40.2219 30.7238 41.0326 30.945 41.4479 31.5677Z" fill="#E27C23"/>
</g>
<defs>
<clipPath id="clip0_1_260">
<rect width="60" height="60" fill="white"/>
</clipPath>
</defs>
</svg>
