<svg width="60" height="60" viewBox="0 0 60 60" fill="none" xmlns="http://www.w3.org/2000/svg">
<path d="M2.91277 9.20913C4.27545 18.1736 6.57426 22.8421 10.8335 27.7113C11.3765 28.332 11.648 28.6424 12.0419 28.8212C12.4359 29 12.8699 29 13.7379 29H26C27.8856 29 28.8284 29 29.4142 28.4142C30 27.8284 30 26.8856 30 25V11C30 9.122 30 8.183 29.4545 7.60501C28.909 7.02701 27.9417 6.97105 26.0071 6.85912C21.9168 6.62247 15.3515 5.98827 9.53913 4.28869C5.69914 3.16584 3.77914 2.60442 2.9537 3.32633C2.12826 4.04823 2.38976 5.76853 2.91277 9.20913Z" fill="#7A0EA6"/>
<path d="M57.0872 9.20913C55.7246 18.1736 53.4258 22.8421 49.1665 27.7113C48.6235 28.332 48.352 28.6424 47.9581 28.8212C47.5641 29 47.1301 29 46.2621 29H34C32.1144 29 31.1716 29 30.5858 28.4142C30 27.8284 30 26.8856 30 25V11C30 9.122 30 8.183 30.5455 7.60501C31.091 7.02701 32.0583 6.97105 33.9929 6.85912C38.0833 6.62247 44.6485 5.98827 50.4609 4.28869C54.3009 3.16584 56.2209 2.60442 57.0463 3.32633C57.8717 4.04823 57.6102 5.76853 57.0872 9.20913Z" fill="#7A0EA6"/>
<path d="M57 30C57 44.9117 44.9117 57 30 57C15.0883 57 3 44.9117 3 30C3 15.0883 15.0883 3 30 3C44.9117 3 57 15.0883 57 30Z" fill="#C100F1"/>
<path d="M27.6 31.8C27.6 36.1078 24.1078 39.6 19.8 39.6C15.4922 39.6 12 36.1078 12 31.8C12 27.4922 15.4922 24 19.8 24C24.1078 24 27.6 27.4922 27.6 31.8Z" fill="white"/>
<path d="M31.2 31.8C31.2 36.1078 34.6922 39.6 39 39.6C43.3079 39.6 46.8 36.1078 46.8 31.8C46.8 27.4922 43.3079 24 39 24C34.6922 24 31.2 27.4922 31.2 31.8Z" fill="white"/>
<path d="M26.4 32.4C26.4 35.0509 24.251 37.2 21.6 37.2C18.9491 37.2 16.8 35.0509 16.8 32.4C16.8 29.749 18.9491 27.6 21.6 27.6C24.251 27.6 26.4 29.749 26.4 32.4Z" fill="#331B5B"/>
<path d="M32.4 32.4C32.4 35.0509 34.549 37.2 37.2 37.2C39.851 37.2 42 35.0509 42 32.4C42 29.749 39.851 27.6 37.2 27.6C34.549 27.6 32.4 29.749 32.4 32.4Z" fill="#331B5B"/>
<path fill-rule="evenodd" clip-rule="evenodd" d="M18.0463 16.5036C18.8289 16.2318 19.6836 16.646 19.9554 17.4286C20.6004 19.2861 21.2655 20.5042 22.1192 21.4781C22.9795 22.4595 24.1105 23.2839 25.8332 24.2409C26.5574 24.6431 26.8184 25.5563 26.4161 26.2805C26.0138 27.0047 25.1006 27.2657 24.3764 26.8634C22.5177 25.8309 21.049 24.8083 19.8633 23.4557C18.671 22.0956 17.8436 20.4927 17.1213 18.4126C16.8496 17.63 17.2637 16.7753 18.0463 16.5036Z" fill="#331B5B"/>
<path fill-rule="evenodd" clip-rule="evenodd" d="M40.7537 16.5036C41.5363 16.7753 41.9504 17.63 41.6787 18.4126C40.9564 20.4927 40.1291 22.0956 38.9368 23.4557C37.7511 24.8083 36.2824 25.8309 34.4236 26.8634C33.6994 27.2657 32.7862 27.0047 32.3839 26.2805C31.9817 25.5563 32.2426 24.6431 32.9668 24.2409C34.6896 23.2839 35.8205 22.4595 36.6809 21.4781C37.5346 20.5042 38.1997 19.2861 38.8447 17.4286C39.1164 16.646 39.9711 16.2318 40.7537 16.5036Z" fill="#331B5B"/>
<path fill-rule="evenodd" clip-rule="evenodd" d="M19.205 48.272C19.9075 48.7111 20.8329 48.4975 21.272 47.795C21.8706 46.8372 23.0011 46.0024 24.591 45.4038C26.165 44.8112 28.0648 44.5 30 44.5C31.9352 44.5 33.835 44.8112 35.409 45.4038C36.9989 46.0024 38.1294 46.8372 38.728 47.795C39.1671 48.4975 40.0925 48.7111 40.795 48.272C41.4975 47.8329 41.7111 46.9075 41.272 46.205C40.204 44.4961 38.4177 43.331 36.466 42.5962C34.4983 41.8554 32.2314 41.5 30 41.5C27.7686 41.5 25.5017 41.8554 23.534 42.5962C21.5823 43.331 19.796 44.4961 18.728 46.205C18.2889 46.9075 18.5025 47.8329 19.205 48.272Z" fill="#331B5B"/>
</svg>
