<svg width="60" height="60" viewBox="0 0 60 60" fill="none" xmlns="http://www.w3.org/2000/svg">
<path d="M2.91277 9.20913C4.27545 18.1736 6.57426 22.8421 10.8335 27.7113C11.3765 28.332 11.648 28.6424 12.0419 28.8212C12.4359 29 12.8699 29 13.7379 29H26C27.8856 29 28.8284 29 29.4142 28.4142C30 27.8284 30 26.8856 30 25V11C30 9.122 30 8.183 29.4545 7.60501C28.909 7.02701 27.9417 6.97105 26.0071 6.85912C21.9168 6.62247 15.3515 5.98827 9.53913 4.28869C5.69914 3.16584 3.77914 2.60442 2.9537 3.32633C2.12826 4.04823 2.38976 5.76853 2.91277 9.20913Z" fill="#331B5B"/>
<path d="M2.91277 9.20913C4.27545 18.1736 6.57426 22.8421 10.8335 27.7113C11.3765 28.332 11.648 28.6424 12.0419 28.8212C12.4359 29 12.8699 29 13.7379 29H26C27.8856 29 28.8284 29 29.4142 28.4142C30 27.8284 30 26.8856 30 25V11C30 9.122 30 8.183 29.4545 7.60501C28.909 7.02701 27.9417 6.97105 26.0071 6.85912C21.9168 6.62247 15.3515 5.98827 9.53913 4.28869C5.69914 3.16584 3.77914 2.60442 2.9537 3.32633C2.12826 4.04823 2.38976 5.76853 2.91277 9.20913Z" fill="#C100F1" fill-opacity="0.5"/>
<path d="M57.0872 9.20913C55.7246 18.1736 53.4258 22.8421 49.1666 27.7113C48.6235 28.332 48.352 28.6424 47.9581 28.8212C47.5641 29 47.1301 29 46.2621 29H34C32.1144 29 31.1716 29 30.5858 28.4142C30 27.8284 30 26.8856 30 25V11C30 9.122 30 8.183 30.5455 7.60501C31.091 7.02701 32.0583 6.97105 33.9929 6.85912C38.0833 6.62247 44.6485 5.98827 50.4609 4.28869C54.3009 3.16584 56.2209 2.60442 57.0463 3.32633C57.8718 4.04823 57.6103 5.76853 57.0872 9.20913Z" fill="#331B5B"/>
<path d="M57.0872 9.20913C55.7246 18.1736 53.4258 22.8421 49.1666 27.7113C48.6235 28.332 48.352 28.6424 47.9581 28.8212C47.5641 29 47.1301 29 46.2621 29H34C32.1144 29 31.1716 29 30.5858 28.4142C30 27.8284 30 26.8856 30 25V11C30 9.122 30 8.183 30.5455 7.60501C31.091 7.02701 32.0583 6.97105 33.9929 6.85912C38.0833 6.62247 44.6485 5.98827 50.4609 4.28869C54.3009 3.16584 56.2209 2.60442 57.0463 3.32633C57.8718 4.04823 57.6103 5.76853 57.0872 9.20913Z" fill="#C100F1" fill-opacity="0.5"/>
<path d="M57 30C57 44.9117 44.9117 57 30 57C15.0883 57 3 44.9117 3 30C3 15.0883 15.0883 3 30 3C44.9117 3 57 15.0883 57 30Z" fill="#C100F1"/>
<path d="M27.6 23.8C27.6 28.1078 24.1078 31.6 19.8 31.6C15.4922 31.6 12 28.1078 12 23.8C12 19.4922 15.4922 16 19.8 16C24.1078 16 27.6 19.4922 27.6 23.8Z" fill="white"/>
<path d="M31.2 23.8C31.2 28.1078 34.6922 31.6 39 31.6C43.3079 31.6 46.8 28.1078 46.8 23.8C46.8 19.4922 43.3079 16 39 16C34.6922 16 31.2 19.4922 31.2 23.8Z" fill="white"/>
<path d="M26.4 24.4C26.4 27.0509 24.251 29.2 21.6 29.2C18.9491 29.2 16.8 27.0509 16.8 24.4C16.8 21.749 18.9491 19.6 21.6 19.6C24.251 19.6 26.4 21.749 26.4 24.4Z" fill="#331B5B"/>
<path d="M32.4 24.4C32.4 27.0509 34.549 29.2 37.2 29.2C39.851 29.2 42 27.0509 42 24.4C42 21.749 39.851 19.6 37.2 19.6C34.549 19.6 32.4 21.749 32.4 24.4Z" fill="#331B5B"/>
<path fill-rule="evenodd" clip-rule="evenodd" d="M18.0463 8.50358C18.8289 8.23184 19.6836 8.64597 19.9554 9.42856C20.6004 11.2861 21.2655 12.5042 22.1192 13.4781C22.9795 14.4595 24.1105 15.2839 25.8332 16.2409C26.5574 16.6431 26.8184 17.5563 26.4161 18.2805C26.0138 19.0047 25.1006 19.2657 24.3764 18.8634C22.5177 17.8309 21.049 16.8083 19.8633 15.4557C18.671 14.0956 17.8436 12.4927 17.1213 10.4126C16.8496 9.63002 17.2637 8.77532 18.0463 8.50358Z" fill="#331B5B"/>
<path fill-rule="evenodd" clip-rule="evenodd" d="M40.7537 8.50358C41.5363 8.77532 41.9504 9.63002 41.6787 10.4126C40.9564 12.4927 40.1291 14.0956 38.9368 15.4557C37.7511 16.8083 36.2824 17.8309 34.4236 18.8634C33.6994 19.2657 32.7862 19.0047 32.3839 18.2805C31.9817 17.5563 32.2426 16.6431 32.9668 16.2409C34.6896 15.2839 35.8205 14.4595 36.6809 13.4781C37.5346 12.5042 38.1997 11.2861 38.8447 9.42856C39.1164 8.64597 39.9711 8.23184 40.7537 8.50358Z" fill="#331B5B"/>
<path fill-rule="evenodd" clip-rule="evenodd" d="M19.205 33.728C19.9075 33.2889 20.8329 33.5025 21.272 34.205C21.8706 35.1628 23.0011 35.9976 24.591 36.5962C26.165 37.1888 28.0648 37.5 30 37.5C31.9352 37.5 33.835 37.1888 35.409 36.5962C36.9989 35.9976 38.1294 35.1628 38.728 34.205C39.1671 33.5025 40.0925 33.2889 40.795 33.728C41.4975 34.1671 41.7111 35.0925 41.272 35.795C40.204 37.5039 38.4177 38.669 36.466 39.4038C34.4983 40.1446 32.2314 40.5 30 40.5C27.7686 40.5 25.5017 40.1446 23.534 39.4038C21.5823 38.669 19.796 37.5039 18.728 35.795C18.2889 35.0925 18.5025 34.1671 19.205 33.728Z" fill="#331B5B"/>
</svg>
