<svg width="60" height="60" viewBox="0 0 60 60" fill="none" xmlns="http://www.w3.org/2000/svg">
<path d="M58 30C58 45.464 45.464 58 30 58C14.536 58 2 45.464 2 30C2 14.536 14.536 2 30 2C45.464 2 58 14.536 58 30Z" fill="#FFBA34"/>
<path d="M49.75 26.8708C49.75 26.8708 56.6095 30.7519 57.7141 32.665C58.8187 34.5782 58.1632 37.0246 56.25 38.1291C54.3368 39.2337 51.8905 38.5782 50.7859 36.665C49.6813 34.7519 49.75 26.8708 49.75 26.8708Z" fill="#00A3FF"/>
<path d="M10.25 26.8708C10.25 26.8708 10.3187 34.7519 9.21409 36.665C8.10952 38.5782 5.66316 39.2337 3.74999 38.1292C1.83682 37.0246 1.18132 34.5782 2.28589 32.665C3.39046 30.7519 10.25 26.8708 10.25 26.8708Z" fill="#00A3FF"/>
<path d="M12.4799 35.2996C13.5489 38.2285 15.6076 41.6704 19.2131 44.0596C20.1023 43.1186 25.0077 42.5482 30 42.4793C34.9923 42.5482 39.8977 43.1186 40.7869 44.0596C44.3924 41.6704 46.4511 38.2285 47.5201 35.2996C47.9004 34.2576 48.0906 33.7365 47.9579 33.2179C47.8332 32.7307 47.4445 32.2761 46.9909 32.0869C46.5081 31.8856 45.8176 32.0537 44.4365 32.3899C42.7239 35.7275 36.3124 37.6496 30 37.7611C23.6876 37.6496 17.2761 35.7275 15.5635 32.3899C14.1824 32.0537 13.4919 31.8856 13.0091 32.0869C12.5555 32.2761 12.1668 32.7307 12.0421 33.2179C11.9094 33.7365 12.0996 34.2576 12.4799 35.2996Z" fill="#E40037"/>
<path d="M30 33.8642C24.7903 33.8639 19.5734 33.3661 15.5635 32.3899C17.2761 35.7275 23.6876 37.6496 30 37.7611C36.3124 37.6496 42.7239 35.7275 44.4365 32.3899C40.4266 33.3661 35.2097 33.8639 30 33.8642Z" fill="white"/>
<path d="M19.2131 44.0596C21.8843 45.8296 25.4044 47.0218 30 46.9997C34.5956 47.0218 38.1157 45.8296 40.7869 44.0596C39.8977 43.1186 34.9923 42.5482 30 42.4793C25.0077 42.5482 20.1023 43.1186 19.2131 44.0596Z" fill="#E40037"/>
<path fill-rule="evenodd" clip-rule="evenodd" d="M32.455 26.3975C33.2269 26.6985 34.0965 26.3168 34.3975 25.545C36.5259 20.0869 43.7572 20.2664 45.5872 25.3958C45.8656 26.176 46.7238 26.5829 47.504 26.3045C48.2843 26.0261 48.6911 25.1679 48.4128 24.3877C45.5761 16.4366 34.6593 16.6161 31.6025 24.455C31.3015 25.2269 31.6832 26.0965 32.455 26.3975Z" fill="#572217"/>
<path fill-rule="evenodd" clip-rule="evenodd" d="M11.455 26.3975C12.2269 26.6985 13.0965 26.3168 13.3975 25.545C15.5259 20.0869 22.7572 20.2664 24.5872 25.3958C24.8656 26.176 25.7238 26.5829 26.504 26.3045C27.2843 26.0261 27.6912 25.1679 27.4128 24.3877C24.5761 16.4366 13.6593 16.6161 10.6025 24.455C10.3015 25.2269 10.6832 26.0965 11.455 26.3975Z" fill="#572217"/>
</svg>
