<svg width="60" height="60" viewBox="0 0 60 60" fill="none" xmlns="http://www.w3.org/2000/svg">
<path d="M58 30C58 45.464 45.464 58 30 58C14.536 58 2 45.464 2 30C2 14.536 14.536 2 30 2C45.464 2 58 14.536 58 30Z" fill="#FFBA34"/>
<path d="M28 26C28 30.4183 24.4183 34 20 34C15.5817 34 12 30.4183 12 26C12 21.5817 15.5817 18 20 18C24.4183 18 28 21.5817 28 26Z" fill="white"/>
<path fill-rule="evenodd" clip-rule="evenodd" d="M31 26C31 32.0751 26.0751 37 20 37C13.9249 37 9 32.0751 9 26C9 19.9249 13.9249 15 20 15C26.0751 15 31 19.9249 31 26ZM20 34C24.4183 34 28 30.4183 28 26C28 21.5817 24.4183 18 20 18C15.5817 18 12 21.5817 12 26C12 30.4183 15.5817 34 20 34Z" fill="#572217"/>
<path d="M32 26C32 30.4183 35.5817 34 40 34C44.4183 34 48 30.4183 48 26C48 21.5817 44.4183 18 40 18C35.5817 18 32 21.5817 32 26Z" fill="white"/>
<path fill-rule="evenodd" clip-rule="evenodd" d="M29 26C29 32.0751 33.9249 37 40 37C46.0751 37 51 32.0751 51 26C51 19.9249 46.0751 15 40 15C33.9249 15 29 19.9249 29 26ZM40 34C35.5817 34 32 30.4183 32 26C32 21.5817 35.5817 18 40 18C44.4183 18 48 21.5817 48 26C48 30.4183 44.4183 34 40 34Z" fill="#572217"/>
<path d="M26.6 25.8C26.6 28.451 24.451 30.6 21.8 30.6C19.149 30.6 17 28.451 17 25.8C17 23.149 19.149 21 21.8 21C24.451 21 26.6 23.149 26.6 25.8Z" fill="#572217"/>
<path d="M33 25.8C33 28.451 35.149 30.6 37.8 30.6C40.451 30.6 42.6 28.451 42.6 25.8C42.6 23.149 40.451 21 37.8 21C35.149 21 33 23.149 33 25.8Z" fill="#572217"/>
<path fill-rule="evenodd" clip-rule="evenodd" d="M1.5 21C1.5 20.1716 2.17157 19.5 3 19.5H11C11.8284 19.5 12.5 20.1716 12.5 21C12.5 21.8284 11.8284 22.5 11 22.5H3C2.17157 22.5 1.5 21.8284 1.5 21Z" fill="#572217"/>
<path fill-rule="evenodd" clip-rule="evenodd" d="M47.5 21C47.5 20.1716 48.1716 19.5 49 19.5H57C57.8284 19.5 58.5 20.1716 58.5 21C58.5 21.8284 57.8284 22.5 57 22.5H49C48.1716 22.5 47.5 21.8284 47.5 21Z" fill="#572217"/>
<path fill-rule="evenodd" clip-rule="evenodd" d="M19.205 38.728C19.9075 38.2889 20.8329 38.5025 21.272 39.205C21.8706 40.1628 23.0011 40.9976 24.591 41.5962C26.165 42.1888 28.0648 42.5 30 42.5C31.9352 42.5 33.835 42.1888 35.409 41.5962C36.9989 40.9976 38.1294 40.1628 38.728 39.205C39.1671 38.5025 40.0925 38.2889 40.795 38.728C41.4975 39.1671 41.7111 40.0925 41.272 40.795C40.204 42.5039 38.4177 43.669 36.466 44.4038C34.4983 45.1446 32.2314 45.5 30 45.5C27.7686 45.5 25.5017 45.1446 23.534 44.4038C21.5823 43.669 19.796 42.5039 18.728 40.795C18.2889 40.0925 18.5025 39.1671 19.205 38.728Z" fill="#572217"/>
<path d="M24 45C24 44.0572 24 43.5858 24.2929 43.2929C24.5858 43 25.0572 43 26 43H28C28.9428 43 29.4142 43 29.7071 43.2929C30 43.5858 30 44.0572 30 45V47C30 47.4645 30 47.6968 29.9692 47.8911C29.7998 48.9608 28.9608 49.7998 27.8911 49.9692C27.6968 50 27.4645 50 27 50V50C26.5355 50 26.3032 50 26.1089 49.9692C25.0392 49.7998 24.2002 48.9608 24.0308 47.8911C24 47.6968 24 47.4645 24 47V45Z" fill="white"/>
<path d="M30 45C30 44.0572 30 43.5858 30.2929 43.2929C30.5858 43 31.0572 43 32 43H34C34.9428 43 35.4142 43 35.7071 43.2929C36 43.5858 36 44.0572 36 45V47C36 47.4645 36 47.6968 35.9692 47.8911C35.7998 48.9608 34.9608 49.7998 33.8911 49.9692C33.6968 50 33.4645 50 33 50V50C32.5355 50 32.3032 50 32.1089 49.9692C31.0392 49.7998 30.2002 48.9608 30.0308 47.8911C30 47.6968 30 47.4645 30 47V45Z" fill="white"/>
<path d="M20 40C23.3333 45.3333 36.6667 45.3333 40 40L39 40.5L34.5 42.5L29.5 43L24 42L20 40Z" fill="#572217"/>
</svg>
