<svg width="60" height="60" viewBox="0 0 60 60" fill="none" xmlns="http://www.w3.org/2000/svg">
<path d="M58 30C58 45.464 45.464 58 30 58C14.536 58 2 45.464 2 30C2 14.536 14.536 2 30 2C45.464 2 58 14.536 58 30Z" fill="#FFBA34"/>
<path fill-rule="evenodd" clip-rule="evenodd" d="M43.7909 38.8213C44.5523 39.1476 44.905 40.0294 44.5787 40.7909C43.9055 42.3618 42.3561 43.4654 40.6139 44.2564C38.8204 45.0707 36.5434 45.6801 33.9966 46.1046C28.8934 46.9551 22.4598 47.103 16.0578 46.4932C15.2331 46.4147 14.6282 45.6825 14.7068 44.8578C14.7853 44.0331 15.5175 43.4282 16.3422 43.5068C22.5402 44.097 28.7066 43.9449 33.5034 43.1454C35.9066 42.7449 37.9046 42.1918 39.3736 41.5248C40.8939 40.8346 41.5945 40.1382 41.8213 39.6091C42.1476 38.8477 43.0294 38.4949 43.7909 38.8213Z" fill="#572217"/>
<path fill-rule="evenodd" clip-rule="evenodd" d="M54.0862 33.4283C54.5125 34.1386 54.2821 35.06 53.5717 35.4862C53.0755 35.784 52.4684 36.3832 51.8214 37.2976C51.1883 38.1924 50.5789 39.3006 50.0474 40.5055C48.9698 42.948 48.3 45.5835 48.3 47.4C48.3 48.2284 47.6284 48.9 46.8 48.9C45.9716 48.9 45.3 48.2284 45.3 47.4C45.3 45.0165 46.1302 41.952 47.3026 39.2945C47.8961 37.9494 48.5992 36.6576 49.3724 35.5649C50.1316 34.4918 51.0245 33.516 52.0283 32.9138C52.7386 32.4875 53.66 32.7179 54.0862 33.4283Z" fill="#572217"/>
<path d="M26.4 26.4C26.4 29.051 22.1019 31.2 16.8 31.2C11.4981 31.2 7.2 29.051 7.2 26.4C7.2 23.749 11.4981 21.6 16.8 21.6C22.1019 21.6 26.4 23.749 26.4 26.4Z" fill="white"/>
<path d="M21.6 26.4C21.6 29.051 19.451 31.2 16.8 31.2C14.149 31.2 12 29.051 12 26.4C12 23.749 14.149 21.6 16.8 21.6C19.451 21.6 21.6 23.749 21.6 26.4Z" fill="#572217"/>
<path fill-rule="evenodd" clip-rule="evenodd" d="M8.76597 16.8217C7.81804 17.2395 6.89101 18.1378 6.23173 20.2475C5.98463 21.0382 5.14331 21.4789 4.35259 21.2318C3.56188 20.9847 3.12119 20.1434 3.36829 19.3527C4.209 16.6624 5.60698 14.9356 7.55592 14.0765C9.41245 13.2582 11.506 13.3534 13.4693 13.6604C14.4693 13.8168 15.4983 14.0398 16.5101 14.2667C16.6831 14.3055 16.8554 14.3444 17.0273 14.3832C17.875 14.5744 18.7115 14.7631 19.5555 14.9265C21.5909 15.3206 23.5045 15.5313 25.2692 15.2566C26.0878 15.1291 26.8547 15.6893 26.9821 16.5079C27.1096 17.3265 26.5494 18.0934 25.7308 18.2208C23.4455 18.5767 21.1216 18.2854 18.9852 17.8718C18.0919 17.6988 17.2025 17.4982 16.3543 17.3068C16.1857 17.2687 16.0187 17.231 15.8536 17.194C14.8439 16.9676 13.8994 16.7641 13.0057 16.6244C11.1815 16.3391 9.80632 16.3631 8.76597 16.8217Z" fill="#572217"/>
<path d="M33.6 26.4C33.6 29.051 37.8981 31.2 43.2 31.2C48.5019 31.2 52.8 29.051 52.8 26.4C52.8 23.749 48.5019 21.6 43.2 21.6C37.8981 21.6 33.6 23.749 33.6 26.4Z" fill="white"/>
<path d="M38.4 26.4C38.4 29.051 40.549 31.2 43.2 31.2C45.851 31.2 48 29.051 48 26.4C48 23.749 45.851 21.6 43.2 21.6C40.549 21.6 38.4 23.749 38.4 26.4Z" fill="#572217"/>
<path fill-rule="evenodd" clip-rule="evenodd" d="M51.234 16.8217C52.182 17.2395 53.109 18.1378 53.7683 20.2475C54.0154 21.0382 54.8567 21.4789 55.6474 21.2318C56.4381 20.9847 56.8788 20.1434 56.6317 19.3527C55.791 16.6624 54.393 14.9356 52.4441 14.0765C50.5876 13.2582 48.494 13.3534 46.5307 13.6604C45.5307 13.8168 44.5017 14.0398 43.4899 14.2667C43.317 14.3055 43.1446 14.3444 42.9728 14.3832C42.125 14.5744 41.2885 14.7631 40.4446 14.9265C38.4091 15.3206 36.4955 15.5313 34.7308 15.2566C33.9122 15.1291 33.1453 15.6893 33.0179 16.5079C32.8904 17.3265 33.4507 18.0934 34.2692 18.2208C36.5545 18.5767 38.8784 18.2854 41.0148 17.8718C41.9081 17.6988 42.7975 17.4982 43.6457 17.3068C43.8143 17.2687 43.9813 17.231 44.1464 17.194C45.1561 16.9676 46.1006 16.7641 46.9943 16.6244C48.8185 16.3391 50.1937 16.3631 51.234 16.8217Z" fill="#572217"/>
</svg>
