<svg width="60" height="60" viewBox="0 0 60 60" fill="none" xmlns="http://www.w3.org/2000/svg">
<path d="M2 22C2 12.5719 2 7.85786 4.92893 4.92893C7.85786 2 12.5719 2 22 2H38C47.4281 2 52.1421 2 55.0711 4.92893C58 7.85786 58 12.5719 58 22V38C58 47.4281 58 52.1421 55.0711 55.0711C52.1421 58 47.4281 58 38 58H22C12.5719 58 7.85786 58 4.92893 55.0711C2 52.1421 2 47.4281 2 38V22Z" fill="#E40037"/>
<path fill-rule="evenodd" clip-rule="evenodd" d="M12.8787 12.8787C14.0503 11.7071 15.9497 11.7071 17.1213 12.8787L30 25.7574L42.8787 12.8787C44.0503 11.7071 45.9497 11.7071 47.1213 12.8787C48.2929 14.0503 48.2929 15.9497 47.1213 17.1213L34.2426 30L47.1213 42.8787C48.2929 44.0503 48.2929 45.9497 47.1213 47.1213C45.9497 48.2929 44.0503 48.2929 42.8787 47.1213L30 34.2426L17.1213 47.1213C15.9497 48.2929 14.0503 48.2929 12.8787 47.1213C11.7071 45.9497 11.7071 44.0503 12.8787 42.8787L25.7574 30L12.8787 17.1213C11.7071 15.9497 11.7071 14.0503 12.8787 12.8787Z" fill="white"/>
</svg>
