<svg width="60" height="60" viewBox="0 0 60 60" fill="none" xmlns="http://www.w3.org/2000/svg">
<path d="M58 30C58 45.464 45.464 58 30 58C14.536 58 2 45.464 2 30C2 14.536 14.536 2 30 2C45.464 2 58 14.536 58 30Z" fill="#FFBA34"/>
<path fill-rule="evenodd" clip-rule="evenodd" d="M20.3943 40.3723C21.1522 40.7068 22.0378 40.3636 22.3723 39.6057C22.7448 38.7618 23.6275 37.9782 25.0451 37.3931C26.4438 36.8158 28.2004 36.5048 30.004 36.5001C31.8075 36.4953 33.565 36.7969 34.9644 37.3633C36.385 37.9382 37.2631 38.7095 37.6313 39.5307C37.9702 40.2866 38.8578 40.6246 39.6137 40.2857C40.3696 39.9468 40.7076 39.0592 40.3687 38.3033C39.563 36.5063 37.8976 35.314 36.0899 34.5824C34.2611 33.8422 32.1055 33.4945 29.996 33.5001C27.8866 33.5057 25.7301 33.8648 23.9005 34.62C22.0899 35.3673 20.4291 36.5785 19.6277 38.3943C19.2932 39.1522 19.6364 40.0378 20.3943 40.3723Z" fill="#572217"/>
<path d="M28 23C28 29.0751 23.0751 34 17 34C10.9249 34 6 29.0751 6 23C6 16.9249 10.9249 12 17 12C23.0751 12 28 16.9249 28 23Z" fill="white"/>
<path d="M25 22C25 26.4183 21.4183 30 17 30C12.5817 30 9 26.4183 9 22C9 17.5817 12.5817 14 17 14C21.4183 14 25 17.5817 25 22Z" fill="#572217"/>
<path d="M18 19C18 21.2091 16.2091 23 14 23C11.7909 23 10 21.2091 10 19C10 16.7909 11.7909 15 14 15C16.2091 15 18 16.7909 18 19Z" fill="white"/>
<path d="M22 25.5C22 26.3284 21.3284 27 20.5 27C19.6716 27 19 26.3284 19 25.5C19 24.6716 19.6716 24 20.5 24C21.3284 24 22 24.6716 22 25.5Z" fill="white"/>
<path d="M54 23C54 29.0751 49.0751 34 43 34C36.9249 34 32 29.0751 32 23C32 16.9249 36.9249 12 43 12C49.0751 12 54 16.9249 54 23Z" fill="white"/>
<path d="M51 22C51 26.4183 47.4183 30 43 30C38.5817 30 35 26.4183 35 22C35 17.5817 38.5817 14 43 14C47.4183 14 51 17.5817 51 22Z" fill="#572217"/>
<path d="M44 19C44 21.2091 42.2091 23 40 23C37.7909 23 36 21.2091 36 19C36 16.7909 37.7909 15 40 15C42.2091 15 44 16.7909 44 19Z" fill="white"/>
<path d="M48 25.5C48 26.3284 47.3284 27 46.5 27C45.6716 27 45 26.3284 45 25.5C45 24.6716 45.6716 24 46.5 24C47.3284 24 48 24.6716 48 25.5Z" fill="white"/>
</svg>
