<svg width="60" height="60" viewBox="0 0 60 60" fill="none" xmlns="http://www.w3.org/2000/svg">
<path d="M58 30C58 45.464 45.464 58 30 58C14.536 58 2 45.464 2 30C2 14.536 14.536 2 30 2C45.464 2 58 14.536 58 30Z" fill="#F20D44"/>
<path d="M27.6 33.8C27.6 38.1078 24.1078 41.6 19.8 41.6C15.4922 41.6 12 38.1078 12 33.8C12 29.4922 15.4922 26 19.8 26C24.1078 26 27.6 29.4922 27.6 33.8Z" fill="white"/>
<path d="M31.2 33.8C31.2 38.1078 34.6922 41.6 39 41.6C43.3079 41.6 46.8 38.1078 46.8 33.8C46.8 29.4922 43.3079 26 39 26C34.6922 26 31.2 29.4922 31.2 33.8Z" fill="white"/>
<path d="M26.4 34.4C26.4 37.0509 24.251 39.2 21.6 39.2C18.9491 39.2 16.8 37.0509 16.8 34.4C16.8 31.749 18.9491 29.6 21.6 29.6C24.251 29.6 26.4 31.749 26.4 34.4Z" fill="#38001E"/>
<path d="M32.4 34.4C32.4 37.0509 34.549 39.2 37.2 39.2C39.851 39.2 42 37.0509 42 34.4C42 31.749 39.851 29.6 37.2 29.6C34.549 29.6 32.4 31.749 32.4 34.4Z" fill="#38001E"/>
<path fill-rule="evenodd" clip-rule="evenodd" d="M22.1192 24.4781C22.9795 25.4595 24.1105 26.2839 25.8332 27.2409C26.5574 27.6431 26.8184 28.5563 26.4161 29.2805C26.0138 30.0047 25.1006 30.2657 24.3764 29.8634C22.5177 28.8309 21.049 27.8083 19.8633 26.4557C18.671 25.0956 17.8436 23.4927 17.1213 21.4126C16.8496 20.63 17.2637 19.7753 18.0463 19.5036C18.8289 19.2318 19.6836 19.646 19.9554 20.4286C20.6004 22.2861 21.2655 23.5042 22.1192 24.4781Z" fill="#38001E"/>
<path fill-rule="evenodd" clip-rule="evenodd" d="M36.6809 24.4781C35.8205 25.4595 34.6896 26.2839 32.9668 27.2409C32.2426 27.6431 31.9817 28.5563 32.3839 29.2805C32.7862 30.0047 33.6994 30.2657 34.4236 29.8634C36.2824 28.8309 37.7511 27.8083 38.9368 26.4557C40.1291 25.0956 40.9565 23.4927 41.6787 21.4126C41.9504 20.63 41.5363 19.7753 40.7537 19.5036C39.9711 19.2318 39.1164 19.646 38.8447 20.4286C38.1997 22.2861 37.5346 23.5042 36.6809 24.4781Z" fill="#38001E"/>
<path fill-rule="evenodd" clip-rule="evenodd" d="M19.205 50.272C19.9075 50.7111 20.8329 50.4975 21.272 49.795C21.8706 48.8372 23.0011 48.0024 24.591 47.4038C26.165 46.8112 28.0648 46.5 30 46.5C31.9352 46.5 33.835 46.8112 35.409 47.4038C36.9989 48.0024 38.1294 48.8372 38.728 49.795C39.1671 50.4975 40.0925 50.7111 40.795 50.272C41.4975 49.8329 41.7111 48.9075 41.272 48.205C40.204 46.4961 38.4177 45.331 36.466 44.5962C34.4983 43.8554 32.2314 43.5 30 43.5C27.7686 43.5 25.5017 43.8554 23.534 44.5962C21.5823 45.331 19.796 46.4961 18.728 48.205C18.2889 48.9075 18.5025 49.8329 19.205 50.272Z" fill="#38001E"/>
<path fill-rule="evenodd" clip-rule="evenodd" d="M53.3143 3.5333C54.1243 3.70688 54.6403 4.50426 54.4667 5.31429L53.4515 10.0518L57.7281 10.7098C58.5469 10.8357 59.1085 11.6016 58.9826 12.4204C58.8566 13.2392 58.0907 13.8008 57.2719 13.6749L51.4235 12.7751C51.0153 12.7123 50.651 12.4839 50.4166 12.1439C50.1822 11.8038 50.0983 11.3821 50.1849 10.9783L51.5333 4.68571C51.7069 3.87567 52.5042 3.35972 53.3143 3.5333ZM47.8039 3.53111C48.6151 3.69895 49.1367 4.49266 48.9689 5.30391L47.8352 10.7833C47.6734 11.5653 46.9274 12.0834 46.1382 11.962L39.7719 10.9826C38.9531 10.8566 38.3915 10.0907 38.5174 9.27191C38.6434 8.45312 39.4093 7.89147 40.2281 8.01744L45.1861 8.78022L46.0311 4.69609C46.1989 3.88485 46.9927 3.36327 47.8039 3.53111ZM37.5105 14.3227C37.6084 13.5001 38.3547 12.9126 39.1773 13.0105L45.5547 13.7697C45.9719 13.8194 46.3491 14.0417 46.5946 14.3826C46.8401 14.7235 46.9314 15.1517 46.8463 15.5631L45.9689 19.8039C45.801 20.6152 45.0073 21.1367 44.1961 20.9689C43.3848 20.801 42.8633 20.0073 43.0311 19.1961L43.5774 16.5555L38.8227 15.9895C38.0001 15.8916 37.4126 15.1453 37.5105 14.3227ZM49.2 15.5746C49.3623 14.8171 50.0747 14.3078 50.844 14.3994L56.6773 15.0939C57.4999 15.1918 58.0874 15.938 57.9895 16.7607C57.8915 17.5833 57.1453 18.1707 56.3227 18.0728L51.8469 17.54L51.4667 19.3143C51.2931 20.1243 50.4957 20.6403 49.6857 20.4667C48.8757 20.2931 48.3597 19.4957 48.5333 18.6857L49.2 15.5746Z" fill="#38001E"/>
</svg>
