<svg width="60" height="60" viewBox="0 0 60 60" fill="none" xmlns="http://www.w3.org/2000/svg">
<path d="M57.9999 30.0001C57.9999 45.4641 45.4639 58.0001 29.9999 58.0001C14.5359 58.0001 1.99985 45.4641 1.99985 30.0001C1.99985 14.5361 14.5359 2.00009 29.9999 2.00009C45.4639 2.00009 57.9999 14.5361 57.9999 30.0001Z" fill="#FFBA34"/>
<path d="M42.6405 16.9436C42.6405 16.9436 46.5914 10.1365 48.5142 9.02641C50.437 7.91627 52.8732 8.53611 53.9556 10.4109C55.038 12.2856 54.3567 14.7053 52.4339 15.8155C50.5111 16.9256 42.6405 16.9436 42.6405 16.9436Z" fill="#00A3FF"/>
<path d="M16.9437 42.6404C16.9437 42.6404 10.1264 46.5972 9.01463 48.5229C7.90283 50.4486 8.5236 52.8885 10.4012 53.9725C12.2787 55.0565 14.7021 54.3742 15.8139 52.4485C16.9257 50.5228 16.9437 42.6404 16.9437 42.6404Z" fill="#00A3FF"/>
<path fill-rule="evenodd" clip-rule="evenodd" d="M8.07086 32.5957C7.80889 31.8097 8.23363 30.9603 9.01954 30.6983L21.7475 26.4557C22.2865 26.276 22.8807 26.4163 23.2825 26.818C23.6842 27.2198 23.8245 27.814 23.6448 28.353L19.4022 41.0809C19.1402 41.8669 18.2907 42.2916 17.5048 42.0296C16.7189 41.7677 16.2942 40.9182 16.5561 40.1323L19.8501 30.2504L9.96823 33.5443C9.18231 33.8063 8.33283 33.3816 8.07086 32.5957Z" fill="#572217"/>
<path fill-rule="evenodd" clip-rule="evenodd" d="M32.5956 8.07089C31.8097 7.80892 30.9603 8.23366 30.6983 9.01957L26.4556 21.7475C26.276 22.2865 26.4163 22.8808 26.818 23.2825C27.2198 23.6842 27.814 23.8245 28.353 23.6449L41.0809 19.4022C41.8668 19.1403 42.2916 18.2908 42.0296 17.5049C41.7676 16.7189 40.9182 16.2942 40.1322 16.5562L30.2504 19.8501L33.5443 9.96826C33.8063 9.18234 33.3816 8.33286 32.5956 8.07089Z" fill="#572217"/>
<path d="M22.773 47.5502C25.5999 48.8654 29.4894 49.8434 33.7283 48.9833C33.6917 47.6892 36.757 43.8172 40.2384 40.2384C43.8172 36.757 47.6891 33.6918 48.9833 33.7284C49.8434 29.4895 48.8654 25.6 47.5502 22.7731C47.0822 21.7673 46.8483 21.2644 46.3877 20.9915C45.955 20.7351 45.3588 20.6885 44.9042 20.8755C44.4205 21.0745 44.0511 21.6817 43.3122 22.896C44.4613 26.467 41.2868 32.3598 36.9021 36.9022C32.3598 41.2869 26.467 44.4614 22.896 43.3123C21.6816 44.0511 21.0745 44.4205 20.8755 44.9043C20.6885 45.3588 20.7351 45.9551 20.9915 46.3878C21.2644 46.8483 21.7672 47.0823 22.773 47.5502Z" fill="#E40037"/>
<path d="M34.1466 34.1466C30.4626 37.8302 26.4217 41.1671 22.896 43.3123C26.467 44.4614 32.3598 41.2869 36.9021 36.9022C41.2868 32.3598 44.4613 26.467 43.3122 22.896C41.167 26.4217 37.8302 30.4626 34.1466 34.1466Z" fill="white"/>
<path d="M33.7283 48.9833C36.8687 48.3461 40.2008 46.7001 43.4348 43.4348C46.7 40.2009 48.3461 36.8687 48.9833 33.7284C47.6891 33.6918 43.8172 36.757 40.2384 40.2384C36.757 43.8172 33.6917 47.6892 33.7283 48.9833Z" fill="#E40037"/>
</svg>
