<svg width="60" height="60" viewBox="0 0 60 60" fill="none" xmlns="http://www.w3.org/2000/svg">
<path d="M45.6 40.2C45.6 43.1823 48.0177 45.6 51 45.6C53.9823 45.6 56.4 43.1823 56.4 40.2C56.4 37.2177 53.9823 34.8 51 34.8C48.0177 34.8 45.6 37.2177 45.6 40.2Z" fill="#ADADBB"/>
<path d="M40.5 2.4H25.125C17.8688 2.4 12 8.26875 12 15.525H43.8V23.2875L49.2 40.2C52.125 38.625 53.625 31.2 53.625 15.525C53.625 8.26875 47.7375 2.4 40.5 2.4Z" fill="#E40037"/>
<path d="M52 37C52 49.1503 42.1503 59 30 59C17.8497 59 8 49.1503 8 37C8 24.8497 17.8497 15 30 15C42.1503 15 52 24.8497 52 37Z" fill="#DBDAE2"/>
<path d="M52 31C52 43.1503 42.1503 53 30 53C17.8497 53 8 43.1503 8 31C8 18.8497 17.8497 9 30 9C42.1503 9 52 18.8497 52 31Z" fill="#FFBA34"/>
<path d="M45.6 46.8C45.6 50.7764 38.6156 54 30 54C21.3844 54 14.4 50.7764 14.4 46.8C14.4 42.8235 21.3844 39.6 30 39.6C38.6156 39.6 45.6 42.8235 45.6 46.8Z" fill="#DBDAE2"/>
<path d="M32.4 27C32.4 30.6451 35.3549 33.6 39 33.6C42.6451 33.6 45.6 30.6451 45.6 27C45.6 23.3549 42.6451 20.4 39 20.4C35.3549 20.4 32.4 23.3549 32.4 27Z" fill="white"/>
<path d="M27.6 27C27.6 30.6451 24.6451 33.6 21 33.6C17.3549 33.6 14.4 30.6451 14.4 27C14.4 23.3549 17.3549 20.4 21 20.4C24.6451 20.4 27.6 23.3549 27.6 27Z" fill="white"/>
<path d="M34.8 27C34.8 28.6569 36.1431 30 37.8 30C39.4569 30 40.8 28.6569 40.8 27C40.8 25.3431 39.4569 24 37.8 24C36.1431 24 34.8 25.3431 34.8 27Z" fill="#572217"/>
<path d="M25.2 27C25.2 28.6569 23.8569 30 22.2 30C20.5431 30 19.2 28.6569 19.2 27C19.2 25.3431 20.5431 24 22.2 24C23.8569 24 25.2 25.3431 25.2 27Z" fill="#572217"/>
<path d="M24 39.6C24 39.6375 24 39.6937 24 39.7312C24 42.9375 26.6063 45.5437 29.8125 45.5437C33.0188 45.5437 35.625 42.9375 35.625 39.7312C35.625 39.6937 35.625 39.6375 35.625 39.6H24Z" fill="#E40037"/>
<path d="M46.0854 39.3833C45.1285 38.4734 43.5826 38.4734 42.6258 39.3833C42.135 39.8501 41.3252 39.8734 40.7854 39.4301L38.798 37.7734C37.424 36.63 35.6818 36 33.8415 36H30.0384H29.9403H26.1615C24.3459 36 22.5792 36.63 21.2052 37.7734L19.2175 39.4301C18.6778 39.8734 17.8927 39.8501 17.3774 39.3833C16.4204 38.4734 14.8746 38.4734 13.9177 39.3833C12.9608 40.2934 12.9608 41.7634 13.9177 42.6734C15.12 43.8166 16.7394 44.4 18.3343 44.4C19.8065 44.4 21.2787 43.9099 22.4566 42.9067L24.444 41.25C24.9101 40.8533 25.5236 40.6433 26.137 40.6433H29.9403H30.0384H33.8415C34.4794 40.6433 35.0684 40.8533 35.5347 41.25L37.5221 42.9067C38.6998 43.8866 40.172 44.4 41.6442 44.4C43.2392 44.4 44.8585 43.8166 46.0609 42.6734C47.0422 41.7866 47.0422 40.2934 46.0854 39.3833Z" fill="white"/>
<path d="M9.6 12.6C9.6 12.4143 9.6 12.3215 9.60308 12.243C9.68503 10.1571 11.3571 8.48504 13.443 8.40309C13.5214 8.4 13.6143 8.4 13.8 8.4H43.8C43.9857 8.4 44.0786 8.4 44.157 8.40309C46.2429 8.48504 47.915 10.1571 47.9969 12.243C48 12.3215 48 12.4143 48 12.6V12.6C48 12.7857 48 12.8786 47.9969 12.957C47.915 15.0429 46.2429 16.715 44.157 16.7969C44.0786 16.8 43.9857 16.8 43.8 16.8H13.8C13.6143 16.8 13.5214 16.8 13.443 16.7969C11.3571 16.715 9.68503 15.0429 9.60308 12.957C9.6 12.8786 9.6 12.7857 9.6 12.6V12.6Z" fill="#DBDAE2"/>
</svg>
