<svg width="60" height="60" viewBox="0 0 60 60" fill="none" xmlns="http://www.w3.org/2000/svg">
<path d="M58 30C58 45.464 45.464 58 30 58C14.536 58 2 45.464 2 30C2 14.536 14.536 2 30 2C45.464 2 58 14.536 58 30Z" fill="#FFBA34"/>
<path d="M56.8405 38C57.5949 35.4652 58 32.7799 58 30C58 27.2201 57.5949 24.5348 56.8405 22L3.15951 22C2.40511 24.5348 2 27.2201 2 30C2 32.7799 2.40511 35.4652 3.15951 38H56.8405Z" fill="#93ADB2"/>
<path d="M30 2C17.3159 2 6.60171 10.434 3.15952 22H56.8405C53.3983 10.434 42.6841 2 30 2Z" fill="#348CFF"/>
<path d="M41 43.1786C41 51.5615 36.875 53 30 53C23.125 53 19 51.5615 19 43.1786C19 34.7957 24.5 28 30 28C35.5 28 41 34.7957 41 43.1786Z" fill="#E40037"/>
<path d="M29 19C29 25.0751 24.9706 30 20 30C15.0294 30 11 25.0751 11 19C11 12.9249 15.0294 8 20 8C24.9706 8 29 12.9249 29 19Z" fill="white"/>
<path d="M31 19C31 25.0751 35.0294 30 40 30C44.9706 30 49 25.0751 49 19C49 12.9249 44.9706 8 40 8C35.0294 8 31 12.9249 31 19Z" fill="white"/>
<path d="M27 19C27 20.6569 25.8807 22 24.5 22C23.1193 22 22 20.6569 22 19C22 17.3431 23.1193 16 24.5 16C25.8807 16 27 17.3431 27 19Z" fill="#572217"/>
<path d="M33 19C33 20.6569 34.1193 22 35.5 22C36.8807 22 38 20.6569 38 19C38 17.3431 36.8807 16 35.5 16C34.1193 16 33 17.3431 33 19Z" fill="#572217"/>
</svg>
