<svg width="60" height="60" viewBox="0 0 60 60" fill="none" xmlns="http://www.w3.org/2000/svg">
<path d="M57 29C57 43.9117 44.9117 56 30 56C15.0883 56 3 43.9117 3 29C3 14.0883 15.0883 2 30 2C44.9117 2 57 14.0883 57 29Z" fill="#FFBA34"/>
<path fill-rule="evenodd" clip-rule="evenodd" d="M19.8191 6.50755C20.6433 6.42455 21.3788 7.02545 21.4618 7.84971C21.7014 10.2289 20.8102 12.474 18.9852 14.1963C17.1835 15.8967 14.5222 17.0518 11.1947 17.4873C10.3733 17.5948 9.62021 17.0161 9.51269 16.1947C9.40517 15.3733 9.9839 14.6202 10.8053 14.5127C13.6883 14.1353 15.701 13.1707 16.9261 12.0146C18.1278 10.8804 18.616 9.53194 18.4769 8.15029C18.3939 7.32603 18.9948 6.59055 19.8191 6.50755Z" fill="#572217"/>
<path fill-rule="evenodd" clip-rule="evenodd" d="M40.1809 6.50755C39.3567 6.42455 38.6212 7.02545 38.5382 7.84971C38.2986 10.2289 39.1898 12.474 41.0148 14.1963C42.8165 15.8967 45.4778 17.0518 48.8053 17.4873C49.6267 17.5948 50.3798 17.0161 50.4873 16.1947C50.5948 15.3733 50.0161 14.6202 49.1947 14.5127C46.3117 14.1353 44.299 13.1707 43.0739 12.0146C41.8722 10.8804 41.384 9.53194 41.5231 8.15029C41.6061 7.32603 41.0052 6.59055 40.1809 6.50755Z" fill="#572217"/>
<path d="M30 25C26.6297 25 25.5312 32.2695 25.1731 37.0085C25.0366 38.816 24.9683 39.7198 25.5619 40.3599C26.1554 41 27.1036 41 29 41H31C32.8964 41 33.8446 41 34.4381 40.3599C35.0317 39.7198 34.9634 38.816 34.8269 37.0085C34.4688 32.2695 33.3703 25 30 25Z" fill="#E40037"/>
<path d="M8 23H24V48C24 51.7712 24 53.6569 22.8284 54.8284C21.6569 56 19.7712 56 16 56L-nan -nanL-nan -nanL16 56C12.2288 56 10.3431 56 9.17157 54.8284C8 53.6569 8 51.7712 8 48V23Z" fill="#00A3FF"/>
<path d="M28 56C28 57.6569 22.6274 59 16 59C9.37258 59 4 57.6569 4 56C4 54.3431 9.37258 53 16 53C22.6274 53 28 54.3431 28 56Z" fill="#00A3FF"/>
<path opacity="0.7" d="M11 23H20V51.5C20 52.8978 20 53.5967 19.7716 54.1481C19.4672 54.8831 18.8831 55.4672 18.1481 55.7716C17.5967 56 16.8978 56 15.5 56L-nan -nanL-nan -nanL15.5 56C14.1022 56 13.4033 56 12.8519 55.7716C12.1169 55.4672 11.5328 54.8831 11.2284 54.1481C11 53.5967 11 52.8978 11 51.5V23Z" fill="#57E0FF"/>
<path d="M36 23H52V48C52 51.7712 52 53.6569 50.8284 54.8284C49.6569 56 47.7712 56 44 56L-nan -nanL-nan -nanL44 56C40.2288 56 38.3431 56 37.1716 54.8284C36 53.6569 36 51.7712 36 48V23Z" fill="#00A3FF"/>
<path d="M56 56C56 57.6569 50.6274 59 44 59C37.3726 59 32 57.6569 32 56C32 54.3431 37.3726 53 44 53C50.6274 53 56 54.3431 56 56Z" fill="#00A3FF"/>
<path opacity="0.7" d="M39 23H48V51.5C48 52.8978 48 53.5967 47.7716 54.1481C47.4672 54.8831 46.8831 55.4672 46.1481 55.7716C45.5967 56 44.8978 56 43.5 56L-nan -nanL-nan -nanL43.5 56C42.1022 56 41.4033 56 40.8519 55.7716C40.1169 55.4672 39.5328 54.8831 39.2284 54.1481C39 53.5967 39 52.8978 39 51.5V23Z" fill="#57E0FF"/>
<path fill-rule="evenodd" clip-rule="evenodd" d="M17.5 23.375C14.2188 23.375 10.4589 23.7412 7.33729 24.4616C6.53008 24.6479 5.72469 24.1445 5.53841 23.3373C5.35213 22.5301 5.85549 21.7247 6.66271 21.5384C10.041 20.7588 14.0312 20.375 17.5 20.375C19.2368 20.375 20.8743 20.4711 22.2615 20.6717C23.5982 20.8649 24.8787 21.1779 25.7717 21.7138C26.4821 22.14 26.7125 23.0614 26.2862 23.7717C25.86 24.4821 24.9386 24.7125 24.2283 24.2862C23.8713 24.0721 23.0893 23.8226 21.8322 23.6408C20.6257 23.4664 19.1382 23.375 17.5 23.375Z" fill="#572217"/>
<path fill-rule="evenodd" clip-rule="evenodd" d="M42.5 23.5C45.7812 23.5 49.5411 23.8662 52.6627 24.5866C53.4699 24.7729 54.2753 24.2695 54.4616 23.4623C54.6479 22.6551 54.1445 21.8497 53.3373 21.6634C49.959 20.8838 45.9688 20.5 42.5 20.5C40.7632 20.5 39.1257 20.5961 37.7385 20.7967C36.4018 20.9899 35.1213 21.3029 34.2283 21.8388C33.5179 22.265 33.2875 23.1864 33.7138 23.8967C34.14 24.6071 35.0614 24.8375 35.7717 24.4112C36.1287 24.1971 36.9107 23.9476 38.1678 23.7658C39.3743 23.5914 40.8618 23.5 42.5 23.5Z" fill="#572217"/>
</svg>
