<svg width="60" height="60" viewBox="0 0 60 60" fill="none" xmlns="http://www.w3.org/2000/svg">
<path d="M58 30C58 45.464 45.464 58 30 58C14.536 58 2 45.464 2 30C2 14.536 14.536 2 30 2C45.464 2 58 14.536 58 30Z" fill="#FFBA34"/>
<path d="M29 27C29 32.5228 33.4772 37 39 37C44.5228 37 49 32.5228 49 27C49 21.4772 44.5228 17 39 17C33.4772 17 29 21.4772 29 27Z" fill="white"/>
<path d="M24 27C24 30.3137 21.3137 33 18 33C14.6863 33 12 30.3137 12 27C12 23.6863 14.6863 21 18 21C21.3137 21 24 23.6863 24 27Z" fill="white"/>
<path d="M23 27C23 28.6569 21.6569 30 20 30C18.3431 30 17 28.6569 17 27C17 25.3431 18.3431 24 20 24C21.6569 24 23 25.3431 23 27Z" fill="#572217"/>
<path d="M42 27C42 30.3137 39.3137 33 36 33C32.6863 33 30 30.3137 30 27C30 23.6863 32.6863 21 36 21C39.3137 21 42 23.6863 42 27Z" fill="#572217"/>
<path fill-rule="evenodd" clip-rule="evenodd" d="M24.6139 24.247C25.591 23.8765 26.4367 23.1284 27.2004 22.1091C27.6972 21.4461 27.5624 20.506 26.8995 20.0092C26.2365 19.5125 25.2964 19.6472 24.7996 20.3102C24.23 21.0704 23.8048 21.3454 23.5502 21.4419C23.3396 21.5218 23.1268 21.5271 22.8116 21.408C22.4527 21.2723 22.0223 20.995 21.4771 20.549C21.112 20.2504 20.7644 19.9362 20.383 19.5915C20.1816 19.4095 19.9709 19.219 19.7432 19.0178C18.5702 17.9813 16.9419 16.6345 14.9371 16.5095C12.7587 16.3737 10.7479 17.6626 8.79188 20.3206C8.30086 20.9878 8.44371 21.9268 9.11094 22.4178C9.77816 22.9088 10.7171 22.7659 11.2081 22.0987C12.9188 19.7742 14.0747 19.4616 14.7504 19.5037C15.5997 19.5566 16.5132 20.1671 17.7568 21.266C17.928 21.4173 18.11 21.5817 18.298 21.7514C18.7129 22.126 19.1567 22.5268 19.5776 22.8711C20.2017 23.3816 20.9328 23.905 21.7509 24.2142C22.6128 24.54 23.5927 24.6343 24.6139 24.247Z" fill="#572217"/>
<path fill-rule="evenodd" clip-rule="evenodd" d="M31.3861 14.247C30.409 13.8765 29.5633 13.1284 28.7996 12.1091C28.3028 11.4461 28.4376 10.506 29.1005 10.0092C29.7635 9.51248 30.7036 9.64722 31.2004 10.3102C31.77 11.0704 32.1952 11.3454 32.4498 11.4419C32.6604 11.5218 32.8732 11.5271 33.1884 11.408C33.5473 11.2723 33.9777 10.995 34.5229 10.549C34.888 10.2504 35.2356 9.9362 35.617 9.59147C35.8184 9.4095 36.0291 9.21903 36.2568 9.01785C37.4298 7.98134 39.0581 6.63447 41.0629 6.50949C43.2413 6.37369 45.2521 7.66261 47.2081 10.3206C47.6991 10.9878 47.5563 11.9268 46.8891 12.4178C46.2218 12.9088 45.2829 12.7659 44.7919 12.0987C43.0812 9.77417 41.9253 9.46155 41.2496 9.50368C40.4003 9.55662 39.4868 10.1671 38.2432 11.266C38.072 11.4173 37.89 11.5817 37.702 11.7514C37.2871 12.126 36.8433 12.5268 36.4224 12.8711C35.7983 13.3816 35.0672 13.905 34.2491 14.2142C33.3872 14.54 32.4073 14.6343 31.3861 14.247Z" fill="#572217"/>
<path fill-rule="evenodd" clip-rule="evenodd" d="M43.477 45.0041C39.0989 43.7274 35.3392 44.3607 31.9317 47.0612C31.2824 47.5757 30.339 47.4665 29.8244 46.8173C29.3099 46.168 29.4191 45.2246 30.0683 44.71C34.3052 41.3523 39.0908 40.6001 44.3168 42.124C45.1121 42.3559 45.5689 43.1887 45.3369 43.984C45.105 44.7793 44.2723 45.236 43.477 45.0041Z" fill="#572217"/>
</svg>
