<svg width="60" height="60" viewBox="0 0 60 60" fill="none" xmlns="http://www.w3.org/2000/svg">
<path fill-rule="evenodd" clip-rule="evenodd" d="M35.1562 15.5273C35.1562 22.5496 29.4636 28.2422 22.4414 28.2422C15.4192 28.2422 9.72656 22.5496 9.72656 15.5273C9.72656 8.50513 15.4192 2.8125 22.4414 2.8125C29.4636 2.8125 35.1562 8.50513 35.1562 15.5273ZM47.8125 42.0703C47.8125 47.7657 43.1954 52.3828 37.5 52.3828C31.8046 52.3828 27.1875 47.7657 27.1875 42.0703C27.1875 36.3749 31.8046 31.7578 37.5 31.7578C43.1954 31.7578 47.8125 36.3749 47.8125 42.0703ZM10.1953 36.7969C12.9783 36.7969 15.2344 34.5408 15.2344 31.7578C15.2344 28.9748 12.9783 26.7188 10.1953 26.7188C7.41232 26.7188 5.15625 28.9748 5.15625 31.7578C5.15625 34.5408 7.41232 36.7969 10.1953 36.7969ZM59.2969 27.3633C59.2969 29.0784 57.9066 30.4688 56.1914 30.4688C54.4763 30.4688 53.0859 29.0784 53.0859 27.3633C53.0859 25.6481 54.4763 24.2578 56.1914 24.2578C57.9066 24.2578 59.2969 25.6481 59.2969 27.3633ZM4.6875 25.1953C6.17607 25.1953 7.38281 23.9886 7.38281 22.5C7.38281 21.0114 6.17607 19.8047 4.6875 19.8047C3.19893 19.8047 1.99219 21.0114 1.99219 22.5C1.99219 23.9886 3.19893 25.1953 4.6875 25.1953Z" fill="black"/>
<path fill-rule="evenodd" clip-rule="evenodd" d="M34.7509 11.957C37.6096 9.77006 39.0389 8.67659 40.0546 9.26293C40.7987 9.69257 40.8728 10.7656 40.6765 12.7126C41.1197 12.5753 41.4872 12.5909 41.8124 12.7786C42.8279 13.3649 42.5955 15.1495 42.131 18.7187L41.9603 20.0298C41.9597 20.035 41.959 20.0401 41.9583 20.0452L42.7818 20.6129C45.7451 22.6559 47.2268 23.6774 46.9829 24.8244C46.9241 25.1012 46.7766 25.3304 46.5368 25.5281C48.1537 26.7082 48.9216 27.4896 48.7407 28.34C48.497 29.4872 46.7279 29.8177 43.1898 30.4787L41.8901 30.7216C40.8626 30.9136 40.3487 31.0096 39.9813 31.3404C39.6139 31.6712 39.4648 32.1722 39.1664 33.174L38.7891 34.4413C37.7618 37.8908 37.2482 39.6156 36.0819 39.7382C34.9157 39.8607 34.0546 38.2805 32.3325 35.1198L31.7768 34.0999L22.6437 49.9188C22.4362 50.2781 22.3325 50.4578 22.2122 50.5861C21.816 51.0083 21.2147 51.1693 20.6604 51.0019C20.492 50.9509 20.3123 50.8472 19.9532 50.6399C19.5939 50.4326 19.4142 50.3288 19.2859 50.2083C18.8637 49.8121 18.7025 49.2108 18.8701 48.6566C18.9211 48.4881 19.0248 48.3084 19.2321 47.9493L19.4646 47.5466C19.2783 47.5615 19.0879 47.5423 18.9026 47.4863C18.7342 47.4353 18.5545 47.3316 18.1954 47.1243C17.8361 46.917 17.6564 46.8131 17.5281 46.6927C17.1059 46.2964 16.9447 45.6952 17.1123 45.141C17.1633 44.9725 17.267 44.7928 17.4743 44.4336L24.5379 32.1993C22.6815 32.1814 21.6698 31.9847 21.3298 31.2211C21.0318 30.5516 21.4029 29.7901 22.3269 28.675C20.7574 28.6284 19.8832 28.4045 19.572 27.7055C19.095 26.6341 20.3319 25.3269 22.8057 22.7125L23.7144 21.7521C24.4329 20.9927 24.7922 20.613 24.895 20.1295C24.9977 19.6459 24.8239 19.153 24.4765 18.1671L24.0369 16.9201C22.8404 13.5254 22.2422 11.8282 23.1136 11.0435C23.9851 10.2588 25.6105 11.0312 28.8615 12.576L30.0558 13.1435C31 13.5921 31.472 13.8165 31.9637 13.7648C32.4553 13.7132 32.8705 13.3956 33.7007 12.7604L34.7509 11.957Z" fill="white"/>
<path d="M40.6765 12.7126L34.2637 12.0661L33.2873 21.75L42.5843 18.8692L40.6765 12.7126ZM41.9583 20.0452L35.5671 19.2121L35.0582 23.1166L38.2999 25.3516L41.9583 20.0452ZM46.5368 25.5281L42.4355 20.5561L36.03 25.8398L42.7375 30.7346L46.5368 25.5281ZM39.1664 33.174L45.281 35.2121L45.3139 35.1134L45.3437 35.0136L39.1664 33.174ZM39.1664 33.174L33.0519 31.1358L33.019 31.2347L32.9892 31.3344L39.1664 33.174ZM31.7768 34.0999L37.4366 31.0161L31.9397 20.9272L26.195 30.8773L31.7768 34.0999ZM19.9532 50.6399L16.3433 55.9794L16.5327 56.1074L16.7306 56.2218L19.9532 50.6399ZM19.9532 50.6399L23.563 45.3002L23.3736 45.1723L23.1758 45.058L19.9532 50.6399ZM19.4646 47.5466L25.0464 50.7693L31.1809 40.144L18.951 41.1218L19.4646 47.5466ZM18.1954 47.1243L21.418 41.5424L21.1921 41.4119L20.9563 41.3003L18.1954 47.1243ZM18.1954 47.1243L14.9726 52.706L15.1985 52.8364L15.4343 52.9482L18.1954 47.1243ZM24.5379 32.1993L30.1196 35.4219L35.6402 25.8599L24.5995 25.7542L24.5379 32.1993ZM22.3269 28.675L27.2898 32.7874L35.7122 22.6236L22.5179 22.2325L22.3269 28.675ZM22.8057 22.7125L18.2482 18.1549L18.1852 18.218L18.124 18.2827L22.8057 22.7125ZM22.8057 22.7125L27.3633 27.27L27.4262 27.2071L27.4875 27.1423L22.8057 22.7125ZM24.4765 18.1671L18.3441 20.1511L18.3698 20.2308L18.3977 20.3098L24.4765 18.1671ZM24.4765 18.1671L30.6088 16.1831L30.583 16.1034L30.5552 16.0245L24.4765 18.1671ZM43.2772 3.68112C39.549 1.52866 36.0534 3.32268 34.9338 3.9525C33.5975 4.70418 32.0923 5.87584 30.8347 6.83789L38.6671 17.0761C39.4011 16.5145 39.9571 16.0897 40.4307 15.7457C40.9168 15.3926 41.1587 15.2411 41.2539 15.1875C41.3921 15.1097 41.0065 15.3605 40.2715 15.4845C39.8605 15.5538 39.3084 15.5895 38.6671 15.4902C38.0102 15.3886 37.3862 15.1648 36.8319 14.8447L43.2772 3.68112ZM47.0893 13.3591C47.1904 12.3567 47.3112 10.8848 47.0885 9.43821C46.8368 7.80314 45.9751 5.23877 43.2772 3.68112L36.8319 14.8447C35.9807 14.3532 35.3195 13.6522 34.8864 12.8882C34.4948 12.1976 34.3821 11.6214 34.3479 11.3993C34.3133 11.1749 34.3271 11.0954 34.3233 11.26C34.3198 11.4112 34.3044 11.6628 34.2637 12.0661L47.0893 13.3591ZM45.035 7.19675C42.7191 5.85966 40.3798 6.05694 38.7688 6.55612L42.5843 18.8692C42.2736 18.9654 41.697 19.1006 40.9399 19.0596C40.1325 19.0158 39.3187 18.7813 38.5897 18.3603L45.035 7.19675ZM48.5224 19.5506C48.7268 17.9805 48.9888 16.091 48.9716 14.558C48.9573 13.2735 48.7631 9.34921 45.035 7.19675L38.5897 18.3603C38.0353 18.0403 37.5294 17.6118 37.113 17.0938C36.7064 16.5879 36.4612 16.0921 36.3158 15.7015C36.0557 15.0029 36.08 14.5436 36.0818 14.7021C36.0831 14.8113 36.0727 15.0966 36.01 15.6941C35.9488 16.2763 35.8589 16.9703 35.7396 17.8867L48.5224 19.5506ZM48.3517 20.8618L48.5224 19.5506L35.7396 17.8867L35.569 19.1979L48.3517 20.8618ZM48.3496 20.8782C48.3504 20.8719 48.3511 20.8666 48.3517 20.8618L35.569 19.1979C35.5683 19.2034 35.5676 19.2082 35.5671 19.2121L48.3496 20.8782ZM46.4402 15.3064L45.6168 14.7388L38.2999 25.3516L39.1234 25.9193L46.4402 15.3064ZM53.2874 26.1646C54.1825 21.9537 51.3961 19.1836 50.4511 18.3134C49.3233 17.2748 47.7438 16.2053 46.4402 15.3064L39.1234 25.9193C39.8843 26.4439 40.4602 26.8414 40.9338 27.1856C41.4198 27.5387 41.6387 27.722 41.719 27.7959C41.8357 27.9034 41.4779 27.6141 41.1329 26.9534C40.94 26.5839 40.7355 26.0699 40.6317 25.4292C40.5253 24.7732 40.5453 24.1105 40.6785 23.4844L53.2874 26.1646ZM50.6381 30.5003C51.8456 29.5042 52.8862 28.052 53.2874 26.1646L40.6785 23.4844C40.8066 22.8819 41.0446 22.2885 41.3903 21.7452C41.7292 21.2127 42.1102 20.8244 42.4355 20.5561L50.6381 30.5003ZM55.0452 29.6802C55.7014 26.5928 54.33 24.22 53.2798 22.95C52.3462 21.8212 51.1607 20.9235 50.3361 20.3217L42.7375 30.7346C43.0769 30.9824 43.2855 31.1469 43.4104 31.2532C43.5457 31.3684 43.4849 31.3331 43.3461 31.1653C43.2096 31.0003 42.8537 30.5355 42.5977 29.7821C42.3132 28.9455 42.2291 27.9748 42.4363 27L55.0452 29.6802ZM44.3736 36.8144C45.9301 36.5236 47.808 36.1889 49.2608 35.6988C50.4779 35.2883 54.1502 33.891 55.0452 29.6802L42.4363 27C42.5694 26.3739 42.8205 25.7604 43.1846 25.2043C43.5401 24.6613 43.9358 24.2748 44.2624 24.0158C44.8464 23.5526 45.2909 23.4337 45.1405 23.4845C45.037 23.5194 44.7626 23.5977 44.1749 23.7226C43.6023 23.8444 42.9145 23.9734 42.006 24.1431L44.3736 36.8144ZM43.0739 37.0573L44.3736 36.8144L42.006 24.1431L40.7064 24.3859L43.0739 37.0573ZM44.2942 36.1302C43.9275 36.4603 43.5466 36.7072 43.1953 36.8845C42.867 37.0503 42.6115 37.1316 42.5122 37.1607C42.42 37.188 42.3974 37.189 42.5195 37.1637C42.6424 37.1381 42.7989 37.1087 43.0739 37.0573L40.7064 24.3859C40.3214 24.4578 39.5566 24.5928 38.8642 24.7971C38.0297 25.0433 36.819 25.5148 35.6686 26.5506L44.2942 36.1302ZM45.3437 35.0136C45.4235 34.7454 45.4692 34.5929 45.5074 34.4733C45.5454 34.3546 45.542 34.377 45.5053 34.4658C45.4658 34.5614 45.3585 34.807 45.1593 35.1163C44.9461 35.4471 44.6607 35.8001 44.2942 36.1302L35.6686 26.5506C34.5182 27.5864 33.9228 28.7412 33.5907 29.5453C33.3151 30.2127 33.101 30.9592 32.9892 31.3344L45.3437 35.0136ZM44.9662 36.2808L45.3437 35.0136L32.9892 31.3344L32.6119 32.6017L44.9662 36.2808ZM36.7556 46.1482C41.037 45.6982 42.8103 42.1922 43.346 41.0245C43.9852 39.631 44.5144 37.7984 44.9662 36.2808L32.6119 32.6017C32.3481 33.4875 32.1479 34.1579 31.967 34.7147C31.7812 35.2861 31.6747 35.5509 31.6291 35.6502C31.563 35.7943 31.7277 35.3647 32.2494 34.8323C32.5412 34.5347 32.9668 34.1815 33.5441 33.8846C34.1352 33.5808 34.7715 33.3952 35.4082 33.3282L36.7556 46.1482ZM26.6728 38.2036C27.4303 39.5939 28.329 41.2766 29.2439 42.5067C30.0105 43.5375 32.4743 46.5982 36.7556 46.1482L35.4082 33.3282C36.0448 33.2613 36.7058 33.3107 37.3472 33.4849C37.9736 33.6552 38.4634 33.9123 38.8106 34.1428C39.4316 34.555 39.6819 34.941 39.5873 34.8137C39.5222 34.726 39.3628 34.4892 39.0623 33.969C38.7696 33.4619 38.4345 32.8478 37.9923 32.0361L26.6728 38.2036ZM26.1171 37.1836L26.6728 38.2036L37.9923 32.0361L37.4366 31.0161L26.1171 37.1836ZM28.2255 53.1415L37.3587 37.3226L26.195 30.8773L17.0619 46.6962L28.2255 53.1415ZM26.9121 54.9966C27.6705 54.1884 28.1996 53.1862 28.2255 53.1415L17.0619 46.6962C17.0064 46.7923 16.9746 46.8472 16.9492 46.8906C16.9239 46.9336 16.9274 46.9267 16.9471 46.8954C16.9812 46.8415 17.1748 46.5352 17.5123 46.1755L26.9121 54.9966ZM18.7955 57.1714C21.6945 58.0478 24.8396 57.2051 26.9121 54.9966L17.5123 46.1755C18.7923 44.8116 20.7349 44.291 22.5254 44.8323L18.7955 57.1714ZM16.7306 56.2218C16.7752 56.2474 17.7346 56.8507 18.7955 57.1714L22.5254 44.8323C22.9975 44.9749 23.3183 45.1434 23.3748 45.1731C23.4075 45.1903 23.4139 45.1945 23.3705 45.1699C23.3269 45.1452 23.2719 45.1134 23.1758 45.058L16.7306 56.2218ZM14.8753 54.9082C15.6834 55.6666 16.686 56.196 16.7306 56.2218L23.1758 45.058C23.0797 45.0026 23.0248 44.9707 22.9814 44.9453C22.9384 44.92 22.9453 44.9235 22.9766 44.9432C23.0305 44.9773 23.3368 45.1709 23.6964 45.5082L14.8753 54.9082ZM12.7005 46.7916C11.8242 49.6905 12.6669 52.8357 14.8753 54.9082L23.6964 45.5082C25.0603 46.7883 25.581 48.731 25.0397 50.5215L12.7005 46.7916ZM13.6504 44.7266C13.6246 44.7712 13.0213 45.7307 12.7005 46.7916L25.0397 50.5215C24.8971 50.9935 24.7286 51.3144 24.6989 51.3709C24.6817 51.4036 24.6773 51.4102 24.702 51.3667C24.7268 51.323 24.7584 51.268 24.814 51.1719L13.6504 44.7266ZM13.8829 44.3239L13.6504 44.7266L24.814 51.1719L25.0464 50.7693L13.8829 44.3239ZM17.0377 53.6558C18.0047 53.9481 19.0024 54.0495 19.9782 53.9714L18.951 41.1218C19.5541 41.0735 20.171 41.1363 20.7676 41.3167L17.0377 53.6558ZM14.9726 52.706C15.0172 52.7318 15.9768 53.3351 17.0377 53.6558L20.7676 41.3167C21.2396 41.4593 21.5605 41.6278 21.617 41.6575C21.6497 41.6747 21.6562 41.679 21.6128 41.6544C21.5691 41.6296 21.5141 41.5979 21.418 41.5424L14.9726 52.706ZM13.1175 51.3926C13.9256 52.151 14.9279 52.6802 14.9726 52.706L21.418 41.5424C21.3219 41.4869 21.267 41.4551 21.2236 41.4296C21.1806 41.4043 21.1875 41.4078 21.2188 41.4275C21.2727 41.4616 21.579 41.6552 21.9386 41.9926L13.1175 51.3926ZM10.9427 43.2759C10.0664 46.1749 10.9091 49.3201 13.1175 51.3926L21.9386 41.9926C23.3025 43.2727 23.8232 45.2154 23.2819 47.0059L10.9427 43.2759ZM11.8925 41.211C11.8668 41.2556 11.2634 42.215 10.9427 43.2759L23.2819 47.0059C23.1393 47.4779 22.9707 47.7988 22.9411 47.8553C22.9239 47.888 22.9195 47.8945 22.9441 47.8511C22.969 47.8073 23.0006 47.7524 23.0562 47.6563L11.8925 41.211ZM18.956 28.9766L11.8925 41.211L23.0562 47.6563L30.1196 35.4219L18.956 28.9766ZM15.4417 33.8426C16.6704 36.6022 19.0308 37.752 20.6366 38.199C22.044 38.5909 23.4974 38.6348 24.4761 38.6442L24.5995 25.7542C24.2284 25.7507 24.0073 25.7386 23.8854 25.7275C23.7512 25.7153 23.8549 25.7141 24.0939 25.7807C24.3332 25.8473 24.8936 26.0323 25.5292 26.4991C26.2264 27.0114 26.8307 27.7298 27.2178 28.5996L15.4417 33.8426ZM17.3641 24.5625C16.804 25.2384 15.9676 26.3137 15.4143 27.6513C14.7702 29.2084 14.3839 31.4666 15.4417 33.8426L27.2178 28.5996C27.551 29.348 27.7018 30.1611 27.6701 30.9554C27.6401 31.7043 27.4556 32.2655 27.3259 32.5791C27.1147 33.0896 26.9258 33.2266 27.2898 32.7874L17.3641 24.5625ZM13.6839 30.327C14.7955 32.8236 16.8622 34.0309 18.4641 34.5577C19.8438 35.0114 21.2314 35.0906 22.136 35.1175L22.5179 22.2325C21.8529 22.2128 22.0186 22.1568 22.4911 22.3121C22.7889 22.4101 23.3385 22.6323 23.9359 23.1096C24.5759 23.6209 25.1102 24.298 25.46 25.084L13.6839 30.327ZM18.124 18.2827C17.0358 19.4327 15.7132 20.8073 14.8259 22.0577C14.0825 23.1054 11.933 26.3941 13.6839 30.327L25.46 25.084C25.7204 25.6689 25.8778 26.3127 25.9102 26.9766C25.9418 27.6247 25.8487 28.1701 25.7368 28.5716C25.5367 29.2896 25.247 29.6469 25.3387 29.5175C25.4019 29.4285 25.5779 29.2038 25.9799 28.7573C26.3716 28.3222 26.8523 27.8135 27.4875 27.1423L18.124 18.2827ZM19.0328 17.3222L18.124 18.2827L27.4875 27.1423L28.3962 26.1819L19.0328 17.3222ZM18.5905 18.7895C18.693 18.3069 18.8561 17.8833 19.0361 17.5334C19.2042 17.2062 19.3632 16.9903 19.4263 16.9083C19.4849 16.8321 19.5026 16.818 19.4188 16.9103C19.3343 17.0031 19.2251 17.119 19.0328 17.3222L28.3962 26.1819C28.6653 25.8975 29.2048 25.3387 29.6448 24.7664C30.1752 24.0768 30.8776 22.9837 31.1994 21.4696L18.5905 18.7895ZM18.3977 20.3098C18.4908 20.5737 18.5434 20.7239 18.5828 20.8431C18.6219 20.9614 18.6115 20.9414 18.589 20.8479C18.5647 20.7473 18.5072 20.4855 18.4866 20.1182C18.4645 19.7253 18.4879 19.2721 18.5905 18.7895L31.1994 21.4696C31.5212 19.9554 31.3242 18.6712 31.1202 17.8254C30.9509 17.1236 30.6854 16.3938 30.5552 16.0245L18.3977 20.3098ZM17.9582 19.0627L18.3977 20.3098L30.5552 16.0245L30.1157 14.7775L17.9582 19.0627ZM18.8009 6.25368C15.6016 9.13425 16.2277 13.0131 16.4807 14.2725C16.7827 15.7757 17.4319 17.5693 17.9582 19.0627L30.1157 14.7775C29.8084 13.9058 29.5762 13.2457 29.3953 12.6889C29.2098 12.1175 29.1403 11.8406 29.1189 11.7335C29.0876 11.5781 29.2069 12.0224 29.0978 12.7597C29.0366 13.172 28.9 13.708 28.6073 14.2874C28.3078 14.8807 27.9021 15.405 27.4263 15.8333L18.8009 6.25368ZM31.6277 6.75453C30.1977 6.07496 28.4816 5.2419 27.0183 4.78446C25.7923 4.40117 22.0001 3.37312 18.8009 6.25368L27.4263 15.8333C26.9507 16.2616 26.3869 16.6103 25.7655 16.8462C25.1587 17.0766 24.6114 17.1566 24.1949 17.1742C23.4502 17.2057 23.0208 17.0406 23.1722 17.0879C23.2764 17.1205 23.5446 17.2185 24.0934 17.4628C24.6282 17.7009 25.2605 18.0008 26.0952 18.3975L31.6277 6.75453ZM32.822 7.32201L31.6277 6.75453L26.0952 18.3975L27.2894 18.965L32.822 7.32201ZM31.29 7.35481C31.7808 7.30324 32.2338 7.3274 32.6223 7.39037C32.9855 7.44924 33.2398 7.53379 33.3373 7.56844C33.4278 7.60062 33.4467 7.61308 33.333 7.56182C33.2187 7.51021 33.0748 7.44213 32.822 7.32201L27.2894 18.965C27.6431 19.1331 28.3411 19.4734 29.0215 19.7152C29.8413 20.0064 31.0978 20.3366 32.6374 20.1748L31.29 7.35481ZM29.7845 7.64126C29.5622 7.81132 29.4356 7.90783 29.3345 7.98209C29.2339 8.05586 29.2498 8.03976 29.3317 7.98944C29.4199 7.93529 29.6511 7.79968 29.9941 7.6666C30.3609 7.52424 30.7992 7.40637 31.29 7.35481L32.6374 20.1748C34.1769 20.013 35.3373 19.4287 36.0786 18.9734C36.6939 18.5955 37.3059 18.1174 37.617 17.8795L29.7845 7.64126ZM30.8347 6.83789L29.7845 7.64126L37.617 17.8795L38.6671 17.0761L30.8347 6.83789Z" fill="black"/>
<path fill-rule="evenodd" clip-rule="evenodd" d="M41.8124 12.7786C40.7967 12.1922 39.3674 13.2857 36.5087 15.4726L35.4586 16.2761C34.6284 16.9112 34.2131 17.2288 33.7215 17.2805C33.2298 17.3321 32.7578 17.1077 31.8136 16.6591L30.6193 16.0916C27.3683 14.5468 25.7429 13.7745 24.8714 14.5591C24 15.3438 24.5982 17.0411 25.7947 20.4357L26.2343 21.6827C26.5818 22.6686 26.7555 23.1615 26.6528 23.6452C26.55 24.1287 26.1907 24.5084 25.4722 25.2677L24.5636 26.2281C22.0897 28.8425 20.8528 30.1498 21.3298 31.2211C21.8068 32.2924 23.6059 32.2479 27.2041 32.1589L28.3652 32.1302L19.2321 47.9493C19.0248 48.3084 18.9211 48.4881 18.8701 48.6566C18.7025 49.2108 18.8637 49.8121 19.2859 50.2083C19.4142 50.3288 19.5939 50.4326 19.9532 50.6399C20.3123 50.8472 20.492 50.9509 20.6604 51.0019C21.2147 51.1693 21.816 51.0083 22.2122 50.5861C22.3325 50.4578 22.4362 50.2781 22.6437 49.9188L31.7768 34.0999L32.3325 35.1198C34.0546 38.2805 34.9157 39.8607 36.0819 39.7382C37.2482 39.6156 37.7618 37.8908 38.7891 34.4413L39.1664 33.174C39.4648 32.1722 39.6139 31.6712 39.9813 31.3404C40.3487 31.0096 40.8626 30.9136 41.8901 30.7216L43.1898 30.4787C46.7279 29.8177 48.497 29.4872 48.7407 28.34C48.9846 27.193 47.5029 26.1715 44.5396 24.1286L43.451 23.3781C42.5904 22.7846 42.1601 22.488 41.959 22.0364C41.7579 21.5848 41.8253 21.0664 41.9603 20.0298L42.131 18.7187C42.5955 15.1495 42.8279 13.3649 41.8124 12.7786Z" fill="#4951FF"/>
<path fill-rule="evenodd" clip-rule="evenodd" d="M40.0546 9.26293C39.0389 8.67659 37.6096 9.77006 34.7509 11.957L33.7007 12.7604C32.8705 13.3956 32.4553 13.7132 31.9637 13.7648C31.472 13.8165 31 13.5921 30.0558 13.1435L28.8615 12.576C25.6105 11.0312 23.9851 10.2588 23.1136 11.0435C22.2422 11.8282 22.8404 13.5254 24.0369 16.9201L24.4765 18.1671C24.8239 19.153 24.9977 19.6459 24.895 20.1295C24.7922 20.613 24.4329 20.9927 23.7144 21.7521L22.8057 22.7125C20.3319 25.3269 19.095 26.6341 19.572 27.7055C20.049 28.7768 21.8481 28.7323 25.4463 28.6433L26.6074 28.6146L17.4743 44.4336C17.267 44.7928 17.1633 44.9725 17.1123 45.141C16.9447 45.6952 17.1059 46.2964 17.5281 46.6927C17.6564 46.8131 17.8361 46.917 18.1954 47.1243C18.5545 47.3316 18.7342 47.4353 18.9026 47.4863C19.4568 47.6537 20.0582 47.4927 20.4544 47.0705C20.5748 46.9422 20.6784 46.7625 20.8859 46.4032L30.019 30.5843L30.5747 31.6042C32.2968 34.7648 33.1579 36.3451 34.3241 36.2225C35.4904 36.1 36.004 34.3752 37.0312 30.9257L37.4086 29.6584C37.707 28.6566 37.8561 28.1556 38.2235 27.8248C38.591 27.4939 39.1048 27.398 40.1323 27.206L41.432 26.9631C44.9701 26.302 46.7392 25.9716 46.9829 24.8244C47.2268 23.6774 45.7451 22.6559 42.7818 20.6129L41.6932 19.8625C40.8326 19.269 40.4023 18.9724 40.2012 18.5208C40.0001 18.0691 40.0676 17.5508 40.2026 16.5142L40.3732 15.2031C40.8377 11.6339 41.0701 9.84927 40.0546 9.26293Z" fill="white"/>
</svg>
