<svg width="60" height="60" viewBox="0 0 60 60" fill="none" xmlns="http://www.w3.org/2000/svg">
<g clip-path="url(#clip0_1_237)">
<path d="M58 30C58 45.464 45.464 58 30 58C14.536 58 2 45.464 2 30C2 14.536 14.536 2 30 2C45.464 2 58 14.536 58 30Z" fill="#FFBA34"/>
<path d="M45 38.2143C45 48.2738 39.375 50 30 50C20.625 50 15 48.2738 15 38.2143C15 28.1548 22.5 20 30 20C37.5 20 45 28.1548 45 38.2143Z" fill="#E40037"/>
<path fill-rule="evenodd" clip-rule="evenodd" d="M17.3782 11.2154C20.4287 10.4348 23.8708 10.6214 26.7952 12.4499C27.4976 12.889 27.7111 13.8145 27.2719 14.5169C26.8327 15.2194 25.9072 15.4328 25.2048 14.9936C23.1292 13.6959 20.5713 13.495 18.1218 14.1218C15.6598 14.7517 13.4738 16.179 12.2057 17.8924C11.7128 18.5583 10.7735 18.6985 10.1076 18.2057C9.44175 17.7128 9.30148 16.7735 9.79432 16.1076C11.5262 13.7677 14.3402 11.9928 17.3782 11.2154Z" fill="#572217"/>
<path fill-rule="evenodd" clip-rule="evenodd" d="M42.6218 11.2154C39.5713 10.4348 36.1292 10.6214 33.2048 12.4499C32.5024 12.889 32.2889 13.8145 32.7281 14.5169C33.1673 15.2194 34.0928 15.4328 34.7952 14.9936C36.8708 13.6959 39.4287 13.495 41.8782 14.1218C44.3402 14.7517 46.5262 16.179 47.7943 17.8924C48.2872 18.5583 49.2265 18.6985 49.8924 18.2057C50.5582 17.7128 50.6985 16.7735 50.2057 16.1076C48.4738 13.7677 45.6598 11.9928 42.6218 11.2154Z" fill="#572217"/>
<path fill-rule="evenodd" clip-rule="evenodd" d="M33.3598 30.4352C33.8007 30.1026 34.4277 30.1903 34.7604 30.6312L36.4916 32.9255C36.8243 33.3664 36.7366 33.9935 36.2957 34.3261L25.2469 42.6631C24.806 42.9958 24.7183 43.6228 25.051 44.0637L25.3143 44.4127C25.6469 44.8535 26.274 44.9412 26.7148 44.6086L33.8728 39.2075C34.3136 38.8748 34.9407 38.9625 35.2733 39.4034L37.0046 41.6978C37.3373 42.1386 37.2495 42.7657 36.8087 43.0984L28.8526 49.1017C28.8525 49.1018 28.8525 49.1018 28.8526 49.1019V49.1019C28.8526 49.1019 28.8526 49.102 28.8525 49.102L18.9509 56.5734C18.5101 56.906 17.883 56.8183 17.5504 56.3774L6.65689 41.9406C6.53977 41.7854 6.37152 41.6785 6.21614 41.5616C5.93503 41.3501 5.77419 40.9964 5.82637 40.6233L7.26286 30.3544C7.33937 29.8074 7.84479 29.4261 8.39175 29.5026L11.2383 29.9008C11.7853 29.9773 12.1666 30.4827 12.0901 31.0297L11.44 35.6775C11.3165 36.5598 12.3215 37.1509 13.0326 36.6143L17.1089 33.5385C17.109 33.5384 17.109 33.5385 17.1091 33.5385V33.5385C17.1091 33.5385 17.1092 33.5386 17.1092 33.5385L27.011 26.067C27.4518 25.7344 28.0789 25.8221 28.4115 26.263L30.1428 28.5573C30.4755 28.9982 30.3877 29.6253 29.9469 29.9579L20.8433 36.8271C20.4024 37.1598 20.3147 37.7868 20.6473 38.2277L20.9104 38.5763C21.2431 39.0172 21.8701 39.1049 22.311 38.7722L33.3598 30.4352Z" fill="#FFBA34"/>
<path fill-rule="evenodd" clip-rule="evenodd" d="M37.1551 28.8242L38.8864 31.1186C40.217 32.882 39.8661 35.3902 38.1027 36.7209L37.3859 37.2617C37.4849 37.3669 37.5791 37.4785 37.6681 37.5964L39.3994 39.8908C40.73 41.6543 40.3791 44.1625 38.6157 45.4931L30.6881 51.475C30.6786 51.4823 30.6691 51.4895 30.6595 51.4968L20.7579 58.9681C18.9945 60.2987 16.4862 59.9479 15.1556 58.1844L4.4334 43.9745C4.42659 43.9695 4.41962 43.9642 4.41253 43.9589C3.29516 43.1182 2.646 41.7039 2.8553 40.2077L5.82638 40.6233C5.77419 40.9964 5.93503 41.3501 6.21614 41.5616C6.24487 41.5832 6.27404 41.6045 6.30324 41.6258C6.43199 41.7197 6.56142 41.8141 6.65689 41.9406L17.5504 56.3774C17.883 56.8183 18.5101 56.906 18.9509 56.5734L28.8525 49.102L36.8087 43.0984C37.2495 42.7657 37.3373 42.1386 37.0046 41.6978L35.2734 39.4034C35.1789 39.2783 35.0608 39.1816 34.9299 39.1149C34.5997 38.9466 34.1885 38.9692 33.8728 39.2075L26.7148 44.6086C26.274 44.9412 25.6469 44.8535 25.3143 44.4127L25.051 44.0637C24.7183 43.6228 24.806 42.9958 25.2469 42.6631L36.2957 34.3261C36.7366 33.9935 36.8243 33.3664 36.4916 32.9255L34.7604 30.6312C34.4277 30.1903 33.8007 30.1026 33.3598 30.4352L22.311 38.7722C21.8701 39.1049 21.2431 39.0172 20.9104 38.5763L20.6474 38.2277C20.3147 37.7869 20.4024 37.1598 20.8433 36.8271L29.9469 29.9579C30.2627 29.7196 30.3973 29.3301 30.3259 28.9663C30.2976 28.8223 30.2371 28.6823 30.1428 28.5573L28.4116 26.263C28.0789 25.8221 27.4518 25.7344 27.011 26.067L17.1092 33.5385L13.0326 36.6143C12.3215 37.1509 11.3165 36.5598 11.44 35.6775L12.0901 31.0297C12.1666 30.4827 11.7853 29.9773 11.2383 29.9008L8.39175 29.5026C7.84479 29.4261 7.33937 29.8074 7.26286 30.3544L5.82638 40.6233L2.8553 40.2077L4.29179 29.9388C4.59784 27.751 6.61953 26.2255 8.80737 26.5315L11.6539 26.9297C13.7976 27.2296 15.3054 29.1766 15.0775 31.3131L15.3019 31.1437C15.3113 31.1367 15.3207 31.1296 15.3301 31.1227L25.204 23.6723C26.9674 22.3417 29.4757 22.6925 30.8063 24.456L32.5375 26.7504C32.687 26.9484 32.8152 27.1558 32.9226 27.3698C34.4509 26.9592 36.1434 27.4834 37.1551 28.8242ZM19.5038 31.7315C19.0176 31.0872 18.3218 30.6943 17.5831 30.5762C18.3195 30.6933 19.015 31.0838 19.5038 31.7315ZM31.2473 47.2949C31.7204 47.9219 31.9101 48.6745 31.8378 49.399C31.9099 48.673 31.7189 47.9199 31.2473 47.2949Z" fill="#572217"/>
</g>
<defs>
<clipPath id="clip0_1_237">
<rect width="60" height="60" fill="white"/>
</clipPath>
</defs>
</svg>
