<svg width="60" height="60" viewBox="0 0 60 60" fill="none" xmlns="http://www.w3.org/2000/svg">
<path d="M2 22C2 12.5719 2 7.85786 4.92893 4.92893C7.85786 2 12.5719 2 22 2H38C47.4281 2 52.1421 2 55.0711 4.92893C58 7.85786 58 12.5719 58 22V38C58 47.4281 58 52.1421 55.0711 55.0711C52.1421 58 47.4281 58 38 58H22C12.5719 58 7.85786 58 4.92893 55.0711C2 52.1421 2 47.4281 2 38V22Z" fill="#54C055"/>
<path fill-rule="evenodd" clip-rule="evenodd" d="M49.7925 11.5944C51.1211 12.5844 51.3956 14.464 50.4056 15.7925L26.5603 47.7925C25.9941 48.5523 25.1023 49 24.1547 49C23.2072 49 22.3153 48.5523 21.7492 47.7925L10.5944 32.8231C9.60443 31.4945 9.87889 29.6149 11.2075 28.6249C12.536 27.6349 14.4156 27.9094 15.4056 29.238L24.1547 40.9792L45.5944 12.2075C46.5844 10.8789 48.464 10.6044 49.7925 11.5944Z" fill="white"/>
</svg>
